<svg width="51" height="58" viewBox="0 0 51 58" fill="none" xmlns="http://www.w3.org/2000/svg">
<g opacity="0.8">
<ellipse cx="25.758" cy="55.5836" rx="12.7451" ry="2.41664" fill="#7D7B85"/>
<path fill-rule="evenodd" clip-rule="evenodd" d="M33.3913 44.9106C33.1947 44.9883 33.0249 45.1228 32.9088 45.2994L27.5921 53.3776C26.8019 54.5783 25.041 54.5783 24.2508 53.3776L18.9339 45.299C18.8177 45.1225 18.6479 44.9879 18.4514 44.9102C11.2181 42.0531 6.11987 35.1709 6.11987 27.1349C6.11987 16.5379 14.9855 7.94727 25.9218 7.94727C36.8581 7.94727 45.7238 16.5379 45.7238 27.1349C45.7238 35.1713 40.6251 42.0537 33.3913 44.9106ZM16.9835 33.4792C18.2176 33.4792 19.2181 32.5086 19.2181 31.3112C19.2181 30.1138 18.2176 29.1431 16.9835 29.1431C15.7495 29.1431 14.749 30.1138 14.749 31.3112C14.749 32.5086 15.7495 33.4792 16.9835 33.4792ZM28.1558 31.3114C28.1558 32.5088 27.1553 33.4795 25.9213 33.4795C24.6872 33.4795 23.6867 32.5088 23.6867 31.3114C23.6867 30.114 24.6872 29.1433 25.9213 29.1433C27.1553 29.1433 28.1558 30.114 28.1558 31.3114ZM34.8597 33.4795C36.0938 33.4795 37.0943 32.5088 37.0943 31.3114C37.0943 30.114 36.0938 29.1433 34.8597 29.1433C33.6256 29.1433 32.6252 30.114 32.6252 31.3114C32.6252 32.5088 33.6256 33.4795 34.8597 33.4795Z" fill="#3E3C45"/>
<path d="M0.758057 26.6023C0.758057 23.1215 3.57979 20.2998 7.06056 20.2998V20.2998C8.45287 20.2998 9.58157 21.4285 9.58157 22.8208V34.212C9.58157 35.6043 8.45287 36.733 7.06056 36.733V36.733C3.57979 36.733 0.758057 33.9113 0.758057 30.4305V26.6023Z" fill="#7D7B85"/>
<path fill-rule="evenodd" clip-rule="evenodd" d="M25.7582 0C11.9512 0 0.758301 11.1928 0.758301 24.9999V28.0329H3.87622V28.0336H47.6403V28.0329H50.7582V24.9999C50.7582 11.1928 39.5653 0 25.7582 0ZM47.6403 28.0329V25.1881C47.6403 13.1029 37.8434 3.306 25.7583 3.306C13.6732 3.306 3.87622 13.1029 3.87622 25.1881V28.0329H47.6403Z" fill="#7D7B85"/>
<path d="M41.9346 22.8208C41.9346 21.4285 43.0633 20.2998 44.4556 20.2998V20.2998C47.9364 20.2998 50.7581 23.1215 50.7581 26.6023V30.4305C50.7581 33.9112 47.9363 36.733 44.4556 36.733V36.733C43.0633 36.733 41.9346 35.6043 41.9346 34.212V22.8208Z" fill="#7D7B85"/>
</g>
</svg>
