<?xml version="1.0" encoding="UTF-8"?><svg id="Layer_2" xmlns="http://www.w3.org/2000/svg" viewBox="0 0 24 22"><defs><style>.cls-1,.cls-2{fill:none;}.cls-1,.cls-3{stroke-width:0px;}.cls-2{stroke:#5e5c67;stroke-linecap:round;stroke-width:2px;}.cls-3{fill:#5e5c67;}</style></defs><g id="Layer_1-2"><path class="cls-2" d="m2,1l20,20"/><path class="cls-1" d="m8.46,14.54c-1.45-1.45-1.82-3.57-1.12-5.36l-1.88-1.88c-1.13.82-2.2,1.85-3.17,3.09-.29.36-.29.87,0,1.24,2.75,3.47,6.2,5.38,9.71,5.38.93,0,1.86-.14,2.77-.41l-.94-.94c-1.79.7-3.91.33-5.36-1.12Z"/><path class="cls-1" d="m21.71,11.62c.29-.36.29-.87,0-1.24-2.75-3.47-6.2-5.38-9.71-5.38-.93,0-1.86.14-2.77.41l.94.94c1.79-.7,3.91-.33,5.36,1.12,1.45,1.45,1.82,3.56,1.12,5.36l1.88,1.88c1.13-.82,2.2-1.85,3.17-3.09Z"/><path class="cls-3" d="m12,17c-3.51,0-6.96-1.91-9.71-5.38-.29-.36-.29-.87,0-1.24.98-1.23,2.05-2.26,3.17-3.09l-1.44-1.44c-1.2.91-2.35,2.01-3.38,3.32-.85,1.08-.85,2.58,0,3.66,3.15,3.98,7.19,6.17,11.36,6.17,1.48,0,2.94-.29,4.35-.82l-1.58-1.58c-.91.26-1.84.41-2.77.41Z"/><path class="cls-3" d="m12,5c3.51,0,6.96,1.91,9.71,5.38.29.36.29.87,0,1.24-.98,1.23-2.05,2.26-3.17,3.09l1.44,1.44c1.2-.91,2.35-2.01,3.39-3.32.85-1.08.85-2.58,0-3.66-3.15-3.98-7.19-6.17-11.36-6.17-1.48,0-2.94.29-4.35.82l1.58,1.58c.91-.26,1.84-.41,2.77-.41Z"/><path class="cls-3" d="m15.54,7.46c-1.45-1.45-3.56-1.82-5.36-1.12l6.47,6.47c.7-1.79.33-3.91-1.12-5.36Z"/><path class="cls-3" d="m8.46,14.54c1.45,1.45,3.57,1.82,5.36,1.12l-6.47-6.47c-.7,1.79-.33,3.91,1.12,5.36Z"/></g></svg>