<svg width="17" height="20" viewBox="0 0 17 20" fill="none" xmlns="http://www.w3.org/2000/svg">
<ellipse cx="8.40625" cy="19" rx="4" ry="1" fill="#6B57EA"/>
<path fill-rule="evenodd" clip-rule="evenodd" d="M10.8186 15.8625C10.9403 15.6718 11.1239 15.53 11.3344 15.4472C14.3042 14.2785 16.4062 11.3847 16.4062 8C16.4062 3.58172 12.8245 0 8.40625 0C3.98797 0 0.40625 3.58172 0.40625 8C0.40625 11.3842 2.50762 14.2776 5.47673 15.4466C5.68714 15.5295 5.87068 15.6712 5.99227 15.8619L7.56251 18.3241C7.95561 18.9405 8.85569 18.9405 9.24879 18.3241L10.8186 15.8625Z" fill="#E7E6F0"/>
<path fill-rule="evenodd" clip-rule="evenodd" d="M5.15109 8.08987C5.41144 7.82953 5.83355 7.82953 6.0939 8.08988L7.50811 9.50409L11.4365 5.57572C11.6968 5.31537 12.1189 5.31537 12.3793 5.57572C12.6396 5.83607 12.6396 6.25818 12.3793 6.51853L7.50811 11.3897L5.15109 9.03268C4.89074 8.77233 4.89074 8.35022 5.15109 8.08987Z" fill="#6B57EA"/>
</svg>
