<svg width="19" height="22" viewBox="0 0 19 22" fill="none" xmlns="http://www.w3.org/2000/svg">
<path fill-rule="evenodd" clip-rule="evenodd" d="M9.41992 2.49707C11.3529 2.49707 12.9199 4.06407 12.9199 5.99707V7.00317H5.91992V5.99707C5.91992 4.06407 7.48693 2.49707 9.41992 2.49707ZM4.41992 7.00317V5.99707C4.41992 3.23565 6.6585 0.99707 9.41992 0.99707C12.1813 0.99707 14.4199 3.23565 14.4199 5.99707V7.00317H17.4062C17.9585 7.00317 18.4062 7.45089 18.4062 8.00317V20.0032C18.4062 20.5555 17.9585 21.0032 17.4062 21.0032H1.40625C0.853966 21.0032 0.40625 20.5555 0.40625 20.0032V8.00317C0.40625 7.45089 0.853965 7.00317 1.40625 7.00317H4.41992Z" fill="#E7E6F0"/>
<path d="M8.40625 11.9971C8.40625 11.4448 8.85397 10.9971 9.40625 10.9971C9.95853 10.9971 10.4062 11.4448 10.4062 11.9971V15.9971C10.4062 16.5494 9.95853 16.9971 9.40625 16.9971C8.85397 16.9971 8.40625 16.5494 8.40625 15.9971V11.9971Z" fill="#6B57EA"/>
</svg>
