<svg width="49" height="54" viewBox="0 0 49 54" fill="none" xmlns="http://www.w3.org/2000/svg">
<path d="M24.9385 52.3441C24.8017 52.3441 24.34 52.3098 24.1519 51.8117L21.8946 46.1263C21.45 45.027 20.4924 44.2197 19.2954 43.9793C7.73555 41.6433 1.87014 34.9445 1.87014 24.0891C1.85304 8.1667 13.8233 0.918304 24.9385 0.918304C36.0537 0.918304 48.024 8.1667 48.024 24.0891C48.024 34.9445 42.1585 41.6261 30.5987 43.9793C29.4017 44.2197 28.427 45.027 27.9995 46.1263L25.7422 51.8117C25.537 52.3098 25.0924 52.3441 24.9556 52.3441H24.9385Z" fill="#A085F4"/>
<path d="M24.9463 1.74531C35.6777 1.74531 47.232 8.83128 47.232 24.4169C47.232 34.9761 41.592 41.4861 30.4491 43.755C28.9749 44.0517 27.7577 45.0814 27.2091 46.4602L24.9463 52.2372L22.6834 46.4602C22.1349 45.064 20.9349 44.0517 19.4434 43.755C8.30057 41.4686 2.66057 34.9586 2.66057 24.4169C2.66057 8.83128 14.2149 1.74531 24.9463 1.74531ZM24.9463 0C13.1691 0 0.946289 7.94118 0.946289 24.4169C0.946289 34.5572 5.91772 42.7776 19.1006 45.4829C19.992 45.6574 20.7463 46.2683 21.0891 47.1235L23.352 52.9005C23.6434 53.6335 24.2949 54 24.9463 54C25.5977 54 26.2491 53.6335 26.5406 52.9005L28.8034 47.1235C29.1463 46.2683 29.9006 45.6574 30.792 45.4829C43.9749 42.7776 48.9463 34.5572 48.9463 24.4169C48.9463 7.94118 36.7234 0 24.9463 0Z" fill="white"/>
</svg>
