<svg width="103" height="120" viewBox="0 0 103 120" fill="none" xmlns="http://www.w3.org/2000/svg">
<ellipse cx="51.2886" cy="115" rx="26" ry="5" fill="#414141"/>
<path fill-rule="evenodd" clip-rule="evenodd" d="M66.5445 93.0434C66.3471 93.1205 66.1775 93.2569 66.0622 93.4347L53.2987 113.103C52.5102 114.318 50.7318 114.318 49.9433 113.103L37.1791 93.4335C37.0637 93.2557 36.8943 93.1194 36.6969 93.0422C21.7744 87.2081 11.2261 72.8851 11.2261 56.1409C11.2261 34.2157 29.312 16.4419 51.6221 16.4419C73.9323 16.4419 92.0182 34.2157 92.0182 56.1409C92.0182 72.8862 81.4685 87.21 66.5445 93.0434ZM33.3883 69.2683C35.9059 69.2683 37.9468 67.26 37.9468 64.7826C37.9468 62.3052 35.9059 60.2969 33.3883 60.2969C30.8708 60.2969 28.8299 62.3052 28.8299 64.7826C28.8299 67.26 30.8708 69.2683 33.3883 69.2683ZM56.1804 64.7825C56.1804 67.2599 54.1396 69.2682 51.622 69.2682C49.1045 69.2682 47.0636 67.2599 47.0636 64.7825C47.0636 62.3051 49.1045 60.2968 51.622 60.2968C54.1396 60.2968 56.1804 62.3051 56.1804 64.7825ZM69.8557 69.2682C72.3733 69.2682 74.4142 67.2599 74.4142 64.7825C74.4142 62.3051 72.3733 60.2968 69.8557 60.2968C67.3382 60.2968 65.2973 62.3051 65.2973 64.7825C65.2973 67.2599 67.3382 69.2682 69.8557 69.2682Z" fill="#252525"/>
<path d="M0.288574 52C0.288574 46.4772 4.76573 42 10.2886 42H14.2886C16.4977 42 18.2886 43.7909 18.2886 46V72C18.2886 74.2091 16.4977 76 14.2886 76H10.2886C4.76573 76 0.288574 71.5228 0.288574 66V52Z" fill="#414141"/>
<path fill-rule="evenodd" clip-rule="evenodd" d="M51.2886 0C23.1221 0 0.288574 22.8335 0.288574 51V57.9996H6.64911V58H95.9281V57.9996H102.289V51C102.289 22.8335 79.4551 0 51.2886 0ZM95.9281 57.9996V51.4784C95.9281 26.8247 75.9423 6.83891 51.2886 6.83891C26.6349 6.83891 6.64911 26.8247 6.64911 51.4784V57.9996H95.9281Z" fill="#414141"/>
<path d="M84.2886 46C84.2886 43.7909 86.0794 42 88.2886 42H92.2886C97.8114 42 102.289 46.4772 102.289 52V66C102.289 71.5228 97.8114 76 92.2886 76H88.2886C86.0794 76 84.2886 74.2091 84.2886 72V46Z" fill="#414141"/>
</svg>
