<svg width="24" height="24" viewBox="0 0 18 15" fill="none" xmlns="http://www.w3.org/2000/svg">
<path d="M9.15234 4.45394V1.61047C9.1527 1.39088 9.21886 1.17631 9.34249 0.993796C9.46611 0.811282 9.64167 0.668996 9.84703 0.584867C10.0524 0.500738 10.2784 0.478531 10.4965 0.521045C10.7146 0.56356 10.9151 0.668892 11.0727 0.823769L17.4172 7.00558C17.8201 7.39812 17.8201 8.04559 17.4171 8.43809L11.0727 14.6188C10.9685 14.7224 10.8446 14.8046 10.7081 14.8606C10.5716 14.9167 10.4252 14.9456 10.2773 14.9456C10.1295 14.9456 9.98313 14.9167 9.84663 14.8606C9.71013 14.8046 9.5862 14.7224 9.48197 14.6188C9.37745 14.5157 9.29453 14.3933 9.23797 14.2585C9.18141 14.1237 9.15231 13.9792 9.15234 13.8333V11.0676C6.32005 11.1367 3.24733 11.6064 0.810317 14.6036C0.600814 14.8613 0.152344 14.7209 0.152344 14.3888V14.3888C0.152344 9.24082 4.08984 5.0073 9.15234 4.45394Z" fill="white"/>
</svg>
