<svg width="19" height="16" viewBox="0 0 19 16" fill="none" xmlns="http://www.w3.org/2000/svg">
<g opacity="0.8">
<path fill-rule="evenodd" clip-rule="evenodd" d="M0.606445 1.69421C0.606445 1.14193 1.05416 0.694214 1.60645 0.694214H17.6063C18.1586 0.694214 18.6063 1.14193 18.6063 1.69421C18.6063 2.2465 18.1586 2.69421 17.6063 2.69421H1.60645C1.05416 2.69421 0.606445 2.2465 0.606445 1.69421Z" fill="white"/>
<path fill-rule="evenodd" clip-rule="evenodd" d="M10.2648 6.55321C9.88773 6.22331 9.32477 6.22331 8.94774 6.55321L0.947804 13.5532C0.53217 13.9169 0.490054 14.5487 0.853738 14.9643C1.21742 15.3799 1.84918 15.422 2.26482 15.0584L9.60625 8.63456L16.9477 15.0584C17.3633 15.422 17.9951 15.3799 18.3588 14.9643C18.7224 14.5487 18.6803 13.9169 18.2647 13.5532L10.2648 6.55321Z" fill="#F3EFFF"/>
</g>
</svg>
