<svg width="15" height="15" viewBox="0 0 14 14" fill="none" xmlns="http://www.w3.org/2000/svg">
<path d="M9.49497 6.92194C9.04059 6.92194 8.61523 7.00319 8.19952 7.10882C9.52397 8.03507 10.394 9.51382 10.394 11.1794V13.4138H13.3426C13.7003 13.4138 14 13.1457 14 12.8207V10.9763C14 8.73382 11.9795 6.91382 9.49497 6.91382V6.92194Z" fill="#E7E6F0"/>
<path d="M0 10.9763C0 8.73382 2.16552 6.91382 4.83374 6.91382C7.50196 6.91382 9.66748 8.73382 9.66748 10.9763V12.8207C9.66748 13.1457 9.34845 13.4138 8.96175 13.4138H0.705726C0.319027 13.4138 0 13.1457 0 12.8207V10.9763Z" fill="#E7E6F0"/>
<path d="M4.83353 5.98525C6.43529 5.98525 7.73378 4.73804 7.73378 3.19953C7.73378 1.66103 6.43529 0.413818 4.83353 0.413818C3.23177 0.413818 1.93329 1.66103 1.93329 3.19953C1.93329 4.73804 3.23177 5.98525 4.83353 5.98525Z" fill="#E7E6F0"/>
<path d="M9.55673 0.413818C8.87195 0.413818 8.24759 0.636676 7.73401 0.989533C8.23752 1.61168 8.53963 2.3731 8.53963 3.19953C8.53963 4.02596 8.23752 4.78739 7.73401 5.40953C8.23752 5.76239 8.86188 5.98525 9.54666 5.98525C11.2183 5.98525 12.5677 4.74096 12.5677 3.19953C12.5677 1.6581 11.2183 0.413818 9.55673 0.413818Z" fill="#E7E6F0"/>
</svg>
