<svg width="20" height="18" viewBox="0 0 20 18" fill="none" xmlns="http://www.w3.org/2000/svg">
<path d="M20 9.47368V16.1053C20 16.6078 19.7893 17.0897 19.4142 17.445C19.0391 17.8004 18.5304 18 18 18H16C15.4696 18 14.9609 17.8004 14.5858 17.445C14.2107 17.0897 14 16.6078 14 16.1053V11.3684C14 10.8659 14.2107 10.384 14.5858 10.0286C14.9609 9.67331 15.4696 9.47368 16 9.47368H18C18 7.46362 17.1571 5.53589 15.6569 4.11456C14.1566 2.69323 12.1217 1.89474 10 1.89474C7.87827 1.89474 5.84344 2.69323 4.34315 4.11456C2.84285 5.53589 2 7.46362 2 9.47368H4C4.53043 9.47368 5.03914 9.67331 5.41421 10.0286C5.78929 10.384 6 10.8659 6 11.3684V16.1053C6 16.6078 5.78929 17.0897 5.41421 17.445C5.03914 17.8004 4.53043 18 4 18H2C1.46957 18 0.960859 17.8004 0.585786 17.445C0.210714 17.0897 0 16.6078 0 16.1053V9.47368C0 4.24137 4.477 0 10 0C15.523 0 20 4.24137 20 9.47368Z" fill="#414141"/>
</svg>
