<svg width="18" height="18" viewBox="0 0 18 18" fill="none" xmlns="http://www.w3.org/2000/svg">
<path fill-rule="evenodd" clip-rule="evenodd" d="M4 1C4 0.447715 4.44772 0 5 0H17C17.5523 0 18 0.447715 18 1V3.89189V13.6216C18 14.965 16.6569 16.0541 15 16.0541C13.3431 16.0541 12 14.965 12 13.6216C12 12.2782 13.3431 11.1892 15 11.1892C15.3506 11.1892 15.6872 11.238 16 11.3276V3.89189H6V15.5676C6 16.911 4.65685 18 3 18C1.34315 18 0 16.911 0 15.5676C0 14.2242 1.34315 13.1351 3 13.1351C3.35064 13.1351 3.68722 13.1839 4 13.2735V3.89189V1Z" fill="#414141"/>
</svg>
