<svg width="17" height="21" viewBox="0 0 17 21" fill="none" xmlns="http://www.w3.org/2000/svg">
<path fill-rule="evenodd" clip-rule="evenodd" d="M11.7568 15.7282C11.5839 15.8181 11.4352 15.9497 11.3336 16.116L8.88772 20.1229C8.49789 20.7615 7.57047 20.7615 7.18064 20.1229L4.7008 16.0604C4.60177 15.8982 4.45776 15.7689 4.29032 15.679C1.77818 14.3298 0.0700684 11.6776 0.0700684 8.62646C0.0700684 4.20819 3.65179 0.626465 8.07007 0.626465C12.4883 0.626465 16.0701 4.20819 16.0701 8.62646C16.0701 11.7151 14.3197 14.395 11.7568 15.7282ZM8.04761 11.8563C9.70446 11.8563 11.0476 10.5132 11.0476 8.85631C11.0476 7.19946 9.70446 5.85631 8.04761 5.85631C6.39075 5.85631 5.04761 7.19946 5.04761 8.85631C5.04761 10.5132 6.39075 11.8563 8.04761 11.8563Z" fill="#8A8393"/>
</svg>
