<?xml version="1.0" encoding="utf-8"?>
<!-- Generator: Adobe Illustrator 27.7.0, SVG Export Plug-In . SVG Version: 6.00 Build 0)  -->
<svg version="1.1" id="Layer_1" xmlns="http://www.w3.org/2000/svg" xmlns:xlink="http://www.w3.org/1999/xlink" x="0px" y="0px"
	 viewBox="0 0 27 22" style="enable-background:new 0 0 27 22;" xml:space="preserve" width="20" height="20">
<path d="M16.5,1.5c1-0.6,2.2-0.9,3.9-0.7l0,0c3,0.3,5.3,3.1,5.3,6.2c0,4.6-2.4,8-5.1,10.3c-2.8,2.3-5.8,3.5-6.9,3.9l0,0
	l0,0c-0.1,0-0.2,0-0.4,0v0l0,0c-1.1-0.4-4.2-1.6-6.9-3.9C3.6,15,1.2,11.7,1.3,7c0-3.2,2.1-5.9,5.3-6.2c1.7-0.2,2.9,0.1,3.9,0.7
	c1,0.6,1.8,1.6,2.3,2.7l0.7,1.3l0.7-1.3C14.8,3.1,15.5,2.2,16.5,1.5z" fill="none" stroke="#E7E6F0" stroke-width="1.5"/>
</svg>
