<svg width="26" height="26" viewBox="0 0 26 22" fill="none" xmlns="http://www.w3.org/2000/svg">
<path d="M16.4902 19.375L16.4894 19.3757C15.8082 19.9047 15.1861 20.3799 14.5825 20.7267C13.979 21.0735 13.4629 21.25 13 21.25C12.5373 21.25 12.0213 21.0733 11.4175 20.7264C10.8136 20.3794 10.1915 19.9045 9.50991 19.3764C9.13496 19.0858 8.75186 18.7954 8.36537 18.5025C6.73448 17.2664 5.04309 15.9844 3.64758 14.4398C1.94712 12.5577 0.75 10.3475 0.75 7.47854C0.75 4.6589 2.37106 2.27561 4.61362 1.26806C6.81218 0.280281 9.73213 0.566562 12.464 3.35775L12.9999 3.90533L13.5359 3.35781C16.2678 0.567259 19.1877 0.281217 21.3863 1.26916C23.6289 2.27687 25.25 4.66019 25.25 7.47981C25.25 10.3482 24.0532 12.5584 22.3529 14.4403C20.9551 15.9875 19.26 17.2712 17.6261 18.5085C17.2426 18.799 16.8624 19.0869 16.4902 19.375Z" stroke="#FAFAFA" stroke-width="1.5"/>
</svg>
