<svg width="28" height="28" viewBox="0 0 26 26" fill="none" xmlns="http://www.w3.org/2000/svg">
<path fill-rule="evenodd" clip-rule="evenodd" d="M11.9999 2.16176C9.08152 2.16176 6.44004 3.34152 4.52407 5.25182C4.248 5.52707 3.80106 5.52641 3.52581 5.25034C3.25055 4.97426 3.25122 4.52732 3.52729 4.25207C5.69709 2.0887 8.69284 0.75 11.9999 0.75C18.6273 0.75 23.9999 6.12258 23.9999 12.75C23.9999 19.3774 18.6273 24.75 11.9999 24.75C8.68929 24.75 5.69067 23.4084 3.52031 21.241C3.24447 20.9655 3.24417 20.5186 3.51965 20.2427C3.79513 19.9669 4.24207 19.9666 4.51792 20.242C6.43438 22.1559 9.0784 23.3382 11.9999 23.3382C17.8476 23.3382 22.5881 18.5977 22.5881 12.75C22.5881 6.90228 17.8476 2.16176 11.9999 2.16176Z" fill="#FAFAFA" stroke="#FAFAFA"/>
<path fill-rule="evenodd" clip-rule="evenodd" d="M11.9385 13.4999H0.777778C0.348223 13.4999 0 13.1641 0 12.7499C0 12.3357 0.348223 11.9999 0.777778 11.9999H11.9403L9.75006 9.80963C9.45716 9.51673 9.45716 9.04186 9.75006 8.74897C10.0429 8.45607 10.5178 8.45607 10.8107 8.74897L14.1036 12.0419C14.4941 12.4324 14.4941 13.0655 14.1036 13.4561L10.8107 16.749C10.5178 17.0419 10.0429 17.0419 9.75006 16.749C9.45716 16.4561 9.45716 15.9812 9.75006 15.6883L11.9385 13.4999Z" fill="#FAFAFA" stroke="#FAFAFA"/>
</svg>
