<svg width="130" height="42" viewBox="0 0 130 42" fill="none" xmlns="http://www.w3.org/2000/svg">
<path fill-rule="evenodd" clip-rule="evenodd" d="M6.93632 0.5H2.49951C1.39494 0.5 0.499512 1.39543 0.499512 2.5V39.4163C0.499512 40.5209 1.39494 41.4163 2.49951 41.4163H6.93632C8.04089 41.4163 8.93632 40.5209 8.93632 39.4164V2.5C8.93632 1.39543 8.04089 0.5 6.93632 0.5ZM12.439 25.8017V21.0321L12.439 7.38128V2.5C12.439 1.39543 13.3345 0.5 14.439 0.5H19.9759C29.2282 0.5 34.5434 6.17851 34.5433 14.1509C34.5433 22.2353 29.1438 27.8017 19.751 27.8017H14.439C13.3344 27.8017 12.439 26.9063 12.439 25.8017ZM100.421 26.1417C100.394 17.0042 106.215 10.8125 115.158 10.8125C123.173 10.8125 129.5 15.7222 129.5 25.8144V27.1055C129.5 27.6578 129.053 28.1055 128.5 28.1055H109.698C109.121 28.1055 108.66 28.5946 108.733 29.1669C109.325 33.8008 111.774 35.2286 115.813 35.2286C119.05 35.2286 120.641 34.0574 121.632 32.788C121.836 32.5273 122.141 32.3608 122.472 32.3608H128.127C128.734 32.3608 129.205 32.8998 129.058 33.4886C127.804 38.4985 123.041 41.4161 115.495 41.4161C106.13 41.4161 100.394 35.5247 100.421 26.1417ZM120.64 23.0641C121.187 23.0641 121.64 22.623 121.578 22.0797C121.224 19.0013 118.966 16.8679 115.326 16.8679C111.761 16.8679 109.139 18.8058 108.699 22.0665C108.625 22.6138 109.081 23.0641 109.633 23.0641H120.64ZM31.4362 36.3535C31.3748 33.5358 33.7147 31.2391 36.6084 31.2698C39.3488 31.2391 41.7192 33.5358 41.7192 36.3535C41.7192 39.2015 39.3488 41.4982 36.6084 41.4982C33.7147 41.4982 31.3748 39.2015 31.4362 36.3535ZM61.8569 25.8017V21.0321V7.38128V2.5C61.8569 1.39543 62.7524 0.5 63.8569 0.5H69.3938C78.6462 0.5 83.9613 6.17845 83.9613 14.1508C83.9613 22.2352 78.5618 27.8017 69.1689 27.8017H63.8569C62.7524 27.8017 61.8569 26.9062 61.8569 25.8017ZM58.4383 7.45112V2.5C58.4383 1.39543 57.5428 0.5 56.4383 0.5H52.0015C50.8969 0.5 50.0015 1.39543 50.0015 2.5V39.4164C50.0015 40.5209 50.8969 41.4163 52.0015 41.4163H56.4383C57.5428 41.4163 58.4383 40.5209 58.4383 39.4163V31.8305V28.0789V21.2406V7.45112ZM96.2702 2.5V7.45112V21.2406V28.0789V31.8305V39.4163C96.2702 40.5209 95.3748 41.4163 94.2702 41.4163H89.8335C88.7289 41.4163 87.8335 40.5209 87.8335 39.4164V2.5C87.8335 1.39543 88.7289 0.5 89.8335 0.5H94.2702C95.3748 0.5 96.2702 1.39543 96.2702 2.5ZM28.3293 15.2833C28.8018 15.5693 28.953 16.1842 28.667 16.6566C25.9732 21.1072 20.8731 21.6873 18.6795 21.4489C18.1305 21.3892 17.7338 20.8957 17.7935 20.3466C17.8531 19.7976 18.3466 19.4009 18.8957 19.4606C20.7127 19.6581 24.8368 19.1222 26.956 15.621C27.242 15.1485 27.8569 14.9974 28.3293 15.2833ZM78.169 16.6566C78.4549 16.1842 78.3038 15.5693 77.8313 15.2833C77.3588 14.9974 76.744 15.1485 76.458 15.621C74.3388 19.1222 70.2146 19.6581 68.3976 19.4606C67.8486 19.4009 67.3551 19.7976 67.2954 20.3466C67.2357 20.8957 67.6324 21.3892 68.1815 21.4489C70.375 21.6873 75.4752 21.1072 78.169 16.6566Z" fill="white"/>
</svg>
