<svg width="24" height="24" viewBox="0 0 17 17" fill="none" xmlns="http://www.w3.org/2000/svg">
<path fill-rule="evenodd" clip-rule="evenodd" d="M1.61845 0.253611C1.28909 -0.075748 0.755089 -0.075748 0.42573 0.253611C0.0963712 0.58297 0.0963712 1.11697 0.42573 1.44633L6.986 8.00659L0.426398 14.5662C0.0970392 14.8956 0.0970389 15.4296 0.426398 15.7589C0.755757 16.0883 1.28975 16.0883 1.61911 15.7589L8.17871 9.19931L14.7383 15.7589C15.0677 16.0883 15.6017 16.0883 15.931 15.7589C16.2604 15.4296 16.2604 14.8956 15.931 14.5662L9.37143 8.00659L15.9317 1.44633C16.2611 1.11697 16.2611 0.58297 15.9317 0.253611C15.6023 -0.075748 15.0683 -0.075748 14.739 0.253611L8.17871 6.81388L1.61845 0.253611Z" fill="#FAFAFA"/>
</svg>
