<svg width="24" height="24" viewBox="-1 0 26 20" fill="none" xmlns="http://www.w3.org/2000/svg">
<path fill-rule="evenodd" clip-rule="evenodd" d="M0 0.75C0 0.335786 0.316034 0 0.705882 0H23.2941C23.684 0 24 0.335786 24 0.75C24 1.16421 23.684 1.5 23.2941 1.5H0.705882C0.316034 1.5 0 1.16421 0 0.75Z" fill="#FAFAFA" stroke="#FAFAFA"/>
<path fill-rule="evenodd" clip-rule="evenodd" d="M0 9.75C0 9.33579 0.316034 9 0.705882 9H23.2941C23.684 9 24 9.33579 24 9.75C24 10.1642 23.684 10.5 23.2941 10.5H0.705882C0.316034 10.5 0 10.1642 0 9.75Z" fill="#FAFAFA" stroke="#FAFAFA"/>
<path fill-rule="evenodd" clip-rule="evenodd" d="M0 18.75C0 18.3358 0.316034 18 0.705882 18H23.2941C23.684 18 24 18.3358 24 18.75C24 19.1642 23.684 19.5 23.2941 19.5H0.705882C0.316034 19.5 0 19.1642 0 18.75Z" fill="#FAFAFA" stroke="#FAFAFA"/>
</svg>
