<svg width="20" height="20" viewBox="0 0 21 19" fill="none" xmlns="http://www.w3.org/2000/svg">
<path fill-rule="evenodd" clip-rule="evenodd" d="M12.123 7.95776C12.3675 7.95776 12.5761 8.13447 12.6162 8.37556L13.5466 13.9578H16.2298C16.5059 13.9578 16.7298 14.1816 16.7298 14.4578C16.7298 14.7339 16.5059 14.9578 16.2298 14.9578H13.123C12.8786 14.9578 12.67 14.7811 12.6299 14.54L12.123 11.4991L11.6162 14.54C11.5761 14.7811 11.3675 14.9578 11.123 14.9578H9.12305C8.90783 14.9578 8.71676 14.82 8.64871 14.6159L8.12305 13.0389L7.59739 14.6159C7.52933 14.82 7.33826 14.9578 7.12305 14.9578H3.12305C2.8469 14.9578 2.62305 14.7339 2.62305 14.4578C2.62305 14.1816 2.8469 13.9578 3.12305 13.9578H6.76267L7.64871 11.2996C7.71676 11.0955 7.90783 10.9578 8.12305 10.9578C8.33826 10.9578 8.52933 11.0955 8.59739 11.2996L9.48343 13.9578H10.6995L11.6299 8.37556C11.67 8.13447 11.8786 7.95776 12.123 7.95776Z" fill="#6B57EA"/>
<path fill-rule="evenodd" clip-rule="evenodd" d="M20.123 14.9578V15.9578C20.123 17.6146 18.7799 18.9578 17.123 18.9578C15.4662 18.9578 14.123 17.6146 14.123 15.9578V11.9578C14.123 10.3009 15.4662 8.95776 17.123 8.95776C17.6176 8.95776 18.0841 9.07742 18.4954 9.28935C17.7967 5.29838 14.3141 2.26514 10.123 2.26514C5.93197 2.26514 2.44935 5.29838 1.75071 9.28935C2.16196 9.07742 2.62853 8.95776 3.12305 8.95776C4.7799 8.95776 6.12305 10.3009 6.12305 11.9578V15.9578C6.12305 17.6146 4.7799 18.9578 3.12305 18.9578C1.46619 18.9578 0.123047 17.6146 0.123047 15.9578V14.9578V11.9578V10.7651C0.123047 5.24229 4.6002 0.765137 10.123 0.765137C15.6459 0.765137 20.123 5.24229 20.123 10.7651V11.9578V14.9578Z" fill="#E7E6F0"/>
</svg>
