<svg width="15" height="15" viewBox="0 0 15 15" fill="none" xmlns="http://www.w3.org/2000/svg">
<path fill-rule="evenodd" clip-rule="evenodd" d="M3.77664 1.23828C3.77664 0.685997 4.22435 0.238281 4.77664 0.238281H13.6655C14.2178 0.238281 14.6655 0.685997 14.6655 1.23828V3.26531V10.8329C14.6655 11.8777 13.6209 12.7248 12.3322 12.7248C11.0435 12.7248 9.99886 11.8777 9.99886 10.8329C9.99886 9.78801 11.0435 8.94098 12.3322 8.94098C12.6049 8.94098 12.8667 8.97892 13.11 9.04864V3.26531H5.33219V12.3464C5.33219 13.3913 4.28752 14.2383 2.99886 14.2383C1.7102 14.2383 0.665527 13.3913 0.665527 12.3464C0.665527 11.3015 1.7102 10.4545 2.99886 10.4545C3.27158 10.4545 3.53337 10.4924 3.77664 10.5622V3.26531V1.23828Z" fill="#FAFAFA"/>
</svg>
