<svg width="89" height="104" viewBox="0 0 89 104" fill="none" xmlns="http://www.w3.org/2000/svg">
<ellipse cx="44.3871" cy="99.3292" rx="22.3842" ry="4.30465" fill="#4F4E55"/>
<path fill-rule="evenodd" clip-rule="evenodd" d="M57.5638 80.4094C57.3664 80.4869 57.1969 80.6231 57.0815 80.801L46.3512 97.3365C45.5627 98.5516 43.7842 98.5516 42.9958 97.3365L32.2648 80.8C32.1494 80.6222 31.9799 80.4859 31.7826 80.4085C18.9577 75.3752 9.89624 63.0553 9.89624 48.6556C9.89624 29.7796 25.467 14.4775 44.6744 14.4775C63.8819 14.4775 79.4526 29.7796 79.4526 48.6556C79.4526 63.0563 70.3899 75.3768 57.5638 80.4094ZM28.9763 59.9573C31.1437 59.9573 32.9008 58.2283 32.9008 56.0955C32.9008 53.9626 31.1437 52.2336 28.9763 52.2336C26.8089 52.2336 25.0518 53.9626 25.0518 56.0955C25.0518 58.2283 26.8089 59.9573 28.9763 59.9573ZM48.5987 56.0957C48.5987 58.2285 46.8417 59.9575 44.6742 59.9575C42.5068 59.9575 40.7498 58.2285 40.7498 56.0957C40.7498 53.9628 42.5068 52.2338 44.6742 52.2338C46.8417 52.2338 48.5987 53.9628 48.5987 56.0957ZM60.3721 59.9575C62.5396 59.9575 64.2966 58.2285 64.2966 56.0957C64.2966 53.9628 62.5396 52.2338 60.3721 52.2338C58.2047 52.2338 56.4476 53.9628 56.4476 56.0957C56.4476 58.2285 58.2047 59.9575 60.3721 59.9575Z" fill="#403E45"/>
<path d="M0.479736 46.4813C0.479736 40.9585 4.95689 36.4813 10.4797 36.4813H11.9765C14.1856 36.4813 15.9765 38.2722 15.9765 40.4813V61.7529C15.9765 63.9621 14.1856 65.7529 11.9765 65.7529H10.4797C4.95688 65.7529 0.479736 61.2758 0.479736 55.7529V46.4813Z" fill="#4F4E55"/>
<path fill-rule="evenodd" clip-rule="evenodd" d="M44.3871 0.322266C20.1378 0.322266 0.479736 19.9803 0.479736 44.2296V50.2558H5.95583V50.2561H82.8187V50.2558H88.2945V44.2297C88.2945 19.9803 68.6365 0.322266 44.3871 0.322266ZM82.8187 50.2558V44.6415C82.8187 23.4164 65.6124 6.21005 44.3873 6.21005C23.1622 6.21005 5.95583 23.4164 5.95583 44.6415V50.2558H82.8187Z" fill="#4F4E55"/>
<path d="M72.7979 40.4813C72.7979 38.2722 74.5887 36.4813 76.7979 36.4813H78.2946C83.8174 36.4813 88.2946 40.9585 88.2946 46.4813V55.7529C88.2946 61.2758 83.8174 65.7529 78.2946 65.7529H76.7978C74.5887 65.7529 72.7979 63.9621 72.7979 61.7529V40.4813Z" fill="#4F4E55"/>
</svg>
