<svg width="17" height="14" viewBox="0 0 17 14" fill="none" xmlns="http://www.w3.org/2000/svg">
<path fill-rule="evenodd" clip-rule="evenodd" d="M16.4537 7.70711C16.8442 7.31658 16.8442 6.68342 16.4537 6.29289L10.4537 0.292893C10.0632 -0.0976317 9.43 -0.0976318 9.03948 0.292893C8.64895 0.683417 8.64895 1.31658 9.03948 1.70711L14.3324 7L9.03948 12.2929C8.64895 12.6834 8.64895 13.3166 9.03948 13.7071C9.43 14.0976 10.0632 14.0976 10.4537 13.7071L16.4537 7.70711Z" fill="white"/>
<path fill-rule="evenodd" clip-rule="evenodd" d="M8.45369 7.70711C8.84421 7.31658 8.84421 6.68342 8.45369 6.29289L2.45369 0.292893C2.06317 -0.0976317 1.43 -0.0976318 1.03948 0.292893C0.648953 0.683417 0.648953 1.31658 1.03948 1.70711L6.33237 7L1.03948 12.2929C0.648952 12.6834 0.648952 13.3166 1.03948 13.7071C1.43 14.0976 2.06317 14.0976 2.45369 13.7071L8.45369 7.70711Z" fill="white"/>
</svg>
