<svg width="17" height="14" viewBox="0 0 17 14" fill="none" xmlns="http://www.w3.org/2000/svg">
<path fill-rule="evenodd" clip-rule="evenodd" d="M1.03947 7.70711C0.648951 7.31658 0.648951 6.68342 1.03947 6.29289L7.03947 0.292893C7.43 -0.0976317 8.06316 -0.0976318 8.45369 0.292893C8.84421 0.683417 8.84421 1.31658 8.45369 1.70711L3.16079 7L8.45369 12.2929C8.84421 12.6834 8.84421 13.3166 8.45369 13.7071C8.06316 14.0976 7.43 14.0976 7.03947 13.7071L1.03947 7.70711Z" fill="white"/>
<path fill-rule="evenodd" clip-rule="evenodd" d="M9.03947 7.70711C8.64895 7.31658 8.64895 6.68342 9.03947 6.29289L15.0395 0.292893C15.43 -0.0976317 16.0632 -0.0976318 16.4537 0.292893C16.8442 0.683417 16.8442 1.31658 16.4537 1.70711L11.1608 7L16.4537 12.2929C16.8442 12.6834 16.8442 13.3166 16.4537 13.7071C16.0632 14.0976 15.43 14.0976 15.0395 13.7071L9.03947 7.70711Z" fill="white"/>
</svg>
