<?xml version="1.0" encoding="utf-8"?>
<!-- Generator: Adobe Illustrator 27.7.0, SVG Export Plug-In . SVG Version: 6.00 Build 0)  -->
<svg version="1.1" id="Layer_1" xmlns="http://www.w3.org/2000/svg" xmlns:xlink="http://www.w3.org/1999/xlink" x="0px" y="0px"
	 viewBox="0 0 17 20" style="enable-background:new 0 0 17 20;" xml:space="preserve" width="20" height="20">
<path class="st0" d="M11.7,15.8c-0.2,0.1-0.4,0.2-0.5,0.4l-1.9,2.9c-0.4,0.6-1.3,0.6-1.7,0l-1.9-2.9c-0.1-0.2-0.3-0.3-0.5-0.4
	c-2.8-1.2-4.8-4.1-4.8-7.3c0-4.4,3.6-8,8-8c4.4,0,8,3.6,8,8C16.5,11.7,14.5,14.5,11.7,15.8z M8.5,11.4c1.7,0,3-1.3,3-3
	c0-1.7-1.3-3-3-3c-1.7,0-3,1.3-3,3C5.5,10.1,6.8,11.4,8.5,11.4z" fill="#8A8393" />
</svg>
