<svg width="31" height="30" viewBox="0 0 31 30" fill="none" xmlns="http://www.w3.org/2000/svg">
<circle cx="15.4062" cy="15" r="14.5" fill="#EEE6FF" stroke="url(#paint0_linear_1151_4367)"/>
<path fill-rule="evenodd" clip-rule="evenodd" d="M12.4111 8C11.8589 8 11.4111 8.44772 11.4111 9V10H7.41115C6.85886 10 6.41115 10.4477 6.41115 11V21C6.41115 21.5523 6.85886 22 7.41115 22H23.4111C23.9634 22 24.4111 21.5523 24.4111 21V11C24.4111 10.4477 23.9634 10 23.4111 10H19.4111V9C19.4111 8.44772 18.9634 8 18.4111 8H12.4111Z" fill="url(#paint1_linear_1151_4367)"/>
<circle cx="15.4063" cy="15.9744" r="3.50488" stroke="#EEE5FF"/>
<defs>
<linearGradient id="paint0_linear_1151_4367" x1="-0.427084" y1="1.67638e-07" x2="29.5729" y2="30" gradientUnits="userSpaceOnUse">
<stop stop-color="#8084F3"/>
<stop offset="1" stop-color="#C48FED"/>
</linearGradient>
<linearGradient id="paint1_linear_1151_4367" x1="5.91115" y1="8" x2="19.4804" y2="25.4462" gradientUnits="userSpaceOnUse">
<stop stop-color="#8084F3"/>
<stop offset="1" stop-color="#C48FED"/>
</linearGradient>
</defs>
</svg>
