<svg width="19" height="19" viewBox="0 0 19 19" fill="none" xmlns="http://www.w3.org/2000/svg">
<path fill-rule="evenodd" clip-rule="evenodd" d="M4.20312 1.86133C4.20312 1.30904 4.65084 0.861328 5.20312 0.861328H17.2031C17.7554 0.861328 18.2031 1.30904 18.2031 1.86133V4.75322V14.483C18.2031 15.8263 16.86 16.9154 15.2031 16.9154C13.5463 16.9154 12.2031 15.8263 12.2031 14.4829C12.2031 13.1396 13.5463 12.0505 15.2031 12.0505C15.5538 12.0505 15.8903 12.0993 16.2031 12.1889V4.75322H6.20312V16.4289C6.20312 17.7723 4.85998 18.8613 3.20312 18.8613C1.54627 18.8613 0.203125 17.7723 0.203125 16.4289C0.203125 15.0855 1.54627 13.9965 3.20312 13.9965C3.55376 13.9965 3.89035 14.0452 4.20312 14.1349V4.75322V1.86133Z" fill="#414141"/>
</svg>
