<svg width="165" height="53" viewBox="0 0 165 53" fill="none" xmlns="http://www.w3.org/2000/svg">
<g filter="url(#filter0_d_2593_11197)">
<rect x="8.68207" y="4.62646" width="148" height="36" rx="18" fill="#7462E2" shape-rendering="crispEdges"/>
<path d="M34.9789 15.9077V26.6577H33.2446V23.8765H31.1508V22.4858H33.2446V20.9077H31.1508V19.5015H33.2446V15.9077H34.9789ZM23.1821 18.8608V17.4702H26.3383V15.8921H28.0727V17.4702H31.0727V18.8608H23.1821ZM23.9164 22.189C23.9086 20.5718 25.2758 19.439 27.1821 19.439C29.1039 19.439 30.4868 20.5718 30.4946 22.189C30.4868 23.814 29.1039 24.9312 27.1821 24.939C25.2758 24.9312 23.9086 23.814 23.9164 22.189ZM25.5414 22.189C25.5336 23.0718 26.2133 23.5952 27.1821 23.5952C28.1586 23.5952 28.8461 23.0718 28.8539 22.189C28.8461 21.3296 28.1586 20.8062 27.1821 20.7983C26.2133 20.8062 25.5336 21.3296 25.5414 22.189ZM25.6664 29.7358V25.7358H27.4321V28.3296H35.2914V29.7358H25.6664ZM49.2289 15.8921V30.0171H47.5727V22.8608H46.1196V29.3296H44.4789V16.1421H46.1196V21.4233H47.5727V15.8921H49.2289ZM36.7446 25.9077C38.8383 24.7202 39.6821 22.2593 39.6821 19.5015V18.8296H37.1664V17.439H43.6821V18.8296H41.3696V19.5015C41.3696 22.0093 42.2133 24.3296 44.3071 25.4077L43.2914 26.7358C41.9477 26.0093 41.0649 24.7671 40.5649 23.2358C40.0883 24.9937 39.2055 26.4077 37.8071 27.2358L36.7446 25.9077ZM59.2133 16.5171C61.3618 16.5093 62.9164 17.7124 62.9164 19.4858C62.9164 21.228 61.3618 22.4468 59.2133 22.439C57.0883 22.4468 55.5414 21.228 55.5414 19.4858C55.5414 17.7124 57.0883 16.5093 59.2133 16.5171ZM54.6196 23.4077C57.1664 23.4077 60.7368 23.3608 63.7758 22.9077L63.9008 24.189C62.6821 24.4233 61.4164 24.5718 60.1821 24.6655V29.5796H58.4321V24.7671C57.1274 24.8218 55.9008 24.8374 54.8383 24.8452L54.6196 23.4077ZM57.2289 19.4858C57.2211 20.4312 58.0571 21.0249 59.2133 21.0171C60.4164 21.0249 61.2602 20.4312 61.2602 19.4858C61.2602 18.5093 60.4164 17.9077 59.2133 17.9233C58.0571 17.9077 57.2211 18.5093 57.2289 19.4858ZM64.6977 30.0015V15.9077H66.4164V30.0015H64.6977ZM80.1664 15.8921V30.0171H78.4321V15.8921H80.1664ZM68.5727 26.0015C70.8227 25.0093 72.1196 22.6343 72.1196 20.3765V19.6421H69.0102V18.2515H72.1196V16.189H73.8383V18.2515H76.8852V19.6421H73.8539V20.3765C73.8461 22.5249 75.1664 24.8296 77.4477 25.7827L76.4946 27.1108C74.8774 26.4233 73.6586 25.0171 73.0102 23.314C72.3774 25.1187 71.1586 26.6265 69.5102 27.3452L68.5727 26.0015ZM94.4477 15.8921V30.0171H92.7758V15.8921H94.4477ZM82.4008 22.0015C82.4008 18.8921 83.6039 16.9624 85.4477 16.9702C87.1586 16.9624 88.3227 18.564 88.5258 21.2046H89.8852V16.1421H91.5414V29.3296H89.8852V22.6108H88.5414C88.3774 25.3687 87.1977 27.0562 85.4477 27.0483C83.6039 27.0562 82.4008 25.1187 82.4008 22.0015ZM84.0102 22.0015C84.0024 24.2124 84.5493 25.3999 85.4477 25.3921C86.3852 25.3999 86.9399 24.2124 86.9477 22.0015C86.9399 19.7983 86.3852 18.603 85.4477 18.6108C84.5493 18.603 84.0024 19.7983 84.0102 22.0015ZM101.307 19.2827C101.299 21.9077 102.557 24.4858 104.807 25.4702L103.76 26.8608C102.166 26.0796 101.041 24.5796 100.44 22.728C99.8227 24.6812 98.6664 26.3062 97.0414 27.1265L95.9477 25.7202C98.2524 24.6421 99.5336 21.9233 99.5414 19.2827V17.0327H101.307V19.2827ZM103.245 21.8608V20.4546H106.213V15.8921H107.932V30.0327H106.213V21.8608H103.245ZM121.026 16.7515C121.018 20.3921 118.62 22.9468 114.51 24.0952L113.807 22.7358C116.971 21.8765 118.846 20.2202 119.166 18.1577H114.573V16.7515H121.026ZM116.245 29.8296V24.4233H125.541V29.8296H116.245ZM117.948 28.4546H123.823V25.7983H117.948V28.4546ZM121.088 20.7827V19.3608H123.807V15.9077H125.541V23.8608H123.807V20.7827H121.088ZM131.948 18.4546C131.956 20.0327 132.831 21.5952 134.682 22.3296L133.745 23.6577C132.502 23.1577 131.627 22.2358 131.127 21.1108C130.604 22.3765 129.682 23.4546 128.338 24.0327L127.416 22.689C129.362 21.8374 130.268 20.0483 130.276 18.4546V16.7358H131.948V18.4546ZM129.948 26.5171V25.1265H139.62V30.0171H137.885V26.5171H129.948ZM134.932 24.3765V16.1421H136.557V19.4233H137.963V15.9077H139.62V24.4546H137.963V20.8608H136.557V24.3765H134.932Z" fill="#FAFAFA"/>
</g>
<defs>
<filter id="filter0_d_2593_11197" x="0.682068" y="0.626465" width="164" height="52" filterUnits="userSpaceOnUse" color-interpolation-filters="sRGB">
<feFlood flood-opacity="0" result="BackgroundImageFix"/>
<feColorMatrix in="SourceAlpha" type="matrix" values="0 0 0 0 0 0 0 0 0 0 0 0 0 0 0 0 0 0 127 0" result="hardAlpha"/>
<feOffset dy="4"/>
<feGaussianBlur stdDeviation="4"/>
<feComposite in2="hardAlpha" operator="out"/>
<feColorMatrix type="matrix" values="0 0 0 0 0 0 0 0 0 0 0 0 0 0 0 0 0 0 0.18 0"/>
<feBlend mode="normal" in2="BackgroundImageFix" result="effect1_dropShadow_2593_11197"/>
<feBlend mode="normal" in="SourceGraphic" in2="effect1_dropShadow_2593_11197" result="shape"/>
</filter>
</defs>
</svg>
