<svg width="28" height="28" viewBox="0 0 17 16" fill="none" xmlns="http://www.w3.org/2000/svg">
<path fill-rule="evenodd" clip-rule="evenodd" d="M13.8671 7.29114C13.8671 10.6468 11.1468 13.3671 7.79114 13.3671C4.43549 13.3671 1.71519 10.6468 1.71519 7.29114C1.71519 3.93549 4.43549 1.21519 7.79114 1.21519C11.1468 1.21519 13.8671 3.93549 13.8671 7.29114ZM12.4993 12.8586C11.229 13.9339 9.58579 14.5823 7.79114 14.5823C3.76435 14.5823 0.5 11.3179 0.5 7.29114C0.5 3.26435 3.76435 0 7.79114 0C11.8179 0 15.0823 3.26435 15.0823 7.29114C15.0823 9.08579 14.4339 10.729 13.3586 11.9993L16.322 14.9628C16.5593 15.2001 16.5593 15.5848 16.322 15.822C16.0848 16.0593 15.7001 16.0593 15.4628 15.822L12.4993 12.8586Z" fill="#FAFAFA" stroke="#FAFAFA" stroke-width="0.5"/>
</svg>
