<svg width="259" height="253" viewBox="0 0 259 253" fill="none" xmlns="http://www.w3.org/2000/svg">
<rect x="0.476562" y="0.453125" width="258" height="252" fill="#2E4491"/>
<mask id="mask0_485_19328" style="mask-type:alpha" maskUnits="userSpaceOnUse" x="0" y="0" width="259" height="253">
<rect x="0.476562" y="0.453125" width="258" height="252" fill="#3D529B"/>
</mask>
<g mask="url(#mask0_485_19328)">
<path d="M277.25 156.991C277.338 125.81 233.123 107.977 177.291 107.822C121.459 107.666 76.128 132.818 76.0408 164C75.9535 195.181 121.144 220.585 176.975 220.741C232.807 220.896 277.163 188.173 277.25 156.991Z" fill="#1C2D6B"/>
<mask id="mask1_485_19328" style="mask-type:luminance" maskUnits="userSpaceOnUse" x="86" y="116" width="193" height="94">
<path d="M278.088 117.411L277.978 154.586C277.942 168.632 268.684 182.659 250.206 193.385C213.013 214.955 152.498 214.964 115.048 193.385C96.2137 182.522 86.8102 168.267 86.8468 154.039L86.9564 116.863C86.9199 131.091 96.3234 145.347 115.167 156.2C152.616 177.78 213.122 177.771 250.325 156.2C268.803 145.484 278.06 131.456 278.097 117.401L278.088 117.411Z" fill="white"/>
</mask>
<g mask="url(#mask1_485_19328)">
<path d="M277.448 123.722C277.082 125.519 276.57 127.316 275.903 129.094C275.218 130.918 274.368 132.733 273.354 134.521C272.257 136.455 270.978 138.352 269.506 140.221C267.788 142.401 265.814 144.526 263.576 146.579C260.149 149.734 256.109 152.735 251.467 155.526L251.357 192.701C256 189.91 260.039 186.919 263.466 183.754C265.696 181.693 267.679 179.568 269.397 177.397C270.868 175.536 272.147 173.63 273.244 171.697C274.258 169.909 275.099 168.103 275.794 166.27C276.461 164.491 276.973 162.704 277.338 160.898C277.704 159.083 277.914 157.25 277.969 155.426L278.078 118.25C278.023 120.074 277.813 121.907 277.448 123.722Z" fill="#D38D8D"/>
<path d="M250.315 156.2C243.946 159.894 236.882 162.958 229.37 165.393C223.576 167.272 217.508 168.768 211.276 169.89L211.166 207.065C217.398 205.943 223.457 204.448 229.26 202.569C236.772 200.143 243.827 197.078 250.206 193.375C250.599 193.147 250.992 192.919 251.375 192.691L251.485 155.516C251.101 155.744 250.708 155.972 250.315 156.2Z" fill="#D38D8D"/>
<path d="M199.095 171.587C195.586 171.933 192.049 172.171 188.494 172.289C185.232 172.399 181.969 172.417 178.707 172.335C175.563 172.253 172.419 172.088 169.294 171.833C166.178 171.578 163.071 171.231 160 170.793C156.802 170.337 153.64 169.79 150.524 169.152C147.142 168.449 143.816 167.638 140.554 166.716C136.569 165.585 132.685 164.281 128.948 162.804C124.095 160.888 119.471 158.69 115.158 156.209C96.3234 145.347 86.9108 131.101 86.9564 116.863L86.8468 154.039C86.8102 168.267 96.2137 182.522 115.057 193.376C119.371 195.866 123.986 198.064 128.847 199.97C132.585 201.448 136.469 202.743 140.453 203.883C143.706 204.813 147.042 205.625 150.423 206.318C153.539 206.966 156.701 207.513 159.9 207.96C162.97 208.397 166.068 208.744 169.194 208.999C172.319 209.255 175.463 209.428 178.606 209.501C181.869 209.583 185.14 209.565 188.394 209.455C191.939 209.337 195.485 209.1 198.994 208.753C203.106 208.343 207.182 207.777 211.185 207.057L211.295 169.881C207.292 170.602 203.216 171.167 199.104 171.578L199.095 171.587Z" fill="#D38D8D"/>
</g>
<mask id="mask2_485_19328" style="mask-type:luminance" maskUnits="userSpaceOnUse" x="86" y="116" width="193" height="94">
<path d="M278.088 117.411L277.978 154.586C277.942 168.632 268.684 182.659 250.206 193.385C213.013 214.955 152.498 214.964 115.048 193.385C96.2137 182.522 86.8102 168.267 86.8468 154.039L86.9564 116.863C86.9199 131.091 96.3234 145.347 115.167 156.2C152.616 177.78 213.122 177.771 250.325 156.2C268.803 145.484 278.06 131.456 278.097 117.401L278.088 117.411Z" fill="white"/>
</mask>
<g mask="url(#mask2_485_19328)">
<path d="M199.095 171.587C195.586 171.933 192.049 172.171 188.494 172.289C185.232 172.399 181.969 172.417 178.707 172.335C175.563 172.253 172.419 172.088 169.294 171.833C166.178 171.578 163.071 171.231 160 170.793C156.802 170.337 153.64 169.79 150.524 169.152C147.142 168.449 143.816 167.638 140.554 166.716C136.569 165.585 132.685 164.281 128.948 162.804C124.095 160.888 119.471 158.69 115.158 156.209C96.3234 145.347 86.9108 131.101 86.9564 116.863L86.8468 154.039C86.8102 168.267 96.2137 182.522 115.057 193.376C119.371 195.866 123.986 198.064 128.847 199.97C132.585 201.448 136.469 202.743 140.453 203.883C143.706 204.813 147.042 205.625 150.423 206.318C153.539 206.966 156.701 207.513 159.9 207.96C162.97 208.397 166.068 208.744 169.194 208.999C172.319 209.255 175.463 209.428 178.606 209.501C181.869 209.583 185.14 209.565 188.394 209.455C191.939 209.337 195.485 209.1 198.994 208.753C203.106 208.343 207.182 207.777 211.185 207.057L211.295 169.881C207.292 170.602 203.216 171.167 199.104 171.578L199.095 171.587Z" fill="#D38D8D"/>
</g>
<path d="M103.726 117.138C103.662 105.482 111.284 93.8169 126.618 84.9243C157.296 67.13 207.183 67.1392 238.052 84.9243C253.487 93.8169 261.246 105.482 261.319 117.138V133.71L179.451 149.39L103.726 139.331V117.138Z" fill="#2E1C1C"/>
<path d="M261.32 127.052C261.39 101.892 226.167 81.3966 182.647 81.2753C139.126 81.154 103.789 101.452 103.718 126.613C103.648 151.773 138.871 172.268 182.392 172.39C225.912 172.511 261.249 152.213 261.32 127.052Z" fill="#7F6EE6"/>
<mask id="mask3_485_19328" style="mask-type:luminance" maskUnits="userSpaceOnUse" x="126" y="105" width="113" height="55">
<path d="M238.444 105.647L238.38 127.409C238.352 135.636 232.943 143.844 222.123 150.119C200.346 162.751 164.925 162.751 143.002 150.119C131.971 143.762 126.461 135.417 126.488 127.09L126.552 105.328C126.525 113.655 132.035 122.001 143.066 128.358C164.989 140.99 200.41 140.99 222.187 128.358C233.006 122.083 238.426 113.874 238.444 105.647Z" fill="white"/>
</mask>
<g mask="url(#mask3_485_19328)">
<path d="M238.446 105.648L238.382 127.41C238.382 127.574 238.382 127.738 238.382 127.903L238.446 106.141C238.446 105.977 238.446 105.813 238.446 105.648Z" fill="#978AE4"/>
<path d="M238.07 109.34C237.86 110.398 237.558 111.447 237.165 112.487C236.763 113.554 236.27 114.612 235.676 115.661C235.036 116.792 234.287 117.904 233.428 118.999C232.422 120.276 231.262 121.516 229.955 122.72C227.944 124.571 225.587 126.323 222.873 127.955L222.809 149.717C225.523 148.084 227.89 146.333 229.891 144.482C231.198 143.278 232.358 142.028 233.364 140.76C234.223 139.666 234.972 138.553 235.612 137.422C236.206 136.373 236.699 135.315 237.101 134.248C237.494 133.209 237.796 132.16 238.006 131.102C238.216 130.035 238.344 128.967 238.371 127.9L238.435 106.139C238.408 107.206 238.28 108.282 238.07 109.34Z" fill="#978AE4"/>
<path d="M237.166 112.487C237.559 111.447 237.86 110.398 238.071 109.34C238.281 108.282 238.409 107.206 238.436 106.139L238.372 127.9C238.345 128.967 238.217 130.035 238.007 131.102C237.796 132.16 237.495 133.209 237.102 134.248C236.7 135.315 236.206 136.373 235.612 137.422C234.973 138.553 234.223 139.666 233.364 140.76C232.359 142.028 231.198 143.278 229.892 144.482L229.956 122.72C231.262 121.516 232.423 120.276 233.428 118.999C234.287 117.904 235.037 116.792 235.676 115.661C236.27 114.612 236.764 113.554 237.166 112.487Z" fill="#7769CA"/>
<path d="M222.187 128.354C218.458 130.516 214.328 132.313 209.923 133.736C206.533 134.83 202.978 135.715 199.332 136.371L199.268 158.133C202.914 157.476 206.469 156.601 209.859 155.497C214.255 154.074 218.385 152.278 222.123 150.116C222.351 149.979 222.58 149.852 222.808 149.715L222.872 127.953C222.644 128.09 222.415 128.227 222.187 128.354Z" fill="#978AE4"/>
<path d="M192.204 137.369C190.148 137.569 188.073 137.706 185.999 137.779C184.089 137.843 182.179 137.852 180.269 137.807C178.423 137.761 176.586 137.661 174.758 137.515C172.931 137.369 171.121 137.159 169.321 136.904C167.448 136.639 165.602 136.32 163.774 135.937C161.791 135.526 159.844 135.052 157.935 134.505C155.604 133.839 153.329 133.082 151.145 132.216C148.303 131.094 145.598 129.808 143.075 128.358C132.045 122.001 126.535 113.655 126.562 105.328L126.498 127.09C126.471 135.417 131.981 143.762 143.011 150.119C145.534 151.579 148.239 152.865 151.081 153.977C153.274 154.844 155.54 155.601 157.871 156.267C159.78 156.805 161.727 157.288 163.71 157.699C165.538 158.072 167.384 158.401 169.257 158.665C171.057 158.921 172.867 159.121 174.694 159.276C176.522 159.422 178.359 159.523 180.205 159.568C182.115 159.614 184.025 159.605 185.935 159.541C188.009 159.468 190.084 159.331 192.14 159.13C194.543 158.893 196.928 158.565 199.277 158.136L199.341 136.375C196.992 136.794 194.607 137.132 192.204 137.369Z" fill="#978AE4"/>
</g>
<path d="M261.321 127.054C261.391 101.893 226.168 81.3983 182.647 81.277C162.476 81.2208 144.063 85.5512 130.104 92.7191L204.422 127.465L222.247 135.798L251.186 149.328C257.618 142.754 261.298 135.156 261.321 127.054Z" fill="#6052B9" fill-opacity="0.67"/>
<path d="M182.632 87.2412C182.356 87.2404 182.132 87.4636 182.131 87.7398C182.13 88.0159 182.353 88.2404 182.629 88.2411L182.632 87.2412ZM228.679 156.058C228.923 155.928 229.015 155.625 228.885 155.381C228.755 155.137 228.453 155.045 228.209 155.175L228.679 156.058ZM120.01 111.784L120.416 112.075L120.416 112.075L120.01 111.784ZM249.026 132.201C248.962 132.47 249.129 132.739 249.397 132.803C249.666 132.867 249.935 132.7 249.999 132.432L249.026 132.201ZM123.108 108.774C123.295 108.571 123.282 108.255 123.078 108.068C122.875 107.881 122.559 107.895 122.372 108.098L123.108 108.774ZM182.629 88.2411C201.231 88.293 218.034 92.6998 230.163 99.7569C242.304 106.822 249.672 116.48 249.642 127.022L250.642 127.025C250.673 115.975 242.958 106.045 230.665 98.8925C218.36 91.7323 201.377 87.2934 182.632 87.2412L182.629 88.2411ZM182.413 165.429C163.812 165.377 147.009 160.97 134.88 153.913C122.739 146.848 115.371 137.189 115.4 126.648L114.4 126.645C114.369 137.694 122.084 147.625 134.377 154.777C146.683 161.938 163.666 166.376 182.411 166.429L182.413 165.429ZM228.209 155.175C216.207 161.576 200.112 165.478 182.413 165.429L182.411 166.429C200.248 166.478 216.51 162.547 228.679 156.058L228.209 155.175ZM115.4 126.648C115.415 121.5 117.188 116.581 120.416 112.075L119.604 111.493C116.273 116.141 114.415 121.259 114.4 126.645L115.4 126.648ZM249.642 127.022C249.638 128.779 249.428 130.507 249.026 132.201L249.999 132.432C250.418 130.665 250.637 128.86 250.642 127.025L249.642 127.022ZM120.416 112.075C121.224 110.948 122.123 109.847 123.108 108.774L122.372 108.098C121.361 109.198 120.436 110.331 119.604 111.493L120.416 112.075Z" fill="#6354BA"/>
<path d="M249.878 78.0775C212.438 56.5074 151.923 56.4982 114.72 78.0775C77.5265 99.6477 77.7184 134.634 115.159 156.214C152.608 177.793 213.114 177.784 250.317 156.214C287.52 134.634 287.319 99.6568 249.878 78.0775ZM238.419 149.355C207.75 167.14 157.854 167.149 126.984 149.355C96.1141 131.57 95.9496 102.721 126.618 84.9362C157.296 67.142 207.183 67.1511 238.053 84.9362C268.932 102.73 269.087 131.57 238.419 149.355Z" fill="#FFEBEB"/>
<path d="M249.879 78.0775C283.097 97.2236 287.001 126.917 261.476 148.441L249.554 141.234C268.433 123.656 264.578 100.221 238.054 84.9362C214.228 71.2093 179.073 68.0716 150.165 75.5359L145.568 66.1068C180.181 57.796 221.608 61.7901 249.879 78.0775Z" fill="#E1BFBF"/>
<path d="M114.721 78.0775C151.923 56.4982 212.438 56.5074 249.879 78.0775C278.667 94.6698 285.438 119.183 270.119 139.436L256.573 132.885C266.743 116.738 260.557 97.9041 238.054 84.9362C207.184 67.1511 157.297 67.142 126.619 84.9362L114.721 78.0775Z" fill="#E1BFBF"/>
<mask id="mask4_485_19328" style="mask-type:luminance" maskUnits="userSpaceOnUse" x="126" y="91" width="113" height="55">
<path d="M238.444 91.3622L238.38 113.124C238.352 121.351 232.943 129.559 222.123 135.834C200.346 148.466 164.925 148.466 143.002 135.834C131.971 129.477 126.461 121.132 126.488 112.805L126.552 91.043C126.525 99.3701 132.035 107.715 143.066 114.072C164.989 126.704 200.41 126.704 222.187 114.072C233.006 107.797 238.426 99.589 238.444 91.3622Z" fill="white"/>
</mask>
<g mask="url(#mask4_485_19328)">
<path d="M238.446 91.3633L238.382 113.125C238.382 113.289 238.382 113.453 238.382 113.618L238.446 91.8558C238.446 91.6916 238.446 91.5275 238.446 91.3633Z" fill="#D38D8D"/>
<path d="M238.07 95.0548C237.86 96.1128 237.558 97.1617 237.165 98.2014C236.763 99.2686 236.27 100.327 235.676 101.375C235.036 102.506 234.287 103.619 233.428 104.714C232.422 105.99 231.262 107.231 229.955 108.435C227.944 110.286 225.587 112.037 222.873 113.67L222.809 135.432C225.523 133.799 227.89 132.048 229.891 130.196C231.198 128.993 232.358 127.743 233.364 126.475C234.223 125.381 234.972 124.268 235.612 123.137C236.206 122.088 236.699 121.03 237.101 119.963C237.494 118.923 237.796 117.875 238.006 116.817C238.216 115.749 238.344 114.682 238.371 113.615L238.435 91.8535C238.408 92.9206 238.28 93.9969 238.07 95.0548Z" fill="#D38D8D"/>
<path d="M222.187 114.069C218.458 116.231 214.328 118.028 209.923 119.45C206.533 120.545 202.978 121.43 199.332 122.086L199.268 143.848C202.914 143.191 206.469 142.316 209.859 141.212C214.255 139.789 218.385 137.993 222.123 135.831C222.351 135.694 222.58 135.566 222.808 135.43L222.872 113.668C222.644 113.805 222.415 113.942 222.187 114.069Z" fill="#D38D8D"/>
<path d="M192.204 123.084C190.148 123.284 188.073 123.421 185.999 123.494C184.089 123.558 182.179 123.567 180.269 123.521C178.423 123.476 176.586 123.375 174.758 123.23C172.931 123.084 171.121 122.874 169.321 122.618C167.448 122.354 165.602 122.035 163.774 121.652C161.791 121.241 159.844 120.767 157.935 120.22C155.604 119.554 153.329 118.797 151.145 117.93C148.303 116.809 145.598 115.523 143.075 114.072C132.045 107.715 126.535 99.3701 126.562 91.043L126.498 112.805C126.471 121.132 131.981 129.477 143.011 135.834C145.534 137.293 148.239 138.579 151.081 139.692C153.274 140.559 155.54 141.316 157.871 141.981C159.78 142.52 161.727 143.003 163.71 143.413C165.538 143.787 167.384 144.116 169.257 144.38C171.057 144.636 172.867 144.836 174.694 144.991C176.522 145.137 178.359 145.237 180.205 145.283C182.115 145.329 184.025 145.32 185.935 145.256C188.009 145.183 190.084 145.046 192.14 144.845C194.543 144.608 196.928 144.28 199.277 143.851L199.341 122.089C196.992 122.509 194.607 122.846 192.204 123.084Z" fill="#D38D8D"/>
</g>
<path d="M136.368 91.2103C136.332 84.3881 140.791 77.5567 149.775 72.3489C167.732 61.9332 196.938 61.9332 215.014 72.3489C224.052 77.5567 228.594 84.3789 228.63 91.2103H136.368Z" fill="#2E1C1C"/>
<path d="M228.624 97.0105C228.666 82.2819 208.046 70.2845 182.568 70.2135C157.091 70.1424 136.404 82.0248 136.363 96.7534C136.321 111.482 156.942 123.479 182.419 123.55C207.896 123.621 228.583 111.739 228.624 97.0105Z" fill="#7F6EE6"/>
<path d="M182.47 104.912C174.796 104.891 168.584 101.277 168.597 96.84M174.545 90.2734C176.803 89.3658 179.552 88.8371 182.515 88.8454C190.19 88.8668 196.401 92.4808 196.389 96.9175C196.382 99.1936 194.739 101.244 192.104 102.699" stroke="#6E5ED1" stroke-linecap="round"/>
<path d="M192.922 96.9125C192.913 100.243 188.235 102.93 182.474 102.914C176.713 102.897 172.051 100.185 172.06 96.8543C172.07 93.524 176.747 90.8372 182.508 90.8533C188.269 90.8693 192.931 93.5821 192.922 96.9125Z" fill="#6A5BC7"/>
<path d="M221.932 68.3334C200.018 55.7014 164.588 55.7014 142.811 68.3334C121.034 80.9654 121.153 101.441 143.067 114.073C164.99 126.705 200.411 126.705 222.188 114.073C243.965 101.441 243.855 80.9654 221.932 68.3334ZM215.224 110.06C197.267 120.476 168.061 120.476 149.985 110.06C131.909 99.6444 131.818 82.7622 149.775 72.3464C167.732 61.9307 196.938 61.9307 215.014 72.3464C233.09 82.7622 233.182 99.6444 215.224 110.06Z" fill="#FFEBEB"/>
<path d="M142.812 68.3334C164.589 55.7014 200.018 55.7014 221.932 68.3334C243.856 80.9654 243.965 101.441 222.188 114.073L215.225 110.06C233.182 99.6444 233.091 82.7622 215.015 72.3464C196.939 61.9307 167.732 61.9307 149.775 72.3464L142.812 68.3334Z" fill="#E1BFBF"/>
<path d="M182.138 92.9784C182.559 86.2201 185.428 49.2087 198.515 36.0113C201.613 32.892 206.081 31.3233 210.413 32.0712C212.944 32.4998 215.019 33.6764 216.472 35.7832C217.596 37.4158 217.632 39.4497 217.514 40.5989C217.157 44.1103 215.677 45.5879 212.615 47.7677C207.489 51.4068 191.122 59.8251 182.486 93.0332C182.431 93.2338 182.12 93.1791 182.138 92.9693V92.9784Z" fill="#403487"/>
<path d="M182.138 92.9784C182.559 86.2201 185.428 49.2087 198.515 36.0113C201.613 32.892 206.081 31.3233 210.413 32.0712C212.944 32.4998 215.019 33.6764 216.472 35.7832C217.596 37.4158 217.632 39.4497 217.514 40.5989C217.157 44.1103 215.677 45.5879 212.615 47.7677C207.489 51.4068 191.122 59.8251 182.486 93.0332C182.431 93.2338 182.12 93.1791 182.138 92.9693V92.9784Z" fill="url(#paint0_linear_485_19328)"/>
<path d="M182.083 93.0354C181.791 88.3565 179.808 62.7003 170.733 53.5524C168.586 51.3908 165.488 50.3055 162.481 50.8162C160.727 51.1172 159.292 51.9289 158.287 53.3882C157.51 54.5192 157.483 55.9329 157.565 56.7263C157.812 59.1615 158.835 60.183 160.964 61.6879C164.519 64.2052 175.86 70.0424 181.846 93.0628C181.882 93.1996 182.092 93.1631 182.092 93.0171L182.083 93.0354Z" fill="#403487"/>
<path d="M182.083 93.0354C181.791 88.3565 179.808 62.7003 170.733 53.5524C168.586 51.3908 165.488 50.3055 162.481 50.8162C160.727 51.1172 159.292 51.9289 158.287 53.3882C157.51 54.5192 157.483 55.9329 157.565 56.7263C157.812 59.1615 158.835 60.183 160.964 61.6879C164.519 64.2052 175.86 70.0424 181.846 93.0628C181.882 93.1996 182.092 93.1631 182.092 93.0171L182.083 93.0354Z" fill="url(#paint1_linear_485_19328)"/>
<path d="M182.145 242.453V222.656H189.91C194.408 222.656 196.992 225.432 196.992 229.328C196.992 233.279 194.367 236 189.801 236H186.246V242.453H182.145ZM186.246 232.691H189.145C191.578 232.691 192.768 231.324 192.754 229.328C192.768 227.359 191.578 226.033 189.145 226.02H186.246V232.691ZM200.957 242.699C199.672 242.699 198.633 241.674 198.66 240.402C198.633 239.145 199.672 238.119 200.957 238.133C202.174 238.119 203.227 239.145 203.227 240.402C203.227 241.674 202.174 242.699 200.957 242.699ZM206.562 242.453V222.656H214.328C218.826 222.656 221.41 225.432 221.41 229.328C221.41 233.279 218.785 236 214.219 236H210.664V242.453H206.562ZM210.664 232.691H213.562C215.996 232.691 217.186 231.324 217.172 229.328C217.186 227.359 215.996 226.033 213.562 226.02H210.664V232.691ZM227.973 222.656V242.453H223.926V222.656H227.973ZM237.844 242.754C233.291 242.74 230.502 239.801 230.516 235.098C230.502 230.518 233.332 227.414 237.68 227.414C241.576 227.414 244.652 229.875 244.652 234.934V236.082H234.508C234.508 238.324 235.834 239.705 237.926 239.719C239.307 239.705 240.291 239.104 240.688 238.215H244.543C243.969 240.963 241.508 242.74 237.844 242.754ZM234.508 233.539H240.824C240.811 231.734 239.566 230.436 237.762 230.449C235.902 230.436 234.59 231.83 234.508 233.539Z" fill="black"/>
</g>
<defs>
<linearGradient id="paint0_linear_485_19328" x1="199.849" y1="31.8867" x2="191.295" y2="92.6162" gradientUnits="userSpaceOnUse">
<stop stop-color="#30218F"/>
<stop offset="1" stop-color="#6A5BC7"/>
</linearGradient>
<linearGradient id="paint1_linear_485_19328" x1="169.813" y1="50.6914" x2="163.889" y2="92.7735" gradientUnits="userSpaceOnUse">
<stop stop-color="#30218F"/>
<stop offset="1" stop-color="#6A5BC7"/>
</linearGradient>
</defs>
</svg>
