<svg width="259" height="253" viewBox="0 0 259 253" fill="none" xmlns="http://www.w3.org/2000/svg">
<rect x="0.476562" y="0.310547" width="258" height="252" fill="#2E9191"/>
<mask id="mask0_502_13198" style="mask-type:alpha" maskUnits="userSpaceOnUse" x="0" y="0" width="259" height="253">
<rect x="0.476562" y="0.310547" width="258" height="252" fill="#3D529B"/>
</mask>
<g mask="url(#mask0_502_13198)">
<path d="M136.299 161.674H149.163V197.05C149.163 198.819 147.716 200.266 145.947 200.266H139.515C137.746 200.266 136.299 198.819 136.299 197.05V161.674Z" fill="#3C271B"/>
<path d="M149.163 161.674H136.299V169.949L149.163 177.933V161.674Z" fill="#160B05"/>
<path d="M181.162 110.408C181.258 109.283 181.323 108.157 181.323 106.999C181.323 87.4458 165.5 71.623 145.946 71.623C144.853 71.623 143.792 71.6874 142.73 71.7838C160.772 73.424 174.891 88.5393 174.891 106.999C174.891 108.157 174.826 109.283 174.73 110.408C187.497 111.92 197.403 122.79 197.403 135.943C197.403 150.158 185.889 161.671 171.675 161.671H178.107C192.321 161.671 203.835 150.158 203.835 135.943C203.835 122.758 193.929 111.92 181.162 110.408Z" fill="#291F1A"/>
<path d="M174.729 110.408C174.826 109.283 174.89 108.157 174.89 106.999C174.89 88.5393 160.772 73.424 142.73 71.7838C141.669 71.6874 140.608 71.623 139.514 71.623C119.961 71.623 104.138 87.4458 104.138 106.999C104.138 108.157 104.202 109.283 104.299 110.408C91.5313 111.92 81.626 122.79 81.626 135.943C81.626 150.158 93.1393 161.671 107.354 161.671H171.674C185.889 161.671 197.402 150.158 197.402 135.943C197.402 122.758 187.497 111.92 174.729 110.408Z" fill="#4E2F1D"/>
<path d="M173.685 110.407C161.251 110.407 151.17 120.488 151.17 132.923H147.954C147.954 118.712 159.474 107.191 173.685 107.191C174.12 107.191 174.553 107.202 174.982 107.224V110.444C174.553 110.42 174.121 110.407 173.685 110.407Z" fill="#291F1A"/>
<path d="M222.742 160.736H235.472V195.744C235.472 197.494 234.04 198.926 232.29 198.926H225.925C224.174 198.926 222.742 197.494 222.742 195.744V160.736Z" fill="#3C271B"/>
<path d="M235.472 160.736H222.742V169.812L235.472 177.865V160.736Z" fill="#160B05"/>
<path d="M267.138 110.004C267.234 108.89 267.298 107.776 267.298 106.631C267.298 87.281 251.64 71.623 232.29 71.623C231.208 71.623 230.158 71.6867 229.107 71.7822C246.961 73.4053 260.933 88.363 260.933 106.631C260.933 107.776 260.869 108.89 260.773 110.004C273.408 111.5 283.21 122.257 283.21 135.273C283.21 149.34 271.817 160.733 257.75 160.733H264.115C278.182 160.733 289.575 149.34 289.575 135.273C289.575 122.225 279.773 111.5 267.138 110.004Z" fill="#3E2415"/>
<path d="M260.772 110.004C260.868 108.89 260.931 107.776 260.931 106.631C260.931 88.363 246.96 73.4053 229.106 71.7822C228.056 71.6867 227.006 71.623 225.924 71.623C206.574 71.623 190.916 87.281 190.916 106.631C190.916 107.776 190.98 108.89 191.075 110.004C178.441 111.5 168.639 122.257 168.639 135.273C168.639 149.34 180.032 160.733 194.099 160.733H257.749C271.816 160.733 283.209 149.34 283.209 135.273C283.209 122.225 273.407 111.5 260.772 110.004Z" fill="#A34D1C"/>
<path d="M259.739 110.007C247.433 110.007 237.458 119.982 237.458 132.287H234.275C234.275 118.224 245.676 106.824 259.739 106.824C260.169 106.824 260.597 106.835 261.022 106.856V110.043C260.597 110.019 260.169 110.007 259.739 110.007Z" fill="#F1884C"/>
<path d="M195.888 152.572H211.785V196.29C211.785 198.476 209.997 200.265 207.811 200.265H199.862C197.676 200.265 195.888 198.476 195.888 196.29V152.572Z" fill="#3C271B"/>
<path d="M211.785 152.572H195.888V163.341L211.785 174.836V152.572Z" fill="#160B05"/>
<path d="M251.328 89.218C251.447 87.827 251.526 86.4359 251.526 85.0052C251.526 60.841 231.973 41.2871 207.808 41.2871C206.457 41.2871 205.146 41.3666 203.834 41.4858C226.13 43.5128 243.578 62.1923 243.578 85.0052C243.578 86.4359 243.498 87.827 243.379 89.218C259.157 91.0859 271.398 104.519 271.398 120.774C271.398 138.341 257.17 152.569 239.603 152.569H247.552C265.119 152.569 279.347 138.341 279.347 120.774C279.347 104.48 267.106 91.0859 251.328 89.218Z" fill="#F1884C"/>
<path d="M243.38 89.218C243.499 87.827 243.579 86.4359 243.579 85.0052C243.579 62.1923 226.131 43.5128 203.835 41.4858C202.524 41.3666 201.212 41.2871 199.861 41.2871C175.697 41.2871 156.143 60.841 156.143 85.0052C156.143 86.4359 156.222 87.827 156.342 89.218C140.563 91.0859 128.322 104.519 128.322 120.774C128.322 138.341 142.551 152.569 160.117 152.569H239.605C257.171 152.569 271.4 138.341 271.4 120.774C271.4 104.48 259.158 91.0859 243.38 89.218Z" fill="#F3AE87"/>
<path d="M242.089 89.2185C226.722 89.2185 214.264 101.676 214.264 117.043H210.29C210.29 99.481 224.527 85.2441 242.089 85.2441C242.626 85.2441 243.161 85.2575 243.692 85.2838V89.2639C243.161 89.2338 242.627 89.2185 242.089 89.2185Z" fill="#F1884C"/>
<path d="M182.145 242.311V222.514H189.91C194.408 222.514 196.992 225.289 196.992 229.186C196.992 233.137 194.367 235.857 189.801 235.857H186.246V242.311H182.145ZM186.246 232.549H189.145C191.578 232.549 192.768 231.182 192.754 229.186C192.768 227.217 191.578 225.891 189.145 225.877H186.246V232.549ZM200.957 242.557C199.672 242.557 198.633 241.531 198.66 240.26C198.633 239.002 199.672 237.977 200.957 237.99C202.174 237.977 203.227 239.002 203.227 240.26C203.227 241.531 202.174 242.557 200.957 242.557ZM206.562 242.311V222.514H214.328C218.826 222.514 221.41 225.289 221.41 229.186C221.41 233.137 218.785 235.857 214.219 235.857H210.664V242.311H206.562ZM210.664 232.549H213.562C215.996 232.549 217.186 231.182 217.172 229.186C217.186 227.217 215.996 225.891 213.562 225.877H210.664V232.549ZM227.973 222.514V242.311H223.926V222.514H227.973ZM237.844 242.611C233.291 242.598 230.502 239.658 230.516 234.955C230.502 230.375 233.332 227.271 237.68 227.271C241.576 227.271 244.652 229.732 244.652 234.791V235.939H234.508C234.508 238.182 235.834 239.562 237.926 239.576C239.307 239.562 240.291 238.961 240.688 238.072H244.543C243.969 240.82 241.508 242.598 237.844 242.611ZM234.508 233.396H240.824C240.811 231.592 239.566 230.293 237.762 230.307C235.902 230.293 234.59 231.688 234.508 233.396Z" fill="black"/>
</g>
</svg>
