<svg width="259" height="253" viewBox="0 0 259 253" fill="none" xmlns="http://www.w3.org/2000/svg">
<rect x="0.476562" y="0.710938" width="258" height="252" fill="#2E9191"/>
<mask id="mask0_500_12447" style="mask-type:alpha" maskUnits="userSpaceOnUse" x="0" y="0" width="259" height="253">
<rect x="0.476562" y="0.710938" width="258" height="252" fill="#3D529B"/>
</mask>
<g mask="url(#mask0_500_12447)">
<path d="M277.25 157.249C277.338 126.067 233.123 108.235 177.291 108.08C121.459 107.924 76.128 133.076 76.0408 164.257C75.9535 195.439 121.144 220.843 176.975 220.999C232.807 221.154 277.163 188.431 277.25 157.249Z" fill="#1C2D6B"/>
<mask id="mask1_500_12447" style="mask-type:luminance" maskUnits="userSpaceOnUse" x="86" y="117" width="193" height="93">
<path d="M278.088 117.668L277.978 154.844C277.942 168.89 268.684 182.917 250.206 193.643C213.013 215.213 152.498 215.222 115.048 193.643C96.2137 182.78 86.8102 168.525 86.8468 154.297L86.9564 117.121C86.9199 131.349 96.3234 145.605 115.167 156.458C152.616 178.037 213.122 178.028 250.325 156.458C268.803 145.741 278.06 131.714 278.097 117.659L278.088 117.668Z" fill="white"/>
</mask>
<g mask="url(#mask1_500_12447)">
<path d="M277.448 123.98C277.082 125.777 276.57 127.574 275.903 129.352C275.218 131.176 274.368 132.991 273.354 134.779C272.257 136.712 270.978 138.61 269.506 140.479C267.788 142.659 265.814 144.784 263.576 146.836C260.149 149.992 256.109 152.993 251.467 155.784L251.357 192.959C256 190.168 260.039 187.177 263.466 184.012C265.696 181.951 267.679 179.826 269.397 177.655C270.868 175.794 272.147 173.888 273.244 171.954C274.258 170.167 275.099 168.361 275.794 166.528C276.461 164.749 276.973 162.962 277.338 161.156C277.704 159.341 277.914 157.507 277.969 155.683L278.078 118.508C278.023 120.332 277.813 122.165 277.448 123.98Z" fill="#D38D8D"/>
<path d="M250.315 156.457C243.946 160.151 236.882 163.216 229.37 165.651C223.576 167.53 217.508 169.026 211.276 170.147L211.166 207.323C217.398 206.201 223.457 204.705 229.26 202.827C236.772 200.4 243.827 197.336 250.206 193.633C250.599 193.405 250.992 193.177 251.375 192.949L251.485 155.773C251.101 156.001 250.708 156.229 250.315 156.457Z" fill="#D38D8D"/>
<path d="M199.095 171.845C195.586 172.191 192.049 172.428 188.494 172.547C185.232 172.656 181.969 172.675 178.707 172.593C175.563 172.51 172.419 172.346 169.294 172.091C166.178 171.835 163.071 171.489 160 171.051C156.802 170.595 153.64 170.048 150.524 169.409C147.142 168.707 143.816 167.895 140.554 166.974C136.569 165.843 132.685 164.539 128.948 163.061C124.095 161.146 119.471 158.948 115.158 156.467C96.3234 145.605 86.9108 131.358 86.9564 117.121L86.8468 154.297C86.8102 168.525 96.2137 182.78 115.057 193.634C119.371 196.124 123.986 198.322 128.847 200.228C132.585 201.705 136.469 203.001 140.453 204.141C143.706 205.071 147.042 205.883 150.423 206.576C153.539 207.223 156.701 207.771 159.9 208.218C162.97 208.655 166.068 209.002 169.194 209.257C172.319 209.513 175.463 209.686 178.606 209.759C181.869 209.841 185.14 209.823 188.394 209.713C191.939 209.595 195.485 209.358 198.994 209.011C203.106 208.601 207.182 208.035 211.185 207.315L211.295 170.139C207.292 170.86 203.216 171.425 199.104 171.835L199.095 171.845Z" fill="#D38D8D"/>
</g>
<mask id="mask2_500_12447" style="mask-type:luminance" maskUnits="userSpaceOnUse" x="86" y="117" width="193" height="93">
<path d="M278.088 117.668L277.978 154.844C277.942 168.89 268.684 182.917 250.206 193.643C213.013 215.213 152.498 215.222 115.048 193.643C96.2137 182.78 86.8102 168.525 86.8468 154.297L86.9564 117.121C86.9199 131.349 96.3234 145.605 115.167 156.458C152.616 178.037 213.122 178.028 250.325 156.458C268.803 145.741 278.06 131.714 278.097 117.659L278.088 117.668Z" fill="white"/>
</mask>
<g mask="url(#mask2_500_12447)">
<path d="M199.095 171.845C195.586 172.191 192.049 172.428 188.494 172.547C185.232 172.656 181.969 172.675 178.707 172.593C175.563 172.51 172.419 172.346 169.294 172.091C166.178 171.835 163.071 171.489 160 171.051C156.802 170.595 153.64 170.048 150.524 169.409C147.142 168.707 143.816 167.895 140.554 166.974C136.569 165.843 132.685 164.539 128.948 163.061C124.095 161.146 119.471 158.948 115.158 156.467C96.3234 145.605 86.9108 131.358 86.9564 117.121L86.8468 154.297C86.8102 168.525 96.2137 182.78 115.057 193.634C119.371 196.124 123.986 198.322 128.847 200.228C132.585 201.705 136.469 203.001 140.453 204.141C143.706 205.071 147.042 205.883 150.423 206.576C153.539 207.223 156.701 207.771 159.9 208.218C162.97 208.655 166.068 209.002 169.194 209.257C172.319 209.513 175.463 209.686 178.606 209.759C181.869 209.841 185.14 209.823 188.394 209.713C191.939 209.595 195.485 209.358 198.994 209.011C203.106 208.601 207.182 208.035 211.185 207.315L211.295 170.139C207.292 170.86 203.216 171.425 199.104 171.835L199.095 171.845Z" fill="#D38D8D"/>
</g>
<path d="M103.726 117.396C103.662 105.74 111.284 94.0747 126.618 85.1821C157.296 67.3879 207.183 67.397 238.052 85.1821C253.487 94.0747 261.246 105.74 261.319 117.396V133.968L179.451 149.648L103.726 139.589V117.396Z" fill="#2E1C1C"/>
<path d="M261.32 127.31C261.39 102.149 226.167 81.6544 182.647 81.5331C139.126 81.4118 103.789 101.71 103.718 126.871C103.648 152.031 138.871 172.526 182.392 172.647C225.912 172.769 261.249 152.47 261.32 127.31Z" fill="#7F6EE6"/>
<mask id="mask3_500_12447" style="mask-type:luminance" maskUnits="userSpaceOnUse" x="126" y="105" width="113" height="55">
<path d="M238.444 105.905L238.38 127.667C238.352 135.894 232.943 144.102 222.123 150.377C200.346 163.009 164.925 163.009 143.002 150.377C131.971 144.02 126.461 135.675 126.488 127.348L126.552 105.586C126.525 113.913 132.035 122.258 143.066 128.615C164.989 141.247 200.41 141.247 222.187 128.615C233.006 122.34 238.426 114.132 238.444 105.905Z" fill="white"/>
</mask>
<g mask="url(#mask3_500_12447)">
<path d="M238.446 105.906L238.382 127.668C238.382 127.832 238.382 127.996 238.382 128.16L238.446 106.399C238.446 106.235 238.446 106.07 238.446 105.906Z" fill="#978AE4"/>
<path d="M238.07 109.598C237.86 110.656 237.558 111.705 237.165 112.744C236.763 113.812 236.27 114.87 235.676 115.918C235.036 117.049 234.287 118.162 233.428 119.257C232.422 120.533 231.262 121.774 229.955 122.978C227.944 124.829 225.587 126.58 222.873 128.213L222.809 149.975C225.523 148.342 227.89 146.591 229.891 144.739C231.198 143.536 232.358 142.286 233.364 141.018C234.223 139.924 234.972 138.811 235.612 137.68C236.206 136.631 236.699 135.573 237.101 134.506C237.494 133.466 237.796 132.418 238.006 131.36C238.216 130.292 238.344 129.225 238.371 128.158L238.435 106.396C238.408 107.464 238.28 108.54 238.07 109.598Z" fill="#978AE4"/>
<path d="M237.166 112.744C237.559 111.705 237.86 110.656 238.071 109.598C238.281 108.54 238.409 107.464 238.436 106.396L238.372 128.158C238.345 129.225 238.217 130.292 238.007 131.36C237.796 132.418 237.495 133.466 237.102 134.506C236.7 135.573 236.206 136.631 235.612 137.68C234.973 138.811 234.223 139.924 233.364 141.018C232.359 142.286 231.198 143.536 229.892 144.739L229.956 122.978C231.262 121.774 232.423 120.533 233.428 119.257C234.287 118.162 235.037 117.049 235.676 115.918C236.27 114.87 236.764 113.812 237.166 112.744Z" fill="#7769CA"/>
<path d="M222.187 128.612C218.458 130.774 214.328 132.571 209.923 133.993C206.533 135.088 202.978 135.973 199.332 136.629L199.268 158.391C202.914 157.734 206.469 156.859 209.859 155.755C214.255 154.332 218.385 152.536 222.123 150.374C222.351 150.237 222.58 150.109 222.808 149.973L222.872 128.211C222.644 128.348 222.415 128.485 222.187 128.612Z" fill="#978AE4"/>
<path d="M192.204 137.627C190.148 137.827 188.073 137.964 185.999 138.037C184.089 138.101 182.179 138.11 180.269 138.064C178.423 138.019 176.586 137.918 174.758 137.772C172.931 137.627 171.121 137.417 169.321 137.161C167.448 136.897 165.602 136.578 163.774 136.195C161.791 135.784 159.844 135.31 157.935 134.763C155.604 134.097 153.329 133.34 151.145 132.473C148.303 131.352 145.598 130.066 143.075 128.615C132.045 122.258 126.535 113.913 126.562 105.586L126.498 127.348C126.471 135.675 131.981 144.02 143.011 150.377C145.534 151.836 148.239 153.122 151.081 154.235C153.274 155.102 155.54 155.859 157.871 156.524C159.78 157.063 161.727 157.546 163.71 157.956C165.538 158.33 167.384 158.659 169.257 158.923C171.057 159.178 172.867 159.379 174.694 159.534C176.522 159.68 178.359 159.78 180.205 159.826C182.115 159.872 184.025 159.863 185.935 159.799C188.009 159.726 190.084 159.589 192.14 159.388C194.543 159.151 196.928 158.823 199.277 158.394L199.341 136.632C196.992 137.052 194.607 137.389 192.204 137.627Z" fill="#978AE4"/>
</g>
<path d="M261.321 127.312C261.391 102.151 226.168 81.6561 182.647 81.5348C162.476 81.4786 144.063 85.809 130.104 92.9769L204.422 127.723L222.247 136.056L251.186 149.586C257.618 143.012 261.298 135.414 261.321 127.312Z" fill="#6052B9" fill-opacity="0.67"/>
<path d="M182.632 87.499C182.356 87.4982 182.132 87.7214 182.131 87.9976C182.13 88.2737 182.353 88.4982 182.629 88.499L182.632 87.499ZM228.679 156.315C228.923 156.185 229.015 155.883 228.885 155.639C228.755 155.395 228.453 155.303 228.209 155.433L228.679 156.315ZM120.01 112.042L120.416 112.333L120.416 112.333L120.01 112.042ZM249.026 132.459C248.962 132.728 249.129 132.997 249.397 133.061C249.666 133.124 249.935 132.958 249.999 132.69L249.026 132.459ZM123.108 109.032C123.295 108.829 123.282 108.513 123.078 108.326C122.875 108.139 122.559 108.152 122.372 108.356L123.108 109.032ZM182.629 88.499C201.231 88.5508 218.034 92.9576 230.163 100.015C242.304 107.079 249.672 116.738 249.642 127.28L250.642 127.283C250.673 116.233 242.958 106.303 230.665 99.1504C218.36 91.9901 201.377 87.5512 182.632 87.499L182.629 88.499ZM182.413 165.687C163.812 165.635 147.009 161.228 134.88 154.171C122.739 147.106 115.371 137.447 115.4 126.906L114.4 126.903C114.369 137.952 122.084 147.882 134.377 155.035C146.683 162.195 163.666 166.634 182.411 166.687L182.413 165.687ZM228.209 155.433C216.207 161.834 200.112 165.736 182.413 165.687L182.411 166.687C200.248 166.736 216.51 162.805 228.679 156.315L228.209 155.433ZM115.4 126.906C115.415 121.758 117.188 116.839 120.416 112.333L119.604 111.751C116.273 116.398 114.415 121.516 114.4 126.903L115.4 126.906ZM249.642 127.28C249.638 129.036 249.428 130.765 249.026 132.459L249.999 132.69C250.418 130.923 250.637 129.118 250.642 127.283L249.642 127.28ZM120.416 112.333C121.224 111.206 122.123 110.105 123.108 109.032L122.372 108.356C121.361 109.456 120.436 110.589 119.604 111.751L120.416 112.333Z" fill="#6354BA"/>
<path d="M249.878 78.3354C212.438 56.7652 151.923 56.7561 114.72 78.3354C77.5265 99.9055 77.7184 134.892 115.159 156.471C152.608 178.051 213.114 178.042 250.317 156.471C287.52 134.892 287.319 99.9147 249.878 78.3354ZM238.419 149.613C207.75 167.398 157.854 167.407 126.984 149.613C96.1141 131.828 95.9496 102.979 126.618 85.194C157.296 67.3998 207.183 67.4089 238.053 85.194C268.932 102.988 269.087 131.828 238.419 149.613Z" fill="#FFEBEB"/>
<path d="M249.879 78.3354C283.097 97.4814 287.001 127.174 261.476 148.699L249.554 141.492C268.433 123.914 264.578 100.479 238.054 85.194C214.228 71.4671 179.073 68.3295 150.165 75.7937L145.568 66.3646C180.181 58.0538 221.608 62.048 249.879 78.3354Z" fill="#E1BFBF"/>
<path d="M114.721 78.3354C151.923 56.7561 212.438 56.7652 249.879 78.3354C278.667 94.9276 285.438 119.441 270.119 139.694L256.573 133.142C266.743 116.996 260.557 98.1619 238.054 85.194C207.184 67.4089 157.297 67.3998 126.619 85.194L114.721 78.3354Z" fill="#E1BFBF"/>
<mask id="mask4_500_12447" style="mask-type:luminance" maskUnits="userSpaceOnUse" x="126" y="91" width="113" height="55">
<path d="M238.444 91.62L238.38 113.382C238.352 121.608 232.943 129.817 222.123 136.092C200.346 148.724 164.925 148.724 143.002 136.092C131.971 129.735 126.461 121.39 126.488 113.062L126.552 91.3008C126.525 99.6279 132.035 107.973 143.066 114.33C164.989 126.962 200.41 126.962 222.187 114.33C233.006 108.055 238.426 99.8468 238.444 91.62Z" fill="white"/>
</mask>
<g mask="url(#mask4_500_12447)">
<path d="M238.446 91.6211L238.382 113.383C238.382 113.547 238.382 113.711 238.382 113.875L238.446 92.1136C238.446 91.9494 238.446 91.7853 238.446 91.6211Z" fill="#D38D8D"/>
<path d="M238.07 95.3127C237.86 96.3706 237.558 97.4195 237.165 98.4593C236.763 99.5264 236.27 100.584 235.676 101.633C235.036 102.764 234.287 103.877 233.428 104.971C232.422 106.248 231.262 107.489 229.955 108.693C227.944 110.544 225.587 112.295 222.873 113.928L222.809 135.689C225.523 134.057 227.89 132.306 229.891 130.454C231.198 129.25 232.358 128.001 233.364 126.733C234.223 125.639 234.972 124.526 235.612 123.395C236.206 122.346 236.699 121.288 237.101 120.221C237.494 119.181 237.796 118.132 238.006 117.074C238.216 116.007 238.344 114.94 238.371 113.873L238.435 92.1113C238.408 93.1784 238.28 94.2547 238.07 95.3127Z" fill="#D38D8D"/>
<path d="M222.187 114.327C218.458 116.489 214.328 118.285 209.923 119.708C206.533 120.803 202.978 121.687 199.332 122.344L199.268 144.106C202.914 143.449 206.469 142.574 209.859 141.47C214.255 140.047 218.385 138.25 222.123 136.089C222.351 135.952 222.58 135.824 222.808 135.687L222.872 113.926C222.644 114.063 222.415 114.199 222.187 114.327Z" fill="#D38D8D"/>
<path d="M192.204 123.341C190.148 123.542 188.073 123.679 185.999 123.752C184.089 123.816 182.179 123.825 180.269 123.779C178.423 123.734 176.586 123.633 174.758 123.487C172.931 123.341 171.121 123.132 169.321 122.876C167.448 122.612 165.602 122.293 163.774 121.909C161.791 121.499 159.844 121.025 157.935 120.478C155.604 119.812 153.329 119.055 151.145 118.188C148.303 117.066 145.598 115.78 143.075 114.33C132.045 107.973 126.535 99.6279 126.562 91.3008L126.498 113.062C126.471 121.39 131.981 129.735 143.011 136.092C145.534 137.551 148.239 138.837 151.081 139.95C153.274 140.816 155.54 141.573 157.871 142.239C159.78 142.777 161.727 143.261 163.71 143.671C165.538 144.045 167.384 144.373 169.257 144.638C171.057 144.893 172.867 145.094 174.694 145.249C176.522 145.395 178.359 145.495 180.205 145.541C182.115 145.587 184.025 145.577 185.935 145.514C188.009 145.441 190.084 145.304 192.14 145.103C194.543 144.866 196.928 144.538 199.277 144.109L199.341 122.347C196.992 122.767 194.607 123.104 192.204 123.341Z" fill="#D38D8D"/>
</g>
<path d="M136.368 91.4681C136.332 84.6459 140.791 77.8146 149.775 72.6067C167.732 62.191 196.938 62.191 215.014 72.6067C224.052 77.8146 228.594 84.6368 228.63 91.4681H136.368Z" fill="#2E1C1C"/>
<path d="M228.624 97.2683C228.666 82.5397 208.046 70.5423 182.568 70.4713C157.091 70.4003 136.404 82.2826 136.363 97.0112C136.321 111.74 156.942 123.737 182.419 123.808C207.896 123.879 228.583 111.997 228.624 97.2683Z" fill="#7F6EE6"/>
<path d="M182.47 105.17C174.796 105.149 168.584 101.535 168.597 97.0978M174.545 90.5313C176.803 89.6236 179.552 89.0949 182.515 89.1032C190.19 89.1246 196.401 92.7386 196.389 97.1753C196.382 99.4514 194.739 101.502 192.104 102.956" stroke="#6E5ED1" stroke-linecap="round"/>
<path d="M192.922 97.1703C192.913 100.501 188.235 103.187 182.474 103.171C176.713 103.155 172.051 100.442 172.06 97.1121C172.07 93.7818 176.747 91.095 182.508 91.1111C188.269 91.1272 192.931 93.8399 192.922 97.1703Z" fill="#6A5BC7"/>
<path d="M221.932 68.5912C200.018 55.9592 164.588 55.9592 142.811 68.5912C121.034 81.2232 121.153 101.699 143.067 114.331C164.99 126.963 200.411 126.963 222.188 114.331C243.965 101.699 243.855 81.2232 221.932 68.5912ZM215.224 110.318C197.267 120.734 168.061 120.734 149.985 110.318C131.909 99.9022 131.818 83.02 149.775 72.6043C167.732 62.1885 196.938 62.1885 215.014 72.6043C233.09 83.02 233.182 99.9022 215.224 110.318Z" fill="#FFEBEB"/>
<path d="M142.812 68.5912C164.589 55.9592 200.018 55.9592 221.932 68.5912C243.856 81.2232 243.965 101.699 222.188 114.331L215.225 110.318C233.182 99.9022 233.091 83.02 215.015 72.6043C196.939 62.1885 167.732 62.1885 149.775 72.6043L142.812 68.5912Z" fill="#E1BFBF"/>
<path d="M182.138 93.2362C182.559 86.4779 185.428 49.4666 198.515 36.2691C201.613 33.1498 206.081 31.5811 210.413 32.329C212.944 32.7576 215.019 33.9342 216.472 36.0411C217.596 37.6736 217.632 39.7075 217.514 40.8567C217.157 44.3681 215.677 45.8457 212.615 48.0255C207.489 51.6646 191.122 60.0829 182.486 93.291C182.431 93.4916 182.12 93.4369 182.138 93.2271V93.2362Z" fill="#403487"/>
<path d="M182.138 93.2362C182.559 86.4779 185.428 49.4666 198.515 36.2691C201.613 33.1498 206.081 31.5811 210.413 32.329C212.944 32.7576 215.019 33.9342 216.472 36.0411C217.596 37.6736 217.632 39.7075 217.514 40.8567C217.157 44.3681 215.677 45.8457 212.615 48.0255C207.489 51.6646 191.122 60.0829 182.486 93.291C182.431 93.4916 182.12 93.4369 182.138 93.2271V93.2362Z" fill="url(#paint0_linear_500_12447)"/>
<path d="M182.083 93.2932C181.791 88.6143 179.808 62.9581 170.733 53.8102C168.586 51.6486 165.488 50.5633 162.481 51.074C160.727 51.375 159.292 52.1867 158.287 53.646C157.51 54.777 157.483 56.1907 157.565 56.9842C157.812 59.4194 158.835 60.4409 160.964 61.9458C164.519 64.463 175.86 70.3002 181.846 93.3206C181.882 93.4574 182.092 93.4209 182.092 93.275L182.083 93.2932Z" fill="#403487"/>
<path d="M182.083 93.2932C181.791 88.6143 179.808 62.9581 170.733 53.8102C168.586 51.6486 165.488 50.5633 162.481 51.074C160.727 51.375 159.292 52.1867 158.287 53.646C157.51 54.777 157.483 56.1907 157.565 56.9842C157.812 59.4194 158.835 60.4409 160.964 61.9458C164.519 64.463 175.86 70.3002 181.846 93.3206C181.882 93.4574 182.092 93.4209 182.092 93.275L182.083 93.2932Z" fill="url(#paint1_linear_500_12447)"/>
<path d="M182.145 242.711V222.914H189.91C194.408 222.914 196.992 225.689 196.992 229.586C196.992 233.537 194.367 236.258 189.801 236.258H186.246V242.711H182.145ZM186.246 232.949H189.145C191.578 232.949 192.768 231.582 192.754 229.586C192.768 227.617 191.578 226.291 189.145 226.277H186.246V232.949ZM200.957 242.957C199.672 242.957 198.633 241.932 198.66 240.66C198.633 239.402 199.672 238.377 200.957 238.391C202.174 238.377 203.227 239.402 203.227 240.66C203.227 241.932 202.174 242.957 200.957 242.957ZM206.562 242.711V222.914H214.328C218.826 222.914 221.41 225.689 221.41 229.586C221.41 233.537 218.785 236.258 214.219 236.258H210.664V242.711H206.562ZM210.664 232.949H213.562C215.996 232.949 217.186 231.582 217.172 229.586C217.186 227.617 215.996 226.291 213.562 226.277H210.664V232.949ZM227.973 222.914V242.711H223.926V222.914H227.973ZM237.844 243.012C233.291 242.998 230.502 240.059 230.516 235.355C230.502 230.775 233.332 227.672 237.68 227.672C241.576 227.672 244.652 230.133 244.652 235.191V236.34H234.508C234.508 238.582 235.834 239.963 237.926 239.977C239.307 239.963 240.291 239.361 240.688 238.473H244.543C243.969 241.221 241.508 242.998 237.844 243.012ZM234.508 233.797H240.824C240.811 231.992 239.566 230.693 237.762 230.707C235.902 230.693 234.59 232.088 234.508 233.797Z" fill="black"/>
</g>
<defs>
<linearGradient id="paint0_linear_500_12447" x1="199.849" y1="32.1445" x2="191.295" y2="92.874" gradientUnits="userSpaceOnUse">
<stop stop-color="#30218F"/>
<stop offset="1" stop-color="#6A5BC7"/>
</linearGradient>
<linearGradient id="paint1_linear_500_12447" x1="169.813" y1="50.9492" x2="163.889" y2="93.0313" gradientUnits="userSpaceOnUse">
<stop stop-color="#30218F"/>
<stop offset="1" stop-color="#6A5BC7"/>
</linearGradient>
</defs>
</svg>
