<svg width="259" height="253" viewBox="0 0 259 253" fill="none" xmlns="http://www.w3.org/2000/svg">
<rect x="0.476562" y="0.0527344" width="258" height="252" fill="#F5BDB3"/>
<mask id="mask0_502_13140" style="mask-type:alpha" maskUnits="userSpaceOnUse" x="0" y="0" width="259" height="253">
<rect x="0.476562" y="0.0527344" width="258" height="252" fill="#3D529B"/>
</mask>
<g mask="url(#mask0_502_13140)">
<path d="M225.152 141.561V199.44C225.152 201.48 228.724 203.133 233.124 203.133C237.524 203.133 241.096 201.48 241.096 199.44V141.561H225.152Z" fill="#6F7976"/>
<path d="M225.152 141.561H241.096V184.235L225.152 174.949V141.561Z" fill="#0B231C"/>
<path d="M273.011 158.101L251.421 64.8175C249.631 56.1868 241.982 49.9961 233.116 49.9961C224.242 49.9961 216.6 56.1868 214.811 64.8175L193.22 158.101C193.044 158.538 192.941 158.99 192.941 159.441C192.941 165.829 210.924 171.007 233.116 171.007C255.308 171.007 273.29 165.829 273.29 159.441C273.29 158.99 273.187 158.538 273.011 158.101Z" fill="#448974"/>
<path d="M214.811 64.8175C216.044 58.8704 220.056 54.0818 225.334 51.6789C229.6 49.7372 233.839 53.2512 234.856 57.8265L258.339 163.482C257.059 165.294 250.222 169.338 233.116 171.007C210.924 171.007 192.941 165.829 192.941 159.441C192.941 158.99 193.044 158.538 193.22 158.101L214.811 64.8175Z" fill="#112922"/>
<path d="M136.109 141.561V199.44C136.109 201.48 139.681 203.133 144.081 203.133C148.481 203.133 152.053 201.48 152.053 199.44V141.561H136.109Z" fill="#6F7976"/>
<path d="M136.109 141.561H152.053V187.156L136.109 178.642V141.561Z" fill="#0B231C"/>
<path d="M183.97 158.101L162.379 64.8175C160.59 56.1868 152.941 49.9961 144.074 49.9961C135.2 49.9961 127.559 56.1868 125.769 64.8175L104.186 158.101C104.01 158.538 103.907 158.99 103.907 159.441C103.907 165.829 121.89 171.007 144.082 171.007C166.273 171.007 184.256 165.829 184.256 159.441C184.256 158.99 184.153 158.538 183.977 158.101H183.97Z" fill="#112922"/>
<path d="M200.352 154.477V212.356C200.352 214.396 203.923 216.049 208.323 216.049C212.724 216.049 216.295 214.396 216.295 212.356V154.477H200.352Z" fill="#6F7976"/>
<path d="M200.352 154.477H216.295V183.417L200.352 172.52V154.477Z" fill="#0B231C"/>
<path d="M248.219 153.849L226.629 49.5968C224.839 40.9661 217.19 34.7754 208.324 34.7754C199.45 34.7754 191.808 40.9661 190.019 49.5968L168.428 153.849C168.252 154.286 168.149 154.738 168.149 155.189C168.149 161.577 186.132 166.755 208.324 166.755C230.516 166.755 248.498 161.577 248.498 155.189C248.498 154.738 248.395 154.286 248.219 153.849Z" fill="#83CCB6"/>
<path d="M182.145 242.053V222.256H189.91C194.408 222.256 196.992 225.031 196.992 228.928C196.992 232.879 194.367 235.6 189.801 235.6H186.246V242.053H182.145ZM186.246 232.291H189.145C191.578 232.291 192.768 230.924 192.754 228.928C192.768 226.959 191.578 225.633 189.145 225.619H186.246V232.291ZM200.957 242.299C199.672 242.299 198.633 241.273 198.66 240.002C198.633 238.744 199.672 237.719 200.957 237.732C202.174 237.719 203.227 238.744 203.227 240.002C203.227 241.273 202.174 242.299 200.957 242.299ZM206.562 242.053V222.256H214.328C218.826 222.256 221.41 225.031 221.41 228.928C221.41 232.879 218.785 235.6 214.219 235.6H210.664V242.053H206.562ZM210.664 232.291H213.562C215.996 232.291 217.186 230.924 217.172 228.928C217.186 226.959 215.996 225.633 213.562 225.619H210.664V232.291ZM227.973 222.256V242.053H223.926V222.256H227.973ZM237.844 242.354C233.291 242.34 230.502 239.4 230.516 234.697C230.502 230.117 233.332 227.014 237.68 227.014C241.576 227.014 244.652 229.475 244.652 234.533V235.682H234.508C234.508 237.924 235.834 239.305 237.926 239.318C239.307 239.305 240.291 238.703 240.688 237.814H244.543C243.969 240.562 241.508 242.34 237.844 242.354ZM234.508 233.139H240.824C240.811 231.334 239.566 230.035 237.762 230.049C235.902 230.035 234.59 231.43 234.508 233.139Z" fill="black"/>
</g>
</svg>
