<svg width="21" height="20" viewBox="0 0 21 20" fill="none" xmlns="http://www.w3.org/2000/svg">
<circle cx="10.3394" cy="10" r="9.5" fill="#696570" stroke="#A6A3AF"/>
<path fill-rule="evenodd" clip-rule="evenodd" d="M15.1847 5.89987C15.3905 5.69401 15.3905 5.36025 15.1847 5.15439C14.9788 4.94854 14.6451 4.94854 14.4392 5.15439L10.3394 9.25439L6.23947 5.15439C6.03362 4.94854 5.69987 4.94854 5.49401 5.15439C5.28816 5.36025 5.28816 5.69401 5.49401 5.89987L9.5939 9.99987L5.49375 14.1001C5.28789 14.306 5.28789 14.6397 5.49375 14.8456C5.6996 15.0515 6.03335 15.0515 6.2392 14.8456L10.3394 10.7453L14.4395 14.8456C14.6454 15.0515 14.9791 15.0515 15.185 14.8456C15.3908 14.6397 15.3908 14.306 15.185 14.1001L11.0848 9.99987L15.1847 5.89987Z" fill="#A6A3AF"/>
</svg>
