<svg width="351" height="45" viewBox="0 0 351 45" fill="none" xmlns="http://www.w3.org/2000/svg">
<rect x="0.238281" width="350" height="45" rx="6" fill="#FEE500"/>
<path d="M137.039 16.9473C137.031 21.4795 135.794 25.3726 130.266 28.1201L129.253 26.7256C131.851 25.4473 133.403 23.9448 134.275 22.1685L129.602 22.6084L129.369 21.0146L134.831 20.6743C135.022 19.9688 135.146 19.23 135.205 18.4414H130.149V16.9473H137.039ZM139.147 30.4443V15.4697H140.99V21.3467H143.215V22.8574H140.99V30.4443H139.147ZM151.731 16.9473C151.723 21.4795 150.486 25.3726 144.958 28.1201L143.945 26.7256C146.543 25.4473 148.096 23.9448 148.967 22.1685L144.294 22.6084L144.062 21.0146L149.523 20.6743C149.714 19.9688 149.839 19.23 149.897 18.4414H144.842V16.9473H151.731ZM153.84 30.4443V15.4697H155.683V21.3467H157.907V22.8574H155.683V30.4443H153.84ZM165.444 16.3164C168.665 16.3247 171.047 17.9268 171.039 20.3672C171.047 22.6167 169.113 24.1191 166.357 24.3931V27.1406H172.334V28.6514H158.621V27.1406H164.531V24.3931C161.809 24.1191 159.875 22.6167 159.883 20.3672C159.875 17.9268 162.249 16.3247 165.444 16.3164ZM161.692 20.3672C161.684 21.9858 163.253 22.957 165.444 22.957C167.669 22.957 169.229 21.9858 169.229 20.3672C169.229 18.7983 167.669 17.8022 165.444 17.8105C163.253 17.8022 161.684 18.7983 161.692 20.3672ZM191.061 27.207V28.7344H177.348V27.207H183.258V24.7666H178.975V19.8525H187.607V17.9932H178.941V16.499H189.434V21.3135H180.817V23.2559H189.782V24.7666H185.084V27.207H191.061ZM203.977 16.9307V18.624C203.977 20.6328 203.977 22.6997 203.429 25.8623L201.553 25.6963C202.134 22.7495 202.134 20.5747 202.134 18.624V18.4248H193.484V16.9307H203.977ZM192.04 28.4189V26.9082H205.72V28.4189H192.04ZM219.233 15.4863V26.3271H217.374V15.4863H219.233ZM206.998 20.2178C206.998 18.0347 208.766 16.4741 211.049 16.4658C213.332 16.4741 215.091 18.0347 215.083 20.2178C215.091 22.4341 213.332 23.9863 211.049 23.9863C208.766 23.9863 206.998 22.4341 206.998 20.2178ZM208.808 20.2178C208.799 21.5459 209.762 22.376 211.049 22.376C212.302 22.376 213.273 21.5459 213.273 20.2178C213.273 18.9229 212.302 18.0762 211.049 18.0762C209.762 18.0762 208.799 18.9229 208.808 20.2178ZM209.306 30.1787V25.2314H211.165V28.6846H219.648V30.1787H209.306Z" fill="black" fill-opacity="0.85"/>
<g clip-path="url(#clip0_1223_4204)">
<path fill-rule="evenodd" clip-rule="evenodd" d="M31.0075 15C26.3716 15 22.2383 18.2103 22.2383 22.1641C22.2383 24.6256 23.8383 26.7949 26.2691 28.0872L25.2434 31.8462C25.1511 32.1795 25.5306 32.4462 25.8229 32.2513L30.3101 29.2718C30.6896 29.3077 31.0742 29.3282 31.0024 29.3282C36.5614 29.3282 40.2332 26.1179 40.2332 22.1641C40.2332 18.2103 36.5665 15 31.0075 15Z" fill="black"/>
</g>
<defs>
<clipPath id="clip0_1223_4204">
<rect width="18" height="17.3179" fill="white" transform="translate(22.2383 15)"/>
</clipPath>
</defs>
</svg>
