<svg width="20" height="12" viewBox="0 0 20 12" fill="none" xmlns="http://www.w3.org/2000/svg">
<path fill-rule="evenodd" clip-rule="evenodd" d="M16 1.5L10 1.5C8.61929 1.5 7.5 2.61929 7.5 4C7.5 5.38071 8.61929 6.5 10 6.5L16 6.5C17.3807 6.5 18.5 5.38071 18.5 4C18.5 2.61929 17.3807 1.5 16 1.5ZM10 0C7.79086 0 6 1.79086 6 4C6 6.20914 7.79086 8 10 8L16 8C18.2091 8 20 6.20914 20 4C20 1.79086 18.2091 0 16 0L10 0Z" fill="#E7E6F0"/>
<path fill-rule="evenodd" clip-rule="evenodd" d="M10 5.5H4C2.61929 5.5 1.5 6.61929 1.5 8C1.5 9.38071 2.61929 10.5 4 10.5H10C11.3807 10.5 12.5 9.38071 12.5 8C12.5 6.61929 11.3807 5.5 10 5.5ZM4 4C1.79086 4 0 5.79086 0 8C0 10.2091 1.79086 12 4 12H10C12.2091 12 14 10.2091 14 8C14 5.79086 12.2091 4 10 4L4 4Z" fill="#6B57EA"/>
</svg>
