<svg width="351" height="265" viewBox="0 0 351 265" fill="none" xmlns="http://www.w3.org/2000/svg">
<rect x="0.996094" y="0.927734" width="350" height="264" fill="#E09064"/>
<rect x="163.068" y="140.213" width="151.856" height="11.1316" rx="2" fill="#54615E"/>
<path d="M314.924 149.344V142.213C314.924 141.108 314.029 140.213 312.924 140.213H309.736C309.522 140.213 309.332 140.241 309.127 140.306C297.352 144.046 242.671 151.344 206.963 151.344H312.924C314.029 151.344 314.924 150.449 314.924 149.344Z" fill="#495B57"/>
<rect x="221.047" y="139.867" width="35.9001" height="11.8223" rx="1" fill="#24413A"/>
<path d="M190.379 106.629C190.379 105.524 191.274 104.629 192.379 104.629H204.57C205.675 104.629 206.57 105.524 206.57 106.629V184.928C206.57 186.032 205.675 186.928 204.57 186.928H192.379C191.274 186.928 190.379 186.032 190.379 184.928V106.629Z" fill="#3C9883"/>
<path d="M206.571 184.928V116.9L193.879 186.928H204.571C205.676 186.928 206.571 186.033 206.571 184.928Z" fill="#234A41"/>
<path d="M174.189 115.734C174.189 114.63 175.085 113.734 176.189 113.734H190.381V177.824H176.189C175.085 177.824 174.189 176.929 174.189 175.824V115.734Z" fill="#3C9883"/>
<path d="M287.613 113.734H301.804C302.909 113.734 303.804 114.63 303.804 115.734V175.824C303.804 176.929 302.909 177.824 301.804 177.824H287.613V113.734Z" fill="#3C9883"/>
<path d="M271.422 106.629C271.422 105.524 272.317 104.629 273.422 104.629H285.613C286.718 104.629 287.613 105.524 287.613 106.629V184.928C287.613 186.032 286.718 186.928 285.613 186.928H273.422C272.317 186.928 271.422 186.032 271.422 184.928V106.629Z" fill="#3C9883"/>
<path d="M190.38 177.822V119.83L177.688 177.822H190.38Z" fill="#234A41"/>
<path d="M271.421 184.928V116.9L284.113 186.928H273.421C272.316 186.928 271.421 186.033 271.421 184.928Z" fill="#234A41"/>
<path d="M287.612 177.822V119.83L300.305 177.822H287.612Z" fill="#234A41"/>
</svg>
