<svg width="351" height="234" viewBox="0 0 351 234" fill="none" xmlns="http://www.w3.org/2000/svg">
<rect x="0.6875" y="0.386719" width="350" height="233" fill="#2E4491"/>
<rect x="181.977" y="121.207" width="132.355" height="9.70212" rx="2" fill="#FFC7C7"/>
<path d="M314.332 128.909V123.207C314.332 122.102 313.436 121.207 312.332 121.207H309.852C309.637 121.207 309.446 121.235 309.241 121.3C298.899 124.563 251.318 130.909 220.234 130.909H312.332C313.436 130.909 314.332 130.014 314.332 128.909Z" fill="#EFA7A7"/>
<rect x="232.508" y="120.91" width="31.29" height="10.3042" rx="1" fill="#CF7E7E"/>
<path d="M205.781 92.1953C205.781 91.0907 206.677 90.1953 207.781 90.1953H217.893C218.998 90.1953 219.893 91.0907 219.893 92.1953V159.926C219.893 161.03 218.998 161.926 217.893 161.926H207.781C206.677 161.926 205.781 161.03 205.781 159.926V92.1953Z" fill="#347E8D"/>
<path d="M219.892 159.926V100.891L208.83 161.926H217.892C218.997 161.926 219.892 161.031 219.892 159.926Z" fill="#245F6B"/>
<path d="M191.67 100.133C191.67 99.0282 192.565 98.1328 193.67 98.1328H205.782V153.993H193.67C192.565 153.993 191.67 153.097 191.67 151.993V100.133Z" fill="#347E8D"/>
<path d="M290.527 98.1328H302.639C303.744 98.1328 304.639 99.0282 304.639 100.133V151.993C304.639 153.097 303.744 153.993 302.639 153.993H290.527V98.1328Z" fill="#347E8D"/>
<path d="M276.416 92.1953C276.416 91.0907 277.311 90.1953 278.416 90.1953H288.528C289.632 90.1953 290.528 91.0907 290.528 92.1953V159.926C290.528 161.03 289.632 161.926 288.528 161.926H278.416C277.311 161.926 276.416 161.03 276.416 159.926V92.1953Z" fill="#347E8D"/>
<path d="M205.783 153.987V103.441L194.721 153.987H205.783Z" fill="#245F6B"/>
<path d="M276.416 159.926V100.891L287.479 161.926H278.416C277.312 161.926 276.416 161.031 276.416 159.926Z" fill="#245F6B"/>
<path d="M290.529 153.987V103.441L301.592 153.987H290.529Z" fill="#245F6B"/>
</svg>
