<svg width="351" height="234" viewBox="0 0 351 234" fill="none" xmlns="http://www.w3.org/2000/svg">
<rect x="0.6875" y="0.285156" width="350" height="233" fill="#67C7BB"/>
<path d="M197.449 109.352L301.241 166.361L264.914 193.027L166.505 136.24L161.875 132.959L160.773 130.464L197.449 109.352Z" fill="#1F1F1F"/>
<path d="M156.256 117.81C151.525 124.784 161.024 132.969 166.41 136.202L187.406 121.717C187.406 121.717 184.288 119.892 181.638 118.013C179.601 116.568 175.758 113.801 173.084 112.725C169.153 111.328 160.986 110.835 156.256 117.81Z" fill="#1F1F1F"/>
<mask id="mask0_569_27332" style="mask-type:luminance" maskUnits="userSpaceOnUse" x="217" y="119" width="8" height="4">
<path d="M222.867 120.024C223.37 120.074 223.863 120.004 224.306 119.812C222.635 120.517 220.965 121.221 219.294 121.926C218.852 122.107 218.359 122.187 217.855 122.137C219.355 121.503 221.247 120.265 222.867 120.024Z" fill="white"/>
</mask>
<g mask="url(#mask0_569_27332)">
<path d="M217.855 122.137L222.867 120.023C222.867 120.023 222.917 120.023 222.947 120.023L217.936 122.137C217.936 122.137 217.886 122.137 217.855 122.137Z" fill="#2D2D2D"/>
<path d="M217.938 122.144L222.949 120.031C223.009 120.031 223.079 120.031 223.14 120.031L218.129 122.144C218.068 122.144 217.998 122.144 217.938 122.144Z" fill="#2C2C2C"/>
<path d="M218.127 122.152L223.138 120.039C223.209 120.039 223.279 120.039 223.349 120.039L218.338 122.152C218.268 122.152 218.197 122.152 218.127 122.152Z" fill="#2B2B2B"/>
<path d="M218.34 122.157L223.351 120.044C223.421 120.044 223.492 120.034 223.572 120.023L218.561 122.137C218.491 122.137 218.42 122.157 218.34 122.157Z" fill="#292929"/>
<path d="M218.551 122.124L223.562 120.011C223.653 120.001 223.743 119.981 223.824 119.961L218.812 122.074C218.722 122.094 218.641 122.114 218.551 122.124Z" fill="#282828"/>
<path d="M218.822 122.085L223.833 119.972C223.944 119.942 224.055 119.911 224.165 119.871L219.154 121.984C219.044 122.024 218.933 122.055 218.822 122.085Z" fill="#262626"/>
<path d="M219.143 121.982L224.154 119.869C224.204 119.849 224.264 119.829 224.315 119.809L219.304 121.922C219.253 121.942 219.193 121.962 219.143 121.982Z" fill="#252525"/>
</g>
<mask id="mask1_569_27332" style="mask-type:luminance" maskUnits="userSpaceOnUse" x="213" y="107" width="10" height="16">
<path d="M218.287 113.198C218.387 116.73 220.44 119.779 222.865 120.031L217.854 122.144C215.429 121.892 213.386 118.843 213.275 115.311C214.946 114.607 216.616 113.903 218.287 113.198C216.616 113.903 214.946 114.607 213.275 115.301C213.195 112.534 214.342 110.29 216.023 109.586L221.034 107.473C219.353 108.177 218.206 110.411 218.287 113.188V113.198Z" fill="white"/>
</mask>
<g mask="url(#mask1_569_27332)">
<path d="M216.026 109.598L221.037 107.484C220.544 107.696 220.091 108.038 219.708 108.491L214.697 110.604C215.08 110.151 215.532 109.809 216.026 109.598Z" fill="#252525"/>
<path d="M214.696 110.594L219.708 108.48C219.597 108.601 219.496 108.742 219.406 108.883L214.395 110.996C214.495 110.855 214.596 110.724 214.696 110.594Z" fill="#262626"/>
<path d="M214.384 110.996L219.395 108.883C219.314 109.004 219.244 109.124 219.164 109.245L214.152 111.358C214.223 111.227 214.303 111.107 214.384 110.996Z" fill="#282828"/>
<path d="M214.164 111.359L219.175 109.246C219.114 109.357 219.044 109.478 218.994 109.598L213.982 111.711C214.043 111.591 214.103 111.47 214.164 111.359Z" fill="#292929"/>
<path d="M213.971 111.711L218.982 109.598C218.932 109.708 218.872 109.829 218.831 109.95L213.82 112.063C213.871 111.942 213.921 111.821 213.971 111.711Z" fill="#2B2B2B"/>
<path d="M213.822 112.058L218.833 109.945C218.783 110.056 218.743 110.177 218.703 110.298L213.691 112.411C213.732 112.29 213.772 112.169 213.822 112.058Z" fill="#2C2C2C"/>
<path d="M213.689 112.414L218.7 110.301C218.66 110.422 218.619 110.532 218.589 110.653L213.578 112.766C213.608 112.645 213.649 112.525 213.689 112.414Z" fill="#2D2D2D"/>
<path d="M213.579 112.769L218.59 110.656C218.56 110.777 218.53 110.898 218.499 111.019L213.488 113.132C213.518 113.011 213.549 112.89 213.579 112.769Z" fill="#2F2F2F"/>
<path d="M213.489 113.129L218.5 111.016C218.47 111.136 218.45 111.257 218.419 111.388L213.408 113.501C213.428 113.37 213.459 113.25 213.489 113.129Z" fill="#303030"/>
<path d="M213.408 113.5L218.419 111.387C218.399 111.518 218.379 111.638 218.359 111.769L213.348 113.882C213.368 113.751 213.388 113.621 213.408 113.5Z" fill="#323232"/>
<path d="M213.349 113.894L218.36 111.781C218.34 111.912 218.33 112.043 218.32 112.174L213.309 114.287C213.319 114.156 213.339 114.025 213.349 113.894Z" fill="#333333"/>
<path d="M213.307 114.289L218.318 112.176C218.308 112.317 218.298 112.447 218.298 112.588L213.287 114.701C213.287 114.561 213.297 114.42 213.307 114.289Z" fill="#353535"/>
<path d="M213.287 114.699L218.298 112.586C218.298 112.727 218.298 112.878 218.298 113.019L213.287 115.132C213.287 114.981 213.287 114.84 213.287 114.699Z" fill="#363636"/>
<path d="M213.277 115.133L218.289 113.02C218.289 113.08 218.289 113.14 218.289 113.191C218.289 113.281 218.289 113.382 218.299 113.472L213.287 115.585C213.287 115.495 213.287 115.394 213.277 115.304C213.277 115.243 213.277 115.183 213.277 115.133Z" fill="#373737"/>
<path d="M213.297 115.598L218.308 113.484C218.308 113.645 218.328 113.806 218.348 113.957L213.337 116.07C213.317 115.909 213.307 115.759 213.297 115.598Z" fill="#393939"/>
<path d="M213.338 116.07L218.349 113.957C218.369 114.128 218.389 114.289 218.419 114.46L213.408 116.573C213.378 116.412 213.358 116.241 213.338 116.07Z" fill="#3A3A3A"/>
<path d="M213.398 116.57L218.41 114.457C218.44 114.638 218.47 114.819 218.51 115L213.499 117.114C213.459 116.932 213.429 116.751 213.398 116.57Z" fill="#3C3C3C"/>
<path d="M213.508 117.117L218.519 115.004C218.569 115.205 218.62 115.406 218.68 115.608L213.669 117.721C213.608 117.52 213.558 117.318 213.508 117.117Z" fill="#3D3D3D"/>
<path d="M213.66 117.707L218.671 115.594C218.752 115.845 218.832 116.097 218.933 116.338L213.922 118.452C213.831 118.21 213.741 117.958 213.66 117.707Z" fill="#3E3E3E"/>
<path d="M213.92 118.465L218.931 116.352C219.263 117.187 219.706 117.921 220.219 118.515L215.208 120.628C214.685 120.034 214.242 119.3 213.92 118.465Z" fill="#404040"/>
<path d="M215.209 120.625L220.22 118.512C220.341 118.643 220.462 118.773 220.582 118.884L215.571 120.997C215.45 120.876 215.33 120.756 215.209 120.625Z" fill="#3E3E3E"/>
<path d="M215.572 121L220.583 118.887C220.674 118.977 220.765 119.058 220.865 119.138L215.854 121.251C215.763 121.171 215.663 121.09 215.572 121Z" fill="#3D3D3D"/>
<path d="M215.852 121.25L220.863 119.137C220.943 119.197 221.024 119.257 221.104 119.318L216.093 121.431C216.013 121.371 215.932 121.31 215.852 121.25Z" fill="#3C3C3C"/>
<path d="M216.086 121.433L221.097 119.32C221.168 119.371 221.238 119.421 221.308 119.461L216.297 121.574C216.227 121.534 216.156 121.484 216.086 121.433Z" fill="#3A3A3A"/>
<path d="M216.297 121.574L221.308 119.461C221.378 119.501 221.439 119.541 221.509 119.582L216.498 121.695C216.428 121.655 216.367 121.614 216.297 121.574Z" fill="#393939"/>
<path d="M216.496 121.691L221.507 119.578C221.568 119.608 221.628 119.649 221.688 119.679L216.677 121.792C216.617 121.762 216.556 121.732 216.496 121.691Z" fill="#373737"/>
<path d="M216.688 121.793L221.699 119.68C221.759 119.71 221.819 119.74 221.88 119.76L216.869 121.873C216.808 121.843 216.748 121.823 216.688 121.793Z" fill="#363636"/>
<path d="M216.871 121.887L221.882 119.773C221.943 119.794 222.003 119.824 222.053 119.844L217.042 121.957C216.982 121.937 216.921 121.917 216.871 121.887Z" fill="#353535"/>
<path d="M217.041 121.957L222.052 119.844C222.113 119.864 222.173 119.884 222.223 119.904L217.212 122.017C217.152 121.997 217.091 121.977 217.041 121.957Z" fill="#333333"/>
<path d="M217.223 122.008L222.234 119.895C222.294 119.915 222.345 119.925 222.405 119.945L217.394 122.058C217.333 122.048 217.273 122.028 217.223 122.008Z" fill="#323232"/>
<path d="M217.393 122.055L222.404 119.941C222.464 119.951 222.524 119.972 222.585 119.982L217.574 122.095C217.513 122.085 217.453 122.075 217.393 122.055Z" fill="#303030"/>
<path d="M217.564 122.098L222.576 119.984C222.636 119.994 222.696 120.004 222.757 120.015L217.746 122.128C217.685 122.128 217.625 122.108 217.564 122.098Z" fill="#2F2F2F"/>
<path d="M217.746 122.125L222.757 120.012C222.757 120.012 222.828 120.012 222.868 120.022L217.857 122.135C217.857 122.135 217.786 122.135 217.746 122.125Z" fill="#2D2D2D"/>
</g>
<mask id="mask2_569_27332" style="mask-type:luminance" maskUnits="userSpaceOnUse" x="217" y="107" width="11" height="15">
<path d="M224.315 119.802L219.304 121.915C220.974 121.211 222.132 118.977 222.051 116.189C221.951 112.668 219.898 109.609 217.473 109.367L222.484 107.254C224.899 107.495 226.952 110.554 227.062 114.076C227.143 116.854 225.986 119.098 224.315 119.802Z" fill="white"/>
</mask>
<g mask="url(#mask2_569_27332)">
<path d="M217.486 109.367L222.497 107.254C222.497 107.254 222.568 107.254 222.608 107.264L217.597 109.377C217.597 109.377 217.527 109.377 217.486 109.367Z" fill="#7C7C7C"/>
<path d="M217.596 109.387L222.607 107.273C222.667 107.273 222.728 107.294 222.788 107.304L217.777 109.417C217.716 109.407 217.656 109.397 217.596 109.387Z" fill="#808080"/>
<path d="M217.768 109.406L222.779 107.293C222.839 107.303 222.899 107.313 222.95 107.333L217.939 109.446C217.878 109.436 217.818 109.416 217.768 109.406Z" fill="#848484"/>
<path d="M217.949 109.445L222.96 107.332C223.021 107.342 223.071 107.362 223.131 107.382L218.12 109.495C218.06 109.475 218.01 109.465 217.949 109.445Z" fill="#888888"/>
<path d="M218.119 109.496L223.13 107.383C223.191 107.403 223.251 107.423 223.301 107.443L218.29 109.556C218.23 109.536 218.169 109.516 218.119 109.496Z" fill="#8C8C8C"/>
<path d="M218.291 109.558L223.302 107.445C223.363 107.465 223.423 107.486 223.473 107.516L218.462 109.629C218.402 109.609 218.341 109.579 218.291 109.558Z" fill="#909090"/>
<path d="M218.473 109.629L223.484 107.516C223.544 107.546 223.605 107.566 223.665 107.596L218.654 109.709C218.593 109.679 218.533 109.649 218.473 109.629Z" fill="#939393"/>
<path d="M218.654 109.711L223.665 107.598C223.726 107.628 223.786 107.658 223.847 107.698L218.835 109.811C218.775 109.781 218.715 109.741 218.654 109.711Z" fill="#979797"/>
<path d="M218.836 109.808L223.847 107.695C223.918 107.736 223.978 107.776 224.048 107.816L219.037 109.929C218.967 109.889 218.906 109.849 218.836 109.808Z" fill="#9B9B9B"/>
<path d="M219.035 109.93L224.046 107.816C224.117 107.867 224.187 107.907 224.258 107.957L219.246 110.07C219.176 110.02 219.106 109.97 219.035 109.93Z" fill="#9F9F9F"/>
<path d="M219.246 110.07L224.257 107.957C224.338 108.017 224.418 108.078 224.499 108.138L219.488 110.251C219.407 110.191 219.327 110.131 219.246 110.07Z" fill="#A3A3A3"/>
<path d="M219.488 110.262L224.499 108.148C224.6 108.229 224.691 108.309 224.781 108.4L219.77 110.513C219.679 110.423 219.589 110.342 219.488 110.262Z" fill="#A7A7A7"/>
<path d="M219.77 110.504L224.781 108.391C224.901 108.511 225.022 108.632 225.143 108.773L220.132 110.886C220.011 110.755 219.89 110.625 219.77 110.504Z" fill="#ABABAB"/>
<path d="M220.133 110.887L225.144 108.773C225.667 109.367 226.11 110.112 226.442 110.947L221.431 113.06C221.099 112.225 220.656 111.48 220.133 110.887Z" fill="#AFAFAF"/>
<path d="M221.42 113.062L226.431 110.949C226.522 111.191 226.612 111.442 226.683 111.694L221.671 113.807C221.591 113.555 221.51 113.304 221.42 113.062Z" fill="#ABABAB"/>
<path d="M221.682 113.805L226.693 111.691C226.753 111.893 226.803 112.084 226.854 112.295L221.843 114.408C221.792 114.207 221.742 114.006 221.682 113.805Z" fill="#A7A7A7"/>
<path d="M221.834 114.398L226.845 112.285C226.885 112.466 226.916 112.637 226.946 112.818L221.935 114.932C221.904 114.75 221.874 114.569 221.834 114.398Z" fill="#A3A3A3"/>
<path d="M221.945 114.937L226.956 112.824C226.987 112.985 227.007 113.156 227.027 113.327L222.016 115.44C221.996 115.269 221.976 115.108 221.945 114.937Z" fill="#9F9F9F"/>
<path d="M222.016 115.433L227.027 113.32C227.047 113.481 227.057 113.632 227.067 113.793L222.056 115.906C222.056 115.745 222.036 115.594 222.016 115.433Z" fill="#9B9B9B"/>
<path d="M222.045 115.918L227.056 113.805C227.056 113.895 227.056 113.996 227.066 114.086C227.066 114.147 227.066 114.207 227.066 114.258L222.055 116.371C222.055 116.31 222.055 116.25 222.055 116.2C222.055 116.109 222.055 116.008 222.045 115.918Z" fill="#979797"/>
<path d="M222.064 116.371L227.076 114.258C227.076 114.409 227.076 114.55 227.076 114.691L222.064 116.804C222.064 116.663 222.064 116.512 222.064 116.371Z" fill="#939393"/>
<path d="M222.055 116.801L227.066 114.688C227.066 114.828 227.056 114.969 227.046 115.1L222.035 117.213C222.045 117.072 222.055 116.942 222.055 116.801Z" fill="#909090"/>
<path d="M222.034 117.219L227.046 115.105C227.035 115.236 227.015 115.367 227.005 115.498L221.994 117.611C222.014 117.48 222.024 117.349 222.034 117.219Z" fill="#8C8C8C"/>
<path d="M221.994 117.609L227.005 115.496C226.985 115.627 226.965 115.758 226.945 115.878L221.934 117.992C221.954 117.861 221.974 117.74 221.994 117.609Z" fill="#888888"/>
<path d="M221.934 118L226.945 115.887C226.925 116.018 226.895 116.138 226.865 116.259L221.854 118.372C221.884 118.251 221.904 118.131 221.934 118Z" fill="#848484"/>
<path d="M221.852 118.375L226.863 116.262C226.833 116.382 226.803 116.503 226.773 116.624L221.762 118.737C221.792 118.616 221.822 118.496 221.852 118.375Z" fill="#808080"/>
<path d="M221.763 118.734L226.774 116.621C226.744 116.742 226.704 116.863 226.664 116.973L221.652 119.086C221.693 118.966 221.733 118.855 221.763 118.734Z" fill="#7C7C7C"/>
<path d="M221.652 119.09L226.663 116.977C226.623 117.097 226.583 117.218 226.533 117.329L221.521 119.442C221.572 119.331 221.612 119.21 221.652 119.09Z" fill="#787878"/>
<path d="M221.522 119.437L226.533 117.324C226.483 117.445 226.433 117.566 226.382 117.676L221.371 119.79C221.421 119.679 221.482 119.558 221.522 119.437Z" fill="#747474"/>
<path d="M221.361 119.793L226.372 117.68C226.312 117.8 226.251 117.921 226.191 118.032L221.18 120.145C221.24 120.034 221.311 119.914 221.361 119.793Z" fill="#717171"/>
<path d="M221.179 120.148L226.19 118.035C226.119 118.166 226.039 118.287 225.958 118.397L220.947 120.511C221.028 120.39 221.108 120.269 221.179 120.148Z" fill="#6D6D6D"/>
<path d="M220.948 120.515L225.96 118.402C225.859 118.543 225.758 118.674 225.658 118.805L220.646 120.918C220.757 120.797 220.858 120.656 220.948 120.515Z" fill="#696969"/>
<path d="M220.645 120.91L225.656 118.797C225.273 119.25 224.821 119.592 224.328 119.803L219.316 121.916C219.809 121.705 220.262 121.363 220.645 120.91Z" fill="#656565"/>
</g>
<mask id="mask3_569_27332" style="mask-type:luminance" maskUnits="userSpaceOnUse" x="219" y="119" width="6" height="3">
<path d="M224.304 119.812C224.304 119.812 224.304 119.812 224.314 119.812L219.303 121.926C219.303 121.926 219.303 121.926 219.293 121.926C220.963 121.221 222.634 120.517 224.304 119.812Z" fill="white"/>
</mask>
<g mask="url(#mask3_569_27332)">
<path d="M219.143 121.982L224.154 119.869C224.204 119.849 224.264 119.829 224.315 119.809L219.304 121.922C219.253 121.942 219.193 121.962 219.143 121.982Z" fill="#252525"/>
</g>
<path d="M231.12 115C231.12 114.859 231.12 114.718 231.12 114.577C231.12 114.467 231.12 114.366 231.12 114.255C231.12 114.084 231.11 113.903 231.1 113.732C231.09 113.551 231.07 113.37 231.05 113.189C231.05 113.108 231.04 113.028 231.03 112.957C231.03 112.927 231.03 112.887 231.03 112.857C230.999 112.545 230.949 112.233 230.899 111.931C230.899 111.911 230.899 111.891 230.889 111.87C230.869 111.77 230.848 111.669 230.828 111.569C230.788 111.357 230.748 111.146 230.708 110.935C230.697 110.884 230.677 110.834 230.667 110.784C230.627 110.603 230.577 110.421 230.526 110.24C230.486 110.099 230.456 109.948 230.416 109.808C230.406 109.767 230.386 109.727 230.375 109.677C230.245 109.254 230.114 108.852 229.953 108.449C229.953 108.449 229.953 108.429 229.943 108.419C229.792 108.047 229.631 107.684 229.46 107.322C229.409 107.211 229.339 107.101 229.289 106.99C229.168 106.749 229.047 106.517 228.916 106.296C228.846 106.165 228.765 106.044 228.685 105.923C228.564 105.722 228.433 105.531 228.303 105.34C228.212 105.209 228.121 105.098 228.031 104.978C227.9 104.806 227.769 104.635 227.628 104.474C227.588 104.424 227.548 104.364 227.508 104.313C227.447 104.243 227.377 104.183 227.316 104.112C227.196 103.981 227.075 103.851 226.944 103.73C226.894 103.679 226.843 103.619 226.793 103.569C226.703 103.488 226.612 103.408 226.521 103.327C226.461 103.277 226.401 103.217 226.34 103.166C226.31 103.136 226.28 103.106 226.25 103.086C226.099 102.965 225.948 102.844 225.797 102.734C225.767 102.713 225.727 102.683 225.696 102.663C225.666 102.643 225.626 102.613 225.596 102.593C225.525 102.542 225.455 102.492 225.384 102.452C225.254 102.371 225.123 102.291 224.992 102.21C224.962 102.19 224.932 102.18 224.901 102.16C224.881 102.15 224.851 102.13 224.831 102.12C224.771 102.09 224.7 102.049 224.64 102.019C224.519 101.959 224.398 101.908 224.288 101.858C224.227 101.828 224.157 101.808 224.096 101.778C224.076 101.778 224.056 101.758 224.036 101.747C224.006 101.737 223.976 101.727 223.945 101.707C223.835 101.667 223.714 101.627 223.603 101.586C223.493 101.556 223.382 101.516 223.261 101.486C223.251 101.486 223.241 101.486 223.231 101.486C223.221 101.486 223.211 101.486 223.201 101.486C223.11 101.466 223.02 101.446 222.919 101.425C222.798 101.405 222.688 101.385 222.567 101.365C222.496 101.365 222.426 101.345 222.356 101.335C222.305 101.335 222.255 101.335 222.195 101.325C222.064 101.325 221.943 101.305 221.812 101.305C221.762 101.305 221.712 101.305 221.661 101.305C221.621 101.305 221.591 101.305 221.551 101.305C221.5 101.305 221.45 101.305 221.41 101.305C221.269 101.305 221.118 101.325 220.977 101.345C220.957 101.345 220.937 101.345 220.917 101.355C220.866 101.355 220.816 101.375 220.766 101.385C220.665 101.405 220.554 101.415 220.454 101.446C220.403 101.456 220.353 101.476 220.303 101.486C220.202 101.516 220.102 101.536 220.001 101.576C219.941 101.597 219.87 101.607 219.81 101.627C219.699 101.667 219.588 101.707 219.488 101.747L214.477 103.861C214.648 103.79 214.819 103.73 214.99 103.679C215.09 103.649 215.191 103.619 215.292 103.589C215.443 103.549 215.604 103.518 215.755 103.488C215.805 103.488 215.855 103.468 215.905 103.458C216.117 103.428 216.328 103.408 216.539 103.408C216.58 103.408 216.61 103.408 216.65 103.408C216.882 103.408 217.113 103.408 217.344 103.438C217.626 103.468 217.908 103.518 218.19 103.589C218.2 103.589 218.21 103.589 218.22 103.589C218.492 103.659 218.763 103.74 219.025 103.84C219.045 103.84 219.065 103.861 219.085 103.871C219.337 103.971 219.578 104.082 219.83 104.213C219.85 104.223 219.88 104.243 219.9 104.253C220.132 104.384 220.363 104.525 220.595 104.676C220.625 104.696 220.665 104.726 220.695 104.746C220.917 104.897 221.128 105.068 221.339 105.249C221.4 105.3 221.46 105.36 221.52 105.41C221.661 105.541 221.802 105.672 221.943 105.813C222.074 105.933 222.195 106.064 222.315 106.205C222.426 106.326 222.527 106.437 222.627 106.557C222.768 106.718 222.899 106.889 223.03 107.06C223.12 107.181 223.211 107.302 223.301 107.423C223.432 107.604 223.553 107.805 223.684 107.996C223.764 108.117 223.845 108.238 223.915 108.369C224.046 108.59 224.167 108.821 224.288 109.063C224.348 109.174 224.408 109.284 224.459 109.395C224.63 109.747 224.791 110.109 224.942 110.482C224.942 110.492 224.942 110.512 224.952 110.522C225.103 110.914 225.244 111.327 225.374 111.74C225.435 111.921 225.475 112.112 225.525 112.293C225.576 112.474 225.626 112.655 225.666 112.836C225.727 113.088 225.777 113.35 225.827 113.611C225.847 113.712 225.867 113.812 225.888 113.913C225.948 114.275 225.998 114.638 226.038 115C226.038 115.08 226.049 115.161 226.059 115.241C226.089 115.594 226.119 115.946 226.129 116.308C226.129 116.56 226.129 116.811 226.129 117.053C226.129 117.153 226.129 117.244 226.129 117.344C226.129 117.636 226.109 117.918 226.079 118.2C226.079 118.22 226.079 118.23 226.079 118.25C226.059 118.522 226.028 118.783 225.988 119.035C225.978 119.126 225.958 119.206 225.948 119.287C225.918 119.478 225.888 119.659 225.847 119.84C225.827 119.931 225.807 120.031 225.787 120.122C225.747 120.303 225.706 120.474 225.666 120.645C225.646 120.725 225.626 120.816 225.606 120.897C225.545 121.108 225.485 121.309 225.425 121.51C225.415 121.551 225.394 121.601 225.384 121.641C225.304 121.883 225.213 122.124 225.113 122.356C225.083 122.436 225.042 122.507 225.012 122.587C224.942 122.738 224.871 122.899 224.801 123.05C224.75 123.161 224.69 123.261 224.64 123.362C224.579 123.483 224.519 123.603 224.449 123.714C224.368 123.855 224.278 123.996 224.187 124.137C224.137 124.217 224.086 124.298 224.036 124.368C223.875 124.61 223.694 124.831 223.513 125.042C223.462 125.103 223.402 125.163 223.352 125.223C223.231 125.364 223.11 125.495 222.979 125.616C222.909 125.686 222.839 125.747 222.768 125.807C222.647 125.918 222.517 126.028 222.396 126.129C222.325 126.189 222.255 126.24 222.174 126.3C222.034 126.401 221.893 126.491 221.752 126.582C221.681 126.622 221.621 126.672 221.551 126.703C221.339 126.823 221.118 126.934 220.896 127.025L225.908 124.911C226.129 124.821 226.35 124.71 226.562 124.589C226.632 124.549 226.693 124.509 226.763 124.469C226.904 124.378 227.045 124.288 227.186 124.187C227.256 124.137 227.337 124.076 227.407 124.016C227.538 123.915 227.659 123.805 227.779 123.694C227.85 123.634 227.92 123.573 227.991 123.503C228.121 123.382 228.242 123.241 228.363 123.11C228.403 123.06 228.453 123.02 228.494 122.979C228.504 122.969 228.514 122.949 228.524 122.939C228.705 122.728 228.876 122.496 229.037 122.265C229.037 122.255 229.057 122.245 229.057 122.235C229.108 122.164 229.148 122.094 229.188 122.024C229.279 121.883 229.369 121.752 229.45 121.601C229.46 121.581 229.48 121.561 229.49 121.541C229.54 121.45 229.591 121.349 229.641 121.249C229.691 121.148 229.752 121.047 229.802 120.937C229.812 120.917 229.822 120.897 229.832 120.876C229.892 120.746 229.953 120.615 230.013 120.474C230.043 120.393 230.084 120.323 230.114 120.253C230.114 120.242 230.124 120.232 230.134 120.222C230.224 120.011 230.305 119.79 230.385 119.558C230.385 119.558 230.385 119.548 230.385 119.538C230.396 119.498 230.416 119.448 230.426 119.407C230.486 119.236 230.536 119.065 230.587 118.894C230.587 118.864 230.607 118.824 230.617 118.793C230.637 118.713 230.657 118.622 230.677 118.542C230.708 118.431 230.738 118.331 230.758 118.22C230.778 118.149 230.788 118.079 230.798 118.009C230.818 117.918 230.838 117.827 230.858 117.727C230.869 117.656 230.889 117.586 230.899 117.516C230.919 117.395 230.939 117.284 230.949 117.163C230.959 117.083 230.979 116.992 230.989 116.912C230.989 116.882 230.999 116.841 231.009 116.811C231.04 116.58 231.06 116.348 231.08 116.117C231.08 116.107 231.08 116.097 231.08 116.077C231.1 115.825 231.12 115.573 231.13 115.312C231.13 115.282 231.13 115.251 231.13 115.221C231.13 115.131 231.13 115.03 231.13 114.939L231.12 115Z" fill="#6742CF"/>
<path d="M217.442 103.316C222.176 103.792 226.184 109.605 226.378 116.288C226.572 122.982 222.892 128.005 218.148 127.529C213.404 127.053 209.407 121.25 209.212 114.557C209.018 107.873 212.688 102.84 217.442 103.316ZM217.994 122.101C220.448 122.344 222.37 119.671 222.268 116.126C222.166 112.582 220.08 109.504 217.616 109.261C215.152 109.018 213.241 111.691 213.343 115.225C213.445 118.759 215.531 121.848 217.994 122.101Z" fill="#1F1F1F"/>
<path d="M217.484 109.368C219.899 109.61 221.952 112.669 222.063 116.191C222.173 119.712 220.282 122.379 217.857 122.127C215.431 121.876 213.389 118.827 213.278 115.295C213.167 111.763 215.059 109.117 217.484 109.368Z" fill="#1F1F1F"/>
<mask id="mask4_569_27332" style="mask-type:luminance" maskUnits="userSpaceOnUse" x="273" y="150" width="8" height="3">
<path d="M278.714 150.442C279.217 150.492 279.71 150.422 280.153 150.23C278.483 150.935 276.812 151.639 275.142 152.344C274.699 152.525 274.206 152.605 273.703 152.555C275.202 151.921 277.094 150.683 278.714 150.442Z" fill="white"/>
</mask>
<g mask="url(#mask4_569_27332)">
<path d="M273.703 152.558L278.714 150.445C278.714 150.445 278.765 150.445 278.795 150.445L273.784 152.558C273.784 152.558 273.733 152.558 273.703 152.558Z" fill="#2D2D2D"/>
<path d="M273.785 152.558L278.796 150.445C278.857 150.445 278.927 150.445 278.988 150.445L273.976 152.558C273.916 152.558 273.846 152.558 273.785 152.558Z" fill="#2C2C2C"/>
<path d="M273.975 152.57L278.986 150.457C279.056 150.457 279.127 150.457 279.197 150.457L274.186 152.57C274.115 152.57 274.045 152.57 273.975 152.57Z" fill="#2B2B2B"/>
<path d="M274.188 152.575L279.199 150.462C279.269 150.462 279.34 150.451 279.42 150.441L274.409 152.555C274.338 152.555 274.268 152.575 274.188 152.575Z" fill="#292929"/>
<path d="M274.398 152.554L279.41 150.441C279.5 150.431 279.591 150.411 279.671 150.391L274.66 152.504C274.569 152.524 274.489 152.544 274.398 152.554Z" fill="#282828"/>
<path d="M274.67 152.503L279.681 150.39C279.792 150.359 279.902 150.329 280.013 150.289L275.002 152.402C274.891 152.442 274.781 152.473 274.67 152.503Z" fill="#262626"/>
<path d="M274.99 152.4L280.001 150.287C280.052 150.267 280.112 150.247 280.162 150.227L275.151 152.34C275.101 152.36 275.041 152.38 274.99 152.4Z" fill="#252525"/>
</g>
<mask id="mask5_569_27332" style="mask-type:luminance" maskUnits="userSpaceOnUse" x="269" y="137" width="10" height="16">
<path d="M274.134 143.616C274.235 147.148 276.288 150.197 278.713 150.449L273.702 152.562C271.277 152.31 269.234 149.261 269.123 145.729C270.794 145.025 272.464 144.321 274.134 143.616C272.464 144.321 270.794 145.025 269.123 145.719C269.043 142.952 270.19 140.708 271.87 140.004L276.881 137.891C275.201 138.595 274.054 140.829 274.134 143.606V143.616Z" fill="white"/>
</mask>
<g mask="url(#mask5_569_27332)">
<path d="M271.875 140.012L276.886 137.898C276.393 138.11 275.94 138.452 275.558 138.905L270.547 141.018C270.929 140.565 271.382 140.223 271.875 140.012Z" fill="#252525"/>
<path d="M270.546 141.008L275.557 138.895C275.446 139.015 275.346 139.156 275.255 139.297L270.244 141.41C270.345 141.269 270.445 141.138 270.546 141.008Z" fill="#262626"/>
<path d="M270.233 141.41L275.245 139.297C275.164 139.418 275.094 139.538 275.013 139.659L270.002 141.772C270.072 141.641 270.153 141.521 270.233 141.41Z" fill="#282828"/>
<path d="M270.013 141.773L275.024 139.66C274.964 139.771 274.894 139.892 274.843 140.012L269.832 142.125C269.892 142.005 269.953 141.884 270.013 141.773Z" fill="#292929"/>
<path d="M269.821 142.125L274.832 140.012C274.782 140.122 274.721 140.243 274.681 140.364L269.67 142.477C269.72 142.356 269.771 142.236 269.821 142.125Z" fill="#2B2B2B"/>
<path d="M269.672 142.473L274.683 140.359C274.633 140.47 274.592 140.591 274.552 140.712L269.541 142.825C269.581 142.704 269.622 142.583 269.672 142.473Z" fill="#2C2C2C"/>
<path d="M269.538 142.828L274.55 140.715C274.509 140.836 274.469 140.946 274.439 141.067L269.428 143.18C269.458 143.059 269.498 142.939 269.538 142.828Z" fill="#2D2D2D"/>
<path d="M269.428 143.183L274.44 141.07C274.409 141.191 274.379 141.312 274.349 141.433L269.338 143.546C269.368 143.425 269.398 143.304 269.428 143.183Z" fill="#2F2F2F"/>
<path d="M269.338 143.555L274.349 141.441C274.319 141.562 274.299 141.683 274.269 141.814L269.258 143.927C269.278 143.796 269.308 143.675 269.338 143.555Z" fill="#303030"/>
<path d="M269.258 143.926L274.269 141.812C274.249 141.943 274.229 142.064 274.208 142.195L269.197 144.308C269.217 144.177 269.238 144.046 269.258 143.926Z" fill="#323232"/>
<path d="M269.198 144.308L274.21 142.195C274.189 142.326 274.179 142.457 274.169 142.588L269.158 144.701C269.168 144.57 269.188 144.439 269.198 144.308Z" fill="#333333"/>
<path d="M269.157 144.703L274.168 142.59C274.158 142.731 274.148 142.862 274.148 143.002L269.137 145.116C269.137 144.975 269.147 144.834 269.157 144.703Z" fill="#353535"/>
<path d="M269.137 145.113L274.148 143C274.148 143.141 274.148 143.292 274.148 143.433L269.137 145.546C269.137 145.395 269.137 145.254 269.137 145.113Z" fill="#363636"/>
<path d="M269.127 145.547L274.138 143.434C274.138 143.494 274.138 143.554 274.138 143.605C274.138 143.695 274.138 143.796 274.148 143.886L269.137 146C269.137 145.909 269.137 145.808 269.127 145.718C269.127 145.657 269.127 145.597 269.127 145.547Z" fill="#373737"/>
<path d="M269.146 146.012L274.158 143.898C274.158 144.059 274.178 144.22 274.198 144.371L269.187 146.485C269.167 146.324 269.157 146.173 269.146 146.012Z" fill="#393939"/>
<path d="M269.188 146.484L274.199 144.371C274.219 144.542 274.239 144.703 274.269 144.874L269.258 146.987C269.228 146.826 269.208 146.655 269.188 146.484Z" fill="#3A3A3A"/>
<path d="M269.248 146.984L274.259 144.871C274.289 145.052 274.32 145.233 274.36 145.414L269.349 147.528C269.308 147.346 269.278 147.165 269.248 146.984Z" fill="#3C3C3C"/>
<path d="M269.357 147.531L274.369 145.418C274.419 145.619 274.469 145.82 274.53 146.022L269.518 148.135C269.458 147.934 269.408 147.732 269.357 147.531Z" fill="#3D3D3D"/>
<path d="M269.51 148.133L274.521 146.02C274.601 146.271 274.682 146.523 274.783 146.764L269.771 148.877C269.681 148.636 269.59 148.384 269.51 148.133Z" fill="#3E3E3E"/>
<path d="M269.77 148.879L274.781 146.766C275.113 147.601 275.556 148.335 276.069 148.929L271.058 151.042C270.534 150.449 270.092 149.714 269.77 148.879Z" fill="#404040"/>
<path d="M271.059 151.039L276.07 148.926C276.191 149.057 276.311 149.187 276.432 149.298L271.421 151.411C271.3 151.29 271.179 151.17 271.059 151.039Z" fill="#3E3E3E"/>
<path d="M271.422 151.414L276.433 149.301C276.524 149.391 276.614 149.472 276.715 149.552L271.704 151.665C271.613 151.585 271.512 151.504 271.422 151.414Z" fill="#3D3D3D"/>
<path d="M271.701 151.664L276.712 149.551C276.793 149.611 276.873 149.672 276.954 149.732L271.943 151.845C271.862 151.785 271.782 151.724 271.701 151.664Z" fill="#3C3C3C"/>
<path d="M271.936 151.848L276.947 149.734C277.017 149.785 277.088 149.835 277.158 149.875L272.147 151.988C272.076 151.948 272.006 151.898 271.936 151.848Z" fill="#3A3A3A"/>
<path d="M272.146 151.996L277.158 149.883C277.228 149.923 277.288 149.963 277.359 150.004L272.348 152.117C272.277 152.076 272.217 152.036 272.146 151.996Z" fill="#393939"/>
<path d="M272.346 152.117L277.357 150.004C277.417 150.034 277.478 150.074 277.538 150.105L272.527 152.218C272.466 152.187 272.406 152.157 272.346 152.117Z" fill="#373737"/>
<path d="M272.537 152.207L277.548 150.094C277.609 150.124 277.669 150.154 277.729 150.174L272.718 152.287C272.658 152.257 272.597 152.237 272.537 152.207Z" fill="#363636"/>
<path d="M272.721 152.301L277.732 150.188C277.792 150.208 277.853 150.238 277.903 150.258L272.892 152.371C272.831 152.351 272.771 152.331 272.721 152.301Z" fill="#353535"/>
<path d="M272.891 152.371L277.902 150.258C277.962 150.278 278.023 150.298 278.073 150.318L273.062 152.431C273.001 152.411 272.941 152.391 272.891 152.371Z" fill="#333333"/>
<path d="M273.072 152.422L278.083 150.309C278.144 150.329 278.194 150.339 278.254 150.359L273.243 152.472C273.183 152.462 273.123 152.442 273.072 152.422Z" fill="#323232"/>
<path d="M273.242 152.469L278.253 150.355C278.314 150.366 278.374 150.386 278.434 150.396L273.423 152.509C273.363 152.499 273.303 152.489 273.242 152.469Z" fill="#303030"/>
<path d="M273.414 152.512L278.425 150.398C278.486 150.409 278.546 150.419 278.606 150.429L273.595 152.542C273.535 152.542 273.474 152.522 273.414 152.512Z" fill="#2F2F2F"/>
<path d="M273.596 152.539L278.607 150.426C278.607 150.426 278.677 150.426 278.718 150.436L273.706 152.549C273.706 152.549 273.636 152.549 273.596 152.539Z" fill="#2D2D2D"/>
</g>
<mask id="mask6_569_27332" style="mask-type:luminance" maskUnits="userSpaceOnUse" x="273" y="137" width="10" height="16">
<path d="M280.163 150.236L275.152 152.349C276.822 151.644 277.979 149.41 277.899 146.623C277.798 143.101 275.745 140.042 273.32 139.801L278.331 137.688C280.747 137.929 282.799 140.988 282.91 144.51C282.99 147.287 281.833 149.531 280.163 150.236Z" fill="white"/>
</mask>
<g mask="url(#mask6_569_27332)">
<path d="M273.328 139.789L278.339 137.676C278.339 137.676 278.41 137.676 278.45 137.686L273.439 139.799C273.439 139.799 273.368 139.799 273.328 139.789Z" fill="#7C7C7C"/>
<path d="M273.438 139.808L278.449 137.695C278.509 137.695 278.569 137.715 278.63 137.725L273.619 139.839C273.558 139.829 273.498 139.819 273.438 139.808Z" fill="#808080"/>
<path d="M273.609 139.84L278.621 137.727C278.681 137.737 278.741 137.747 278.792 137.767L273.78 139.88C273.72 139.87 273.66 139.85 273.609 139.84Z" fill="#848484"/>
<path d="M273.791 139.867L278.802 137.754C278.863 137.764 278.913 137.784 278.973 137.804L273.962 139.917C273.902 139.897 273.851 139.887 273.791 139.867Z" fill="#888888"/>
<path d="M273.961 139.918L278.972 137.805C279.032 137.825 279.093 137.845 279.143 137.865L274.132 139.978C274.072 139.958 274.011 139.938 273.961 139.918Z" fill="#8C8C8C"/>
<path d="M274.133 139.98L279.144 137.867C279.204 137.887 279.265 137.907 279.315 137.938L274.304 140.051C274.243 140.031 274.183 140 274.133 139.98Z" fill="#909090"/>
<path d="M274.314 140.051L279.326 137.938C279.386 137.968 279.446 137.988 279.507 138.018L274.496 140.131C274.435 140.101 274.375 140.071 274.314 140.051Z" fill="#939393"/>
<path d="M274.496 140.14L279.507 138.027C279.568 138.058 279.628 138.088 279.688 138.128L274.677 140.241C274.617 140.211 274.556 140.171 274.496 140.14Z" fill="#979797"/>
<path d="M274.678 140.23L279.689 138.117C279.759 138.157 279.82 138.198 279.89 138.238L274.879 140.351C274.809 140.311 274.748 140.271 274.678 140.23Z" fill="#9B9B9B"/>
<path d="M274.877 140.351L279.888 138.238C279.959 138.289 280.029 138.329 280.099 138.379L275.088 140.492C275.018 140.442 274.947 140.392 274.877 140.351Z" fill="#9F9F9F"/>
<path d="M275.088 140.492L280.099 138.379C280.18 138.439 280.26 138.5 280.341 138.56L275.329 140.673C275.249 140.613 275.168 140.552 275.088 140.492Z" fill="#A3A3A3"/>
<path d="M275.33 140.683L280.341 138.57C280.442 138.651 280.532 138.731 280.623 138.822L275.612 140.935C275.521 140.844 275.431 140.764 275.33 140.683Z" fill="#A7A7A7"/>
<path d="M275.611 140.926L280.622 138.812C280.743 138.933 280.864 139.054 280.985 139.195L275.974 141.308C275.853 141.177 275.732 141.046 275.611 140.926Z" fill="#ABABAB"/>
<path d="M275.975 141.308L280.986 139.195C281.509 139.789 281.952 140.534 282.284 141.369L277.273 143.482C276.941 142.647 276.498 141.902 275.975 141.308Z" fill="#AFAFAF"/>
<path d="M277.262 143.484L282.273 141.371C282.363 141.613 282.454 141.864 282.524 142.116L277.513 144.229C277.433 143.977 277.352 143.726 277.262 143.484Z" fill="#ABABAB"/>
<path d="M277.523 144.226L282.535 142.113C282.595 142.315 282.645 142.506 282.696 142.717L277.684 144.83C277.634 144.629 277.584 144.428 277.523 144.226Z" fill="#A7A7A7"/>
<path d="M277.676 144.832L282.687 142.719C282.727 142.9 282.757 143.071 282.788 143.252L277.776 145.365C277.746 145.184 277.716 145.003 277.676 144.832Z" fill="#A3A3A3"/>
<path d="M277.787 145.359L282.798 143.246C282.828 143.407 282.849 143.578 282.869 143.749L277.858 145.862C277.837 145.691 277.817 145.53 277.787 145.359Z" fill="#9F9F9F"/>
<path d="M277.846 145.867L282.857 143.754C282.877 143.915 282.887 144.066 282.897 144.227L277.886 146.34C277.886 146.179 277.866 146.028 277.846 145.867Z" fill="#9B9B9B"/>
<path d="M277.887 146.34L282.898 144.227C282.898 144.317 282.898 144.418 282.908 144.508C282.908 144.569 282.908 144.629 282.908 144.679L277.897 146.793C277.897 146.732 277.897 146.672 277.897 146.621C277.897 146.531 277.897 146.43 277.887 146.34Z" fill="#979797"/>
<path d="M277.906 146.793L282.917 144.68C282.917 144.831 282.917 144.972 282.917 145.112L277.906 147.226C277.906 147.085 277.906 146.934 277.906 146.793Z" fill="#939393"/>
<path d="M277.897 147.223L282.908 145.109C282.908 145.25 282.898 145.391 282.888 145.522L277.877 147.635C277.887 147.494 277.897 147.363 277.897 147.223Z" fill="#909090"/>
<path d="M277.876 147.64L282.887 145.527C282.877 145.658 282.857 145.789 282.847 145.92L277.836 148.033C277.856 147.902 277.866 147.771 277.876 147.64Z" fill="#8C8C8C"/>
<path d="M277.836 148.039L282.847 145.926C282.827 146.057 282.807 146.187 282.787 146.308L277.775 148.421C277.796 148.29 277.816 148.17 277.836 148.039Z" fill="#888888"/>
<path d="M277.776 148.422L282.787 146.309C282.767 146.439 282.737 146.56 282.706 146.681L277.695 148.794C277.726 148.673 277.746 148.553 277.776 148.422Z" fill="#848484"/>
<path d="M277.694 148.797L282.705 146.684C282.675 146.804 282.645 146.925 282.615 147.046L277.604 149.159C277.634 149.038 277.664 148.917 277.694 148.797Z" fill="#808080"/>
<path d="M277.605 149.156L282.616 147.043C282.586 147.164 282.546 147.284 282.505 147.395L277.494 149.508C277.534 149.388 277.575 149.277 277.605 149.156Z" fill="#7C7C7C"/>
<path d="M277.494 149.512L282.505 147.398C282.465 147.519 282.425 147.64 282.374 147.751L277.363 149.864C277.414 149.753 277.454 149.632 277.494 149.512Z" fill="#787878"/>
<path d="M277.364 149.859L282.375 147.746C282.325 147.867 282.274 147.988 282.224 148.098L277.213 150.211C277.263 150.101 277.324 149.98 277.364 149.859Z" fill="#747474"/>
<path d="M277.203 150.215L282.214 148.102C282.153 148.222 282.093 148.343 282.033 148.454L277.021 150.567C277.082 150.456 277.152 150.335 277.203 150.215Z" fill="#717171"/>
<path d="M277.02 150.57L282.032 148.457C281.961 148.588 281.881 148.709 281.8 148.819L276.789 150.932C276.87 150.812 276.95 150.691 277.02 150.57Z" fill="#6D6D6D"/>
<path d="M276.79 150.937L281.801 148.824C281.701 148.965 281.6 149.096 281.499 149.227L276.488 151.34C276.599 151.219 276.7 151.078 276.79 150.937Z" fill="#696969"/>
<path d="M276.486 151.332L281.498 149.219C281.115 149.672 280.662 150.014 280.169 150.225L275.158 152.338C275.651 152.127 276.104 151.785 276.486 151.332Z" fill="#656565"/>
</g>
<mask id="mask7_569_27332" style="mask-type:luminance" maskUnits="userSpaceOnUse" x="275" y="150" width="6" height="3">
<path d="M280.154 150.23C280.154 150.23 280.154 150.23 280.164 150.23L275.153 152.344C275.153 152.344 275.153 152.344 275.143 152.344C276.813 151.639 278.483 150.935 280.154 150.23Z" fill="white"/>
</mask>
<g mask="url(#mask7_569_27332)">
<path d="M274.994 152.396L280.005 150.283C280.056 150.263 280.116 150.243 280.166 150.223L275.155 152.336C275.105 152.356 275.044 152.376 274.994 152.396Z" fill="#252525"/>
</g>
<path d="M286.966 145.422C286.966 145.281 286.966 145.14 286.966 144.999C286.966 144.888 286.966 144.788 286.966 144.677C286.966 144.506 286.956 144.325 286.946 144.154C286.936 143.973 286.915 143.792 286.895 143.61C286.895 143.53 286.885 143.449 286.875 143.379C286.875 143.349 286.875 143.309 286.875 143.278C286.845 142.966 286.795 142.655 286.744 142.353C286.744 142.333 286.744 142.312 286.734 142.292C286.714 142.192 286.694 142.091 286.674 141.99C286.634 141.779 286.593 141.568 286.553 141.356C286.543 141.306 286.523 141.256 286.513 141.206C286.473 141.024 286.422 140.843 286.372 140.662C286.332 140.521 286.302 140.37 286.261 140.229C286.251 140.189 286.231 140.149 286.221 140.099C286.09 139.676 285.96 139.273 285.799 138.871C285.799 138.871 285.799 138.851 285.788 138.841C285.638 138.468 285.477 138.106 285.305 137.744C285.255 137.633 285.185 137.523 285.134 137.412C285.014 137.17 284.893 136.939 284.762 136.718C284.692 136.587 284.611 136.466 284.531 136.345C284.41 136.144 284.279 135.953 284.148 135.762C284.058 135.631 283.967 135.52 283.877 135.399C283.746 135.228 283.615 135.057 283.474 134.896C283.434 134.846 283.394 134.786 283.353 134.735C283.293 134.665 283.222 134.604 283.162 134.534C283.041 134.403 282.921 134.272 282.79 134.152C282.739 134.101 282.689 134.041 282.639 133.991C282.548 133.91 282.458 133.83 282.367 133.749C282.307 133.699 282.246 133.638 282.186 133.588C282.156 133.558 282.126 133.528 282.095 133.508C281.945 133.387 281.794 133.266 281.643 133.155C281.612 133.135 281.572 133.105 281.542 133.085C281.512 133.065 281.472 133.035 281.441 133.015C281.371 132.964 281.301 132.914 281.23 132.874C281.099 132.793 280.968 132.713 280.838 132.632C280.807 132.612 280.777 132.602 280.747 132.582C280.727 132.572 280.697 132.552 280.677 132.542C280.616 132.511 280.546 132.471 280.485 132.441C280.365 132.381 280.244 132.33 280.133 132.28C280.073 132.25 280.002 132.23 279.942 132.2C279.922 132.2 279.902 132.179 279.882 132.169C279.852 132.159 279.821 132.149 279.791 132.129C279.68 132.089 279.56 132.049 279.449 132.008C279.338 131.978 279.228 131.938 279.107 131.908C279.097 131.908 279.087 131.908 279.077 131.908C279.067 131.908 279.057 131.908 279.047 131.908C278.956 131.888 278.865 131.867 278.765 131.847C278.644 131.827 278.533 131.807 278.413 131.787C278.342 131.787 278.272 131.767 278.201 131.757C278.151 131.757 278.101 131.757 278.04 131.747C277.909 131.747 277.789 131.727 277.658 131.727C277.608 131.727 277.557 131.727 277.507 131.727C277.467 131.727 277.437 131.727 277.396 131.727C277.346 131.727 277.296 131.727 277.255 131.727C277.115 131.727 276.964 131.747 276.823 131.767C276.803 131.767 276.782 131.767 276.762 131.777C276.712 131.777 276.662 131.797 276.611 131.807C276.511 131.827 276.4 131.837 276.299 131.867C276.249 131.878 276.199 131.898 276.149 131.908C276.048 131.938 275.947 131.958 275.847 131.998C275.786 132.018 275.716 132.028 275.655 132.049C275.545 132.089 275.434 132.129 275.333 132.169L270.322 134.282C270.493 134.212 270.664 134.152 270.835 134.101C270.936 134.071 271.037 134.041 271.137 134.011C271.288 133.971 271.449 133.94 271.6 133.91C271.651 133.91 271.701 133.89 271.751 133.88C271.962 133.85 272.174 133.83 272.385 133.83C272.425 133.83 272.456 133.83 272.496 133.83C272.727 133.83 272.959 133.83 273.19 133.86C273.472 133.89 273.754 133.94 274.035 134.011C274.045 134.011 274.055 134.011 274.066 134.011C274.337 134.081 274.609 134.162 274.871 134.262C274.891 134.262 274.911 134.282 274.931 134.293C275.182 134.393 275.424 134.504 275.676 134.635C275.696 134.645 275.726 134.665 275.746 134.675C275.977 134.806 276.209 134.947 276.44 135.098C276.471 135.118 276.511 135.148 276.541 135.168C276.762 135.319 276.974 135.49 277.185 135.671C277.245 135.721 277.306 135.782 277.366 135.832C277.507 135.963 277.648 136.094 277.789 136.235C277.92 136.355 278.04 136.486 278.161 136.627C278.272 136.748 278.372 136.858 278.473 136.979C278.614 137.14 278.745 137.311 278.875 137.482C278.966 137.603 279.057 137.724 279.147 137.845C279.278 138.026 279.399 138.227 279.53 138.418C279.61 138.539 279.691 138.66 279.761 138.79C279.892 139.012 280.013 139.243 280.133 139.485C280.194 139.595 280.254 139.706 280.304 139.817C280.475 140.169 280.636 140.531 280.787 140.904C280.787 140.914 280.787 140.934 280.797 140.944C280.948 141.336 281.089 141.749 281.22 142.161C281.28 142.343 281.321 142.534 281.371 142.715C281.421 142.896 281.472 143.077 281.512 143.258C281.572 143.51 281.623 143.771 281.673 144.033C281.693 144.134 281.713 144.234 281.733 144.335C281.794 144.697 281.844 145.059 281.884 145.422C281.884 145.502 281.894 145.583 281.904 145.663C281.934 146.015 281.965 146.368 281.975 146.73C281.975 146.981 281.975 147.233 281.975 147.475C281.975 147.575 281.975 147.666 281.975 147.766C281.975 148.058 281.955 148.34 281.924 148.622C281.924 148.642 281.924 148.652 281.924 148.672C281.904 148.944 281.874 149.205 281.834 149.457C281.824 149.547 281.804 149.628 281.794 149.708C281.763 149.9 281.733 150.081 281.693 150.262C281.673 150.352 281.653 150.453 281.633 150.544C281.592 150.725 281.552 150.896 281.512 151.067C281.492 151.147 281.472 151.238 281.451 151.318C281.391 151.53 281.331 151.731 281.27 151.932C281.26 151.972 281.24 152.023 281.23 152.063C281.15 152.305 281.059 152.546 280.958 152.777C280.928 152.858 280.888 152.928 280.858 153.009C280.787 153.16 280.717 153.321 280.646 153.472C280.596 153.582 280.536 153.683 280.485 153.784C280.425 153.904 280.365 154.025 280.294 154.136C280.214 154.277 280.123 154.418 280.033 154.559C279.982 154.639 279.932 154.72 279.882 154.79C279.721 155.031 279.54 155.253 279.358 155.464C279.308 155.525 279.248 155.585 279.197 155.645C279.077 155.786 278.956 155.917 278.825 156.038C278.755 156.108 278.684 156.169 278.614 156.229C278.493 156.34 278.362 156.45 278.242 156.551C278.171 156.611 278.101 156.662 278.02 156.722C277.879 156.823 277.738 156.913 277.598 157.004C277.527 157.044 277.467 157.094 277.396 157.125C277.185 157.245 276.964 157.356 276.742 157.447L281.753 155.333C281.975 155.243 282.196 155.132 282.407 155.011C282.478 154.971 282.538 154.931 282.609 154.891C282.75 154.8 282.89 154.709 283.031 154.609C283.102 154.559 283.182 154.498 283.253 154.438C283.383 154.337 283.504 154.226 283.625 154.116C283.695 154.055 283.766 153.995 283.836 153.925C283.967 153.804 284.088 153.663 284.209 153.532C284.249 153.482 284.299 153.442 284.339 153.401C284.35 153.391 284.36 153.371 284.37 153.361C284.551 153.15 284.722 152.918 284.883 152.687C284.883 152.677 284.903 152.667 284.903 152.657C284.953 152.586 284.994 152.516 285.034 152.445C285.124 152.305 285.215 152.174 285.295 152.023C285.305 152.003 285.326 151.983 285.336 151.962C285.386 151.872 285.436 151.771 285.487 151.671C285.537 151.57 285.597 151.469 285.648 151.359C285.658 151.339 285.668 151.318 285.678 151.298C285.738 151.167 285.799 151.037 285.859 150.896C285.889 150.815 285.929 150.745 285.96 150.674C285.96 150.664 285.97 150.654 285.98 150.644C286.07 150.433 286.151 150.212 286.231 149.98C286.231 149.98 286.231 149.97 286.231 149.96C286.241 149.92 286.261 149.869 286.271 149.829C286.332 149.658 286.382 149.487 286.432 149.316C286.432 149.286 286.453 149.246 286.463 149.215C286.483 149.135 286.503 149.044 286.523 148.964C286.553 148.853 286.583 148.752 286.604 148.642C286.624 148.571 286.634 148.501 286.644 148.43C286.664 148.34 286.684 148.249 286.704 148.149C286.714 148.078 286.734 148.008 286.744 147.937C286.765 147.817 286.785 147.706 286.795 147.585C286.805 147.505 286.825 147.414 286.835 147.334C286.835 147.303 286.845 147.263 286.855 147.233C286.885 147.002 286.905 146.77 286.926 146.539C286.926 146.529 286.926 146.519 286.926 146.498C286.946 146.247 286.966 145.995 286.976 145.734C286.976 145.703 286.976 145.673 286.976 145.643C286.976 145.553 286.976 145.452 286.976 145.361L286.966 145.422Z" fill="#6742CF"/>
<path d="M273.206 133.89C277.892 134.363 281.858 140.139 282.051 146.781C282.243 153.432 278.6 158.423 273.904 157.95C269.209 157.477 265.252 151.711 265.06 145.06C264.868 138.418 268.501 133.417 273.206 133.89ZM273.753 152.556C276.181 152.798 278.084 150.141 277.983 146.619C277.881 143.098 275.817 140.039 273.378 139.797C270.939 139.556 269.047 142.212 269.148 145.724C269.249 149.236 271.314 152.305 273.753 152.556Z" fill="#1F1F1F"/>
<path d="M273.33 139.786C275.745 140.028 277.798 143.087 277.908 146.609C278.019 150.13 276.127 152.797 273.702 152.545C271.277 152.294 269.234 149.245 269.124 145.713C269.013 142.181 270.905 139.535 273.33 139.786Z" fill="#1F1F1F"/>
<path d="M161.003 120.831C157.139 115.075 157.411 105.989 158.377 101.742L164.686 117.561L179.337 130.914L256.406 174.022L277.538 186.691L277.216 192.175C246.957 175.561 184.378 140.956 176.117 135.422C167.312 129.525 162.392 122.894 161.003 120.831Z" fill="#1A1341"/>
<path d="M210.048 103.773L314.618 162.413L277.608 187.313L176.389 131.003L210.058 103.773H210.048Z" fill="#A387DF"/>
<path d="M160.047 96.4178C152.43 109.529 167.725 124.915 176.399 130.993L210.209 103.764C210.209 103.764 205.188 100.332 200.922 96.8002C197.641 94.0833 191.453 88.8809 187.146 86.8584C180.817 84.232 167.665 83.3063 160.047 96.4178Z" fill="#A387DF"/>
<mask id="mask8_569_27332" style="mask-type:luminance" maskUnits="userSpaceOnUse" x="177" y="149" width="7" height="3">
<path d="M182.445 149.387C182.948 149.437 183.441 149.367 183.884 149.176C182.213 149.88 180.543 150.585 178.873 151.289C178.43 151.47 177.937 151.551 177.434 151.5C178.933 150.866 180.825 149.629 182.445 149.387Z" fill="white"/>
</mask>
<g mask="url(#mask8_569_27332)">
<path d="M177.434 151.504L182.445 149.391C182.445 149.391 182.495 149.391 182.525 149.391L177.514 151.504C177.514 151.504 177.464 151.504 177.434 151.504Z" fill="#2D2D2D"/>
<path d="M177.516 151.504L182.527 149.391C182.587 149.391 182.658 149.391 182.718 149.391L177.707 151.504C177.646 151.504 177.576 151.504 177.516 151.504Z" fill="#2C2C2C"/>
<path d="M177.715 151.508L182.726 149.395C182.796 149.395 182.867 149.395 182.937 149.395L177.926 151.508C177.856 151.508 177.785 151.508 177.715 151.508Z" fill="#2B2B2B"/>
<path d="M177.918 151.512L182.929 149.399C183 149.399 183.07 149.389 183.151 149.379L178.139 151.492C178.069 151.492 177.998 151.512 177.918 151.512Z" fill="#292929"/>
<path d="M178.139 151.492L183.15 149.378C183.24 149.368 183.331 149.348 183.411 149.328L178.4 151.441C178.31 151.461 178.229 151.482 178.139 151.492Z" fill="#282828"/>
<path d="M178.4 151.44L183.412 149.327C183.522 149.297 183.633 149.267 183.744 149.227L178.732 151.34C178.622 151.38 178.511 151.41 178.4 151.44Z" fill="#262626"/>
<path d="M178.732 151.349L183.744 149.236C183.794 149.216 183.854 149.196 183.905 149.176L178.893 151.289C178.843 151.309 178.783 151.329 178.732 151.349Z" fill="#252525"/>
</g>
<mask id="mask9_569_27332" style="mask-type:luminance" maskUnits="userSpaceOnUse" x="172" y="136" width="11" height="16">
<path d="M177.869 142.558C177.969 146.09 180.022 149.139 182.447 149.39L177.436 151.503C175.011 151.252 172.968 148.203 172.857 144.671C174.528 143.966 176.198 143.262 177.869 142.558C176.198 143.262 174.528 143.966 172.857 144.661C172.777 141.894 173.924 139.65 175.605 138.945L180.616 136.832C178.935 137.536 177.788 139.77 177.869 142.548V142.558Z" fill="white"/>
</mask>
<g mask="url(#mask9_569_27332)">
<path d="M175.606 138.957L180.617 136.844C180.124 137.055 179.671 137.397 179.289 137.85L174.277 139.963C174.66 139.51 175.113 139.168 175.606 138.957Z" fill="#252525"/>
<path d="M174.276 139.965L179.288 137.852C179.177 137.972 179.076 138.113 178.986 138.254L173.975 140.367C174.075 140.226 174.176 140.096 174.276 139.965Z" fill="#262626"/>
<path d="M173.974 140.355L178.985 138.242C178.904 138.363 178.834 138.484 178.753 138.604L173.742 140.718C173.813 140.587 173.893 140.466 173.974 140.355Z" fill="#282828"/>
<path d="M173.744 140.726L178.755 138.613C178.694 138.724 178.624 138.845 178.574 138.965L173.562 141.079C173.623 140.958 173.683 140.837 173.744 140.726Z" fill="#292929"/>
<path d="M173.561 141.082L178.572 138.969C178.522 139.079 178.462 139.2 178.421 139.321L173.41 141.434C173.46 141.313 173.511 141.193 173.561 141.082Z" fill="#2B2B2B"/>
<path d="M173.402 141.418L178.413 139.305C178.363 139.415 178.323 139.536 178.283 139.657L173.271 141.77C173.312 141.649 173.352 141.529 173.402 141.418Z" fill="#2C2C2C"/>
<path d="M173.269 141.773L178.28 139.66C178.24 139.781 178.2 139.892 178.169 140.012L173.158 142.125C173.188 142.005 173.229 141.884 173.269 141.773Z" fill="#2D2D2D"/>
<path d="M173.159 142.137L178.17 140.023C178.14 140.144 178.11 140.265 178.08 140.386L173.068 142.499C173.099 142.378 173.129 142.257 173.159 142.137Z" fill="#2F2F2F"/>
<path d="M173.069 142.5L178.08 140.387C178.05 140.507 178.03 140.628 177.999 140.759L172.988 142.872C173.008 142.741 173.039 142.621 173.069 142.5Z" fill="#303030"/>
<path d="M172.988 142.871L177.999 140.758C177.979 140.889 177.959 141.009 177.939 141.14L172.928 143.253C172.948 143.123 172.968 142.992 172.988 142.871Z" fill="#323232"/>
<path d="M172.937 143.254L177.948 141.141C177.928 141.271 177.918 141.402 177.908 141.533L172.896 143.646C172.907 143.515 172.927 143.385 172.937 143.254Z" fill="#333333"/>
<path d="M172.887 143.644L177.898 141.531C177.888 141.672 177.878 141.803 177.878 141.944L172.867 144.057C172.867 143.916 172.877 143.775 172.887 143.644Z" fill="#353535"/>
<path d="M172.867 144.058L177.878 141.945C177.878 142.086 177.878 142.237 177.878 142.378L172.867 144.491C172.867 144.34 172.867 144.199 172.867 144.058Z" fill="#363636"/>
<path d="M172.857 144.488L177.869 142.375C177.869 142.435 177.869 142.496 177.869 142.546C177.869 142.637 177.869 142.737 177.879 142.828L172.867 144.941C172.867 144.85 172.867 144.75 172.857 144.659C172.857 144.599 172.857 144.538 172.857 144.488Z" fill="#373737"/>
<path d="M172.877 144.957L177.888 142.844C177.888 143.005 177.908 143.166 177.928 143.317L172.917 145.43C172.897 145.269 172.887 145.118 172.877 144.957Z" fill="#393939"/>
<path d="M172.918 145.43L177.929 143.316C177.949 143.487 177.969 143.648 178 143.82L172.988 145.933C172.958 145.772 172.938 145.601 172.918 145.43Z" fill="#3A3A3A"/>
<path d="M172.988 145.93L177.999 143.816C178.03 143.998 178.06 144.179 178.1 144.36L173.089 146.473C173.049 146.292 173.018 146.111 172.988 145.93Z" fill="#3C3C3C"/>
<path d="M173.088 146.476L178.099 144.363C178.149 144.565 178.2 144.766 178.26 144.967L173.249 147.08C173.189 146.879 173.138 146.678 173.088 146.476Z" fill="#3D3D3D"/>
<path d="M173.25 147.078L178.261 144.965C178.342 145.216 178.422 145.468 178.523 145.709L173.512 147.823C173.421 147.581 173.331 147.33 173.25 147.078Z" fill="#3E3E3E"/>
<path d="M173.5 147.824L178.511 145.711C178.843 146.546 179.286 147.281 179.799 147.874L174.788 149.988C174.265 149.394 173.822 148.659 173.5 147.824Z" fill="#404040"/>
<path d="M174.799 149.984L179.81 147.871C179.931 148.002 180.051 148.133 180.172 148.243L175.161 150.357C175.04 150.236 174.92 150.115 174.799 149.984Z" fill="#3E3E3E"/>
<path d="M175.152 150.367L180.164 148.254C180.254 148.344 180.345 148.425 180.445 148.505L175.434 150.619C175.344 150.538 175.243 150.458 175.152 150.367Z" fill="#3D3D3D"/>
<path d="M175.432 150.609L180.443 148.496C180.523 148.556 180.604 148.617 180.684 148.677L175.673 150.79C175.593 150.73 175.512 150.67 175.432 150.609Z" fill="#3C3C3C"/>
<path d="M175.674 150.797L180.685 148.684C180.755 148.734 180.826 148.784 180.896 148.824L175.885 150.938C175.815 150.897 175.744 150.847 175.674 150.797Z" fill="#3A3A3A"/>
<path d="M175.885 150.941L180.896 148.828C180.966 148.868 181.027 148.909 181.097 148.949L176.086 151.062C176.016 151.022 175.955 150.982 175.885 150.941Z" fill="#393939"/>
<path d="M176.088 151.062L181.099 148.949C181.159 148.979 181.22 149.02 181.28 149.05L176.269 151.163C176.209 151.133 176.148 151.103 176.088 151.062Z" fill="#373737"/>
<path d="M176.268 151.164L181.279 149.051C181.339 149.081 181.399 149.111 181.46 149.131L176.449 151.244C176.388 151.214 176.328 151.194 176.268 151.164Z" fill="#363636"/>
<path d="M176.451 151.242L181.462 149.129C181.523 149.149 181.583 149.179 181.633 149.199L176.622 151.312C176.562 151.292 176.501 151.272 176.451 151.242Z" fill="#353535"/>
<path d="M176.631 151.316L181.642 149.203C181.702 149.223 181.763 149.243 181.813 149.263L176.802 151.377C176.742 151.357 176.681 151.336 176.631 151.316Z" fill="#333333"/>
<path d="M176.803 151.371L181.814 149.258C181.874 149.278 181.925 149.288 181.985 149.308L176.974 151.421C176.913 151.411 176.853 151.391 176.803 151.371Z" fill="#323232"/>
<path d="M176.973 151.426L181.984 149.312C182.044 149.323 182.105 149.343 182.165 149.353L177.154 151.466C177.093 151.456 177.033 151.446 176.973 151.426Z" fill="#303030"/>
<path d="M177.152 151.461L182.164 149.348C182.224 149.358 182.284 149.368 182.345 149.378L177.333 151.491C177.273 151.491 177.213 151.471 177.152 151.461Z" fill="#2F2F2F"/>
<path d="M177.336 151.496L182.347 149.383C182.347 149.383 182.418 149.383 182.458 149.393L177.447 151.506C177.447 151.506 177.376 151.506 177.336 151.496Z" fill="#2D2D2D"/>
</g>
<mask id="mask10_569_27332" style="mask-type:luminance" maskUnits="userSpaceOnUse" x="177" y="136" width="10" height="16">
<path d="M183.905 149.185L178.894 151.298C180.564 150.594 181.721 148.36 181.641 145.572C181.54 142.05 179.488 138.991 177.062 138.75L182.074 136.637C184.489 136.878 186.541 139.937 186.652 143.459C186.733 146.236 185.575 148.48 183.905 149.185Z" fill="white"/>
</mask>
<g mask="url(#mask10_569_27332)">
<path d="M177.062 138.75L182.074 136.637C182.074 136.637 182.144 136.637 182.184 136.647L177.173 138.76C177.173 138.76 177.103 138.76 177.062 138.75Z" fill="#7C7C7C"/>
<path d="M177.172 138.762L182.183 136.648C182.243 136.648 182.304 136.669 182.364 136.679L177.353 138.792C177.293 138.782 177.232 138.772 177.172 138.762Z" fill="#808080"/>
<path d="M177.355 138.789L182.367 136.676C182.427 136.686 182.487 136.696 182.538 136.716L177.527 138.829C177.466 138.819 177.406 138.799 177.355 138.789Z" fill="#848484"/>
<path d="M177.525 138.828L182.537 136.715C182.597 136.725 182.647 136.745 182.708 136.765L177.696 138.878C177.636 138.858 177.586 138.848 177.525 138.828Z" fill="#888888"/>
<path d="M177.695 138.879L182.706 136.766C182.767 136.786 182.827 136.806 182.878 136.826L177.866 138.939C177.806 138.919 177.746 138.899 177.695 138.879Z" fill="#8C8C8C"/>
<path d="M177.877 138.93L182.888 136.816C182.948 136.837 183.009 136.857 183.059 136.887L178.048 139C177.988 138.98 177.927 138.95 177.877 138.93Z" fill="#909090"/>
<path d="M178.049 139.004L183.06 136.891C183.12 136.921 183.181 136.941 183.241 136.971L178.23 139.084C178.17 139.054 178.109 139.024 178.049 139.004Z" fill="#939393"/>
<path d="M178.23 139.094L183.242 136.98C183.302 137.011 183.362 137.041 183.423 137.081L178.412 139.194C178.351 139.164 178.291 139.124 178.23 139.094Z" fill="#979797"/>
<path d="M178.42 139.183L183.431 137.07C183.502 137.111 183.562 137.151 183.632 137.191L178.621 139.304C178.551 139.264 178.49 139.224 178.42 139.183Z" fill="#9B9B9B"/>
<path d="M178.623 139.301L183.634 137.188C183.705 137.238 183.775 137.278 183.846 137.328L178.834 139.442C178.764 139.391 178.693 139.341 178.623 139.301Z" fill="#9F9F9F"/>
<path d="M178.834 139.453L183.845 137.34C183.926 137.4 184.006 137.461 184.087 137.521L179.075 139.634C178.995 139.574 178.914 139.513 178.834 139.453Z" fill="#A3A3A3"/>
<path d="M179.064 139.633L184.076 137.52C184.176 137.6 184.267 137.681 184.357 137.771L179.346 139.884C179.256 139.794 179.165 139.713 179.064 139.633Z" fill="#A7A7A7"/>
<path d="M179.346 139.887L184.357 137.773C184.478 137.894 184.598 138.015 184.719 138.156L179.708 140.269C179.587 140.138 179.466 140.007 179.346 139.887Z" fill="#ABABAB"/>
<path d="M179.709 140.258L184.72 138.145C185.243 138.738 185.686 139.483 186.018 140.318L181.007 142.431C180.675 141.596 180.232 140.851 179.709 140.258Z" fill="#AFAFAF"/>
<path d="M181.008 142.433L186.019 140.32C186.11 140.562 186.2 140.813 186.271 141.065L181.259 143.178C181.179 142.927 181.098 142.675 181.008 142.433Z" fill="#ABABAB"/>
<path d="M181.258 143.176L186.269 141.062C186.329 141.264 186.38 141.455 186.43 141.666L181.419 143.779C181.369 143.578 181.318 143.377 181.258 143.176Z" fill="#A7A7A7"/>
<path d="M181.42 143.781L186.431 141.668C186.471 141.849 186.502 142.02 186.532 142.201L181.521 144.314C181.49 144.133 181.46 143.952 181.42 143.781Z" fill="#A3A3A3"/>
<path d="M181.521 144.316L186.533 142.203C186.563 142.364 186.583 142.535 186.603 142.706L181.592 144.819C181.572 144.648 181.552 144.487 181.521 144.316Z" fill="#9F9F9F"/>
<path d="M181.592 144.816L186.603 142.703C186.623 142.864 186.633 143.015 186.643 143.176L181.632 145.289C181.632 145.128 181.612 144.977 181.592 144.816Z" fill="#9B9B9B"/>
<path d="M181.631 145.289L186.642 143.176C186.642 143.266 186.642 143.367 186.652 143.458C186.652 143.518 186.652 143.578 186.652 143.629L181.641 145.742C181.641 145.681 181.641 145.621 181.641 145.571C181.641 145.48 181.641 145.379 181.631 145.289Z" fill="#979797"/>
<path d="M181.641 145.742L186.652 143.629C186.652 143.78 186.652 143.921 186.652 144.062L181.641 146.175C181.641 146.034 181.641 145.883 181.641 145.742Z" fill="#939393"/>
<path d="M181.641 146.18L186.652 144.066C186.652 144.207 186.642 144.348 186.632 144.479L181.621 146.592C181.631 146.451 181.641 146.32 181.641 146.18Z" fill="#909090"/>
<path d="M181.611 146.586L186.622 144.473C186.612 144.603 186.592 144.734 186.581 144.865L181.57 146.978C181.59 146.847 181.601 146.717 181.611 146.586Z" fill="#8C8C8C"/>
<path d="M181.57 146.992L186.581 144.879C186.561 145.01 186.541 145.141 186.521 145.261L181.51 147.374C181.53 147.244 181.55 147.123 181.57 146.992Z" fill="#888888"/>
<path d="M181.51 147.375L186.521 145.262C186.501 145.393 186.471 145.513 186.441 145.634L181.43 147.747C181.46 147.626 181.48 147.506 181.51 147.375Z" fill="#848484"/>
<path d="M181.44 147.746L186.451 145.633C186.421 145.754 186.391 145.874 186.361 145.995L181.35 148.108C181.38 147.987 181.41 147.867 181.44 147.746Z" fill="#808080"/>
<path d="M181.339 148.109L186.35 145.996C186.32 146.117 186.28 146.238 186.24 146.348L181.229 148.461C181.269 148.341 181.309 148.23 181.339 148.109Z" fill="#7C7C7C"/>
<path d="M181.228 148.461L186.24 146.348C186.199 146.468 186.159 146.589 186.109 146.7L181.098 148.813C181.148 148.702 181.188 148.582 181.228 148.461Z" fill="#787878"/>
<path d="M181.098 148.812L186.109 146.699C186.059 146.82 186.009 146.941 185.958 147.051L180.947 149.165C180.998 149.054 181.058 148.933 181.098 148.812Z" fill="#747474"/>
<path d="M180.947 149.164L185.958 147.051C185.898 147.172 185.837 147.292 185.777 147.403L180.766 149.516C180.826 149.405 180.896 149.285 180.947 149.164Z" fill="#717171"/>
<path d="M180.755 149.531L185.766 147.418C185.696 147.549 185.615 147.67 185.535 147.78L180.523 149.893C180.604 149.773 180.684 149.652 180.755 149.531Z" fill="#6D6D6D"/>
<path d="M180.534 149.89L185.545 147.777C185.445 147.918 185.344 148.049 185.244 148.18L180.232 150.293C180.343 150.172 180.444 150.031 180.534 149.89Z" fill="#696969"/>
<path d="M180.221 150.293L185.232 148.18C184.85 148.633 184.397 148.975 183.904 149.186L178.893 151.299C179.386 151.088 179.838 150.746 180.221 150.293Z" fill="#656565"/>
</g>
<mask id="mask11_569_27332" style="mask-type:luminance" maskUnits="userSpaceOnUse" x="178" y="149" width="6" height="3">
<path d="M183.886 149.176C183.886 149.176 183.886 149.176 183.896 149.176L178.885 151.289C178.885 151.289 178.885 151.289 178.875 151.289C180.545 150.585 182.216 149.88 183.886 149.176Z" fill="white"/>
</mask>
<g mask="url(#mask11_569_27332)">
<path d="M178.734 151.349L183.746 149.236C183.796 149.216 183.856 149.196 183.907 149.176L178.895 151.289C178.845 151.309 178.785 151.329 178.734 151.349Z" fill="#252525"/>
</g>
<mask id="mask12_569_27332" style="mask-type:luminance" maskUnits="userSpaceOnUse" x="175" y="136" width="8" height="3">
<path d="M175.605 138.955L180.617 136.842C181.069 136.65 181.563 136.57 182.076 136.62L177.065 138.733C176.551 138.683 176.058 138.763 175.605 138.955Z" fill="white"/>
</mask>
<g mask="url(#mask12_569_27332)">
<path d="M175.605 138.951L180.617 136.838C180.667 136.818 180.727 136.797 180.778 136.777L175.766 138.89C175.716 138.911 175.656 138.931 175.605 138.951Z" fill="#656565"/>
<path d="M175.766 138.893L180.777 136.78C180.887 136.74 180.998 136.71 181.109 136.68L176.098 138.793C175.987 138.823 175.876 138.853 175.766 138.893Z" fill="#696969"/>
<path d="M176.098 138.792L181.109 136.679C181.199 136.659 181.28 136.639 181.37 136.629L176.359 138.742C176.269 138.752 176.178 138.772 176.098 138.792Z" fill="#6D6D6D"/>
<path d="M176.369 138.754L181.38 136.641C181.451 136.641 181.521 136.621 181.602 136.621L176.591 138.734C176.52 138.734 176.44 138.744 176.369 138.754Z" fill="#717171"/>
<path d="M176.58 138.734L181.591 136.621C181.662 136.621 181.732 136.621 181.803 136.621L176.791 138.734C176.721 138.734 176.651 138.734 176.58 138.734Z" fill="#747474"/>
<path d="M176.791 138.723L181.802 136.609C181.863 136.609 181.933 136.609 181.993 136.609L176.982 138.723C176.922 138.723 176.851 138.723 176.791 138.723Z" fill="#787878"/>
<path d="M176.984 138.734L181.996 136.621C181.996 136.621 182.046 136.621 182.076 136.621L177.065 138.734C177.065 138.734 177.015 138.734 176.984 138.734Z" fill="#7C7C7C"/>
</g>
<path d="M190.698 144.367C190.698 144.226 190.698 144.085 190.698 143.944C190.698 143.834 190.698 143.733 190.698 143.622C190.698 143.451 190.688 143.27 190.678 143.099C190.668 142.918 190.648 142.737 190.628 142.556C190.628 142.475 190.618 142.395 190.608 142.324C190.608 142.294 190.608 142.254 190.608 142.224C190.577 141.912 190.527 141.6 190.477 141.298C190.477 141.278 190.477 141.258 190.467 141.238C190.447 141.137 190.427 141.036 190.406 140.936C190.366 140.724 190.326 140.513 190.286 140.302C190.276 140.251 190.255 140.201 190.245 140.151C190.205 139.97 190.155 139.789 190.105 139.607C190.064 139.467 190.034 139.316 189.994 139.175C189.984 139.135 189.964 139.094 189.954 139.044C189.823 138.621 189.692 138.219 189.531 137.816C189.531 137.816 189.531 137.796 189.521 137.786C189.37 137.414 189.209 137.052 189.038 136.689C188.988 136.579 188.917 136.468 188.867 136.357C188.746 136.116 188.625 135.884 188.494 135.663C188.424 135.532 188.344 135.411 188.263 135.291C188.142 135.089 188.011 134.898 187.881 134.707C187.79 134.576 187.7 134.465 187.609 134.345C187.478 134.174 187.347 134.003 187.206 133.842C187.166 133.791 187.126 133.731 187.086 133.681C187.025 133.61 186.955 133.55 186.895 133.479C186.774 133.349 186.653 133.218 186.522 133.097C186.472 133.047 186.422 132.986 186.371 132.936C186.281 132.855 186.19 132.775 186.1 132.694C186.039 132.644 185.979 132.584 185.918 132.533C185.888 132.503 185.858 132.473 185.828 132.453C185.677 132.332 185.526 132.211 185.375 132.101C185.345 132.081 185.305 132.05 185.274 132.03C185.244 132.01 185.204 131.98 185.174 131.96C185.103 131.91 185.033 131.859 184.963 131.819C184.832 131.739 184.701 131.658 184.57 131.578C184.54 131.557 184.51 131.547 184.48 131.527C184.459 131.517 184.429 131.497 184.409 131.487C184.349 131.457 184.278 131.417 184.218 131.386C184.097 131.326 183.976 131.276 183.866 131.225C183.805 131.195 183.735 131.175 183.675 131.145C183.654 131.145 183.634 131.125 183.614 131.115C183.584 131.105 183.554 131.095 183.524 131.074C183.413 131.034 183.292 130.994 183.181 130.954C183.071 130.923 182.96 130.883 182.839 130.853C182.829 130.853 182.819 130.853 182.809 130.853C182.799 130.853 182.789 130.853 182.779 130.853C182.688 130.833 182.598 130.813 182.497 130.793C182.376 130.772 182.266 130.752 182.145 130.732C182.075 130.732 182.004 130.712 181.934 130.702C181.883 130.702 181.833 130.702 181.773 130.692C181.642 130.692 181.521 130.672 181.39 130.672C181.34 130.672 181.29 130.672 181.239 130.672C181.199 130.672 181.169 130.672 181.129 130.672C181.078 130.672 181.028 130.672 180.988 130.672C180.847 130.672 180.696 130.692 180.555 130.712C180.535 130.712 180.515 130.712 180.495 130.722C180.444 130.722 180.394 130.742 180.344 130.752C180.243 130.772 180.132 130.783 180.032 130.813C179.982 130.823 179.931 130.843 179.881 130.853C179.78 130.883 179.68 130.903 179.579 130.944C179.519 130.964 179.448 130.974 179.388 130.994C179.277 131.034 179.166 131.074 179.066 131.115L174.055 133.228C174.226 133.157 174.397 133.097 174.568 133.047C174.669 133.016 174.769 132.986 174.87 132.956C175.021 132.916 175.182 132.886 175.333 132.855C175.383 132.855 175.433 132.835 175.484 132.825C175.695 132.795 175.906 132.775 176.118 132.775C176.158 132.775 176.188 132.775 176.228 132.775C176.46 132.775 176.691 132.775 176.923 132.805C177.204 132.835 177.486 132.886 177.768 132.956C177.778 132.956 177.788 132.956 177.798 132.956C178.07 133.027 178.341 133.107 178.603 133.208C178.623 133.208 178.643 133.228 178.663 133.238C178.915 133.338 179.156 133.449 179.408 133.58C179.428 133.59 179.458 133.61 179.478 133.62C179.71 133.751 179.941 133.892 180.173 134.043C180.203 134.063 180.243 134.093 180.273 134.113C180.495 134.264 180.706 134.435 180.917 134.616C180.978 134.667 181.038 134.727 181.098 134.777C181.239 134.908 181.38 135.039 181.521 135.18C181.652 135.301 181.773 135.431 181.893 135.572C182.004 135.693 182.105 135.804 182.205 135.925C182.346 136.086 182.477 136.257 182.608 136.428C182.698 136.548 182.789 136.669 182.88 136.79C183.01 136.971 183.131 137.172 183.262 137.363C183.342 137.484 183.423 137.605 183.493 137.736C183.624 137.957 183.745 138.189 183.866 138.43C183.926 138.541 183.986 138.651 184.037 138.762C184.208 139.114 184.369 139.477 184.52 139.849C184.52 139.859 184.52 139.879 184.53 139.889C184.681 140.282 184.822 140.694 184.952 141.107C185.013 141.288 185.053 141.479 185.103 141.66C185.154 141.841 185.204 142.022 185.244 142.204C185.305 142.455 185.355 142.717 185.405 142.978C185.425 143.079 185.446 143.18 185.466 143.28C185.526 143.643 185.576 144.005 185.617 144.367C185.617 144.448 185.627 144.528 185.637 144.609C185.667 144.961 185.697 145.313 185.707 145.675C185.707 145.927 185.707 146.178 185.707 146.42C185.707 146.52 185.707 146.611 185.707 146.712C185.707 147.003 185.687 147.285 185.657 147.567C185.657 147.587 185.657 147.597 185.657 147.617C185.637 147.889 185.607 148.151 185.566 148.402C185.556 148.493 185.536 148.573 185.526 148.654C185.496 148.845 185.466 149.026 185.425 149.207C185.405 149.298 185.385 149.398 185.365 149.489C185.325 149.67 185.285 149.841 185.244 150.012C185.224 150.093 185.204 150.183 185.184 150.264C185.124 150.475 185.063 150.676 185.003 150.878C184.993 150.918 184.973 150.968 184.963 151.008C184.882 151.25 184.791 151.491 184.691 151.723C184.661 151.803 184.62 151.874 184.59 151.954C184.52 152.105 184.449 152.266 184.379 152.417C184.329 152.528 184.268 152.628 184.218 152.729C184.158 152.85 184.097 152.971 184.027 153.081C183.946 153.222 183.856 153.363 183.765 153.504C183.715 153.584 183.664 153.665 183.614 153.735C183.453 153.977 183.272 154.198 183.091 154.41C183.041 154.47 182.98 154.53 182.93 154.591C182.809 154.732 182.688 154.862 182.558 154.983C182.487 155.054 182.417 155.114 182.346 155.174C182.226 155.285 182.095 155.396 181.974 155.496C181.903 155.557 181.833 155.607 181.753 155.667C181.612 155.768 181.471 155.859 181.33 155.949C181.259 155.989 181.199 156.04 181.129 156.07C180.917 156.191 180.696 156.301 180.475 156.392L185.486 154.279C185.707 154.188 185.929 154.077 186.14 153.957C186.21 153.916 186.271 153.876 186.341 153.836C186.482 153.745 186.623 153.655 186.764 153.554C186.834 153.504 186.915 153.443 186.985 153.383C187.116 153.282 187.237 153.172 187.357 153.061C187.428 153.001 187.498 152.94 187.569 152.87C187.7 152.749 187.82 152.608 187.941 152.477C187.981 152.427 188.032 152.387 188.072 152.347C188.082 152.337 188.092 152.316 188.102 152.306C188.283 152.095 188.454 151.864 188.615 151.632C188.615 151.622 188.635 151.612 188.635 151.602C188.686 151.532 188.726 151.461 188.766 151.391C188.857 151.25 188.947 151.119 189.028 150.968C189.038 150.948 189.058 150.928 189.068 150.908C189.118 150.817 189.169 150.717 189.219 150.616C189.269 150.515 189.33 150.415 189.38 150.304C189.39 150.284 189.4 150.264 189.41 150.244C189.471 150.113 189.531 149.982 189.591 149.841C189.621 149.761 189.662 149.69 189.692 149.62C189.692 149.61 189.702 149.6 189.712 149.59C189.803 149.378 189.883 149.157 189.964 148.925C189.964 148.925 189.964 148.915 189.964 148.905C189.974 148.865 189.994 148.815 190.004 148.774C190.064 148.603 190.115 148.432 190.165 148.261C190.165 148.231 190.185 148.191 190.195 148.161C190.215 148.08 190.235 147.99 190.255 147.909C190.286 147.798 190.316 147.698 190.336 147.587C190.356 147.517 190.366 147.446 190.376 147.376C190.396 147.285 190.416 147.195 190.437 147.094C190.447 147.024 190.467 146.953 190.477 146.883C190.497 146.762 190.517 146.651 190.527 146.53C190.537 146.45 190.557 146.359 190.567 146.279C190.567 146.249 190.577 146.208 190.588 146.178C190.618 145.947 190.638 145.715 190.658 145.484C190.658 145.474 190.658 145.464 190.658 145.444C190.678 145.192 190.698 144.941 190.708 144.679C190.708 144.649 190.708 144.619 190.708 144.588C190.708 144.498 190.708 144.397 190.708 144.307L190.698 144.367Z" fill="#6742CF"/>
<path d="M176.956 132.742C181.652 133.219 185.627 139.04 185.82 145.733C186.013 152.437 182.362 157.467 177.656 156.991C172.95 156.514 168.985 150.703 168.792 143.999C168.6 137.306 172.241 132.265 176.956 132.742ZM177.504 151.555C179.938 151.798 181.845 149.121 181.743 145.571C181.642 142.022 179.573 138.939 177.129 138.695C174.685 138.452 172.788 141.129 172.89 144.669C172.991 148.208 175.06 151.301 177.504 151.555Z" fill="#1F123B"/>
<path d="M177.129 138.692C179.563 138.936 181.631 142.019 181.743 145.568C181.855 149.118 179.948 151.805 177.504 151.552C175.06 151.298 173.001 148.225 172.889 144.666C172.778 141.106 174.684 138.439 177.129 138.692Z" fill="#B496F2"/>
<mask id="mask13_569_27332" style="mask-type:luminance" maskUnits="userSpaceOnUse" x="236" y="182" width="7" height="3">
<path d="M241.294 182.239C241.798 182.289 242.291 182.219 242.733 182.027C241.063 182.732 239.393 183.436 237.722 184.14C237.279 184.322 236.786 184.402 236.283 184.352C237.783 183.718 239.674 182.48 241.294 182.239Z" fill="white"/>
</mask>
<g mask="url(#mask13_569_27332)">
<path d="M236.291 184.348L241.302 182.234C241.302 182.234 241.352 182.234 241.383 182.234L236.372 184.348C236.372 184.348 236.321 184.348 236.291 184.348Z" fill="#2D2D2D"/>
<path d="M236.373 184.351L241.384 182.238C241.445 182.238 241.515 182.238 241.575 182.238L236.564 184.351C236.504 184.351 236.433 184.351 236.373 184.351Z" fill="#2C2C2C"/>
<path d="M236.562 184.363L241.574 182.25C241.644 182.25 241.715 182.25 241.785 182.25L236.774 184.363C236.703 184.363 236.633 184.363 236.562 184.363Z" fill="#2B2B2B"/>
<path d="M236.764 184.356L241.775 182.243C241.845 182.243 241.916 182.233 241.996 182.223L236.985 184.336C236.915 184.336 236.844 184.356 236.764 184.356Z" fill="#292929"/>
<path d="M236.986 184.335L241.997 182.222C242.088 182.212 242.179 182.192 242.259 182.172L237.248 184.285C237.157 184.305 237.077 184.325 236.986 184.335Z" fill="#282828"/>
<path d="M237.248 184.284L242.259 182.171C242.37 182.141 242.481 182.111 242.591 182.07L237.58 184.183C237.469 184.224 237.359 184.254 237.248 184.284Z" fill="#262626"/>
<path d="M237.578 184.193L242.589 182.08C242.64 182.06 242.7 182.04 242.75 182.02L237.739 184.133C237.689 184.153 237.628 184.173 237.578 184.193Z" fill="#252525"/>
</g>
<mask id="mask14_569_27332" style="mask-type:luminance" maskUnits="userSpaceOnUse" x="231" y="169" width="11" height="16">
<path d="M236.726 175.413C236.827 178.945 238.879 181.994 241.305 182.246L236.293 184.359C233.868 184.107 231.826 181.058 231.715 177.526C233.385 176.822 235.056 176.117 236.726 175.413C235.056 176.117 233.385 176.822 231.715 177.516C231.634 174.749 232.782 172.505 234.462 171.801L239.473 169.688C237.793 170.392 236.646 172.626 236.726 175.403V175.413Z" fill="white"/>
</mask>
<g mask="url(#mask14_569_27332)">
<path d="M234.465 171.808L239.476 169.695C238.983 169.907 238.53 170.249 238.148 170.702L233.137 172.815C233.519 172.362 233.972 172.02 234.465 171.808Z" fill="#252525"/>
<path d="M233.126 172.805L238.137 170.691C238.027 170.812 237.926 170.953 237.835 171.094L232.824 173.207C232.925 173.066 233.025 172.935 233.126 172.805Z" fill="#262626"/>
<path d="M232.823 173.207L237.834 171.094C237.754 171.215 237.683 171.335 237.603 171.456L232.592 173.569C232.662 173.438 232.743 173.318 232.823 173.207Z" fill="#282828"/>
<path d="M232.593 173.57L237.604 171.457C237.544 171.568 237.474 171.688 237.423 171.809L232.412 173.922C232.472 173.802 232.533 173.681 232.593 173.57Z" fill="#292929"/>
<path d="M232.411 173.922L237.422 171.809C237.372 171.919 237.311 172.04 237.271 172.161L232.26 174.274C232.31 174.153 232.36 174.032 232.411 173.922Z" fill="#2B2B2B"/>
<path d="M232.262 174.269L237.273 172.156C237.223 172.267 237.182 172.388 237.142 172.508L232.131 174.622C232.171 174.501 232.211 174.38 232.262 174.269Z" fill="#2C2C2C"/>
<path d="M232.128 174.625L237.139 172.512C237.099 172.632 237.059 172.743 237.029 172.864L232.018 174.977C232.048 174.856 232.088 174.736 232.128 174.625Z" fill="#2D2D2D"/>
<path d="M232.018 174.98L237.029 172.867C236.999 172.988 236.969 173.109 236.939 173.229L231.928 175.343C231.958 175.222 231.988 175.101 232.018 174.98Z" fill="#2F2F2F"/>
<path d="M231.918 175.34L236.93 173.227C236.899 173.347 236.879 173.468 236.849 173.599L231.838 175.712C231.858 175.581 231.888 175.46 231.918 175.34Z" fill="#303030"/>
<path d="M231.847 175.711L236.859 173.598C236.839 173.728 236.818 173.849 236.798 173.98L231.787 176.093C231.807 175.962 231.827 175.832 231.847 175.711Z" fill="#323232"/>
<path d="M231.788 176.094L236.799 173.98C236.779 174.111 236.769 174.242 236.759 174.373L231.748 176.486C231.758 176.355 231.778 176.224 231.788 176.094Z" fill="#333333"/>
<path d="M231.747 176.5L236.758 174.387C236.748 174.528 236.738 174.658 236.738 174.799L231.727 176.912C231.727 176.772 231.737 176.631 231.747 176.5Z" fill="#353535"/>
<path d="M231.717 176.91L236.728 174.797C236.728 174.938 236.728 175.089 236.728 175.23L231.717 177.343C231.717 177.192 231.717 177.051 231.717 176.91Z" fill="#363636"/>
<path d="M231.717 177.344L236.728 175.23C236.728 175.291 236.728 175.351 236.728 175.402C236.728 175.492 236.728 175.593 236.738 175.683L231.727 177.796C231.727 177.706 231.727 177.605 231.717 177.515C231.717 177.454 231.717 177.394 231.717 177.344Z" fill="#373737"/>
<path d="M231.727 177.797L236.738 175.684C236.738 175.845 236.758 176.006 236.778 176.157L231.767 178.27C231.747 178.109 231.737 177.958 231.727 177.797Z" fill="#393939"/>
<path d="M231.768 178.281L236.779 176.168C236.799 176.339 236.819 176.5 236.849 176.671L231.838 178.784C231.808 178.623 231.788 178.452 231.768 178.281Z" fill="#3A3A3A"/>
<path d="M231.838 178.781L236.849 176.668C236.879 176.849 236.909 177.03 236.95 177.211L231.939 179.324C231.898 179.143 231.868 178.962 231.838 178.781Z" fill="#3C3C3C"/>
<path d="M231.938 179.316L236.949 177.203C236.999 177.404 237.049 177.606 237.11 177.807L232.099 179.92C232.038 179.719 231.988 179.518 231.938 179.316Z" fill="#3D3D3D"/>
<path d="M232.1 179.918L237.111 177.805C237.191 178.056 237.272 178.308 237.372 178.549L232.361 180.662C232.271 180.421 232.18 180.169 232.1 179.918Z" fill="#3E3E3E"/>
<path d="M232.359 180.664L237.371 178.551C237.703 179.386 238.145 180.121 238.659 180.714L233.647 182.827C233.124 182.234 232.681 181.499 232.359 180.664Z" fill="#404040"/>
<path d="M233.648 182.836L238.66 180.723C238.78 180.853 238.901 180.984 239.022 181.095L234.011 183.208C233.89 183.087 233.769 182.967 233.648 182.836Z" fill="#3E3E3E"/>
<path d="M234.012 183.211L239.023 181.098C239.113 181.188 239.204 181.269 239.305 181.349L234.293 183.462C234.203 183.382 234.102 183.301 234.012 183.211Z" fill="#3D3D3D"/>
<path d="M234.291 183.461L239.302 181.348C239.383 181.408 239.463 181.468 239.544 181.529L234.533 183.642C234.452 183.582 234.372 183.521 234.291 183.461Z" fill="#3C3C3C"/>
<path d="M234.525 183.644L239.537 181.531C239.607 181.582 239.677 181.632 239.748 181.672L234.737 183.785C234.666 183.745 234.596 183.695 234.525 183.644Z" fill="#3A3A3A"/>
<path d="M234.736 183.785L239.747 181.672C239.818 181.712 239.878 181.752 239.949 181.793L234.938 183.906C234.867 183.866 234.807 183.825 234.736 183.785Z" fill="#393939"/>
<path d="M234.936 183.902L239.947 181.789C240.007 181.819 240.067 181.859 240.128 181.89L235.117 184.003C235.056 183.973 234.996 183.942 234.936 183.902Z" fill="#373737"/>
<path d="M235.119 184.004L240.13 181.891C240.191 181.921 240.251 181.951 240.311 181.971L235.3 184.084C235.24 184.054 235.18 184.034 235.119 184.004Z" fill="#363636"/>
<path d="M235.311 184.082L240.322 181.969C240.382 181.989 240.442 182.019 240.493 182.039L235.482 184.152C235.421 184.132 235.361 184.112 235.311 184.082Z" fill="#353535"/>
<path d="M235.48 184.156L240.492 182.043C240.552 182.063 240.612 182.083 240.663 182.103L235.652 184.216C235.591 184.196 235.531 184.176 235.48 184.156Z" fill="#333333"/>
<path d="M235.65 184.219L240.662 182.105C240.722 182.126 240.772 182.136 240.833 182.156L235.821 184.269C235.761 184.259 235.701 184.239 235.65 184.219Z" fill="#323232"/>
<path d="M235.832 184.265L240.843 182.152C240.904 182.162 240.964 182.183 241.024 182.193L236.013 184.306C235.953 184.296 235.892 184.286 235.832 184.265Z" fill="#303030"/>
<path d="M236.004 184.308L241.015 182.195C241.075 182.205 241.136 182.215 241.196 182.225L236.185 184.339C236.125 184.339 236.064 184.319 236.004 184.308Z" fill="#2F2F2F"/>
<path d="M236.186 184.336L241.197 182.223C241.197 182.223 241.267 182.223 241.307 182.233L236.296 184.346C236.296 184.346 236.226 184.346 236.186 184.336Z" fill="#2D2D2D"/>
</g>
<mask id="mask15_569_27332" style="mask-type:luminance" maskUnits="userSpaceOnUse" x="235" y="169" width="11" height="16">
<path d="M242.751 182.013L237.74 184.126C239.41 183.422 240.567 181.188 240.487 178.4C240.386 174.879 238.333 171.819 235.908 171.578L240.919 169.465C243.334 169.706 245.387 172.765 245.498 176.287C245.578 179.065 244.421 181.309 242.751 182.013Z" fill="white"/>
</mask>
<g mask="url(#mask15_569_27332)">
<path d="M235.92 171.578L240.931 169.465C240.931 169.465 241.002 169.465 241.042 169.475L236.031 171.588C236.031 171.588 235.96 171.588 235.92 171.578Z" fill="#7C7C7C"/>
<path d="M236.021 171.59L241.033 169.477C241.093 169.477 241.153 169.497 241.214 169.507L236.203 171.62C236.142 171.61 236.082 171.6 236.021 171.59Z" fill="#808080"/>
<path d="M236.201 171.617L241.212 169.504C241.273 169.514 241.333 169.524 241.383 169.544L236.372 171.657C236.312 171.647 236.251 171.627 236.201 171.617Z" fill="#848484"/>
<path d="M236.383 171.656L241.394 169.543C241.454 169.553 241.505 169.573 241.565 169.593L236.554 171.706C236.494 171.686 236.443 171.676 236.383 171.656Z" fill="#888888"/>
<path d="M236.553 171.707L241.564 169.594C241.624 169.614 241.685 169.634 241.735 169.654L236.724 171.767C236.663 171.747 236.603 171.727 236.553 171.707Z" fill="#8C8C8C"/>
<path d="M236.725 171.769L241.736 169.656C241.796 169.676 241.857 169.697 241.907 169.727L236.896 171.84C236.835 171.82 236.775 171.79 236.725 171.769Z" fill="#909090"/>
<path d="M236.895 171.84L241.906 169.727C241.966 169.757 242.026 169.777 242.087 169.807L237.076 171.92C237.015 171.89 236.955 171.86 236.895 171.84Z" fill="#939393"/>
<path d="M237.078 171.922L242.089 169.809C242.15 169.839 242.21 169.869 242.27 169.909L237.259 172.022C237.199 171.992 237.139 171.952 237.078 171.922Z" fill="#979797"/>
<path d="M237.27 172.019L242.281 169.906C242.351 169.947 242.412 169.987 242.482 170.027L237.471 172.14C237.4 172.1 237.34 172.06 237.27 172.019Z" fill="#9B9B9B"/>
<path d="M237.469 172.14L242.48 170.027C242.55 170.078 242.621 170.118 242.691 170.168L237.68 172.281C237.61 172.231 237.539 172.181 237.469 172.14Z" fill="#9F9F9F"/>
<path d="M237.68 172.281L242.691 170.168C242.771 170.228 242.852 170.289 242.932 170.349L237.921 172.462C237.841 172.402 237.76 172.341 237.68 172.281Z" fill="#A3A3A3"/>
<path d="M237.914 172.461L242.925 170.348C243.026 170.428 243.116 170.509 243.207 170.599L238.196 172.712C238.105 172.622 238.015 172.541 237.914 172.461Z" fill="#A7A7A7"/>
<path d="M238.193 172.715L243.205 170.602C243.325 170.722 243.446 170.843 243.567 170.984L238.556 173.097C238.435 172.966 238.314 172.835 238.193 172.715Z" fill="#ABABAB"/>
<path d="M238.557 173.098L243.568 170.984C244.091 171.578 244.534 172.323 244.866 173.158L239.855 175.271C239.523 174.436 239.08 173.691 238.557 173.098Z" fill="#AFAFAF"/>
<path d="M239.854 175.273L244.865 173.16C244.955 173.402 245.046 173.653 245.116 173.905L240.105 176.018C240.025 175.766 239.944 175.515 239.854 175.273Z" fill="#ABABAB"/>
<path d="M240.115 176.015L245.126 173.902C245.187 174.104 245.237 174.295 245.287 174.506L240.276 176.619C240.226 176.418 240.176 176.217 240.115 176.015Z" fill="#A7A7A7"/>
<path d="M240.268 176.609L245.279 174.496C245.319 174.677 245.349 174.848 245.379 175.029L240.368 177.143C240.338 176.961 240.308 176.78 240.268 176.609Z" fill="#A3A3A3"/>
<path d="M240.367 177.148L245.378 175.035C245.409 175.196 245.429 175.367 245.449 175.538L240.438 177.651C240.418 177.48 240.397 177.319 240.367 177.148Z" fill="#9F9F9F"/>
<path d="M240.438 177.644L245.449 175.531C245.469 175.692 245.479 175.843 245.489 176.004L240.478 178.117C240.478 177.956 240.458 177.805 240.438 177.644Z" fill="#9B9B9B"/>
<path d="M240.479 178.117L245.49 176.004C245.49 176.094 245.49 176.195 245.5 176.286C245.5 176.346 245.5 176.406 245.5 176.457L240.489 178.57C240.489 178.509 240.489 178.449 240.489 178.399C240.489 178.308 240.489 178.208 240.479 178.117Z" fill="#979797"/>
<path d="M240.498 178.582L245.509 176.469C245.509 176.62 245.509 176.761 245.509 176.901L240.498 179.015C240.498 178.874 240.498 178.723 240.498 178.582Z" fill="#939393"/>
<path d="M240.489 179.012L245.5 176.898C245.5 177.039 245.49 177.18 245.48 177.311L240.469 179.424C240.479 179.283 240.489 179.152 240.489 179.012Z" fill="#909090"/>
<path d="M240.468 179.43L245.479 177.316C245.469 177.447 245.449 177.578 245.439 177.709L240.428 179.822C240.448 179.691 240.458 179.56 240.468 179.43Z" fill="#8C8C8C"/>
<path d="M240.418 179.82L245.429 177.707C245.409 177.838 245.389 177.969 245.369 178.089L240.357 180.203C240.378 180.072 240.398 179.951 240.418 179.82Z" fill="#888888"/>
<path d="M240.368 180.203L245.379 178.09C245.359 178.221 245.328 178.341 245.298 178.462L240.287 180.575C240.317 180.455 240.337 180.334 240.368 180.203Z" fill="#848484"/>
<path d="M240.286 180.574L245.297 178.461C245.267 178.582 245.237 178.702 245.206 178.823L240.195 180.936C240.226 180.816 240.256 180.695 240.286 180.574Z" fill="#808080"/>
<path d="M240.197 180.937L245.208 178.824C245.178 178.945 245.137 179.066 245.097 179.176L240.086 181.29C240.126 181.169 240.166 181.058 240.197 180.937Z" fill="#7C7C7C"/>
<path d="M240.086 181.301L245.097 179.188C245.057 179.308 245.017 179.429 244.966 179.54L239.955 181.653C240.005 181.542 240.046 181.421 240.086 181.301Z" fill="#787878"/>
<path d="M239.956 181.648L244.967 179.535C244.916 179.656 244.866 179.777 244.816 179.887L239.805 182C239.855 181.89 239.915 181.769 239.956 181.648Z" fill="#747474"/>
<path d="M239.794 182.004L244.806 179.891C244.745 180.011 244.685 180.132 244.624 180.243L239.613 182.356C239.674 182.245 239.744 182.125 239.794 182.004Z" fill="#717171"/>
<path d="M239.612 182.359L244.623 180.246C244.553 180.377 244.473 180.498 244.392 180.608L239.381 182.721C239.461 182.601 239.542 182.48 239.612 182.359Z" fill="#6D6D6D"/>
<path d="M239.382 182.719L244.393 180.605C244.292 180.746 244.192 180.877 244.091 181.008L239.08 183.121C239.191 183 239.291 182.859 239.382 182.719Z" fill="#696969"/>
<path d="M239.078 183.121L244.089 181.008C243.707 181.461 243.254 181.803 242.761 182.014L237.75 184.127C238.243 183.916 238.696 183.574 239.078 183.121Z" fill="#656565"/>
</g>
<mask id="mask16_569_27332" style="mask-type:luminance" maskUnits="userSpaceOnUse" x="237" y="182" width="6" height="3">
<path d="M242.732 182.027C242.732 182.027 242.732 182.027 242.742 182.027L237.731 184.14C237.731 184.14 237.731 184.14 237.721 184.14C239.391 183.436 241.061 182.732 242.732 182.027Z" fill="white"/>
</mask>
<g mask="url(#mask16_569_27332)">
<path d="M237.58 184.193L242.591 182.08C242.642 182.06 242.702 182.04 242.752 182.02L237.741 184.133C237.691 184.153 237.63 184.173 237.58 184.193Z" fill="#252525"/>
</g>
<path d="M249.554 177.219C249.554 177.078 249.554 176.937 249.554 176.796C249.554 176.685 249.554 176.585 249.554 176.474C249.554 176.303 249.544 176.122 249.534 175.951C249.523 175.77 249.503 175.588 249.483 175.407C249.483 175.327 249.473 175.246 249.463 175.176C249.463 175.146 249.463 175.105 249.463 175.075C249.433 174.763 249.383 174.451 249.332 174.15C249.332 174.129 249.332 174.109 249.322 174.089C249.302 173.989 249.282 173.888 249.262 173.787C249.222 173.576 249.181 173.365 249.141 173.153C249.131 173.103 249.111 173.053 249.101 173.002C249.061 172.821 249.01 172.64 248.96 172.459C248.92 172.318 248.89 172.167 248.849 172.026C248.839 171.986 248.819 171.946 248.809 171.896C248.678 171.473 248.547 171.07 248.386 170.668C248.386 170.668 248.386 170.648 248.376 170.638C248.225 170.265 248.064 169.903 247.893 169.541C247.843 169.43 247.773 169.319 247.722 169.209C247.602 168.967 247.481 168.736 247.35 168.514C247.28 168.384 247.199 168.263 247.119 168.142C246.998 167.941 246.867 167.75 246.736 167.559C246.646 167.428 246.555 167.317 246.464 167.196C246.334 167.025 246.203 166.854 246.062 166.693C246.022 166.643 245.981 166.582 245.941 166.532C245.881 166.462 245.81 166.401 245.75 166.331C245.629 166.2 245.509 166.069 245.378 165.949C245.327 165.898 245.277 165.838 245.227 165.788C245.136 165.707 245.046 165.627 244.955 165.546C244.895 165.496 244.834 165.435 244.774 165.385C244.744 165.355 244.714 165.325 244.683 165.305C244.532 165.184 244.381 165.063 244.231 164.952C244.2 164.932 244.16 164.902 244.13 164.882C244.1 164.862 244.059 164.832 244.029 164.811C243.959 164.761 243.888 164.711 243.818 164.671C243.687 164.59 243.556 164.51 243.426 164.429C243.395 164.409 243.365 164.399 243.335 164.379C243.315 164.369 243.285 164.349 243.265 164.339C243.204 164.308 243.134 164.268 243.073 164.238C242.953 164.178 242.832 164.127 242.721 164.077C242.661 164.047 242.59 164.027 242.53 163.996C242.51 163.996 242.49 163.976 242.47 163.966C242.439 163.956 242.409 163.946 242.379 163.926C242.268 163.886 242.148 163.845 242.037 163.805C241.926 163.775 241.816 163.735 241.695 163.705C241.685 163.705 241.675 163.705 241.665 163.705C241.655 163.705 241.644 163.705 241.634 163.705C241.544 163.684 241.453 163.664 241.353 163.644C241.232 163.624 241.121 163.604 241 163.584C240.93 163.584 240.86 163.564 240.789 163.554C240.739 163.554 240.689 163.554 240.628 163.544C240.497 163.544 240.377 163.523 240.246 163.523C240.195 163.523 240.145 163.523 240.095 163.523C240.055 163.523 240.024 163.523 239.984 163.523C239.934 163.523 239.884 163.523 239.843 163.523C239.702 163.523 239.551 163.544 239.411 163.564C239.39 163.564 239.37 163.564 239.35 163.574C239.3 163.574 239.25 163.594 239.199 163.604C239.099 163.624 238.988 163.634 238.887 163.664C238.837 163.674 238.787 163.695 238.736 163.705C238.636 163.735 238.535 163.755 238.435 163.795C238.374 163.815 238.304 163.825 238.243 163.845C238.133 163.886 238.022 163.926 237.921 163.966L232.91 166.079C233.081 166.009 233.252 165.949 233.423 165.898C233.524 165.868 233.625 165.838 233.725 165.808C233.876 165.767 234.037 165.737 234.188 165.707C234.238 165.707 234.289 165.687 234.339 165.677C234.55 165.647 234.762 165.627 234.973 165.627C235.013 165.627 235.043 165.627 235.084 165.627C235.315 165.627 235.547 165.627 235.778 165.657C236.06 165.687 236.341 165.737 236.623 165.808C236.633 165.808 236.643 165.808 236.653 165.808C236.925 165.878 237.197 165.959 237.458 166.059C237.479 166.059 237.499 166.079 237.519 166.089C237.77 166.19 238.012 166.301 238.263 166.432C238.284 166.442 238.314 166.462 238.334 166.472C238.565 166.603 238.797 166.743 239.028 166.894C239.058 166.915 239.099 166.945 239.129 166.965C239.35 167.116 239.562 167.287 239.773 167.468C239.833 167.518 239.894 167.579 239.954 167.629C240.095 167.76 240.236 167.891 240.377 168.031C240.507 168.152 240.628 168.283 240.749 168.424C240.86 168.545 240.96 168.655 241.061 168.776C241.202 168.937 241.333 169.108 241.463 169.279C241.554 169.4 241.644 169.521 241.735 169.641C241.866 169.823 241.987 170.024 242.117 170.215C242.198 170.336 242.278 170.457 242.349 170.587C242.48 170.809 242.6 171.04 242.721 171.282C242.782 171.392 242.842 171.503 242.892 171.614C243.063 171.966 243.224 172.328 243.375 172.701C243.375 172.711 243.375 172.731 243.385 172.741C243.536 173.133 243.677 173.546 243.808 173.958C243.868 174.139 243.909 174.331 243.959 174.512C244.009 174.693 244.059 174.874 244.1 175.055C244.16 175.307 244.21 175.568 244.261 175.83C244.281 175.931 244.301 176.031 244.321 176.132C244.381 176.494 244.432 176.856 244.472 177.219C244.472 177.299 244.482 177.38 244.492 177.46C244.522 177.812 244.553 178.164 244.563 178.527C244.563 178.778 244.563 179.03 244.563 179.271C244.563 179.372 244.563 179.463 244.563 179.563C244.563 179.855 244.542 180.137 244.512 180.419C244.512 180.439 244.512 180.449 244.512 180.469C244.492 180.741 244.462 181.002 244.422 181.254C244.412 181.344 244.392 181.425 244.381 181.505C244.351 181.696 244.321 181.878 244.281 182.059C244.261 182.149 244.241 182.25 244.22 182.34C244.18 182.522 244.14 182.693 244.1 182.864C244.08 182.944 244.059 183.035 244.039 183.115C243.979 183.327 243.919 183.528 243.858 183.729C243.848 183.769 243.828 183.82 243.818 183.86C243.737 184.101 243.647 184.343 243.546 184.574C243.516 184.655 243.476 184.725 243.446 184.806C243.375 184.957 243.305 185.118 243.234 185.269C243.184 185.379 243.124 185.48 243.073 185.581C243.013 185.701 242.953 185.822 242.882 185.933C242.802 186.074 242.711 186.215 242.621 186.355C242.57 186.436 242.52 186.516 242.47 186.587C242.309 186.828 242.127 187.05 241.946 187.261C241.896 187.321 241.836 187.382 241.785 187.442C241.665 187.583 241.544 187.714 241.413 187.835C241.343 187.905 241.272 187.965 241.202 188.026C241.081 188.137 240.95 188.247 240.829 188.348C240.759 188.408 240.689 188.459 240.608 188.519C240.467 188.62 240.326 188.71 240.185 188.801C240.115 188.841 240.055 188.891 239.984 188.921C239.773 189.042 239.551 189.153 239.33 189.243L244.341 187.13C244.563 187.04 244.784 186.929 244.995 186.808C245.066 186.768 245.126 186.728 245.197 186.688C245.337 186.597 245.478 186.506 245.619 186.406C245.69 186.355 245.77 186.295 245.841 186.235C245.971 186.134 246.092 186.023 246.213 185.913C246.283 185.852 246.354 185.792 246.424 185.721C246.555 185.601 246.676 185.46 246.797 185.329C246.837 185.279 246.887 185.238 246.927 185.198C246.937 185.188 246.947 185.168 246.958 185.158C247.139 184.947 247.31 184.715 247.471 184.484C247.471 184.474 247.491 184.464 247.491 184.454C247.541 184.383 247.581 184.313 247.622 184.242C247.712 184.101 247.803 183.971 247.883 183.82C247.893 183.8 247.913 183.779 247.924 183.759C247.974 183.669 248.024 183.568 248.074 183.467C248.125 183.367 248.185 183.266 248.235 183.156C248.246 183.135 248.256 183.115 248.266 183.095C248.326 182.964 248.386 182.834 248.447 182.693C248.477 182.612 248.517 182.542 248.547 182.471C248.547 182.461 248.557 182.451 248.568 182.441C248.658 182.23 248.739 182.008 248.819 181.777C248.819 181.777 248.819 181.767 248.819 181.757C248.829 181.717 248.849 181.666 248.859 181.626C248.92 181.455 248.97 181.284 249.02 181.113C249.02 181.083 249.04 181.042 249.051 181.012C249.071 180.932 249.091 180.841 249.111 180.761C249.141 180.65 249.171 180.549 249.191 180.439C249.212 180.368 249.222 180.298 249.232 180.227C249.252 180.137 249.272 180.046 249.292 179.946C249.302 179.875 249.322 179.805 249.332 179.734C249.352 179.614 249.373 179.503 249.383 179.382C249.393 179.302 249.413 179.211 249.423 179.131C249.423 179.1 249.433 179.06 249.443 179.03C249.473 178.798 249.493 178.567 249.513 178.336C249.513 178.325 249.513 178.315 249.513 178.295C249.534 178.044 249.554 177.792 249.564 177.531C249.564 177.5 249.564 177.47 249.564 177.44C249.564 177.349 249.564 177.249 249.564 177.158L249.554 177.219Z" fill="#6742CF"/>
<path d="M235.791 165.687C240.475 166.16 244.441 171.936 244.633 178.577C244.826 185.229 241.183 190.22 236.489 189.747C231.794 189.274 227.838 183.508 227.646 176.857C227.454 170.215 231.086 165.214 235.791 165.687ZM236.337 184.353C238.765 184.595 240.667 181.938 240.566 178.416C240.465 174.894 238.401 171.835 235.963 171.594C233.524 171.352 231.632 174.009 231.733 177.521C231.835 181.033 233.899 184.102 236.337 184.353Z" fill="#1F123B"/>
<path d="M235.964 171.587C238.392 171.828 240.456 174.887 240.568 178.409C240.679 181.931 238.777 184.598 236.339 184.346C233.9 184.095 231.846 181.046 231.735 177.514C231.624 173.982 233.526 171.335 235.964 171.587Z" fill="#B496F2"/>
<g clip-path="url(#clip0_569_27332)">
<mask id="mask17_569_27332" style="mask-type:luminance" maskUnits="userSpaceOnUse" x="209" y="124" width="50" height="29">
<path d="M209.873 131.547L221.586 124.734L258.254 145.906L246.531 152.708L209.873 131.547Z" fill="white"/>
</mask>
<g mask="url(#mask17_569_27332)">
<path d="M218.145 129.524L222.029 127.27L223.73 128.256C225.149 129.081 225.068 129.937 223.911 130.601C222.754 131.275 221.265 131.345 219.836 130.52L218.135 129.534M226.145 127.371L221.587 124.734L210.045 131.446L212.45 132.835L216.213 130.651L218.296 131.859C220.973 133.408 224.092 133.368 226.397 132.03C228.701 130.691 228.771 128.89 226.135 127.371" fill="#B496F2"/>
<path d="M223.61 136.356C223.61 136.356 223.61 136.356 223.6 136.356C223.6 136.356 223.6 136.356 223.59 136.356C222.845 135.923 221.648 135.923 220.933 136.356C220.179 136.778 220.189 137.483 220.933 137.915C221.678 138.348 222.865 138.338 223.6 137.905C224.334 137.473 224.314 136.788 223.6 136.376" fill="#B496F2"/>
<path d="M232.465 137.795L236.349 135.541L238.05 136.527C239.469 137.353 239.398 138.208 238.241 138.872C237.084 139.546 235.585 139.607 234.166 138.792L232.465 137.805M240.475 135.642L235.917 133.016L224.375 139.727L226.78 141.116L230.543 138.932L232.636 140.14C235.313 141.69 238.442 141.659 240.747 140.321C243.051 138.983 243.122 137.182 240.485 135.662" fill="#B496F2"/>
<path d="M248.473 140.251L246.098 138.883L234.557 145.595L236.921 146.963L248.473 140.251Z" fill="#B496F2"/>
<path d="M249.671 146.207C249.671 146.207 249.671 146.207 249.681 146.207C250.737 146.811 250.707 147.676 249.671 148.28L245.968 146.137C247.004 145.583 248.574 145.563 249.661 146.187C249.661 146.187 249.661 146.187 249.671 146.187M251.391 145.131C248.846 143.662 245.374 143.752 242.707 145.302C239.96 146.892 239.88 148.834 242.546 150.383C244.7 151.621 247.185 151.852 249.117 151.108L246.853 149.8C246.098 149.971 245.173 149.84 244.358 149.377C243.14 148.663 243.17 147.747 244.468 146.992L250.415 150.424L251.089 150.031C254.038 148.321 253.676 146.449 251.391 145.121" fill="#B496F2"/>
</g>
</g>
<defs>
<clipPath id="clip0_569_27332">
<rect width="51.6814" height="27.974" fill="white" transform="translate(208.223 124.734)"/>
</clipPath>
</defs>
</svg>
