<svg width="351" height="234" viewBox="0 0 351 234" fill="none" xmlns="http://www.w3.org/2000/svg">
<rect x="0.6875" y="0.201172" width="350" height="233" fill="#33837E"/>
<path d="M198.043 107.43L303.284 165.235L266.45 192.274L166.667 134.694L161.972 131.367L160.855 128.837L198.043 107.43Z" fill="#1F1F1F"/>
<path d="M156.274 116.006C151.477 123.078 161.108 131.377 166.57 134.655L187.859 119.968C187.859 119.968 184.697 118.117 182.01 116.212C179.945 114.747 176.048 111.941 173.336 110.85C169.351 109.433 161.07 108.934 156.274 116.006Z" fill="#1F1F1F"/>
<mask id="mask0_569_27159" style="mask-type:luminance" maskUnits="userSpaceOnUse" x="218" y="118" width="8" height="3">
<path d="M223.817 118.247C224.328 118.298 224.828 118.227 225.276 118.033C223.583 118.747 221.889 119.462 220.195 120.176C219.746 120.359 219.246 120.441 218.736 120.39C220.257 119.747 222.175 118.492 223.817 118.247Z" fill="white"/>
</mask>
<g mask="url(#mask0_569_27159)">
<path d="M218.736 120.385L223.817 118.242C223.817 118.242 223.868 118.242 223.899 118.242L218.818 120.385C218.818 120.385 218.767 120.385 218.736 120.385Z" fill="#2D2D2D"/>
<path d="M218.818 120.393L223.899 118.25C223.961 118.25 224.032 118.25 224.093 118.25L219.012 120.393C218.951 120.393 218.88 120.393 218.818 120.393Z" fill="#2C2C2C"/>
<path d="M219.012 120.404L224.093 118.262C224.164 118.262 224.236 118.262 224.307 118.262L219.226 120.404C219.155 120.404 219.083 120.404 219.012 120.404Z" fill="#2B2B2B"/>
<path d="M219.227 120.405L224.308 118.263C224.379 118.263 224.451 118.252 224.532 118.242L219.451 120.385C219.38 120.385 219.308 120.405 219.227 120.405Z" fill="#292929"/>
<path d="M219.441 120.373L224.523 118.231C224.614 118.22 224.706 118.2 224.788 118.18L219.707 120.322C219.615 120.343 219.533 120.363 219.441 120.373Z" fill="#282828"/>
<path d="M219.715 120.333L224.796 118.19C224.908 118.159 225.02 118.129 225.133 118.088L220.052 120.231C219.939 120.271 219.827 120.302 219.715 120.333Z" fill="#262626"/>
<path d="M220.041 120.229L225.122 118.087C225.173 118.066 225.234 118.046 225.285 118.025L220.204 120.168C220.153 120.188 220.092 120.209 220.041 120.229Z" fill="#252525"/>
</g>
<mask id="mask1_569_27159" style="mask-type:luminance" maskUnits="userSpaceOnUse" x="214" y="105" width="10" height="16">
<path d="M219.175 111.323C219.277 114.904 221.358 117.996 223.817 118.251L218.736 120.394C216.277 120.139 214.206 117.047 214.094 113.466C215.788 112.752 217.481 112.037 219.175 111.323C217.481 112.037 215.788 112.752 214.094 113.456C214.012 110.65 215.175 108.374 216.879 107.66L221.96 105.518C220.257 106.232 219.093 108.497 219.175 111.313V111.323Z" fill="white"/>
</mask>
<g mask="url(#mask1_569_27159)">
<path d="M216.88 107.67L221.961 105.527C221.461 105.742 221.002 106.089 220.614 106.548L215.533 108.69C215.921 108.231 216.38 107.884 216.88 107.67Z" fill="#252525"/>
<path d="M215.533 108.68L220.614 106.537C220.502 106.66 220.4 106.802 220.308 106.945L215.227 109.088C215.329 108.945 215.431 108.812 215.533 108.68Z" fill="#262626"/>
<path d="M215.217 109.088L220.298 106.945C220.217 107.068 220.145 107.19 220.064 107.313L214.982 109.455C215.054 109.323 215.135 109.2 215.217 109.088Z" fill="#282828"/>
<path d="M214.992 109.455L220.073 107.312C220.012 107.425 219.941 107.547 219.89 107.67L214.809 109.812C214.87 109.69 214.931 109.567 214.992 109.455Z" fill="#292929"/>
<path d="M214.798 109.813L219.879 107.67C219.828 107.782 219.766 107.905 219.726 108.027L214.645 110.17C214.696 110.047 214.747 109.925 214.798 109.813Z" fill="#2B2B2B"/>
<path d="M214.646 110.168L219.727 108.025C219.676 108.138 219.636 108.26 219.595 108.382L214.514 110.525C214.554 110.403 214.595 110.28 214.646 110.168Z" fill="#2C2C2C"/>
<path d="M214.513 110.527L219.594 108.385C219.553 108.507 219.512 108.619 219.482 108.742L214.4 110.885C214.431 110.762 214.472 110.64 214.513 110.527Z" fill="#2D2D2D"/>
<path d="M214.4 110.885L219.482 108.742C219.451 108.865 219.42 108.987 219.39 109.109L214.309 111.252C214.339 111.13 214.37 111.007 214.4 110.885Z" fill="#2F2F2F"/>
<path d="M214.308 111.25L219.389 109.107C219.359 109.23 219.338 109.352 219.308 109.485L214.227 111.628C214.247 111.495 214.278 111.372 214.308 111.25Z" fill="#303030"/>
<path d="M214.227 111.629L219.308 109.486C219.288 109.619 219.268 109.741 219.247 109.874L214.166 112.017C214.186 111.884 214.207 111.751 214.227 111.629Z" fill="#323232"/>
<path d="M214.166 112.025L219.247 109.883C219.227 110.015 219.216 110.148 219.206 110.281L214.125 112.423C214.135 112.291 214.156 112.158 214.166 112.025Z" fill="#333333"/>
<path d="M214.124 112.424L219.205 110.281C219.195 110.424 219.185 110.557 219.185 110.7L214.104 112.842C214.104 112.699 214.114 112.557 214.124 112.424Z" fill="#353535"/>
<path d="M214.104 112.844L219.185 110.701C219.185 110.844 219.185 110.997 219.185 111.14L214.104 113.283C214.104 113.129 214.104 112.987 214.104 112.844Z" fill="#363636"/>
<path d="M214.094 113.281L219.175 111.139C219.175 111.2 219.175 111.261 219.175 111.312C219.175 111.404 219.175 111.506 219.185 111.598L214.104 113.74C214.104 113.649 214.104 113.547 214.094 113.455C214.094 113.394 214.094 113.332 214.094 113.281Z" fill="#373737"/>
<path d="M214.113 113.752L219.194 111.609C219.194 111.773 219.215 111.936 219.235 112.089L214.154 114.232C214.134 114.068 214.123 113.915 214.113 113.752Z" fill="#393939"/>
<path d="M214.154 114.231L219.235 112.088C219.256 112.261 219.276 112.425 219.307 112.598L214.226 114.741C214.195 114.577 214.175 114.404 214.154 114.231Z" fill="#3A3A3A"/>
<path d="M214.217 114.74L219.298 112.598C219.329 112.781 219.359 112.965 219.4 113.149L214.319 115.291C214.278 115.108 214.247 114.924 214.217 114.74Z" fill="#3C3C3C"/>
<path d="M214.328 115.291L219.409 113.148C219.46 113.352 219.511 113.557 219.572 113.761L214.491 115.903C214.43 115.699 214.379 115.495 214.328 115.291Z" fill="#3D3D3D"/>
<path d="M214.482 115.895L219.564 113.752C219.645 114.007 219.727 114.262 219.829 114.507L214.748 116.65C214.656 116.405 214.564 116.15 214.482 115.895Z" fill="#3E3E3E"/>
<path d="M214.746 116.658L219.827 114.516C220.164 115.362 220.613 116.107 221.133 116.709L216.052 118.852C215.522 118.25 215.073 117.505 214.746 116.658Z" fill="#404040"/>
<path d="M216.053 118.852L221.134 116.709C221.256 116.842 221.379 116.974 221.501 117.086L216.42 119.229C216.298 119.107 216.175 118.984 216.053 118.852Z" fill="#3E3E3E"/>
<path d="M216.422 119.231L221.503 117.088C221.595 117.18 221.687 117.261 221.789 117.343L216.708 119.486C216.616 119.404 216.514 119.322 216.422 119.231Z" fill="#3D3D3D"/>
<path d="M216.705 119.484L221.786 117.342C221.868 117.403 221.949 117.464 222.031 117.525L216.95 119.668C216.868 119.607 216.787 119.546 216.705 119.484Z" fill="#3C3C3C"/>
<path d="M216.941 119.668L222.023 117.525C222.094 117.576 222.165 117.627 222.237 117.668L217.156 119.811C217.084 119.77 217.013 119.719 216.941 119.668Z" fill="#3A3A3A"/>
<path d="M217.154 119.813L222.235 117.67C222.307 117.711 222.368 117.752 222.439 117.792L217.358 119.935C217.287 119.894 217.226 119.853 217.154 119.813Z" fill="#393939"/>
<path d="M217.357 119.932L222.439 117.789C222.5 117.82 222.561 117.86 222.622 117.891L217.541 120.034C217.48 120.003 217.419 119.973 217.357 119.932Z" fill="#373737"/>
<path d="M217.553 120.035L222.634 117.893C222.695 117.923 222.756 117.954 222.818 117.974L217.736 120.117C217.675 120.086 217.614 120.066 217.553 120.035Z" fill="#363636"/>
<path d="M217.738 120.129L222.819 117.986C222.881 118.007 222.942 118.037 222.993 118.058L217.912 120.2C217.851 120.18 217.789 120.16 217.738 120.129Z" fill="#353535"/>
<path d="M217.91 120.197L222.991 118.055C223.052 118.075 223.114 118.095 223.165 118.116L218.084 120.259C218.022 120.238 217.961 120.218 217.91 120.197Z" fill="#333333"/>
<path d="M218.094 120.25L223.175 118.107C223.236 118.128 223.287 118.138 223.348 118.158L218.267 120.301C218.206 120.291 218.145 120.27 218.094 120.25Z" fill="#323232"/>
<path d="M218.266 120.303L223.347 118.16C223.408 118.17 223.469 118.191 223.53 118.201L218.449 120.344C218.388 120.333 218.327 120.323 218.266 120.303Z" fill="#303030"/>
<path d="M218.439 120.342L223.521 118.199C223.582 118.209 223.643 118.22 223.704 118.23L218.623 120.372C218.562 120.372 218.501 120.352 218.439 120.342Z" fill="#2F2F2F"/>
<path d="M218.625 120.371L223.706 118.229C223.706 118.229 223.778 118.229 223.818 118.239L218.737 120.381C218.737 120.381 218.666 120.381 218.625 120.371Z" fill="#2D2D2D"/>
</g>
<mask id="mask2_569_27159" style="mask-type:luminance" maskUnits="userSpaceOnUse" x="218" y="105" width="11" height="16">
<path d="M225.282 118.024L220.201 120.167C221.894 119.452 223.068 117.187 222.986 114.361C222.884 110.79 220.803 107.688 218.344 107.443L223.425 105.301C225.874 105.546 227.955 108.647 228.067 112.218C228.149 115.034 226.976 117.31 225.282 118.024Z" fill="white"/>
</mask>
<g mask="url(#mask2_569_27159)">
<path d="M218.355 107.443L223.437 105.301C223.437 105.301 223.508 105.301 223.549 105.311L218.468 107.454C218.468 107.454 218.396 107.454 218.355 107.443Z" fill="#7C7C7C"/>
<path d="M218.467 107.463L223.548 105.32C223.609 105.32 223.67 105.341 223.732 105.351L218.65 107.494C218.589 107.483 218.528 107.473 218.467 107.463Z" fill="#808080"/>
<path d="M218.641 107.484L223.722 105.342C223.783 105.352 223.844 105.362 223.895 105.383L218.814 107.525C218.753 107.515 218.692 107.495 218.641 107.484Z" fill="#848484"/>
<path d="M218.824 107.525L223.905 105.383C223.967 105.393 224.018 105.413 224.079 105.434L218.998 107.576C218.936 107.556 218.885 107.546 218.824 107.525Z" fill="#888888"/>
<path d="M218.998 107.576L224.079 105.434C224.14 105.454 224.202 105.474 224.253 105.495L219.172 107.637C219.11 107.617 219.049 107.597 218.998 107.576Z" fill="#8C8C8C"/>
<path d="M219.172 107.637L224.253 105.494C224.314 105.515 224.375 105.535 224.426 105.566L219.345 107.708C219.284 107.688 219.223 107.657 219.172 107.637Z" fill="#909090"/>
<path d="M219.355 107.709L224.437 105.566C224.498 105.597 224.559 105.617 224.62 105.648L219.539 107.791C219.478 107.76 219.417 107.729 219.355 107.709Z" fill="#939393"/>
<path d="M219.539 107.789L224.62 105.646C224.681 105.677 224.743 105.708 224.804 105.749L219.723 107.891C219.661 107.861 219.6 107.82 219.539 107.789Z" fill="#979797"/>
<path d="M219.723 107.893L224.804 105.75C224.875 105.791 224.936 105.832 225.008 105.872L219.927 108.015C219.855 107.974 219.794 107.933 219.723 107.893Z" fill="#9B9B9B"/>
<path d="M219.926 108.014L225.007 105.871C225.078 105.922 225.15 105.963 225.221 106.014L220.14 108.157C220.069 108.106 219.997 108.055 219.926 108.014Z" fill="#9F9F9F"/>
<path d="M220.141 108.158L225.222 106.016C225.303 106.077 225.385 106.138 225.467 106.199L220.385 108.342C220.304 108.281 220.222 108.219 220.141 108.158Z" fill="#A3A3A3"/>
<path d="M220.387 108.352L225.468 106.209C225.57 106.291 225.662 106.372 225.754 106.464L220.672 108.607C220.581 108.515 220.489 108.433 220.387 108.352Z" fill="#A7A7A7"/>
<path d="M220.672 108.598L225.753 106.455C225.875 106.578 225.998 106.7 226.12 106.843L221.039 108.985C220.917 108.853 220.794 108.72 220.672 108.598Z" fill="#ABABAB"/>
<path d="M221.039 108.982L226.12 106.84C226.651 107.442 227.1 108.197 227.436 109.044L222.355 111.186C222.019 110.339 221.57 109.584 221.039 108.982Z" fill="#AFAFAF"/>
<path d="M222.346 111.188L227.427 109.045C227.519 109.29 227.61 109.545 227.682 109.8L222.601 111.943C222.519 111.688 222.438 111.432 222.346 111.188Z" fill="#ABABAB"/>
<path d="M222.609 111.943L227.69 109.801C227.752 110.005 227.803 110.199 227.854 110.413L222.773 112.556C222.722 112.352 222.671 112.147 222.609 111.943Z" fill="#A7A7A7"/>
<path d="M222.764 112.545L227.845 110.402C227.886 110.586 227.916 110.759 227.947 110.943L222.866 113.086C222.835 112.902 222.804 112.718 222.764 112.545Z" fill="#A3A3A3"/>
<path d="M222.875 113.096L227.956 110.953C227.987 111.116 228.007 111.29 228.028 111.463L222.946 113.606C222.926 113.432 222.906 113.269 222.875 113.096Z" fill="#9F9F9F"/>
<path d="M222.947 113.596L228.028 111.453C228.049 111.616 228.059 111.769 228.069 111.933L222.988 114.075C222.988 113.912 222.968 113.759 222.947 113.596Z" fill="#9B9B9B"/>
<path d="M222.979 114.086L228.06 111.943C228.06 112.035 228.06 112.137 228.07 112.229C228.07 112.29 228.07 112.351 228.07 112.402L222.989 114.545C222.989 114.484 222.989 114.423 222.989 114.372C222.989 114.28 222.989 114.178 222.979 114.086Z" fill="#979797"/>
<path d="M222.998 114.545L228.079 112.402C228.079 112.555 228.079 112.698 228.079 112.841L222.998 114.984C222.998 114.841 222.998 114.688 222.998 114.545Z" fill="#939393"/>
<path d="M222.987 114.984L228.068 112.842C228.068 112.985 228.058 113.127 228.048 113.26L222.967 115.403C222.977 115.26 222.987 115.127 222.987 114.984Z" fill="#909090"/>
<path d="M222.969 115.402L228.05 113.26C228.039 113.392 228.019 113.525 228.009 113.658L222.928 115.8C222.948 115.668 222.958 115.535 222.969 115.402Z" fill="#8C8C8C"/>
<path d="M222.926 115.799L228.008 113.656C227.987 113.789 227.967 113.922 227.946 114.044L222.865 116.187C222.886 116.054 222.906 115.932 222.926 115.799Z" fill="#888888"/>
<path d="M222.867 116.199L227.948 114.057C227.927 114.189 227.897 114.312 227.866 114.434L222.785 116.577C222.816 116.454 222.836 116.332 222.867 116.199Z" fill="#848484"/>
<path d="M222.783 116.574L227.864 114.432C227.834 114.554 227.803 114.677 227.773 114.799L222.691 116.942C222.722 116.819 222.753 116.697 222.783 116.574Z" fill="#808080"/>
<path d="M222.692 116.943L227.773 114.801C227.743 114.923 227.702 115.046 227.661 115.158L222.58 117.301C222.621 117.178 222.662 117.066 222.692 116.943Z" fill="#7C7C7C"/>
<path d="M222.58 117.301L227.661 115.158C227.62 115.281 227.579 115.403 227.528 115.515L222.447 117.658C222.498 117.546 222.539 117.423 222.58 117.301Z" fill="#787878"/>
<path d="M222.446 117.656L227.527 115.514C227.476 115.636 227.425 115.759 227.374 115.871L222.293 118.013C222.344 117.901 222.405 117.779 222.446 117.656Z" fill="#747474"/>
<path d="M222.283 118.014L227.364 115.871C227.303 115.994 227.242 116.116 227.181 116.228L222.1 118.371C222.161 118.259 222.232 118.136 222.283 118.014Z" fill="#717171"/>
<path d="M222.1 118.371L227.181 116.229C227.11 116.361 227.028 116.484 226.946 116.596L221.865 118.738C221.947 118.616 222.028 118.494 222.1 118.371Z" fill="#6D6D6D"/>
<path d="M221.865 118.748L226.946 116.605C226.844 116.748 226.742 116.881 226.64 117.014L221.559 119.156C221.671 119.034 221.773 118.891 221.865 118.748Z" fill="#696969"/>
<path d="M221.56 119.148L226.641 117.006C226.253 117.465 225.794 117.812 225.294 118.026L220.213 120.169C220.713 119.955 221.172 119.608 221.56 119.148Z" fill="#656565"/>
</g>
<mask id="mask3_569_27159" style="mask-type:luminance" maskUnits="userSpaceOnUse" x="220" y="118" width="6" height="3">
<path d="M225.276 118.033C225.276 118.033 225.276 118.033 225.287 118.033L220.206 120.176C220.206 120.176 220.206 120.176 220.195 120.176C221.889 119.462 223.583 118.747 225.276 118.033Z" fill="white"/>
</mask>
<g mask="url(#mask3_569_27159)">
<path d="M220.039 120.229L225.12 118.087C225.171 118.066 225.232 118.046 225.283 118.025L220.202 120.168C220.151 120.188 220.09 120.209 220.039 120.229Z" fill="#252525"/>
</g>
<path d="M232.182 113.158C232.182 113.015 232.182 112.872 232.182 112.729C232.182 112.617 232.182 112.515 232.182 112.403C232.182 112.229 232.172 112.046 232.162 111.872C232.152 111.689 232.131 111.505 232.111 111.321C232.111 111.24 232.101 111.158 232.091 111.087C232.091 111.056 232.091 111.015 232.091 110.985C232.06 110.668 232.009 110.352 231.958 110.046C231.958 110.025 231.958 110.005 231.948 109.985C231.927 109.883 231.907 109.781 231.887 109.679C231.846 109.464 231.805 109.25 231.764 109.036C231.754 108.985 231.734 108.934 231.723 108.883C231.683 108.699 231.632 108.515 231.581 108.332C231.54 108.189 231.509 108.036 231.468 107.893C231.458 107.852 231.438 107.811 231.427 107.76C231.295 107.332 231.162 106.924 230.999 106.516C230.999 106.516 230.999 106.495 230.989 106.485C230.836 106.108 230.672 105.74 230.499 105.373C230.448 105.261 230.377 105.148 230.326 105.036C230.203 104.791 230.081 104.557 229.948 104.332C229.877 104.2 229.795 104.077 229.713 103.955C229.591 103.751 229.458 103.557 229.326 103.363C229.234 103.23 229.142 103.118 229.05 102.996C228.918 102.822 228.785 102.649 228.642 102.485C228.601 102.434 228.56 102.373 228.52 102.322C228.458 102.251 228.387 102.19 228.326 102.118C228.203 101.985 228.081 101.853 227.948 101.73C227.897 101.679 227.846 101.618 227.795 101.567C227.703 101.486 227.612 101.404 227.52 101.322C227.458 101.271 227.397 101.21 227.336 101.159C227.305 101.128 227.275 101.098 227.244 101.077C227.091 100.955 226.938 100.833 226.785 100.72C226.754 100.7 226.714 100.669 226.683 100.649C226.652 100.628 226.612 100.598 226.581 100.577C226.51 100.526 226.438 100.475 226.367 100.435C226.234 100.353 226.101 100.271 225.969 100.19C225.938 100.169 225.908 100.159 225.877 100.139C225.857 100.129 225.826 100.108 225.806 100.098C225.744 100.067 225.673 100.027 225.612 99.9959C225.489 99.9347 225.367 99.8837 225.255 99.8327C225.193 99.802 225.122 99.7816 225.061 99.751C225.04 99.751 225.02 99.7306 225 99.7204C224.969 99.7102 224.938 99.7 224.908 99.6796C224.795 99.6388 224.673 99.598 224.561 99.5572C224.449 99.5266 224.336 99.4857 224.214 99.4551C224.204 99.4551 224.193 99.4551 224.183 99.4551C224.173 99.4551 224.163 99.4551 224.153 99.4551C224.061 99.4347 223.969 99.4143 223.867 99.3939C223.745 99.3735 223.632 99.3531 223.51 99.3327C223.438 99.3327 223.367 99.3123 223.296 99.3021C223.245 99.3021 223.194 99.3021 223.132 99.2919C223 99.2919 222.877 99.2715 222.745 99.2715C222.694 99.2715 222.643 99.2715 222.592 99.2715C222.551 99.2715 222.52 99.2715 222.479 99.2715C222.428 99.2715 222.377 99.2715 222.337 99.2715C222.194 99.2715 222.041 99.2919 221.898 99.3123C221.877 99.3123 221.857 99.3123 221.837 99.3225C221.786 99.3225 221.735 99.3429 221.684 99.3531C221.582 99.3735 221.469 99.3837 221.367 99.4143C221.316 99.4245 221.265 99.4449 221.214 99.4551C221.112 99.4857 221.01 99.5062 220.908 99.547C220.847 99.5674 220.775 99.5776 220.714 99.598C220.602 99.6388 220.49 99.6796 220.388 99.7204L215.307 101.863C215.48 101.792 215.654 101.73 215.827 101.679C215.929 101.649 216.031 101.618 216.133 101.588C216.286 101.547 216.449 101.516 216.602 101.486C216.653 101.486 216.704 101.465 216.755 101.455C216.97 101.424 217.184 101.404 217.398 101.404C217.439 101.404 217.47 101.404 217.51 101.404C217.745 101.404 217.98 101.404 218.215 101.435C218.5 101.465 218.786 101.516 219.072 101.588C219.082 101.588 219.092 101.588 219.102 101.588C219.378 101.659 219.653 101.741 219.918 101.843C219.939 101.843 219.959 101.863 219.98 101.873C220.235 101.975 220.48 102.088 220.735 102.22C220.755 102.23 220.786 102.251 220.806 102.261C221.041 102.394 221.275 102.536 221.51 102.69C221.541 102.71 221.582 102.741 221.612 102.761C221.837 102.914 222.051 103.087 222.265 103.271C222.326 103.322 222.388 103.383 222.449 103.434C222.592 103.567 222.734 103.7 222.877 103.842C223.01 103.965 223.132 104.098 223.255 104.24C223.367 104.363 223.469 104.475 223.571 104.597C223.714 104.761 223.847 104.934 223.979 105.108C224.071 105.23 224.163 105.353 224.255 105.475C224.387 105.659 224.51 105.863 224.642 106.057C224.724 106.179 224.806 106.301 224.877 106.434C225.01 106.658 225.132 106.893 225.255 107.138C225.316 107.25 225.377 107.363 225.428 107.475C225.602 107.832 225.765 108.199 225.918 108.577C225.918 108.587 225.918 108.607 225.928 108.617C226.081 109.015 226.224 109.434 226.357 109.852C226.418 110.036 226.459 110.23 226.51 110.413C226.561 110.597 226.612 110.781 226.652 110.964C226.714 111.219 226.765 111.485 226.816 111.75C226.836 111.852 226.856 111.954 226.877 112.056C226.938 112.423 226.989 112.791 227.03 113.158C227.03 113.239 227.04 113.321 227.05 113.403C227.081 113.76 227.112 114.117 227.122 114.484C227.122 114.739 227.122 114.994 227.122 115.239C227.122 115.341 227.122 115.433 227.122 115.535C227.122 115.831 227.101 116.117 227.071 116.402C227.071 116.423 227.071 116.433 227.071 116.453C227.05 116.729 227.02 116.994 226.979 117.249C226.969 117.341 226.948 117.423 226.938 117.504C226.908 117.698 226.877 117.882 226.836 118.066C226.816 118.157 226.795 118.259 226.775 118.351C226.734 118.535 226.693 118.708 226.652 118.882C226.632 118.963 226.612 119.055 226.591 119.137C226.53 119.351 226.469 119.555 226.408 119.759C226.397 119.8 226.377 119.851 226.367 119.892C226.285 120.137 226.193 120.382 226.091 120.616C226.061 120.698 226.02 120.769 225.989 120.851C225.918 121.004 225.846 121.167 225.775 121.32C225.724 121.433 225.663 121.535 225.612 121.637C225.551 121.759 225.489 121.881 225.418 121.994C225.336 122.137 225.244 122.279 225.153 122.422C225.102 122.504 225.051 122.585 225 122.657C224.836 122.902 224.653 123.126 224.469 123.34C224.418 123.402 224.357 123.463 224.306 123.524C224.183 123.667 224.061 123.8 223.928 123.922C223.857 123.993 223.785 124.055 223.714 124.116C223.592 124.228 223.459 124.34 223.336 124.442C223.265 124.504 223.194 124.555 223.112 124.616C222.969 124.718 222.826 124.81 222.683 124.902C222.612 124.942 222.551 124.993 222.479 125.024C222.265 125.146 222.041 125.259 221.816 125.35L226.897 123.208C227.122 123.116 227.346 123.004 227.561 122.881C227.632 122.841 227.693 122.8 227.765 122.759C227.907 122.667 228.05 122.575 228.193 122.473C228.265 122.422 228.346 122.361 228.418 122.3C228.55 122.198 228.673 122.086 228.795 121.973C228.866 121.912 228.938 121.851 229.009 121.779C229.142 121.657 229.264 121.514 229.387 121.381C229.428 121.33 229.479 121.29 229.519 121.249C229.53 121.239 229.54 121.218 229.55 121.208C229.734 120.994 229.907 120.759 230.07 120.524C230.07 120.514 230.091 120.504 230.091 120.494C230.142 120.422 230.183 120.351 230.224 120.28C230.315 120.137 230.407 120.004 230.489 119.851C230.499 119.831 230.519 119.81 230.53 119.79C230.581 119.698 230.632 119.596 230.683 119.494C230.734 119.392 230.795 119.29 230.846 119.178C230.856 119.157 230.866 119.137 230.876 119.116C230.938 118.984 230.999 118.851 231.06 118.708C231.091 118.627 231.132 118.555 231.162 118.484C231.162 118.474 231.172 118.463 231.183 118.453C231.274 118.239 231.356 118.014 231.438 117.78C231.438 117.78 231.438 117.77 231.438 117.759C231.448 117.719 231.468 117.668 231.478 117.627C231.54 117.453 231.591 117.28 231.642 117.106C231.642 117.076 231.662 117.035 231.672 117.004C231.693 116.923 231.713 116.831 231.734 116.749C231.764 116.637 231.795 116.535 231.815 116.423C231.836 116.351 231.846 116.28 231.856 116.209C231.876 116.117 231.897 116.025 231.917 115.923C231.927 115.851 231.948 115.78 231.958 115.709C231.978 115.586 231.999 115.474 232.009 115.351C232.019 115.27 232.04 115.178 232.05 115.096C232.05 115.066 232.06 115.025 232.07 114.994C232.101 114.76 232.121 114.525 232.142 114.29C232.142 114.28 232.142 114.27 232.142 114.25C232.162 113.994 232.182 113.739 232.193 113.474C232.193 113.444 232.193 113.413 232.193 113.382C232.193 113.29 232.193 113.188 232.193 113.097L232.182 113.158Z" fill="#6742CF"/>
<path d="M218.315 101.311C223.115 101.793 227.178 107.687 227.375 114.464C227.572 121.251 223.84 126.344 219.03 125.861C214.221 125.379 210.167 119.495 209.97 112.708C209.773 105.931 213.495 100.828 218.315 101.311ZM218.875 120.358C221.363 120.604 223.312 117.894 223.208 114.3C223.104 110.706 220.99 107.585 218.491 107.338C215.993 107.092 214.055 109.802 214.158 113.386C214.262 116.969 216.377 120.101 218.875 120.358Z" fill="#1F1F1F"/>
<path d="M218.357 107.445C220.806 107.689 222.888 110.791 223 114.362C223.112 117.933 221.194 120.637 218.735 120.382C216.276 120.127 214.205 117.035 214.093 113.454C213.98 109.873 215.899 107.189 218.357 107.445Z" fill="#1F1F1F"/>
<mask id="mask4_569_27159" style="mask-type:luminance" maskUnits="userSpaceOnUse" x="275" y="148" width="7" height="4">
<path d="M280.439 149.093C280.949 149.144 281.449 149.073 281.898 148.879C280.204 149.593 278.51 150.307 276.816 151.022C276.368 151.205 275.868 151.287 275.357 151.236C276.878 150.593 278.796 149.338 280.439 149.093Z" fill="white"/>
</mask>
<g mask="url(#mask4_569_27159)">
<path d="M275.357 151.238L280.439 149.096C280.439 149.096 280.49 149.096 280.52 149.096L275.439 151.238C275.439 151.238 275.388 151.238 275.357 151.238Z" fill="#2D2D2D"/>
<path d="M275.439 151.238L280.521 149.096C280.582 149.096 280.653 149.096 280.714 149.096L275.633 151.238C275.572 151.238 275.501 151.238 275.439 151.238Z" fill="#2C2C2C"/>
<path d="M275.633 151.248L280.714 149.105C280.785 149.105 280.857 149.105 280.928 149.105L275.847 151.248C275.776 151.248 275.704 151.248 275.633 151.248Z" fill="#2B2B2B"/>
<path d="M275.848 151.251L280.929 149.108C281 149.108 281.072 149.098 281.153 149.088L276.072 151.231C276.001 151.231 275.929 151.251 275.848 151.251Z" fill="#292929"/>
<path d="M276.062 151.227L281.144 149.084C281.235 149.074 281.327 149.054 281.409 149.033L276.328 151.176C276.236 151.196 276.154 151.217 276.062 151.227Z" fill="#282828"/>
<path d="M276.336 151.178L281.417 149.036C281.529 149.005 281.642 148.974 281.754 148.934L276.673 151.076C276.56 151.117 276.448 151.148 276.336 151.178Z" fill="#262626"/>
<path d="M276.662 151.075L281.743 148.932C281.794 148.912 281.855 148.891 281.906 148.871L276.825 151.014C276.774 151.034 276.713 151.055 276.662 151.075Z" fill="#252525"/>
</g>
<mask id="mask5_569_27159" style="mask-type:luminance" maskUnits="userSpaceOnUse" x="270" y="136" width="11" height="16">
<path d="M275.804 142.169C275.906 145.75 277.987 148.842 280.446 149.097L275.365 151.239C272.906 150.984 270.835 147.893 270.723 144.311C272.416 143.597 274.11 142.883 275.804 142.169C274.11 142.883 272.416 143.597 270.723 144.301C270.641 141.495 271.804 139.22 273.508 138.506L278.589 136.363C276.885 137.077 275.722 139.343 275.804 142.159V142.169Z" fill="white"/>
</mask>
<g mask="url(#mask5_569_27159)">
<path d="M273.511 138.516L278.592 136.373C278.092 136.587 277.633 136.934 277.245 137.393L272.164 139.536C272.552 139.077 273.011 138.73 273.511 138.516Z" fill="#252525"/>
<path d="M272.164 139.525L277.245 137.383C277.132 137.505 277.03 137.648 276.939 137.791L271.857 139.934C271.959 139.791 272.061 139.658 272.164 139.525Z" fill="#262626"/>
<path d="M271.848 139.934L276.929 137.791C276.847 137.913 276.776 138.036 276.694 138.158L271.613 140.301C271.685 140.168 271.766 140.046 271.848 139.934Z" fill="#282828"/>
<path d="M271.623 140.301L276.704 138.158C276.643 138.27 276.572 138.393 276.521 138.515L271.439 140.658C271.501 140.536 271.562 140.413 271.623 140.301Z" fill="#292929"/>
<path d="M271.428 140.658L276.51 138.516C276.459 138.628 276.397 138.75 276.357 138.873L271.275 141.015C271.326 140.893 271.377 140.77 271.428 140.658Z" fill="#2B2B2B"/>
<path d="M271.277 141.016L276.358 138.873C276.307 138.985 276.266 139.108 276.226 139.23L271.145 141.373C271.185 141.25 271.226 141.128 271.277 141.016Z" fill="#2C2C2C"/>
<path d="M271.143 141.373L276.225 139.23C276.184 139.353 276.143 139.465 276.112 139.588L271.031 141.73C271.062 141.608 271.103 141.485 271.143 141.373Z" fill="#2D2D2D"/>
<path d="M271.031 141.731L276.112 139.588C276.082 139.71 276.051 139.833 276.021 139.955L270.939 142.098C270.97 141.975 271.001 141.853 271.031 141.731Z" fill="#2F2F2F"/>
<path d="M270.937 142.106L276.018 139.963C275.988 140.085 275.967 140.208 275.937 140.34L270.855 142.483C270.876 142.35 270.906 142.228 270.937 142.106Z" fill="#303030"/>
<path d="M270.858 142.484L275.939 140.342C275.919 140.474 275.898 140.597 275.878 140.73L270.797 142.872C270.817 142.74 270.838 142.607 270.858 142.484Z" fill="#323232"/>
<path d="M270.797 142.871L275.878 140.729C275.857 140.861 275.847 140.994 275.837 141.126L270.756 143.269C270.766 143.136 270.786 143.004 270.797 142.871Z" fill="#333333"/>
<path d="M270.755 143.27L275.836 141.127C275.826 141.27 275.815 141.402 275.815 141.545L270.734 143.688C270.734 143.545 270.745 143.402 270.755 143.27Z" fill="#353535"/>
<path d="M270.734 143.69L275.815 141.547C275.815 141.69 275.815 141.843 275.815 141.986L270.734 144.128C270.734 143.975 270.734 143.832 270.734 143.69Z" fill="#363636"/>
<path d="M270.725 144.127L275.806 141.984C275.806 142.046 275.806 142.107 275.806 142.158C275.806 142.25 275.806 142.352 275.816 142.444L270.735 144.586C270.735 144.494 270.735 144.392 270.725 144.3C270.725 144.239 270.725 144.178 270.725 144.127Z" fill="#373737"/>
<path d="M270.744 144.598L275.825 142.455C275.825 142.618 275.846 142.782 275.866 142.935L270.785 145.077C270.765 144.914 270.754 144.761 270.744 144.598Z" fill="#393939"/>
<path d="M270.785 145.076L275.866 142.934C275.887 143.107 275.907 143.27 275.938 143.444L270.857 145.586C270.826 145.423 270.806 145.25 270.785 145.076Z" fill="#3A3A3A"/>
<path d="M270.848 145.586L275.929 143.443C275.959 143.627 275.99 143.811 276.031 143.994L270.95 146.137C270.909 145.953 270.878 145.77 270.848 145.586Z" fill="#3C3C3C"/>
<path d="M270.959 146.137L276.04 143.994C276.091 144.198 276.142 144.402 276.203 144.606L271.122 146.749C271.061 146.545 271.01 146.341 270.959 146.137Z" fill="#3D3D3D"/>
<path d="M271.113 146.75L276.194 144.607C276.276 144.862 276.358 145.118 276.46 145.362L271.379 147.505C271.287 147.26 271.195 147.005 271.113 146.75Z" fill="#3E3E3E"/>
<path d="M271.377 147.506L276.458 145.363C276.795 146.21 277.244 146.955 277.764 147.557L272.683 149.7C272.152 149.098 271.703 148.353 271.377 147.506Z" fill="#404040"/>
<path d="M272.684 149.699L277.765 147.557C277.887 147.689 278.01 147.822 278.132 147.934L273.051 150.077C272.928 149.954 272.806 149.832 272.684 149.699Z" fill="#3E3E3E"/>
<path d="M273.051 150.076L278.132 147.934C278.224 148.025 278.316 148.107 278.418 148.189L273.336 150.331C273.245 150.25 273.143 150.168 273.051 150.076Z" fill="#3D3D3D"/>
<path d="M273.336 150.33L278.417 148.188C278.499 148.249 278.58 148.31 278.662 148.371L273.581 150.514C273.499 150.453 273.418 150.391 273.336 150.33Z" fill="#3C3C3C"/>
<path d="M273.572 150.516L278.653 148.373C278.725 148.424 278.796 148.475 278.868 148.516L273.787 150.659C273.715 150.618 273.644 150.567 273.572 150.516Z" fill="#3A3A3A"/>
<path d="M273.785 150.666L278.866 148.523C278.938 148.564 278.999 148.605 279.07 148.646L273.989 150.789C273.918 150.748 273.857 150.707 273.785 150.666Z" fill="#393939"/>
<path d="M273.988 150.789L279.069 148.646C279.131 148.677 279.192 148.718 279.253 148.749L274.172 150.891C274.111 150.861 274.049 150.83 273.988 150.789Z" fill="#373737"/>
<path d="M274.184 150.881L279.265 148.738C279.326 148.769 279.387 148.8 279.448 148.82L274.367 150.963C274.306 150.932 274.245 150.912 274.184 150.881Z" fill="#363636"/>
<path d="M274.367 150.975L279.448 148.832C279.51 148.852 279.571 148.883 279.622 148.903L274.541 151.046C274.479 151.026 274.418 151.005 274.367 150.975Z" fill="#353535"/>
<path d="M274.541 151.045L279.622 148.902C279.683 148.923 279.745 148.943 279.796 148.964L274.714 151.106C274.653 151.086 274.592 151.065 274.541 151.045Z" fill="#333333"/>
<path d="M274.725 151.096L279.806 148.953C279.867 148.974 279.918 148.984 279.979 149.004L274.898 151.147C274.837 151.137 274.776 151.116 274.725 151.096Z" fill="#323232"/>
<path d="M274.896 151.148L279.978 149.006C280.039 149.016 280.1 149.036 280.161 149.047L275.08 151.189C275.019 151.179 274.958 151.169 274.896 151.148Z" fill="#303030"/>
<path d="M275.07 151.19L280.151 149.047C280.213 149.057 280.274 149.067 280.335 149.077L275.254 151.22C275.193 151.22 275.132 151.2 275.07 151.19Z" fill="#2F2F2F"/>
<path d="M275.256 151.219L280.337 149.076C280.337 149.076 280.408 149.076 280.449 149.086L275.368 151.229C275.368 151.229 275.297 151.229 275.256 151.219Z" fill="#2D2D2D"/>
</g>
<mask id="mask6_569_27159" style="mask-type:luminance" maskUnits="userSpaceOnUse" x="274" y="136" width="11" height="16">
<path d="M281.911 148.881L276.83 151.024C278.523 150.31 279.697 148.045 279.615 145.219C279.513 141.647 277.432 138.546 274.973 138.301L280.054 136.158C282.503 136.403 284.584 139.505 284.696 143.076C284.778 145.892 283.604 148.167 281.911 148.881Z" fill="white"/>
</mask>
<g mask="url(#mask6_569_27159)">
<path d="M274.984 138.289L280.065 136.146C280.065 136.146 280.137 136.146 280.178 136.157L275.097 138.299C275.097 138.299 275.025 138.299 274.984 138.289Z" fill="#7C7C7C"/>
<path d="M275.096 138.309L280.177 136.166C280.238 136.166 280.299 136.186 280.36 136.197L275.279 138.339C275.218 138.329 275.157 138.319 275.096 138.309Z" fill="#808080"/>
<path d="M275.27 138.34L280.351 136.197C280.412 136.207 280.473 136.218 280.524 136.238L275.443 138.381C275.382 138.371 275.321 138.35 275.27 138.34Z" fill="#848484"/>
<path d="M275.453 138.371L280.534 136.229C280.595 136.239 280.646 136.259 280.708 136.28L275.627 138.422C275.565 138.402 275.514 138.392 275.453 138.371Z" fill="#888888"/>
<path d="M275.627 138.422L280.708 136.279C280.769 136.3 280.831 136.32 280.882 136.341L275.8 138.483C275.739 138.463 275.678 138.442 275.627 138.422Z" fill="#8C8C8C"/>
<path d="M275.801 138.482L280.882 136.34C280.943 136.36 281.004 136.381 281.055 136.411L275.974 138.554C275.913 138.534 275.852 138.503 275.801 138.482Z" fill="#909090"/>
<path d="M275.984 138.555L281.065 136.412C281.127 136.443 281.188 136.463 281.249 136.494L276.168 138.636C276.107 138.606 276.046 138.575 275.984 138.555Z" fill="#939393"/>
<path d="M276.168 138.647L281.249 136.504C281.31 136.535 281.372 136.565 281.433 136.606L276.352 138.749C276.29 138.718 276.229 138.677 276.168 138.647Z" fill="#979797"/>
<path d="M276.352 138.738L281.433 136.596C281.504 136.637 281.565 136.677 281.637 136.718L276.556 138.861C276.484 138.82 276.423 138.779 276.352 138.738Z" fill="#9B9B9B"/>
<path d="M276.555 138.859L281.636 136.717C281.707 136.768 281.779 136.809 281.85 136.86L276.769 139.002C276.698 138.951 276.626 138.9 276.555 138.859Z" fill="#9F9F9F"/>
<path d="M276.77 139.004L281.851 136.861C281.932 136.923 282.014 136.984 282.096 137.045L277.014 139.188C276.933 139.126 276.851 139.065 276.77 139.004Z" fill="#A3A3A3"/>
<path d="M277.016 139.197L282.097 137.055C282.199 137.136 282.291 137.218 282.382 137.31L277.301 139.452C277.209 139.361 277.118 139.279 277.016 139.197Z" fill="#A7A7A7"/>
<path d="M277.301 139.443L282.382 137.301C282.504 137.423 282.627 137.546 282.749 137.688L277.668 139.831C277.546 139.698 277.423 139.566 277.301 139.443Z" fill="#ABABAB"/>
<path d="M277.668 139.828L282.749 137.686C283.28 138.288 283.729 139.043 284.065 139.889L278.984 142.032C278.647 141.185 278.199 140.43 277.668 139.828Z" fill="#AFAFAF"/>
<path d="M278.975 142.033L284.056 139.891C284.148 140.135 284.239 140.391 284.311 140.646L279.23 142.788C279.148 142.533 279.066 142.278 278.975 142.033Z" fill="#ABABAB"/>
<path d="M279.238 142.789L284.319 140.646C284.381 140.851 284.432 141.044 284.483 141.259L279.402 143.401C279.351 143.197 279.299 142.993 279.238 142.789Z" fill="#A7A7A7"/>
<path d="M279.393 143.4L284.474 141.258C284.515 141.441 284.545 141.615 284.576 141.799L279.495 143.941C279.464 143.758 279.433 143.574 279.393 143.4Z" fill="#A3A3A3"/>
<path d="M279.504 143.941L284.585 141.799C284.616 141.962 284.636 142.136 284.656 142.309L279.575 144.452C279.555 144.278 279.535 144.115 279.504 143.941Z" fill="#9F9F9F"/>
<path d="M279.564 144.451L284.646 142.309C284.666 142.472 284.676 142.625 284.686 142.788L279.605 144.931C279.605 144.768 279.585 144.614 279.564 144.451Z" fill="#9B9B9B"/>
<path d="M279.607 144.932L284.689 142.789C284.689 142.881 284.689 142.983 284.699 143.075C284.699 143.136 284.699 143.197 284.699 143.248L279.618 145.391C279.618 145.33 279.618 145.268 279.618 145.217C279.618 145.126 279.618 145.024 279.607 144.932Z" fill="#979797"/>
<path d="M279.627 145.391L284.708 143.248C284.708 143.401 284.708 143.544 284.708 143.687L279.627 145.829C279.627 145.687 279.627 145.534 279.627 145.391Z" fill="#939393"/>
<path d="M279.616 145.83L284.697 143.688C284.697 143.83 284.687 143.973 284.677 144.106L279.596 146.248C279.606 146.106 279.616 145.973 279.616 145.83Z" fill="#909090"/>
<path d="M279.597 146.248L284.679 144.105C284.668 144.238 284.648 144.371 284.638 144.503L279.557 146.646C279.577 146.513 279.587 146.381 279.597 146.248Z" fill="#8C8C8C"/>
<path d="M279.555 146.654L284.636 144.512C284.616 144.644 284.596 144.777 284.575 144.899L279.494 147.042C279.515 146.909 279.535 146.787 279.555 146.654Z" fill="#888888"/>
<path d="M279.496 147.045L284.577 144.902C284.556 145.035 284.526 145.157 284.495 145.28L279.414 147.422C279.445 147.3 279.465 147.178 279.496 147.045Z" fill="#848484"/>
<path d="M279.412 147.42L284.493 145.277C284.463 145.4 284.432 145.522 284.401 145.645L279.32 147.787C279.351 147.665 279.382 147.542 279.412 147.42Z" fill="#808080"/>
<path d="M279.321 147.789L284.402 145.646C284.372 145.769 284.331 145.891 284.29 146.004L279.209 148.146C279.25 148.024 279.291 147.912 279.321 147.789Z" fill="#7C7C7C"/>
<path d="M279.209 148.147L284.29 146.004C284.249 146.126 284.208 146.249 284.157 146.361L279.076 148.504C279.127 148.391 279.168 148.269 279.209 148.147Z" fill="#787878"/>
<path d="M279.075 148.502L284.156 146.359C284.105 146.482 284.054 146.604 284.003 146.716L278.922 148.859C278.973 148.747 279.034 148.624 279.075 148.502Z" fill="#747474"/>
<path d="M278.912 148.859L283.993 146.717C283.932 146.839 283.871 146.962 283.81 147.074L278.729 149.217C278.79 149.104 278.861 148.982 278.912 148.859Z" fill="#717171"/>
<path d="M278.729 149.217L283.81 147.074C283.739 147.207 283.657 147.329 283.575 147.442L278.494 149.584C278.576 149.462 278.657 149.339 278.729 149.217Z" fill="#6D6D6D"/>
<path d="M278.494 149.594L283.575 147.451C283.473 147.594 283.371 147.727 283.269 147.859L278.188 150.002C278.3 149.879 278.402 149.737 278.494 149.594Z" fill="#696969"/>
<path d="M278.189 149.994L283.27 147.852C282.882 148.311 282.423 148.658 281.923 148.872L276.842 151.015C277.342 150.8 277.801 150.453 278.189 149.994Z" fill="#656565"/>
</g>
<mask id="mask7_569_27159" style="mask-type:luminance" maskUnits="userSpaceOnUse" x="276" y="148" width="6" height="4">
<path d="M281.899 148.879C281.899 148.879 281.899 148.879 281.91 148.879L276.829 151.022C276.829 151.022 276.829 151.022 276.818 151.022C278.512 150.307 280.206 149.593 281.899 148.879Z" fill="white"/>
</mask>
<g mask="url(#mask7_569_27159)">
<path d="M276.666 151.075L281.747 148.932C281.798 148.912 281.859 148.891 281.91 148.871L276.829 151.014C276.778 151.034 276.717 151.055 276.666 151.075Z" fill="#252525"/>
</g>
<path d="M288.807 144.002C288.807 143.859 288.807 143.716 288.807 143.573C288.807 143.461 288.807 143.359 288.807 143.247C288.807 143.073 288.797 142.889 288.787 142.716C288.777 142.532 288.756 142.349 288.736 142.165C288.736 142.083 288.726 142.002 288.716 141.93C288.716 141.9 288.716 141.859 288.716 141.828C288.685 141.512 288.634 141.196 288.583 140.89C288.583 140.869 288.583 140.849 288.573 140.828C288.552 140.726 288.532 140.624 288.512 140.522C288.471 140.308 288.43 140.094 288.389 139.88C288.379 139.829 288.359 139.778 288.348 139.727C288.308 139.543 288.257 139.359 288.206 139.176C288.165 139.033 288.134 138.88 288.093 138.737C288.083 138.696 288.063 138.655 288.052 138.604C287.92 138.176 287.787 137.768 287.624 137.359C287.624 137.359 287.624 137.339 287.614 137.329C287.461 136.951 287.297 136.584 287.124 136.217C287.073 136.104 287.002 135.992 286.951 135.88C286.828 135.635 286.706 135.4 286.573 135.176C286.502 135.043 286.42 134.921 286.338 134.798C286.216 134.594 286.083 134.401 285.951 134.207C285.859 134.074 285.767 133.962 285.675 133.839C285.543 133.666 285.41 133.492 285.267 133.329C285.226 133.278 285.185 133.217 285.145 133.166C285.083 133.095 285.012 133.033 284.951 132.962C284.828 132.829 284.706 132.697 284.573 132.574C284.522 132.523 284.471 132.462 284.42 132.411C284.328 132.329 284.237 132.248 284.145 132.166C284.083 132.115 284.022 132.054 283.961 132.003C283.93 131.972 283.9 131.942 283.869 131.921C283.716 131.799 283.563 131.676 283.41 131.564C283.379 131.544 283.339 131.513 283.308 131.493C283.277 131.472 283.237 131.442 283.206 131.421C283.135 131.37 283.063 131.319 282.992 131.278C282.859 131.197 282.726 131.115 282.594 131.034C282.563 131.013 282.533 131.003 282.502 130.982C282.482 130.972 282.451 130.952 282.431 130.942C282.369 130.911 282.298 130.87 282.237 130.84C282.114 130.778 281.992 130.727 281.88 130.676C281.818 130.646 281.747 130.625 281.686 130.595C281.665 130.595 281.645 130.574 281.625 130.564C281.594 130.554 281.563 130.544 281.533 130.523C281.42 130.483 281.298 130.442 281.186 130.401C281.074 130.37 280.961 130.329 280.839 130.299C280.829 130.299 280.818 130.299 280.808 130.299C280.798 130.299 280.788 130.299 280.778 130.299C280.686 130.278 280.594 130.258 280.492 130.238C280.37 130.217 280.257 130.197 280.135 130.176C280.063 130.176 279.992 130.156 279.921 130.146C279.87 130.146 279.819 130.146 279.757 130.136C279.625 130.136 279.502 130.115 279.37 130.115C279.319 130.115 279.268 130.115 279.217 130.115C279.176 130.115 279.145 130.115 279.104 130.115C279.053 130.115 279.002 130.115 278.962 130.115C278.819 130.115 278.666 130.136 278.523 130.156C278.502 130.156 278.482 130.156 278.462 130.166C278.411 130.166 278.36 130.187 278.309 130.197C278.207 130.217 278.094 130.227 277.992 130.258C277.941 130.268 277.89 130.289 277.839 130.299C277.737 130.329 277.635 130.35 277.533 130.391C277.472 130.411 277.4 130.421 277.339 130.442C277.227 130.483 277.115 130.523 277.013 130.564L271.932 132.707C272.105 132.635 272.279 132.574 272.452 132.523C272.554 132.493 272.656 132.462 272.758 132.431C272.911 132.391 273.074 132.36 273.227 132.329C273.278 132.329 273.329 132.309 273.38 132.299C273.595 132.268 273.809 132.248 274.023 132.248C274.064 132.248 274.095 132.248 274.135 132.248C274.37 132.248 274.605 132.248 274.84 132.278C275.125 132.309 275.411 132.36 275.697 132.431C275.707 132.431 275.717 132.431 275.727 132.431C276.003 132.503 276.278 132.584 276.543 132.686C276.564 132.686 276.584 132.707 276.605 132.717C276.86 132.819 277.105 132.931 277.36 133.064C277.38 133.074 277.411 133.095 277.431 133.105C277.666 133.237 277.9 133.38 278.135 133.533C278.166 133.554 278.207 133.584 278.237 133.605C278.462 133.758 278.676 133.931 278.89 134.115C278.951 134.166 279.013 134.227 279.074 134.278C279.217 134.411 279.359 134.543 279.502 134.686C279.635 134.809 279.757 134.941 279.88 135.084C279.992 135.207 280.094 135.319 280.196 135.441C280.339 135.604 280.472 135.778 280.604 135.951C280.696 136.074 280.788 136.196 280.88 136.319C281.012 136.502 281.135 136.706 281.267 136.9C281.349 137.023 281.431 137.145 281.502 137.278C281.635 137.502 281.757 137.737 281.88 137.982C281.941 138.094 282.002 138.206 282.053 138.318C282.227 138.676 282.39 139.043 282.543 139.42C282.543 139.431 282.543 139.451 282.553 139.461C282.706 139.859 282.849 140.277 282.982 140.696C283.043 140.879 283.084 141.073 283.135 141.257C283.186 141.441 283.237 141.624 283.277 141.808C283.339 142.063 283.39 142.328 283.441 142.594C283.461 142.696 283.481 142.798 283.502 142.9C283.563 143.267 283.614 143.634 283.655 144.002C283.655 144.083 283.665 144.165 283.675 144.246C283.706 144.604 283.737 144.961 283.747 145.328C283.747 145.583 283.747 145.838 283.747 146.083C283.747 146.185 283.747 146.277 283.747 146.379C283.747 146.675 283.726 146.96 283.696 147.246C283.696 147.267 283.696 147.277 283.696 147.297C283.675 147.573 283.645 147.838 283.604 148.093C283.594 148.185 283.573 148.266 283.563 148.348C283.533 148.542 283.502 148.726 283.461 148.909C283.441 149.001 283.42 149.103 283.4 149.195C283.359 149.379 283.318 149.552 283.277 149.725C283.257 149.807 283.237 149.899 283.216 149.981C283.155 150.195 283.094 150.399 283.033 150.603C283.022 150.644 283.002 150.695 282.992 150.736C282.91 150.98 282.818 151.225 282.716 151.46C282.686 151.542 282.645 151.613 282.614 151.695C282.543 151.848 282.471 152.011 282.4 152.164C282.349 152.276 282.288 152.378 282.237 152.48C282.176 152.603 282.114 152.725 282.043 152.837C281.961 152.98 281.869 153.123 281.778 153.266C281.727 153.348 281.676 153.429 281.625 153.501C281.461 153.745 281.278 153.97 281.094 154.184C281.043 154.245 280.982 154.307 280.931 154.368C280.808 154.511 280.686 154.643 280.553 154.766C280.482 154.837 280.41 154.898 280.339 154.96C280.217 155.072 280.084 155.184 279.961 155.286C279.89 155.347 279.819 155.398 279.737 155.46C279.594 155.562 279.451 155.653 279.308 155.745C279.237 155.786 279.176 155.837 279.104 155.868C278.89 155.99 278.666 156.102 278.441 156.194L283.522 154.052C283.747 153.96 283.971 153.848 284.186 153.725C284.257 153.684 284.318 153.643 284.39 153.603C284.532 153.511 284.675 153.419 284.818 153.317C284.89 153.266 284.971 153.205 285.043 153.144C285.175 153.041 285.298 152.929 285.42 152.817C285.491 152.756 285.563 152.695 285.634 152.623C285.767 152.501 285.889 152.358 286.012 152.225C286.053 152.174 286.104 152.133 286.144 152.093C286.155 152.082 286.165 152.062 286.175 152.052C286.359 151.838 286.532 151.603 286.695 151.368C286.695 151.358 286.716 151.348 286.716 151.338C286.767 151.266 286.808 151.195 286.849 151.123C286.94 150.98 287.032 150.848 287.114 150.695C287.124 150.674 287.144 150.654 287.155 150.634C287.206 150.542 287.257 150.44 287.308 150.338C287.359 150.236 287.42 150.134 287.471 150.021C287.481 150.001 287.491 149.981 287.501 149.96C287.563 149.828 287.624 149.695 287.685 149.552C287.716 149.47 287.757 149.399 287.787 149.328C287.787 149.317 287.797 149.307 287.808 149.297C287.899 149.083 287.981 148.858 288.063 148.624C288.063 148.624 288.063 148.613 288.063 148.603C288.073 148.562 288.093 148.511 288.103 148.471C288.165 148.297 288.216 148.124 288.267 147.95C288.267 147.92 288.287 147.879 288.297 147.848C288.318 147.767 288.338 147.675 288.359 147.593C288.389 147.481 288.42 147.379 288.44 147.267C288.461 147.195 288.471 147.124 288.481 147.052C288.501 146.96 288.522 146.869 288.542 146.767C288.552 146.695 288.573 146.624 288.583 146.552C288.603 146.43 288.624 146.318 288.634 146.195C288.644 146.114 288.665 146.022 288.675 145.94C288.675 145.91 288.685 145.869 288.695 145.838C288.726 145.603 288.746 145.369 288.767 145.134C288.767 145.124 288.767 145.114 288.767 145.093C288.787 144.838 288.807 144.583 288.818 144.318C288.818 144.287 288.818 144.257 288.818 144.226C288.818 144.134 288.818 144.032 288.818 143.94L288.807 144.002Z" fill="#6742CF"/>
<path d="M274.857 132.309C279.608 132.788 283.63 138.645 283.825 145.379C284.02 152.123 280.326 157.184 275.565 156.704C270.804 156.225 266.792 150.378 266.597 143.634C266.402 136.9 270.086 131.829 274.857 132.309ZM275.411 151.235C277.874 151.48 279.803 148.787 279.7 145.216C279.598 141.645 277.504 138.543 275.032 138.298C272.559 138.053 270.64 140.747 270.743 144.308C270.845 147.868 272.938 150.98 275.411 151.235Z" fill="#1F1F1F"/>
<path d="M274.982 138.288C277.431 138.533 279.513 141.635 279.625 145.206C279.737 148.777 277.819 151.481 275.36 151.226C272.901 150.971 270.83 147.879 270.718 144.298C270.605 140.717 272.524 138.033 274.982 138.288Z" fill="#1F1F1F"/>
<path d="M161.087 119.066C157.169 113.23 157.445 104.017 158.424 99.7109L164.822 115.75L179.677 129.29L257.822 172.999L279.249 185.845L278.922 191.406C248.242 174.561 184.789 139.472 176.412 133.861C167.485 127.882 162.495 121.158 161.087 119.066Z" fill="#1A1341"/>
<path d="M210.817 101.773L316.846 161.231L279.32 186.479L176.688 129.383L210.827 101.773H210.817Z" fill="#A387DF"/>
<path d="M160.117 94.3139C152.394 107.608 167.902 123.209 176.697 129.372L210.979 101.762C210.979 101.762 205.888 98.2829 201.562 94.7016C198.236 91.9468 191.961 86.6718 187.594 84.621C181.176 81.958 167.841 81.0193 160.117 94.3139Z" fill="#A387DF"/>
<mask id="mask8_569_27159" style="mask-type:luminance" maskUnits="userSpaceOnUse" x="177" y="147" width="8" height="4">
<path d="M182.831 148.021C183.341 148.072 183.841 148 184.29 147.807C182.596 148.521 180.903 149.235 179.209 149.949C178.76 150.133 178.26 150.215 177.75 150.164C179.27 149.521 181.188 148.266 182.831 148.021Z" fill="white"/>
</mask>
<g mask="url(#mask8_569_27159)">
<path d="M177.75 150.166L182.831 148.023C182.831 148.023 182.882 148.023 182.913 148.023L177.832 150.166C177.832 150.166 177.781 150.166 177.75 150.166Z" fill="#2D2D2D"/>
<path d="M177.832 150.166L182.913 148.023C182.974 148.023 183.046 148.023 183.107 148.023L178.026 150.166C177.965 150.166 177.893 150.166 177.832 150.166Z" fill="#2C2C2C"/>
<path d="M178.035 150.174L183.116 148.031C183.188 148.031 183.259 148.031 183.331 148.031L178.249 150.174C178.178 150.174 178.107 150.174 178.035 150.174Z" fill="#2B2B2B"/>
<path d="M178.24 150.173L183.321 148.03C183.393 148.03 183.464 148.02 183.546 148.01L178.465 150.152C178.393 150.152 178.322 150.173 178.24 150.173Z" fill="#292929"/>
<path d="M178.465 150.155L183.546 148.012C183.638 148.002 183.73 147.981 183.811 147.961L178.73 150.104C178.638 150.124 178.557 150.144 178.465 150.155Z" fill="#282828"/>
<path d="M178.729 150.102L183.81 147.959C183.922 147.929 184.034 147.898 184.146 147.857L179.065 150C178.953 150.041 178.841 150.071 178.729 150.102Z" fill="#262626"/>
<path d="M179.066 150.01L184.148 147.868C184.199 147.847 184.26 147.827 184.311 147.807L179.23 149.949C179.179 149.97 179.117 149.99 179.066 150.01Z" fill="#252525"/>
</g>
<mask id="mask9_569_27159" style="mask-type:luminance" maskUnits="userSpaceOnUse" x="173" y="135" width="10" height="16">
<path d="M178.187 141.097C178.289 144.678 180.37 147.769 182.829 148.024L177.748 150.167C175.289 149.912 173.218 146.82 173.106 143.239C174.799 142.525 176.493 141.811 178.187 141.097C176.493 141.811 174.799 142.525 173.106 143.229C173.024 140.423 174.187 138.148 175.891 137.434L180.972 135.291C179.268 136.005 178.105 138.27 178.187 141.086V141.097Z" fill="white"/>
</mask>
<g mask="url(#mask9_569_27159)">
<path d="M175.892 137.441L180.973 135.299C180.473 135.513 180.014 135.86 179.626 136.319L174.545 138.462C174.933 138.003 175.392 137.656 175.892 137.441Z" fill="#252525"/>
<path d="M174.544 138.461L179.625 136.318C179.513 136.441 179.411 136.584 179.319 136.726L174.238 138.869C174.34 138.726 174.442 138.594 174.544 138.461Z" fill="#262626"/>
<path d="M174.237 138.859L179.318 136.717C179.236 136.839 179.165 136.962 179.083 137.084L174.002 139.227C174.073 139.094 174.155 138.972 174.237 138.859Z" fill="#282828"/>
<path d="M174.004 139.238L179.085 137.096C179.024 137.208 178.952 137.33 178.901 137.453L173.82 139.595C173.882 139.473 173.943 139.351 174.004 139.238Z" fill="#292929"/>
<path d="M173.819 139.592L178.9 137.449C178.849 137.561 178.788 137.684 178.747 137.806L173.666 139.949C173.717 139.827 173.768 139.704 173.819 139.592Z" fill="#2B2B2B"/>
<path d="M173.658 139.941L178.739 137.799C178.688 137.911 178.647 138.034 178.607 138.156L173.525 140.299C173.566 140.176 173.607 140.054 173.658 139.941Z" fill="#2C2C2C"/>
<path d="M173.524 140.299L178.605 138.156C178.565 138.279 178.524 138.391 178.493 138.513L173.412 140.656C173.443 140.534 173.484 140.411 173.524 140.299Z" fill="#2D2D2D"/>
<path d="M173.412 140.666L178.493 138.523C178.463 138.646 178.432 138.768 178.401 138.891L173.32 141.033C173.351 140.911 173.382 140.789 173.412 140.666Z" fill="#2F2F2F"/>
<path d="M173.318 141.031L178.399 138.889C178.368 139.011 178.348 139.134 178.317 139.266L173.236 141.409C173.257 141.276 173.287 141.154 173.318 141.031Z" fill="#303030"/>
<path d="M173.239 141.41L178.32 139.268C178.3 139.4 178.279 139.523 178.259 139.655L173.178 141.798C173.198 141.665 173.219 141.533 173.239 141.41Z" fill="#323232"/>
<path d="M173.187 141.797L178.268 139.654C178.248 139.787 178.238 139.92 178.228 140.052L173.146 142.195C173.157 142.062 173.177 141.93 173.187 141.797Z" fill="#333333"/>
<path d="M173.136 142.195L178.217 140.053C178.207 140.196 178.196 140.328 178.196 140.471L173.115 142.614C173.115 142.471 173.125 142.328 173.136 142.195Z" fill="#353535"/>
<path d="M173.115 142.615L178.196 140.473C178.196 140.615 178.196 140.769 178.196 140.911L173.115 143.054C173.115 142.901 173.115 142.758 173.115 142.615Z" fill="#363636"/>
<path d="M173.105 143.053L178.187 140.91C178.187 140.971 178.187 141.033 178.187 141.084C178.187 141.175 178.187 141.277 178.197 141.369L173.116 143.512C173.116 143.42 173.116 143.318 173.105 143.226C173.105 143.165 173.105 143.104 173.105 143.053Z" fill="#373737"/>
<path d="M173.125 143.523L178.206 141.381C178.206 141.544 178.227 141.707 178.247 141.86L173.166 144.003C173.145 143.84 173.135 143.687 173.125 143.523Z" fill="#393939"/>
<path d="M173.166 144.002L178.247 141.859C178.268 142.033 178.288 142.196 178.319 142.37L173.237 144.512C173.207 144.349 173.186 144.175 173.166 144.002Z" fill="#3A3A3A"/>
<path d="M173.236 144.512L178.317 142.369C178.348 142.553 178.379 142.736 178.419 142.92L173.338 145.063C173.298 144.879 173.267 144.695 173.236 144.512Z" fill="#3C3C3C"/>
<path d="M173.34 145.063L178.421 142.92C178.472 143.124 178.523 143.328 178.584 143.532L173.503 145.675C173.442 145.471 173.391 145.267 173.34 145.063Z" fill="#3D3D3D"/>
<path d="M173.502 145.674L178.583 143.531C178.665 143.786 178.746 144.041 178.848 144.286L173.767 146.429C173.675 146.184 173.584 145.929 173.502 145.674Z" fill="#3E3E3E"/>
<path d="M173.758 146.432L178.839 144.289C179.176 145.136 179.625 145.881 180.145 146.483L175.064 148.625C174.533 148.023 174.084 147.279 173.758 146.432Z" fill="#404040"/>
<path d="M175.074 148.625L180.155 146.482C180.278 146.615 180.4 146.748 180.523 146.86L175.442 149.003C175.319 148.88 175.197 148.758 175.074 148.625Z" fill="#3E3E3E"/>
<path d="M175.432 149.01L180.513 146.867C180.605 146.959 180.696 147.041 180.798 147.122L175.717 149.265C175.625 149.183 175.523 149.102 175.432 149.01Z" fill="#3D3D3D"/>
<path d="M175.717 149.256L180.798 147.113C180.88 147.174 180.961 147.236 181.043 147.297L175.962 149.44C175.88 149.378 175.798 149.317 175.717 149.256Z" fill="#3C3C3C"/>
<path d="M175.961 149.449L181.042 147.307C181.113 147.358 181.185 147.409 181.256 147.449L176.175 149.592C176.104 149.551 176.032 149.5 175.961 149.449Z" fill="#3A3A3A"/>
<path d="M176.176 149.592L181.257 147.449C181.328 147.49 181.39 147.531 181.461 147.572L176.38 149.714C176.308 149.673 176.247 149.633 176.176 149.592Z" fill="#393939"/>
<path d="M176.381 149.715L181.462 147.572C181.523 147.603 181.584 147.644 181.646 147.674L176.565 149.817C176.503 149.786 176.442 149.756 176.381 149.715Z" fill="#373737"/>
<path d="M176.564 149.818L181.646 147.676C181.707 147.706 181.768 147.737 181.829 147.757L176.748 149.9C176.687 149.869 176.626 149.849 176.564 149.818Z" fill="#363636"/>
<path d="M176.748 149.9L181.829 147.758C181.89 147.778 181.952 147.809 182.003 147.829L176.921 149.972C176.86 149.951 176.799 149.931 176.748 149.9Z" fill="#353535"/>
<path d="M176.932 149.971L182.013 147.828C182.074 147.849 182.135 147.869 182.186 147.889L177.105 150.032C177.044 150.012 176.983 149.991 176.932 149.971Z" fill="#333333"/>
<path d="M177.105 150.031L182.187 147.889C182.248 147.909 182.299 147.919 182.36 147.94L177.279 150.082C177.218 150.072 177.156 150.052 177.105 150.031Z" fill="#323232"/>
<path d="M177.277 150.084L182.358 147.941C182.42 147.952 182.481 147.972 182.542 147.982L177.461 150.125C177.4 150.115 177.339 150.104 177.277 150.084Z" fill="#303030"/>
<path d="M177.461 150.123L182.542 147.98C182.603 147.991 182.664 148.001 182.726 148.011L177.645 150.154C177.583 150.154 177.522 150.133 177.461 150.123Z" fill="#2F2F2F"/>
<path d="M177.646 150.154L182.728 148.012C182.728 148.012 182.799 148.012 182.84 148.022L177.759 150.165C177.759 150.165 177.687 150.165 177.646 150.154Z" fill="#2D2D2D"/>
</g>
<mask id="mask10_569_27159" style="mask-type:luminance" maskUnits="userSpaceOnUse" x="177" y="135" width="11" height="15">
<path d="M184.309 147.811L179.228 149.954C180.922 149.24 182.095 146.974 182.013 144.148C181.911 140.577 179.83 137.475 177.371 137.231L182.452 135.088C184.901 135.333 186.982 138.434 187.095 142.006C187.176 144.822 186.003 147.097 184.309 147.811Z" fill="white"/>
</mask>
<g mask="url(#mask10_569_27159)">
<path d="M177.371 137.231L182.452 135.088C182.452 135.088 182.524 135.088 182.564 135.098L177.483 137.241C177.483 137.241 177.412 137.241 177.371 137.231Z" fill="#7C7C7C"/>
<path d="M177.482 137.24L182.564 135.098C182.625 135.098 182.686 135.118 182.747 135.128L177.666 137.271C177.605 137.261 177.544 137.25 177.482 137.24Z" fill="#808080"/>
<path d="M177.668 137.272L182.749 135.129C182.81 135.139 182.872 135.149 182.923 135.17L177.841 137.312C177.78 137.302 177.719 137.282 177.668 137.272Z" fill="#848484"/>
<path d="M177.84 137.313L182.921 135.17C182.982 135.18 183.033 135.201 183.094 135.221L178.013 137.364C177.952 137.343 177.901 137.333 177.84 137.313Z" fill="#888888"/>
<path d="M178.014 137.363L183.095 135.221C183.156 135.241 183.217 135.262 183.268 135.282L178.187 137.425C178.126 137.404 178.065 137.384 178.014 137.363Z" fill="#8C8C8C"/>
<path d="M178.197 137.414L183.278 135.271C183.34 135.292 183.401 135.312 183.452 135.343L178.371 137.486C178.309 137.465 178.248 137.435 178.197 137.414Z" fill="#909090"/>
<path d="M178.371 137.484L183.452 135.342C183.513 135.372 183.575 135.393 183.636 135.423L178.555 137.566C178.494 137.535 178.432 137.505 178.371 137.484Z" fill="#939393"/>
<path d="M178.555 137.576L183.636 135.434C183.697 135.464 183.758 135.495 183.819 135.536L178.738 137.678C178.677 137.648 178.616 137.607 178.555 137.576Z" fill="#979797"/>
<path d="M178.748 137.668L183.829 135.525C183.901 135.566 183.962 135.607 184.033 135.648L178.952 137.79C178.881 137.75 178.819 137.709 178.748 137.668Z" fill="#9B9B9B"/>
<path d="M178.953 137.793L184.034 135.65C184.106 135.701 184.177 135.742 184.249 135.793L179.167 137.936C179.096 137.885 179.025 137.834 178.953 137.793Z" fill="#9F9F9F"/>
<path d="M179.168 137.945L184.249 135.803C184.331 135.864 184.412 135.925 184.494 135.986L179.413 138.129C179.331 138.068 179.25 138.007 179.168 137.945Z" fill="#A3A3A3"/>
<path d="M179.402 138.129L184.483 135.986C184.585 136.068 184.677 136.15 184.769 136.241L179.688 138.384C179.596 138.292 179.504 138.211 179.402 138.129Z" fill="#A7A7A7"/>
<path d="M179.688 138.385L184.769 136.242C184.891 136.365 185.013 136.487 185.136 136.63L180.055 138.773C179.932 138.64 179.81 138.507 179.688 138.385Z" fill="#ABABAB"/>
<path d="M180.055 138.762L185.136 136.619C185.666 137.221 186.115 137.976 186.452 138.823L181.371 140.966C181.034 140.119 180.585 139.364 180.055 138.762Z" fill="#AFAFAF"/>
<path d="M181.371 140.965L186.452 138.822C186.544 139.067 186.636 139.322 186.707 139.577L181.626 141.72C181.545 141.465 181.463 141.21 181.371 140.965Z" fill="#ABABAB"/>
<path d="M181.625 141.719L186.706 139.576C186.767 139.78 186.818 139.974 186.869 140.188L181.788 142.331C181.737 142.127 181.686 141.923 181.625 141.719Z" fill="#A7A7A7"/>
<path d="M181.789 142.332L186.87 140.189C186.911 140.373 186.942 140.547 186.972 140.73L181.891 142.873C181.86 142.689 181.83 142.506 181.789 142.332Z" fill="#A3A3A3"/>
<path d="M181.891 142.871L186.972 140.729C187.002 140.892 187.023 141.065 187.043 141.239L181.962 143.381C181.942 143.208 181.921 143.045 181.891 142.871Z" fill="#9F9F9F"/>
<path d="M181.963 143.383L187.044 141.24C187.064 141.403 187.075 141.557 187.085 141.72L182.004 143.862C182.004 143.699 181.983 143.546 181.963 143.383Z" fill="#9B9B9B"/>
<path d="M182.004 143.861L187.085 141.719C187.085 141.811 187.085 141.913 187.095 142.004C187.095 142.066 187.095 142.127 187.095 142.178L182.014 144.321C182.014 144.259 182.014 144.198 182.014 144.147C182.014 144.055 182.014 143.953 182.004 143.861Z" fill="#979797"/>
<path d="M182.014 144.32L187.095 142.178C187.095 142.331 187.095 142.474 187.095 142.616L182.014 144.759C182.014 144.616 182.014 144.463 182.014 144.32Z" fill="#939393"/>
<path d="M182.015 144.76L187.096 142.617C187.096 142.76 187.085 142.903 187.075 143.036L181.994 145.178C182.004 145.035 182.015 144.903 182.015 144.76Z" fill="#909090"/>
<path d="M181.984 145.178L187.065 143.035C187.055 143.168 187.035 143.3 187.024 143.433L181.943 145.576C181.964 145.443 181.974 145.31 181.984 145.178Z" fill="#8C8C8C"/>
<path d="M181.942 145.586L187.023 143.443C187.003 143.576 186.982 143.709 186.962 143.831L181.881 145.974C181.901 145.841 181.922 145.719 181.942 145.586Z" fill="#888888"/>
<path d="M181.882 145.975L186.964 143.832C186.943 143.965 186.913 144.087 186.882 144.21L181.801 146.352C181.831 146.23 181.852 146.107 181.882 145.975Z" fill="#848484"/>
<path d="M181.809 146.352L186.89 144.209C186.859 144.331 186.829 144.454 186.798 144.576L181.717 146.719C181.747 146.596 181.778 146.474 181.809 146.352Z" fill="#808080"/>
<path d="M181.708 146.719L186.789 144.576C186.758 144.699 186.718 144.821 186.677 144.933L181.596 147.076C181.637 146.953 181.677 146.841 181.708 146.719Z" fill="#7C7C7C"/>
<path d="M181.596 147.076L186.677 144.934C186.636 145.056 186.595 145.178 186.544 145.291L181.463 147.433C181.514 147.321 181.555 147.199 181.596 147.076Z" fill="#787878"/>
<path d="M181.462 147.434L186.543 145.291C186.492 145.413 186.441 145.536 186.39 145.648L181.309 147.791C181.36 147.679 181.421 147.556 181.462 147.434Z" fill="#747474"/>
<path d="M181.311 147.791L186.392 145.648C186.331 145.771 186.269 145.893 186.208 146.006L181.127 148.148C181.188 148.036 181.26 147.914 181.311 147.791Z" fill="#717171"/>
<path d="M181.116 148.158L186.197 146.016C186.125 146.148 186.044 146.271 185.962 146.383L180.881 148.526C180.962 148.403 181.044 148.281 181.116 148.158Z" fill="#6D6D6D"/>
<path d="M180.892 148.525L185.973 146.383C185.871 146.526 185.769 146.658 185.667 146.791L180.586 148.934C180.698 148.811 180.8 148.668 180.892 148.525Z" fill="#696969"/>
<path d="M180.575 148.936L185.656 146.793C185.269 147.252 184.81 147.599 184.31 147.813L179.229 149.956C179.728 149.742 180.188 149.395 180.575 148.936Z" fill="#656565"/>
</g>
<mask id="mask11_569_27159" style="mask-type:luminance" maskUnits="userSpaceOnUse" x="179" y="147" width="6" height="3">
<path d="M184.29 147.807C184.29 147.807 184.29 147.807 184.3 147.807L179.219 149.949C179.219 149.949 179.219 149.949 179.209 149.949C180.903 149.235 182.596 148.521 184.29 147.807Z" fill="white"/>
</mask>
<g mask="url(#mask11_569_27159)">
<path d="M179.066 150.01L184.148 147.868C184.199 147.847 184.26 147.827 184.311 147.807L179.23 149.949C179.179 149.97 179.117 149.99 179.066 150.01Z" fill="#252525"/>
</g>
<mask id="mask12_569_27159" style="mask-type:luminance" maskUnits="userSpaceOnUse" x="175" y="135" width="8" height="3">
<path d="M175.891 137.441L180.972 135.298C181.431 135.104 181.931 135.022 182.451 135.073L177.37 137.216C176.85 137.165 176.35 137.247 175.891 137.441Z" fill="white"/>
</mask>
<g mask="url(#mask12_569_27159)">
<path d="M175.891 137.44L180.972 135.298C181.023 135.277 181.084 135.257 181.135 135.236L176.054 137.379C176.003 137.399 175.942 137.42 175.891 137.44Z" fill="#656565"/>
<path d="M176.053 137.379L181.134 135.237C181.246 135.196 181.358 135.165 181.471 135.135L176.389 137.277C176.277 137.308 176.165 137.339 176.053 137.379Z" fill="#696969"/>
<path d="M176.391 137.276L181.472 135.133C181.564 135.113 181.645 135.092 181.737 135.082L176.656 137.225C176.564 137.235 176.472 137.255 176.391 137.276Z" fill="#6D6D6D"/>
<path d="M176.666 137.235L181.747 135.093C181.819 135.093 181.89 135.072 181.972 135.072L176.89 137.215C176.819 137.215 176.737 137.225 176.666 137.235Z" fill="#717171"/>
<path d="M176.879 137.215L181.96 135.072C182.031 135.072 182.103 135.072 182.174 135.072L177.093 137.215C177.022 137.215 176.95 137.215 176.879 137.215Z" fill="#747474"/>
<path d="M177.094 137.205L182.175 135.062C182.236 135.062 182.308 135.062 182.369 135.062L177.288 137.205C177.226 137.205 177.155 137.205 177.094 137.205Z" fill="#787878"/>
<path d="M177.289 137.215L182.37 135.072C182.37 135.072 182.421 135.072 182.452 135.072L177.371 137.215C177.371 137.215 177.32 137.215 177.289 137.215Z" fill="#7C7C7C"/>
</g>
<path d="M191.196 142.931C191.196 142.788 191.196 142.646 191.196 142.503C191.196 142.391 191.196 142.288 191.196 142.176C191.196 142.003 191.186 141.819 191.176 141.646C191.166 141.462 191.145 141.278 191.125 141.095C191.125 141.013 191.115 140.931 191.104 140.86C191.104 140.829 191.104 140.789 191.104 140.758C191.074 140.442 191.023 140.125 190.972 139.819C190.972 139.799 190.972 139.779 190.961 139.758C190.941 139.656 190.921 139.554 190.9 139.452C190.859 139.238 190.819 139.024 190.778 138.809C190.768 138.758 190.747 138.707 190.737 138.656C190.696 138.473 190.645 138.289 190.594 138.105C190.553 137.962 190.523 137.809 190.482 137.667C190.472 137.626 190.451 137.585 190.441 137.534C190.308 137.105 190.176 136.697 190.013 136.289C190.013 136.289 190.013 136.269 190.002 136.258C189.849 135.881 189.686 135.514 189.513 135.146C189.462 135.034 189.39 134.922 189.339 134.81C189.217 134.565 189.094 134.33 188.962 134.106C188.89 133.973 188.809 133.851 188.727 133.728C188.605 133.524 188.472 133.33 188.339 133.136C188.247 133.004 188.156 132.891 188.064 132.769C187.931 132.596 187.799 132.422 187.656 132.259C187.615 132.208 187.574 132.147 187.533 132.096C187.472 132.024 187.401 131.963 187.339 131.892C187.217 131.759 187.095 131.626 186.962 131.504C186.911 131.453 186.86 131.392 186.809 131.341C186.717 131.259 186.625 131.177 186.533 131.096C186.472 131.045 186.411 130.983 186.35 130.932C186.319 130.902 186.288 130.871 186.258 130.851C186.105 130.728 185.952 130.606 185.799 130.494C185.768 130.473 185.727 130.443 185.697 130.422C185.666 130.402 185.625 130.371 185.595 130.351C185.523 130.3 185.452 130.249 185.38 130.208C185.248 130.126 185.115 130.045 184.982 129.963C184.952 129.943 184.921 129.933 184.891 129.912C184.87 129.902 184.84 129.882 184.819 129.871C184.758 129.841 184.687 129.8 184.625 129.769C184.503 129.708 184.381 129.657 184.268 129.606C184.207 129.575 184.136 129.555 184.074 129.524C184.054 129.524 184.034 129.504 184.013 129.494C183.983 129.484 183.952 129.473 183.921 129.453C183.809 129.412 183.687 129.371 183.574 129.331C183.462 129.3 183.35 129.259 183.228 129.229C183.217 129.229 183.207 129.229 183.197 129.229C183.187 129.229 183.177 129.229 183.166 129.229C183.075 129.208 182.983 129.188 182.881 129.167C182.758 129.147 182.646 129.127 182.524 129.106C182.452 129.106 182.381 129.086 182.309 129.076C182.258 129.076 182.207 129.076 182.146 129.065C182.013 129.065 181.891 129.045 181.758 129.045C181.707 129.045 181.656 129.045 181.605 129.045C181.564 129.045 181.534 129.045 181.493 129.045C181.442 129.045 181.391 129.045 181.35 129.045C181.207 129.045 181.054 129.065 180.911 129.086C180.891 129.086 180.871 129.086 180.85 129.096C180.799 129.096 180.748 129.116 180.697 129.127C180.595 129.147 180.483 129.157 180.381 129.188C180.33 129.198 180.279 129.218 180.228 129.229C180.126 129.259 180.024 129.28 179.922 129.32C179.861 129.341 179.789 129.351 179.728 129.371C179.616 129.412 179.503 129.453 179.401 129.494L174.32 131.636C174.494 131.565 174.667 131.504 174.841 131.453C174.943 131.422 175.045 131.392 175.147 131.361C175.3 131.32 175.463 131.29 175.616 131.259C175.667 131.259 175.718 131.239 175.769 131.228C175.983 131.198 176.198 131.177 176.412 131.177C176.453 131.177 176.483 131.177 176.524 131.177C176.759 131.177 176.994 131.177 177.228 131.208C177.514 131.239 177.8 131.29 178.085 131.361C178.095 131.361 178.106 131.361 178.116 131.361C178.391 131.432 178.667 131.514 178.932 131.616C178.952 131.616 178.973 131.636 178.993 131.647C179.248 131.749 179.493 131.861 179.748 131.994C179.769 132.004 179.799 132.024 179.82 132.034C180.054 132.167 180.289 132.31 180.524 132.463C180.554 132.483 180.595 132.514 180.626 132.534C180.85 132.687 181.065 132.861 181.279 133.045C181.34 133.096 181.401 133.157 181.462 133.208C181.605 133.34 181.748 133.473 181.891 133.616C182.024 133.738 182.146 133.871 182.268 134.014C182.381 134.136 182.483 134.248 182.585 134.371C182.728 134.534 182.86 134.708 182.993 134.881C183.085 135.004 183.177 135.126 183.268 135.248C183.401 135.432 183.523 135.636 183.656 135.83C183.738 135.952 183.819 136.075 183.891 136.207C184.023 136.432 184.146 136.667 184.268 136.911C184.33 137.024 184.391 137.136 184.442 137.248C184.615 137.605 184.778 137.973 184.931 138.35C184.931 138.36 184.931 138.381 184.942 138.391C185.095 138.789 185.238 139.207 185.37 139.625C185.431 139.809 185.472 140.003 185.523 140.187C185.574 140.37 185.625 140.554 185.666 140.738C185.727 140.993 185.778 141.258 185.829 141.523C185.85 141.625 185.87 141.727 185.891 141.829C185.952 142.197 186.003 142.564 186.044 142.931C186.044 143.013 186.054 143.095 186.064 143.176C186.095 143.533 186.125 143.89 186.135 144.258C186.135 144.513 186.135 144.768 186.135 145.013C186.135 145.115 186.135 145.207 186.135 145.309C186.135 145.604 186.115 145.89 186.084 146.176C186.084 146.196 186.084 146.206 186.084 146.227C186.064 146.502 186.033 146.768 185.993 147.023C185.982 147.115 185.962 147.196 185.952 147.278C185.921 147.472 185.891 147.655 185.85 147.839C185.829 147.931 185.809 148.033 185.789 148.125C185.748 148.308 185.707 148.482 185.666 148.655C185.646 148.737 185.625 148.829 185.605 148.91C185.544 149.125 185.482 149.329 185.421 149.533C185.411 149.573 185.391 149.624 185.38 149.665C185.299 149.91 185.207 150.155 185.105 150.39C185.074 150.471 185.034 150.543 185.003 150.624C184.931 150.777 184.86 150.941 184.789 151.094C184.738 151.206 184.676 151.308 184.625 151.41C184.564 151.532 184.503 151.655 184.432 151.767C184.35 151.91 184.258 152.053 184.166 152.196C184.115 152.277 184.064 152.359 184.013 152.43C183.85 152.675 183.666 152.9 183.483 153.114C183.432 153.175 183.37 153.236 183.319 153.298C183.197 153.44 183.075 153.573 182.942 153.695C182.87 153.767 182.799 153.828 182.728 153.889C182.605 154.002 182.473 154.114 182.35 154.216C182.279 154.277 182.207 154.328 182.126 154.389C181.983 154.491 181.84 154.583 181.697 154.675C181.626 154.716 181.564 154.767 181.493 154.797C181.279 154.92 181.054 155.032 180.83 155.124L185.911 152.981C186.135 152.889 186.36 152.777 186.574 152.655C186.646 152.614 186.707 152.573 186.778 152.532C186.921 152.441 187.064 152.349 187.207 152.247C187.278 152.196 187.36 152.134 187.431 152.073C187.564 151.971 187.686 151.859 187.809 151.747C187.88 151.685 187.952 151.624 188.023 151.553C188.156 151.43 188.278 151.288 188.401 151.155C188.441 151.104 188.492 151.063 188.533 151.022C188.543 151.012 188.554 150.992 188.564 150.981C188.747 150.767 188.921 150.533 189.084 150.298C189.084 150.288 189.105 150.277 189.105 150.267C189.156 150.196 189.196 150.124 189.237 150.053C189.329 149.91 189.421 149.778 189.502 149.624C189.513 149.604 189.533 149.584 189.543 149.563C189.594 149.471 189.645 149.369 189.696 149.267C189.747 149.165 189.809 149.063 189.86 148.951C189.87 148.931 189.88 148.91 189.89 148.89C189.951 148.757 190.013 148.625 190.074 148.482C190.104 148.4 190.145 148.329 190.176 148.257C190.176 148.247 190.186 148.237 190.196 148.227C190.288 148.012 190.37 147.788 190.451 147.553C190.451 147.553 190.451 147.543 190.451 147.533C190.462 147.492 190.482 147.441 190.492 147.4C190.553 147.227 190.604 147.053 190.655 146.88C190.655 146.849 190.676 146.808 190.686 146.778C190.706 146.696 190.727 146.604 190.747 146.523C190.778 146.411 190.808 146.308 190.829 146.196C190.849 146.125 190.859 146.053 190.87 145.982C190.89 145.89 190.91 145.798 190.931 145.696C190.941 145.625 190.961 145.553 190.972 145.482C190.992 145.36 191.013 145.247 191.023 145.125C191.033 145.043 191.053 144.951 191.064 144.87C191.064 144.839 191.074 144.798 191.084 144.768C191.115 144.533 191.135 144.298 191.155 144.064C191.155 144.054 191.155 144.043 191.155 144.023C191.176 143.768 191.196 143.513 191.206 143.248C191.206 143.217 191.206 143.186 191.206 143.156C191.206 143.064 191.206 142.962 191.206 142.87L191.196 142.931Z" fill="#6742CF"/>
<path d="M177.264 131.143C182.025 131.626 186.056 137.529 186.251 144.316C186.447 151.113 182.745 156.213 177.973 155.73C173.202 155.247 169.181 149.354 168.986 142.557C168.791 135.77 172.482 130.66 177.264 131.143ZM177.819 150.218C180.287 150.465 182.22 147.75 182.117 144.151C182.015 140.552 179.917 137.426 177.439 137.179C174.96 136.932 173.037 139.647 173.14 143.236C173.243 146.825 175.341 149.961 177.819 150.218Z" fill="#1F123B"/>
<path d="M177.438 137.177C179.906 137.424 182.004 140.55 182.117 144.149C182.23 147.748 180.297 150.473 177.818 150.216C175.34 149.959 173.253 146.843 173.139 143.234C173.026 139.624 174.96 136.92 177.438 137.177Z" fill="#B496F2"/>
<mask id="mask13_569_27159" style="mask-type:luminance" maskUnits="userSpaceOnUse" x="237" y="181" width="7" height="3">
<path d="M242.499 181.337C243.009 181.388 243.509 181.317 243.958 181.123C242.264 181.837 240.571 182.551 238.877 183.266C238.428 183.449 237.928 183.531 237.418 183.48C238.938 182.837 240.856 181.582 242.499 181.337Z" fill="white"/>
</mask>
<g mask="url(#mask13_569_27159)">
<path d="M237.426 183.471L242.507 181.328C242.507 181.328 242.558 181.328 242.589 181.328L237.507 183.471C237.507 183.471 237.456 183.471 237.426 183.471Z" fill="#2D2D2D"/>
<path d="M237.508 183.479L242.589 181.336C242.65 181.336 242.722 181.336 242.783 181.336L237.702 183.479C237.64 183.479 237.569 183.479 237.508 183.479Z" fill="#2C2C2C"/>
<path d="M237.701 183.488L242.782 181.346C242.854 181.346 242.925 181.346 242.997 181.346L237.915 183.488C237.844 183.488 237.773 183.488 237.701 183.488Z" fill="#2B2B2B"/>
<path d="M237.906 183.478L242.987 181.335C243.059 181.335 243.13 181.325 243.212 181.314L238.131 183.457C238.059 183.457 237.988 183.478 237.906 183.478Z" fill="#292929"/>
<path d="M238.131 183.459L243.212 181.317C243.304 181.306 243.396 181.286 243.477 181.266L238.396 183.408C238.304 183.429 238.223 183.449 238.131 183.459Z" fill="#282828"/>
<path d="M238.396 183.407L243.478 181.264C243.59 181.234 243.702 181.203 243.814 181.162L238.733 183.305C238.621 183.346 238.509 183.376 238.396 183.407Z" fill="#262626"/>
<path d="M238.73 183.315L243.812 181.173C243.863 181.152 243.924 181.132 243.975 181.111L238.894 183.254C238.843 183.274 238.781 183.295 238.73 183.315Z" fill="#252525"/>
</g>
<mask id="mask14_569_27159" style="mask-type:luminance" maskUnits="userSpaceOnUse" x="232" y="168" width="11" height="16">
<path d="M237.864 174.405C237.966 177.986 240.048 181.078 242.507 181.333L237.426 183.476C234.967 183.221 232.896 180.129 232.783 176.548C234.477 175.834 236.171 175.119 237.864 174.405C236.171 175.119 234.477 175.834 232.783 176.538C232.702 173.732 233.865 171.456 235.569 170.742L240.65 168.6C238.946 169.314 237.783 171.579 237.864 174.395V174.405Z" fill="white"/>
</mask>
<g mask="url(#mask14_569_27159)">
<path d="M235.569 170.754L240.651 168.611C240.151 168.826 239.691 169.172 239.304 169.632L234.223 171.774C234.61 171.315 235.07 170.968 235.569 170.754Z" fill="#252525"/>
<path d="M234.212 171.764L239.293 169.621C239.181 169.744 239.079 169.886 238.987 170.029L233.906 172.172C234.008 172.029 234.11 171.896 234.212 171.764Z" fill="#262626"/>
<path d="M233.907 172.172L238.988 170.029C238.906 170.152 238.835 170.274 238.753 170.397L233.672 172.539C233.743 172.407 233.825 172.284 233.907 172.172Z" fill="#282828"/>
<path d="M233.672 172.539L238.753 170.396C238.692 170.509 238.62 170.631 238.569 170.754L233.488 172.896C233.549 172.774 233.611 172.651 233.672 172.539Z" fill="#292929"/>
<path d="M233.487 172.897L238.568 170.754C238.517 170.866 238.456 170.989 238.415 171.111L233.334 173.254C233.385 173.131 233.436 173.009 233.487 172.897Z" fill="#2B2B2B"/>
<path d="M233.336 173.254L238.417 171.111C238.366 171.224 238.325 171.346 238.284 171.468L233.203 173.611C233.244 173.489 233.285 173.366 233.336 173.254Z" fill="#2C2C2C"/>
<path d="M233.202 173.611L238.283 171.469C238.242 171.591 238.202 171.703 238.171 171.826L233.09 173.969C233.12 173.846 233.161 173.724 233.202 173.611Z" fill="#2D2D2D"/>
<path d="M233.09 173.969L238.171 171.826C238.14 171.949 238.11 172.071 238.079 172.193L232.998 174.336C233.029 174.214 233.059 174.091 233.09 173.969Z" fill="#2F2F2F"/>
<path d="M232.988 174.336L238.069 172.193C238.038 172.316 238.018 172.438 237.987 172.571L232.906 174.714C232.927 174.581 232.957 174.458 232.988 174.336Z" fill="#303030"/>
<path d="M232.917 174.715L237.998 172.572C237.977 172.705 237.957 172.827 237.937 172.96L232.855 175.103C232.876 174.97 232.896 174.837 232.917 174.715Z" fill="#323232"/>
<path d="M232.855 175.1L237.936 172.957C237.916 173.09 237.906 173.222 237.896 173.355L232.814 175.498C232.825 175.365 232.845 175.232 232.855 175.1Z" fill="#333333"/>
<path d="M232.813 175.508L237.894 173.365C237.884 173.508 237.874 173.641 237.874 173.784L232.793 175.926C232.793 175.783 232.803 175.641 232.813 175.508Z" fill="#353535"/>
<path d="M232.783 175.928L237.864 173.785C237.864 173.928 237.864 174.081 237.864 174.224L232.783 176.367C232.783 176.213 232.783 176.071 232.783 175.928Z" fill="#363636"/>
<path d="M232.783 176.365L237.864 174.223C237.864 174.284 237.864 174.345 237.864 174.396C237.864 174.488 237.864 174.59 237.875 174.682L232.793 176.824C232.793 176.733 232.793 176.631 232.783 176.539C232.783 176.478 232.783 176.416 232.783 176.365Z" fill="#373737"/>
<path d="M232.793 176.822L237.874 174.68C237.874 174.843 237.894 175.006 237.915 175.159L232.834 177.302C232.813 177.139 232.803 176.986 232.793 176.822Z" fill="#393939"/>
<path d="M232.834 177.315L237.915 175.172C237.936 175.345 237.956 175.509 237.987 175.682L232.905 177.825C232.875 177.661 232.854 177.488 232.834 177.315Z" fill="#3A3A3A"/>
<path d="M232.906 177.824L237.987 175.682C238.018 175.865 238.049 176.049 238.089 176.233L233.008 178.375C232.967 178.192 232.937 178.008 232.906 177.824Z" fill="#3C3C3C"/>
<path d="M233.006 178.367L238.087 176.225C238.138 176.429 238.189 176.633 238.25 176.837L233.169 178.979C233.108 178.775 233.057 178.571 233.006 178.367Z" fill="#3D3D3D"/>
<path d="M233.172 178.979L238.253 176.836C238.335 177.091 238.416 177.346 238.518 177.591L233.437 179.734C233.345 179.489 233.253 179.234 233.172 178.979Z" fill="#3E3E3E"/>
<path d="M233.436 179.734L238.517 177.592C238.853 178.439 239.302 179.183 239.823 179.785L234.742 181.928C234.211 181.326 233.762 180.581 233.436 179.734Z" fill="#404040"/>
<path d="M234.742 181.938L239.823 179.795C239.946 179.928 240.068 180.06 240.191 180.172L235.109 182.315C234.987 182.193 234.865 182.07 234.742 181.938Z" fill="#3E3E3E"/>
<path d="M235.109 182.315L240.19 180.172C240.282 180.264 240.374 180.345 240.476 180.427L235.395 182.57C235.303 182.488 235.201 182.406 235.109 182.315Z" fill="#3D3D3D"/>
<path d="M235.395 182.568L240.476 180.426C240.557 180.487 240.639 180.548 240.721 180.609L235.639 182.752C235.558 182.691 235.476 182.63 235.395 182.568Z" fill="#3C3C3C"/>
<path d="M235.631 182.754L240.712 180.611C240.783 180.662 240.855 180.713 240.926 180.754L235.845 182.897C235.774 182.856 235.702 182.805 235.631 182.754Z" fill="#3A3A3A"/>
<path d="M235.844 182.897L240.925 180.754C240.996 180.795 241.058 180.836 241.129 180.876L236.048 183.019C235.976 182.978 235.915 182.937 235.844 182.897Z" fill="#393939"/>
<path d="M236.047 183.018L241.128 180.875C241.189 180.906 241.25 180.946 241.312 180.977L236.231 183.12C236.169 183.089 236.108 183.058 236.047 183.018Z" fill="#373737"/>
<path d="M236.232 183.119L241.314 180.977C241.375 181.007 241.436 181.038 241.497 181.058L236.416 183.201C236.355 183.17 236.294 183.15 236.232 183.119Z" fill="#363636"/>
<path d="M236.426 183.201L241.507 181.059C241.568 181.079 241.629 181.11 241.68 181.13L236.599 183.273C236.538 183.252 236.477 183.232 236.426 183.201Z" fill="#353535"/>
<path d="M236.6 183.273L241.681 181.131C241.742 181.151 241.803 181.172 241.854 181.192L236.773 183.335C236.712 183.314 236.651 183.294 236.6 183.273Z" fill="#333333"/>
<path d="M236.773 183.334L241.855 181.191C241.916 181.212 241.967 181.222 242.028 181.242L236.947 183.385C236.886 183.375 236.824 183.354 236.773 183.334Z" fill="#323232"/>
<path d="M236.955 183.387L242.036 181.244C242.097 181.254 242.159 181.275 242.22 181.285L237.139 183.428C237.078 183.417 237.016 183.407 236.955 183.387Z" fill="#303030"/>
<path d="M237.129 183.428L242.21 181.285C242.271 181.295 242.332 181.306 242.394 181.316L237.313 183.458C237.251 183.458 237.19 183.438 237.129 183.428Z" fill="#2F2F2F"/>
<path d="M237.314 183.457L242.396 181.314C242.396 181.314 242.467 181.314 242.508 181.325L237.427 183.467C237.427 183.467 237.355 183.467 237.314 183.457Z" fill="#2D2D2D"/>
</g>
<mask id="mask15_569_27159" style="mask-type:luminance" maskUnits="userSpaceOnUse" x="237" y="168" width="10" height="16">
<path d="M243.979 181.108L238.898 183.251C240.592 182.536 241.765 180.271 241.683 177.445C241.581 173.874 239.5 170.772 237.041 170.527L242.122 168.385C244.571 168.63 246.652 171.731 246.765 175.302C246.846 178.118 245.673 180.394 243.979 181.108Z" fill="white"/>
</mask>
<g mask="url(#mask15_569_27159)">
<path d="M237.049 170.527L242.13 168.385C242.13 168.385 242.201 168.385 242.242 168.395L237.161 170.538C237.161 170.538 237.09 170.538 237.049 170.527Z" fill="#7C7C7C"/>
<path d="M237.15 170.537L242.232 168.395C242.293 168.395 242.354 168.415 242.415 168.425L237.334 170.568C237.273 170.558 237.212 170.547 237.15 170.537Z" fill="#808080"/>
<path d="M237.334 170.568L242.415 168.426C242.476 168.436 242.538 168.446 242.589 168.467L237.507 170.609C237.446 170.599 237.385 170.579 237.334 170.568Z" fill="#848484"/>
<path d="M237.518 170.609L242.599 168.467C242.66 168.477 242.711 168.497 242.772 168.518L237.691 170.66C237.63 170.64 237.579 170.63 237.518 170.609Z" fill="#888888"/>
<path d="M237.691 170.66L242.773 168.518C242.834 168.538 242.895 168.558 242.946 168.579L237.865 170.721C237.804 170.701 237.742 170.681 237.691 170.66Z" fill="#8C8C8C"/>
<path d="M237.865 170.721L242.946 168.578C243.008 168.599 243.069 168.619 243.12 168.65L238.039 170.792C237.977 170.772 237.916 170.741 237.865 170.721Z" fill="#909090"/>
<path d="M238.037 170.793L243.118 168.65C243.179 168.681 243.241 168.701 243.302 168.732L238.221 170.875C238.16 170.844 238.098 170.813 238.037 170.793Z" fill="#939393"/>
<path d="M238.223 170.873L243.304 168.73C243.365 168.761 243.426 168.792 243.487 168.832L238.406 170.975C238.345 170.945 238.284 170.904 238.223 170.873Z" fill="#979797"/>
<path d="M238.416 170.977L243.497 168.834C243.569 168.875 243.63 168.916 243.701 168.956L238.62 171.099C238.549 171.058 238.487 171.017 238.416 170.977Z" fill="#9B9B9B"/>
<path d="M238.619 171.098L243.7 168.955C243.772 169.006 243.843 169.047 243.915 169.098L238.833 171.241C238.762 171.19 238.691 171.139 238.619 171.098Z" fill="#9F9F9F"/>
<path d="M238.834 171.242L243.915 169.1C243.997 169.161 244.078 169.222 244.16 169.283L239.079 171.426C238.997 171.365 238.916 171.303 238.834 171.242Z" fill="#A3A3A3"/>
<path d="M239.07 171.426L244.151 169.283C244.253 169.365 244.345 169.446 244.437 169.538L239.356 171.681C239.264 171.589 239.172 171.507 239.07 171.426Z" fill="#A7A7A7"/>
<path d="M239.354 171.682L244.435 169.539C244.557 169.661 244.68 169.784 244.802 169.927L239.721 172.069C239.598 171.937 239.476 171.804 239.354 171.682Z" fill="#ABABAB"/>
<path d="M239.723 172.066L244.804 169.924C245.334 170.526 245.783 171.281 246.12 172.128L241.039 174.27C240.702 173.423 240.253 172.668 239.723 172.066Z" fill="#AFAFAF"/>
<path d="M241.037 174.272L246.118 172.129C246.21 172.374 246.302 172.629 246.373 172.884L241.292 175.027C241.211 174.771 241.129 174.516 241.037 174.272Z" fill="#ABABAB"/>
<path d="M241.303 175.027L246.384 172.885C246.445 173.089 246.496 173.283 246.547 173.497L241.466 175.64C241.415 175.436 241.364 175.231 241.303 175.027Z" fill="#A7A7A7"/>
<path d="M241.457 175.629L246.538 173.486C246.579 173.67 246.61 173.843 246.64 174.027L241.559 176.17C241.528 175.986 241.498 175.802 241.457 175.629Z" fill="#A3A3A3"/>
<path d="M241.559 176.18L246.64 174.037C246.67 174.2 246.691 174.374 246.711 174.547L241.63 176.69C241.61 176.516 241.589 176.353 241.559 176.18Z" fill="#9F9F9F"/>
<path d="M241.629 176.68L246.71 174.537C246.73 174.7 246.741 174.853 246.751 175.017L241.67 177.159C241.67 176.996 241.649 176.843 241.629 176.68Z" fill="#9B9B9B"/>
<path d="M241.672 177.158L246.753 175.016C246.753 175.107 246.753 175.209 246.763 175.301C246.763 175.363 246.763 175.424 246.763 175.475L241.682 177.617C241.682 177.556 241.682 177.495 241.682 177.444C241.682 177.352 241.682 177.25 241.672 177.158Z" fill="#979797"/>
<path d="M241.691 177.629L246.773 175.486C246.773 175.639 246.773 175.782 246.773 175.925L241.691 178.068C241.691 177.925 241.691 177.772 241.691 177.629Z" fill="#939393"/>
<path d="M241.681 178.068L246.762 175.926C246.762 176.069 246.751 176.211 246.741 176.344L241.66 178.487C241.67 178.344 241.681 178.211 241.681 178.068Z" fill="#909090"/>
<path d="M241.662 178.486L246.743 176.344C246.733 176.476 246.712 176.609 246.702 176.742L241.621 178.884C241.641 178.752 241.652 178.619 241.662 178.486Z" fill="#8C8C8C"/>
<path d="M241.61 178.883L246.691 176.74C246.671 176.873 246.65 177.006 246.63 177.128L241.549 179.271C241.569 179.138 241.59 179.016 241.61 178.883Z" fill="#888888"/>
<path d="M241.558 179.272L246.639 177.129C246.619 177.262 246.588 177.384 246.558 177.506L241.477 179.649C241.507 179.527 241.528 179.404 241.558 179.272Z" fill="#848484"/>
<path d="M241.477 179.649L246.558 177.506C246.527 177.628 246.496 177.751 246.466 177.873L241.385 180.016C241.415 179.893 241.446 179.771 241.477 179.649Z" fill="#808080"/>
<path d="M241.384 180.016L246.465 177.873C246.434 177.995 246.393 178.118 246.353 178.23L241.271 180.373C241.312 180.25 241.353 180.138 241.384 180.016Z" fill="#7C7C7C"/>
<path d="M241.273 180.385L246.354 178.242C246.314 178.365 246.273 178.487 246.222 178.599L241.141 180.742C241.192 180.63 241.232 180.507 241.273 180.385Z" fill="#787878"/>
<path d="M241.139 180.74L246.22 178.598C246.169 178.72 246.118 178.843 246.067 178.955L240.986 181.097C241.037 180.985 241.099 180.863 241.139 180.74Z" fill="#747474"/>
<path d="M240.977 181.096L246.058 178.953C245.997 179.076 245.935 179.198 245.874 179.31L240.793 181.453C240.854 181.341 240.926 181.218 240.977 181.096Z" fill="#717171"/>
<path d="M240.793 181.455L245.874 179.312C245.803 179.445 245.721 179.568 245.64 179.68L240.559 181.822C240.64 181.7 240.722 181.578 240.793 181.455Z" fill="#6D6D6D"/>
<path d="M240.558 181.822L245.639 179.68C245.537 179.823 245.435 179.955 245.333 180.088L240.252 182.23C240.364 182.108 240.466 181.965 240.558 181.822Z" fill="#696969"/>
<path d="M240.251 182.232L245.332 180.09C244.945 180.549 244.485 180.896 243.985 181.11L238.904 183.253C239.404 183.039 239.863 182.692 240.251 182.232Z" fill="#656565"/>
</g>
<mask id="mask16_569_27159" style="mask-type:luminance" maskUnits="userSpaceOnUse" x="238" y="181" width="6" height="3">
<path d="M243.958 181.123C243.958 181.123 243.958 181.123 243.968 181.123L238.887 183.266C238.887 183.266 238.887 183.266 238.877 183.266C240.571 182.551 242.264 181.837 243.958 181.123Z" fill="white"/>
</mask>
<g mask="url(#mask16_569_27159)">
<path d="M238.734 183.315L243.815 181.173C243.867 181.152 243.928 181.132 243.979 181.111L238.898 183.254C238.847 183.274 238.785 183.295 238.734 183.315Z" fill="#252525"/>
</g>
<path d="M250.874 176.244C250.874 176.101 250.874 175.958 250.874 175.815C250.874 175.703 250.874 175.601 250.874 175.489C250.874 175.315 250.864 175.132 250.853 174.958C250.843 174.775 250.823 174.591 250.802 174.407C250.802 174.326 250.792 174.244 250.782 174.173C250.782 174.142 250.782 174.101 250.782 174.071C250.751 173.754 250.7 173.438 250.649 173.132C250.649 173.111 250.649 173.091 250.639 173.071C250.619 172.969 250.598 172.867 250.578 172.765C250.537 172.55 250.496 172.336 250.456 172.122C250.445 172.071 250.425 172.02 250.415 171.969C250.374 171.785 250.323 171.601 250.272 171.418C250.231 171.275 250.2 171.122 250.16 170.979C250.149 170.938 250.129 170.897 250.119 170.846C249.986 170.418 249.854 170.01 249.69 169.602C249.69 169.602 249.69 169.581 249.68 169.571C249.527 169.193 249.364 168.826 249.19 168.459C249.139 168.347 249.068 168.234 249.017 168.122C248.895 167.877 248.772 167.643 248.639 167.418C248.568 167.285 248.486 167.163 248.405 167.041C248.282 166.837 248.15 166.643 248.017 166.449C247.925 166.316 247.833 166.204 247.742 166.082C247.609 165.908 247.476 165.735 247.333 165.571C247.293 165.52 247.252 165.459 247.211 165.408C247.15 165.337 247.078 165.275 247.017 165.204C246.895 165.071 246.772 164.939 246.64 164.816C246.589 164.765 246.538 164.704 246.487 164.653C246.395 164.571 246.303 164.49 246.211 164.408C246.15 164.357 246.089 164.296 246.027 164.245C245.997 164.214 245.966 164.184 245.936 164.163C245.783 164.041 245.63 163.918 245.476 163.806C245.446 163.786 245.405 163.755 245.374 163.735C245.344 163.714 245.303 163.684 245.272 163.663C245.201 163.612 245.13 163.561 245.058 163.521C244.926 163.439 244.793 163.357 244.66 163.276C244.63 163.255 244.599 163.245 244.568 163.225C244.548 163.214 244.517 163.194 244.497 163.184C244.436 163.153 244.364 163.112 244.303 163.082C244.181 163.021 244.058 162.97 243.946 162.919C243.885 162.888 243.813 162.868 243.752 162.837C243.732 162.837 243.711 162.817 243.691 162.806C243.66 162.796 243.63 162.786 243.599 162.766C243.487 162.725 243.364 162.684 243.252 162.643C243.14 162.612 243.028 162.572 242.905 162.541C242.895 162.541 242.885 162.541 242.875 162.541C242.864 162.541 242.854 162.541 242.844 162.541C242.752 162.521 242.66 162.5 242.558 162.48C242.436 162.459 242.324 162.439 242.201 162.419C242.13 162.419 242.058 162.398 241.987 162.388C241.936 162.388 241.885 162.388 241.824 162.378C241.691 162.378 241.569 162.357 241.436 162.357C241.385 162.357 241.334 162.357 241.283 162.357C241.242 162.357 241.212 162.357 241.171 162.357C241.12 162.357 241.069 162.357 241.028 162.357C240.885 162.357 240.732 162.378 240.589 162.398C240.569 162.398 240.548 162.398 240.528 162.408C240.477 162.408 240.426 162.429 240.375 162.439C240.273 162.459 240.161 162.47 240.059 162.5C240.008 162.51 239.957 162.531 239.906 162.541C239.804 162.572 239.702 162.592 239.6 162.633C239.538 162.653 239.467 162.664 239.406 162.684C239.293 162.725 239.181 162.766 239.079 162.806L233.998 164.949C234.171 164.878 234.345 164.816 234.518 164.765C234.62 164.735 234.722 164.704 234.824 164.674C234.978 164.633 235.141 164.602 235.294 164.571C235.345 164.571 235.396 164.551 235.447 164.541C235.661 164.51 235.875 164.49 236.09 164.49C236.13 164.49 236.161 164.49 236.202 164.49C236.437 164.49 236.671 164.49 236.906 164.52C237.192 164.551 237.477 164.602 237.763 164.674C237.773 164.674 237.783 164.674 237.794 164.674C238.069 164.745 238.345 164.827 238.61 164.929C238.63 164.929 238.651 164.949 238.671 164.959C238.926 165.061 239.171 165.173 239.426 165.306C239.446 165.316 239.477 165.337 239.497 165.347C239.732 165.48 239.967 165.622 240.202 165.775C240.232 165.796 240.273 165.826 240.304 165.847C240.528 166 240.742 166.173 240.957 166.357C241.018 166.408 241.079 166.469 241.14 166.52C241.283 166.653 241.426 166.786 241.569 166.928C241.701 167.051 241.824 167.183 241.946 167.326C242.058 167.449 242.16 167.561 242.263 167.683C242.405 167.847 242.538 168.02 242.671 168.194C242.762 168.316 242.854 168.438 242.946 168.561C243.079 168.745 243.201 168.949 243.334 169.142C243.415 169.265 243.497 169.387 243.569 169.52C243.701 169.744 243.824 169.979 243.946 170.224C244.007 170.336 244.068 170.448 244.119 170.561C244.293 170.918 244.456 171.285 244.609 171.663C244.609 171.673 244.609 171.693 244.619 171.703C244.772 172.101 244.915 172.52 245.048 172.938C245.109 173.122 245.15 173.315 245.201 173.499C245.252 173.683 245.303 173.866 245.344 174.05C245.405 174.305 245.456 174.57 245.507 174.836C245.527 174.938 245.548 175.04 245.568 175.142C245.63 175.509 245.681 175.876 245.721 176.244C245.721 176.325 245.732 176.407 245.742 176.489C245.772 176.846 245.803 177.203 245.813 177.57C245.813 177.825 245.813 178.08 245.813 178.325C245.813 178.427 245.813 178.519 245.813 178.621C245.813 178.917 245.793 179.203 245.762 179.488C245.762 179.509 245.762 179.519 245.762 179.539C245.742 179.815 245.711 180.08 245.67 180.335C245.66 180.427 245.64 180.509 245.63 180.59C245.599 180.784 245.568 180.968 245.527 181.151C245.507 181.243 245.487 181.345 245.466 181.437C245.425 181.621 245.385 181.794 245.344 181.968C245.323 182.049 245.303 182.141 245.283 182.223C245.221 182.437 245.16 182.641 245.099 182.845C245.089 182.886 245.068 182.937 245.058 182.978C244.977 183.223 244.885 183.468 244.783 183.702C244.752 183.784 244.711 183.855 244.681 183.937C244.609 184.09 244.538 184.253 244.466 184.406C244.415 184.518 244.354 184.62 244.303 184.723C244.242 184.845 244.181 184.967 244.109 185.08C244.028 185.222 243.936 185.365 243.844 185.508C243.793 185.59 243.742 185.671 243.691 185.743C243.528 185.988 243.344 186.212 243.16 186.426C243.109 186.488 243.048 186.549 242.997 186.61C242.875 186.753 242.752 186.886 242.62 187.008C242.548 187.079 242.477 187.141 242.405 187.202C242.283 187.314 242.15 187.426 242.028 187.528C241.956 187.59 241.885 187.641 241.803 187.702C241.661 187.804 241.518 187.896 241.375 187.987C241.303 188.028 241.242 188.079 241.171 188.11C240.957 188.232 240.732 188.345 240.508 188.436L245.589 186.294C245.813 186.202 246.038 186.09 246.252 185.967C246.323 185.926 246.385 185.886 246.456 185.845C246.599 185.753 246.742 185.661 246.884 185.559C246.956 185.508 247.038 185.447 247.109 185.386C247.242 185.284 247.364 185.171 247.486 185.059C247.558 184.998 247.629 184.937 247.701 184.865C247.833 184.743 247.956 184.6 248.078 184.467C248.119 184.416 248.17 184.376 248.211 184.335C248.221 184.325 248.231 184.304 248.242 184.294C248.425 184.08 248.599 183.845 248.762 183.61C248.762 183.6 248.782 183.59 248.782 183.58C248.833 183.508 248.874 183.437 248.915 183.366C249.007 183.223 249.099 183.09 249.18 182.937C249.19 182.917 249.211 182.896 249.221 182.876C249.272 182.784 249.323 182.682 249.374 182.58C249.425 182.478 249.486 182.376 249.537 182.264C249.547 182.243 249.558 182.223 249.568 182.202C249.629 182.07 249.69 181.937 249.752 181.794C249.782 181.713 249.823 181.641 249.854 181.57C249.854 181.56 249.864 181.549 249.874 181.539C249.966 181.325 250.047 181.1 250.129 180.866C250.129 180.866 250.129 180.856 250.129 180.845C250.139 180.805 250.16 180.754 250.17 180.713C250.231 180.539 250.282 180.366 250.333 180.192C250.333 180.162 250.354 180.121 250.364 180.09C250.384 180.009 250.405 179.917 250.425 179.835C250.456 179.723 250.486 179.621 250.507 179.509C250.527 179.437 250.537 179.366 250.547 179.294C250.568 179.203 250.588 179.111 250.609 179.009C250.619 178.937 250.639 178.866 250.649 178.795C250.67 178.672 250.69 178.56 250.7 178.437C250.711 178.356 250.731 178.264 250.741 178.182C250.741 178.152 250.751 178.111 250.762 178.08C250.792 177.846 250.813 177.611 250.833 177.376C250.833 177.366 250.833 177.356 250.833 177.336C250.853 177.08 250.874 176.825 250.884 176.56C250.884 176.529 250.884 176.499 250.884 176.468C250.884 176.376 250.884 176.274 250.884 176.183L250.874 176.244Z" fill="#6742CF"/>
<path d="M236.92 164.551C241.67 165.03 245.691 170.887 245.886 177.621C246.081 184.365 242.388 189.426 237.628 188.946C232.868 188.467 228.857 182.621 228.662 175.876C228.467 169.142 232.15 164.071 236.92 164.551ZM237.474 183.478C239.936 183.722 241.865 181.029 241.762 177.458C241.66 173.887 239.567 170.785 237.094 170.54C234.622 170.295 232.704 172.989 232.806 176.55C232.909 180.111 235.002 183.223 237.474 183.478Z" fill="#1F123B"/>
<path d="M237.096 170.53C239.558 170.775 241.651 173.877 241.763 177.448C241.876 181.019 239.948 183.723 237.475 183.468C235.003 183.213 232.92 180.121 232.807 176.54C232.695 172.959 234.623 170.275 237.096 170.53Z" fill="#B496F2"/>
<g clip-path="url(#clip0_569_27159)">
<mask id="mask17_569_27159" style="mask-type:luminance" maskUnits="userSpaceOnUse" x="210" y="123" width="50" height="29">
<path d="M210.641 129.933L222.517 123.025L259.697 144.493L247.81 151.39L210.641 129.933Z" fill="white"/>
</mask>
<g mask="url(#mask17_569_27159)">
<path d="M219.028 127.882L222.966 125.597L224.691 126.596C226.129 127.433 226.048 128.3 224.874 128.974C223.701 129.657 222.191 129.729 220.742 128.892L219.018 127.892M227.139 125.699L222.517 123.025L210.814 129.831L213.253 131.239L217.069 129.025L219.181 130.249C221.895 131.82 225.058 131.78 227.394 130.423C229.731 129.066 229.802 127.239 227.129 125.699" fill="#B496F2"/>
<path d="M224.567 134.81C224.567 134.81 224.567 134.81 224.557 134.81C224.557 134.81 224.557 134.81 224.547 134.81C223.792 134.371 222.578 134.371 221.853 134.81C221.088 135.238 221.098 135.952 221.853 136.391C222.608 136.83 223.812 136.82 224.557 136.381C225.302 135.942 225.282 135.248 224.557 134.83" fill="#B496F2"/>
<path d="M233.547 136.268L237.485 133.983L239.21 134.983C240.648 135.819 240.577 136.687 239.404 137.36C238.23 138.044 236.71 138.105 235.271 137.278L233.547 136.279M241.669 134.085L237.047 131.422L225.344 138.227L227.782 139.635L231.598 137.421L233.72 138.646C236.434 140.217 239.608 140.186 241.944 138.829C244.281 137.472 244.352 135.646 241.679 134.105" fill="#B496F2"/>
<path d="M249.781 138.759L247.373 137.371L235.67 144.177L238.068 145.564L249.781 138.759Z" fill="#B496F2"/>
<path d="M250.995 144.8C250.995 144.8 250.995 144.8 251.005 144.8C252.076 145.412 252.046 146.289 250.995 146.901L247.24 144.728C248.291 144.167 249.882 144.147 250.984 144.779C250.984 144.779 250.984 144.779 250.995 144.779M252.739 143.708C250.158 142.218 246.638 142.31 243.934 143.881C241.149 145.493 241.067 147.463 243.771 149.034C245.954 150.289 248.474 150.523 250.433 149.768L248.138 148.442C247.373 148.615 246.434 148.483 245.607 148.013C244.373 147.289 244.403 146.361 245.72 145.595L251.75 149.075L252.433 148.677C255.423 146.942 255.055 145.044 252.739 143.698" fill="#B496F2"/>
</g>
</g>
<defs>
<clipPath id="clip0_569_27159">
<rect width="52.4029" height="28.3645" fill="white" transform="translate(208.967 123.025)"/>
</clipPath>
</defs>
</svg>
