<svg width="351" height="265" viewBox="0 0 351 265" fill="none" xmlns="http://www.w3.org/2000/svg">
<rect x="0.859375" y="0.636719" width="350" height="264" fill="#67C7BB"/>
<path d="M201.092 129.734L313.363 191.401L274.069 220.246L167.62 158.82L162.612 155.27L161.42 152.572L201.092 129.734Z" fill="#1F1F1F"/>
<path d="M156.532 138.885C151.416 146.429 161.69 155.282 167.516 158.78L190.227 143.112C190.227 143.112 186.854 141.137 183.988 139.105C181.785 137.541 177.628 134.548 174.735 133.384C170.483 131.873 161.649 131.34 156.532 138.885Z" fill="#1F1F1F"/>
<mask id="mask0_515_14127" style="mask-type:luminance" maskUnits="userSpaceOnUse" x="223" y="141" width="8" height="3">
<path d="M228.585 141.275C229.129 141.33 229.662 141.254 230.141 141.047C228.334 141.809 226.527 142.571 224.721 143.333C224.242 143.529 223.708 143.616 223.164 143.561C224.786 142.875 226.832 141.537 228.585 141.275Z" fill="white"/>
</mask>
<g mask="url(#mask0_515_14127)">
<path d="M223.164 143.553L228.585 141.268C228.585 141.268 228.639 141.268 228.672 141.268L223.251 143.553C223.251 143.553 223.197 143.553 223.164 143.553Z" fill="#2D2D2D"/>
<path d="M223.252 143.563L228.672 141.277C228.738 141.277 228.814 141.277 228.879 141.277L223.459 143.563C223.393 143.563 223.317 143.563 223.252 143.563Z" fill="#2C2C2C"/>
<path d="M223.457 143.575L228.878 141.289C228.954 141.289 229.03 141.289 229.106 141.289L223.686 143.575C223.609 143.575 223.533 143.575 223.457 143.575Z" fill="#2B2B2B"/>
<path d="M223.688 143.575L229.108 141.289C229.184 141.289 229.26 141.278 229.348 141.268L223.927 143.553C223.851 143.553 223.775 143.575 223.688 143.575Z" fill="#292929"/>
<path d="M223.916 143.541L229.337 141.256C229.435 141.245 229.532 141.223 229.62 141.201L224.199 143.487C224.101 143.509 224.014 143.53 223.916 143.541Z" fill="#282828"/>
<path d="M224.209 143.498L229.63 141.212C229.749 141.18 229.869 141.147 229.989 141.104L224.568 143.389C224.448 143.433 224.329 143.465 224.209 143.498Z" fill="#262626"/>
<path d="M224.557 143.388L229.977 141.102C230.032 141.081 230.097 141.059 230.151 141.037L224.731 143.323C224.676 143.345 224.611 143.366 224.557 143.388Z" fill="#252525"/>
</g>
<mask id="mask1_515_14127" style="mask-type:luminance" maskUnits="userSpaceOnUse" x="218" y="127" width="11" height="17">
<path d="M223.632 133.887C223.741 137.707 225.961 141.005 228.584 141.277L223.164 143.563C220.541 143.291 218.331 139.993 218.211 136.172C220.018 135.411 221.825 134.649 223.632 133.887C221.825 134.649 220.018 135.411 218.211 136.162C218.124 133.168 219.365 130.741 221.183 129.979L226.603 127.693C224.786 128.455 223.545 130.872 223.632 133.876V133.887Z" fill="white"/>
</mask>
<g mask="url(#mask1_515_14127)">
<path d="M221.183 129.991L226.603 127.705C226.07 127.934 225.58 128.304 225.167 128.794L219.746 131.079C220.16 130.59 220.65 130.219 221.183 129.991Z" fill="#252525"/>
<path d="M219.746 131.069L225.167 128.783C225.047 128.914 224.938 129.066 224.84 129.219L219.42 131.504C219.529 131.352 219.638 131.21 219.746 131.069Z" fill="#262626"/>
<path d="M219.409 131.505L224.829 129.219C224.742 129.349 224.666 129.48 224.579 129.611L219.158 131.896C219.234 131.755 219.321 131.624 219.409 131.505Z" fill="#282828"/>
<path d="M219.169 131.895L224.589 129.609C224.524 129.729 224.448 129.86 224.393 129.99L218.973 132.276C219.038 132.145 219.103 132.015 219.169 131.895Z" fill="#292929"/>
<path d="M218.962 132.276L224.383 129.99C224.328 130.11 224.263 130.241 224.219 130.371L218.799 132.657C218.853 132.526 218.908 132.396 218.962 132.276Z" fill="#2B2B2B"/>
<path d="M218.8 132.657L224.22 130.371C224.166 130.491 224.122 130.621 224.079 130.752L218.658 133.038C218.702 132.907 218.745 132.777 218.8 132.657Z" fill="#2C2C2C"/>
<path d="M218.657 133.04L224.077 130.754C224.034 130.885 223.99 131.004 223.958 131.135L218.537 133.421C218.57 133.29 218.613 133.159 218.657 133.04Z" fill="#2D2D2D"/>
<path d="M218.537 133.421L223.958 131.135C223.925 131.265 223.893 131.396 223.86 131.527L218.439 133.812C218.472 133.682 218.505 133.551 218.537 133.421Z" fill="#2F2F2F"/>
<path d="M218.439 133.811L223.859 131.525C223.827 131.656 223.805 131.787 223.772 131.928L218.352 134.214C218.373 134.072 218.406 133.942 218.439 133.811Z" fill="#303030"/>
<path d="M218.352 134.215L223.773 131.93C223.751 132.071 223.729 132.202 223.708 132.343L218.287 134.629C218.309 134.488 218.331 134.346 218.352 134.215Z" fill="#323232"/>
<path d="M218.288 134.637L223.708 132.352C223.686 132.493 223.676 132.635 223.665 132.776L218.244 135.062C218.255 134.92 218.277 134.779 218.288 134.637Z" fill="#333333"/>
<path d="M218.242 135.063L223.663 132.777C223.652 132.93 223.641 133.071 223.641 133.224L218.221 135.509C218.221 135.357 218.232 135.205 218.242 135.063Z" fill="#353535"/>
<path d="M218.221 135.51L223.641 133.225C223.641 133.377 223.641 133.54 223.641 133.693L218.221 135.978C218.221 135.815 218.221 135.663 218.221 135.51Z" fill="#363636"/>
<path d="M218.211 135.977L223.631 133.691C223.631 133.757 223.631 133.822 223.631 133.876C223.631 133.974 223.631 134.083 223.642 134.181L218.222 136.467C218.222 136.369 218.222 136.26 218.211 136.162C218.211 136.097 218.211 136.032 218.211 135.977Z" fill="#373737"/>
<path d="M218.232 136.479L223.653 134.193C223.653 134.368 223.675 134.542 223.697 134.705L218.276 136.991C218.254 136.817 218.243 136.653 218.232 136.479Z" fill="#393939"/>
<path d="M218.275 136.989L223.696 134.703C223.718 134.888 223.739 135.062 223.772 135.247L218.352 137.533C218.319 137.359 218.297 137.174 218.275 136.989Z" fill="#3A3A3A"/>
<path d="M218.342 137.534L223.762 135.248C223.795 135.444 223.828 135.64 223.871 135.836L218.451 138.122C218.407 137.926 218.374 137.73 218.342 137.534Z" fill="#3C3C3C"/>
<path d="M218.461 138.122L223.881 135.836C223.936 136.054 223.99 136.271 224.056 136.489L218.635 138.775C218.57 138.557 218.515 138.339 218.461 138.122Z" fill="#3D3D3D"/>
<path d="M218.625 138.764L224.046 136.479C224.133 136.751 224.22 137.023 224.329 137.284L218.908 139.57C218.81 139.309 218.712 139.036 218.625 138.764Z" fill="#3E3E3E"/>
<path d="M218.906 139.581L224.327 137.295C224.686 138.198 225.165 138.993 225.72 139.635L220.299 141.921C219.733 141.279 219.255 140.484 218.906 139.581Z" fill="#404040"/>
<path d="M220.301 141.921L225.721 139.635C225.852 139.776 225.983 139.918 226.113 140.037L220.693 142.323C220.562 142.193 220.431 142.062 220.301 141.921Z" fill="#3E3E3E"/>
<path d="M220.693 142.323L226.114 140.037C226.212 140.135 226.31 140.222 226.419 140.309L220.998 142.595C220.9 142.508 220.791 142.421 220.693 142.323Z" fill="#3D3D3D"/>
<path d="M220.996 142.594L226.417 140.309C226.504 140.374 226.591 140.439 226.678 140.505L221.257 142.79C221.17 142.725 221.083 142.66 220.996 142.594Z" fill="#3C3C3C"/>
<path d="M221.248 142.792L226.669 140.506C226.745 140.56 226.821 140.615 226.897 140.658L221.477 142.944C221.4 142.9 221.324 142.846 221.248 142.792Z" fill="#3A3A3A"/>
<path d="M221.477 142.944L226.897 140.658C226.973 140.702 227.039 140.745 227.115 140.789L221.694 143.075C221.618 143.031 221.553 142.988 221.477 142.944Z" fill="#393939"/>
<path d="M221.693 143.073L227.114 140.787C227.179 140.82 227.245 140.863 227.31 140.896L221.889 143.182C221.824 143.149 221.759 143.116 221.693 143.073Z" fill="#373737"/>
<path d="M221.9 143.182L227.321 140.896C227.386 140.929 227.452 140.962 227.517 140.984L222.096 143.269C222.031 143.237 221.966 143.215 221.9 143.182Z" fill="#363636"/>
<path d="M222.098 143.282L227.518 140.996C227.584 141.018 227.649 141.051 227.703 141.072L222.283 143.358C222.217 143.336 222.152 143.315 222.098 143.282Z" fill="#353535"/>
<path d="M222.281 143.356L227.702 141.07C227.767 141.092 227.832 141.114 227.887 141.136L222.466 143.421C222.401 143.4 222.336 143.378 222.281 143.356Z" fill="#333333"/>
<path d="M222.479 143.411L227.899 141.125C227.964 141.147 228.019 141.158 228.084 141.179L222.664 143.465C222.598 143.454 222.533 143.433 222.479 143.411Z" fill="#323232"/>
<path d="M222.662 143.467L228.083 141.182C228.148 141.193 228.213 141.214 228.279 141.225L222.858 143.511C222.793 143.5 222.727 143.489 222.662 143.467Z" fill="#303030"/>
<path d="M222.848 143.51L228.268 141.225C228.334 141.235 228.399 141.246 228.464 141.257L223.044 143.543C222.978 143.543 222.913 143.521 222.848 143.51Z" fill="#2F2F2F"/>
<path d="M223.045 143.542L228.465 141.256C228.465 141.256 228.542 141.256 228.585 141.267L223.165 143.553C223.165 143.553 223.088 143.553 223.045 143.542Z" fill="#2D2D2D"/>
</g>
<mask id="mask2_515_14127" style="mask-type:luminance" maskUnits="userSpaceOnUse" x="222" y="127" width="12" height="17">
<path d="M230.152 141.04L224.731 143.326C226.538 142.564 227.79 140.147 227.703 137.132C227.594 133.323 225.373 130.014 222.75 129.753L228.171 127.467C230.783 127.728 233.003 131.037 233.123 134.847C233.21 137.851 231.958 140.278 230.152 141.04Z" fill="white"/>
</mask>
<g mask="url(#mask2_515_14127)">
<path d="M222.762 129.753L228.182 127.467C228.182 127.467 228.258 127.467 228.302 127.478L222.881 129.763C222.881 129.763 222.805 129.763 222.762 129.753Z" fill="#7C7C7C"/>
<path d="M222.881 129.774L228.301 127.488C228.367 127.488 228.432 127.51 228.497 127.521L223.077 129.807C223.011 129.796 222.946 129.785 222.881 129.774Z" fill="#808080"/>
<path d="M223.066 129.796L228.487 127.51C228.552 127.521 228.618 127.532 228.672 127.553L223.251 129.839C223.186 129.828 223.121 129.806 223.066 129.796Z" fill="#848484"/>
<path d="M223.262 129.84L228.682 127.555C228.748 127.566 228.802 127.587 228.867 127.609L223.447 129.895C223.381 129.873 223.327 129.862 223.262 129.84Z" fill="#888888"/>
<path d="M223.447 129.895L228.868 127.609C228.933 127.631 228.998 127.653 229.053 127.675L223.632 129.96C223.567 129.939 223.502 129.917 223.447 129.895Z" fill="#8C8C8C"/>
<path d="M223.633 129.96L229.053 127.674C229.119 127.696 229.184 127.717 229.238 127.75L223.818 130.036C223.753 130.014 223.687 129.981 223.633 129.96Z" fill="#909090"/>
<path d="M223.828 130.036L229.249 127.75C229.314 127.783 229.379 127.804 229.445 127.837L224.024 130.123C223.959 130.09 223.893 130.058 223.828 130.036Z" fill="#939393"/>
<path d="M224.025 130.122L229.446 127.836C229.511 127.869 229.577 127.901 229.642 127.945L224.221 130.231C224.156 130.198 224.091 130.154 224.025 130.122Z" fill="#979797"/>
<path d="M224.221 130.231L229.641 127.945C229.717 127.989 229.783 128.032 229.859 128.076L224.438 130.362C224.362 130.318 224.297 130.275 224.221 130.231Z" fill="#9B9B9B"/>
<path d="M224.438 130.362L229.858 128.076C229.934 128.131 230.01 128.174 230.087 128.229L224.666 130.514C224.59 130.46 224.514 130.405 224.438 130.362Z" fill="#9F9F9F"/>
<path d="M224.666 130.514L230.087 128.229C230.174 128.294 230.261 128.359 230.348 128.424L224.927 130.71C224.84 130.645 224.753 130.58 224.666 130.514Z" fill="#A3A3A3"/>
<path d="M224.928 130.721L230.348 128.436C230.457 128.523 230.555 128.61 230.653 128.708L225.233 130.993C225.135 130.895 225.037 130.808 224.928 130.721Z" fill="#A7A7A7"/>
<path d="M225.232 130.983L230.653 128.697C230.784 128.828 230.914 128.958 231.045 129.111L225.624 131.397C225.494 131.255 225.363 131.114 225.232 130.983Z" fill="#ABABAB"/>
<path d="M225.625 131.395L231.046 129.109C231.612 129.752 232.09 130.557 232.45 131.46L227.029 133.746C226.67 132.843 226.191 132.037 225.625 131.395Z" fill="#AFAFAF"/>
<path d="M227.018 133.747L232.438 131.461C232.536 131.722 232.634 131.994 232.71 132.266L227.29 134.552C227.203 134.28 227.116 134.008 227.018 133.747Z" fill="#ABABAB"/>
<path d="M227.301 134.553L232.721 132.268C232.787 132.485 232.841 132.692 232.895 132.921L227.475 135.206C227.421 134.989 227.366 134.771 227.301 134.553Z" fill="#A7A7A7"/>
<path d="M227.465 135.194L232.885 132.908C232.929 133.104 232.962 133.289 232.994 133.485L227.574 135.771C227.541 135.575 227.508 135.379 227.465 135.194Z" fill="#A3A3A3"/>
<path d="M227.584 135.782L233.005 133.496C233.037 133.67 233.059 133.855 233.081 134.04L227.66 136.326C227.638 136.141 227.617 135.967 227.584 135.782Z" fill="#9F9F9F"/>
<path d="M227.66 136.315L233.081 134.029C233.102 134.203 233.113 134.367 233.124 134.541L227.704 136.827C227.704 136.652 227.682 136.489 227.66 136.315Z" fill="#9B9B9B"/>
<path d="M227.693 136.839L233.114 134.553C233.114 134.651 233.114 134.76 233.125 134.858C233.125 134.923 233.125 134.988 233.125 135.043L227.704 137.328C227.704 137.263 227.704 137.198 227.704 137.143C227.704 137.045 227.704 136.936 227.693 136.839Z" fill="#979797"/>
<path d="M227.715 137.329L233.135 135.043C233.135 135.206 233.135 135.359 233.135 135.511L227.715 137.797C227.715 137.644 227.715 137.481 227.715 137.329Z" fill="#939393"/>
<path d="M227.703 137.797L233.124 135.512C233.124 135.664 233.113 135.816 233.102 135.958L227.682 138.244C227.693 138.091 227.703 137.95 227.703 137.797Z" fill="#909090"/>
<path d="M227.682 138.243L233.103 135.957C233.092 136.099 233.07 136.24 233.059 136.382L227.639 138.667C227.66 138.526 227.671 138.384 227.682 138.243Z" fill="#8C8C8C"/>
<path d="M227.638 138.667L233.058 136.381C233.036 136.522 233.015 136.664 232.993 136.794L227.572 139.08C227.594 138.939 227.616 138.808 227.638 138.667Z" fill="#888888"/>
<path d="M227.573 139.092L232.994 136.807C232.972 136.948 232.94 137.079 232.907 137.209L227.486 139.495C227.519 139.365 227.541 139.234 227.573 139.092Z" fill="#848484"/>
<path d="M227.485 139.493L232.905 137.207C232.873 137.338 232.84 137.468 232.807 137.599L227.387 139.885C227.419 139.754 227.452 139.623 227.485 139.493Z" fill="#808080"/>
<path d="M227.387 139.887L232.808 137.602C232.775 137.732 232.732 137.863 232.688 137.983L227.268 140.268C227.311 140.138 227.355 140.018 227.387 139.887Z" fill="#7C7C7C"/>
<path d="M227.268 140.268L232.689 137.982C232.645 138.113 232.602 138.244 232.547 138.363L227.127 140.649C227.181 140.529 227.225 140.399 227.268 140.268Z" fill="#787878"/>
<path d="M227.126 140.647L232.547 138.361C232.492 138.492 232.438 138.623 232.383 138.742L226.963 141.028C227.017 140.908 227.083 140.778 227.126 140.647Z" fill="#747474"/>
<path d="M226.952 141.028L232.372 138.742C232.307 138.873 232.242 139.003 232.176 139.123L226.756 141.409C226.821 141.289 226.897 141.159 226.952 141.028Z" fill="#717171"/>
<path d="M226.756 141.411L232.177 139.125C232.101 139.267 232.013 139.397 231.926 139.517L226.506 141.803C226.593 141.672 226.68 141.541 226.756 141.411Z" fill="#6D6D6D"/>
<path d="M226.506 141.813L231.927 139.527C231.818 139.68 231.709 139.821 231.6 139.963L226.18 142.249C226.299 142.118 226.408 141.966 226.506 141.813Z" fill="#696969"/>
<path d="M226.179 142.239L231.6 139.953C231.186 140.443 230.696 140.813 230.163 141.042L224.742 143.327C225.276 143.099 225.765 142.729 226.179 142.239Z" fill="#656565"/>
</g>
<mask id="mask3_515_14127" style="mask-type:luminance" maskUnits="userSpaceOnUse" x="224" y="141" width="7" height="3">
<path d="M230.141 141.047C230.141 141.047 230.141 141.047 230.152 141.047L224.732 143.333C224.732 143.333 224.732 143.333 224.721 143.333C226.528 142.571 228.334 141.809 230.141 141.047Z" fill="white"/>
</mask>
<g mask="url(#mask3_515_14127)">
<path d="M224.557 143.388L229.977 141.102C230.032 141.081 230.097 141.059 230.151 141.037L224.731 143.323C224.676 143.345 224.611 143.366 224.557 143.388Z" fill="#252525"/>
</g>
<path d="M237.511 135.847C237.511 135.695 237.511 135.542 237.511 135.39C237.511 135.27 237.511 135.161 237.511 135.042C237.511 134.857 237.5 134.661 237.489 134.476C237.478 134.28 237.457 134.084 237.435 133.888C237.435 133.801 237.424 133.714 237.413 133.638C237.413 133.605 237.413 133.561 237.413 133.529C237.38 133.191 237.326 132.854 237.272 132.527C237.272 132.506 237.272 132.484 237.261 132.462C237.239 132.353 237.217 132.244 237.195 132.136C237.152 131.907 237.108 131.678 237.065 131.45C237.054 131.395 237.032 131.341 237.021 131.287C236.978 131.091 236.923 130.895 236.869 130.699C236.825 130.546 236.793 130.383 236.749 130.231C236.738 130.187 236.716 130.144 236.706 130.089C236.564 129.632 236.423 129.197 236.248 128.761C236.248 128.761 236.248 128.74 236.237 128.729C236.074 128.326 235.9 127.934 235.715 127.542C235.661 127.422 235.584 127.303 235.53 127.183C235.399 126.922 235.269 126.671 235.127 126.432C235.051 126.29 234.964 126.16 234.877 126.029C234.746 125.812 234.605 125.605 234.463 125.398C234.365 125.256 234.267 125.137 234.169 125.006C234.028 124.821 233.886 124.636 233.734 124.462C233.69 124.407 233.647 124.342 233.603 124.288C233.538 124.212 233.462 124.146 233.397 124.07C233.266 123.929 233.135 123.787 232.994 123.656C232.939 123.602 232.885 123.537 232.831 123.482C232.733 123.395 232.635 123.308 232.537 123.221C232.471 123.167 232.406 123.101 232.341 123.047C232.308 123.014 232.275 122.982 232.243 122.96C232.08 122.829 231.916 122.699 231.753 122.579C231.72 122.557 231.677 122.524 231.644 122.503C231.612 122.481 231.568 122.448 231.535 122.426C231.459 122.372 231.383 122.318 231.307 122.274C231.165 122.187 231.024 122.1 230.882 122.013C230.85 121.991 230.817 121.98 230.784 121.958C230.763 121.948 230.73 121.926 230.708 121.915C230.643 121.882 230.567 121.839 230.501 121.806C230.371 121.741 230.24 121.686 230.12 121.632C230.055 121.599 229.979 121.577 229.914 121.545C229.892 121.545 229.87 121.523 229.848 121.512C229.816 121.501 229.783 121.49 229.75 121.469C229.631 121.425 229.5 121.382 229.38 121.338C229.26 121.305 229.141 121.262 229.01 121.229C228.999 121.229 228.988 121.229 228.977 121.229C228.967 121.229 228.956 121.229 228.945 121.229C228.847 121.207 228.749 121.186 228.64 121.164C228.509 121.142 228.39 121.12 228.259 121.099C228.183 121.099 228.107 121.077 228.03 121.066C227.976 121.066 227.922 121.066 227.856 121.055C227.715 121.055 227.584 121.033 227.443 121.033C227.388 121.033 227.334 121.033 227.279 121.033C227.236 121.033 227.203 121.033 227.16 121.033C227.105 121.033 227.051 121.033 227.007 121.033C226.855 121.033 226.692 121.055 226.539 121.077C226.518 121.077 226.496 121.077 226.474 121.088C226.42 121.088 226.365 121.109 226.311 121.12C226.202 121.142 226.082 121.153 225.973 121.186C225.919 121.196 225.864 121.218 225.81 121.229C225.701 121.262 225.592 121.284 225.483 121.327C225.418 121.349 225.342 121.36 225.277 121.382C225.157 121.425 225.037 121.469 224.928 121.512L219.508 123.798C219.693 123.722 219.878 123.656 220.063 123.602C220.172 123.569 220.281 123.537 220.389 123.504C220.553 123.46 220.727 123.428 220.89 123.395C220.945 123.395 220.999 123.373 221.053 123.363C221.282 123.33 221.511 123.308 221.739 123.308C221.783 123.308 221.815 123.308 221.859 123.308C222.109 123.308 222.36 123.308 222.61 123.341C222.915 123.373 223.219 123.428 223.524 123.504C223.535 123.504 223.546 123.504 223.557 123.504C223.851 123.58 224.145 123.667 224.428 123.776C224.449 123.776 224.471 123.798 224.493 123.809C224.765 123.918 225.026 124.037 225.298 124.179C225.32 124.19 225.353 124.212 225.375 124.222C225.625 124.364 225.875 124.516 226.126 124.68C226.158 124.701 226.202 124.734 226.235 124.756C226.474 124.919 226.703 125.104 226.931 125.3C226.996 125.354 227.062 125.42 227.127 125.474C227.279 125.616 227.432 125.757 227.584 125.91C227.726 126.04 227.856 126.182 227.987 126.334C228.107 126.465 228.216 126.584 228.324 126.715C228.477 126.889 228.618 127.074 228.76 127.259C228.858 127.39 228.956 127.52 229.054 127.651C229.195 127.847 229.326 128.065 229.467 128.271C229.554 128.402 229.641 128.533 229.718 128.674C229.859 128.914 229.99 129.164 230.12 129.425C230.186 129.545 230.251 129.665 230.305 129.784C230.49 130.165 230.665 130.557 230.828 130.96C230.828 130.971 230.828 130.993 230.839 131.004C231.002 131.428 231.154 131.874 231.296 132.321C231.361 132.516 231.405 132.723 231.459 132.919C231.514 133.115 231.568 133.311 231.612 133.507C231.677 133.779 231.731 134.062 231.786 134.345C231.807 134.454 231.829 134.563 231.851 134.672C231.916 135.063 231.971 135.455 232.014 135.847C232.014 135.934 232.025 136.021 232.036 136.108C232.069 136.489 232.101 136.87 232.112 137.262C232.112 137.534 232.112 137.806 232.112 138.068C232.112 138.176 232.112 138.274 232.112 138.383C232.112 138.699 232.09 139.004 232.058 139.308C232.058 139.33 232.058 139.341 232.058 139.363C232.036 139.657 232.003 139.94 231.96 140.212C231.949 140.31 231.927 140.397 231.916 140.484C231.884 140.691 231.851 140.887 231.807 141.083C231.786 141.181 231.764 141.289 231.742 141.387C231.699 141.583 231.655 141.768 231.612 141.953C231.59 142.041 231.568 142.138 231.546 142.226C231.481 142.454 231.416 142.672 231.35 142.89C231.339 142.933 231.318 142.987 231.307 143.031C231.22 143.292 231.122 143.553 231.013 143.804C230.98 143.891 230.937 143.967 230.904 144.054C230.828 144.217 230.752 144.392 230.675 144.555C230.621 144.675 230.556 144.783 230.501 144.892C230.436 145.023 230.371 145.154 230.294 145.273C230.207 145.426 230.109 145.578 230.011 145.73C229.957 145.818 229.903 145.905 229.848 145.981C229.674 146.242 229.478 146.481 229.282 146.71C229.228 146.775 229.162 146.841 229.108 146.906C228.977 147.058 228.847 147.2 228.705 147.33C228.629 147.407 228.553 147.472 228.477 147.537C228.346 147.657 228.205 147.777 228.074 147.886C227.998 147.951 227.922 148.005 227.835 148.071C227.682 148.179 227.53 148.277 227.377 148.375C227.301 148.419 227.236 148.473 227.16 148.506C226.931 148.637 226.692 148.756 226.452 148.854L231.873 146.569C232.112 146.471 232.352 146.351 232.58 146.22C232.656 146.177 232.722 146.133 232.798 146.09C232.95 145.992 233.103 145.894 233.255 145.785C233.331 145.73 233.418 145.665 233.495 145.6C233.636 145.491 233.767 145.371 233.897 145.252C233.973 145.186 234.05 145.121 234.126 145.045C234.267 144.914 234.398 144.762 234.529 144.62C234.572 144.566 234.627 144.522 234.67 144.479C234.681 144.468 234.692 144.446 234.703 144.435C234.899 144.207 235.084 143.956 235.258 143.706C235.258 143.695 235.28 143.684 235.28 143.673C235.334 143.597 235.378 143.521 235.421 143.445C235.519 143.292 235.617 143.151 235.704 142.987C235.715 142.966 235.737 142.944 235.748 142.922C235.802 142.824 235.857 142.715 235.911 142.607C235.965 142.498 236.031 142.389 236.085 142.269C236.096 142.247 236.107 142.226 236.118 142.204C236.183 142.062 236.248 141.921 236.314 141.768C236.346 141.681 236.39 141.605 236.423 141.529C236.423 141.518 236.433 141.507 236.444 141.496C236.542 141.268 236.629 141.028 236.716 140.778C236.716 140.778 236.716 140.767 236.716 140.756C236.727 140.713 236.749 140.658 236.76 140.615C236.825 140.43 236.88 140.245 236.934 140.06C236.934 140.027 236.956 139.983 236.967 139.951C236.989 139.864 237.01 139.766 237.032 139.679C237.065 139.559 237.097 139.45 237.119 139.33C237.141 139.254 237.152 139.178 237.163 139.102C237.184 139.004 237.206 138.906 237.228 138.797C237.239 138.721 237.261 138.645 237.272 138.568C237.293 138.438 237.315 138.318 237.326 138.187C237.337 138.1 237.359 138.002 237.369 137.915C237.369 137.883 237.38 137.839 237.391 137.806C237.424 137.556 237.446 137.306 237.467 137.055C237.467 137.044 237.467 137.034 237.467 137.012C237.489 136.74 237.511 136.468 237.522 136.185C237.522 136.152 237.522 136.119 237.522 136.087C237.522 135.989 237.522 135.88 237.522 135.782L237.511 135.847Z" fill="#6742CF"/>
<path d="M222.717 123.208C227.837 123.722 232.172 130.01 232.382 137.239C232.592 144.48 228.611 149.913 223.48 149.398C218.349 148.883 214.025 142.607 213.815 135.366C213.604 128.137 217.575 122.693 222.717 123.208ZM223.314 143.527C225.968 143.79 228.047 140.898 227.937 137.064C227.826 133.23 225.57 129.9 222.905 129.637C220.24 129.375 218.172 132.266 218.282 136.089C218.393 139.912 220.649 143.253 223.314 143.527Z" fill="#1F1F1F"/>
<path d="M222.762 129.752C225.374 130.014 227.595 133.322 227.714 137.132C227.834 140.942 225.788 143.826 223.165 143.554C220.541 143.282 218.332 139.984 218.212 136.163C218.092 132.343 220.139 129.48 222.762 129.752Z" fill="#1F1F1F"/>
<mask id="mask4_515_14127" style="mask-type:luminance" maskUnits="userSpaceOnUse" x="283" y="173" width="8" height="4">
<path d="M288.993 174.182C289.537 174.236 290.07 174.16 290.549 173.953C288.742 174.715 286.936 175.477 285.129 176.239C284.65 176.435 284.116 176.522 283.572 176.467C285.194 175.782 287.24 174.443 288.993 174.182Z" fill="white"/>
</mask>
<g mask="url(#mask4_515_14127)">
<path d="M283.572 176.469L288.993 174.184C288.993 174.184 289.047 174.184 289.08 174.184L283.659 176.469C283.659 176.469 283.605 176.469 283.572 176.469Z" fill="#2D2D2D"/>
<path d="M283.66 176.469L289.081 174.184C289.146 174.184 289.222 174.184 289.288 174.184L283.867 176.469C283.802 176.469 283.725 176.469 283.66 176.469Z" fill="#2C2C2C"/>
<path d="M283.865 176.479L289.286 174.193C289.362 174.193 289.438 174.193 289.514 174.193L284.094 176.479C284.018 176.479 283.941 176.479 283.865 176.479Z" fill="#2B2B2B"/>
<path d="M284.096 176.481L289.516 174.196C289.592 174.196 289.669 174.185 289.756 174.174L284.335 176.46C284.259 176.46 284.183 176.481 284.096 176.481Z" fill="#292929"/>
<path d="M284.324 176.457L289.745 174.172C289.843 174.161 289.941 174.139 290.028 174.117L284.607 176.403C284.509 176.425 284.422 176.446 284.324 176.457Z" fill="#282828"/>
<path d="M284.617 176.404L290.038 174.119C290.157 174.086 290.277 174.053 290.397 174.01L284.976 176.296C284.857 176.339 284.737 176.372 284.617 176.404Z" fill="#262626"/>
<path d="M284.965 176.294L290.385 174.009C290.44 173.987 290.505 173.965 290.56 173.943L285.139 176.229C285.085 176.251 285.019 176.273 284.965 176.294Z" fill="#252525"/>
</g>
<mask id="mask5_515_14127" style="mask-type:luminance" maskUnits="userSpaceOnUse" x="278" y="160" width="11" height="17">
<path d="M284.042 166.793C284.151 170.613 286.371 173.912 288.995 174.184L283.574 176.469C280.951 176.197 278.741 172.899 278.621 169.079C280.428 168.317 282.235 167.555 284.042 166.793C282.235 167.555 280.428 168.317 278.621 169.068C278.534 166.075 279.775 163.647 281.593 162.885L287.014 160.6C285.196 161.362 283.955 163.778 284.042 166.782V166.793Z" fill="white"/>
</mask>
<g mask="url(#mask5_515_14127)">
<path d="M281.595 162.897L287.016 160.611C286.482 160.84 285.992 161.21 285.579 161.7L280.158 163.986C280.572 163.496 281.062 163.126 281.595 162.897Z" fill="#252525"/>
<path d="M280.159 163.975L285.579 161.689C285.459 161.82 285.351 161.972 285.253 162.125L279.832 164.411C279.941 164.258 280.05 164.117 280.159 163.975Z" fill="#262626"/>
<path d="M279.821 164.411L285.241 162.125C285.154 162.256 285.078 162.386 284.991 162.517L279.57 164.803C279.647 164.661 279.734 164.531 279.821 164.411Z" fill="#282828"/>
<path d="M279.581 164.801L285.001 162.516C284.936 162.635 284.86 162.766 284.805 162.897L279.385 165.182C279.45 165.052 279.515 164.921 279.581 164.801Z" fill="#292929"/>
<path d="M279.374 165.182L284.795 162.896C284.74 163.016 284.675 163.147 284.631 163.277L279.211 165.563C279.265 165.433 279.32 165.302 279.374 165.182Z" fill="#2B2B2B"/>
<path d="M279.212 165.563L284.632 163.277C284.578 163.397 284.534 163.528 284.491 163.658L279.07 165.944C279.114 165.813 279.157 165.683 279.212 165.563Z" fill="#2C2C2C"/>
<path d="M279.069 165.946L284.489 163.66C284.446 163.791 284.402 163.911 284.37 164.041L278.949 166.327C278.982 166.196 279.025 166.066 279.069 165.946Z" fill="#2D2D2D"/>
<path d="M278.95 166.327L284.37 164.041C284.337 164.172 284.305 164.302 284.272 164.433L278.852 166.719C278.884 166.588 278.917 166.457 278.95 166.327Z" fill="#2F2F2F"/>
<path d="M278.851 166.727L284.271 164.441C284.239 164.572 284.217 164.703 284.184 164.844L278.764 167.13C278.785 166.988 278.818 166.858 278.851 166.727Z" fill="#303030"/>
<path d="M278.765 167.131L284.185 164.846C284.163 164.987 284.142 165.118 284.12 165.259L278.699 167.545C278.721 167.404 278.743 167.262 278.765 167.131Z" fill="#323232"/>
<path d="M278.7 167.544L284.12 165.258C284.099 165.399 284.088 165.541 284.077 165.682L278.656 167.968C278.667 167.827 278.689 167.685 278.7 167.544Z" fill="#333333"/>
<path d="M278.655 167.969L284.075 165.684C284.064 165.836 284.053 165.977 284.053 166.13L278.633 168.416C278.633 168.263 278.644 168.111 278.655 167.969Z" fill="#353535"/>
<path d="M278.633 168.417L284.053 166.131C284.053 166.283 284.053 166.447 284.053 166.599L278.633 168.885C278.633 168.721 278.633 168.569 278.633 168.417Z" fill="#363636"/>
<path d="M278.623 168.883L284.044 166.598C284.044 166.663 284.044 166.728 284.044 166.783C284.044 166.881 284.044 166.989 284.054 167.087L278.634 169.373C278.634 169.275 278.634 169.166 278.623 169.068C278.623 169.003 278.623 168.938 278.623 168.883Z" fill="#373737"/>
<path d="M278.645 169.385L284.065 167.1C284.065 167.274 284.087 167.448 284.109 167.611L278.688 169.897C278.666 169.723 278.655 169.56 278.645 169.385Z" fill="#393939"/>
<path d="M278.688 169.895L284.108 167.609C284.13 167.794 284.152 167.969 284.184 168.154L278.764 170.439C278.731 170.265 278.709 170.08 278.688 169.895Z" fill="#3A3A3A"/>
<path d="M278.754 170.44L284.174 168.154C284.207 168.35 284.24 168.546 284.283 168.742L278.863 171.028C278.819 170.832 278.787 170.636 278.754 170.44Z" fill="#3C3C3C"/>
<path d="M278.873 171.028L284.294 168.742C284.348 168.96 284.402 169.178 284.468 169.395L279.047 171.681C278.982 171.463 278.927 171.246 278.873 171.028Z" fill="#3D3D3D"/>
<path d="M279.037 171.682L284.458 169.396C284.545 169.669 284.632 169.941 284.741 170.202L279.32 172.488C279.222 172.226 279.124 171.954 279.037 171.682Z" fill="#3E3E3E"/>
<path d="M279.318 172.487L284.739 170.201C285.098 171.105 285.577 171.899 286.132 172.541L280.712 174.827C280.146 174.185 279.667 173.39 279.318 172.487Z" fill="#404040"/>
<path d="M280.713 174.827L286.133 172.541C286.264 172.683 286.395 172.824 286.525 172.944L281.105 175.23C280.974 175.099 280.844 174.968 280.713 174.827Z" fill="#3E3E3E"/>
<path d="M281.105 175.229L286.526 172.943C286.624 173.041 286.722 173.128 286.831 173.215L281.41 175.501C281.312 175.414 281.203 175.327 281.105 175.229Z" fill="#3D3D3D"/>
<path d="M281.408 175.501L286.829 173.215C286.916 173.28 287.003 173.345 287.09 173.411L281.669 175.697C281.582 175.631 281.495 175.566 281.408 175.501Z" fill="#3C3C3C"/>
<path d="M281.66 175.698L287.081 173.412C287.157 173.467 287.233 173.521 287.309 173.564L281.889 175.85C281.813 175.807 281.736 175.752 281.66 175.698Z" fill="#3A3A3A"/>
<path d="M281.889 175.86L287.309 173.574C287.385 173.618 287.451 173.661 287.527 173.705L282.106 175.991C282.03 175.947 281.965 175.904 281.889 175.86Z" fill="#393939"/>
<path d="M282.105 175.991L287.526 173.705C287.591 173.738 287.657 173.781 287.722 173.814L282.301 176.1C282.236 176.067 282.171 176.034 282.105 175.991Z" fill="#373737"/>
<path d="M282.312 176.089L287.733 173.803C287.798 173.835 287.864 173.868 287.929 173.89L282.508 176.176C282.443 176.143 282.378 176.121 282.312 176.089Z" fill="#363636"/>
<path d="M282.51 176.188L287.93 173.902C287.996 173.924 288.061 173.957 288.115 173.979L282.695 176.264C282.63 176.243 282.564 176.221 282.51 176.188Z" fill="#353535"/>
<path d="M282.693 176.262L288.114 173.977C288.179 173.998 288.245 174.02 288.299 174.042L282.878 176.328C282.813 176.306 282.748 176.284 282.693 176.262Z" fill="#333333"/>
<path d="M282.891 176.317L288.311 174.031C288.376 174.053 288.431 174.064 288.496 174.086L283.076 176.371C283.01 176.361 282.945 176.339 282.891 176.317Z" fill="#323232"/>
<path d="M283.074 176.374L288.495 174.088C288.56 174.099 288.625 174.121 288.691 174.131L283.27 176.417C283.205 176.406 283.14 176.395 283.074 176.374Z" fill="#303030"/>
<path d="M283.26 176.417L288.68 174.131C288.746 174.142 288.811 174.153 288.876 174.164L283.456 176.449C283.39 176.449 283.325 176.428 283.26 176.417Z" fill="#2F2F2F"/>
<path d="M283.457 176.448L288.878 174.162C288.878 174.162 288.954 174.162 288.997 174.173L283.577 176.459C283.577 176.459 283.501 176.459 283.457 176.448Z" fill="#2D2D2D"/>
</g>
<mask id="mask6_515_14127" style="mask-type:luminance" maskUnits="userSpaceOnUse" x="283" y="160" width="11" height="17">
<path d="M290.562 173.954L285.141 176.24C286.948 175.478 288.2 173.061 288.113 170.046C288.004 166.237 285.783 162.928 283.16 162.667L288.581 160.381C291.193 160.642 293.413 163.951 293.533 167.761C293.62 170.765 292.369 173.192 290.562 173.954Z" fill="white"/>
</mask>
<g mask="url(#mask6_515_14127)">
<path d="M283.17 162.657L288.59 160.371C288.59 160.371 288.667 160.371 288.71 160.382L283.29 162.668C283.29 162.668 283.213 162.668 283.17 162.657Z" fill="#7C7C7C"/>
<path d="M283.289 162.678L288.71 160.393C288.775 160.393 288.84 160.414 288.906 160.425L283.485 162.711C283.42 162.7 283.354 162.689 283.289 162.678Z" fill="#808080"/>
<path d="M283.475 162.712L288.895 160.426C288.96 160.437 289.026 160.448 289.08 160.469L283.66 162.755C283.594 162.744 283.529 162.722 283.475 162.712Z" fill="#848484"/>
<path d="M283.67 162.745L289.09 160.459C289.156 160.47 289.21 160.492 289.276 160.513L283.855 162.799C283.79 162.777 283.735 162.767 283.67 162.745Z" fill="#888888"/>
<path d="M283.855 162.799L289.276 160.514C289.341 160.535 289.407 160.557 289.461 160.579L284.041 162.865C283.975 162.843 283.91 162.821 283.855 162.799Z" fill="#8C8C8C"/>
<path d="M284.041 162.864L289.462 160.578C289.527 160.6 289.592 160.622 289.647 160.654L284.226 162.94C284.161 162.918 284.095 162.886 284.041 162.864Z" fill="#909090"/>
<path d="M284.236 162.94L289.657 160.654C289.722 160.687 289.787 160.709 289.853 160.741L284.432 163.027C284.367 162.994 284.302 162.962 284.236 162.94Z" fill="#939393"/>
<path d="M284.434 163.038L289.854 160.752C289.919 160.785 289.985 160.817 290.05 160.861L284.63 163.147C284.564 163.114 284.499 163.07 284.434 163.038Z" fill="#979797"/>
<path d="M284.629 163.135L290.049 160.85C290.126 160.893 290.191 160.937 290.267 160.98L284.847 163.266C284.77 163.222 284.705 163.179 284.629 163.135Z" fill="#9B9B9B"/>
<path d="M284.846 163.266L290.266 160.98C290.342 161.035 290.419 161.078 290.495 161.133L285.074 163.419C284.998 163.364 284.922 163.31 284.846 163.266Z" fill="#9F9F9F"/>
<path d="M285.074 163.419L290.495 161.133C290.582 161.198 290.669 161.263 290.756 161.329L285.335 163.615C285.248 163.549 285.161 163.484 285.074 163.419Z" fill="#A3A3A3"/>
<path d="M285.336 163.626L290.756 161.34C290.865 161.427 290.963 161.514 291.061 161.612L285.641 163.898C285.543 163.8 285.445 163.713 285.336 163.626Z" fill="#A7A7A7"/>
<path d="M285.641 163.887L291.061 161.602C291.192 161.732 291.322 161.863 291.453 162.015L286.032 164.301C285.902 164.159 285.771 164.018 285.641 163.887Z" fill="#ABABAB"/>
<path d="M286.033 164.299L291.454 162.014C292.02 162.656 292.499 163.461 292.858 164.365L287.437 166.651C287.078 165.747 286.599 164.942 286.033 164.299Z" fill="#AFAFAF"/>
<path d="M287.426 166.651L292.846 164.365C292.944 164.626 293.042 164.899 293.118 165.171L287.698 167.456C287.611 167.184 287.524 166.912 287.426 166.651Z" fill="#ABABAB"/>
<path d="M287.709 167.458L293.13 165.172C293.195 165.39 293.249 165.596 293.304 165.825L287.883 168.111C287.829 167.893 287.774 167.675 287.709 167.458Z" fill="#A7A7A7"/>
<path d="M287.873 168.11L293.294 165.824C293.337 166.02 293.37 166.205 293.402 166.401L287.982 168.687C287.949 168.491 287.917 168.295 287.873 168.11Z" fill="#A3A3A3"/>
<path d="M287.992 168.686L293.413 166.4C293.445 166.575 293.467 166.76 293.489 166.945L288.068 169.23C288.047 169.045 288.025 168.871 287.992 168.686Z" fill="#9F9F9F"/>
<path d="M288.057 169.231L293.477 166.945C293.499 167.119 293.51 167.283 293.521 167.457L288.1 169.743C288.1 169.569 288.078 169.405 288.057 169.231Z" fill="#9B9B9B"/>
<path d="M288.102 169.743L293.522 167.457C293.522 167.555 293.522 167.664 293.533 167.762C293.533 167.827 293.533 167.892 293.533 167.947L288.112 170.233C288.112 170.167 288.112 170.102 288.112 170.048C288.112 169.95 288.112 169.841 288.102 169.743Z" fill="#979797"/>
<path d="M288.123 170.233L293.544 167.947C293.544 168.111 293.544 168.263 293.544 168.415L288.123 170.701C288.123 170.549 288.123 170.385 288.123 170.233Z" fill="#939393"/>
<path d="M288.112 170.702L293.532 168.416C293.532 168.568 293.521 168.721 293.51 168.862L288.09 171.148C288.101 170.996 288.112 170.854 288.112 170.702Z" fill="#909090"/>
<path d="M288.09 171.147L293.511 168.861C293.5 169.003 293.478 169.144 293.467 169.286L288.047 171.572C288.069 171.43 288.08 171.289 288.09 171.147Z" fill="#8C8C8C"/>
<path d="M288.046 171.581L293.466 169.295C293.445 169.436 293.423 169.578 293.401 169.709L287.98 171.994C288.002 171.853 288.024 171.722 288.046 171.581Z" fill="#888888"/>
<path d="M287.982 171.997L293.402 169.711C293.38 169.852 293.348 169.983 293.315 170.114L287.895 172.399C287.927 172.269 287.949 172.138 287.982 171.997Z" fill="#848484"/>
<path d="M287.893 172.397L293.313 170.111C293.281 170.242 293.248 170.373 293.215 170.503L287.795 172.789C287.828 172.658 287.86 172.528 287.893 172.397Z" fill="#808080"/>
<path d="M287.796 172.792L293.216 170.506C293.183 170.636 293.14 170.767 293.096 170.887L287.676 173.173C287.719 173.042 287.763 172.922 287.796 172.792Z" fill="#7C7C7C"/>
<path d="M287.677 173.172L293.097 170.887C293.054 171.017 293.01 171.148 292.956 171.268L287.535 173.553C287.59 173.434 287.633 173.303 287.677 173.172Z" fill="#787878"/>
<path d="M287.534 173.551L292.955 171.266C292.9 171.396 292.846 171.527 292.792 171.647L287.371 173.932C287.426 173.813 287.491 173.682 287.534 173.551Z" fill="#747474"/>
<path d="M287.36 173.932L292.781 171.646C292.715 171.777 292.65 171.908 292.585 172.027L287.164 174.313C287.229 174.193 287.306 174.063 287.36 173.932Z" fill="#717171"/>
<path d="M287.164 174.315L292.585 172.029C292.509 172.171 292.422 172.301 292.335 172.421L286.914 174.707C287.001 174.576 287.088 174.446 287.164 174.315Z" fill="#6D6D6D"/>
<path d="M286.914 174.717L292.335 172.432C292.226 172.584 292.117 172.726 292.008 172.867L286.588 175.153C286.708 175.022 286.816 174.87 286.914 174.717Z" fill="#696969"/>
<path d="M286.587 175.143L292.008 172.857C291.594 173.347 291.104 173.717 290.571 173.946L285.15 176.232C285.684 176.003 286.174 175.633 286.587 175.143Z" fill="#656565"/>
</g>
<mask id="mask7_515_14127" style="mask-type:luminance" maskUnits="userSpaceOnUse" x="285" y="173" width="6" height="4">
<path d="M290.551 173.953C290.551 173.953 290.551 173.953 290.562 173.953L285.142 176.239C285.142 176.239 285.142 176.239 285.131 176.239C286.938 175.477 288.745 174.715 290.551 173.953Z" fill="white"/>
</mask>
<g mask="url(#mask7_515_14127)">
<path d="M284.969 176.294L290.389 174.009C290.444 173.987 290.509 173.965 290.563 173.943L285.143 176.229C285.088 176.251 285.023 176.273 284.969 176.294Z" fill="#252525"/>
</g>
<path d="M297.919 168.751C297.919 168.599 297.919 168.447 297.919 168.294C297.919 168.175 297.919 168.066 297.919 167.946C297.919 167.761 297.908 167.565 297.897 167.38C297.887 167.184 297.865 166.988 297.843 166.792C297.843 166.705 297.832 166.618 297.821 166.542C297.821 166.509 297.821 166.466 297.821 166.433C297.789 166.096 297.734 165.758 297.68 165.432C297.68 165.41 297.68 165.388 297.669 165.366C297.647 165.258 297.625 165.149 297.604 165.04C297.56 164.811 297.516 164.583 297.473 164.354C297.462 164.3 297.44 164.245 297.429 164.191C297.386 163.995 297.331 163.799 297.277 163.603C297.233 163.451 297.201 163.287 297.157 163.135C297.146 163.091 297.125 163.048 297.114 162.994C296.972 162.536 296.831 162.101 296.657 161.666C296.657 161.666 296.657 161.644 296.646 161.633C296.482 161.23 296.308 160.838 296.123 160.447C296.069 160.327 295.993 160.207 295.938 160.087C295.808 159.826 295.677 159.576 295.535 159.336C295.459 159.195 295.372 159.064 295.285 158.934C295.154 158.716 295.013 158.509 294.871 158.302C294.774 158.161 294.676 158.041 294.578 157.91C294.436 157.725 294.295 157.54 294.142 157.366C294.099 157.312 294.055 157.246 294.012 157.192C293.946 157.116 293.87 157.051 293.805 156.974C293.674 156.833 293.544 156.691 293.402 156.561C293.348 156.506 293.293 156.441 293.239 156.387C293.141 156.299 293.043 156.212 292.945 156.125C292.88 156.071 292.814 156.006 292.749 155.951C292.716 155.919 292.684 155.886 292.651 155.864C292.488 155.733 292.324 155.603 292.161 155.483C292.129 155.461 292.085 155.429 292.052 155.407C292.02 155.385 291.976 155.353 291.944 155.331C291.867 155.276 291.791 155.222 291.715 155.178C291.573 155.091 291.432 155.004 291.29 154.917C291.258 154.895 291.225 154.884 291.192 154.863C291.171 154.852 291.138 154.83 291.116 154.819C291.051 154.787 290.975 154.743 290.909 154.71C290.779 154.645 290.648 154.591 290.529 154.536C290.463 154.503 290.387 154.482 290.322 154.449C290.3 154.449 290.278 154.427 290.256 154.416C290.224 154.406 290.191 154.395 290.158 154.373C290.039 154.329 289.908 154.286 289.788 154.242C289.669 154.21 289.549 154.166 289.418 154.133C289.407 154.133 289.397 154.133 289.386 154.133C289.375 154.133 289.364 154.133 289.353 154.133C289.255 154.112 289.157 154.09 289.048 154.068C288.918 154.046 288.798 154.025 288.667 154.003C288.591 154.003 288.515 153.981 288.439 153.97C288.384 153.97 288.33 153.97 288.265 153.959C288.123 153.959 287.992 153.938 287.851 153.938C287.796 153.938 287.742 153.938 287.688 153.938C287.644 153.938 287.611 153.938 287.568 153.938C287.513 153.938 287.459 153.938 287.416 153.938C287.263 153.938 287.1 153.959 286.947 153.981C286.926 153.981 286.904 153.981 286.882 153.992C286.828 153.992 286.773 154.014 286.719 154.025C286.61 154.046 286.49 154.057 286.381 154.09C286.327 154.101 286.273 154.123 286.218 154.133C286.109 154.166 286.001 154.188 285.892 154.231C285.826 154.253 285.75 154.264 285.685 154.286C285.565 154.329 285.445 154.373 285.337 154.416L279.916 156.702C280.101 156.626 280.286 156.561 280.471 156.506C280.58 156.474 280.689 156.441 280.798 156.408C280.961 156.365 281.135 156.332 281.298 156.299C281.353 156.299 281.407 156.278 281.462 156.267C281.69 156.234 281.919 156.212 282.147 156.212C282.191 156.212 282.224 156.212 282.267 156.212C282.517 156.212 282.768 156.212 283.018 156.245C283.323 156.278 283.628 156.332 283.932 156.408C283.943 156.408 283.954 156.408 283.965 156.408C284.259 156.485 284.553 156.572 284.836 156.68C284.858 156.68 284.879 156.702 284.901 156.713C285.173 156.822 285.435 156.942 285.707 157.083C285.728 157.094 285.761 157.116 285.783 157.127C286.033 157.268 286.284 157.421 286.534 157.584C286.567 157.606 286.61 157.638 286.643 157.66C286.882 157.823 287.111 158.008 287.339 158.204C287.405 158.259 287.47 158.324 287.535 158.378C287.688 158.52 287.84 158.661 287.992 158.814C288.134 158.944 288.265 159.086 288.395 159.238C288.515 159.369 288.624 159.489 288.733 159.619C288.885 159.793 289.026 159.978 289.168 160.164C289.266 160.294 289.364 160.425 289.462 160.555C289.603 160.751 289.734 160.969 289.875 161.176C289.963 161.306 290.05 161.437 290.126 161.579C290.267 161.818 290.398 162.068 290.529 162.33C290.594 162.449 290.659 162.569 290.714 162.689C290.899 163.07 291.073 163.462 291.236 163.864C291.236 163.875 291.236 163.897 291.247 163.908C291.41 164.332 291.563 164.779 291.704 165.225C291.769 165.421 291.813 165.628 291.867 165.824C291.922 166.019 291.976 166.215 292.02 166.411C292.085 166.683 292.139 166.966 292.194 167.249C292.216 167.358 292.237 167.467 292.259 167.576C292.324 167.968 292.379 168.36 292.422 168.751C292.422 168.839 292.433 168.926 292.444 169.013C292.477 169.394 292.51 169.775 292.52 170.166C292.52 170.439 292.52 170.711 292.52 170.972C292.52 171.081 292.52 171.179 292.52 171.288C292.52 171.603 292.499 171.908 292.466 172.213C292.466 172.235 292.466 172.245 292.466 172.267C292.444 172.561 292.412 172.844 292.368 173.116C292.357 173.214 292.335 173.301 292.324 173.388C292.292 173.595 292.259 173.791 292.216 173.987C292.194 174.085 292.172 174.194 292.15 174.292C292.107 174.488 292.063 174.673 292.02 174.858C291.998 174.945 291.976 175.043 291.954 175.13C291.889 175.358 291.824 175.576 291.758 175.794C291.748 175.837 291.726 175.892 291.715 175.935C291.628 176.197 291.53 176.458 291.421 176.708C291.388 176.795 291.345 176.871 291.312 176.958C291.236 177.122 291.16 177.296 291.084 177.459C291.029 177.579 290.964 177.688 290.909 177.797C290.844 177.927 290.779 178.058 290.703 178.178C290.616 178.33 290.518 178.482 290.42 178.635C290.365 178.722 290.311 178.809 290.256 178.885C290.082 179.146 289.886 179.386 289.69 179.614C289.636 179.68 289.571 179.745 289.516 179.81C289.386 179.963 289.255 180.104 289.114 180.235C289.037 180.311 288.961 180.376 288.885 180.442C288.754 180.561 288.613 180.681 288.482 180.79C288.406 180.855 288.33 180.91 288.243 180.975C288.09 181.084 287.938 181.182 287.786 181.28C287.709 181.323 287.644 181.378 287.568 181.41C287.339 181.541 287.1 181.661 286.86 181.759L292.281 179.473C292.52 179.375 292.76 179.255 292.988 179.125C293.065 179.081 293.13 179.037 293.206 178.994C293.359 178.896 293.511 178.798 293.663 178.689C293.739 178.635 293.827 178.569 293.903 178.504C294.044 178.395 294.175 178.276 294.305 178.156C294.382 178.09 294.458 178.025 294.534 177.949C294.676 177.818 294.806 177.666 294.937 177.524C294.98 177.47 295.035 177.427 295.078 177.383C295.089 177.372 295.1 177.35 295.111 177.339C295.307 177.111 295.492 176.861 295.666 176.61C295.666 176.599 295.688 176.588 295.688 176.578C295.742 176.501 295.786 176.425 295.829 176.349C295.927 176.197 296.025 176.055 296.112 175.892C296.123 175.87 296.145 175.848 296.156 175.826C296.21 175.729 296.265 175.62 296.319 175.511C296.374 175.402 296.439 175.293 296.493 175.173C296.504 175.152 296.515 175.13 296.526 175.108C296.591 174.967 296.657 174.825 296.722 174.673C296.755 174.586 296.798 174.509 296.831 174.433C296.831 174.422 296.842 174.411 296.852 174.401C296.95 174.172 297.038 173.933 297.125 173.682C297.125 173.682 297.125 173.671 297.125 173.66C297.135 173.617 297.157 173.562 297.168 173.519C297.233 173.334 297.288 173.149 297.342 172.964C297.342 172.931 297.364 172.888 297.375 172.855C297.397 172.768 297.418 172.67 297.44 172.583C297.473 172.463 297.506 172.354 297.527 172.235C297.549 172.158 297.56 172.082 297.571 172.006C297.593 171.908 297.614 171.81 297.636 171.701C297.647 171.625 297.669 171.549 297.68 171.473C297.701 171.342 297.723 171.222 297.734 171.092C297.745 171.005 297.767 170.907 297.778 170.82C297.778 170.787 297.789 170.743 297.799 170.711C297.832 170.46 297.854 170.21 297.876 169.96C297.876 169.949 297.876 169.938 297.876 169.916C297.897 169.644 297.919 169.372 297.93 169.089C297.93 169.056 297.93 169.024 297.93 168.991C297.93 168.893 297.93 168.784 297.93 168.686L297.919 168.751Z" fill="#6742CF"/>
<path d="M283.036 156.278C288.104 156.789 292.395 163.037 292.603 170.221C292.811 177.416 288.871 182.814 283.792 182.303C278.713 181.791 274.433 175.554 274.225 168.36C274.017 161.176 277.946 155.766 283.036 156.278ZM283.627 176.469C286.255 176.73 288.312 173.856 288.203 170.047C288.093 166.237 285.86 162.928 283.222 162.667C280.584 162.406 278.537 165.279 278.647 169.078C278.756 172.877 280.989 176.196 283.627 176.469Z" fill="#1F1F1F"/>
<path d="M283.17 162.657C285.782 162.918 288.003 166.227 288.123 170.036C288.242 173.846 286.196 176.73 283.573 176.458C280.95 176.186 278.74 172.888 278.62 169.068C278.501 165.247 280.547 162.384 283.17 162.657Z" fill="#1F1F1F"/>
<path d="M161.666 142.15C157.486 135.924 157.78 126.095 158.825 121.502L165.65 138.613L181.498 153.056L264.863 199.686L287.721 213.39L287.373 219.322C254.642 201.352 186.951 163.919 178.015 157.933C168.491 151.554 163.168 144.381 161.666 142.15Z" fill="#1A1341"/>
<path d="M214.718 123.701L327.83 187.131L287.797 214.065L178.309 153.155L214.729 123.701H214.718Z" fill="#A387DF"/>
<path d="M160.632 115.744C152.392 129.927 168.937 146.569 178.32 153.143L214.892 123.69C214.892 123.69 209.46 119.978 204.845 116.158C201.297 113.219 194.603 107.591 189.944 105.404C183.098 102.563 168.872 101.561 160.632 115.744Z" fill="#A387DF"/>
<mask id="mask8_515_14127" style="mask-type:luminance" maskUnits="userSpaceOnUse" x="179" y="172" width="8" height="4">
<path d="M184.862 173.041C185.406 173.095 185.94 173.019 186.418 172.812C184.612 173.574 182.805 174.336 180.998 175.098C180.519 175.294 179.986 175.381 179.441 175.327C181.063 174.641 183.11 173.302 184.862 173.041Z" fill="white"/>
</mask>
<g mask="url(#mask8_515_14127)">
<path d="M179.441 175.329L184.862 173.043C184.862 173.043 184.916 173.043 184.949 173.043L179.528 175.329C179.528 175.329 179.474 175.329 179.441 175.329Z" fill="#2D2D2D"/>
<path d="M179.529 175.329L184.95 173.043C185.015 173.043 185.091 173.043 185.157 173.043L179.736 175.329C179.671 175.329 179.595 175.329 179.529 175.329Z" fill="#2C2C2C"/>
<path d="M179.746 175.339L185.167 173.053C185.243 173.053 185.319 173.053 185.395 173.053L179.975 175.339C179.898 175.339 179.822 175.339 179.746 175.339Z" fill="#2B2B2B"/>
<path d="M179.965 175.337L185.385 173.051C185.462 173.051 185.538 173.04 185.625 173.029L180.204 175.315C180.128 175.315 180.052 175.337 179.965 175.337Z" fill="#292929"/>
<path d="M180.203 175.317L185.624 173.031C185.722 173.02 185.82 172.998 185.907 172.977L180.486 175.262C180.388 175.284 180.301 175.306 180.203 175.317Z" fill="#282828"/>
<path d="M180.486 175.262L185.907 172.976C186.027 172.943 186.146 172.911 186.266 172.867L180.846 175.153C180.726 175.196 180.606 175.229 180.486 175.262Z" fill="#262626"/>
<path d="M180.846 175.164L186.266 172.878C186.321 172.856 186.386 172.834 186.44 172.812L181.02 175.098C180.965 175.12 180.9 175.142 180.846 175.164Z" fill="#252525"/>
</g>
<mask id="mask9_515_14127" style="mask-type:luminance" maskUnits="userSpaceOnUse" x="174" y="159" width="11" height="17">
<path d="M179.907 165.652C180.016 169.473 182.237 172.771 184.86 173.043L179.439 175.329C176.816 175.057 174.606 171.759 174.487 167.938C176.294 167.176 178.1 166.414 179.907 165.652C178.1 166.414 176.294 167.176 174.487 167.927C174.4 164.934 175.641 162.507 177.458 161.745L182.879 159.459C181.061 160.221 179.82 162.637 179.907 165.641V165.652Z" fill="white"/>
</mask>
<g mask="url(#mask9_515_14127)">
<path d="M177.458 161.755L182.879 159.469C182.345 159.697 181.856 160.067 181.442 160.557L176.021 162.843C176.435 162.353 176.925 161.983 177.458 161.755Z" fill="#252525"/>
<path d="M176.022 162.842L181.442 160.557C181.323 160.687 181.214 160.84 181.116 160.992L175.695 163.278C175.804 163.125 175.913 162.984 176.022 162.842Z" fill="#262626"/>
<path d="M175.694 163.268L181.114 160.982C181.027 161.113 180.951 161.244 180.864 161.374L175.443 163.66C175.52 163.519 175.607 163.388 175.694 163.268Z" fill="#282828"/>
<path d="M175.444 163.671L180.865 161.385C180.799 161.504 180.723 161.635 180.669 161.766L175.248 164.052C175.313 163.921 175.379 163.79 175.444 163.671Z" fill="#292929"/>
<path d="M175.247 164.049L180.668 161.764C180.613 161.883 180.548 162.014 180.505 162.145L175.084 164.43C175.138 164.3 175.193 164.169 175.247 164.049Z" fill="#2B2B2B"/>
<path d="M175.075 164.421L180.496 162.135C180.441 162.254 180.398 162.385 180.354 162.516L174.934 164.802C174.977 164.671 175.021 164.54 175.075 164.421Z" fill="#2C2C2C"/>
<path d="M174.932 164.803L180.353 162.518C180.309 162.648 180.266 162.768 180.233 162.899L174.812 165.184C174.845 165.054 174.889 164.923 174.932 164.803Z" fill="#2D2D2D"/>
<path d="M174.813 165.194L180.233 162.908C180.201 163.039 180.168 163.169 180.135 163.3L174.715 165.586C174.747 165.455 174.78 165.325 174.813 165.194Z" fill="#2F2F2F"/>
<path d="M174.714 165.585L180.135 163.299C180.102 163.429 180.08 163.56 180.047 163.702L174.627 165.987C174.649 165.846 174.681 165.715 174.714 165.585Z" fill="#303030"/>
<path d="M174.628 165.989L180.048 163.703C180.027 163.845 180.005 163.975 179.983 164.117L174.562 166.403C174.584 166.261 174.606 166.12 174.628 165.989Z" fill="#323232"/>
<path d="M174.573 166.401L179.993 164.115C179.972 164.257 179.961 164.398 179.95 164.54L174.529 166.826C174.54 166.684 174.562 166.543 174.573 166.401Z" fill="#333333"/>
<path d="M174.518 166.827L179.938 164.541C179.928 164.693 179.917 164.835 179.917 164.987L174.496 167.273C174.496 167.121 174.507 166.968 174.518 166.827Z" fill="#353535"/>
<path d="M174.496 167.274L179.917 164.988C179.917 165.141 179.917 165.304 179.917 165.456L174.496 167.742C174.496 167.579 174.496 167.426 174.496 167.274Z" fill="#363636"/>
<path d="M174.486 167.741L179.907 165.455C179.907 165.52 179.907 165.586 179.907 165.64C179.907 165.738 179.907 165.847 179.918 165.945L174.497 168.231C174.497 168.133 174.497 168.024 174.486 167.926C174.486 167.861 174.486 167.795 174.486 167.741Z" fill="#373737"/>
<path d="M174.508 168.243L179.928 165.957C179.928 166.131 179.95 166.305 179.972 166.469L174.551 168.754C174.53 168.58 174.519 168.417 174.508 168.243Z" fill="#393939"/>
<path d="M174.551 168.753L179.971 166.467C179.993 166.652 180.015 166.826 180.048 167.011L174.627 169.297C174.594 169.123 174.573 168.938 174.551 168.753Z" fill="#3A3A3A"/>
<path d="M174.627 169.297L180.047 167.012C180.08 167.208 180.113 167.404 180.156 167.599L174.736 169.885C174.692 169.689 174.66 169.493 174.627 169.297Z" fill="#3C3C3C"/>
<path d="M174.736 169.885L180.157 167.6C180.211 167.817 180.266 168.035 180.331 168.253L174.91 170.538C174.845 170.321 174.791 170.103 174.736 169.885Z" fill="#3D3D3D"/>
<path d="M174.91 170.538L180.331 168.252C180.418 168.524 180.505 168.796 180.614 169.057L175.193 171.343C175.095 171.082 174.997 170.81 174.91 170.538Z" fill="#3E3E3E"/>
<path d="M175.182 171.344L180.602 169.059C180.961 169.962 181.44 170.757 181.995 171.399L176.575 173.685C176.009 173.042 175.53 172.248 175.182 171.344Z" fill="#404040"/>
<path d="M176.586 173.684L182.006 171.398C182.137 171.54 182.268 171.681 182.398 171.801L176.978 174.087C176.847 173.956 176.717 173.826 176.586 173.684Z" fill="#3E3E3E"/>
<path d="M176.969 174.096L182.389 171.811C182.487 171.909 182.585 171.996 182.694 172.083L177.274 174.368C177.176 174.281 177.067 174.194 176.969 174.096Z" fill="#3D3D3D"/>
<path d="M177.271 174.358L182.692 172.072C182.779 172.138 182.866 172.203 182.953 172.268L177.533 174.554C177.446 174.489 177.359 174.423 177.271 174.358Z" fill="#3C3C3C"/>
<path d="M177.533 174.565L182.954 172.279C183.03 172.334 183.106 172.388 183.182 172.432L177.762 174.717C177.686 174.674 177.609 174.619 177.533 174.565Z" fill="#3A3A3A"/>
<path d="M177.762 174.717L183.182 172.432C183.258 172.475 183.324 172.519 183.4 172.562L177.979 174.848C177.903 174.804 177.838 174.761 177.762 174.717Z" fill="#393939"/>
<path d="M177.98 174.848L183.401 172.562C183.466 172.595 183.532 172.639 183.597 172.671L178.176 174.957C178.111 174.924 178.046 174.892 177.98 174.848Z" fill="#373737"/>
<path d="M178.176 174.958L183.596 172.672C183.662 172.705 183.727 172.737 183.792 172.759L178.372 175.045C178.306 175.012 178.241 174.99 178.176 174.958Z" fill="#363636"/>
<path d="M178.373 175.046L183.794 172.76C183.859 172.782 183.924 172.814 183.979 172.836L178.558 175.122C178.493 175.1 178.427 175.078 178.373 175.046Z" fill="#353535"/>
<path d="M178.568 175.12L183.989 172.834C184.054 172.856 184.12 172.878 184.174 172.899L178.753 175.185C178.688 175.163 178.623 175.142 178.568 175.12Z" fill="#333333"/>
<path d="M178.754 175.186L184.174 172.9C184.24 172.922 184.294 172.933 184.359 172.955L178.939 175.241C178.874 175.23 178.808 175.208 178.754 175.186Z" fill="#323232"/>
<path d="M178.938 175.241L184.358 172.955C184.423 172.966 184.489 172.988 184.554 172.999L179.133 175.284C179.068 175.274 179.003 175.263 178.938 175.241Z" fill="#303030"/>
<path d="M179.133 175.284L184.553 172.998C184.619 173.009 184.684 173.02 184.749 173.031L179.329 175.316C179.263 175.316 179.198 175.295 179.133 175.284Z" fill="#2F2F2F"/>
<path d="M179.33 175.317L184.751 173.031C184.751 173.031 184.827 173.031 184.87 173.042L179.45 175.328C179.45 175.328 179.374 175.328 179.33 175.317Z" fill="#2D2D2D"/>
</g>
<mask id="mask10_515_14127" style="mask-type:luminance" maskUnits="userSpaceOnUse" x="179" y="159" width="11" height="17">
<path d="M186.439 172.815L181.018 175.101C182.825 174.339 184.077 171.923 183.99 168.908C183.881 165.098 181.66 161.789 179.037 161.528L184.458 159.242C187.07 159.503 189.29 162.812 189.41 166.622C189.497 169.626 188.246 172.053 186.439 172.815Z" fill="white"/>
</mask>
<g mask="url(#mask10_515_14127)">
<path d="M179.037 161.528L184.458 159.242C184.458 159.242 184.534 159.242 184.577 159.253L179.157 161.539C179.157 161.539 179.081 161.539 179.037 161.528Z" fill="#7C7C7C"/>
<path d="M179.156 161.538L184.577 159.252C184.642 159.252 184.707 159.274 184.773 159.285L179.352 161.57C179.287 161.559 179.222 161.549 179.156 161.538Z" fill="#808080"/>
<path d="M179.354 161.571L184.774 159.285C184.839 159.296 184.905 159.307 184.959 159.329L179.539 161.614C179.473 161.604 179.408 161.582 179.354 161.571Z" fill="#848484"/>
<path d="M179.537 161.616L184.958 159.33C185.023 159.341 185.077 159.363 185.143 159.385L179.722 161.67C179.657 161.649 179.602 161.638 179.537 161.616Z" fill="#888888"/>
<path d="M179.723 161.671L185.143 159.385C185.209 159.407 185.274 159.428 185.328 159.45L179.908 161.736C179.842 161.714 179.777 161.692 179.723 161.671Z" fill="#8C8C8C"/>
<path d="M179.918 161.723L185.339 159.438C185.404 159.459 185.469 159.481 185.524 159.514L180.103 161.799C180.038 161.778 179.972 161.745 179.918 161.723Z" fill="#909090"/>
<path d="M180.104 161.799L185.524 159.514C185.589 159.546 185.655 159.568 185.72 159.601L180.299 161.887C180.234 161.854 180.169 161.821 180.104 161.799Z" fill="#939393"/>
<path d="M180.301 161.897L185.721 159.611C185.787 159.644 185.852 159.677 185.917 159.72L180.497 162.006C180.431 161.973 180.366 161.93 180.301 161.897Z" fill="#979797"/>
<path d="M180.506 161.995L185.926 159.709C186.003 159.753 186.068 159.796 186.144 159.84L180.724 162.125C180.647 162.082 180.582 162.038 180.506 161.995Z" fill="#9B9B9B"/>
<path d="M180.725 162.128L186.145 159.842C186.221 159.896 186.298 159.94 186.374 159.994L180.953 162.28C180.877 162.226 180.801 162.171 180.725 162.128Z" fill="#9F9F9F"/>
<path d="M180.953 162.29L186.374 160.004C186.461 160.069 186.548 160.135 186.635 160.2L181.214 162.486C181.127 162.42 181.04 162.355 180.953 162.29Z" fill="#A3A3A3"/>
<path d="M181.203 162.487L186.624 160.201C186.733 160.288 186.83 160.375 186.928 160.473L181.508 162.759C181.41 162.661 181.312 162.574 181.203 162.487Z" fill="#A7A7A7"/>
<path d="M181.508 162.758L186.928 160.473C187.059 160.603 187.19 160.734 187.32 160.886L181.9 163.172C181.769 163.031 181.638 162.889 181.508 162.758Z" fill="#ABABAB"/>
<path d="M181.9 163.161L187.321 160.875C187.887 161.517 188.366 162.323 188.725 163.226L183.305 165.512C182.945 164.608 182.466 163.803 181.9 163.161Z" fill="#AFAFAF"/>
<path d="M183.305 165.512L188.725 163.227C188.823 163.488 188.921 163.76 188.997 164.032L183.577 166.318C183.49 166.046 183.403 165.774 183.305 165.512Z" fill="#ABABAB"/>
<path d="M183.576 166.317L188.997 164.031C189.062 164.249 189.116 164.456 189.171 164.684L183.75 166.97C183.696 166.752 183.641 166.535 183.576 166.317Z" fill="#A7A7A7"/>
<path d="M183.75 166.969L189.171 164.684C189.214 164.88 189.247 165.065 189.279 165.26L183.859 167.546C183.826 167.35 183.794 167.154 183.75 166.969Z" fill="#A3A3A3"/>
<path d="M183.859 167.546L189.28 165.26C189.313 165.434 189.334 165.619 189.356 165.804L183.936 168.09C183.914 167.905 183.892 167.731 183.859 167.546Z" fill="#9F9F9F"/>
<path d="M183.936 168.09L189.356 165.805C189.378 165.979 189.389 166.142 189.4 166.316L183.979 168.602C183.979 168.428 183.957 168.265 183.936 168.09Z" fill="#9B9B9B"/>
<path d="M183.979 168.602L189.399 166.316C189.399 166.414 189.399 166.523 189.41 166.621C189.41 166.686 189.41 166.752 189.41 166.806L183.989 169.092C183.989 169.027 183.989 168.961 183.989 168.907C183.989 168.809 183.989 168.7 183.979 168.602Z" fill="#979797"/>
<path d="M183.99 169.092L189.411 166.807C189.411 166.97 189.411 167.122 189.411 167.275L183.99 169.56C183.99 169.408 183.99 169.245 183.99 169.092Z" fill="#939393"/>
<path d="M183.991 169.561L189.411 167.275C189.411 167.428 189.4 167.58 189.389 167.722L183.969 170.007C183.98 169.855 183.991 169.714 183.991 169.561Z" fill="#909090"/>
<path d="M183.958 170.006L189.378 167.721C189.367 167.862 189.345 168.004 189.335 168.145L183.914 170.431C183.936 170.289 183.947 170.148 183.958 170.006Z" fill="#8C8C8C"/>
<path d="M183.913 170.442L189.334 168.156C189.312 168.298 189.29 168.439 189.268 168.57L183.848 170.856C183.869 170.714 183.891 170.584 183.913 170.442Z" fill="#888888"/>
<path d="M183.849 170.856L189.269 168.57C189.248 168.712 189.215 168.842 189.182 168.973L183.762 171.259C183.794 171.128 183.816 170.998 183.849 170.856Z" fill="#848484"/>
<path d="M183.772 171.258L189.192 168.973C189.16 169.103 189.127 169.234 189.094 169.364L183.674 171.65C183.706 171.52 183.739 171.389 183.772 171.258Z" fill="#808080"/>
<path d="M183.663 171.651L189.083 169.365C189.051 169.496 189.007 169.626 188.964 169.746L183.543 172.032C183.587 171.901 183.63 171.782 183.663 171.651Z" fill="#7C7C7C"/>
<path d="M183.544 172.032L188.964 169.746C188.921 169.877 188.877 170.007 188.823 170.127L183.402 172.413C183.457 172.293 183.5 172.162 183.544 172.032Z" fill="#787878"/>
<path d="M183.402 172.413L188.822 170.127C188.768 170.258 188.713 170.388 188.659 170.508L183.238 172.794C183.293 172.674 183.358 172.543 183.402 172.413Z" fill="#747474"/>
<path d="M183.239 172.794L188.659 170.508C188.594 170.638 188.529 170.769 188.464 170.889L183.043 173.175C183.108 173.055 183.184 172.924 183.239 172.794Z" fill="#717171"/>
<path d="M183.032 173.186L188.452 170.9C188.376 171.042 188.289 171.173 188.202 171.292L182.781 173.578C182.868 173.447 182.955 173.317 183.032 173.186Z" fill="#6D6D6D"/>
<path d="M182.793 173.577L188.214 171.291C188.105 171.443 187.996 171.585 187.887 171.726L182.467 174.012C182.587 173.882 182.695 173.729 182.793 173.577Z" fill="#696969"/>
<path d="M182.454 174.014L187.875 171.729C187.461 172.218 186.971 172.588 186.438 172.817L181.018 175.103C181.551 174.874 182.041 174.504 182.454 174.014Z" fill="#656565"/>
</g>
<mask id="mask11_515_14127" style="mask-type:luminance" maskUnits="userSpaceOnUse" x="180" y="172" width="7" height="4">
<path d="M186.417 172.812C186.417 172.812 186.417 172.812 186.428 172.812L181.007 175.098C181.007 175.098 181.007 175.098 180.996 175.098C182.803 174.336 184.61 173.574 186.417 172.812Z" fill="white"/>
</mask>
<g mask="url(#mask11_515_14127)">
<path d="M180.844 175.164L186.264 172.878C186.319 172.856 186.384 172.834 186.438 172.812L181.018 175.098C180.963 175.12 180.898 175.142 180.844 175.164Z" fill="#252525"/>
</g>
<mask id="mask12_515_14127" style="mask-type:luminance" maskUnits="userSpaceOnUse" x="177" y="159" width="8" height="3">
<path d="M177.461 161.754L182.881 159.468C183.371 159.261 183.905 159.174 184.46 159.229L179.039 161.515C178.484 161.46 177.951 161.547 177.461 161.754Z" fill="white"/>
</mask>
<g mask="url(#mask12_515_14127)">
<path d="M177.461 161.755L182.881 159.47C182.936 159.448 183.001 159.426 183.056 159.404L177.635 161.69C177.581 161.712 177.515 161.734 177.461 161.755Z" fill="#656565"/>
<path d="M177.635 161.69L183.055 159.404C183.175 159.36 183.295 159.328 183.415 159.295L177.994 161.581C177.874 161.613 177.754 161.646 177.635 161.69Z" fill="#696969"/>
<path d="M177.994 161.58L183.415 159.295C183.513 159.273 183.6 159.251 183.698 159.24L178.277 161.526C178.179 161.537 178.081 161.559 177.994 161.58Z" fill="#6D6D6D"/>
<path d="M178.287 161.536L183.708 159.25C183.784 159.25 183.86 159.229 183.947 159.229L178.527 161.514C178.45 161.514 178.363 161.525 178.287 161.536Z" fill="#717171"/>
<path d="M178.516 161.514L183.936 159.229C184.012 159.229 184.089 159.229 184.165 159.229L178.744 161.514C178.668 161.514 178.592 161.514 178.516 161.514Z" fill="#747474"/>
<path d="M178.744 161.505L184.165 159.219C184.23 159.219 184.306 159.219 184.371 159.219L178.951 161.505C178.886 161.505 178.809 161.505 178.744 161.505Z" fill="#787878"/>
<path d="M178.953 161.514L184.374 159.229C184.374 159.229 184.428 159.229 184.461 159.229L179.04 161.514C179.04 161.514 178.986 161.514 178.953 161.514Z" fill="#7C7C7C"/>
</g>
<path d="M193.786 167.609C193.786 167.457 193.786 167.304 193.786 167.152C193.786 167.032 193.786 166.923 193.786 166.803C193.786 166.618 193.775 166.422 193.765 166.237C193.754 166.042 193.732 165.846 193.71 165.65C193.71 165.563 193.699 165.476 193.688 165.399C193.688 165.367 193.688 165.323 193.688 165.29C193.656 164.953 193.601 164.616 193.547 164.289C193.547 164.267 193.547 164.246 193.536 164.224C193.514 164.115 193.492 164.006 193.471 163.897C193.427 163.669 193.384 163.44 193.34 163.212C193.329 163.157 193.307 163.103 193.297 163.048C193.253 162.852 193.199 162.656 193.144 162.46C193.101 162.308 193.068 162.145 193.024 161.992C193.014 161.949 192.992 161.905 192.981 161.851C192.839 161.394 192.698 160.958 192.524 160.523C192.524 160.523 192.524 160.501 192.513 160.49C192.35 160.088 192.175 159.696 191.99 159.304C191.936 159.184 191.86 159.064 191.805 158.945C191.675 158.684 191.544 158.433 191.403 158.194C191.326 158.052 191.239 157.922 191.152 157.791C191.022 157.573 190.88 157.366 190.739 157.16C190.641 157.018 190.543 156.898 190.445 156.768C190.303 156.583 190.162 156.398 190.009 156.224C189.966 156.169 189.922 156.104 189.879 156.049C189.813 155.973 189.737 155.908 189.672 155.832C189.541 155.69 189.411 155.549 189.269 155.418C189.215 155.364 189.16 155.298 189.106 155.244C189.008 155.157 188.91 155.07 188.812 154.983C188.747 154.928 188.681 154.863 188.616 154.809C188.584 154.776 188.551 154.743 188.518 154.722C188.355 154.591 188.192 154.46 188.028 154.341C187.996 154.319 187.952 154.286 187.92 154.264C187.887 154.243 187.843 154.21 187.811 154.188C187.735 154.134 187.658 154.079 187.582 154.036C187.441 153.949 187.299 153.862 187.158 153.775C187.125 153.753 187.092 153.742 187.06 153.72C187.038 153.709 187.005 153.687 186.983 153.677C186.918 153.644 186.842 153.6 186.777 153.568C186.646 153.502 186.515 153.448 186.396 153.394C186.33 153.361 186.254 153.339 186.189 153.306C186.167 153.306 186.145 153.285 186.124 153.274C186.091 153.263 186.058 153.252 186.026 153.23C185.906 153.187 185.775 153.143 185.656 153.1C185.536 153.067 185.416 153.023 185.285 152.991C185.275 152.991 185.264 152.991 185.253 152.991C185.242 152.991 185.231 152.991 185.22 152.991C185.122 152.969 185.024 152.947 184.915 152.926C184.785 152.904 184.665 152.882 184.534 152.86C184.458 152.86 184.382 152.838 184.306 152.828C184.251 152.828 184.197 152.828 184.132 152.817C183.99 152.817 183.86 152.795 183.718 152.795C183.664 152.795 183.609 152.795 183.555 152.795C183.511 152.795 183.479 152.795 183.435 152.795C183.381 152.795 183.326 152.795 183.283 152.795C183.13 152.795 182.967 152.817 182.815 152.838C182.793 152.838 182.771 152.838 182.749 152.849C182.695 152.849 182.641 152.871 182.586 152.882C182.477 152.904 182.358 152.915 182.249 152.947C182.194 152.958 182.14 152.98 182.085 152.991C181.977 153.023 181.868 153.045 181.759 153.089C181.694 153.111 181.617 153.121 181.552 153.143C181.432 153.187 181.313 153.23 181.204 153.274L175.783 155.56C175.968 155.483 176.153 155.418 176.338 155.364C176.447 155.331 176.556 155.298 176.665 155.266C176.828 155.222 177.002 155.19 177.166 155.157C177.22 155.157 177.274 155.135 177.329 155.124C177.557 155.092 177.786 155.07 178.015 155.07C178.058 155.07 178.091 155.07 178.134 155.07C178.385 155.07 178.635 155.07 178.885 155.102C179.19 155.135 179.495 155.19 179.8 155.266C179.811 155.266 179.821 155.266 179.832 155.266C180.126 155.342 180.42 155.429 180.703 155.538C180.725 155.538 180.747 155.56 180.768 155.571C181.04 155.679 181.302 155.799 181.574 155.941C181.596 155.951 181.628 155.973 181.65 155.984C181.9 156.126 182.151 156.278 182.401 156.441C182.434 156.463 182.477 156.496 182.51 156.517C182.749 156.681 182.978 156.866 183.207 157.062C183.272 157.116 183.337 157.181 183.402 157.236C183.555 157.377 183.707 157.519 183.86 157.671C184.001 157.802 184.132 157.943 184.262 158.096C184.382 158.226 184.491 158.346 184.6 158.477C184.752 158.651 184.894 158.836 185.035 159.021C185.133 159.152 185.231 159.282 185.329 159.413C185.471 159.609 185.601 159.826 185.743 160.033C185.83 160.164 185.917 160.294 185.993 160.436C186.134 160.675 186.265 160.926 186.396 161.187C186.461 161.307 186.526 161.426 186.581 161.546C186.766 161.927 186.94 162.319 187.103 162.722C187.103 162.733 187.103 162.754 187.114 162.765C187.277 163.19 187.43 163.636 187.571 164.082C187.637 164.278 187.68 164.485 187.735 164.681C187.789 164.877 187.843 165.073 187.887 165.269C187.952 165.541 188.007 165.824 188.061 166.107C188.083 166.216 188.105 166.325 188.126 166.433C188.192 166.825 188.246 167.217 188.29 167.609C188.29 167.696 188.301 167.783 188.311 167.87C188.344 168.251 188.377 168.632 188.388 169.024C188.388 169.296 188.388 169.568 188.388 169.829C188.388 169.938 188.388 170.036 188.388 170.145C188.388 170.461 188.366 170.765 188.333 171.07C188.333 171.092 188.333 171.103 188.333 171.125C188.311 171.419 188.279 171.702 188.235 171.974C188.224 172.072 188.203 172.159 188.192 172.246C188.159 172.453 188.126 172.648 188.083 172.844C188.061 172.942 188.039 173.051 188.018 173.149C187.974 173.345 187.93 173.53 187.887 173.715C187.865 173.802 187.843 173.9 187.822 173.987C187.756 174.216 187.691 174.434 187.626 174.651C187.615 174.695 187.593 174.749 187.582 174.793C187.495 175.054 187.397 175.315 187.288 175.566C187.256 175.653 187.212 175.729 187.179 175.816C187.103 175.979 187.027 176.153 186.951 176.317C186.896 176.436 186.831 176.545 186.777 176.654C186.711 176.785 186.646 176.915 186.57 177.035C186.483 177.187 186.385 177.34 186.287 177.492C186.232 177.579 186.178 177.666 186.124 177.742C185.949 178.004 185.754 178.243 185.558 178.472C185.503 178.537 185.438 178.602 185.383 178.668C185.253 178.82 185.122 178.962 184.981 179.092C184.905 179.168 184.828 179.234 184.752 179.299C184.622 179.419 184.48 179.538 184.349 179.647C184.273 179.713 184.197 179.767 184.11 179.832C183.958 179.941 183.805 180.039 183.653 180.137C183.577 180.181 183.511 180.235 183.435 180.268C183.207 180.398 182.967 180.518 182.728 180.616L188.148 178.33C188.388 178.232 188.627 178.113 188.856 177.982C188.932 177.938 188.997 177.895 189.073 177.851C189.226 177.753 189.378 177.655 189.53 177.547C189.607 177.492 189.694 177.427 189.77 177.362C189.911 177.253 190.042 177.133 190.173 177.013C190.249 176.948 190.325 176.883 190.401 176.806C190.543 176.676 190.673 176.523 190.804 176.382C190.848 176.327 190.902 176.284 190.945 176.24C190.956 176.23 190.967 176.208 190.978 176.197C191.174 175.968 191.359 175.718 191.533 175.468C191.533 175.457 191.555 175.446 191.555 175.435C191.609 175.359 191.653 175.283 191.697 175.206C191.794 175.054 191.892 174.912 191.98 174.749C191.99 174.727 192.012 174.706 192.023 174.684C192.077 174.586 192.132 174.477 192.186 174.368C192.241 174.259 192.306 174.151 192.36 174.031C192.371 174.009 192.382 173.987 192.393 173.966C192.458 173.824 192.524 173.683 192.589 173.53C192.622 173.443 192.665 173.367 192.698 173.291C192.698 173.28 192.709 173.269 192.72 173.258C192.818 173.029 192.905 172.79 192.992 172.54C192.992 172.54 192.992 172.529 192.992 172.518C193.003 172.474 193.024 172.42 193.035 172.376C193.101 172.191 193.155 172.006 193.209 171.821C193.209 171.789 193.231 171.745 193.242 171.712C193.264 171.625 193.286 171.527 193.307 171.44C193.34 171.321 193.373 171.212 193.395 171.092C193.416 171.016 193.427 170.94 193.438 170.863C193.46 170.765 193.482 170.667 193.503 170.559C193.514 170.482 193.536 170.406 193.547 170.33C193.569 170.199 193.59 170.08 193.601 169.949C193.612 169.862 193.634 169.764 193.645 169.677C193.645 169.644 193.656 169.601 193.667 169.568C193.699 169.318 193.721 169.067 193.743 168.817C193.743 168.806 193.743 168.795 193.743 168.774C193.765 168.501 193.786 168.229 193.797 167.946C193.797 167.914 193.797 167.881 193.797 167.848C193.797 167.75 193.797 167.642 193.797 167.544L193.786 167.609Z" fill="#6742CF"/>
<path d="M178.923 155.034C184.002 155.549 188.302 161.846 188.511 169.086C188.719 176.338 184.77 181.779 179.68 181.263C174.59 180.747 170.3 174.462 170.092 167.21C169.883 159.97 173.822 154.518 178.923 155.034ZM179.515 175.383C182.148 175.646 184.21 172.75 184.101 168.911C183.991 165.071 181.753 161.736 179.109 161.473C176.465 161.21 174.414 164.106 174.524 167.934C174.633 171.763 176.871 175.109 179.515 175.383Z" fill="#1F123B"/>
<path d="M179.108 161.471C181.741 161.734 183.979 165.069 184.099 168.909C184.22 172.748 182.158 175.655 179.514 175.381C176.87 175.107 174.643 171.783 174.523 167.933C174.402 164.082 176.464 161.197 179.108 161.471Z" fill="#B496F2"/>
<mask id="mask13_515_14127" style="mask-type:luminance" maskUnits="userSpaceOnUse" x="243" y="208" width="8" height="3">
<path d="M248.514 208.578C249.059 208.633 249.592 208.556 250.071 208.35C248.264 209.112 246.457 209.873 244.65 210.635C244.171 210.831 243.638 210.918 243.094 210.864C244.716 210.178 246.762 208.839 248.514 208.578Z" fill="white"/>
</mask>
<g mask="url(#mask13_515_14127)">
<path d="M243.104 210.854L248.524 208.568C248.524 208.568 248.578 208.568 248.611 208.568L243.191 210.854C243.191 210.854 243.136 210.854 243.104 210.854Z" fill="#2D2D2D"/>
<path d="M243.191 210.864L248.612 208.578C248.677 208.578 248.753 208.578 248.819 208.578L243.398 210.864C243.333 210.864 243.257 210.864 243.191 210.864Z" fill="#2C2C2C"/>
<path d="M243.396 210.874L248.817 208.588C248.893 208.588 248.969 208.588 249.046 208.588L243.625 210.874C243.549 210.874 243.473 210.874 243.396 210.874Z" fill="#2B2B2B"/>
<path d="M243.615 210.862L249.036 208.576C249.112 208.576 249.188 208.566 249.275 208.555L243.855 210.84C243.779 210.84 243.702 210.862 243.615 210.862Z" fill="#292929"/>
<path d="M243.855 210.842L249.276 208.556C249.374 208.545 249.472 208.524 249.559 208.502L244.138 210.788C244.041 210.81 243.953 210.831 243.855 210.842Z" fill="#282828"/>
<path d="M244.139 210.787L249.559 208.501C249.679 208.469 249.799 208.436 249.918 208.393L244.498 210.678C244.378 210.722 244.258 210.755 244.139 210.787Z" fill="#262626"/>
<path d="M244.496 210.689L249.917 208.403C249.971 208.381 250.036 208.36 250.091 208.338L244.67 210.624C244.616 210.645 244.551 210.667 244.496 210.689Z" fill="#252525"/>
</g>
<mask id="mask14_515_14127" style="mask-type:luminance" maskUnits="userSpaceOnUse" x="238" y="194" width="11" height="17">
<path d="M243.573 201.189C243.682 205.01 245.903 208.308 248.526 208.58L243.105 210.866C240.482 210.594 238.272 207.296 238.153 203.475C239.96 202.713 241.766 201.951 243.573 201.189C241.766 201.951 239.96 202.713 238.153 203.464C238.066 200.471 239.307 198.044 241.124 197.282L246.545 194.996C244.727 195.758 243.486 198.174 243.573 201.179V201.189Z" fill="white"/>
</mask>
<g mask="url(#mask14_515_14127)">
<path d="M241.126 197.292L246.547 195.006C246.013 195.234 245.524 195.605 245.11 196.094L239.689 198.38C240.103 197.89 240.593 197.52 241.126 197.292Z" fill="#252525"/>
<path d="M239.678 198.37L245.099 196.084C244.979 196.215 244.87 196.367 244.772 196.519L239.352 198.805C239.46 198.653 239.569 198.511 239.678 198.37Z" fill="#262626"/>
<path d="M239.352 198.805L244.772 196.52C244.685 196.65 244.609 196.781 244.522 196.911L239.102 199.197C239.178 199.056 239.265 198.925 239.352 198.805Z" fill="#282828"/>
<path d="M239.102 199.196L244.523 196.91C244.457 197.03 244.381 197.161 244.327 197.291L238.906 199.577C238.972 199.446 239.037 199.316 239.102 199.196Z" fill="#292929"/>
<path d="M238.905 199.577L244.326 197.291C244.272 197.411 244.206 197.541 244.163 197.672L238.742 199.958C238.797 199.827 238.851 199.697 238.905 199.577Z" fill="#2B2B2B"/>
<path d="M238.743 199.958L244.164 197.672C244.109 197.792 244.066 197.922 244.022 198.053L238.602 200.339C238.645 200.208 238.689 200.077 238.743 199.958Z" fill="#2C2C2C"/>
<path d="M238.6 200.34L244.021 198.055C243.977 198.185 243.934 198.305 243.901 198.436L238.48 200.721C238.513 200.591 238.557 200.46 238.6 200.34Z" fill="#2D2D2D"/>
<path d="M238.481 200.721L243.901 198.436C243.869 198.566 243.836 198.697 243.803 198.827L238.383 201.113C238.415 200.983 238.448 200.852 238.481 200.721Z" fill="#2F2F2F"/>
<path d="M238.372 201.112L243.793 198.826C243.76 198.957 243.738 199.087 243.706 199.229L238.285 201.515C238.307 201.373 238.34 201.243 238.372 201.112Z" fill="#303030"/>
<path d="M238.296 201.516L243.716 199.23C243.695 199.372 243.673 199.503 243.651 199.644L238.23 201.93C238.252 201.788 238.274 201.647 238.296 201.516Z" fill="#323232"/>
<path d="M238.231 201.928L243.652 199.643C243.63 199.784 243.619 199.926 243.608 200.067L238.188 202.353C238.198 202.211 238.22 202.07 238.231 201.928Z" fill="#333333"/>
<path d="M238.186 202.364L243.606 200.078C243.595 200.231 243.585 200.372 243.585 200.524L238.164 202.81C238.164 202.658 238.175 202.505 238.186 202.364Z" fill="#353535"/>
<path d="M238.154 202.811L243.575 200.525C243.575 200.678 243.575 200.841 243.575 200.993L238.154 203.279C238.154 203.116 238.154 202.964 238.154 202.811Z" fill="#363636"/>
<path d="M238.154 203.278L243.575 200.992C243.575 201.057 243.575 201.123 243.575 201.177C243.575 201.275 243.575 201.384 243.586 201.482L238.165 203.768C238.165 203.67 238.165 203.561 238.154 203.463C238.154 203.398 238.154 203.332 238.154 203.278Z" fill="#373737"/>
<path d="M238.164 203.766L243.585 201.48C243.585 201.655 243.606 201.829 243.628 201.992L238.208 204.278C238.186 204.104 238.175 203.94 238.164 203.766Z" fill="#393939"/>
<path d="M238.209 204.29L243.63 202.004C243.651 202.189 243.673 202.363 243.706 202.548L238.285 204.834C238.253 204.66 238.231 204.475 238.209 204.29Z" fill="#3A3A3A"/>
<path d="M238.285 204.835L243.706 202.549C243.738 202.745 243.771 202.941 243.815 203.137L238.394 205.422C238.35 205.226 238.318 205.031 238.285 204.835Z" fill="#3C3C3C"/>
<path d="M238.393 205.413L243.813 203.127C243.868 203.345 243.922 203.562 243.987 203.78L238.567 206.066C238.501 205.848 238.447 205.63 238.393 205.413Z" fill="#3D3D3D"/>
<path d="M238.568 206.065L243.989 203.779C244.076 204.051 244.163 204.324 244.272 204.585L238.851 206.871C238.753 206.609 238.655 206.337 238.568 206.065Z" fill="#3E3E3E"/>
<path d="M238.85 206.872L244.27 204.586C244.629 205.489 245.108 206.284 245.663 206.926L240.243 209.212C239.677 208.57 239.198 207.775 238.85 206.872Z" fill="#404040"/>
<path d="M240.244 209.221L245.665 206.936C245.795 207.077 245.926 207.219 246.057 207.338L240.636 209.624C240.505 209.493 240.375 209.363 240.244 209.221Z" fill="#3E3E3E"/>
<path d="M240.637 209.624L246.057 207.338C246.155 207.436 246.253 207.523 246.362 207.61L240.941 209.896C240.844 209.809 240.735 209.722 240.637 209.624Z" fill="#3D3D3D"/>
<path d="M240.939 209.895L246.36 207.609C246.447 207.675 246.534 207.74 246.621 207.805L241.201 210.091C241.114 210.026 241.027 209.96 240.939 209.895Z" fill="#3C3C3C"/>
<path d="M241.191 210.092L246.612 207.807C246.688 207.861 246.764 207.915 246.841 207.959L241.42 210.245C241.344 210.201 241.268 210.147 241.191 210.092Z" fill="#3A3A3A"/>
<path d="M241.42 210.245L246.84 207.959C246.917 208.003 246.982 208.046 247.058 208.09L241.638 210.375C241.561 210.332 241.496 210.288 241.42 210.245Z" fill="#393939"/>
<path d="M241.637 210.374L247.057 208.088C247.123 208.121 247.188 208.164 247.253 208.197L241.833 210.483C241.767 210.45 241.702 210.417 241.637 210.374Z" fill="#373737"/>
<path d="M241.834 210.483L247.255 208.197C247.32 208.23 247.385 208.263 247.45 208.284L242.03 210.57C241.965 210.537 241.899 210.516 241.834 210.483Z" fill="#363636"/>
<path d="M242.041 210.571L247.462 208.285C247.527 208.307 247.592 208.34 247.647 208.361L242.226 210.647C242.161 210.625 242.095 210.604 242.041 210.571Z" fill="#353535"/>
<path d="M242.225 210.647L247.645 208.361C247.71 208.383 247.776 208.405 247.83 208.427L242.41 210.712C242.344 210.691 242.279 210.669 242.225 210.647Z" fill="#333333"/>
<path d="M242.41 210.712L247.831 208.426C247.896 208.448 247.95 208.458 248.016 208.48L242.595 210.766C242.53 210.755 242.465 210.733 242.41 210.712Z" fill="#323232"/>
<path d="M242.605 210.768L248.026 208.482C248.091 208.493 248.157 208.515 248.222 208.526L242.801 210.812C242.736 210.801 242.671 210.79 242.605 210.768Z" fill="#303030"/>
<path d="M242.791 210.811L248.212 208.525C248.277 208.536 248.342 208.547 248.407 208.558L242.987 210.844C242.922 210.844 242.856 210.822 242.791 210.811Z" fill="#2F2F2F"/>
<path d="M242.988 210.842L248.409 208.557C248.409 208.557 248.485 208.557 248.529 208.568L243.108 210.853C243.108 210.853 243.032 210.853 242.988 210.842Z" fill="#2D2D2D"/>
</g>
<mask id="mask15_515_14127" style="mask-type:luminance" maskUnits="userSpaceOnUse" x="242" y="194" width="12" height="17">
<path d="M250.093 208.337L244.672 210.623C246.479 209.861 247.731 207.444 247.644 204.429C247.535 200.62 245.315 197.311 242.691 197.049L248.112 194.764C250.724 195.025 252.945 198.334 253.064 202.143C253.152 205.148 251.9 207.575 250.093 208.337Z" fill="white"/>
</mask>
<g mask="url(#mask15_515_14127)">
<path d="M242.701 197.049L248.122 194.764C248.122 194.764 248.198 194.764 248.241 194.775L242.821 197.06C242.821 197.06 242.745 197.06 242.701 197.049Z" fill="#7C7C7C"/>
<path d="M242.811 197.059L248.231 194.773C248.296 194.773 248.362 194.795 248.427 194.806L243.006 197.092C242.941 197.081 242.876 197.07 242.811 197.059Z" fill="#808080"/>
<path d="M243.006 197.092L248.426 194.807C248.492 194.818 248.557 194.828 248.611 194.85L243.191 197.136C243.126 197.125 243.06 197.103 243.006 197.092Z" fill="#848484"/>
<path d="M243.201 197.137L248.622 194.852C248.687 194.862 248.741 194.884 248.807 194.906L243.386 197.192C243.321 197.17 243.266 197.159 243.201 197.137Z" fill="#888888"/>
<path d="M243.387 197.192L248.807 194.906C248.873 194.928 248.938 194.95 248.992 194.972L243.572 197.257C243.506 197.236 243.441 197.214 243.387 197.192Z" fill="#8C8C8C"/>
<path d="M243.572 197.256L248.993 194.971C249.058 194.992 249.123 195.014 249.178 195.047L243.757 197.333C243.692 197.311 243.627 197.278 243.572 197.256Z" fill="#909090"/>
<path d="M243.756 197.333L249.176 195.047C249.242 195.08 249.307 195.101 249.372 195.134L243.952 197.42C243.886 197.387 243.821 197.354 243.756 197.333Z" fill="#939393"/>
<path d="M243.953 197.419L249.374 195.133C249.439 195.165 249.504 195.198 249.57 195.242L244.149 197.527C244.084 197.495 244.018 197.451 243.953 197.419Z" fill="#979797"/>
<path d="M244.16 197.528L249.581 195.242C249.657 195.286 249.722 195.329 249.798 195.373L244.378 197.659C244.302 197.615 244.236 197.572 244.16 197.528Z" fill="#9B9B9B"/>
<path d="M244.377 197.659L249.798 195.373C249.874 195.427 249.95 195.471 250.026 195.525L244.606 197.811C244.529 197.757 244.453 197.702 244.377 197.659Z" fill="#9F9F9F"/>
<path d="M244.605 197.811L250.026 195.525C250.113 195.591 250.2 195.656 250.287 195.721L244.867 198.007C244.78 197.942 244.693 197.876 244.605 197.811Z" fill="#A3A3A3"/>
<path d="M244.857 198.008L250.278 195.723C250.387 195.81 250.485 195.897 250.583 195.995L245.162 198.281C245.064 198.183 244.966 198.096 244.857 198.008Z" fill="#A7A7A7"/>
<path d="M245.16 198.28L250.581 195.994C250.711 196.125 250.842 196.255 250.973 196.408L245.552 198.694C245.421 198.552 245.291 198.411 245.16 198.28Z" fill="#ABABAB"/>
<path d="M245.553 198.692L250.973 196.406C251.539 197.048 252.018 197.854 252.377 198.757L246.957 201.043C246.598 200.14 246.119 199.334 245.553 198.692Z" fill="#AFAFAF"/>
<path d="M246.957 201.044L252.378 198.758C252.476 199.019 252.573 199.291 252.65 199.563L247.229 201.849C247.142 201.577 247.055 201.305 246.957 201.044Z" fill="#ABABAB"/>
<path d="M247.24 201.85L252.661 199.564C252.726 199.782 252.781 199.989 252.835 200.218L247.414 202.503C247.36 202.286 247.306 202.068 247.24 201.85Z" fill="#A7A7A7"/>
<path d="M247.404 202.491L252.825 200.205C252.868 200.401 252.901 200.586 252.934 200.782L247.513 203.068C247.48 202.872 247.448 202.676 247.404 202.491Z" fill="#A3A3A3"/>
<path d="M247.512 203.079L252.932 200.793C252.965 200.967 252.987 201.152 253.008 201.337L247.588 203.623C247.566 203.438 247.544 203.264 247.512 203.079Z" fill="#9F9F9F"/>
<path d="M247.588 203.612L253.008 201.326C253.03 201.5 253.041 201.664 253.052 201.838L247.631 204.124C247.631 203.949 247.61 203.786 247.588 203.612Z" fill="#9B9B9B"/>
<path d="M247.633 204.124L253.053 201.838C253.053 201.936 253.053 202.045 253.064 202.143C253.064 202.208 253.064 202.273 253.064 202.328L247.644 204.613C247.644 204.548 247.644 204.483 247.644 204.428C247.644 204.33 247.644 204.222 247.633 204.124Z" fill="#979797"/>
<path d="M247.654 204.626L253.075 202.34C253.075 202.503 253.075 202.655 253.075 202.808L247.654 205.094C247.654 204.941 247.654 204.778 247.654 204.626Z" fill="#939393"/>
<path d="M247.643 205.094L253.063 202.809C253.063 202.961 253.053 203.113 253.042 203.255L247.621 205.541C247.632 205.388 247.643 205.247 247.643 205.094Z" fill="#909090"/>
<path d="M247.622 205.54L253.042 203.254C253.031 203.395 253.01 203.537 252.999 203.678L247.578 205.964C247.6 205.823 247.611 205.681 247.622 205.54Z" fill="#8C8C8C"/>
<path d="M247.567 205.964L252.988 203.678C252.966 203.819 252.944 203.961 252.922 204.091L247.502 206.377C247.524 206.236 247.545 206.105 247.567 205.964Z" fill="#888888"/>
<path d="M247.513 206.378L252.933 204.092C252.912 204.233 252.879 204.364 252.846 204.495L247.426 206.78C247.458 206.65 247.48 206.519 247.513 206.378Z" fill="#848484"/>
<path d="M247.424 206.78L252.845 204.494C252.812 204.625 252.779 204.755 252.747 204.886L247.326 207.172C247.359 207.041 247.391 206.911 247.424 206.78Z" fill="#808080"/>
<path d="M247.327 207.172L252.747 204.887C252.715 205.017 252.671 205.148 252.628 205.268L247.207 207.553C247.251 207.423 247.294 207.303 247.327 207.172Z" fill="#7C7C7C"/>
<path d="M247.208 207.565L252.628 205.279C252.585 205.41 252.541 205.541 252.487 205.66L247.066 207.946C247.121 207.826 247.164 207.696 247.208 207.565Z" fill="#787878"/>
<path d="M247.066 207.944L252.486 205.658C252.432 205.789 252.377 205.919 252.323 206.039L246.902 208.325C246.957 208.205 247.022 208.075 247.066 207.944Z" fill="#747474"/>
<path d="M246.891 208.325L252.312 206.039C252.246 206.17 252.181 206.3 252.116 206.42L246.695 208.706C246.761 208.586 246.837 208.455 246.891 208.325Z" fill="#717171"/>
<path d="M246.696 208.708L252.116 206.422C252.04 206.563 251.953 206.694 251.866 206.814L246.445 209.099C246.532 208.969 246.619 208.838 246.696 208.708Z" fill="#6D6D6D"/>
<path d="M246.446 209.098L251.866 206.812C251.757 206.965 251.649 207.106 251.54 207.248L246.119 209.534C246.239 209.403 246.348 209.251 246.446 209.098Z" fill="#696969"/>
<path d="M246.118 209.536L251.539 207.25C251.125 207.74 250.636 208.11 250.102 208.338L244.682 210.624C245.215 210.396 245.705 210.026 246.118 209.536Z" fill="#656565"/>
</g>
<mask id="mask16_515_14127" style="mask-type:luminance" maskUnits="userSpaceOnUse" x="244" y="208" width="7" height="3">
<path d="M250.071 208.35C250.071 208.35 250.071 208.35 250.082 208.35L244.661 210.635C244.661 210.635 244.661 210.635 244.65 210.635C246.457 209.873 248.264 209.112 250.071 208.35Z" fill="white"/>
</mask>
<g mask="url(#mask16_515_14127)">
<path d="M244.498 210.689L249.919 208.403C249.973 208.381 250.038 208.36 250.093 208.338L244.672 210.624C244.618 210.645 244.552 210.667 244.498 210.689Z" fill="#252525"/>
</g>
<path d="M257.45 203.146C257.45 202.994 257.45 202.841 257.45 202.689C257.45 202.569 257.45 202.46 257.45 202.341C257.45 202.156 257.44 201.96 257.429 201.775C257.418 201.579 257.396 201.383 257.374 201.187C257.374 201.1 257.363 201.013 257.352 200.936C257.352 200.904 257.352 200.86 257.352 200.828C257.32 200.49 257.265 200.153 257.211 199.826C257.211 199.804 257.211 199.783 257.2 199.761C257.178 199.652 257.157 199.543 257.135 199.434C257.091 199.206 257.048 198.977 257.004 198.749C256.993 198.694 256.972 198.64 256.961 198.585C256.917 198.389 256.863 198.194 256.808 197.998C256.765 197.845 256.732 197.682 256.689 197.53C256.678 197.486 256.656 197.442 256.645 197.388C256.503 196.931 256.362 196.496 256.188 196.06C256.188 196.06 256.188 196.038 256.177 196.027C256.014 195.625 255.84 195.233 255.654 194.841C255.6 194.721 255.524 194.602 255.469 194.482C255.339 194.221 255.208 193.97 255.067 193.731C254.991 193.589 254.903 193.459 254.816 193.328C254.686 193.11 254.544 192.904 254.403 192.697C254.305 192.555 254.207 192.436 254.109 192.305C253.967 192.12 253.826 191.935 253.673 191.761C253.63 191.706 253.586 191.641 253.543 191.587C253.478 191.51 253.401 191.445 253.336 191.369C253.205 191.227 253.075 191.086 252.933 190.955C252.879 190.901 252.824 190.835 252.77 190.781C252.672 190.694 252.574 190.607 252.476 190.52C252.411 190.465 252.346 190.4 252.28 190.346C252.248 190.313 252.215 190.28 252.182 190.259C252.019 190.128 251.856 189.997 251.692 189.878C251.66 189.856 251.616 189.823 251.584 189.801C251.551 189.78 251.507 189.747 251.475 189.725C251.399 189.671 251.322 189.616 251.246 189.573C251.105 189.486 250.963 189.399 250.822 189.312C250.789 189.29 250.756 189.279 250.724 189.257C250.702 189.246 250.669 189.225 250.648 189.214C250.582 189.181 250.506 189.137 250.441 189.105C250.31 189.04 250.18 188.985 250.06 188.931C249.994 188.898 249.918 188.876 249.853 188.844C249.831 188.844 249.809 188.822 249.788 188.811C249.755 188.8 249.722 188.789 249.69 188.767C249.57 188.724 249.439 188.68 249.32 188.637C249.2 188.604 249.08 188.561 248.95 188.528C248.939 188.528 248.928 188.528 248.917 188.528C248.906 188.528 248.895 188.528 248.884 188.528C248.786 188.506 248.688 188.484 248.579 188.463C248.449 188.441 248.329 188.419 248.199 188.397C248.122 188.397 248.046 188.376 247.97 188.365C247.916 188.365 247.861 188.365 247.796 188.354C247.654 188.354 247.524 188.332 247.382 188.332C247.328 188.332 247.273 188.332 247.219 188.332C247.175 188.332 247.143 188.332 247.099 188.332C247.045 188.332 246.99 188.332 246.947 188.332C246.794 188.332 246.631 188.354 246.479 188.376C246.457 188.376 246.435 188.376 246.413 188.386C246.359 188.386 246.305 188.408 246.25 188.419C246.141 188.441 246.022 188.452 245.913 188.484C245.858 188.495 245.804 188.517 245.749 188.528C245.641 188.561 245.532 188.582 245.423 188.626C245.358 188.648 245.281 188.659 245.216 188.68C245.096 188.724 244.977 188.767 244.868 188.811L239.447 191.097C239.632 191.021 239.817 190.955 240.002 190.901C240.111 190.868 240.22 190.836 240.329 190.803C240.492 190.759 240.666 190.727 240.83 190.694C240.884 190.694 240.938 190.672 240.993 190.661C241.221 190.629 241.45 190.607 241.679 190.607C241.722 190.607 241.755 190.607 241.798 190.607C242.049 190.607 242.299 190.607 242.549 190.64C242.854 190.672 243.159 190.727 243.464 190.803C243.475 190.803 243.485 190.803 243.496 190.803C243.79 190.879 244.084 190.966 244.367 191.075C244.389 191.075 244.411 191.097 244.432 191.108C244.705 191.216 244.966 191.336 245.238 191.478C245.26 191.489 245.292 191.51 245.314 191.521C245.564 191.663 245.815 191.815 246.065 191.978C246.098 192 246.141 192.033 246.174 192.055C246.413 192.218 246.642 192.403 246.871 192.599C246.936 192.653 247.001 192.719 247.067 192.773C247.219 192.914 247.371 193.056 247.524 193.208C247.665 193.339 247.796 193.48 247.926 193.633C248.046 193.763 248.155 193.883 248.264 194.014C248.416 194.188 248.558 194.373 248.699 194.558C248.797 194.689 248.895 194.819 248.993 194.95C249.135 195.146 249.265 195.364 249.407 195.57C249.494 195.701 249.581 195.832 249.657 195.973C249.799 196.213 249.929 196.463 250.06 196.724C250.125 196.844 250.19 196.964 250.245 197.083C250.43 197.464 250.604 197.856 250.767 198.259C250.767 198.27 250.767 198.291 250.778 198.302C250.941 198.727 251.094 199.173 251.235 199.619C251.301 199.815 251.344 200.022 251.399 200.218C251.453 200.414 251.507 200.61 251.551 200.806C251.616 201.078 251.671 201.361 251.725 201.644C251.747 201.753 251.769 201.862 251.79 201.97C251.856 202.362 251.91 202.754 251.954 203.146C251.954 203.233 251.965 203.32 251.975 203.407C252.008 203.788 252.041 204.169 252.052 204.561C252.052 204.833 252.052 205.105 252.052 205.366C252.052 205.475 252.052 205.573 252.052 205.682C252.052 205.998 252.03 206.303 251.997 206.607C251.997 206.629 251.997 206.64 251.997 206.662C251.975 206.956 251.943 207.239 251.899 207.511C251.888 207.609 251.867 207.696 251.856 207.783C251.823 207.99 251.79 208.186 251.747 208.382C251.725 208.479 251.703 208.588 251.682 208.686C251.638 208.882 251.595 209.067 251.551 209.252C251.529 209.339 251.507 209.437 251.486 209.524C251.42 209.753 251.355 209.971 251.29 210.188C251.279 210.232 251.257 210.286 251.246 210.33C251.159 210.591 251.061 210.852 250.952 211.103C250.92 211.19 250.876 211.266 250.843 211.353C250.767 211.516 250.691 211.69 250.615 211.854C250.56 211.973 250.495 212.082 250.441 212.191C250.375 212.322 250.31 212.452 250.234 212.572C250.147 212.724 250.049 212.877 249.951 213.029C249.897 213.116 249.842 213.203 249.788 213.28C249.614 213.541 249.418 213.78 249.222 214.009C249.167 214.074 249.102 214.139 249.048 214.205C248.917 214.357 248.786 214.499 248.645 214.629C248.569 214.705 248.492 214.771 248.416 214.836C248.286 214.956 248.144 215.076 248.013 215.184C247.937 215.25 247.861 215.304 247.774 215.369C247.622 215.478 247.469 215.576 247.317 215.674C247.241 215.718 247.175 215.772 247.099 215.805C246.871 215.935 246.631 216.055 246.392 216.153L251.812 213.867C252.052 213.769 252.291 213.65 252.52 213.519C252.596 213.476 252.661 213.432 252.737 213.388C252.89 213.29 253.042 213.193 253.195 213.084C253.271 213.029 253.358 212.964 253.434 212.899C253.576 212.79 253.706 212.67 253.837 212.55C253.913 212.485 253.989 212.42 254.065 212.344C254.207 212.213 254.337 212.061 254.468 211.919C254.512 211.865 254.566 211.821 254.61 211.778C254.62 211.767 254.631 211.745 254.642 211.734C254.838 211.505 255.023 211.255 255.197 211.005C255.197 210.994 255.219 210.983 255.219 210.972C255.274 210.896 255.317 210.82 255.361 210.743C255.459 210.591 255.557 210.45 255.644 210.286C255.654 210.265 255.676 210.243 255.687 210.221C255.742 210.123 255.796 210.014 255.85 209.905C255.905 209.797 255.97 209.688 256.025 209.568C256.035 209.546 256.046 209.524 256.057 209.503C256.123 209.361 256.188 209.22 256.253 209.067C256.286 208.98 256.329 208.904 256.362 208.828C256.362 208.817 256.373 208.806 256.384 208.795C256.482 208.567 256.569 208.327 256.656 208.077C256.656 208.077 256.656 208.066 256.656 208.055C256.667 208.011 256.689 207.957 256.699 207.913C256.765 207.728 256.819 207.543 256.874 207.358C256.874 207.326 256.895 207.282 256.906 207.25C256.928 207.162 256.95 207.064 256.972 206.977C257.004 206.858 257.037 206.749 257.059 206.629C257.08 206.553 257.091 206.477 257.102 206.401C257.124 206.303 257.146 206.205 257.167 206.096C257.178 206.02 257.2 205.943 257.211 205.867C257.233 205.737 257.255 205.617 257.265 205.486C257.276 205.399 257.298 205.301 257.309 205.214C257.309 205.181 257.32 205.138 257.331 205.105C257.363 204.855 257.385 204.605 257.407 204.354C257.407 204.343 257.407 204.332 257.407 204.311C257.429 204.039 257.45 203.766 257.461 203.483C257.461 203.451 257.461 203.418 257.461 203.385C257.461 203.288 257.461 203.179 257.461 203.081L257.45 203.146Z" fill="#6742CF"/>
<path d="M242.564 190.672C247.631 191.184 251.921 197.432 252.129 204.615C252.337 211.81 248.397 217.209 243.319 216.697C238.241 216.186 233.962 209.949 233.754 202.754C233.546 195.57 237.475 190.161 242.564 190.672ZM243.155 210.863C245.782 211.124 247.839 208.251 247.73 204.441C247.62 200.632 245.388 197.323 242.75 197.061C240.112 196.8 238.066 199.674 238.175 203.472C238.285 207.271 240.517 210.591 243.155 210.863Z" fill="#1F123B"/>
<path d="M242.752 197.051C245.378 197.312 247.611 200.621 247.731 204.431C247.851 208.24 245.794 211.125 243.156 210.853C240.519 210.581 238.297 207.283 238.177 203.462C238.057 199.642 240.114 196.779 242.752 197.051Z" fill="#B496F2"/>
<g clip-path="url(#clip0_515_14127)">
<mask id="mask17_515_14127" style="mask-type:luminance" maskUnits="userSpaceOnUse" x="214" y="146" width="53" height="31">
<path d="M214.529 153.742L227.199 146.373L266.863 169.274L254.182 176.632L214.529 153.742Z" fill="white"/>
</mask>
<g mask="url(#mask17_515_14127)">
<path d="M223.477 151.554L227.678 149.116L229.518 150.183C231.053 151.075 230.966 152 229.714 152.719C228.462 153.448 226.851 153.524 225.306 152.632L223.466 151.565M232.13 149.225L227.2 146.373L214.715 153.633L217.316 155.135L221.387 152.773L223.64 154.079C226.536 155.756 229.91 155.712 232.402 154.264C234.895 152.817 234.971 150.868 232.119 149.225" fill="#B496F2"/>
<path d="M229.388 158.945C229.388 158.945 229.388 158.945 229.377 158.945C229.377 158.945 229.377 158.945 229.366 158.945C228.561 158.477 227.266 158.477 226.493 158.945C225.677 159.402 225.687 160.164 226.493 160.632C227.298 161.1 228.583 161.089 229.377 160.621C230.172 160.153 230.15 159.413 229.377 158.967" fill="#B496F2"/>
<path d="M238.966 160.502L243.168 158.064L245.007 159.131C246.542 160.023 246.466 160.949 245.214 161.667C243.962 162.396 242.34 162.461 240.806 161.58L238.966 160.513M247.63 158.173L242.7 155.332L230.215 162.592L232.816 164.094L236.887 161.732L239.151 163.038C242.046 164.715 245.432 164.682 247.924 163.234C250.417 161.787 250.493 159.838 247.641 158.195" fill="#B496F2"/>
<path d="M256.284 163.158L253.715 161.678L241.23 168.938L243.788 170.418L256.284 163.158Z" fill="#B496F2"/>
<path d="M257.578 169.602C257.578 169.602 257.578 169.602 257.589 169.602C258.732 170.255 258.699 171.191 257.578 171.844L253.572 169.525C254.694 168.927 256.392 168.905 257.567 169.58C257.567 169.58 257.567 169.58 257.578 169.58M259.439 168.437C256.685 166.848 252.93 166.946 250.046 168.622C247.074 170.342 246.987 172.443 249.872 174.119C252.201 175.458 254.89 175.708 256.979 174.903L254.53 173.488C253.714 173.673 252.713 173.531 251.831 173.03C250.514 172.258 250.547 171.267 251.951 170.451L258.383 174.162L259.113 173.738C262.302 171.887 261.91 169.863 259.439 168.426" fill="#B496F2"/>
</g>
</g>
<defs>
<clipPath id="clip0_515_14127">
<rect width="55.9035" height="30.2593" fill="white" transform="translate(212.744 146.373)"/>
</clipPath>
</defs>
</svg>
