<svg width="351" height="234" viewBox="0 0 351 234" fill="none" xmlns="http://www.w3.org/2000/svg">
<rect x="0.6875" y="0.53125" width="350" height="233" fill="#E09064"/>
<rect x="181.977" y="123.074" width="132.639" height="9.72292" rx="2" fill="#54615E"/>
<path d="M314.616 130.797V125.074C314.616 123.97 313.72 123.074 312.616 123.074H310.125C309.911 123.074 309.719 123.102 309.515 123.167C299.152 126.437 251.468 132.797 220.316 132.797H312.616C313.72 132.797 314.616 131.902 314.616 130.797Z" fill="#495B57"/>
<rect x="232.617" y="122.77" width="31.357" height="10.3263" rx="1" fill="#24413A"/>
<path d="M205.832 93.9922C205.832 92.8876 206.727 91.9922 207.832 91.9922H217.974C219.079 91.9922 219.974 92.8876 219.974 93.9922V161.876C219.974 162.981 219.079 163.876 217.974 163.876H207.832C206.727 163.876 205.832 162.981 205.832 161.876V93.9922Z" fill="#3C9883"/>
<path d="M219.975 161.877V102.711L208.889 163.877H217.975C219.079 163.877 219.975 162.982 219.975 161.877Z" fill="#234A41"/>
<path d="M191.689 101.945C191.689 100.841 192.585 99.9453 193.689 99.9453H205.832V155.925H193.689C192.585 155.925 191.689 155.029 191.689 153.925V101.945Z" fill="#3C9883"/>
<path d="M290.762 99.9453H302.904C304.008 99.9453 304.904 100.841 304.904 101.945V153.925C304.904 155.029 304.008 155.925 302.904 155.925H290.762V99.9453Z" fill="#3C9883"/>
<path d="M276.619 93.9922C276.619 92.8876 277.515 91.9922 278.619 91.9922H288.761C289.866 91.9922 290.761 92.8876 290.761 93.9922V161.876C290.761 162.981 289.866 163.876 288.761 163.876H278.619C277.515 163.876 276.619 162.981 276.619 161.876V93.9922Z" fill="#3C9883"/>
<path d="M205.832 155.923V105.27L194.746 155.923H205.832Z" fill="#234A41"/>
<path d="M276.617 161.877V102.711L287.703 163.877H278.617C277.512 163.877 276.617 162.982 276.617 161.877Z" fill="#234A41"/>
<path d="M290.76 155.923V105.27L301.846 155.923H290.76Z" fill="#234A41"/>
</svg>
