<svg width="351" height="265" viewBox="0 0 351 265" fill="none" xmlns="http://www.w3.org/2000/svg">
<rect x="0.859375" y="0.753906" width="350" height="264" fill="#D38D8D"/>
<rect x="208.818" y="88.5176" width="55.2564" height="24.5584" rx="4" fill="#C3CCFB"/>
<rect x="222.633" y="88.5176" width="27.6282" height="98.2336" fill="#C3CCFB"/>
<path d="M222.633 113.088H250.261V137.812L222.633 119.383V113.088Z" fill="#9AA5E0"/>
<rect x="208.818" y="162.193" width="55.2564" height="24.5584" rx="4" fill="#C3CCFB"/>
<rect x="248.516" y="118.752" width="40.2173" height="17.8744" rx="4" transform="rotate(-18 248.516 118.752)" fill="#4841A6"/>
<rect x="258.078" y="115.646" width="20.1087" height="71.4975" transform="rotate(-18 258.078 115.646)" fill="#4841A6"/>
<rect x="265.088" y="169.746" width="40.2173" height="17.8744" rx="4" transform="rotate(-18 265.088 169.746)" fill="#4841A6"/>
<path d="M263.582 132.592L282.707 126.378L288.288 143.556L265.019 137.014L263.582 132.592Z" fill="#353071"/>
</svg>
