<svg width="351" height="265" viewBox="0 0 351 265" fill="none" xmlns="http://www.w3.org/2000/svg">
<rect x="0.6875" y="0.0449219" width="350" height="264" fill="#2E4491"/>
<rect x="162.688" y="139.328" width="151.856" height="11.1316" rx="2" fill="#FFC7C7"/>
<path d="M314.543 148.46V141.328C314.543 140.224 313.648 139.328 312.543 139.328H309.355C309.141 139.328 308.951 139.356 308.746 139.421C296.971 143.161 242.29 150.46 206.582 150.46H312.543C313.648 150.46 314.543 149.564 314.543 148.46Z" fill="#EFA7A7"/>
<rect x="220.664" y="138.984" width="35.9001" height="11.8223" rx="1" fill="#CF7E7E"/>
<path d="M190 105.746C190 104.642 190.895 103.746 192 103.746H204.191C205.296 103.746 206.191 104.642 206.191 105.746V184.045C206.191 185.149 205.296 186.045 204.191 186.045H192C190.895 186.045 190 185.149 190 184.045V105.746Z" fill="#347E8D"/>
<path d="M206.19 184.044V116.016L193.498 186.044H204.19C205.295 186.044 206.19 185.148 206.19 184.044Z" fill="#245F6B"/>
<path d="M173.809 114.852C173.809 113.747 174.704 112.852 175.809 112.852H190V176.941H175.809C174.704 176.941 173.809 176.046 173.809 174.941V114.852Z" fill="#347E8D"/>
<path d="M287.232 112.852H301.423C302.528 112.852 303.423 113.747 303.423 114.852V174.941C303.423 176.046 302.528 176.941 301.423 176.941H287.232V112.852Z" fill="#347E8D"/>
<path d="M271.041 105.746C271.041 104.642 271.936 103.746 273.041 103.746H285.232C286.337 103.746 287.232 104.642 287.232 105.746V184.045C287.232 185.149 286.337 186.045 285.232 186.045H273.041C271.936 186.045 271.041 185.149 271.041 184.045V105.746Z" fill="#347E8D"/>
<path d="M190.001 176.938V118.945L177.309 176.938H190.001Z" fill="#245F6B"/>
<path d="M271.042 184.044V116.016L283.734 186.044H273.042C271.938 186.044 271.042 185.148 271.042 184.044Z" fill="#245F6B"/>
<path d="M287.234 176.938V118.945L299.926 176.938H287.234Z" fill="#245F6B"/>
</svg>
