<svg width="351" height="265" viewBox="0 0 351 265" fill="none" xmlns="http://www.w3.org/2000/svg">
<rect x="0.6875" y="0.939453" width="350" height="264" fill="#DC7D94"/>
<rect x="162.76" y="140.225" width="151.856" height="11.1316" rx="2" fill="#A1A6AB"/>
<path d="M314.615 149.356V142.225C314.615 141.12 313.72 140.225 312.615 140.225H309.428C309.213 140.225 309.023 140.252 308.818 140.317C297.044 144.057 242.362 151.356 206.654 151.356H312.615C313.72 151.356 314.615 150.461 314.615 149.356Z" fill="#848F9B"/>
<rect x="220.738" y="139.879" width="35.9001" height="11.8223" rx="1" fill="#27435E"/>
<path d="M190.07 106.641C190.07 105.536 190.966 104.641 192.07 104.641H204.261C205.366 104.641 206.261 105.536 206.261 106.641V184.939C206.261 186.044 205.366 186.939 204.261 186.939H192.07C190.966 186.939 190.07 186.044 190.07 184.939V106.641Z" fill="#3C6C98"/>
<path d="M206.263 184.94V116.912L193.57 186.94H204.263C205.367 186.94 206.263 186.045 206.263 184.94Z" fill="#2B4965"/>
<path d="M173.881 115.746C173.881 114.642 174.776 113.746 175.881 113.746H190.072V177.836H175.881C174.776 177.836 173.881 176.94 173.881 175.836V115.746Z" fill="#3C6C98"/>
<path d="M287.305 113.746H301.496C302.6 113.746 303.496 114.642 303.496 115.746V175.836C303.496 176.94 302.6 177.836 301.496 177.836H287.305V113.746Z" fill="#3C6C98"/>
<path d="M271.113 106.641C271.113 105.536 272.009 104.641 273.113 104.641H285.304C286.409 104.641 287.304 105.536 287.304 106.641V184.939C287.304 186.044 286.409 186.939 285.304 186.939H273.113C272.009 186.939 271.113 186.044 271.113 184.939V106.641Z" fill="#3C6C98"/>
<path d="M190.071 177.834V119.842L177.379 177.834H190.071Z" fill="#2B4965"/>
<path d="M271.112 184.94V116.912L283.805 186.94H273.112C272.008 186.94 271.112 186.045 271.112 184.94Z" fill="#2B4965"/>
<path d="M287.304 177.834V119.842L299.996 177.834H287.304Z" fill="#2B4965"/>
</svg>
