<svg width="351" height="265" viewBox="0 0 351 265" fill="none" xmlns="http://www.w3.org/2000/svg">
<rect x="0.859375" y="0.648438" width="350" height="264" fill="#33837E"/>
<path d="M201.092 129.746L313.363 191.413L274.069 220.258L167.62 158.831L162.612 155.282L161.42 152.583L201.092 129.746Z" fill="#1F1F1F"/>
<path d="M156.532 138.896C151.416 146.441 161.69 155.294 167.516 158.791L190.227 143.123C190.227 143.123 186.854 141.149 183.988 139.116C181.785 137.553 177.628 134.56 174.735 133.396C170.483 131.885 161.649 131.352 156.532 138.896Z" fill="#1F1F1F"/>
<mask id="mask0_505_16182" style="mask-type:luminance" maskUnits="userSpaceOnUse" x="223" y="141" width="8" height="3">
<path d="M228.585 141.287C229.129 141.342 229.662 141.265 230.141 141.059C228.334 141.821 226.527 142.582 224.721 143.344C224.242 143.54 223.708 143.627 223.164 143.573C224.786 142.887 226.832 141.548 228.585 141.287Z" fill="white"/>
</mask>
<g mask="url(#mask0_505_16182)">
<path d="M223.164 143.565L228.585 141.279C228.585 141.279 228.639 141.279 228.672 141.279L223.251 143.565C223.251 143.565 223.197 143.565 223.164 143.565Z" fill="#2D2D2D"/>
<path d="M223.252 143.575L228.672 141.289C228.738 141.289 228.814 141.289 228.879 141.289L223.459 143.575C223.393 143.575 223.317 143.575 223.252 143.575Z" fill="#2C2C2C"/>
<path d="M223.457 143.587L228.878 141.301C228.954 141.301 229.03 141.301 229.106 141.301L223.686 143.587C223.609 143.587 223.533 143.587 223.457 143.587Z" fill="#2B2B2B"/>
<path d="M223.688 143.587L229.108 141.301C229.184 141.301 229.26 141.29 229.348 141.279L223.927 143.565C223.851 143.565 223.775 143.587 223.688 143.587Z" fill="#292929"/>
<path d="M223.916 143.553L229.337 141.267C229.435 141.256 229.532 141.235 229.62 141.213L224.199 143.499C224.101 143.52 224.014 143.542 223.916 143.553Z" fill="#282828"/>
<path d="M224.209 143.51L229.63 141.224C229.749 141.191 229.869 141.159 229.989 141.115L224.568 143.401C224.448 143.445 224.329 143.477 224.209 143.51Z" fill="#262626"/>
<path d="M224.557 143.4L229.977 141.114C230.032 141.092 230.097 141.071 230.151 141.049L224.731 143.335C224.676 143.356 224.611 143.378 224.557 143.4Z" fill="#252525"/>
</g>
<mask id="mask1_505_16182" style="mask-type:luminance" maskUnits="userSpaceOnUse" x="218" y="127" width="11" height="17">
<path d="M223.632 133.898C223.741 137.719 225.961 141.017 228.584 141.289L223.164 143.575C220.541 143.303 218.331 140.005 218.211 136.184C220.018 135.422 221.825 134.66 223.632 133.898C221.825 134.66 220.018 135.422 218.211 136.173C218.124 133.18 219.365 130.753 221.183 129.991L226.603 127.705C224.786 128.467 223.545 130.883 223.632 133.888V133.898Z" fill="white"/>
</mask>
<g mask="url(#mask1_505_16182)">
<path d="M221.183 130.003L226.603 127.717C226.07 127.945 225.58 128.315 225.167 128.805L219.746 131.091C220.16 130.601 220.65 130.231 221.183 130.003Z" fill="#252525"/>
<path d="M219.746 131.081L225.167 128.795C225.047 128.926 224.938 129.078 224.84 129.23L219.42 131.516C219.529 131.364 219.638 131.222 219.746 131.081Z" fill="#262626"/>
<path d="M219.409 131.516L224.829 129.23C224.742 129.361 224.666 129.492 224.579 129.622L219.158 131.908C219.234 131.767 219.321 131.636 219.409 131.516Z" fill="#282828"/>
<path d="M219.169 131.907L224.589 129.621C224.524 129.741 224.448 129.871 224.393 130.002L218.973 132.288C219.038 132.157 219.103 132.027 219.169 131.907Z" fill="#292929"/>
<path d="M218.962 132.288L224.383 130.002C224.328 130.122 224.263 130.252 224.219 130.383L218.799 132.669C218.853 132.538 218.908 132.407 218.962 132.288Z" fill="#2B2B2B"/>
<path d="M218.8 132.669L224.22 130.383C224.166 130.503 224.122 130.633 224.079 130.764L218.658 133.05C218.702 132.919 218.745 132.788 218.8 132.669Z" fill="#2C2C2C"/>
<path d="M218.657 133.051L224.077 130.766C224.034 130.896 223.99 131.016 223.958 131.147L218.537 133.432C218.57 133.302 218.613 133.171 218.657 133.051Z" fill="#2D2D2D"/>
<path d="M218.537 133.432L223.958 131.146C223.925 131.277 223.893 131.408 223.86 131.538L218.439 133.824C218.472 133.693 218.505 133.563 218.537 133.432Z" fill="#2F2F2F"/>
<path d="M218.439 133.823L223.859 131.537C223.827 131.668 223.805 131.798 223.772 131.94L218.352 134.226C218.373 134.084 218.406 133.953 218.439 133.823Z" fill="#303030"/>
<path d="M218.352 134.227L223.773 131.941C223.751 132.083 223.729 132.214 223.708 132.355L218.287 134.641C218.309 134.499 218.331 134.358 218.352 134.227Z" fill="#323232"/>
<path d="M218.288 134.649L223.708 132.363C223.686 132.505 223.676 132.646 223.665 132.788L218.244 135.074C218.255 134.932 218.277 134.791 218.288 134.649Z" fill="#333333"/>
<path d="M218.242 135.075L223.663 132.789C223.652 132.941 223.641 133.083 223.641 133.235L218.221 135.521C218.221 135.369 218.232 135.216 218.242 135.075Z" fill="#353535"/>
<path d="M218.221 135.522L223.641 133.236C223.641 133.389 223.641 133.552 223.641 133.704L218.221 135.99C218.221 135.827 218.221 135.674 218.221 135.522Z" fill="#363636"/>
<path d="M218.211 135.989L223.631 133.703C223.631 133.768 223.631 133.834 223.631 133.888C223.631 133.986 223.631 134.095 223.642 134.193L218.222 136.479C218.222 136.381 218.222 136.272 218.211 136.174C218.211 136.109 218.211 136.043 218.211 135.989Z" fill="#373737"/>
<path d="M218.232 136.491L223.653 134.205C223.653 134.379 223.675 134.553 223.697 134.717L218.276 137.002C218.254 136.828 218.243 136.665 218.232 136.491Z" fill="#393939"/>
<path d="M218.275 137.001L223.696 134.715C223.718 134.9 223.739 135.074 223.772 135.259L218.352 137.545C218.319 137.371 218.297 137.186 218.275 137.001Z" fill="#3A3A3A"/>
<path d="M218.342 137.546L223.762 135.26C223.795 135.456 223.828 135.652 223.871 135.848L218.451 138.133C218.407 137.937 218.374 137.741 218.342 137.546Z" fill="#3C3C3C"/>
<path d="M218.461 138.133L223.881 135.848C223.936 136.065 223.99 136.283 224.056 136.501L218.635 138.787C218.57 138.569 218.515 138.351 218.461 138.133Z" fill="#3D3D3D"/>
<path d="M218.625 138.776L224.046 136.49C224.133 136.762 224.22 137.034 224.329 137.296L218.908 139.581C218.81 139.32 218.712 139.048 218.625 138.776Z" fill="#3E3E3E"/>
<path d="M218.906 139.592L224.327 137.307C224.686 138.21 225.165 139.005 225.72 139.647L220.299 141.933C219.733 141.29 219.255 140.496 218.906 139.592Z" fill="#404040"/>
<path d="M220.301 141.932L225.721 139.646C225.852 139.788 225.983 139.929 226.113 140.049L220.693 142.335C220.562 142.204 220.431 142.074 220.301 141.932Z" fill="#3E3E3E"/>
<path d="M220.693 142.335L226.114 140.049C226.212 140.147 226.31 140.234 226.419 140.321L220.998 142.607C220.9 142.52 220.791 142.433 220.693 142.335Z" fill="#3D3D3D"/>
<path d="M220.996 142.606L226.417 140.32C226.504 140.386 226.591 140.451 226.678 140.516L221.257 142.802C221.17 142.737 221.083 142.671 220.996 142.606Z" fill="#3C3C3C"/>
<path d="M221.248 142.803L226.669 140.518C226.745 140.572 226.821 140.626 226.897 140.67L221.477 142.956C221.4 142.912 221.324 142.858 221.248 142.803Z" fill="#3A3A3A"/>
<path d="M221.477 142.956L226.897 140.67C226.973 140.713 227.039 140.757 227.115 140.801L221.694 143.086C221.618 143.043 221.553 142.999 221.477 142.956Z" fill="#393939"/>
<path d="M221.693 143.085L227.114 140.799C227.179 140.831 227.245 140.875 227.31 140.908L221.889 143.193C221.824 143.161 221.759 143.128 221.693 143.085Z" fill="#373737"/>
<path d="M221.9 143.194L227.321 140.908C227.386 140.941 227.452 140.974 227.517 140.995L222.096 143.281C222.031 143.248 221.966 143.227 221.9 143.194Z" fill="#363636"/>
<path d="M222.098 143.294L227.518 141.008C227.584 141.03 227.649 141.062 227.703 141.084L222.283 143.37C222.217 143.348 222.152 143.326 222.098 143.294Z" fill="#353535"/>
<path d="M222.281 143.368L227.702 141.082C227.767 141.104 227.832 141.126 227.887 141.147L222.466 143.433C222.401 143.411 222.336 143.39 222.281 143.368Z" fill="#333333"/>
<path d="M222.479 143.422L227.899 141.137C227.964 141.158 228.019 141.169 228.084 141.191L222.664 143.477C222.598 143.466 222.533 143.444 222.479 143.422Z" fill="#323232"/>
<path d="M222.662 143.479L228.083 141.193C228.148 141.204 228.213 141.226 228.279 141.237L222.858 143.523C222.793 143.512 222.727 143.501 222.662 143.479Z" fill="#303030"/>
<path d="M222.848 143.522L228.268 141.236C228.334 141.247 228.399 141.258 228.464 141.269L223.044 143.555C222.978 143.555 222.913 143.533 222.848 143.522Z" fill="#2F2F2F"/>
<path d="M223.045 143.553L228.465 141.268C228.465 141.268 228.542 141.268 228.585 141.278L223.165 143.564C223.165 143.564 223.088 143.564 223.045 143.553Z" fill="#2D2D2D"/>
</g>
<mask id="mask2_505_16182" style="mask-type:luminance" maskUnits="userSpaceOnUse" x="222" y="127" width="12" height="17">
<path d="M230.152 141.052L224.731 143.337C226.538 142.575 227.79 140.159 227.703 137.144C227.594 133.334 225.373 130.026 222.75 129.764L228.171 127.479C230.783 127.74 233.003 131.049 233.123 134.858C233.21 137.862 231.958 140.29 230.152 141.052Z" fill="white"/>
</mask>
<g mask="url(#mask2_505_16182)">
<path d="M222.762 129.764L228.182 127.479C228.182 127.479 228.258 127.479 228.302 127.489L222.881 129.775C222.881 129.775 222.805 129.775 222.762 129.764Z" fill="#7C7C7C"/>
<path d="M222.881 129.786L228.301 127.5C228.367 127.5 228.432 127.522 228.497 127.533L223.077 129.818C223.011 129.808 222.946 129.797 222.881 129.786Z" fill="#808080"/>
<path d="M223.066 129.807L228.487 127.521C228.552 127.532 228.618 127.543 228.672 127.565L223.251 129.851C223.186 129.84 223.121 129.818 223.066 129.807Z" fill="#848484"/>
<path d="M223.262 129.852L228.682 127.566C228.748 127.577 228.802 127.599 228.867 127.621L223.447 129.907C223.381 129.885 223.327 129.874 223.262 129.852Z" fill="#888888"/>
<path d="M223.447 129.907L228.868 127.621C228.933 127.643 228.998 127.665 229.053 127.686L223.632 129.972C223.567 129.95 223.502 129.929 223.447 129.907Z" fill="#8C8C8C"/>
<path d="M223.633 129.971L229.053 127.686C229.119 127.707 229.184 127.729 229.238 127.762L223.818 130.048C223.753 130.026 223.687 129.993 223.633 129.971Z" fill="#909090"/>
<path d="M223.828 130.047L229.249 127.762C229.314 127.794 229.379 127.816 229.445 127.849L224.024 130.135C223.959 130.102 223.893 130.069 223.828 130.047Z" fill="#939393"/>
<path d="M224.025 130.133L229.446 127.848C229.511 127.88 229.577 127.913 229.642 127.957L224.221 130.242C224.156 130.21 224.091 130.166 224.025 130.133Z" fill="#979797"/>
<path d="M224.221 130.243L229.641 127.957C229.717 128.001 229.783 128.044 229.859 128.088L224.438 130.373C224.362 130.33 224.297 130.286 224.221 130.243Z" fill="#9B9B9B"/>
<path d="M224.438 130.374L229.858 128.088C229.934 128.142 230.01 128.186 230.087 128.24L224.666 130.526C224.59 130.472 224.514 130.417 224.438 130.374Z" fill="#9F9F9F"/>
<path d="M224.666 130.526L230.087 128.24C230.174 128.306 230.261 128.371 230.348 128.436L224.927 130.722C224.84 130.657 224.753 130.591 224.666 130.526Z" fill="#A3A3A3"/>
<path d="M224.928 130.733L230.348 128.447C230.457 128.534 230.555 128.621 230.653 128.719L225.233 131.005C225.135 130.907 225.037 130.82 224.928 130.733Z" fill="#A7A7A7"/>
<path d="M225.232 130.995L230.653 128.709C230.784 128.84 230.914 128.97 231.045 129.123L225.624 131.408C225.494 131.267 225.363 131.125 225.232 130.995Z" fill="#ABABAB"/>
<path d="M225.625 131.407L231.046 129.121C231.612 129.763 232.09 130.569 232.45 131.472L227.029 133.758C226.67 132.855 226.191 132.049 225.625 131.407Z" fill="#AFAFAF"/>
<path d="M227.018 133.758L232.438 131.473C232.536 131.734 232.634 132.006 232.71 132.278L227.29 134.564C227.203 134.292 227.116 134.02 227.018 133.758Z" fill="#ABABAB"/>
<path d="M227.301 134.565L232.721 132.279C232.787 132.497 232.841 132.704 232.895 132.932L227.475 135.218C227.421 135 227.366 134.783 227.301 134.565Z" fill="#A7A7A7"/>
<path d="M227.465 135.206L232.885 132.92C232.929 133.116 232.962 133.301 232.994 133.497L227.574 135.783C227.541 135.587 227.508 135.391 227.465 135.206Z" fill="#A3A3A3"/>
<path d="M227.584 135.794L233.005 133.508C233.037 133.682 233.059 133.867 233.081 134.052L227.66 136.338C227.638 136.153 227.617 135.979 227.584 135.794Z" fill="#9F9F9F"/>
<path d="M227.66 136.327L233.081 134.041C233.102 134.215 233.113 134.378 233.124 134.553L227.704 136.838C227.704 136.664 227.682 136.501 227.66 136.327Z" fill="#9B9B9B"/>
<path d="M227.693 136.85L233.114 134.564C233.114 134.662 233.114 134.771 233.125 134.869C233.125 134.935 233.125 135 233.125 135.054L227.704 137.34C227.704 137.275 227.704 137.209 227.704 137.155C227.704 137.057 227.704 136.948 227.693 136.85Z" fill="#979797"/>
<path d="M227.715 137.34L233.135 135.055C233.135 135.218 233.135 135.37 233.135 135.523L227.715 137.808C227.715 137.656 227.715 137.493 227.715 137.34Z" fill="#939393"/>
<path d="M227.703 137.809L233.124 135.523C233.124 135.676 233.113 135.828 233.102 135.97L227.682 138.255C227.693 138.103 227.703 137.962 227.703 137.809Z" fill="#909090"/>
<path d="M227.682 138.255L233.103 135.969C233.092 136.11 233.07 136.252 233.059 136.393L227.639 138.679C227.66 138.538 227.671 138.396 227.682 138.255Z" fill="#8C8C8C"/>
<path d="M227.638 138.678L233.058 136.393C233.036 136.534 233.015 136.676 232.993 136.806L227.572 139.092C227.594 138.95 227.616 138.82 227.638 138.678Z" fill="#888888"/>
<path d="M227.573 139.104L232.994 136.818C232.972 136.96 232.94 137.09 232.907 137.221L227.486 139.507C227.519 139.376 227.541 139.246 227.573 139.104Z" fill="#848484"/>
<path d="M227.485 139.505L232.905 137.219C232.873 137.349 232.84 137.48 232.807 137.611L227.387 139.896C227.419 139.766 227.452 139.635 227.485 139.505Z" fill="#808080"/>
<path d="M227.387 139.899L232.808 137.613C232.775 137.744 232.732 137.875 232.688 137.994L227.268 140.28C227.311 140.149 227.355 140.03 227.387 139.899Z" fill="#7C7C7C"/>
<path d="M227.268 140.28L232.689 137.994C232.645 138.125 232.602 138.255 232.547 138.375L227.127 140.661C227.181 140.541 227.225 140.411 227.268 140.28Z" fill="#787878"/>
<path d="M227.126 140.659L232.547 138.373C232.492 138.504 232.438 138.634 232.383 138.754L226.963 141.04C227.017 140.92 227.083 140.789 227.126 140.659Z" fill="#747474"/>
<path d="M226.952 141.04L232.372 138.754C232.307 138.885 232.242 139.015 232.176 139.135L226.756 141.421C226.821 141.301 226.897 141.17 226.952 141.04Z" fill="#717171"/>
<path d="M226.756 141.422L232.177 139.137C232.101 139.278 232.013 139.409 231.926 139.529L226.506 141.814C226.593 141.684 226.68 141.553 226.756 141.422Z" fill="#6D6D6D"/>
<path d="M226.506 141.825L231.927 139.539C231.818 139.691 231.709 139.833 231.6 139.974L226.18 142.26C226.299 142.13 226.408 141.977 226.506 141.825Z" fill="#696969"/>
<path d="M226.179 142.251L231.6 139.965C231.186 140.455 230.696 140.825 230.163 141.053L224.742 143.339C225.276 143.11 225.765 142.74 226.179 142.251Z" fill="#656565"/>
</g>
<mask id="mask3_505_16182" style="mask-type:luminance" maskUnits="userSpaceOnUse" x="224" y="141" width="7" height="3">
<path d="M230.141 141.059C230.141 141.059 230.141 141.059 230.152 141.059L224.732 143.344C224.732 143.344 224.732 143.344 224.721 143.344C226.528 142.582 228.334 141.821 230.141 141.059Z" fill="white"/>
</mask>
<g mask="url(#mask3_505_16182)">
<path d="M224.557 143.4L229.977 141.114C230.032 141.092 230.097 141.071 230.151 141.049L224.731 143.335C224.676 143.356 224.611 143.378 224.557 143.4Z" fill="#252525"/>
</g>
<path d="M237.511 135.859C237.511 135.707 237.511 135.554 237.511 135.402C237.511 135.282 237.511 135.173 237.511 135.053C237.511 134.868 237.5 134.672 237.489 134.487C237.478 134.292 237.457 134.096 237.435 133.9C237.435 133.813 237.424 133.726 237.413 133.649C237.413 133.617 237.413 133.573 237.413 133.54C237.38 133.203 237.326 132.866 237.272 132.539C237.272 132.517 237.272 132.496 237.261 132.474C237.239 132.365 237.217 132.256 237.195 132.147C237.152 131.919 237.108 131.69 237.065 131.462C237.054 131.407 237.032 131.353 237.021 131.298C236.978 131.102 236.923 130.906 236.869 130.71C236.825 130.558 236.793 130.395 236.749 130.242C236.738 130.199 236.716 130.155 236.706 130.101C236.564 129.644 236.423 129.208 236.248 128.773C236.248 128.773 236.248 128.751 236.237 128.74C236.074 128.338 235.9 127.946 235.715 127.554C235.661 127.434 235.584 127.314 235.53 127.195C235.399 126.934 235.269 126.683 235.127 126.444C235.051 126.302 234.964 126.172 234.877 126.041C234.746 125.823 234.605 125.616 234.463 125.41C234.365 125.268 234.267 125.148 234.169 125.018C234.028 124.833 233.886 124.648 233.734 124.474C233.69 124.419 233.647 124.354 233.603 124.299C233.538 124.223 233.462 124.158 233.397 124.082C233.266 123.94 233.135 123.799 232.994 123.668C232.939 123.614 232.885 123.548 232.831 123.494C232.733 123.407 232.635 123.32 232.537 123.233C232.471 123.178 232.406 123.113 232.341 123.059C232.308 123.026 232.275 122.993 232.243 122.972C232.08 122.841 231.916 122.71 231.753 122.591C231.72 122.569 231.677 122.536 231.644 122.514C231.612 122.493 231.568 122.46 231.535 122.438C231.459 122.384 231.383 122.329 231.307 122.286C231.165 122.199 231.024 122.112 230.882 122.025C230.85 122.003 230.817 121.992 230.784 121.97C230.763 121.959 230.73 121.937 230.708 121.927C230.643 121.894 230.567 121.85 230.501 121.818C230.371 121.752 230.24 121.698 230.12 121.644C230.055 121.611 229.979 121.589 229.914 121.556C229.892 121.556 229.87 121.535 229.848 121.524C229.816 121.513 229.783 121.502 229.75 121.48C229.631 121.437 229.5 121.393 229.38 121.35C229.26 121.317 229.141 121.273 229.01 121.241C228.999 121.241 228.988 121.241 228.977 121.241C228.967 121.241 228.956 121.241 228.945 121.241C228.847 121.219 228.749 121.197 228.64 121.176C228.509 121.154 228.39 121.132 228.259 121.11C228.183 121.11 228.107 121.088 228.03 121.078C227.976 121.078 227.922 121.078 227.856 121.067C227.715 121.067 227.584 121.045 227.443 121.045C227.388 121.045 227.334 121.045 227.279 121.045C227.236 121.045 227.203 121.045 227.16 121.045C227.105 121.045 227.051 121.045 227.007 121.045C226.855 121.045 226.692 121.067 226.539 121.088C226.518 121.088 226.496 121.088 226.474 121.099C226.42 121.099 226.365 121.121 226.311 121.132C226.202 121.154 226.082 121.165 225.973 121.197C225.919 121.208 225.864 121.23 225.81 121.241C225.701 121.273 225.592 121.295 225.483 121.339C225.418 121.361 225.342 121.371 225.277 121.393C225.157 121.437 225.037 121.48 224.928 121.524L219.508 123.81C219.693 123.733 219.878 123.668 220.063 123.614C220.172 123.581 220.281 123.548 220.389 123.516C220.553 123.472 220.727 123.44 220.89 123.407C220.945 123.407 220.999 123.385 221.053 123.374C221.282 123.342 221.511 123.32 221.739 123.32C221.783 123.32 221.815 123.32 221.859 123.32C222.109 123.32 222.36 123.32 222.61 123.352C222.915 123.385 223.219 123.44 223.524 123.516C223.535 123.516 223.546 123.516 223.557 123.516C223.851 123.592 224.145 123.679 224.428 123.788C224.449 123.788 224.471 123.81 224.493 123.821C224.765 123.929 225.026 124.049 225.298 124.191C225.32 124.201 225.353 124.223 225.375 124.234C225.625 124.376 225.875 124.528 226.126 124.691C226.158 124.713 226.202 124.746 226.235 124.767C226.474 124.931 226.703 125.116 226.931 125.312C226.996 125.366 227.062 125.431 227.127 125.486C227.279 125.627 227.432 125.769 227.584 125.921C227.726 126.052 227.856 126.193 227.987 126.346C228.107 126.476 228.216 126.596 228.324 126.727C228.477 126.901 228.618 127.086 228.76 127.271C228.858 127.402 228.956 127.532 229.054 127.663C229.195 127.859 229.326 128.076 229.467 128.283C229.554 128.414 229.641 128.544 229.718 128.686C229.859 128.925 229.99 129.176 230.12 129.437C230.186 129.557 230.251 129.676 230.305 129.796C230.49 130.177 230.665 130.569 230.828 130.972C230.828 130.983 230.828 131.004 230.839 131.015C231.002 131.44 231.154 131.886 231.296 132.332C231.361 132.528 231.405 132.735 231.459 132.931C231.514 133.127 231.568 133.323 231.612 133.519C231.677 133.791 231.731 134.074 231.786 134.357C231.807 134.466 231.829 134.575 231.851 134.683C231.916 135.075 231.971 135.467 232.014 135.859C232.014 135.946 232.025 136.033 232.036 136.12C232.069 136.501 232.101 136.882 232.112 137.274C232.112 137.546 232.112 137.818 232.112 138.079C232.112 138.188 232.112 138.286 232.112 138.395C232.112 138.711 232.09 139.015 232.058 139.32C232.058 139.342 232.058 139.353 232.058 139.375C232.036 139.669 232.003 139.952 231.96 140.224C231.949 140.322 231.927 140.409 231.916 140.496C231.884 140.703 231.851 140.898 231.807 141.094C231.786 141.192 231.764 141.301 231.742 141.399C231.699 141.595 231.655 141.78 231.612 141.965C231.59 142.052 231.568 142.15 231.546 142.237C231.481 142.466 231.416 142.684 231.35 142.901C231.339 142.945 231.318 142.999 231.307 143.043C231.22 143.304 231.122 143.565 231.013 143.816C230.98 143.903 230.937 143.979 230.904 144.066C230.828 144.229 230.752 144.403 230.675 144.567C230.621 144.686 230.556 144.795 230.501 144.904C230.436 145.035 230.371 145.165 230.294 145.285C230.207 145.437 230.109 145.59 230.011 145.742C229.957 145.829 229.903 145.916 229.848 145.992C229.674 146.254 229.478 146.493 229.282 146.722C229.228 146.787 229.162 146.852 229.108 146.918C228.977 147.07 228.847 147.212 228.705 147.342C228.629 147.418 228.553 147.484 228.477 147.549C228.346 147.669 228.205 147.788 228.074 147.897C227.998 147.963 227.922 148.017 227.835 148.082C227.682 148.191 227.53 148.289 227.377 148.387C227.301 148.431 227.236 148.485 227.16 148.518C226.931 148.648 226.692 148.768 226.452 148.866L231.873 146.58C232.112 146.482 232.352 146.363 232.58 146.232C232.656 146.188 232.722 146.145 232.798 146.101C232.95 146.003 233.103 145.905 233.255 145.797C233.331 145.742 233.418 145.677 233.495 145.612C233.636 145.503 233.767 145.383 233.897 145.263C233.973 145.198 234.05 145.133 234.126 145.056C234.267 144.926 234.398 144.773 234.529 144.632C234.572 144.577 234.627 144.534 234.67 144.49C234.681 144.48 234.692 144.458 234.703 144.447C234.899 144.218 235.084 143.968 235.258 143.718C235.258 143.707 235.28 143.696 235.28 143.685C235.334 143.609 235.378 143.533 235.421 143.456C235.519 143.304 235.617 143.162 235.704 142.999C235.715 142.977 235.737 142.956 235.748 142.934C235.802 142.836 235.857 142.727 235.911 142.618C235.965 142.509 236.031 142.401 236.085 142.281C236.096 142.259 236.107 142.237 236.118 142.216C236.183 142.074 236.248 141.933 236.314 141.78C236.346 141.693 236.39 141.617 236.423 141.541C236.423 141.53 236.433 141.519 236.444 141.508C236.542 141.279 236.629 141.04 236.716 140.79C236.716 140.79 236.716 140.779 236.716 140.768C236.727 140.724 236.749 140.67 236.76 140.626C236.825 140.441 236.88 140.256 236.934 140.071C236.934 140.039 236.956 139.995 236.967 139.962C236.989 139.875 237.01 139.777 237.032 139.69C237.065 139.571 237.097 139.462 237.119 139.342C237.141 139.266 237.152 139.19 237.163 139.113C237.184 139.015 237.206 138.917 237.228 138.809C237.239 138.732 237.261 138.656 237.272 138.58C237.293 138.449 237.315 138.33 237.326 138.199C237.337 138.112 237.359 138.014 237.369 137.927C237.369 137.894 237.38 137.851 237.391 137.818C237.424 137.568 237.446 137.317 237.467 137.067C237.467 137.056 237.467 137.045 237.467 137.024C237.489 136.751 237.511 136.479 237.522 136.196C237.522 136.164 237.522 136.131 237.522 136.098C237.522 136 237.522 135.892 237.522 135.794L237.511 135.859Z" fill="#6742CF"/>
<path d="M222.717 123.219C227.837 123.734 232.172 130.022 232.382 137.251C232.592 144.492 228.611 149.925 223.48 149.41C218.349 148.895 214.025 142.618 213.815 135.378C213.604 128.148 217.575 122.704 222.717 123.219ZM223.314 143.539C225.968 143.801 228.047 140.91 227.937 137.076C227.826 133.242 225.57 129.912 222.905 129.649C220.24 129.386 218.172 132.278 218.282 136.101C218.393 139.924 220.649 143.265 223.314 143.539Z" fill="#1F1F1F"/>
<path d="M222.762 129.764C225.374 130.025 227.595 133.334 227.714 137.144C227.834 140.953 225.788 143.838 223.165 143.566C220.541 143.294 218.332 139.996 218.212 136.175C218.092 132.355 220.139 129.492 222.762 129.764Z" fill="#1F1F1F"/>
<mask id="mask4_505_16182" style="mask-type:luminance" maskUnits="userSpaceOnUse" x="283" y="173" width="8" height="4">
<path d="M288.993 174.193C289.537 174.248 290.07 174.172 290.549 173.965C288.742 174.727 286.936 175.489 285.129 176.251C284.65 176.447 284.116 176.534 283.572 176.479C285.194 175.793 287.24 174.455 288.993 174.193Z" fill="white"/>
</mask>
<g mask="url(#mask4_505_16182)">
<path d="M283.572 176.481L288.993 174.195C288.993 174.195 289.047 174.195 289.08 174.195L283.659 176.481C283.659 176.481 283.605 176.481 283.572 176.481Z" fill="#2D2D2D"/>
<path d="M283.66 176.481L289.081 174.195C289.146 174.195 289.222 174.195 289.288 174.195L283.867 176.481C283.802 176.481 283.725 176.481 283.66 176.481Z" fill="#2C2C2C"/>
<path d="M283.865 176.491L289.286 174.205C289.362 174.205 289.438 174.205 289.514 174.205L284.094 176.491C284.018 176.491 283.941 176.491 283.865 176.491Z" fill="#2B2B2B"/>
<path d="M284.096 176.493L289.516 174.207C289.592 174.207 289.669 174.196 289.756 174.186L284.335 176.471C284.259 176.471 284.183 176.493 284.096 176.493Z" fill="#292929"/>
<path d="M284.324 176.469L289.745 174.183C289.843 174.172 289.941 174.151 290.028 174.129L284.607 176.415C284.509 176.436 284.422 176.458 284.324 176.469Z" fill="#282828"/>
<path d="M284.617 176.416L290.038 174.13C290.157 174.098 290.277 174.065 290.397 174.021L284.976 176.307C284.857 176.351 284.737 176.383 284.617 176.416Z" fill="#262626"/>
<path d="M284.965 176.306L290.385 174.02C290.44 173.999 290.505 173.977 290.56 173.955L285.139 176.241C285.085 176.263 285.019 176.284 284.965 176.306Z" fill="#252525"/>
</g>
<mask id="mask5_505_16182" style="mask-type:luminance" maskUnits="userSpaceOnUse" x="278" y="160" width="11" height="17">
<path d="M284.042 166.805C284.151 170.625 286.371 173.923 288.995 174.195L283.574 176.481C280.951 176.209 278.741 172.911 278.621 169.09C280.428 168.329 282.235 167.567 284.042 166.805C282.235 167.567 280.428 168.329 278.621 169.08C278.534 166.086 279.775 163.659 281.593 162.897L287.014 160.611C285.196 161.373 283.955 163.79 284.042 166.794V166.805Z" fill="white"/>
</mask>
<g mask="url(#mask5_505_16182)">
<path d="M281.595 162.909L287.016 160.623C286.482 160.852 285.992 161.222 285.579 161.712L280.158 163.997C280.572 163.507 281.062 163.137 281.595 162.909Z" fill="#252525"/>
<path d="M280.159 163.987L285.579 161.701C285.459 161.832 285.351 161.984 285.253 162.137L279.832 164.422C279.941 164.27 280.05 164.128 280.159 163.987Z" fill="#262626"/>
<path d="M279.821 164.422L285.241 162.137C285.154 162.267 285.078 162.398 284.991 162.529L279.57 164.814C279.647 164.673 279.734 164.542 279.821 164.422Z" fill="#282828"/>
<path d="M279.581 164.813L285.001 162.527C284.936 162.647 284.86 162.778 284.805 162.908L279.385 165.194C279.45 165.063 279.515 164.933 279.581 164.813Z" fill="#292929"/>
<path d="M279.374 165.194L284.795 162.908C284.74 163.028 284.675 163.159 284.631 163.289L279.211 165.575C279.265 165.444 279.32 165.314 279.374 165.194Z" fill="#2B2B2B"/>
<path d="M279.212 165.575L284.632 163.289C284.578 163.409 284.534 163.539 284.491 163.67L279.07 165.956C279.114 165.825 279.157 165.695 279.212 165.575Z" fill="#2C2C2C"/>
<path d="M279.069 165.958L284.489 163.672C284.446 163.802 284.402 163.922 284.37 164.053L278.949 166.339C278.982 166.208 279.025 166.077 279.069 165.958Z" fill="#2D2D2D"/>
<path d="M278.95 166.339L284.37 164.053C284.337 164.183 284.305 164.314 284.272 164.445L278.852 166.73C278.884 166.6 278.917 166.469 278.95 166.339Z" fill="#2F2F2F"/>
<path d="M278.851 166.739L284.271 164.453C284.239 164.584 284.217 164.714 284.184 164.856L278.764 167.142C278.785 167 278.818 166.87 278.851 166.739Z" fill="#303030"/>
<path d="M278.765 167.143L284.185 164.857C284.163 164.999 284.142 165.13 284.12 165.271L278.699 167.557C278.721 167.415 278.743 167.274 278.765 167.143Z" fill="#323232"/>
<path d="M278.7 167.555L284.12 165.27C284.099 165.411 284.088 165.553 284.077 165.694L278.656 167.98C278.667 167.838 278.689 167.697 278.7 167.555Z" fill="#333333"/>
<path d="M278.655 167.981L284.075 165.695C284.064 165.848 284.053 165.989 284.053 166.142L278.633 168.427C278.633 168.275 278.644 168.123 278.655 167.981Z" fill="#353535"/>
<path d="M278.633 168.428L284.053 166.143C284.053 166.295 284.053 166.458 284.053 166.611L278.633 168.896C278.633 168.733 278.633 168.581 278.633 168.428Z" fill="#363636"/>
<path d="M278.623 168.895L284.044 166.609C284.044 166.675 284.044 166.74 284.044 166.794C284.044 166.892 284.044 167.001 284.054 167.099L278.634 169.385C278.634 169.287 278.634 169.178 278.623 169.08C278.623 169.015 278.623 168.95 278.623 168.895Z" fill="#373737"/>
<path d="M278.645 169.397L284.065 167.111C284.065 167.285 284.087 167.46 284.109 167.623L278.688 169.909C278.666 169.735 278.655 169.571 278.645 169.397Z" fill="#393939"/>
<path d="M278.688 169.907L284.108 167.621C284.13 167.806 284.152 167.98 284.184 168.165L278.764 170.451C278.731 170.277 278.709 170.092 278.688 169.907Z" fill="#3A3A3A"/>
<path d="M278.754 170.452L284.174 168.166C284.207 168.362 284.24 168.558 284.283 168.754L278.863 171.04C278.819 170.844 278.787 170.648 278.754 170.452Z" fill="#3C3C3C"/>
<path d="M278.873 171.04L284.294 168.754C284.348 168.972 284.402 169.189 284.468 169.407L279.047 171.693C278.982 171.475 278.927 171.257 278.873 171.04Z" fill="#3D3D3D"/>
<path d="M279.037 171.694L284.458 169.408C284.545 169.68 284.632 169.952 284.741 170.214L279.32 172.499C279.222 172.238 279.124 171.966 279.037 171.694Z" fill="#3E3E3E"/>
<path d="M279.318 172.499L284.739 170.213C285.098 171.116 285.577 171.911 286.132 172.553L280.712 174.839C280.146 174.197 279.667 173.402 279.318 172.499Z" fill="#404040"/>
<path d="M280.713 174.839L286.133 172.553C286.264 172.694 286.395 172.836 286.525 172.955L281.105 175.241C280.974 175.111 280.844 174.98 280.713 174.839Z" fill="#3E3E3E"/>
<path d="M281.105 175.241L286.526 172.955C286.624 173.053 286.722 173.14 286.831 173.227L281.41 175.513C281.312 175.426 281.203 175.339 281.105 175.241Z" fill="#3D3D3D"/>
<path d="M281.408 175.512L286.829 173.227C286.916 173.292 287.003 173.357 287.09 173.422L281.669 175.708C281.582 175.643 281.495 175.578 281.408 175.512Z" fill="#3C3C3C"/>
<path d="M281.66 175.71L287.081 173.424C287.157 173.478 287.233 173.533 287.309 173.576L281.889 175.862C281.813 175.818 281.736 175.764 281.66 175.71Z" fill="#3A3A3A"/>
<path d="M281.889 175.872L287.309 173.586C287.385 173.629 287.451 173.673 287.527 173.717L282.106 176.002C282.03 175.959 281.965 175.915 281.889 175.872Z" fill="#393939"/>
<path d="M282.105 176.003L287.526 173.717C287.591 173.749 287.657 173.793 287.722 173.826L282.301 176.111C282.236 176.079 282.171 176.046 282.105 176.003Z" fill="#373737"/>
<path d="M282.312 176.1L287.733 173.814C287.798 173.847 287.864 173.88 287.929 173.902L282.508 176.187C282.443 176.155 282.378 176.133 282.312 176.1Z" fill="#363636"/>
<path d="M282.51 176.2L287.93 173.914C287.996 173.936 288.061 173.968 288.115 173.99L282.695 176.276C282.63 176.254 282.564 176.232 282.51 176.2Z" fill="#353535"/>
<path d="M282.693 176.274L288.114 173.988C288.179 174.01 288.245 174.032 288.299 174.054L282.878 176.339C282.813 176.318 282.748 176.296 282.693 176.274Z" fill="#333333"/>
<path d="M282.891 176.329L288.311 174.043C288.376 174.065 288.431 174.076 288.496 174.097L283.076 176.383C283.01 176.372 282.945 176.351 282.891 176.329Z" fill="#323232"/>
<path d="M283.074 176.385L288.495 174.1C288.56 174.11 288.625 174.132 288.691 174.143L283.27 176.429C283.205 176.418 283.14 176.407 283.074 176.385Z" fill="#303030"/>
<path d="M283.26 176.428L288.68 174.143C288.746 174.153 288.811 174.164 288.876 174.175L283.456 176.461C283.39 176.461 283.325 176.439 283.26 176.428Z" fill="#2F2F2F"/>
<path d="M283.457 176.46L288.878 174.174C288.878 174.174 288.954 174.174 288.997 174.185L283.577 176.47C283.577 176.47 283.501 176.47 283.457 176.46Z" fill="#2D2D2D"/>
</g>
<mask id="mask6_505_16182" style="mask-type:luminance" maskUnits="userSpaceOnUse" x="283" y="160" width="11" height="17">
<path d="M290.562 173.966L285.141 176.251C286.948 175.49 288.2 173.073 288.113 170.058C288.004 166.249 285.783 162.94 283.16 162.678L288.581 160.393C291.193 160.654 293.413 163.963 293.533 167.772C293.62 170.777 292.369 173.204 290.562 173.966Z" fill="white"/>
</mask>
<g mask="url(#mask6_505_16182)">
<path d="M283.17 162.669L288.59 160.383C288.59 160.383 288.667 160.383 288.71 160.394L283.29 162.679C283.29 162.679 283.213 162.679 283.17 162.669Z" fill="#7C7C7C"/>
<path d="M283.289 162.69L288.71 160.404C288.775 160.404 288.84 160.426 288.906 160.437L283.485 162.723C283.42 162.712 283.354 162.701 283.289 162.69Z" fill="#808080"/>
<path d="M283.475 162.723L288.895 160.438C288.96 160.448 289.026 160.459 289.08 160.481L283.66 162.767C283.594 162.756 283.529 162.734 283.475 162.723Z" fill="#848484"/>
<path d="M283.67 162.756L289.09 160.471C289.156 160.482 289.21 160.503 289.276 160.525L283.855 162.811C283.79 162.789 283.735 162.778 283.67 162.756Z" fill="#888888"/>
<path d="M283.855 162.811L289.276 160.525C289.341 160.547 289.407 160.569 289.461 160.591L284.041 162.876C283.975 162.855 283.91 162.833 283.855 162.811Z" fill="#8C8C8C"/>
<path d="M284.041 162.876L289.462 160.59C289.527 160.612 289.592 160.633 289.647 160.666L284.226 162.952C284.161 162.93 284.095 162.897 284.041 162.876Z" fill="#909090"/>
<path d="M284.236 162.952L289.657 160.666C289.722 160.699 289.787 160.72 289.853 160.753L284.432 163.039C284.367 163.006 284.302 162.974 284.236 162.952Z" fill="#939393"/>
<path d="M284.434 163.049L289.854 160.764C289.919 160.796 289.985 160.829 290.05 160.873L284.63 163.158C284.564 163.126 284.499 163.082 284.434 163.049Z" fill="#979797"/>
<path d="M284.629 163.147L290.049 160.861C290.126 160.905 290.191 160.948 290.267 160.992L284.847 163.278C284.77 163.234 284.705 163.191 284.629 163.147Z" fill="#9B9B9B"/>
<path d="M284.846 163.278L290.266 160.992C290.342 161.047 290.419 161.09 290.495 161.145L285.074 163.43C284.998 163.376 284.922 163.321 284.846 163.278Z" fill="#9F9F9F"/>
<path d="M285.074 163.43L290.495 161.145C290.582 161.21 290.669 161.275 290.756 161.34L285.335 163.626C285.248 163.561 285.161 163.496 285.074 163.43Z" fill="#A3A3A3"/>
<path d="M285.336 163.637L290.756 161.352C290.865 161.439 290.963 161.526 291.061 161.624L285.641 163.909C285.543 163.811 285.445 163.724 285.336 163.637Z" fill="#A7A7A7"/>
<path d="M285.641 163.899L291.061 161.613C291.192 161.744 291.322 161.875 291.453 162.027L286.032 164.313C285.902 164.171 285.771 164.03 285.641 163.899Z" fill="#ABABAB"/>
<path d="M286.033 164.311L291.454 162.025C292.02 162.668 292.499 163.473 292.858 164.376L287.437 166.662C287.078 165.759 286.599 164.953 286.033 164.311Z" fill="#AFAFAF"/>
<path d="M287.426 166.663L292.846 164.377C292.944 164.638 293.042 164.91 293.118 165.182L287.698 167.468C287.611 167.196 287.524 166.924 287.426 166.663Z" fill="#ABABAB"/>
<path d="M287.709 167.469L293.13 165.184C293.195 165.401 293.249 165.608 293.304 165.837L287.883 168.122C287.829 167.905 287.774 167.687 287.709 167.469Z" fill="#A7A7A7"/>
<path d="M287.873 168.122L293.294 165.836C293.337 166.032 293.37 166.217 293.402 166.413L287.982 168.699C287.949 168.503 287.917 168.307 287.873 168.122Z" fill="#A3A3A3"/>
<path d="M287.992 168.698L293.413 166.412C293.445 166.586 293.467 166.771 293.489 166.956L288.068 169.242C288.047 169.057 288.025 168.883 287.992 168.698Z" fill="#9F9F9F"/>
<path d="M288.057 169.243L293.477 166.957C293.499 167.131 293.51 167.294 293.521 167.469L288.1 169.754C288.1 169.58 288.078 169.417 288.057 169.243Z" fill="#9B9B9B"/>
<path d="M288.102 169.755L293.522 167.469C293.522 167.567 293.522 167.676 293.533 167.774C293.533 167.839 293.533 167.904 293.533 167.959L288.112 170.244C288.112 170.179 288.112 170.114 288.112 170.059C288.112 169.961 288.112 169.852 288.102 169.755Z" fill="#979797"/>
<path d="M288.123 170.245L293.544 167.959C293.544 168.122 293.544 168.275 293.544 168.427L288.123 170.713C288.123 170.56 288.123 170.397 288.123 170.245Z" fill="#939393"/>
<path d="M288.112 170.714L293.532 168.428C293.532 168.58 293.521 168.733 293.51 168.874L288.09 171.16C288.101 171.007 288.112 170.866 288.112 170.714Z" fill="#909090"/>
<path d="M288.09 171.159L293.511 168.873C293.5 169.015 293.478 169.156 293.467 169.298L288.047 171.583C288.069 171.442 288.08 171.3 288.09 171.159Z" fill="#8C8C8C"/>
<path d="M288.046 171.592L293.466 169.307C293.445 169.448 293.423 169.59 293.401 169.72L287.98 172.006C288.002 171.865 288.024 171.734 288.046 171.592Z" fill="#888888"/>
<path d="M287.982 172.008L293.402 169.723C293.38 169.864 293.348 169.995 293.315 170.125L287.895 172.411C287.927 172.281 287.949 172.15 287.982 172.008Z" fill="#848484"/>
<path d="M287.893 172.409L293.313 170.123C293.281 170.254 293.248 170.384 293.215 170.515L287.795 172.801C287.828 172.67 287.86 172.539 287.893 172.409Z" fill="#808080"/>
<path d="M287.796 172.803L293.216 170.518C293.183 170.648 293.14 170.779 293.096 170.899L287.676 173.184C287.719 173.054 287.763 172.934 287.796 172.803Z" fill="#7C7C7C"/>
<path d="M287.677 173.184L293.097 170.898C293.054 171.029 293.01 171.16 292.956 171.279L287.535 173.565C287.59 173.445 287.633 173.315 287.677 173.184Z" fill="#787878"/>
<path d="M287.534 173.563L292.955 171.277C292.9 171.408 292.846 171.539 292.792 171.658L287.371 173.944C287.426 173.824 287.491 173.694 287.534 173.563Z" fill="#747474"/>
<path d="M287.36 173.944L292.781 171.658C292.715 171.789 292.65 171.919 292.585 172.039L287.164 174.325C287.229 174.205 287.306 174.075 287.36 173.944Z" fill="#717171"/>
<path d="M287.164 174.327L292.585 172.041C292.509 172.183 292.422 172.313 292.335 172.433L286.914 174.719C287.001 174.588 287.088 174.457 287.164 174.327Z" fill="#6D6D6D"/>
<path d="M286.914 174.729L292.335 172.443C292.226 172.596 292.117 172.737 292.008 172.879L286.588 175.165C286.708 175.034 286.816 174.882 286.914 174.729Z" fill="#696969"/>
<path d="M286.587 175.155L292.008 172.869C291.594 173.359 291.104 173.729 290.571 173.958L285.15 176.243C285.684 176.015 286.174 175.645 286.587 175.155Z" fill="#656565"/>
</g>
<mask id="mask7_505_16182" style="mask-type:luminance" maskUnits="userSpaceOnUse" x="285" y="173" width="6" height="4">
<path d="M290.551 173.965C290.551 173.965 290.551 173.965 290.562 173.965L285.142 176.251C285.142 176.251 285.142 176.251 285.131 176.251C286.938 175.489 288.745 174.727 290.551 173.965Z" fill="white"/>
</mask>
<g mask="url(#mask7_505_16182)">
<path d="M284.969 176.306L290.389 174.02C290.444 173.999 290.509 173.977 290.563 173.955L285.143 176.241C285.088 176.263 285.023 176.284 284.969 176.306Z" fill="#252525"/>
</g>
<path d="M297.919 168.763C297.919 168.611 297.919 168.458 297.919 168.306C297.919 168.186 297.919 168.077 297.919 167.958C297.919 167.773 297.908 167.577 297.897 167.392C297.887 167.196 297.865 167 297.843 166.804C297.843 166.717 297.832 166.63 297.821 166.554C297.821 166.521 297.821 166.477 297.821 166.445C297.789 166.107 297.734 165.77 297.68 165.443C297.68 165.422 297.68 165.4 297.669 165.378C297.647 165.269 297.625 165.16 297.604 165.052C297.56 164.823 297.516 164.594 297.473 164.366C297.462 164.311 297.44 164.257 297.429 164.203C297.386 164.007 297.331 163.811 297.277 163.615C297.233 163.462 297.201 163.299 297.157 163.147C297.146 163.103 297.125 163.06 297.114 163.005C296.972 162.548 296.831 162.113 296.657 161.677C296.657 161.677 296.657 161.656 296.646 161.645C296.482 161.242 296.308 160.85 296.123 160.458C296.069 160.338 295.993 160.219 295.938 160.099C295.808 159.838 295.677 159.587 295.535 159.348C295.459 159.206 295.372 159.076 295.285 158.945C295.154 158.728 295.013 158.521 294.871 158.314C294.774 158.172 294.676 158.053 294.578 157.922C294.436 157.737 294.295 157.552 294.142 157.378C294.099 157.323 294.055 157.258 294.012 157.204C293.946 157.128 293.87 157.062 293.805 156.986C293.674 156.845 293.544 156.703 293.402 156.572C293.348 156.518 293.293 156.453 293.239 156.398C293.141 156.311 293.043 156.224 292.945 156.137C292.88 156.083 292.814 156.017 292.749 155.963C292.716 155.93 292.684 155.898 292.651 155.876C292.488 155.745 292.324 155.615 292.161 155.495C292.129 155.473 292.085 155.44 292.052 155.419C292.02 155.397 291.976 155.364 291.944 155.342C291.867 155.288 291.791 155.234 291.715 155.19C291.573 155.103 291.432 155.016 291.29 154.929C291.258 154.907 291.225 154.896 291.192 154.874C291.171 154.864 291.138 154.842 291.116 154.831C291.051 154.798 290.975 154.755 290.909 154.722C290.779 154.657 290.648 154.602 290.529 154.548C290.463 154.515 290.387 154.493 290.322 154.461C290.3 154.461 290.278 154.439 290.256 154.428C290.224 154.417 290.191 154.406 290.158 154.385C290.039 154.341 289.908 154.298 289.788 154.254C289.669 154.221 289.549 154.178 289.418 154.145C289.407 154.145 289.397 154.145 289.386 154.145C289.375 154.145 289.364 154.145 289.353 154.145C289.255 154.123 289.157 154.102 289.048 154.08C288.918 154.058 288.798 154.036 288.667 154.015C288.591 154.015 288.515 153.993 288.439 153.982C288.384 153.982 288.33 153.982 288.265 153.971C288.123 153.971 287.992 153.949 287.851 153.949C287.796 153.949 287.742 153.949 287.688 153.949C287.644 153.949 287.611 153.949 287.568 153.949C287.513 153.949 287.459 153.949 287.416 153.949C287.263 153.949 287.1 153.971 286.947 153.993C286.926 153.993 286.904 153.993 286.882 154.004C286.828 154.004 286.773 154.025 286.719 154.036C286.61 154.058 286.49 154.069 286.381 154.102C286.327 154.112 286.273 154.134 286.218 154.145C286.109 154.178 286.001 154.2 285.892 154.243C285.826 154.265 285.75 154.276 285.685 154.298C285.565 154.341 285.445 154.385 285.337 154.428L279.916 156.714C280.101 156.638 280.286 156.572 280.471 156.518C280.58 156.485 280.689 156.453 280.798 156.42C280.961 156.376 281.135 156.344 281.298 156.311C281.353 156.311 281.407 156.289 281.462 156.279C281.69 156.246 281.919 156.224 282.147 156.224C282.191 156.224 282.224 156.224 282.267 156.224C282.517 156.224 282.768 156.224 283.018 156.257C283.323 156.289 283.628 156.344 283.932 156.42C283.943 156.42 283.954 156.42 283.965 156.42C284.259 156.496 284.553 156.583 284.836 156.692C284.858 156.692 284.879 156.714 284.901 156.725C285.173 156.834 285.435 156.953 285.707 157.095C285.728 157.106 285.761 157.128 285.783 157.138C286.033 157.28 286.284 157.432 286.534 157.596C286.567 157.617 286.61 157.65 286.643 157.672C286.882 157.835 287.111 158.02 287.339 158.216C287.405 158.27 287.47 158.336 287.535 158.39C287.688 158.532 287.84 158.673 287.992 158.826C288.134 158.956 288.265 159.098 288.395 159.25C288.515 159.381 288.624 159.5 288.733 159.631C288.885 159.805 289.026 159.99 289.168 160.175C289.266 160.306 289.364 160.436 289.462 160.567C289.603 160.763 289.734 160.981 289.875 161.187C289.963 161.318 290.05 161.449 290.126 161.59C290.267 161.83 290.398 162.08 290.529 162.341C290.594 162.461 290.659 162.581 290.714 162.7C290.899 163.081 291.073 163.473 291.236 163.876C291.236 163.887 291.236 163.909 291.247 163.92C291.41 164.344 291.563 164.79 291.704 165.237C291.769 165.433 291.813 165.639 291.867 165.835C291.922 166.031 291.976 166.227 292.02 166.423C292.085 166.695 292.139 166.978 292.194 167.261C292.216 167.37 292.237 167.479 292.259 167.588C292.324 167.98 292.379 168.371 292.422 168.763C292.422 168.85 292.433 168.937 292.444 169.024C292.477 169.405 292.51 169.786 292.52 170.178C292.52 170.45 292.52 170.722 292.52 170.984C292.52 171.093 292.52 171.19 292.52 171.299C292.52 171.615 292.499 171.92 292.466 172.225C292.466 172.246 292.466 172.257 292.466 172.279C292.444 172.573 292.412 172.856 292.368 173.128C292.357 173.226 292.335 173.313 292.324 173.4C292.292 173.607 292.259 173.803 292.216 173.999C292.194 174.097 292.172 174.206 292.15 174.303C292.107 174.499 292.063 174.684 292.02 174.869C291.998 174.957 291.976 175.055 291.954 175.142C291.889 175.37 291.824 175.588 291.758 175.806C291.748 175.849 291.726 175.904 291.715 175.947C291.628 176.208 291.53 176.47 291.421 176.72C291.388 176.807 291.345 176.883 291.312 176.97C291.236 177.133 291.16 177.308 291.084 177.471C291.029 177.591 290.964 177.699 290.909 177.808C290.844 177.939 290.779 178.07 290.703 178.189C290.616 178.342 290.518 178.494 290.42 178.646C290.365 178.734 290.311 178.821 290.256 178.897C290.082 179.158 289.886 179.397 289.69 179.626C289.636 179.691 289.571 179.757 289.516 179.822C289.386 179.974 289.255 180.116 289.114 180.246C289.037 180.323 288.961 180.388 288.885 180.453C288.754 180.573 288.613 180.693 288.482 180.802C288.406 180.867 288.33 180.921 288.243 180.987C288.09 181.095 287.938 181.193 287.786 181.291C287.709 181.335 287.644 181.389 287.568 181.422C287.339 181.553 287.1 181.672 286.86 181.77L292.281 179.485C292.52 179.387 292.76 179.267 292.988 179.136C293.065 179.093 293.13 179.049 293.206 179.006C293.359 178.908 293.511 178.81 293.663 178.701C293.739 178.646 293.827 178.581 293.903 178.516C294.044 178.407 294.175 178.287 294.305 178.168C294.382 178.102 294.458 178.037 294.534 177.961C294.676 177.83 294.806 177.678 294.937 177.536C294.98 177.482 295.035 177.438 295.078 177.395C295.089 177.384 295.1 177.362 295.111 177.351C295.307 177.123 295.492 176.872 295.666 176.622C295.666 176.611 295.688 176.6 295.688 176.589C295.742 176.513 295.786 176.437 295.829 176.361C295.927 176.208 296.025 176.067 296.112 175.904C296.123 175.882 296.145 175.86 296.156 175.838C296.21 175.74 296.265 175.631 296.319 175.523C296.374 175.414 296.439 175.305 296.493 175.185C296.504 175.163 296.515 175.142 296.526 175.12C296.591 174.978 296.657 174.837 296.722 174.684C296.755 174.597 296.798 174.521 296.831 174.445C296.831 174.434 296.842 174.423 296.852 174.412C296.95 174.184 297.038 173.944 297.125 173.694C297.125 173.694 297.125 173.683 297.125 173.672C297.135 173.629 297.157 173.574 297.168 173.531C297.233 173.346 297.288 173.161 297.342 172.976C297.342 172.943 297.364 172.899 297.375 172.867C297.397 172.78 297.418 172.682 297.44 172.595C297.473 172.475 297.506 172.366 297.527 172.246C297.549 172.17 297.56 172.094 297.571 172.018C297.593 171.92 297.614 171.822 297.636 171.713C297.647 171.637 297.669 171.561 297.68 171.484C297.701 171.354 297.723 171.234 297.734 171.103C297.745 171.016 297.767 170.918 297.778 170.831C297.778 170.799 297.789 170.755 297.799 170.722C297.832 170.472 297.854 170.222 297.876 169.971C297.876 169.961 297.876 169.95 297.876 169.928C297.897 169.656 297.919 169.384 297.93 169.101C297.93 169.068 297.93 169.035 297.93 169.003C297.93 168.905 297.93 168.796 297.93 168.698L297.919 168.763Z" fill="#6742CF"/>
<path d="M283.036 156.289C288.104 156.801 292.395 163.049 292.603 170.233C292.811 177.427 288.871 182.826 283.792 182.314C278.713 181.803 274.433 175.566 274.225 168.371C274.017 161.187 277.946 155.778 283.036 156.289ZM283.627 176.48C286.255 176.742 288.312 173.868 288.203 170.058C288.093 166.249 285.86 162.94 283.222 162.679C280.584 162.417 278.537 165.291 278.647 169.09C278.756 172.888 280.989 176.208 283.627 176.48Z" fill="#1F1F1F"/>
<path d="M283.17 162.668C285.782 162.93 288.003 166.238 288.123 170.048C288.242 173.858 286.196 176.742 283.573 176.47C280.95 176.198 278.74 172.9 278.62 169.079C278.501 165.259 280.547 162.396 283.17 162.668Z" fill="#1F1F1F"/>
<path d="M161.666 142.162C157.486 135.936 157.78 126.107 158.825 121.514L165.65 138.624L181.498 153.068L264.863 199.698L287.721 213.402L287.373 219.334C254.642 201.363 186.951 163.931 178.015 157.945C168.491 151.566 163.168 144.393 161.666 142.162Z" fill="#1A1341"/>
<path d="M214.718 123.713L327.83 187.143L287.797 214.077L178.309 153.167L214.729 123.713H214.718Z" fill="#A387DF"/>
<path d="M160.632 115.756C152.392 129.938 168.937 146.581 178.32 153.155L214.892 123.701C214.892 123.701 209.46 119.99 204.845 116.169C201.297 113.23 194.603 107.603 189.944 105.415C183.098 102.574 168.872 101.573 160.632 115.756Z" fill="#A387DF"/>
<mask id="mask8_505_16182" style="mask-type:luminance" maskUnits="userSpaceOnUse" x="179" y="172" width="8" height="4">
<path d="M184.862 173.053C185.406 173.107 185.94 173.031 186.418 172.824C184.612 173.586 182.805 174.348 180.998 175.11C180.519 175.306 179.986 175.393 179.441 175.339C181.063 174.653 183.11 173.314 184.862 173.053Z" fill="white"/>
</mask>
<g mask="url(#mask8_505_16182)">
<path d="M179.441 175.34L184.862 173.055C184.862 173.055 184.916 173.055 184.949 173.055L179.528 175.34C179.528 175.34 179.474 175.34 179.441 175.34Z" fill="#2D2D2D"/>
<path d="M179.529 175.34L184.95 173.055C185.015 173.055 185.091 173.055 185.157 173.055L179.736 175.34C179.671 175.34 179.595 175.34 179.529 175.34Z" fill="#2C2C2C"/>
<path d="M179.746 175.35L185.167 173.064C185.243 173.064 185.319 173.064 185.395 173.064L179.975 175.35C179.898 175.35 179.822 175.35 179.746 175.35Z" fill="#2B2B2B"/>
<path d="M179.965 175.349L185.385 173.063C185.462 173.063 185.538 173.052 185.625 173.041L180.204 175.327C180.128 175.327 180.052 175.349 179.965 175.349Z" fill="#292929"/>
<path d="M180.203 175.328L185.624 173.043C185.722 173.032 185.82 173.01 185.907 172.988L180.486 175.274C180.388 175.296 180.301 175.318 180.203 175.328Z" fill="#282828"/>
<path d="M180.486 175.274L185.907 172.988C186.027 172.955 186.146 172.922 186.266 172.879L180.846 175.165C180.726 175.208 180.606 175.241 180.486 175.274Z" fill="#262626"/>
<path d="M180.846 175.175L186.266 172.89C186.321 172.868 186.386 172.846 186.44 172.824L181.02 175.11C180.965 175.132 180.9 175.154 180.846 175.175Z" fill="#252525"/>
</g>
<mask id="mask9_505_16182" style="mask-type:luminance" maskUnits="userSpaceOnUse" x="174" y="159" width="11" height="17">
<path d="M179.907 165.664C180.016 169.485 182.237 172.783 184.86 173.055L179.439 175.34C176.816 175.068 174.606 171.77 174.487 167.95C176.294 167.188 178.1 166.426 179.907 165.664C178.1 166.426 176.294 167.188 174.487 167.939C174.4 164.946 175.641 162.518 177.458 161.756L182.879 159.471C181.061 160.233 179.82 162.649 179.907 165.653V165.664Z" fill="white"/>
</mask>
<g mask="url(#mask9_505_16182)">
<path d="M177.458 161.766L182.879 159.48C182.345 159.709 181.856 160.079 181.442 160.569L176.021 162.855C176.435 162.365 176.925 161.995 177.458 161.766Z" fill="#252525"/>
<path d="M176.022 162.854L181.442 160.568C181.323 160.699 181.214 160.851 181.116 161.004L175.695 163.29C175.804 163.137 175.913 162.996 176.022 162.854Z" fill="#262626"/>
<path d="M175.694 163.28L181.114 160.994C181.027 161.125 180.951 161.255 180.864 161.386L175.443 163.672C175.52 163.53 175.607 163.4 175.694 163.28Z" fill="#282828"/>
<path d="M175.444 163.682L180.865 161.396C180.799 161.516 180.723 161.647 180.669 161.777L175.248 164.063C175.313 163.933 175.379 163.802 175.444 163.682Z" fill="#292929"/>
<path d="M175.247 164.061L180.668 161.775C180.613 161.895 180.548 162.026 180.505 162.156L175.084 164.442C175.138 164.312 175.193 164.181 175.247 164.061Z" fill="#2B2B2B"/>
<path d="M175.075 164.432L180.496 162.146C180.441 162.266 180.398 162.397 180.354 162.527L174.934 164.813C174.977 164.683 175.021 164.552 175.075 164.432Z" fill="#2C2C2C"/>
<path d="M174.932 164.815L180.353 162.529C180.309 162.66 180.266 162.78 180.233 162.91L174.812 165.196C174.845 165.065 174.889 164.935 174.932 164.815Z" fill="#2D2D2D"/>
<path d="M174.813 165.206L180.233 162.92C180.201 163.051 180.168 163.181 180.135 163.312L174.715 165.598C174.747 165.467 174.78 165.336 174.813 165.206Z" fill="#2F2F2F"/>
<path d="M174.714 165.596L180.135 163.311C180.102 163.441 180.08 163.572 180.047 163.713L174.627 165.999C174.649 165.858 174.681 165.727 174.714 165.596Z" fill="#303030"/>
<path d="M174.628 166.001L180.048 163.715C180.027 163.856 180.005 163.987 179.983 164.128L174.562 166.414C174.584 166.273 174.606 166.131 174.628 166.001Z" fill="#323232"/>
<path d="M174.573 166.413L179.993 164.127C179.972 164.268 179.961 164.41 179.95 164.551L174.529 166.837C174.54 166.696 174.562 166.554 174.573 166.413Z" fill="#333333"/>
<path d="M174.518 166.839L179.938 164.553C179.928 164.705 179.917 164.847 179.917 164.999L174.496 167.285C174.496 167.132 174.507 166.98 174.518 166.839Z" fill="#353535"/>
<path d="M174.496 167.286L179.917 165C179.917 165.152 179.917 165.316 179.917 165.468L174.496 167.754C174.496 167.591 174.496 167.438 174.496 167.286Z" fill="#363636"/>
<path d="M174.486 167.753L179.907 165.467C179.907 165.532 179.907 165.597 179.907 165.652C179.907 165.75 179.907 165.859 179.918 165.957L174.497 168.242C174.497 168.144 174.497 168.036 174.486 167.938C174.486 167.872 174.486 167.807 174.486 167.753Z" fill="#373737"/>
<path d="M174.508 168.255L179.928 165.969C179.928 166.143 179.95 166.317 179.972 166.48L174.551 168.766C174.53 168.592 174.519 168.429 174.508 168.255Z" fill="#393939"/>
<path d="M174.551 168.764L179.971 166.479C179.993 166.664 180.015 166.838 180.048 167.023L174.627 169.309C174.594 169.134 174.573 168.949 174.551 168.764Z" fill="#3A3A3A"/>
<path d="M174.627 169.309L180.047 167.023C180.08 167.219 180.113 167.415 180.156 167.611L174.736 169.897C174.692 169.701 174.66 169.505 174.627 169.309Z" fill="#3C3C3C"/>
<path d="M174.736 169.897L180.157 167.611C180.211 167.829 180.266 168.047 180.331 168.264L174.91 170.55C174.845 170.332 174.791 170.115 174.736 169.897Z" fill="#3D3D3D"/>
<path d="M174.91 170.549L180.331 168.264C180.418 168.536 180.505 168.808 180.614 169.069L175.193 171.355C175.095 171.094 174.997 170.822 174.91 170.549Z" fill="#3E3E3E"/>
<path d="M175.182 171.356L180.602 169.07C180.961 169.974 181.44 170.768 181.995 171.411L176.575 173.696C176.009 173.054 175.53 172.26 175.182 171.356Z" fill="#404040"/>
<path d="M176.586 173.696L182.006 171.41C182.137 171.552 182.268 171.693 182.398 171.813L176.978 174.099C176.847 173.968 176.717 173.837 176.586 173.696Z" fill="#3E3E3E"/>
<path d="M176.969 174.108L182.389 171.822C182.487 171.92 182.585 172.007 182.694 172.094L177.274 174.38C177.176 174.293 177.067 174.206 176.969 174.108Z" fill="#3D3D3D"/>
<path d="M177.271 174.37L182.692 172.084C182.779 172.149 182.866 172.215 182.953 172.28L177.533 174.566C177.446 174.5 177.359 174.435 177.271 174.37Z" fill="#3C3C3C"/>
<path d="M177.533 174.577L182.954 172.291C183.03 172.345 183.106 172.4 183.182 172.443L177.762 174.729C177.686 174.686 177.609 174.631 177.533 174.577Z" fill="#3A3A3A"/>
<path d="M177.762 174.729L183.182 172.443C183.258 172.487 183.324 172.53 183.4 172.574L177.979 174.86C177.903 174.816 177.838 174.773 177.762 174.729Z" fill="#393939"/>
<path d="M177.98 174.86L183.401 172.574C183.466 172.607 183.532 172.65 183.597 172.683L178.176 174.969C178.111 174.936 178.046 174.904 177.98 174.86Z" fill="#373737"/>
<path d="M178.176 174.969L183.596 172.684C183.662 172.716 183.727 172.749 183.792 172.771L178.372 175.056C178.306 175.024 178.241 175.002 178.176 174.969Z" fill="#363636"/>
<path d="M178.373 175.057L183.794 172.771C183.859 172.793 183.924 172.826 183.979 172.848L178.558 175.133C178.493 175.112 178.427 175.09 178.373 175.057Z" fill="#353535"/>
<path d="M178.568 175.131L183.989 172.846C184.054 172.867 184.12 172.889 184.174 172.911L178.753 175.197C178.688 175.175 178.623 175.153 178.568 175.131Z" fill="#333333"/>
<path d="M178.754 175.198L184.174 172.912C184.24 172.934 184.294 172.945 184.359 172.967L178.939 175.252C178.874 175.241 178.808 175.22 178.754 175.198Z" fill="#323232"/>
<path d="M178.938 175.253L184.358 172.967C184.423 172.978 184.489 172.999 184.554 173.01L179.133 175.296C179.068 175.285 179.003 175.274 178.938 175.253Z" fill="#303030"/>
<path d="M179.133 175.296L184.553 173.01C184.619 173.021 184.684 173.032 184.749 173.042L179.329 175.328C179.263 175.328 179.198 175.306 179.133 175.296Z" fill="#2F2F2F"/>
<path d="M179.33 175.329L184.751 173.043C184.751 173.043 184.827 173.043 184.87 173.054L179.45 175.34C179.45 175.34 179.374 175.34 179.33 175.329Z" fill="#2D2D2D"/>
</g>
<mask id="mask10_505_16182" style="mask-type:luminance" maskUnits="userSpaceOnUse" x="179" y="159" width="11" height="17">
<path d="M186.439 172.827L181.018 175.113C182.825 174.351 184.077 171.934 183.99 168.919C183.881 165.11 181.66 161.801 179.037 161.54L184.458 159.254C187.07 159.515 189.29 162.824 189.41 166.634C189.497 169.638 188.246 172.065 186.439 172.827Z" fill="white"/>
</mask>
<g mask="url(#mask10_505_16182)">
<path d="M179.037 161.54L184.458 159.254C184.458 159.254 184.534 159.254 184.577 159.265L179.157 161.551C179.157 161.551 179.081 161.551 179.037 161.54Z" fill="#7C7C7C"/>
<path d="M179.156 161.549L184.577 159.264C184.642 159.264 184.707 159.285 184.773 159.296L179.352 161.582C179.287 161.571 179.222 161.56 179.156 161.549Z" fill="#808080"/>
<path d="M179.354 161.583L184.774 159.297C184.839 159.308 184.905 159.319 184.959 159.34L179.539 161.626C179.473 161.615 179.408 161.594 179.354 161.583Z" fill="#848484"/>
<path d="M179.537 161.628L184.958 159.342C185.023 159.353 185.077 159.374 185.143 159.396L179.722 161.682C179.657 161.66 179.602 161.649 179.537 161.628Z" fill="#888888"/>
<path d="M179.723 161.682L185.143 159.396C185.209 159.418 185.274 159.44 185.328 159.462L179.908 161.748C179.842 161.726 179.777 161.704 179.723 161.682Z" fill="#8C8C8C"/>
<path d="M179.918 161.735L185.339 159.449C185.404 159.471 185.469 159.493 185.524 159.525L180.103 161.811C180.038 161.789 179.972 161.757 179.918 161.735Z" fill="#909090"/>
<path d="M180.104 161.811L185.524 159.525C185.589 159.558 185.655 159.58 185.72 159.612L180.299 161.898C180.234 161.866 180.169 161.833 180.104 161.811Z" fill="#939393"/>
<path d="M180.301 161.909L185.721 159.623C185.787 159.656 185.852 159.688 185.917 159.732L180.497 162.018C180.431 161.985 180.366 161.941 180.301 161.909Z" fill="#979797"/>
<path d="M180.506 162.006L185.926 159.721C186.003 159.764 186.068 159.808 186.144 159.851L180.724 162.137C180.647 162.094 180.582 162.05 180.506 162.006Z" fill="#9B9B9B"/>
<path d="M180.725 162.139L186.145 159.854C186.221 159.908 186.298 159.951 186.374 160.006L180.953 162.292C180.877 162.237 180.801 162.183 180.725 162.139Z" fill="#9F9F9F"/>
<path d="M180.953 162.301L186.374 160.016C186.461 160.081 186.548 160.146 186.635 160.212L181.214 162.497C181.127 162.432 181.04 162.367 180.953 162.301Z" fill="#A3A3A3"/>
<path d="M181.203 162.499L186.624 160.213C186.733 160.3 186.83 160.387 186.928 160.485L181.508 162.771C181.41 162.673 181.312 162.586 181.203 162.499Z" fill="#A7A7A7"/>
<path d="M181.508 162.77L186.928 160.484C187.059 160.615 187.19 160.746 187.32 160.898L181.9 163.184C181.769 163.042 181.638 162.901 181.508 162.77Z" fill="#ABABAB"/>
<path d="M181.9 163.172L187.321 160.887C187.887 161.529 188.366 162.334 188.725 163.238L183.305 165.524C182.945 164.62 182.466 163.815 181.9 163.172Z" fill="#AFAFAF"/>
<path d="M183.305 165.524L188.725 163.238C188.823 163.5 188.921 163.772 188.997 164.044L183.577 166.33C183.49 166.057 183.403 165.785 183.305 165.524Z" fill="#ABABAB"/>
<path d="M183.576 166.329L188.997 164.043C189.062 164.261 189.116 164.467 189.171 164.696L183.75 166.982C183.696 166.764 183.641 166.546 183.576 166.329Z" fill="#A7A7A7"/>
<path d="M183.75 166.981L189.171 164.695C189.214 164.891 189.247 165.076 189.279 165.272L183.859 167.558C183.826 167.362 183.794 167.166 183.75 166.981Z" fill="#A3A3A3"/>
<path d="M183.859 167.557L189.28 165.271C189.313 165.446 189.334 165.631 189.356 165.816L183.936 168.101C183.914 167.916 183.892 167.742 183.859 167.557Z" fill="#9F9F9F"/>
<path d="M183.936 168.102L189.356 165.816C189.378 165.991 189.389 166.154 189.4 166.328L183.979 168.614C183.979 168.44 183.957 168.276 183.936 168.102Z" fill="#9B9B9B"/>
<path d="M183.979 168.614L189.399 166.328C189.399 166.426 189.399 166.535 189.41 166.633C189.41 166.698 189.41 166.764 189.41 166.818L183.989 169.104C183.989 169.038 183.989 168.973 183.989 168.919C183.989 168.821 183.989 168.712 183.979 168.614Z" fill="#979797"/>
<path d="M183.99 169.104L189.411 166.818C189.411 166.982 189.411 167.134 189.411 167.286L183.99 169.572C183.99 169.42 183.99 169.257 183.99 169.104Z" fill="#939393"/>
<path d="M183.991 169.573L189.411 167.287C189.411 167.439 189.4 167.592 189.389 167.733L183.969 170.019C183.98 169.867 183.991 169.725 183.991 169.573Z" fill="#909090"/>
<path d="M183.958 170.018L189.378 167.732C189.367 167.874 189.345 168.015 189.335 168.157L183.914 170.443C183.936 170.301 183.947 170.16 183.958 170.018Z" fill="#8C8C8C"/>
<path d="M183.913 170.454L189.334 168.168C189.312 168.309 189.29 168.451 189.268 168.582L183.848 170.867C183.869 170.726 183.891 170.595 183.913 170.454Z" fill="#888888"/>
<path d="M183.849 170.868L189.269 168.582C189.248 168.724 189.215 168.854 189.182 168.985L183.762 171.271C183.794 171.14 183.816 171.009 183.849 170.868Z" fill="#848484"/>
<path d="M183.772 171.27L189.192 168.984C189.16 169.115 189.127 169.246 189.094 169.376L183.674 171.662C183.706 171.531 183.739 171.401 183.772 171.27Z" fill="#808080"/>
<path d="M183.663 171.663L189.083 169.377C189.051 169.508 189.007 169.638 188.964 169.758L183.543 172.044C183.587 171.913 183.63 171.793 183.663 171.663Z" fill="#7C7C7C"/>
<path d="M183.544 172.044L188.964 169.758C188.921 169.888 188.877 170.019 188.823 170.139L183.402 172.425C183.457 172.305 183.5 172.174 183.544 172.044Z" fill="#787878"/>
<path d="M183.402 172.424L188.822 170.139C188.768 170.269 188.713 170.4 188.659 170.52L183.238 172.805C183.293 172.686 183.358 172.555 183.402 172.424Z" fill="#747474"/>
<path d="M183.239 172.805L188.659 170.52C188.594 170.65 188.529 170.781 188.464 170.9L183.043 173.186C183.108 173.067 183.184 172.936 183.239 172.805Z" fill="#717171"/>
<path d="M183.032 173.198L188.452 170.912C188.376 171.054 188.289 171.184 188.202 171.304L182.781 173.59C182.868 173.459 182.955 173.328 183.032 173.198Z" fill="#6D6D6D"/>
<path d="M182.793 173.589L188.214 171.303C188.105 171.455 187.996 171.597 187.887 171.738L182.467 174.024C182.587 173.893 182.695 173.741 182.793 173.589Z" fill="#696969"/>
<path d="M182.454 174.026L187.875 171.74C187.461 172.23 186.971 172.6 186.438 172.829L181.018 175.114C181.551 174.886 182.041 174.516 182.454 174.026Z" fill="#656565"/>
</g>
<mask id="mask11_505_16182" style="mask-type:luminance" maskUnits="userSpaceOnUse" x="180" y="172" width="7" height="4">
<path d="M186.417 172.824C186.417 172.824 186.417 172.824 186.428 172.824L181.007 175.11C181.007 175.11 181.007 175.11 180.996 175.11C182.803 174.348 184.61 173.586 186.417 172.824Z" fill="white"/>
</mask>
<g mask="url(#mask11_505_16182)">
<path d="M180.844 175.175L186.264 172.89C186.319 172.868 186.384 172.846 186.438 172.824L181.018 175.11C180.963 175.132 180.898 175.154 180.844 175.175Z" fill="#252525"/>
</g>
<mask id="mask12_505_16182" style="mask-type:luminance" maskUnits="userSpaceOnUse" x="177" y="159" width="8" height="3">
<path d="M177.461 161.766L182.881 159.48C183.371 159.273 183.905 159.186 184.46 159.24L179.039 161.526C178.484 161.472 177.951 161.559 177.461 161.766Z" fill="white"/>
</mask>
<g mask="url(#mask12_505_16182)">
<path d="M177.461 161.767L182.881 159.481C182.936 159.46 183.001 159.438 183.056 159.416L177.635 161.702C177.581 161.724 177.515 161.745 177.461 161.767Z" fill="#656565"/>
<path d="M177.635 161.701L183.055 159.415C183.175 159.372 183.295 159.339 183.415 159.307L177.994 161.592C177.874 161.625 177.754 161.658 177.635 161.701Z" fill="#696969"/>
<path d="M177.994 161.592L183.415 159.306C183.513 159.285 183.6 159.263 183.698 159.252L178.277 161.538C178.179 161.549 178.081 161.57 177.994 161.592Z" fill="#6D6D6D"/>
<path d="M178.287 161.548L183.708 159.262C183.784 159.262 183.86 159.24 183.947 159.24L178.527 161.526C178.45 161.526 178.363 161.537 178.287 161.548Z" fill="#717171"/>
<path d="M178.516 161.526L183.936 159.24C184.012 159.24 184.089 159.24 184.165 159.24L178.744 161.526C178.668 161.526 178.592 161.526 178.516 161.526Z" fill="#747474"/>
<path d="M178.744 161.516L184.165 159.23C184.23 159.23 184.306 159.23 184.371 159.23L178.951 161.516C178.886 161.516 178.809 161.516 178.744 161.516Z" fill="#787878"/>
<path d="M178.953 161.526L184.374 159.24C184.374 159.24 184.428 159.24 184.461 159.24L179.04 161.526C179.04 161.526 178.986 161.526 178.953 161.526Z" fill="#7C7C7C"/>
</g>
<path d="M193.786 167.621C193.786 167.468 193.786 167.316 193.786 167.163C193.786 167.044 193.786 166.935 193.786 166.815C193.786 166.63 193.775 166.434 193.765 166.249C193.754 166.053 193.732 165.857 193.71 165.661C193.71 165.574 193.699 165.487 193.688 165.411C193.688 165.378 193.688 165.335 193.688 165.302C193.656 164.965 193.601 164.627 193.547 164.301C193.547 164.279 193.547 164.257 193.536 164.235C193.514 164.127 193.492 164.018 193.471 163.909C193.427 163.68 193.384 163.452 193.34 163.223C193.329 163.169 193.307 163.114 193.297 163.06C193.253 162.864 193.199 162.668 193.144 162.472C193.101 162.32 193.068 162.157 193.024 162.004C193.014 161.961 192.992 161.917 192.981 161.863C192.839 161.405 192.698 160.97 192.524 160.535C192.524 160.535 192.524 160.513 192.513 160.502C192.35 160.099 192.175 159.707 191.99 159.316C191.936 159.196 191.86 159.076 191.805 158.956C191.675 158.695 191.544 158.445 191.403 158.205C191.326 158.064 191.239 157.933 191.152 157.803C191.022 157.585 190.88 157.378 190.739 157.171C190.641 157.03 190.543 156.91 190.445 156.78C190.303 156.594 190.162 156.409 190.009 156.235C189.966 156.181 189.922 156.116 189.879 156.061C189.813 155.985 189.737 155.92 189.672 155.843C189.541 155.702 189.411 155.56 189.269 155.43C189.215 155.375 189.16 155.31 189.106 155.256C189.008 155.169 188.91 155.082 188.812 154.994C188.747 154.94 188.681 154.875 188.616 154.82C188.584 154.788 188.551 154.755 188.518 154.733C188.355 154.603 188.192 154.472 188.028 154.352C187.996 154.33 187.952 154.298 187.92 154.276C187.887 154.254 187.843 154.222 187.811 154.2C187.735 154.145 187.658 154.091 187.582 154.047C187.441 153.96 187.299 153.873 187.158 153.786C187.125 153.764 187.092 153.754 187.06 153.732C187.038 153.721 187.005 153.699 186.983 153.688C186.918 153.656 186.842 153.612 186.777 153.579C186.646 153.514 186.515 153.46 186.396 153.405C186.33 153.373 186.254 153.351 186.189 153.318C186.167 153.318 186.145 153.296 186.124 153.286C186.091 153.275 186.058 153.264 186.026 153.242C185.906 153.198 185.775 153.155 185.656 153.111C185.536 153.079 185.416 153.035 185.285 153.003C185.275 153.003 185.264 153.003 185.253 153.003C185.242 153.003 185.231 153.003 185.22 153.003C185.122 152.981 185.024 152.959 184.915 152.937C184.785 152.915 184.665 152.894 184.534 152.872C184.458 152.872 184.382 152.85 184.306 152.839C184.251 152.839 184.197 152.839 184.132 152.828C183.99 152.828 183.86 152.807 183.718 152.807C183.664 152.807 183.609 152.807 183.555 152.807C183.511 152.807 183.479 152.807 183.435 152.807C183.381 152.807 183.326 152.807 183.283 152.807C183.13 152.807 182.967 152.828 182.815 152.85C182.793 152.85 182.771 152.85 182.749 152.861C182.695 152.861 182.641 152.883 182.586 152.894C182.477 152.915 182.358 152.926 182.249 152.959C182.194 152.97 182.14 152.992 182.085 153.003C181.977 153.035 181.868 153.057 181.759 153.101C181.694 153.122 181.617 153.133 181.552 153.155C181.432 153.198 181.313 153.242 181.204 153.286L175.783 155.571C175.968 155.495 176.153 155.43 176.338 155.375C176.447 155.343 176.556 155.31 176.665 155.277C176.828 155.234 177.002 155.201 177.166 155.169C177.22 155.169 177.274 155.147 177.329 155.136C177.557 155.103 177.786 155.082 178.015 155.082C178.058 155.082 178.091 155.082 178.134 155.082C178.385 155.082 178.635 155.082 178.885 155.114C179.19 155.147 179.495 155.201 179.8 155.277C179.811 155.277 179.821 155.277 179.832 155.277C180.126 155.354 180.42 155.441 180.703 155.55C180.725 155.55 180.747 155.571 180.768 155.582C181.04 155.691 181.302 155.811 181.574 155.952C181.596 155.963 181.628 155.985 181.65 155.996C181.9 156.137 182.151 156.29 182.401 156.453C182.434 156.475 182.477 156.507 182.51 156.529C182.749 156.692 182.978 156.877 183.207 157.073C183.272 157.128 183.337 157.193 183.402 157.248C183.555 157.389 183.707 157.531 183.86 157.683C184.001 157.814 184.132 157.955 184.262 158.107C184.382 158.238 184.491 158.358 184.6 158.488C184.752 158.663 184.894 158.848 185.035 159.033C185.133 159.163 185.231 159.294 185.329 159.424C185.471 159.62 185.601 159.838 185.743 160.045C185.83 160.176 185.917 160.306 185.993 160.448C186.134 160.687 186.265 160.937 186.396 161.199C186.461 161.318 186.526 161.438 186.581 161.558C186.766 161.939 186.94 162.331 187.103 162.733C187.103 162.744 187.103 162.766 187.114 162.777C187.277 163.201 187.43 163.648 187.571 164.094C187.637 164.29 187.68 164.497 187.735 164.693C187.789 164.889 187.843 165.084 187.887 165.28C187.952 165.553 188.007 165.836 188.061 166.119C188.083 166.227 188.105 166.336 188.126 166.445C188.192 166.837 188.246 167.229 188.29 167.621C188.29 167.708 188.301 167.795 188.311 167.882C188.344 168.263 188.377 168.644 188.388 169.036C188.388 169.308 188.388 169.58 188.388 169.841C188.388 169.95 188.388 170.048 188.388 170.157C188.388 170.472 188.366 170.777 188.333 171.082C188.333 171.104 188.333 171.115 188.333 171.136C188.311 171.43 188.279 171.713 188.235 171.985C188.224 172.083 188.203 172.17 188.192 172.257C188.159 172.464 188.126 172.66 188.083 172.856C188.061 172.954 188.039 173.063 188.018 173.161C187.974 173.357 187.93 173.542 187.887 173.727C187.865 173.814 187.843 173.912 187.822 173.999C187.756 174.228 187.691 174.445 187.626 174.663C187.615 174.707 187.593 174.761 187.582 174.804C187.495 175.066 187.397 175.327 187.288 175.577C187.256 175.664 187.212 175.741 187.179 175.828C187.103 175.991 187.027 176.165 186.951 176.328C186.896 176.448 186.831 176.557 186.777 176.666C186.711 176.796 186.646 176.927 186.57 177.047C186.483 177.199 186.385 177.351 186.287 177.504C186.232 177.591 186.178 177.678 186.124 177.754C185.949 178.015 185.754 178.255 185.558 178.483C185.503 178.549 185.438 178.614 185.383 178.679C185.253 178.832 185.122 178.973 184.981 179.104C184.905 179.18 184.828 179.245 184.752 179.311C184.622 179.43 184.48 179.55 184.349 179.659C184.273 179.724 184.197 179.779 184.11 179.844C183.958 179.953 183.805 180.051 183.653 180.149C183.577 180.192 183.511 180.247 183.435 180.279C183.207 180.41 182.967 180.53 182.728 180.628L188.148 178.342C188.388 178.244 188.627 178.124 188.856 177.994C188.932 177.95 188.997 177.907 189.073 177.863C189.226 177.765 189.378 177.667 189.53 177.558C189.607 177.504 189.694 177.439 189.77 177.373C189.911 177.264 190.042 177.145 190.173 177.025C190.249 176.96 190.325 176.894 190.401 176.818C190.543 176.688 190.673 176.535 190.804 176.394C190.848 176.339 190.902 176.296 190.945 176.252C190.956 176.241 190.967 176.219 190.978 176.209C191.174 175.98 191.359 175.73 191.533 175.479C191.533 175.468 191.555 175.458 191.555 175.447C191.609 175.37 191.653 175.294 191.697 175.218C191.794 175.066 191.892 174.924 191.98 174.761C191.99 174.739 192.012 174.717 192.023 174.696C192.077 174.598 192.132 174.489 192.186 174.38C192.241 174.271 192.306 174.162 192.36 174.043C192.371 174.021 192.382 173.999 192.393 173.977C192.458 173.836 192.524 173.694 192.589 173.542C192.622 173.455 192.665 173.379 192.698 173.302C192.698 173.292 192.709 173.281 192.72 173.27C192.818 173.041 192.905 172.802 192.992 172.551C192.992 172.551 192.992 172.54 192.992 172.53C193.003 172.486 193.024 172.432 193.035 172.388C193.101 172.203 193.155 172.018 193.209 171.833C193.209 171.8 193.231 171.757 193.242 171.724C193.264 171.637 193.286 171.539 193.307 171.452C193.34 171.332 193.373 171.223 193.395 171.104C193.416 171.028 193.427 170.951 193.438 170.875C193.46 170.777 193.482 170.679 193.503 170.57C193.514 170.494 193.536 170.418 193.547 170.342C193.569 170.211 193.59 170.091 193.601 169.961C193.612 169.874 193.634 169.776 193.645 169.689C193.645 169.656 193.656 169.613 193.667 169.58C193.699 169.33 193.721 169.079 193.743 168.829C193.743 168.818 193.743 168.807 193.743 168.785C193.765 168.513 193.786 168.241 193.797 167.958C193.797 167.925 193.797 167.893 193.797 167.86C193.797 167.762 193.797 167.653 193.797 167.555L193.786 167.621Z" fill="#6742CF"/>
<path d="M178.923 155.045C184.002 155.561 188.302 161.858 188.511 169.098C188.719 176.349 184.77 181.79 179.68 181.275C174.59 180.759 170.3 174.473 170.092 167.222C169.883 159.982 173.822 154.53 178.923 155.045ZM179.515 175.395C182.148 175.658 184.21 172.762 184.101 168.923C183.991 165.083 181.753 161.748 179.109 161.485C176.465 161.222 174.414 164.118 174.524 167.946C174.633 171.775 176.871 175.121 179.515 175.395Z" fill="#1F123B"/>
<path d="M179.108 161.483C181.741 161.746 183.979 165.081 184.099 168.921C184.22 172.76 182.158 175.667 179.514 175.393C176.87 175.119 174.643 171.795 174.523 167.944C174.402 164.094 176.464 161.209 179.108 161.483Z" fill="#B496F2"/>
<mask id="mask13_505_16182" style="mask-type:luminance" maskUnits="userSpaceOnUse" x="243" y="208" width="8" height="3">
<path d="M248.514 208.59C249.059 208.644 249.592 208.568 250.071 208.361C248.264 209.123 246.457 209.885 244.65 210.647C244.171 210.843 243.638 210.93 243.094 210.876C244.716 210.19 246.762 208.851 248.514 208.59Z" fill="white"/>
</mask>
<g mask="url(#mask13_505_16182)">
<path d="M243.104 210.866L248.524 208.58C248.524 208.58 248.578 208.58 248.611 208.58L243.191 210.866C243.191 210.866 243.136 210.866 243.104 210.866Z" fill="#2D2D2D"/>
<path d="M243.191 210.876L248.612 208.59C248.677 208.59 248.753 208.59 248.819 208.59L243.398 210.876C243.333 210.876 243.257 210.876 243.191 210.876Z" fill="#2C2C2C"/>
<path d="M243.396 210.885L248.817 208.6C248.893 208.6 248.969 208.6 249.046 208.6L243.625 210.885C243.549 210.885 243.473 210.885 243.396 210.885Z" fill="#2B2B2B"/>
<path d="M243.615 210.874L249.036 208.588C249.112 208.588 249.188 208.577 249.275 208.566L243.855 210.852C243.779 210.852 243.702 210.874 243.615 210.874Z" fill="#292929"/>
<path d="M243.855 210.854L249.276 208.568C249.374 208.557 249.472 208.535 249.559 208.514L244.138 210.799C244.041 210.821 243.953 210.843 243.855 210.854Z" fill="#282828"/>
<path d="M244.139 210.799L249.559 208.513C249.679 208.48 249.799 208.448 249.918 208.404L244.498 210.69C244.378 210.734 244.258 210.766 244.139 210.799Z" fill="#262626"/>
<path d="M244.496 210.701L249.917 208.415C249.971 208.393 250.036 208.371 250.091 208.35L244.67 210.635C244.616 210.657 244.551 210.679 244.496 210.701Z" fill="#252525"/>
</g>
<mask id="mask14_505_16182" style="mask-type:luminance" maskUnits="userSpaceOnUse" x="238" y="195" width="11" height="16">
<path d="M243.573 201.201C243.682 205.022 245.903 208.32 248.526 208.592L243.105 210.878C240.482 210.605 238.272 207.307 238.153 203.487C239.96 202.725 241.766 201.963 243.573 201.201C241.766 201.963 239.96 202.725 238.153 203.476C238.066 200.483 239.307 198.056 241.124 197.294L246.545 195.008C244.727 195.77 243.486 198.186 243.573 201.19V201.201Z" fill="white"/>
</mask>
<g mask="url(#mask14_505_16182)">
<path d="M241.126 197.303L246.547 195.018C246.013 195.246 245.524 195.616 245.11 196.106L239.689 198.392C240.103 197.902 240.593 197.532 241.126 197.303Z" fill="#252525"/>
<path d="M239.678 198.381L245.099 196.096C244.979 196.226 244.87 196.379 244.772 196.531L239.352 198.817C239.46 198.664 239.569 198.523 239.678 198.381Z" fill="#262626"/>
<path d="M239.352 198.817L244.772 196.531C244.685 196.662 244.609 196.792 244.522 196.923L239.102 199.209C239.178 199.067 239.265 198.937 239.352 198.817Z" fill="#282828"/>
<path d="M239.102 199.208L244.523 196.922C244.457 197.042 244.381 197.172 244.327 197.303L238.906 199.589C238.972 199.458 239.037 199.327 239.102 199.208Z" fill="#292929"/>
<path d="M238.905 199.589L244.326 197.303C244.272 197.422 244.206 197.553 244.163 197.684L238.742 199.969C238.797 199.839 238.851 199.708 238.905 199.589Z" fill="#2B2B2B"/>
<path d="M238.743 199.969L244.164 197.684C244.109 197.803 244.066 197.934 244.022 198.065L238.602 200.35C238.645 200.22 238.689 200.089 238.743 199.969Z" fill="#2C2C2C"/>
<path d="M238.6 200.352L244.021 198.066C243.977 198.197 243.934 198.317 243.901 198.447L238.48 200.733C238.513 200.603 238.557 200.472 238.6 200.352Z" fill="#2D2D2D"/>
<path d="M238.481 200.733L243.901 198.447C243.869 198.578 243.836 198.708 243.803 198.839L238.383 201.125C238.415 200.994 238.448 200.864 238.481 200.733Z" fill="#2F2F2F"/>
<path d="M238.372 201.124L243.793 198.838C243.76 198.969 243.738 199.099 243.706 199.241L238.285 201.526C238.307 201.385 238.34 201.254 238.372 201.124Z" fill="#303030"/>
<path d="M238.296 201.528L243.716 199.242C243.695 199.384 243.673 199.514 243.651 199.656L238.23 201.942C238.252 201.8 238.274 201.659 238.296 201.528Z" fill="#323232"/>
<path d="M238.231 201.94L243.652 199.654C243.63 199.796 243.619 199.937 243.608 200.079L238.188 202.365C238.198 202.223 238.22 202.082 238.231 201.94Z" fill="#333333"/>
<path d="M238.186 202.376L243.606 200.09C243.595 200.242 243.585 200.384 243.585 200.536L238.164 202.822C238.164 202.67 238.175 202.517 238.186 202.376Z" fill="#353535"/>
<path d="M238.154 202.823L243.575 200.537C243.575 200.689 243.575 200.853 243.575 201.005L238.154 203.291C238.154 203.128 238.154 202.975 238.154 202.823Z" fill="#363636"/>
<path d="M238.154 203.29L243.575 201.004C243.575 201.069 243.575 201.135 243.575 201.189C243.575 201.287 243.575 201.396 243.586 201.494L238.165 203.779C238.165 203.682 238.165 203.573 238.154 203.475C238.154 203.409 238.154 203.344 238.154 203.29Z" fill="#373737"/>
<path d="M238.164 203.778L243.585 201.492C243.585 201.666 243.606 201.84 243.628 202.004L238.208 204.29C238.186 204.115 238.175 203.952 238.164 203.778Z" fill="#393939"/>
<path d="M238.209 204.301L243.63 202.016C243.651 202.201 243.673 202.375 243.706 202.56L238.285 204.846C238.253 204.671 238.231 204.486 238.209 204.301Z" fill="#3A3A3A"/>
<path d="M238.285 204.846L243.706 202.561C243.738 202.756 243.771 202.952 243.815 203.148L238.394 205.434C238.35 205.238 238.318 205.042 238.285 204.846Z" fill="#3C3C3C"/>
<path d="M238.393 205.424L243.813 203.139C243.868 203.356 243.922 203.574 243.987 203.792L238.567 206.078C238.501 205.86 238.447 205.642 238.393 205.424Z" fill="#3D3D3D"/>
<path d="M238.568 206.077L243.989 203.791C244.076 204.063 244.163 204.335 244.272 204.596L238.851 206.882C238.753 206.621 238.655 206.349 238.568 206.077Z" fill="#3E3E3E"/>
<path d="M238.85 206.883L244.27 204.598C244.629 205.501 245.108 206.296 245.663 206.938L240.243 209.224C239.677 208.581 239.198 207.787 238.85 206.883Z" fill="#404040"/>
<path d="M240.244 209.233L245.665 206.947C245.795 207.089 245.926 207.23 246.057 207.35L240.636 209.636C240.505 209.505 240.375 209.375 240.244 209.233Z" fill="#3E3E3E"/>
<path d="M240.637 209.635L246.057 207.35C246.155 207.448 246.253 207.535 246.362 207.622L240.941 209.907C240.844 209.82 240.735 209.733 240.637 209.635Z" fill="#3D3D3D"/>
<path d="M240.939 209.907L246.36 207.621C246.447 207.686 246.534 207.752 246.621 207.817L241.201 210.103C241.114 210.037 241.027 209.972 240.939 209.907Z" fill="#3C3C3C"/>
<path d="M241.191 210.104L246.612 207.818C246.688 207.873 246.764 207.927 246.841 207.971L241.42 210.257C241.344 210.213 241.268 210.159 241.191 210.104Z" fill="#3A3A3A"/>
<path d="M241.42 210.256L246.84 207.971C246.917 208.014 246.982 208.058 247.058 208.101L241.638 210.387C241.561 210.344 241.496 210.3 241.42 210.256Z" fill="#393939"/>
<path d="M241.637 210.385L247.057 208.1C247.123 208.132 247.188 208.176 247.253 208.208L241.833 210.494C241.767 210.462 241.702 210.429 241.637 210.385Z" fill="#373737"/>
<path d="M241.834 210.495L247.255 208.209C247.32 208.242 247.385 208.274 247.45 208.296L242.03 210.582C241.965 210.549 241.899 210.527 241.834 210.495Z" fill="#363636"/>
<path d="M242.041 210.583L247.462 208.297C247.527 208.319 247.592 208.351 247.647 208.373L242.226 210.659C242.161 210.637 242.095 210.615 242.041 210.583Z" fill="#353535"/>
<path d="M242.225 210.659L247.645 208.373C247.71 208.395 247.776 208.417 247.83 208.438L242.41 210.724C242.344 210.702 242.279 210.681 242.225 210.659Z" fill="#333333"/>
<path d="M242.41 210.723L247.831 208.438C247.896 208.459 247.95 208.47 248.016 208.492L242.595 210.778C242.53 210.767 242.465 210.745 242.41 210.723Z" fill="#323232"/>
<path d="M242.605 210.78L248.026 208.494C248.091 208.505 248.157 208.527 248.222 208.538L242.801 210.823C242.736 210.813 242.671 210.802 242.605 210.78Z" fill="#303030"/>
<path d="M242.791 210.823L248.212 208.537C248.277 208.548 248.342 208.559 248.407 208.57L242.987 210.856C242.922 210.856 242.856 210.834 242.791 210.823Z" fill="#2F2F2F"/>
<path d="M242.988 210.854L248.409 208.568C248.409 208.568 248.485 208.568 248.529 208.579L243.108 210.865C243.108 210.865 243.032 210.865 242.988 210.854Z" fill="#2D2D2D"/>
</g>
<mask id="mask15_505_16182" style="mask-type:luminance" maskUnits="userSpaceOnUse" x="242" y="194" width="12" height="17">
<path d="M250.093 208.349L244.672 210.634C246.479 209.872 247.731 207.456 247.644 204.441C247.535 200.631 245.315 197.322 242.691 197.061L248.112 194.775C250.724 195.037 252.945 198.346 253.064 202.155C253.152 205.159 251.9 207.587 250.093 208.349Z" fill="white"/>
</mask>
<g mask="url(#mask15_505_16182)">
<path d="M242.701 197.061L248.122 194.775C248.122 194.775 248.198 194.775 248.241 194.786L242.821 197.072C242.821 197.072 242.745 197.072 242.701 197.061Z" fill="#7C7C7C"/>
<path d="M242.811 197.071L248.231 194.785C248.296 194.785 248.362 194.807 248.427 194.818L243.006 197.104C242.941 197.093 242.876 197.082 242.811 197.071Z" fill="#808080"/>
<path d="M243.006 197.104L248.426 194.818C248.492 194.829 248.557 194.84 248.611 194.862L243.191 197.148C243.126 197.137 243.06 197.115 243.006 197.104Z" fill="#848484"/>
<path d="M243.201 197.149L248.622 194.863C248.687 194.874 248.741 194.896 248.807 194.918L243.386 197.203C243.321 197.182 243.266 197.171 243.201 197.149Z" fill="#888888"/>
<path d="M243.387 197.204L248.807 194.918C248.873 194.94 248.938 194.962 248.992 194.983L243.572 197.269C243.506 197.247 243.441 197.226 243.387 197.204Z" fill="#8C8C8C"/>
<path d="M243.572 197.268L248.993 194.982C249.058 195.004 249.123 195.026 249.178 195.059L243.757 197.344C243.692 197.323 243.627 197.29 243.572 197.268Z" fill="#909090"/>
<path d="M243.756 197.344L249.176 195.059C249.242 195.091 249.307 195.113 249.372 195.146L243.952 197.431C243.886 197.399 243.821 197.366 243.756 197.344Z" fill="#939393"/>
<path d="M243.953 197.43L249.374 195.145C249.439 195.177 249.504 195.21 249.57 195.253L244.149 197.539C244.084 197.507 244.018 197.463 243.953 197.43Z" fill="#979797"/>
<path d="M244.16 197.54L249.581 195.254C249.657 195.297 249.722 195.341 249.798 195.385L244.378 197.67C244.302 197.627 244.236 197.583 244.16 197.54Z" fill="#9B9B9B"/>
<path d="M244.377 197.671L249.798 195.385C249.874 195.439 249.95 195.483 250.026 195.537L244.606 197.823C244.529 197.768 244.453 197.714 244.377 197.671Z" fill="#9F9F9F"/>
<path d="M244.605 197.823L250.026 195.537C250.113 195.602 250.2 195.668 250.287 195.733L244.867 198.019C244.78 197.953 244.693 197.888 244.605 197.823Z" fill="#A3A3A3"/>
<path d="M244.857 198.02L250.278 195.734C250.387 195.821 250.485 195.909 250.583 196.006L245.162 198.292C245.064 198.194 244.966 198.107 244.857 198.02Z" fill="#A7A7A7"/>
<path d="M245.16 198.292L250.581 196.006C250.711 196.136 250.842 196.267 250.973 196.419L245.552 198.705C245.421 198.564 245.291 198.422 245.16 198.292Z" fill="#ABABAB"/>
<path d="M245.553 198.704L250.973 196.418C251.539 197.06 252.018 197.866 252.377 198.769L246.957 201.055C246.598 200.151 246.119 199.346 245.553 198.704Z" fill="#AFAFAF"/>
<path d="M246.957 201.055L252.378 198.77C252.476 199.031 252.573 199.303 252.65 199.575L247.229 201.861C247.142 201.589 247.055 201.317 246.957 201.055Z" fill="#ABABAB"/>
<path d="M247.24 201.862L252.661 199.576C252.726 199.794 252.781 200.001 252.835 200.229L247.414 202.515C247.36 202.297 247.306 202.08 247.24 201.862Z" fill="#A7A7A7"/>
<path d="M247.404 202.503L252.825 200.217C252.868 200.413 252.901 200.598 252.934 200.794L247.513 203.079C247.48 202.884 247.448 202.688 247.404 202.503Z" fill="#A3A3A3"/>
<path d="M247.512 203.09L252.932 200.805C252.965 200.979 252.987 201.164 253.008 201.349L247.588 203.635C247.566 203.45 247.544 203.275 247.512 203.09Z" fill="#9F9F9F"/>
<path d="M247.588 203.624L253.008 201.338C253.03 201.512 253.041 201.675 253.052 201.849L247.631 204.135C247.631 203.961 247.61 203.798 247.588 203.624Z" fill="#9B9B9B"/>
<path d="M247.633 204.135L253.053 201.85C253.053 201.948 253.053 202.056 253.064 202.154C253.064 202.22 253.064 202.285 253.064 202.339L247.644 204.625C247.644 204.56 247.644 204.495 247.644 204.44C247.644 204.342 247.644 204.233 247.633 204.135Z" fill="#979797"/>
<path d="M247.654 204.637L253.075 202.352C253.075 202.515 253.075 202.667 253.075 202.82L247.654 205.105C247.654 204.953 247.654 204.79 247.654 204.637Z" fill="#939393"/>
<path d="M247.643 205.106L253.063 202.82C253.063 202.973 253.053 203.125 253.042 203.267L247.621 205.552C247.632 205.4 247.643 205.258 247.643 205.106Z" fill="#909090"/>
<path d="M247.622 205.551L253.042 203.266C253.031 203.407 253.01 203.549 252.999 203.69L247.578 205.976C247.6 205.834 247.611 205.693 247.622 205.551Z" fill="#8C8C8C"/>
<path d="M247.567 205.975L252.988 203.689C252.966 203.831 252.944 203.972 252.922 204.103L247.502 206.389C247.524 206.247 247.545 206.117 247.567 205.975Z" fill="#888888"/>
<path d="M247.513 206.389L252.933 204.104C252.912 204.245 252.879 204.376 252.846 204.506L247.426 206.792C247.458 206.661 247.48 206.531 247.513 206.389Z" fill="#848484"/>
<path d="M247.424 206.792L252.845 204.506C252.812 204.636 252.779 204.767 252.747 204.898L247.326 207.183C247.359 207.053 247.391 206.922 247.424 206.792Z" fill="#808080"/>
<path d="M247.327 207.184L252.747 204.898C252.715 205.029 252.671 205.16 252.628 205.279L247.207 207.565C247.251 207.435 247.294 207.315 247.327 207.184Z" fill="#7C7C7C"/>
<path d="M247.208 207.577L252.628 205.291C252.585 205.422 252.541 205.552 252.487 205.672L247.066 207.958C247.121 207.838 247.164 207.707 247.208 207.577Z" fill="#787878"/>
<path d="M247.066 207.956L252.486 205.67C252.432 205.801 252.377 205.931 252.323 206.051L246.902 208.337C246.957 208.217 247.022 208.086 247.066 207.956Z" fill="#747474"/>
<path d="M246.891 208.337L252.312 206.051C252.246 206.181 252.181 206.312 252.116 206.432L246.695 208.718C246.761 208.598 246.837 208.467 246.891 208.337Z" fill="#717171"/>
<path d="M246.696 208.719L252.116 206.434C252.04 206.575 251.953 206.706 251.866 206.825L246.445 209.111C246.532 208.981 246.619 208.85 246.696 208.719Z" fill="#6D6D6D"/>
<path d="M246.446 209.11L251.866 206.824C251.757 206.977 251.649 207.118 251.54 207.26L246.119 209.545C246.239 209.415 246.348 209.262 246.446 209.11Z" fill="#696969"/>
<path d="M246.118 209.547L251.539 207.262C251.125 207.752 250.636 208.122 250.102 208.35L244.682 210.636C245.215 210.407 245.705 210.037 246.118 209.547Z" fill="#656565"/>
</g>
<mask id="mask16_505_16182" style="mask-type:luminance" maskUnits="userSpaceOnUse" x="244" y="208" width="7" height="3">
<path d="M250.071 208.361C250.071 208.361 250.071 208.361 250.082 208.361L244.661 210.647C244.661 210.647 244.661 210.647 244.65 210.647C246.457 209.885 248.264 209.123 250.071 208.361Z" fill="white"/>
</mask>
<g mask="url(#mask16_505_16182)">
<path d="M244.498 210.701L249.919 208.415C249.973 208.393 250.038 208.371 250.093 208.35L244.672 210.635C244.618 210.657 244.552 210.679 244.498 210.701Z" fill="#252525"/>
</g>
<path d="M257.45 203.158C257.45 203.005 257.45 202.853 257.45 202.701C257.45 202.581 257.45 202.472 257.45 202.352C257.45 202.167 257.44 201.971 257.429 201.786C257.418 201.59 257.396 201.394 257.374 201.198C257.374 201.111 257.363 201.024 257.352 200.948C257.352 200.915 257.352 200.872 257.352 200.839C257.32 200.502 257.265 200.164 257.211 199.838C257.211 199.816 257.211 199.794 257.2 199.773C257.178 199.664 257.157 199.555 257.135 199.446C257.091 199.217 257.048 198.989 257.004 198.76C256.993 198.706 256.972 198.651 256.961 198.597C256.917 198.401 256.863 198.205 256.808 198.009C256.765 197.857 256.732 197.694 256.689 197.541C256.678 197.498 256.656 197.454 256.645 197.4C256.503 196.943 256.362 196.507 256.188 196.072C256.188 196.072 256.188 196.05 256.177 196.039C256.014 195.636 255.84 195.245 255.654 194.853C255.6 194.733 255.524 194.613 255.469 194.494C255.339 194.232 255.208 193.982 255.067 193.743C254.991 193.601 254.903 193.47 254.816 193.34C254.686 193.122 254.544 192.915 254.403 192.708C254.305 192.567 254.207 192.447 254.109 192.317C253.967 192.132 253.826 191.947 253.673 191.772C253.63 191.718 253.586 191.653 253.543 191.598C253.478 191.522 253.401 191.457 253.336 191.381C253.205 191.239 253.075 191.098 252.933 190.967C252.879 190.913 252.824 190.847 252.77 190.793C252.672 190.706 252.574 190.619 252.476 190.532C252.411 190.477 252.346 190.412 252.28 190.357C252.248 190.325 252.215 190.292 252.182 190.27C252.019 190.14 251.856 190.009 251.692 189.889C251.66 189.868 251.616 189.835 251.584 189.813C251.551 189.791 251.507 189.759 251.475 189.737C251.399 189.683 251.322 189.628 251.246 189.585C251.105 189.498 250.963 189.41 250.822 189.323C250.789 189.302 250.756 189.291 250.724 189.269C250.702 189.258 250.669 189.236 250.648 189.225C250.582 189.193 250.506 189.149 250.441 189.117C250.31 189.051 250.18 188.997 250.06 188.942C249.994 188.91 249.918 188.888 249.853 188.855C249.831 188.855 249.809 188.834 249.788 188.823C249.755 188.812 249.722 188.801 249.69 188.779C249.57 188.736 249.439 188.692 249.32 188.649C249.2 188.616 249.08 188.572 248.95 188.54C248.939 188.54 248.928 188.54 248.917 188.54C248.906 188.54 248.895 188.54 248.884 188.54C248.786 188.518 248.688 188.496 248.579 188.474C248.449 188.453 248.329 188.431 248.199 188.409C248.122 188.409 248.046 188.387 247.97 188.376C247.916 188.376 247.861 188.376 247.796 188.366C247.654 188.366 247.524 188.344 247.382 188.344C247.328 188.344 247.273 188.344 247.219 188.344C247.175 188.344 247.143 188.344 247.099 188.344C247.045 188.344 246.99 188.344 246.947 188.344C246.794 188.344 246.631 188.366 246.479 188.387C246.457 188.387 246.435 188.387 246.413 188.398C246.359 188.398 246.305 188.42 246.25 188.431C246.141 188.453 246.022 188.463 245.913 188.496C245.858 188.507 245.804 188.529 245.749 188.54C245.641 188.572 245.532 188.594 245.423 188.638C245.358 188.659 245.281 188.67 245.216 188.692C245.096 188.736 244.977 188.779 244.868 188.823L239.447 191.108C239.632 191.032 239.817 190.967 240.002 190.913C240.111 190.88 240.22 190.847 240.329 190.815C240.492 190.771 240.666 190.738 240.83 190.706C240.884 190.706 240.938 190.684 240.993 190.673C241.221 190.64 241.45 190.619 241.679 190.619C241.722 190.619 241.755 190.619 241.798 190.619C242.049 190.619 242.299 190.619 242.549 190.651C242.854 190.684 243.159 190.738 243.464 190.815C243.475 190.815 243.485 190.815 243.496 190.815C243.79 190.891 244.084 190.978 244.367 191.087C244.389 191.087 244.411 191.108 244.432 191.119C244.705 191.228 244.966 191.348 245.238 191.489C245.26 191.5 245.292 191.522 245.314 191.533C245.564 191.674 245.815 191.827 246.065 191.99C246.098 192.012 246.141 192.045 246.174 192.066C246.413 192.23 246.642 192.415 246.871 192.611C246.936 192.665 247.001 192.73 247.067 192.785C247.219 192.926 247.371 193.068 247.524 193.22C247.665 193.351 247.796 193.492 247.926 193.645C248.046 193.775 248.155 193.895 248.264 194.026C248.416 194.2 248.558 194.385 248.699 194.57C248.797 194.7 248.895 194.831 248.993 194.962C249.135 195.158 249.265 195.375 249.407 195.582C249.494 195.713 249.581 195.843 249.657 195.985C249.799 196.224 249.929 196.475 250.06 196.736C250.125 196.856 250.19 196.975 250.245 197.095C250.43 197.476 250.604 197.868 250.767 198.271C250.767 198.281 250.767 198.303 250.778 198.314C250.941 198.739 251.094 199.185 251.235 199.631C251.301 199.827 251.344 200.034 251.399 200.23C251.453 200.426 251.507 200.622 251.551 200.818C251.616 201.09 251.671 201.373 251.725 201.656C251.747 201.765 251.769 201.873 251.79 201.982C251.856 202.374 251.91 202.766 251.954 203.158C251.954 203.245 251.965 203.332 251.975 203.419C252.008 203.8 252.041 204.181 252.052 204.573C252.052 204.845 252.052 205.117 252.052 205.378C252.052 205.487 252.052 205.585 252.052 205.694C252.052 206.01 252.03 206.314 251.997 206.619C251.997 206.641 251.997 206.652 251.997 206.673C251.975 206.967 251.943 207.25 251.899 207.522C251.888 207.62 251.867 207.708 251.856 207.795C251.823 208.001 251.79 208.197 251.747 208.393C251.725 208.491 251.703 208.6 251.682 208.698C251.638 208.894 251.595 209.079 251.551 209.264C251.529 209.351 251.507 209.449 251.486 209.536C251.42 209.765 251.355 209.982 251.29 210.2C251.279 210.244 251.257 210.298 251.246 210.342C251.159 210.603 251.061 210.864 250.952 211.114C250.92 211.201 250.876 211.278 250.843 211.365C250.767 211.528 250.691 211.702 250.615 211.865C250.56 211.985 250.495 212.094 250.441 212.203C250.375 212.333 250.31 212.464 250.234 212.584C250.147 212.736 250.049 212.889 249.951 213.041C249.897 213.128 249.842 213.215 249.788 213.291C249.614 213.553 249.418 213.792 249.222 214.021C249.167 214.086 249.102 214.151 249.048 214.217C248.917 214.369 248.786 214.51 248.645 214.641C248.569 214.717 248.492 214.783 248.416 214.848C248.286 214.968 248.144 215.087 248.013 215.196C247.937 215.261 247.861 215.316 247.774 215.381C247.622 215.49 247.469 215.588 247.317 215.686C247.241 215.729 247.175 215.784 247.099 215.817C246.871 215.947 246.631 216.067 246.392 216.165L251.812 213.879C252.052 213.781 252.291 213.661 252.52 213.531C252.596 213.487 252.661 213.444 252.737 213.4C252.89 213.302 253.042 213.204 253.195 213.095C253.271 213.041 253.358 212.976 253.434 212.91C253.576 212.802 253.706 212.682 253.837 212.562C253.913 212.497 253.989 212.431 254.065 212.355C254.207 212.225 254.337 212.072 254.468 211.931C254.512 211.876 254.566 211.833 254.61 211.789C254.62 211.778 254.631 211.757 254.642 211.746C254.838 211.517 255.023 211.267 255.197 211.016C255.197 211.006 255.219 210.995 255.219 210.984C255.274 210.908 255.317 210.831 255.361 210.755C255.459 210.603 255.557 210.461 255.644 210.298C255.654 210.276 255.676 210.255 255.687 210.233C255.742 210.135 255.796 210.026 255.85 209.917C255.905 209.808 255.97 209.699 256.025 209.58C256.035 209.558 256.046 209.536 256.057 209.514C256.123 209.373 256.188 209.231 256.253 209.079C256.286 208.992 256.329 208.916 256.362 208.84C256.362 208.829 256.373 208.818 256.384 208.807C256.482 208.578 256.569 208.339 256.656 208.088C256.656 208.088 256.656 208.078 256.656 208.067C256.667 208.023 256.689 207.969 256.699 207.925C256.765 207.74 256.819 207.555 256.874 207.37C256.874 207.337 256.895 207.294 256.906 207.261C256.928 207.174 256.95 207.076 256.972 206.989C257.004 206.869 257.037 206.761 257.059 206.641C257.08 206.565 257.091 206.488 257.102 206.412C257.124 206.314 257.146 206.216 257.167 206.107C257.178 206.031 257.2 205.955 257.211 205.879C257.233 205.748 257.255 205.629 257.265 205.498C257.276 205.411 257.298 205.313 257.309 205.226C257.309 205.193 257.32 205.15 257.331 205.117C257.363 204.867 257.385 204.616 257.407 204.366C257.407 204.355 257.407 204.344 257.407 204.322C257.429 204.05 257.45 203.778 257.461 203.495C257.461 203.462 257.461 203.43 257.461 203.397C257.461 203.299 257.461 203.19 257.461 203.092L257.45 203.158Z" fill="#6742CF"/>
<path d="M242.564 190.684C247.631 191.195 251.921 197.443 252.129 204.627C252.337 211.822 248.397 217.221 243.319 216.709C238.241 216.197 233.962 209.961 233.754 202.766C233.546 195.582 237.475 190.172 242.564 190.684ZM243.155 210.875C245.782 211.136 247.839 208.263 247.73 204.453C247.62 200.643 245.388 197.334 242.75 197.073C240.112 196.812 238.066 199.685 238.175 203.484C238.285 207.283 240.517 210.603 243.155 210.875Z" fill="#1F123B"/>
<path d="M242.752 197.063C245.378 197.324 247.611 200.633 247.731 204.443C247.851 208.252 245.794 211.137 243.156 210.865C240.519 210.592 238.297 207.294 238.177 203.474C238.057 199.653 240.114 196.791 242.752 197.063Z" fill="#B496F2"/>
<g clip-path="url(#clip0_505_16182)">
<mask id="mask17_505_16182" style="mask-type:luminance" maskUnits="userSpaceOnUse" x="214" y="146" width="53" height="31">
<path d="M214.529 153.754L227.199 146.385L266.863 169.286L254.182 176.644L214.529 153.754Z" fill="white"/>
</mask>
<g mask="url(#mask17_505_16182)">
<path d="M223.477 151.566L227.678 149.128L229.518 150.194C231.053 151.087 230.966 152.012 229.714 152.731C228.462 153.46 226.851 153.536 225.306 152.643L223.466 151.577M232.13 149.237L227.2 146.385L214.715 153.645L217.316 155.147L221.387 152.785L223.64 154.091C226.536 155.767 229.91 155.724 232.402 154.276C234.895 152.828 234.971 150.88 232.119 149.237" fill="#B496F2"/>
<path d="M229.388 158.956C229.388 158.956 229.388 158.956 229.377 158.956C229.377 158.956 229.377 158.956 229.366 158.956C228.561 158.488 227.266 158.488 226.493 158.956C225.677 159.414 225.687 160.176 226.493 160.644C227.298 161.112 228.583 161.101 229.377 160.633C230.172 160.165 230.15 159.425 229.377 158.978" fill="#B496F2"/>
<path d="M238.966 160.514L243.168 158.076L245.007 159.142C246.542 160.035 246.466 160.96 245.214 161.679C243.962 162.408 242.34 162.473 240.806 161.592L238.966 160.525M247.63 158.185L242.7 155.344L230.215 162.604L232.816 164.106L236.887 161.744L239.151 163.05C242.046 164.726 245.432 164.694 247.924 163.246C250.417 161.798 250.493 159.85 247.641 158.206" fill="#B496F2"/>
<path d="M256.284 163.17L253.715 161.689L241.23 168.949L243.788 170.43L256.284 163.17Z" fill="#B496F2"/>
<path d="M257.578 169.613C257.578 169.613 257.578 169.613 257.589 169.613C258.732 170.266 258.699 171.203 257.578 171.856L253.572 169.537C254.694 168.939 256.392 168.917 257.567 169.592C257.567 169.592 257.567 169.592 257.578 169.592M259.439 168.449C256.685 166.86 252.93 166.958 250.046 168.634C247.074 170.354 246.987 172.454 249.872 174.131C252.201 175.469 254.89 175.72 256.979 174.914L254.53 173.499C253.714 173.684 252.713 173.543 251.831 173.042C250.514 172.269 250.547 171.279 251.951 170.462L258.383 174.174L259.113 173.75C262.302 171.899 261.91 169.875 259.439 168.438" fill="#B496F2"/>
</g>
</g>
<defs>
<clipPath id="clip0_505_16182">
<rect width="55.9035" height="30.2593" fill="white" transform="translate(212.744 146.385)"/>
</clipPath>
</defs>
</svg>
