<svg width="351" height="234" viewBox="0 0 351 234" fill="none" xmlns="http://www.w3.org/2000/svg">
<rect x="0.6875" y="0.53125" width="350" height="233" fill="#D38D8D"/>
<rect x="218.035" y="77.1328" width="50.0708" height="22.2537" rx="4" fill="#C3CCFB"/>
<rect x="230.553" y="77.1328" width="25.0354" height="89.0148" fill="#C3CCFB"/>
<path d="M230.553 99.3984H255.588V121.802L230.553 105.103V99.3984Z" fill="#9AA5E0"/>
<rect x="218.035" y="143.895" width="50.0708" height="22.2537" rx="4" fill="#C3CCFB"/>
<rect x="254.006" y="104.531" width="36.4431" height="16.1969" rx="4" transform="rotate(-18 254.006 104.531)" fill="#4841A6"/>
<rect x="262.672" y="101.717" width="18.2215" height="64.7877" transform="rotate(-18 262.672 101.717)" fill="#4841A6"/>
<rect x="269.023" y="150.742" width="36.4431" height="16.1969" rx="4" transform="rotate(-18 269.023 150.742)" fill="#4841A6"/>
<path d="M267.658 117.074L284.988 111.443L290.046 127.01L268.96 121.081L267.658 117.074Z" fill="#353071"/>
</svg>
