<svg width="259" height="253" viewBox="0 0 259 253" fill="none" xmlns="http://www.w3.org/2000/svg">
<rect x="0.71875" y="0.0527344" width="258" height="252" fill="#C275A3"/>
<mask id="mask0_503_15792" style="mask-type:alpha" maskUnits="userSpaceOnUse" x="0" y="0" width="259" height="253">
<rect x="0.71875" y="0.0527344" width="258" height="252" fill="#5292A7"/>
</mask>
<g mask="url(#mask0_503_15792)">
<path d="M129.871 202.001C129.731 202.136 129.57 202.252 129.418 202.358C127.852 203.43 125.724 203.323 124.272 202.012L125.591 203.202C127.063 204.532 129.249 204.616 130.821 203.475C130.887 203.422 130.953 203.37 131.028 203.307C131.075 203.256 131.132 203.213 131.188 203.171" fill="#5A74B8"/>
<path d="M192.944 196.167C197.127 191.533 200.107 186.223 201.902 180.61C205.197 170.333 212.91 160.566 221.561 154.17C223.511 152.734 225.332 151.089 227.006 149.235C240.931 133.806 239.373 109.71 223.522 95.4036C214.016 86.8233 201.519 83.7302 190.041 85.9486C199.757 85.3726 209.693 88.528 217.5 95.5745C232.928 109.5 234.146 133.289 220.221 148.718C218.547 150.572 216.717 152.228 214.796 153.672C206.186 160.105 198.453 169.853 195.076 180.056C193.229 185.622 190.229 190.913 186.045 195.548C177.753 204.735 149.294 206.635 137.827 206.976C136.097 206.181 146.295 211.572 157.252 212.995C169.237 214.543 184.337 205.724 192.954 196.177L192.944 196.167Z" fill="#2E3F6B"/>
<path d="M192.944 196.167C197.127 191.533 200.107 186.223 201.902 180.61C205.197 170.333 212.91 160.566 221.561 154.17C223.511 152.734 225.332 151.089 227.006 149.235C240.931 133.806 239.373 109.71 223.522 95.4036C214.016 86.8233 201.519 83.7302 190.041 85.9486C199.757 85.3726 209.693 88.528 217.5 95.5745C232.928 109.5 234.146 133.289 220.221 148.718C218.547 150.572 216.717 152.228 214.796 153.672C206.186 160.105 198.453 169.853 195.076 180.056C193.229 185.622 190.229 190.913 186.045 195.548C177.753 204.735 149.294 206.635 137.827 206.976C136.097 206.181 146.295 211.572 157.252 212.995C169.237 214.543 184.337 205.724 192.954 196.177L192.944 196.167Z" fill="url(#paint0_linear_503_15792)"/>
<path d="M261.878 62.9072L257.759 59.1887C257.192 58.6775 257.147 57.7956 257.658 57.2292C258.17 56.6627 259.051 56.6175 259.618 57.1288L263.738 60.8473C264.304 61.3586 264.349 62.2404 263.838 62.8069C263.327 63.3733 262.445 63.4185 261.878 62.9072Z" fill="#5A74B8"/>
<path d="M257.105 68.1982L252.985 64.4798C252.419 63.9685 252.374 63.0867 252.885 62.5202C253.396 61.9537 254.278 61.9086 254.844 62.4199L258.964 66.1383C259.531 66.6496 259.576 67.5314 259.065 68.0979C258.553 68.6644 257.671 68.7095 257.105 68.1982Z" fill="#5A74B8"/>
<path d="M261.701 63.1064L257.581 59.388C257.014 58.8767 256.969 57.9949 257.481 57.4284C257.992 56.8619 258.874 56.8168 259.44 57.3281L263.56 61.0465C264.126 61.5578 264.172 62.4396 263.66 63.0061C263.149 63.5726 262.267 63.6177 261.701 63.1064Z" fill="#A1B2DE"/>
<path d="M256.927 68.3935L252.807 64.6751C252.241 64.1638 252.196 63.282 252.707 62.7155C253.218 62.149 254.1 62.1039 254.667 62.6152L258.786 66.3336C259.353 66.8449 259.398 67.7267 258.887 68.2932C258.376 68.8597 257.494 68.9048 256.927 68.3935Z" fill="#A1B2DE"/>
<path d="M257.207 70.1568C258.344 71.1836 260.099 71.0938 261.126 69.9561C262.153 68.8185 262.063 67.0638 260.925 66.037C259.787 65.0101 258.033 65.1 257.006 66.2376C255.979 67.3753 256.069 69.13 257.207 70.1568Z" fill="#5A74B8"/>
<path d="M260.458 66.1212C261.591 67.1438 261.682 68.9074 260.659 70.0403C260.287 70.4523 259.82 70.7218 259.325 70.8552C260 70.7912 260.643 70.493 261.126 69.9575C262.149 68.8245 262.059 67.0609 260.926 66.0383C260.194 65.3783 259.212 65.183 258.34 65.4241C259.093 65.3561 259.861 65.582 260.458 66.1212Z" fill="#2A3A61"/>
<path d="M257.206 70.156C257.803 70.6952 258.571 70.9211 259.324 70.8531C259.818 70.7197 260.286 70.4502 260.658 70.0382C261.68 68.9053 261.59 67.1417 260.457 66.1191C259.86 65.5799 259.092 65.354 258.339 65.422C257.844 65.5554 257.377 65.8249 257.005 66.2369C255.982 67.3698 256.073 69.1335 257.206 70.156Z" fill="#5A74B8"/>
<path d="M242.27 51.1716L246.39 54.8901C246.957 55.4013 247.838 55.3562 248.35 54.7897C248.861 54.2232 248.816 53.3414 248.249 52.8301L244.13 49.1117C243.563 48.6004 242.681 48.6455 242.17 49.212C241.659 49.7785 241.704 50.6603 242.27 51.1716Z" fill="#5A74B8"/>
<path d="M237.495 56.4626L241.615 60.1811C242.181 60.6924 243.063 60.6472 243.574 60.0807C244.086 59.5143 244.04 58.6325 243.474 58.1212L239.354 54.4027C238.788 53.8914 237.906 53.9366 237.395 54.503C236.883 55.0695 236.928 55.9513 237.495 56.4626Z" fill="#5A74B8"/>
<path d="M242.091 51.3708L246.21 55.0893C246.777 55.6006 247.659 55.5554 248.17 54.9889C248.681 54.4225 248.636 53.5407 248.07 53.0294L243.95 49.3109C243.383 48.7996 242.502 48.8448 241.99 49.4112C241.479 49.9777 241.524 50.8595 242.091 51.3708Z" fill="#A1B2DE"/>
<path d="M237.319 56.656L241.439 60.3744C242.005 60.8857 242.887 60.8406 243.399 60.2741C243.91 59.7076 243.865 58.8258 243.298 58.3145L239.178 54.5961C238.612 54.0848 237.73 54.1299 237.219 54.6964C236.708 55.2629 236.753 56.1447 237.319 56.656Z" fill="#A1B2DE"/>
<path d="M240.311 51.2742C239.174 50.2474 239.084 48.4928 240.111 47.3551C241.138 46.2175 242.892 46.1276 244.03 47.1544C245.168 48.1813 245.257 49.9359 244.231 51.0736C243.204 52.2112 241.449 52.3011 240.311 51.2742Z" fill="#5A74B8"/>
<path d="M235.536 56.5594C234.398 55.5326 234.309 53.7779 235.335 52.6403C236.362 51.5026 238.117 51.4128 239.255 52.4396C240.392 53.4664 240.482 55.2211 239.455 56.3587C238.428 57.4964 236.674 57.5862 235.536 56.5594Z" fill="#5A74B8"/>
<path d="M243.995 47.6264C242.862 46.6038 241.098 46.6941 240.076 47.8271C239.704 48.239 239.483 48.7317 239.401 49.2369C239.396 48.5593 239.627 47.8893 240.11 47.3538C241.133 46.2208 242.896 46.1305 244.029 47.1531C244.761 47.8131 245.055 48.7706 244.905 49.6624C244.895 48.9065 244.592 48.1656 243.995 47.6264Z" fill="#2A3A61"/>
<path d="M239.219 52.9155C238.086 51.8929 236.323 51.9832 235.3 53.1161C234.928 53.5281 234.708 54.0207 234.626 54.526C234.621 53.8484 234.852 53.1784 235.335 52.6428C236.357 51.5099 238.121 51.4196 239.254 52.4421C239.985 53.1022 240.28 54.0596 240.129 54.9515C240.12 54.1955 239.817 53.4546 239.219 52.9155Z" fill="#2A3A61"/>
<path d="M240.311 51.2716C239.713 50.7324 239.41 49.9915 239.401 49.2355C239.483 48.7303 239.703 48.2377 240.075 47.8257C241.098 46.6928 242.861 46.6025 243.994 47.625C244.592 48.1642 244.895 48.9051 244.904 49.6611C244.822 50.1663 244.601 50.6589 244.23 51.0709C243.207 52.2038 241.443 52.2941 240.311 51.2716Z" fill="#5A74B8"/>
<path d="M235.539 56.5606C234.942 56.0214 234.638 55.2805 234.629 54.5246C234.711 54.0194 234.932 53.5268 235.304 53.1148C236.326 51.9818 238.09 51.8915 239.223 52.9141C239.82 53.4533 240.123 54.1942 240.133 54.9501C240.05 55.4553 239.83 55.948 239.458 56.3599C238.436 57.4929 236.672 57.5832 235.539 56.5606Z" fill="#5A74B8"/>
<path fill-rule="evenodd" clip-rule="evenodd" d="M159.985 104.198C154.464 113.42 145.557 122.108 135.753 126.51C130.404 128.916 125.447 132.441 121.273 137.065C105.135 154.945 106.548 182.536 124.428 198.674C142.308 214.812 169.898 213.4 186.036 195.52C190.22 190.885 193.23 185.603 195.067 180.027C198.444 169.824 206.177 160.076 214.787 153.643C216.727 152.198 218.538 150.543 220.212 148.69C234.137 133.261 232.919 109.472 217.491 95.546C202.062 81.6203 178.273 82.8384 164.347 98.2671C162.674 100.121 161.214 102.111 159.973 104.169L159.985 104.198Z" fill="#A1B2DE"/>
<path fill-rule="evenodd" clip-rule="evenodd" d="M159.985 104.198C154.464 113.42 145.557 122.108 135.753 126.51C130.404 128.916 125.447 132.441 121.273 137.065C105.135 154.945 106.548 182.536 124.428 198.674C142.308 214.812 169.898 213.4 186.036 195.52C190.22 190.885 193.23 185.603 195.067 180.027C198.444 169.824 206.177 160.076 214.787 153.643C216.727 152.198 218.538 150.543 220.212 148.69C234.137 133.261 232.919 109.472 217.491 95.546C202.062 81.6203 178.273 82.8384 164.347 98.2671C162.674 100.121 161.214 102.111 159.973 104.169L159.985 104.198Z" fill="url(#paint1_linear_503_15792)"/>
<path d="M193.998 138.795C192.989 139.996 191.178 140.118 190.014 139.068L179.323 129.418C178.159 128.368 178.096 126.554 179.188 125.427L255.653 46.7547L264.439 54.6844L193.988 138.786L193.998 138.795Z" fill="#16254B"/>
<path d="M192.854 137.772C191.844 138.973 190.033 139.095 188.869 138.044L178.179 128.395C177.015 127.344 176.951 125.53 178.043 124.404L254.509 45.7313L263.294 53.6609L192.843 137.762L192.854 137.772Z" fill="#5A74B8"/>
<path d="M158.162 178.586C159.372 177.473 159.364 175.577 158.148 174.48L147.715 165.063C146.5 163.966 144.604 164.162 143.63 165.469L121.889 194.795C120.612 196.521 120.853 198.925 122.449 200.366L125.621 203.229C127.218 204.67 129.634 204.664 131.22 203.218L158.173 178.595L158.162 178.586Z" fill="#16254B"/>
<path d="M129.745 201.884L156.846 177.395C158.053 176.298 158 174.344 156.716 173.184L147.082 164.489C145.798 163.33 143.848 163.477 142.88 164.79L121.287 194.25C120.019 195.983 120.336 198.456 122.023 199.979L123.982 201.747C125.67 203.27 128.161 203.332 129.756 201.894L129.745 201.884Z" fill="#5A74B8"/>
<path d="M261.107 49.9121L152.465 172.434" stroke="#2E3F6B" stroke-linecap="round"/>
<path d="M259.067 48.0722L148.324 168.698" stroke="#2E3F6B" stroke-linecap="round"/>
<path d="M262.93 51.5586L155.81 175.417" stroke="#2E3F6B" stroke-linecap="round"/>
<path d="M256.637 45.8966L144.749 165.47" stroke="#2E3F6B" stroke-linecap="round"/>
<path d="M269.511 51.6465C273.903 48.9945 274.066 42.6559 269.867 38.866C265.668 35.0762 259.37 35.8957 257.19 40.5255L254.659 45.8667L264.445 54.6993L269.5 51.6361L269.511 51.6465Z" fill="url(#paint2_linear_503_15792)"/>
<path d="M166.578 164.521L154.115 153.272C153.425 152.649 153.361 151.582 153.993 150.882C154.616 150.191 155.683 150.127 156.383 150.759L168.846 162.007C169.536 162.63 169.6 163.698 168.968 164.398C168.345 165.088 167.278 165.153 166.578 164.521Z" fill="#5A74B8"/>
<path d="M168.837 162.018L168.291 161.525C168.981 162.148 169.046 163.216 168.413 163.916C167.781 164.616 166.723 164.671 166.023 164.038L166.569 164.531C167.259 165.154 168.327 165.109 168.959 164.409C169.591 163.708 169.537 162.65 168.837 162.018Z" fill="#2E3F6B"/>
<path d="M154.118 153.27L166.035 164.026C166.694 164.621 167.665 164.581 168.312 163.988C168.837 163.303 168.777 162.314 168.117 161.719L156.201 150.963C155.542 150.368 154.571 150.408 153.924 151.001C153.399 151.686 153.459 152.675 154.118 153.27Z" fill="#5A74B8"/>
<path d="M165.337 130.279C166.321 131.167 167.839 131.09 168.727 130.106C169.615 129.122 169.537 127.604 168.553 126.716C167.569 125.827 166.051 125.905 165.163 126.889C164.275 127.873 164.353 129.391 165.337 130.279Z" fill="#2E3F6B"/>
<path d="M134.218 148.547C135.202 149.435 136.72 149.357 137.608 148.373C138.496 147.389 138.418 145.871 137.434 144.983C136.45 144.095 134.932 144.173 134.044 145.157C133.156 146.141 133.234 147.659 134.218 148.547Z" fill="#2E3F6B"/>
<path d="M167.8 129.065C168.267 128.589 168.867 127.075 167.223 125.666C165.177 123.895 158.437 124.819 151.379 136.429C144.331 148.047 139.68 152.372 136.264 150.13C134.143 148.422 134.761 147.241 134.889 146.291" stroke="#2E3F6B" stroke-width="2"/>
<path d="M188.306 151.012C189.29 151.9 190.807 151.822 191.696 150.838C192.584 149.854 192.506 148.336 191.522 147.448C190.538 146.56 189.02 146.638 188.132 147.622C187.244 148.606 187.322 150.124 188.306 151.012Z" fill="#2E3F6B"/>
<path d="M173.315 183.834C174.299 184.722 175.817 184.644 176.705 183.66C177.594 182.676 177.516 181.159 176.532 180.27C175.548 179.382 174.03 179.46 173.142 180.444C172.254 181.428 172.331 182.946 173.315 183.834Z" fill="#2E3F6B"/>
<path d="M189.273 148.447C189.699 147.934 191.144 147.182 192.713 148.674C194.684 150.528 194.453 157.328 183.625 165.535C172.787 173.732 168.96 178.801 171.539 181.969C173.455 183.905 174.567 183.17 175.499 182.945" stroke="#2E3F6B" stroke-width="2"/>
<path d="M154.138 153.289L166.241 163.839C166.9 164.434 167.87 164.394 168.518 163.801C168.49 163.832 168.483 163.881 168.445 163.922C167.823 164.613 166.755 164.677 166.055 164.045L154.138 153.289Z" fill="#2E3F6B"/>
<path d="M182.387 242.053V222.256H190.152C194.65 222.256 197.234 225.031 197.234 228.928C197.234 232.879 194.609 235.6 190.043 235.6H186.488V242.053H182.387ZM186.488 232.291H189.387C191.82 232.291 193.01 230.924 192.996 228.928C193.01 226.959 191.82 225.633 189.387 225.619H186.488V232.291ZM201.199 242.299C199.914 242.299 198.875 241.273 198.902 240.002C198.875 238.744 199.914 237.719 201.199 237.732C202.416 237.719 203.469 238.744 203.469 240.002C203.469 241.273 202.416 242.299 201.199 242.299ZM206.805 242.053V222.256H214.57C219.068 222.256 221.652 225.031 221.652 228.928C221.652 232.879 219.027 235.6 214.461 235.6H210.906V242.053H206.805ZM210.906 232.291H213.805C216.238 232.291 217.428 230.924 217.414 228.928C217.428 226.959 216.238 225.633 213.805 225.619H210.906V232.291ZM228.215 222.256V242.053H224.168V222.256H228.215ZM238.086 242.354C233.533 242.34 230.744 239.4 230.758 234.697C230.744 230.117 233.574 227.014 237.922 227.014C241.818 227.014 244.895 229.475 244.895 234.533V235.682H234.75C234.75 237.924 236.076 239.305 238.168 239.318C239.549 239.305 240.533 238.703 240.93 237.814H244.785C244.211 240.562 241.75 242.34 238.086 242.354ZM234.75 233.139H241.066C241.053 231.334 239.809 230.035 238.004 230.049C236.145 230.035 234.832 231.43 234.75 233.139Z" fill="black"/>
</g>
<defs>
<linearGradient id="paint0_linear_503_15792" x1="228.585" y1="99.9727" x2="134.571" y2="204.133" gradientUnits="userSpaceOnUse">
<stop stop-color="#2E3F6B" stop-opacity="0"/>
<stop offset="1" stop-color="#060913"/>
</linearGradient>
<linearGradient id="paint1_linear_503_15792" x1="167.155" y1="138.977" x2="143.887" y2="211.033" gradientUnits="userSpaceOnUse">
<stop stop-color="#A2B3DF" stop-opacity="0"/>
<stop offset="1" stop-color="#415A98"/>
</linearGradient>
<linearGradient id="paint2_linear_503_15792" x1="259.778" y1="44.1935" x2="263.695" y2="55.1958" gradientUnits="userSpaceOnUse">
<stop stop-color="#A1B2DE"/>
<stop offset="1" stop-color="#5A74B8"/>
</linearGradient>
</defs>
</svg>
