<svg width="259" height="253" viewBox="0 0 259 253" fill="none" xmlns="http://www.w3.org/2000/svg">
<rect x="0.71875" y="0.453125" width="258" height="252" fill="#5292A7"/>
<mask id="mask0_500_11983" style="mask-type:alpha" maskUnits="userSpaceOnUse" x="0" y="0" width="259" height="253">
<rect x="0.71875" y="0.453125" width="258" height="252" fill="#5292A7"/>
</mask>
<g mask="url(#mask0_500_11983)">
<path d="M132.563 199.299C132.426 199.431 132.268 199.544 132.12 199.648C130.59 200.696 128.511 200.591 127.091 199.31L128.38 200.473C129.819 201.772 131.955 201.855 133.491 200.739C133.556 200.688 133.62 200.637 133.694 200.575C133.739 200.525 133.795 200.484 133.85 200.442" fill="#AD6060"/>
<path d="M194.2 193.599C198.289 189.07 201.201 183.88 202.955 178.395C206.175 168.352 213.713 158.807 222.167 152.556C224.073 151.153 225.853 149.545 227.489 147.733C241.098 132.655 239.575 109.106 224.084 95.1243C214.794 86.7388 202.581 83.716 191.364 85.884C200.858 85.3211 210.569 88.4048 218.198 95.2913C233.277 108.901 234.467 132.149 220.858 147.228C219.222 149.039 217.433 150.658 215.557 152.069C207.142 158.356 199.585 167.883 196.284 177.854C194.479 183.293 191.547 188.465 187.459 192.994C179.355 201.973 151.542 203.829 140.336 204.162C138.645 203.385 148.611 208.654 159.319 210.045C171.033 211.557 185.789 202.939 194.21 193.608L194.2 193.599Z" fill="#782B2B"/>
<path d="M194.2 193.599C198.289 189.07 201.201 183.88 202.955 178.395C206.175 168.352 213.713 158.807 222.167 152.556C224.073 151.153 225.853 149.545 227.489 147.733C241.098 132.655 239.575 109.106 224.084 95.1243C214.794 86.7388 202.581 83.716 191.364 85.884C200.858 85.3211 210.569 88.4048 218.198 95.2913C233.277 108.901 234.467 132.149 220.858 147.228C219.222 149.039 217.433 150.658 215.557 152.069C207.142 158.356 199.585 167.883 196.284 177.854C194.479 183.293 191.547 188.465 187.459 192.994C179.355 201.973 151.542 203.829 140.336 204.162C138.645 203.385 148.611 208.654 159.319 210.045C171.033 211.557 185.789 202.939 194.21 193.608L194.2 193.599Z" fill="url(#paint0_linear_500_11983)"/>
<path d="M261.571 63.3662L257.545 59.7322C256.991 59.2325 256.947 58.3707 257.447 57.8171C257.947 57.2635 258.808 57.2194 259.362 57.719L263.388 61.3531C263.942 61.8527 263.986 62.7145 263.486 63.2681C262.987 63.8217 262.125 63.8658 261.571 63.3662Z" fill="#AD6060"/>
<path d="M256.905 68.5361L252.879 64.9021C252.325 64.4024 252.281 63.5406 252.781 62.987C253.281 62.4334 254.142 62.3893 254.696 62.889L258.722 66.523C259.276 67.0227 259.32 67.8844 258.82 68.438C258.321 68.9916 257.459 69.0358 256.905 68.5361Z" fill="#AD6060"/>
<path d="M261.397 63.5595L257.371 59.9255C256.818 59.4258 256.773 58.5641 257.273 58.0105C257.773 57.4569 258.635 57.4127 259.188 57.9124L263.214 61.5464C263.768 62.0461 263.812 62.9079 263.312 63.4615C262.813 64.0151 261.951 64.0592 261.397 63.5595Z" fill="#DEA1A1"/>
<path d="M256.733 68.7275L252.707 65.0935C252.154 64.5938 252.109 63.732 252.609 63.1784C253.109 62.6248 253.971 62.5807 254.524 63.0804L258.55 66.7144C259.104 67.2141 259.148 68.0758 258.648 68.6294C258.149 69.183 257.287 69.2272 256.733 68.7275Z" fill="#DEA1A1"/>
<path d="M257.004 70.4507C258.116 71.4542 259.831 71.3664 260.834 70.2545C261.838 69.1427 261.75 67.4279 260.638 66.4244C259.526 65.4209 257.812 65.5087 256.808 66.6205C255.804 67.7324 255.892 69.4472 257.004 70.4507Z" fill="#AD6060"/>
<path d="M260.184 66.5057C261.291 67.5051 261.379 69.2286 260.38 70.3358C260.016 70.7384 259.559 71.0019 259.076 71.1322C259.736 71.0696 260.364 70.7782 260.836 70.2548C261.836 69.1476 261.747 67.4241 260.64 66.4247C259.926 65.7797 258.965 65.5888 258.113 65.8245C258.849 65.758 259.6 65.9788 260.184 66.5057Z" fill="#872626"/>
<path d="M257.003 70.4504C257.587 70.9773 258.338 71.1981 259.073 71.1316C259.556 71.0013 260.013 70.7379 260.377 70.3352C261.376 69.228 261.288 67.5045 260.181 66.5051C259.597 65.9782 258.846 65.7574 258.11 65.8239C257.628 65.9542 257.171 66.2176 256.807 66.6203C255.808 67.7275 255.896 69.451 257.003 70.4504Z" fill="#AD6060"/>
<path d="M242.408 51.8964L246.434 55.5304C246.988 56.0301 247.85 55.9859 248.349 55.4323C248.849 54.8787 248.805 54.017 248.251 53.5173L244.225 49.8833C243.671 49.3836 242.81 49.4277 242.31 49.9813C241.81 50.5349 241.854 51.3967 242.408 51.8964Z" fill="#AD6060"/>
<path d="M237.742 57.0663L241.768 60.7003C242.322 61.2 243.184 61.1559 243.683 60.6023C244.183 60.0487 244.139 59.1869 243.585 58.6872L239.559 55.0532C239.005 54.5535 238.144 54.5976 237.644 55.1513C237.144 55.7049 237.188 56.5666 237.742 57.0663Z" fill="#AD6060"/>
<path d="M242.232 52.0897L246.258 55.7238C246.812 56.2234 247.674 56.1793 248.174 55.6257C248.673 55.0721 248.629 54.2103 248.075 53.7106L244.049 50.0766C243.496 49.577 242.634 49.6211 242.134 50.1747C241.635 50.7283 241.679 51.5901 242.232 52.0897Z" fill="#DEA1A1"/>
<path d="M237.57 57.2577L241.596 60.8917C242.15 61.3914 243.012 61.3473 243.511 60.7937C244.011 60.2401 243.967 59.3783 243.413 58.8786L239.387 55.2446C238.834 54.7449 237.972 54.7891 237.472 55.3427C236.972 55.8963 237.017 56.758 237.57 57.2577Z" fill="#DEA1A1"/>
<path d="M240.494 51.9963C239.382 50.9928 239.294 49.278 240.297 48.1662C241.301 47.0544 243.016 46.9666 244.128 47.9701C245.239 48.9736 245.327 50.6884 244.324 51.8002C243.32 52.912 241.605 52.9998 240.494 51.9963Z" fill="#AD6060"/>
<path d="M235.827 57.1624C234.716 56.1589 234.628 54.444 235.631 53.3322C236.635 52.2204 238.35 52.1326 239.461 53.1361C240.573 54.1396 240.661 55.8544 239.658 56.9662C238.654 58.0781 236.939 58.1659 235.827 57.1624Z" fill="#AD6060"/>
<path d="M244.093 48.4324C242.986 47.433 241.263 47.5213 240.263 48.6285C239.9 49.0311 239.685 49.5125 239.604 50.0063C239.599 49.3441 239.825 48.6893 240.297 48.1659C241.297 47.0587 243.02 46.9705 244.127 47.9698C244.842 48.6148 245.13 49.5505 244.983 50.4221C244.974 49.6834 244.677 48.9593 244.093 48.4324Z" fill="#872626"/>
<path d="M239.425 53.6003C238.318 52.601 236.595 52.6892 235.595 53.7964C235.232 54.1991 235.017 54.6805 234.936 55.1743C234.931 54.5121 235.157 53.8573 235.629 53.3339C236.629 52.2267 238.352 52.1384 239.459 53.1378C240.174 53.7828 240.462 54.7185 240.315 55.5901C240.306 54.8513 240.009 54.1273 239.425 53.6003Z" fill="#872626"/>
<path d="M240.493 51.9941C239.909 51.4672 239.613 50.7431 239.604 50.0043C239.684 49.5106 239.899 49.0292 240.263 48.6265C241.262 47.5193 242.986 47.4311 244.093 48.4304C244.677 48.9574 244.973 49.6814 244.982 50.4202C244.902 50.9139 244.686 51.3954 244.323 51.798C243.323 52.9052 241.6 52.9935 240.493 51.9941Z" fill="#AD6060"/>
<path d="M235.829 57.164C235.245 56.6371 234.949 55.913 234.94 55.1743C235.02 54.6805 235.235 54.1991 235.599 53.7965C236.598 52.6892 238.322 52.601 239.429 53.6003C240.013 54.1273 240.309 54.8513 240.318 55.5901C240.238 56.0838 240.022 56.5653 239.659 56.9679C238.659 58.0751 236.936 58.1634 235.829 57.164Z" fill="#AD6060"/>
<path fill-rule="evenodd" clip-rule="evenodd" d="M161.993 103.719C156.598 112.731 147.893 121.222 138.312 125.524C133.085 127.875 128.24 131.32 124.161 135.839C108.389 153.313 109.77 180.277 127.244 196.049C144.717 211.82 171.682 210.44 187.453 192.966C191.541 188.436 194.484 183.274 196.278 177.825C199.579 167.854 207.136 158.328 215.551 152.041C217.447 150.629 219.217 149.011 220.852 147.2C234.461 132.121 233.271 108.873 218.193 95.2632C203.115 81.6538 179.866 82.8442 166.256 97.9225C164.621 99.7343 163.194 101.679 161.982 103.69L161.993 103.719Z" fill="#DEA1A1"/>
<path fill-rule="evenodd" clip-rule="evenodd" d="M161.993 103.719C156.598 112.731 147.893 121.222 138.312 125.524C133.085 127.875 128.24 131.32 124.161 135.839C108.389 153.313 109.77 180.277 127.244 196.049C144.717 211.82 171.682 210.44 187.453 192.966C191.541 188.436 194.484 183.274 196.278 177.825C199.579 167.854 207.136 158.328 215.551 152.041C217.447 150.629 219.217 149.011 220.852 147.2C234.461 132.121 233.271 108.873 218.193 95.2632C203.115 81.6538 179.866 82.8442 166.256 97.9225C164.621 99.7343 163.194 101.679 161.982 103.69L161.993 103.719Z" fill="url(#paint1_linear_500_11983)"/>
<path d="M195.233 137.529C194.246 138.703 192.476 138.823 191.339 137.796L180.891 128.366C179.753 127.339 179.691 125.566 180.758 124.465L255.487 47.5798L264.073 55.3293L195.223 137.52L195.233 137.529Z" fill="#6B2121"/>
<path d="M194.114 136.529C193.127 137.703 191.357 137.823 190.22 136.796L179.772 127.366C178.634 126.339 178.572 124.566 179.639 123.465L254.368 46.5798L262.954 54.3293L194.103 136.52L194.114 136.529Z" fill="#AD6060"/>
<path d="M160.21 176.416C161.393 175.328 161.384 173.476 160.197 172.404L150 163.201C148.813 162.129 146.96 162.32 146.008 163.597L124.761 192.258C123.512 193.944 123.748 196.294 125.308 197.702L128.408 200.5C129.969 201.908 132.33 201.902 133.88 200.489L160.22 176.425L160.21 176.416Z" fill="#6B2121"/>
<path d="M132.582 199.317L158.922 175.253C160.095 174.176 160.096 172.313 158.908 171.241L150 163.201C148.813 162.129 146.96 162.32 146.008 163.597L124.761 192.258C123.512 193.944 123.748 196.294 125.308 197.702L127.12 199.337C128.68 200.745 131.042 200.739 132.592 199.326L132.582 199.317Z" fill="#AD6060"/>
<path d="M260.816 50.6641L154.642 170.403" stroke="#782B2B" stroke-linecap="round"/>
<path d="M258.823 48.8675L150.595 166.753" stroke="#782B2B" stroke-linecap="round"/>
<path d="M262.6 52.2754L157.913 173.32" stroke="#782B2B" stroke-linecap="round"/>
<path d="M256.448 46.7405L147.102 163.598" stroke="#782B2B" stroke-linecap="round"/>
<path d="M269.03 52.362C273.323 49.7703 273.482 43.5756 269.378 39.8718C265.275 36.1681 259.12 36.969 256.989 41.4936L254.516 46.7135L264.079 55.3455L269.019 52.3519L269.03 52.362Z" fill="url(#paint2_linear_500_11983)"/>
<path d="M168.435 162.671L156.255 151.678C155.581 151.069 155.518 150.026 156.136 149.341C156.744 148.667 157.788 148.604 158.472 149.222L170.651 160.215C171.326 160.823 171.389 161.866 170.771 162.551C170.162 163.225 169.119 163.288 168.435 162.671Z" fill="#AD6060"/>
<path d="M170.643 160.224L170.109 159.742C170.784 160.351 170.847 161.394 170.229 162.079C169.611 162.763 168.577 162.816 167.893 162.198L168.426 162.68C169.101 163.288 170.145 163.245 170.762 162.56C171.38 161.876 171.327 160.841 170.643 160.224Z" fill="#782B2B"/>
<path d="M156.259 151.677L167.905 162.188C168.549 162.77 169.497 162.731 170.13 162.151C170.643 161.482 170.584 160.515 169.94 159.934L158.294 149.422C157.65 148.841 156.701 148.88 156.068 149.459C155.555 150.129 155.615 151.095 156.259 151.677Z" fill="#AD6060"/>
<path d="M167.223 129.207C168.185 130.075 169.668 129.999 170.536 129.037C171.404 128.075 171.328 126.592 170.366 125.724C169.405 124.856 167.921 124.932 167.053 125.894C166.185 126.855 166.261 128.339 167.223 129.207Z" fill="#782B2B"/>
<path d="M136.809 147.058C137.771 147.926 139.254 147.85 140.122 146.889C140.99 145.927 140.914 144.444 139.952 143.576C138.991 142.708 137.507 142.784 136.639 143.745C135.771 144.707 135.847 146.19 136.809 147.058Z" fill="#782B2B"/>
<path d="M169.629 128.02C170.085 127.555 170.671 126.076 169.065 124.699C167.066 122.967 160.478 123.871 153.58 135.217C146.693 146.572 142.147 150.798 138.809 148.607C136.737 146.937 137.34 145.783 137.465 144.855" stroke="#782B2B" stroke-width="2"/>
<path d="M189.67 149.468C190.632 150.336 192.115 150.261 192.983 149.299C193.851 148.337 193.775 146.854 192.814 145.986C191.852 145.118 190.369 145.194 189.501 146.155C188.633 147.117 188.708 148.6 189.67 149.468Z" fill="#782B2B"/>
<path d="M175.02 181.545C175.982 182.413 177.465 182.337 178.333 181.375C179.201 180.413 179.125 178.93 178.163 178.062C177.202 177.194 175.718 177.27 174.85 178.232C173.982 179.193 174.058 180.677 175.02 181.545Z" fill="#782B2B"/>
<path d="M190.614 146.962C191.03 146.461 192.442 145.726 193.976 147.183C195.903 148.995 195.676 155.641 185.095 163.661C174.503 171.673 170.763 176.626 173.283 179.723C175.156 181.614 176.242 180.896 177.153 180.677" stroke="#782B2B" stroke-width="2"/>
<path d="M156.279 151.694L168.107 162.004C168.751 162.585 169.7 162.546 170.332 161.967C170.305 161.997 170.298 162.045 170.262 162.086C169.653 162.76 168.61 162.823 167.925 162.205L156.279 151.694Z" fill="#782B2B"/>
<path d="M182.387 242.453V222.656H190.152C194.65 222.656 197.234 225.432 197.234 229.328C197.234 233.279 194.609 236 190.043 236H186.488V242.453H182.387ZM186.488 232.691H189.387C191.82 232.691 193.01 231.324 192.996 229.328C193.01 227.359 191.82 226.033 189.387 226.02H186.488V232.691ZM201.199 242.699C199.914 242.699 198.875 241.674 198.902 240.402C198.875 239.145 199.914 238.119 201.199 238.133C202.416 238.119 203.469 239.145 203.469 240.402C203.469 241.674 202.416 242.699 201.199 242.699ZM206.805 242.453V222.656H214.57C219.068 222.656 221.652 225.432 221.652 229.328C221.652 233.279 219.027 236 214.461 236H210.906V242.453H206.805ZM210.906 232.691H213.805C216.238 232.691 217.428 231.324 217.414 229.328C217.428 227.359 216.238 226.033 213.805 226.02H210.906V232.691ZM228.215 222.656V242.453H224.168V222.656H228.215ZM238.086 242.754C233.533 242.74 230.744 239.801 230.758 235.098C230.744 230.518 233.574 227.414 237.922 227.414C241.818 227.414 244.895 229.875 244.895 234.934V236.082H234.75C234.75 238.324 236.076 239.705 238.168 239.719C239.549 239.705 240.533 239.104 240.93 238.215H244.785C244.211 240.963 241.75 242.74 238.086 242.754ZM234.75 233.539H241.066C241.053 231.734 239.809 230.436 238.004 230.449C236.145 230.436 234.832 231.83 234.75 233.539Z" fill="black"/>
</g>
<defs>
<linearGradient id="paint0_linear_500_11983" x1="229.032" y1="99.5896" x2="137.154" y2="201.384" gradientUnits="userSpaceOnUse">
<stop stop-color="#782B2B" stop-opacity="0"/>
<stop offset="1" stop-color="#500B0B"/>
</linearGradient>
<linearGradient id="paint1_linear_500_11983" x1="169.001" y1="137.708" x2="146.261" y2="208.127" gradientUnits="userSpaceOnUse">
<stop stop-color="#DEA1A1" stop-opacity="0"/>
<stop offset="1" stop-color="#AD6060"/>
</linearGradient>
<linearGradient id="paint2_linear_500_11983" x1="259.518" y1="45.0783" x2="263.346" y2="55.8307" gradientUnits="userSpaceOnUse">
<stop stop-color="#DEA1A1"/>
<stop offset="1" stop-color="#AD6060"/>
</linearGradient>
</defs>
</svg>
