<svg width="259" height="253" viewBox="0 0 259 253" fill="none" xmlns="http://www.w3.org/2000/svg">
<rect x="0.769531" y="0.0527344" width="258" height="252" fill="#4A5294"/>
<mask id="mask0_502_14484" style="mask-type:alpha" maskUnits="userSpaceOnUse" x="0" y="0" width="259" height="253">
<rect x="0.769531" y="0.0527344" width="258" height="252" fill="#D6895E"/>
</mask>
<g mask="url(#mask0_502_14484)">
<circle cx="191.239" cy="130.402" r="93.0489" transform="rotate(2.56318 191.239 130.402)" fill="#2B1313"/>
<circle cx="198.246" cy="119.539" r="81.883" transform="rotate(2.56318 198.246 119.539)" fill="#6B3030"/>
<path fill-rule="evenodd" clip-rule="evenodd" d="M226.607 195.612C256.572 184.682 278.551 156.586 280.067 122.734C282.078 77.8129 247.292 39.7672 202.371 37.7563C157.451 35.7454 119.405 70.5307 117.394 115.452C117.345 116.555 117.317 117.654 117.312 118.748C117.221 119.812 117.152 120.883 117.104 121.96C115.185 164.827 147.964 201.115 190.318 203.011C203.283 203.591 215.642 200.881 226.607 195.612ZM195.089 200.429C206.158 200.924 216.809 199.186 226.607 195.612C251.461 183.668 269.149 158.57 270.481 128.826C272.4 85.9583 239.621 49.6705 197.267 47.7745C155.977 45.9261 120.83 77.446 117.312 118.748C117.098 162.219 151.272 198.467 195.089 200.429Z" fill="#492121"/>
<path fill-rule="evenodd" clip-rule="evenodd" d="M194.715 208.793C244.256 211.011 286.215 172.648 288.433 123.107C290.651 73.5653 252.287 31.6064 202.746 29.3886C153.205 27.1709 111.246 65.5341 109.028 115.075C106.811 164.617 145.174 206.576 194.715 208.793ZM195.091 200.429C240.011 202.44 278.057 167.655 280.068 122.734C282.079 77.8132 247.294 39.7675 202.373 37.7566C157.452 35.7457 119.406 70.531 117.395 115.452C115.384 160.373 150.17 198.418 195.091 200.429Z" fill="#B75C5C"/>
<g filter="url(#filter0_d_502_14484)">
<path fill-rule="evenodd" clip-rule="evenodd" d="M177.995 128.753C179.828 129.541 181.951 128.707 182.761 126.89C182.004 128.726 182.859 130.838 184.691 131.625C186.528 132.415 188.656 131.576 189.463 129.751C188.691 131.592 189.546 133.715 191.384 134.506C193.233 135.3 195.376 134.446 196.17 132.598L234.742 42.8933C235.536 41.0447 234.682 38.9017 232.834 38.1069C230.996 37.3168 228.868 38.156 228.062 39.9814C228.833 38.14 227.978 36.0168 226.14 35.2265C224.307 34.4381 222.183 35.2721 221.374 37.0898C222.131 35.2529 221.276 33.1418 219.444 32.3542C217.596 31.5594 215.453 32.4136 214.658 34.2622L176.087 123.967C175.292 125.815 176.146 127.958 177.995 128.753ZM199.363 23.7131C197.514 22.9182 195.371 23.7725 194.576 25.6211L156.005 115.325C155.21 117.174 156.064 119.317 157.913 120.112C159.746 120.9 161.869 120.066 162.68 118.249C161.914 120.089 162.769 122.207 164.604 122.996C166.453 123.791 168.596 122.937 169.391 121.088L207.962 31.3839C208.757 29.5353 207.902 27.3924 206.054 26.5975C204.22 25.8092 202.098 26.6429 201.287 28.46C202.053 26.6205 201.198 24.5023 199.363 23.7131ZM207.965 31.3798C208.759 29.5312 210.902 28.677 212.751 29.4718C214.6 30.2667 215.454 32.4096 214.659 34.2582L176.088 123.963C175.293 125.811 173.15 126.665 171.301 125.871C169.453 125.076 168.599 122.933 169.393 121.084L207.965 31.3798ZM234.742 42.8932C235.537 41.0446 237.68 40.1904 239.529 40.9852C241.351 41.7688 242.207 43.8626 241.469 45.693C242.29 43.8975 244.399 43.0777 246.222 43.8615C248.071 44.6564 248.925 46.7993 248.13 48.6479L209.559 138.352C208.764 140.201 206.621 141.055 204.772 140.26C202.95 139.477 202.094 137.383 202.832 135.552C202.011 137.348 199.902 138.168 198.079 137.384C196.231 136.589 195.376 134.446 196.171 132.598L234.742 42.8932Z" fill="#1B3F53"/>
<path fill-rule="evenodd" clip-rule="evenodd" d="M199.387 138.033C198.567 139.829 196.458 140.648 194.635 139.865C192.786 139.07 191.932 136.927 192.727 135.078L232.161 43.3655C232.956 41.5169 235.099 40.6627 236.948 41.4576C238.77 42.2412 239.626 44.335 238.889 46.1653C239.709 44.3698 241.818 43.5501 243.641 44.3339C245.49 45.1287 246.344 47.2717 245.549 49.1203L206.114 140.833C205.319 142.682 203.177 143.536 201.328 142.741C199.505 141.957 198.649 139.863 199.387 138.033ZM196.782 24.1854C194.933 23.3906 192.79 24.2448 191.995 26.0934L152.561 117.806C151.766 119.655 152.62 121.798 154.469 122.592C156.302 123.381 158.425 122.547 159.235 120.73C158.469 122.569 159.324 124.688 161.16 125.477C163.008 126.272 165.151 125.417 165.946 123.569L205.381 31.8563C206.176 30.0077 205.321 27.8647 203.473 27.0699C201.639 26.2816 199.517 27.1153 198.706 28.9323C199.472 27.0928 198.617 24.9746 196.782 24.1854ZM205.384 31.8521C206.179 30.0035 208.321 29.1493 210.17 29.9442C212.019 30.739 212.873 32.882 212.078 34.7306L172.643 126.443C171.849 128.292 169.706 129.146 167.857 128.351C166.008 127.556 165.154 125.413 165.949 123.565L205.384 31.8521ZM216.863 32.8266C215.015 32.0317 212.872 32.8859 212.077 34.7345L172.642 126.447C171.847 128.296 172.702 130.439 174.55 131.234C176.399 132.028 178.542 131.174 179.337 129.326L218.771 37.613C219.566 35.7644 218.712 33.6214 216.863 32.8266ZM218.773 37.6088C219.568 35.7602 221.711 34.906 223.559 35.7009C225.388 36.4873 226.244 38.5932 225.492 40.4281C226.307 38.6205 228.424 37.7929 230.253 38.5792C232.101 39.3741 232.955 41.517 232.161 43.3656L192.726 135.078C191.931 136.927 189.788 137.781 187.94 136.986C186.111 136.2 185.255 134.094 186.007 132.259C185.192 134.067 183.075 134.894 181.246 134.108C179.398 133.313 178.544 131.17 179.338 129.321L218.773 37.6088Z" fill="#4492BE"/>
<path d="M196.374 45.4277C194.526 44.6331 192.382 45.488 191.587 47.3359C191.561 47.3961 191.549 47.4621 191.529 47.5253C192.291 46.0123 194.109 45.3264 195.689 46.0058C197.269 46.6852 198.096 48.6192 197.387 50.2662C196.679 51.9132 194.917 52.5992 193.316 52.0222C193.377 52.0481 193.428 52.0941 193.488 52.12C195.336 52.9145 197.481 52.0597 198.275 50.2118C199.07 48.3639 198.222 46.2222 196.374 45.4277Z" fill="#1B3F53"/>
<path d="M197.389 50.2672C198.097 48.6202 197.338 46.715 195.691 46.0068C194.044 45.2986 192.293 46.0133 191.531 47.5263C190.894 49.2671 191.664 51.2011 193.325 52.026C194.925 52.6031 196.716 51.8502 197.396 50.2701L197.389 50.2672Z" fill="#275772"/>
<path d="M184.285 73.539C182.437 72.7445 180.293 73.5993 179.498 75.4472C179.472 75.5075 179.46 75.5735 179.44 75.6366C180.202 74.1236 182.02 73.4377 183.6 74.1171C185.18 74.7965 186.007 76.7305 185.298 78.3776C184.59 80.0246 182.828 80.7105 181.227 80.1335C181.288 80.1594 181.339 80.2054 181.4 80.2313C183.247 81.0259 185.392 80.171 186.187 78.3231C186.981 76.4752 186.133 74.3336 184.285 73.539Z" fill="#1B3F53"/>
<path d="M185.3 78.3786C186.008 76.7315 185.249 74.8263 183.602 74.1181C181.955 73.4099 180.204 74.1246 179.442 75.6376C178.805 77.3785 179.576 79.3124 181.236 80.1374C182.836 80.7144 184.627 79.9615 185.307 78.3814L185.3 78.3786Z" fill="#275772"/>
<path d="M172.197 101.66C170.349 100.866 168.205 101.72 167.41 103.568C167.384 103.629 167.372 103.695 167.353 103.758C168.114 102.245 169.932 101.559 171.512 102.238C173.092 102.918 173.919 104.852 173.211 106.499C172.502 108.146 170.74 108.832 169.14 108.255C169.2 108.28 169.251 108.326 169.312 108.352C171.16 109.147 173.304 108.292 174.099 106.444C174.893 104.596 174.045 102.455 172.197 101.66Z" fill="#1B3F53"/>
<path d="M173.212 106.5C173.92 104.853 173.161 102.947 171.514 102.239C169.867 101.531 168.116 102.246 167.354 103.759C166.717 105.5 167.488 107.434 169.148 108.258C170.748 108.835 172.54 108.083 173.219 106.503L173.212 106.5Z" fill="#275772"/>
<path d="M197.694 62.6542C195.846 61.8597 193.702 62.7146 192.907 64.5624C192.881 64.6227 192.869 64.6887 192.85 64.7518C193.611 63.2389 195.429 62.553 197.009 63.2324C198.589 63.9118 199.416 65.8458 198.708 67.4928C197.999 69.1398 196.237 69.8258 194.637 69.2487C194.697 69.2746 194.749 69.3206 194.809 69.3465C196.657 70.1411 198.801 69.2862 199.596 67.4384C200.39 65.5905 199.542 63.4488 197.694 62.6542Z" fill="#1B3F53"/>
<path d="M198.709 67.4938C199.418 65.8468 198.658 63.9416 197.011 63.2334C195.364 62.5252 193.613 63.2398 192.851 64.7528C192.214 66.4937 192.985 68.4276 194.645 69.2526C196.245 69.8296 198.037 69.0767 198.716 67.4967L198.709 67.4938Z" fill="#275772"/>
<path d="M185.604 90.7695C183.757 89.9749 181.612 90.8298 180.817 92.6777C180.792 92.7379 180.779 92.8039 180.76 92.8671C181.521 91.3541 183.339 90.6682 184.92 91.3476C186.5 92.027 187.326 93.961 186.618 95.608C185.91 97.255 184.147 97.941 182.547 97.364C182.607 97.3899 182.659 97.4359 182.719 97.4618C184.567 98.2563 186.711 97.4015 187.506 95.5536C188.3 93.7057 187.452 91.564 185.604 90.7695Z" fill="#1B3F53"/>
<path d="M186.619 95.609C187.328 93.962 186.568 92.0568 184.921 91.3486C183.274 90.6404 181.523 91.3551 180.761 92.8681C180.124 94.6089 180.895 96.5429 182.555 97.3678C184.155 97.9449 185.947 97.192 186.626 95.6119L186.619 95.609Z" fill="#275772"/>
<path d="M213.761 69.5605C211.913 68.7659 209.768 69.6208 208.974 71.4687C208.948 71.5289 208.935 71.595 208.916 71.6581C209.678 70.1451 211.496 69.4592 213.076 70.1386C214.656 70.818 215.482 72.752 214.774 74.399C214.066 76.0461 212.303 76.732 210.703 76.155C210.763 76.1809 210.815 76.2269 210.875 76.2528C212.723 77.0473 214.868 76.1925 215.662 74.3446C216.457 72.4967 215.609 70.355 213.761 69.5605Z" fill="#1B3F53"/>
<path d="M214.776 74.4C215.484 72.753 214.724 70.8478 213.077 70.1396C211.43 69.4314 209.679 70.1461 208.918 71.6591C208.28 73.4 209.051 75.3339 210.711 76.1588C212.312 76.7359 214.103 75.983 214.782 74.4029L214.776 74.4Z" fill="#275772"/>
<path d="M201.672 97.6796C199.824 96.8851 197.679 97.74 196.885 99.5878C196.859 99.6481 196.846 99.7141 196.827 99.7772C197.589 98.2643 199.407 97.5784 200.987 98.2578C202.567 98.9372 203.393 100.871 202.685 102.518C201.977 104.165 200.214 104.851 198.614 104.274C198.674 104.3 198.726 104.346 198.786 104.372C200.634 105.166 202.779 104.312 203.573 102.464C204.368 100.616 203.52 98.4742 201.672 97.6796Z" fill="#1B3F53"/>
<path d="M202.687 102.519C203.395 100.872 202.636 98.9669 200.989 98.2588C199.342 97.5506 197.59 98.2652 196.829 99.7782C196.191 101.519 196.962 103.453 198.623 104.278C200.223 104.855 202.014 104.102 202.694 102.522L202.687 102.519Z" fill="#275772"/>
<path d="M212.441 52.3339C210.593 51.5394 208.449 52.3943 207.654 54.2421C207.628 54.3024 207.616 54.3684 207.597 54.4315C208.358 52.9185 210.176 52.2327 211.756 52.9121C213.336 53.5915 214.163 55.5255 213.455 57.1725C212.747 58.8195 210.984 59.5054 209.384 58.9284C209.444 58.9543 209.496 59.0003 209.556 59.0262C211.404 59.8208 213.548 58.9659 214.343 57.118C215.137 55.2702 214.289 53.1285 212.441 52.3339Z" fill="#1B3F53"/>
<path d="M213.456 57.1735C214.165 55.5265 213.405 53.6212 211.758 52.9131C210.111 52.2049 208.36 52.9195 207.598 54.4325C206.961 56.1734 207.732 58.1073 209.392 58.9323C210.992 59.5093 212.784 58.7564 213.463 57.1764L213.456 57.1735Z" fill="#275772"/>
<path d="M200.353 80.455C198.506 79.6605 196.361 80.5153 195.566 82.3632C195.541 82.4235 195.528 82.4895 195.509 82.5526C196.27 81.0396 198.088 80.3538 199.669 81.0332C201.249 81.7126 202.075 83.6466 201.367 85.2936C200.659 86.9406 198.896 87.6265 197.296 87.0495C197.356 87.0754 197.408 87.1214 197.468 87.1473C199.316 87.9419 201.46 87.087 202.255 85.2391C203.049 83.3913 202.201 81.2496 200.353 80.455Z" fill="#1B3F53"/>
<path d="M201.368 85.2946C202.077 83.6476 201.317 81.7423 199.67 81.0341C198.023 80.326 196.272 81.0406 195.51 82.5536C194.873 84.2945 195.644 86.2284 197.304 87.0534C198.904 87.6304 200.696 86.8775 201.375 85.2974L201.368 85.2946Z" fill="#275772"/>
<path d="M188.265 108.57C186.417 107.776 184.272 108.631 183.478 110.478C183.452 110.539 183.439 110.605 183.42 110.668C184.182 109.155 186 108.469 187.58 109.148C189.16 109.828 189.986 111.762 189.278 113.409C188.57 115.056 186.807 115.742 185.207 115.165C185.267 115.191 185.319 115.237 185.379 115.263C187.227 116.057 189.372 115.202 190.166 113.354C190.961 111.506 190.112 109.365 188.265 108.57Z" fill="#1B3F53"/>
<path d="M189.28 113.41C189.988 111.763 189.228 109.858 187.581 109.149C185.934 108.441 184.183 109.156 183.422 110.669C182.784 112.41 183.555 114.344 185.215 115.169C186.816 115.746 188.607 114.993 189.286 113.413L189.28 113.41Z" fill="#275772"/>
<path d="M228.508 59.2441C226.66 58.4495 224.515 59.3044 223.721 61.1523C223.695 61.2125 223.682 61.2785 223.663 61.3417C224.425 59.8287 226.243 59.1428 227.823 59.8222C229.403 60.5016 230.229 62.4356 229.521 64.0826C228.813 65.7297 227.05 66.4156 225.45 65.8386C225.51 65.8645 225.562 65.9105 225.622 65.9364C227.47 66.7309 229.615 65.8761 230.409 64.0282C231.204 62.1803 230.356 60.0386 228.508 59.2441Z" fill="#1B3F53"/>
<path d="M229.523 64.0836C230.231 62.4366 229.472 60.5314 227.825 59.8232C226.177 59.115 224.426 59.8297 223.665 61.3427C223.027 63.0835 223.798 65.0175 225.458 65.8424C227.059 66.4195 228.85 65.6666 229.529 64.0865L229.523 64.0836Z" fill="#275772"/>
<path d="M216.415 87.3632C214.567 86.5687 212.423 87.4235 211.628 89.2714C211.602 89.3317 211.59 89.3977 211.57 89.4608C212.332 87.9478 214.15 87.262 215.73 87.9414C217.31 88.6208 218.137 90.5548 217.428 92.2018C216.72 93.8488 214.958 94.5347 213.357 93.9577C213.418 93.9836 213.469 94.0296 213.529 94.0555C215.377 94.8501 217.522 93.9952 218.316 92.1473C219.111 90.2995 218.263 88.1578 216.415 87.3632Z" fill="#1B3F53"/>
<path d="M217.431 92.2028C218.139 90.5558 217.38 88.6505 215.733 87.9424C214.086 87.2342 212.335 87.9488 211.573 89.4618C210.935 91.2027 211.706 93.1366 213.367 93.9616C214.967 94.5386 216.758 93.7857 217.438 92.2056L217.431 92.2028Z" fill="#275772"/>
<path d="M204.328 115.478C202.48 114.684 200.336 115.539 199.541 117.387C199.515 117.447 199.503 117.513 199.483 117.576C200.245 116.063 202.063 115.377 203.643 116.057C205.223 116.736 206.05 118.67 205.341 120.317C204.633 121.964 202.871 122.65 201.27 122.073C201.331 122.099 201.382 122.145 201.443 122.171C203.29 122.965 205.435 122.11 206.23 120.263C207.024 118.415 206.176 116.273 204.328 115.478Z" fill="#1B3F53"/>
<path d="M205.343 120.318C206.051 118.671 205.292 116.766 203.645 116.058C201.998 115.349 200.247 116.064 199.485 117.577C198.848 119.318 199.619 121.252 201.279 122.077C202.879 122.654 204.67 121.901 205.35 120.321L205.343 120.318Z" fill="#275772"/>
</g>
<g clip-path="url(#clip0_502_14484)">
<path d="M245.87 77.5704L248.319 77.7998C248.505 77.8179 248.621 78.0006 248.554 78.178C248.077 79.5156 246.904 84.5357 254.389 88.3106C254.532 88.3789 254.594 88.5605 254.51 88.6945C253.363 90.5229 246.852 101.894 258.763 104.481C258.927 104.517 259.055 104.664 259.047 104.834C258.957 106.272 258.924 112.678 265.149 114.575C265.28 114.612 265.34 114.76 265.271 114.871L263.248 118.094L253.743 118.676L245.001 108.554L241.392 102.455L240.033 89.6714L241.109 82.5138L244.104 78.1095L245.88 77.5546L245.87 77.5704Z" fill="#123F52"/>
<path d="M229.714 71.4399C230.416 70.3206 231.637 69.7241 232.864 69.7471C232.975 68.4324 232.385 67.0956 231.187 66.3437C230.147 65.6907 228.898 65.6321 227.852 66.0741C228.094 66.1604 228.335 66.2673 228.571 66.4157C230.274 67.4843 230.795 69.7343 229.722 71.4448L229.714 71.4399Z" fill="#123F52"/>
<path d="M242.056 79.1859C242.758 78.0667 243.978 77.4702 245.206 77.4932C245.317 76.1785 244.727 74.8417 243.529 74.0898C242.489 73.4368 241.24 73.3782 240.193 73.8202C240.436 73.9064 240.676 74.0134 240.913 74.1618C242.615 75.2304 243.137 77.4804 242.064 79.1909L242.056 79.1859Z" fill="#123F52"/>
<path d="M261.686 116.454L220.013 182.854C221.397 183.064 222.844 182.456 223.64 181.187L263.76 117.262C263.05 117.08 262.349 116.816 261.681 116.462L261.686 116.454Z" fill="#123F52"/>
<path d="M235.885 75.3129C236.587 74.1936 237.808 73.5971 239.035 73.6201C239.146 72.3054 238.556 70.9687 237.358 70.2168C236.318 69.5638 235.069 69.5052 234.023 69.9471C234.265 70.0334 234.506 70.1404 234.742 70.2888C236.445 71.3573 236.966 73.6074 235.893 75.3178L235.885 75.3129Z" fill="#123F52"/>
<path d="M219.716 110.701C220.924 111.262 222.316 111.058 223.274 110.144C222.323 111.03 220.92 111.27 219.716 110.701Z" fill="#2E91BC"/>
<path d="M221.059 93.4727C222.267 94.0332 223.646 93.8326 224.599 92.9259C223.645 93.7991 222.259 94.0283 221.059 93.4727Z" fill="#2E91BC"/>
<path d="M234.526 119.996C235.734 120.557 237.12 120.361 238.079 119.446C237.132 120.325 235.721 120.56 234.526 119.996Z" fill="#2E91BC"/>
<path d="M203.44 136.617C204.656 137.183 206.047 136.979 207.011 136.057C206.059 136.943 204.648 137.178 203.44 136.617Z" fill="#2E91BC"/>
<path d="M219.616 128.699C220.816 129.255 222.195 129.054 223.156 128.152C222.209 129.031 220.816 129.255 219.616 128.699Z" fill="#2E91BC"/>
<path d="M218.257 145.918C219.461 146.487 220.86 146.288 221.823 145.365C220.872 146.251 219.465 146.479 218.257 145.918Z" fill="#2E91BC"/>
<path d="M235.876 102.771C237.085 103.332 238.463 103.131 239.417 102.225C238.462 103.098 237.077 103.327 235.876 102.771Z" fill="#2E91BC"/>
<path d="M203.334 154.623C204.543 155.184 205.921 154.983 206.875 154.076C205.92 154.949 204.535 155.179 203.334 154.623Z" fill="#2E91BC"/>
<path d="M204.799 119.4C206 119.956 207.378 119.755 208.34 118.854C207.393 119.732 206 119.956 204.799 119.4Z" fill="#2E91BC"/>
<path d="M188.517 145.324C189.725 145.885 191.104 145.684 192.057 144.777C191.103 145.651 189.717 145.88 188.517 145.324Z" fill="#2E91BC"/>
<path d="M234.424 137.992C235.632 138.553 237.024 138.349 237.987 137.427C237.036 138.313 235.632 138.553 234.424 137.992Z" fill="#2E91BC"/>
<path d="M218.143 163.918C219.359 164.484 220.75 164.28 221.709 163.365C220.757 164.251 219.346 164.487 218.143 163.918Z" fill="#2E91BC"/>
<path d="M261.09 116.126C257.993 114.182 256.457 110.713 256.825 107.308C256.856 107.031 256.662 106.799 256.387 106.78C256.023 106.749 255.66 106.697 255.299 106.624C256.338 107.804 256.544 109.559 255.664 110.962C254.595 112.664 252.345 113.186 250.635 112.112C250.58 112.078 250.535 112.027 250.48 111.993C248.966 110.922 248.502 108.895 249.399 107.272C249.434 107.217 249.453 107.152 249.488 107.097C250.101 106.12 251.11 105.544 252.183 105.427C252.175 105.422 252.16 105.412 252.152 105.407C247.841 102.702 246.541 97.019 249.246 92.708C249.968 91.5573 250.794 90.5045 251.835 89.7736C251.997 89.6555 251.959 89.401 251.767 89.3572C250.923 89.1791 250.152 88.937 249.34 88.4275C245.801 86.2066 244.389 81.8928 245.676 78.1087C245.731 77.9342 245.806 77.7618 245.874 77.5844C245.656 77.5465 245.433 77.5165 245.216 77.5121C243.976 77.492 242.769 78.0855 242.066 79.2047C243.135 77.5023 242.626 75.2496 240.916 74.1762C240.687 74.0328 240.447 73.9258 240.197 73.8346C239.821 73.6978 239.43 73.6389 239.037 73.6342C237.797 73.6141 236.59 74.2076 235.888 75.3267C236.956 73.6244 236.447 71.3716 234.737 70.2983C234.509 70.1548 234.268 70.0479 234.018 69.9567C233.642 69.8198 233.251 69.7609 232.858 69.7562C231.618 69.7362 230.411 70.3296 229.709 71.4488C230.777 69.7464 230.268 67.4937 228.558 66.4203C228.33 66.2769 228.089 66.1699 227.839 66.0787C226.272 65.5126 224.468 66.0941 223.543 67.5679L170.582 151.953C169.533 153.624 169.847 155.908 171.455 157.038C173.177 158.25 175.541 157.757 176.644 155.999C175.576 157.701 176.084 159.954 177.795 161.028C179.505 162.101 181.75 161.587 182.823 159.877C181.755 161.579 182.263 163.832 183.974 164.906C185.684 165.979 187.929 165.465 189.002 163.755C187.934 165.457 188.442 167.71 190.153 168.783C191.863 169.857 194.108 169.343 195.181 167.633C194.113 169.335 194.621 171.588 196.332 172.661C198.042 173.735 200.287 173.221 201.36 171.511C200.292 173.213 200.8 175.466 202.51 176.539C204.221 177.613 206.466 177.099 207.539 175.389C206.47 177.091 206.979 179.344 208.689 180.417C210.4 181.491 212.644 180.977 213.718 179.267C212.615 181.024 213.198 183.368 215.039 184.391C216.764 185.353 218.957 184.642 220.006 182.971L220.06 182.885L261.733 116.485C261.534 116.382 261.335 116.279 261.138 116.155L261.09 116.126ZM174.264 150.199L174.358 150.049C173.656 151.168 173.548 152.584 174.08 153.731C173.547 152.638 173.567 151.31 174.264 150.199ZM175.415 155.228C175.281 155.143 175.162 155.036 175.045 154.941C175.188 155.063 175.344 155.183 175.499 155.269C175.475 155.254 175.451 155.239 175.42 155.22L175.415 155.228ZM203.518 114.597C203.553 114.542 203.572 114.477 203.606 114.422C204.823 112.483 207.567 112.085 209.297 113.808C210.25 114.758 210.593 116.225 210.155 117.5C209.357 119.822 206.695 120.667 204.749 119.446C204.694 119.411 204.648 119.361 204.593 119.326C203.079 118.255 202.615 116.228 203.513 114.605L203.518 114.597ZM188.472 145.362C188.417 145.328 188.372 145.277 188.317 145.243C186.803 144.171 186.339 142.145 187.237 140.522C187.271 140.467 187.29 140.402 187.325 140.347C188.542 138.408 191.285 138.009 193.016 139.733C193.969 140.683 194.311 142.15 193.874 143.424C193.076 145.747 190.414 146.592 188.467 145.37L188.472 145.362ZM221.009 93.5191C220.954 93.4845 220.909 93.4341 220.854 93.3995C219.34 92.3284 218.876 90.3017 219.774 88.6789C219.808 88.6237 219.827 88.5587 219.862 88.5035C221.079 86.5647 223.822 86.1664 225.545 87.8849C226.498 88.8345 226.841 90.3018 226.403 91.5763C225.605 93.8986 222.943 94.7438 220.997 93.522L221.009 93.5191ZM203.39 136.664C203.335 136.63 203.289 136.579 203.234 136.545C201.72 135.473 201.257 133.447 202.154 131.824C202.189 131.769 202.208 131.704 202.242 131.649C203.459 129.71 206.203 129.311 207.926 131.03C208.879 131.98 209.221 133.447 208.784 134.721C207.985 137.044 205.324 137.889 203.377 136.667L203.39 136.664ZM219.658 110.743C219.603 110.708 219.558 110.658 219.503 110.623C217.989 109.552 217.525 107.525 218.423 105.902C218.457 105.847 218.476 105.782 218.511 105.727C219.728 103.788 222.471 103.39 224.194 105.108C225.147 106.058 225.49 107.525 225.052 108.8C224.254 111.122 221.592 111.967 219.646 110.746L219.658 110.743ZM218.322 123.9C218.357 123.844 218.376 123.779 218.41 123.724C219.627 121.785 222.371 121.387 224.101 123.11C225.054 124.06 225.397 125.527 224.959 126.802C224.161 129.124 221.499 129.969 219.553 128.748C219.498 128.713 219.452 128.663 219.397 128.628C217.883 127.557 217.419 125.53 218.317 123.907L218.322 123.9ZM203.276 154.664C203.221 154.63 203.176 154.579 203.121 154.545C201.607 153.474 201.143 151.447 202.041 149.824C202.075 149.769 202.094 149.704 202.129 149.649C203.346 147.71 206.089 147.312 207.82 149.035C208.773 149.985 209.115 151.452 208.678 152.726C207.88 155.049 205.218 155.894 203.271 154.672L203.276 154.664ZM235.813 102.821C235.758 102.787 235.713 102.736 235.658 102.702C234.144 101.631 233.68 99.6038 234.578 97.981C234.612 97.9258 234.631 97.8607 234.666 97.8056C235.883 95.8668 238.626 95.4685 240.349 97.1869C241.302 98.1366 241.645 99.6039 241.207 100.878C240.409 103.201 237.747 104.046 235.801 102.824L235.813 102.821ZM218.194 145.966C218.139 145.932 218.093 145.881 218.038 145.847C216.524 144.776 216.061 142.749 216.958 141.126C216.993 141.071 217.012 141.006 217.046 140.951C218.263 139.012 221.007 138.614 222.73 140.332C223.683 141.282 224.025 142.749 223.588 144.023C222.789 146.346 220.128 147.191 218.181 145.969L218.194 145.966ZM234.462 120.045C234.407 120.01 234.362 119.96 234.307 119.925C232.793 118.854 232.329 116.827 233.227 115.204C233.261 115.149 233.28 115.084 233.315 115.029C234.532 113.09 237.275 112.692 238.998 114.41C239.951 115.36 240.294 116.827 239.856 118.102C239.058 120.424 236.396 121.269 234.45 120.048L234.462 120.045ZM238.897 132.408C239.85 133.357 240.193 134.825 239.756 136.099C238.957 138.421 236.296 139.267 234.349 138.045C234.294 138.01 234.248 137.96 234.193 137.925C232.679 136.854 232.216 134.827 233.113 133.205C233.148 133.149 233.167 133.084 233.201 133.029C234.418 131.09 237.162 130.692 238.893 132.415L238.897 132.408ZM218.08 163.966C218.025 163.932 217.98 163.881 217.925 163.847C216.411 162.776 215.947 160.749 216.845 159.126C216.879 159.071 216.898 159.006 216.933 158.951C218.15 157.012 220.893 156.614 222.624 158.337C223.577 159.287 223.919 160.754 223.482 162.028C222.684 164.351 220.022 165.196 218.075 163.974L218.08 163.966Z" fill="#2E91BC"/>
<path d="M250.685 112.067C251.901 112.632 253.292 112.429 254.251 111.514C253.299 112.4 251.888 112.635 250.685 112.067Z" fill="#2E91BC"/>
<path d="M224.895 87.3436C223.193 86.275 220.94 86.7838 219.866 88.4942C219.832 88.5494 219.813 88.6145 219.778 88.6696C220.765 87.2895 222.61 86.854 224.123 87.8038C225.637 88.7536 226.094 90.755 225.145 92.2683C224.986 92.5206 224.791 92.7274 224.584 92.9164C223.623 93.8182 222.244 94.0188 221.044 93.4631C220.981 93.4236 220.911 93.4126 220.851 93.3858C220.906 93.4205 220.951 93.4709 221.006 93.5055C222.709 94.574 224.962 94.0653 226.035 92.3548C227.109 90.6444 226.595 88.3993 224.893 87.3307L224.895 87.3436Z" fill="#123F52"/>
<path d="M224.608 92.9327C224.807 92.7387 225.003 92.532 225.161 92.2797C226.116 90.7585 225.59 88.7254 224.139 87.8152C222.689 86.9049 220.782 87.3009 219.794 88.681C218.897 90.304 219.36 92.331 220.875 93.4022C220.938 93.4417 221.008 93.4527 221.071 93.4923C222.271 94.0479 223.664 93.8237 224.611 92.9455L224.608 92.9327Z" fill="#1A5771"/>
<path d="M221.057 93.4716C220.995 93.4326 220.926 93.4217 220.863 93.3827C220.926 93.4217 220.995 93.4326 221.054 93.459L221.057 93.4716Z" fill="#1A5771"/>
<path d="M224.131 87.8102C225.59 88.7254 226.103 90.7614 225.153 92.2748C224.995 92.527 224.807 92.7387 224.6 92.9278C224.807 92.7387 225.003 92.532 225.161 92.2797C226.116 90.7585 225.653 88.765 224.139 87.8152C222.626 86.8653 220.782 87.3009 219.794 88.681C220.782 87.3009 222.681 86.9 224.139 87.8152L224.131 87.8102Z" fill="#1A5771"/>
<path d="M208.627 113.266C206.924 112.197 204.671 112.706 203.598 114.416C203.563 114.471 203.544 114.536 203.51 114.592C204.497 113.211 206.341 112.776 207.855 113.726C209.368 114.676 209.826 116.677 208.876 118.19C208.718 118.443 208.527 118.641 208.328 118.835C207.367 119.737 205.996 119.943 204.788 119.382C204.72 119.35 204.655 119.332 204.587 119.3C204.642 119.335 204.687 119.385 204.743 119.42C206.445 120.488 208.698 119.979 209.772 118.269C210.845 116.558 210.331 114.313 208.629 113.245L208.627 113.266Z" fill="#123F52"/>
<path d="M208.34 118.853C208.538 118.659 208.734 118.452 208.887 118.207C209.842 116.686 209.316 114.653 207.866 113.743C206.416 112.833 204.508 113.229 203.521 114.609C202.623 116.232 203.087 118.259 204.601 119.33C204.664 119.369 204.742 119.385 204.81 119.417C206.011 119.973 207.396 119.744 208.351 118.87L208.34 118.853Z" fill="#1A5771"/>
<path d="M204.796 119.398C204.729 119.367 204.665 119.349 204.59 119.312C204.652 119.351 204.721 119.362 204.788 119.394L204.796 119.398Z" fill="#1A5771"/>
<path d="M207.863 113.731C209.321 114.646 209.834 116.682 208.884 118.196C208.726 118.448 208.538 118.66 208.337 118.841C208.543 118.652 208.731 118.44 208.884 118.196C209.839 116.674 209.376 114.681 207.863 113.731C206.35 112.781 204.505 113.217 203.518 114.597C204.505 113.217 206.405 112.816 207.863 113.731Z" fill="#1A5771"/>
<path d="M192.358 139.187C190.656 138.119 188.403 138.628 187.329 140.338C187.295 140.393 187.276 140.458 187.241 140.513C188.228 139.133 190.073 138.698 191.586 139.648C193.099 140.597 193.557 142.599 192.608 144.112C192.449 144.364 192.254 144.571 192.047 144.76C191.086 145.662 189.707 145.863 188.507 145.307C188.444 145.267 188.374 145.256 188.313 145.23C188.369 145.264 188.414 145.315 188.469 145.349C190.172 146.418 192.425 145.909 193.498 144.199C194.572 142.488 194.058 140.243 192.355 139.174L192.358 139.187Z" fill="#123F52"/>
<path d="M192.066 144.782C192.265 144.588 192.461 144.382 192.619 144.129C193.574 142.608 193.048 140.575 191.597 139.665C190.147 138.755 188.24 139.15 187.252 140.531C186.355 142.154 186.819 144.181 188.333 145.252C188.396 145.291 188.466 145.302 188.529 145.342C189.729 145.898 191.122 145.673 192.069 144.795L192.066 144.782Z" fill="#1A5771"/>
<path d="M188.515 145.323C188.453 145.284 188.384 145.273 188.321 145.234C188.384 145.273 188.453 145.284 188.512 145.311L188.515 145.323Z" fill="#1A5771"/>
<path d="M191.589 139.66C193.048 140.575 193.561 142.611 192.611 144.124C192.453 144.377 192.265 144.588 192.058 144.777C192.265 144.588 192.461 144.382 192.619 144.129C193.574 142.608 193.111 140.615 191.597 139.665C190.084 138.715 188.24 139.15 187.252 140.531C188.24 139.15 190.139 138.75 191.597 139.665L191.589 139.66Z" fill="#1A5771"/>
<path d="M223.557 104.564C221.855 103.496 219.602 104.005 218.528 105.715C218.494 105.77 218.475 105.835 218.44 105.89C219.427 104.51 221.272 104.075 222.785 105.025C224.299 105.974 224.754 107.963 223.817 109.473L223.807 109.489C223.653 109.733 223.47 109.937 223.269 110.118C222.305 111.041 220.914 111.244 219.711 110.676C219.648 110.636 219.578 110.625 219.518 110.599C219.573 110.633 219.618 110.684 219.673 110.718C221.376 111.787 223.629 111.278 224.702 109.568C225.776 107.857 225.262 105.612 223.56 104.544L223.557 104.564Z" fill="#123F52"/>
<path d="M223.279 110.137C223.473 109.951 223.656 109.747 223.809 109.502L223.819 109.487C224.756 107.976 224.238 105.948 222.788 105.038C221.337 104.128 219.43 104.524 218.443 105.904C217.545 107.527 218.009 109.554 219.523 110.625C219.586 110.664 219.656 110.675 219.719 110.715C220.928 111.276 222.326 111.043 223.277 110.157L223.279 110.137Z" fill="#1A5771"/>
<path d="M223.28 110.137C223.481 109.956 223.664 109.752 223.817 109.508C223.664 109.752 223.481 109.956 223.287 110.142L223.28 110.137Z" fill="#1A5771"/>
<path d="M222.78 105.034C224.23 105.944 224.748 107.972 223.811 109.483C224.748 107.972 224.293 105.984 222.78 105.034C221.267 104.084 219.422 104.52 218.435 105.9C219.422 104.52 221.322 104.119 222.78 105.034Z" fill="#1A5771"/>
<path d="M219.714 110.7C219.652 110.661 219.583 110.65 219.521 110.611C219.583 110.65 219.652 110.661 219.711 110.687L219.714 110.7Z" fill="#1A5771"/>
<path d="M207.284 130.494C205.581 129.425 203.328 129.934 202.255 131.645C202.22 131.7 202.202 131.765 202.167 131.82C203.154 130.44 204.998 130.004 206.512 130.954C208.025 131.904 208.48 133.893 207.543 135.403C207.543 135.403 207.538 135.411 207.533 135.419C207.385 135.655 207.202 135.859 206.995 136.048C206.032 136.971 204.636 137.182 203.425 136.609C203.369 136.574 203.299 136.563 203.236 136.523C203.291 136.558 203.337 136.608 203.392 136.643C205.094 137.712 207.347 137.203 208.421 135.492C209.494 133.782 208.981 131.537 207.278 130.468L207.284 130.494Z" fill="#123F52"/>
<path d="M207.011 136.059C207.205 135.872 207.387 135.669 207.541 135.424C207.541 135.424 207.546 135.416 207.551 135.408C208.493 133.89 207.97 131.87 206.519 130.96C205.069 130.049 203.161 130.445 202.174 131.826C201.277 133.449 201.74 135.476 203.255 136.547C203.318 136.586 203.383 136.605 203.443 136.632C204.651 137.192 206.062 136.957 207.014 136.071L207.011 136.059Z" fill="#1A5771"/>
<path d="M203.438 136.617C203.376 136.578 203.306 136.567 203.252 136.533C203.314 136.572 203.383 136.583 203.438 136.617Z" fill="#1A5771"/>
<path d="M206.511 130.954C207.962 131.864 208.48 133.892 207.543 135.403C208.485 133.884 208.025 131.904 206.511 130.954C204.998 130.004 203.154 130.44 202.167 131.82C203.154 130.44 205.053 130.039 206.511 130.954Z" fill="#1A5771"/>
<path d="M207.011 136.057C207.205 135.871 207.395 135.672 207.549 135.428C207.395 135.672 207.213 135.876 207.019 136.062L207.011 136.057Z" fill="#1A5771"/>
<path d="M238.366 113.859C236.663 112.791 234.41 113.3 233.337 115.01C233.302 115.065 233.283 115.13 233.249 115.185C234.236 113.805 236.08 113.37 237.594 114.32C239.107 115.269 239.562 117.258 238.625 118.768L238.615 118.784C238.462 119.028 238.274 119.24 238.072 119.421C237.114 120.336 235.723 120.539 234.519 119.971C234.464 119.936 234.386 119.92 234.331 119.886C234.386 119.92 234.432 119.971 234.487 120.005C236.189 121.074 238.442 120.565 239.516 118.855C240.589 117.144 240.076 114.899 238.373 113.831L238.366 113.859Z" fill="#123F52"/>
<path d="M238.084 119.439C238.278 119.253 238.466 119.042 238.619 118.797L238.629 118.782C239.566 117.271 239.048 115.243 237.597 114.333C236.147 113.423 234.24 113.818 233.252 115.199C232.355 116.822 232.818 118.849 234.333 119.92C234.396 119.959 234.461 119.978 234.529 120.01C235.737 120.57 237.135 120.338 238.082 119.46L238.084 119.439Z" fill="#1A5771"/>
<path d="M238.083 119.438C238.29 119.249 238.473 119.045 238.626 118.801C238.473 119.045 238.285 119.257 238.091 119.443L238.083 119.438Z" fill="#1A5771"/>
<path d="M237.597 114.333C239.048 115.243 239.566 117.271 238.629 118.782C239.566 117.271 239.111 115.283 237.597 114.333C236.084 113.383 234.24 113.818 233.252 115.199C234.24 113.818 236.139 113.418 237.597 114.333Z" fill="#1A5771"/>
<path d="M234.523 119.993C234.46 119.954 234.391 119.943 234.329 119.904C234.391 119.943 234.46 119.954 234.515 119.988L234.523 119.993Z" fill="#1A5771"/>
<path d="M222.093 139.789C220.39 138.72 218.137 139.229 217.064 140.94C217.029 140.995 217.01 141.06 216.975 141.115C217.963 139.735 219.807 139.299 221.32 140.249C222.834 141.199 223.289 143.188 222.352 144.698C222.352 144.698 222.347 144.706 222.342 144.714C222.189 144.958 222.006 145.162 221.799 145.351C220.836 146.273 219.449 146.469 218.233 145.904C218.178 145.869 218.108 145.858 218.045 145.818C218.1 145.853 218.145 145.903 218.2 145.938C219.903 147.007 222.156 146.498 223.23 144.787C224.303 143.077 223.789 140.832 222.087 139.763L222.093 139.789Z" fill="#123F52"/>
<path d="M221.815 145.361C222.009 145.175 222.197 144.964 222.35 144.719C222.35 144.719 222.355 144.711 222.36 144.703C223.302 143.185 222.779 141.165 221.329 140.255C219.878 139.344 217.971 139.74 216.984 141.12C216.086 142.743 216.55 144.77 218.064 145.842C218.127 145.881 218.192 145.9 218.252 145.927C219.461 146.487 220.867 146.26 221.818 145.374L221.815 145.361Z" fill="#1A5771"/>
<path d="M221.329 140.255C222.779 141.165 223.297 143.193 222.36 144.703C223.302 143.185 222.842 141.204 221.329 140.255C219.815 139.305 217.971 139.74 216.984 141.12C217.971 139.74 219.871 139.339 221.329 140.255Z" fill="#1A5771"/>
<path d="M221.815 145.36C222.016 145.179 222.204 144.967 222.357 144.723C222.204 144.967 222.016 145.179 221.822 145.365L221.815 145.36Z" fill="#1A5771"/>
<path d="M218.255 145.916C218.201 145.882 218.124 145.866 218.069 145.832C218.124 145.866 218.193 145.877 218.255 145.916Z" fill="#1A5771"/>
<path d="M239.712 96.6444C238.009 95.5758 235.756 96.0845 234.683 97.795C234.648 97.8502 234.629 97.9152 234.595 97.9704C235.582 96.5903 237.426 96.1547 238.94 97.1046C240.453 98.0544 240.911 100.056 239.961 101.569C239.803 101.821 239.607 102.028 239.401 102.217C238.439 103.119 237.061 103.32 235.86 102.764C235.797 102.724 235.727 102.713 235.667 102.687C235.722 102.721 235.767 102.772 235.823 102.806C237.525 103.875 239.778 103.366 240.852 101.656C241.925 99.9452 241.411 97.7001 239.709 96.6315L239.712 96.6444Z" fill="#123F52"/>
<path d="M239.417 102.226C239.615 102.032 239.811 101.825 239.969 101.573C240.924 100.051 240.398 98.0184 238.948 97.1081C237.498 96.1979 235.59 96.5938 234.603 97.974C233.705 99.597 234.169 101.624 235.683 102.695C235.746 102.735 235.816 102.746 235.879 102.785C237.08 103.341 238.473 103.117 239.42 102.238L239.417 102.226Z" fill="#1A5771"/>
<path d="M235.874 102.77C235.812 102.731 235.743 102.721 235.681 102.682C235.743 102.721 235.812 102.731 235.871 102.758L235.874 102.77Z" fill="#1A5771"/>
<path d="M238.948 97.109C240.406 98.0242 240.919 100.06 239.969 101.574C239.811 101.826 239.623 102.038 239.417 102.227C239.623 102.038 239.819 101.831 239.977 101.579C240.932 100.057 240.469 98.0638 238.956 97.114C237.442 96.1642 235.598 96.5997 234.611 97.9798C235.598 96.5997 237.498 96.1988 238.956 97.114L238.948 97.109Z" fill="#1A5771"/>
<path d="M223.443 122.564C221.741 121.496 219.488 122.005 218.414 123.715C218.38 123.77 218.361 123.835 218.326 123.89C219.313 122.51 221.158 122.075 222.671 123.025C224.184 123.974 224.642 125.976 223.692 127.489C223.534 127.741 223.343 127.94 223.145 128.134C222.183 129.036 220.813 129.242 219.604 128.681C219.536 128.649 219.471 128.63 219.403 128.599C219.458 128.633 219.504 128.684 219.559 128.718C221.262 129.787 223.515 129.278 224.588 127.568C225.661 125.857 225.148 123.612 223.445 122.544L223.443 122.564Z" fill="#123F52"/>
<path d="M223.148 128.147C223.347 127.954 223.543 127.747 223.696 127.502C224.651 125.981 224.125 123.948 222.675 123.038C221.224 122.128 219.317 122.524 218.33 123.904C217.432 125.527 217.896 127.554 219.41 128.625C219.473 128.664 219.551 128.68 219.619 128.712C220.819 129.268 222.205 129.038 223.159 128.165L223.148 128.147Z" fill="#1A5771"/>
<path d="M219.613 128.697C219.546 128.666 219.482 128.647 219.407 128.611C219.469 128.65 219.539 128.661 219.606 128.692L219.613 128.697Z" fill="#1A5771"/>
<path d="M222.679 123.03C224.138 123.945 224.651 125.981 223.701 127.495C223.543 127.747 223.355 127.959 223.153 128.14C223.36 127.951 223.548 127.739 223.701 127.495C224.656 125.973 224.193 123.98 222.679 123.03C221.166 122.08 219.322 122.516 218.334 123.896C219.322 122.516 221.221 122.115 222.679 123.03Z" fill="#1A5771"/>
<path d="M207.175 148.486C205.472 147.418 203.219 147.926 202.146 149.637C202.111 149.692 202.092 149.757 202.058 149.812C203.045 148.432 204.889 147.997 206.402 148.946C207.916 149.896 208.374 151.898 207.424 153.411C207.266 153.663 207.07 153.87 206.863 154.059C205.902 154.961 204.524 155.161 203.323 154.606C203.26 154.566 203.19 154.555 203.13 154.528C203.185 154.563 203.23 154.613 203.286 154.648C204.988 155.717 207.241 155.208 208.315 153.497C209.388 151.787 208.874 149.542 207.172 148.473L207.175 148.486Z" fill="#123F52"/>
<path d="M206.875 154.077C207.073 153.883 207.269 153.676 207.427 153.424C208.382 151.903 207.856 149.87 206.406 148.96C204.956 148.049 203.048 148.445 202.061 149.826C201.163 151.449 201.627 153.476 203.141 154.547C203.204 154.586 203.274 154.597 203.337 154.637C204.538 155.192 205.931 154.968 206.878 154.09L206.875 154.077Z" fill="#1A5771"/>
<path d="M203.332 154.622C203.27 154.583 203.201 154.572 203.139 154.533C203.201 154.572 203.27 154.583 203.329 154.609L203.332 154.622Z" fill="#1A5771"/>
<path d="M206.406 148.959C207.864 149.874 208.377 151.91 207.427 153.423C207.269 153.675 207.081 153.887 206.875 154.076C207.081 153.887 207.277 153.68 207.435 153.428C208.39 151.907 207.927 149.913 206.414 148.964C204.9 148.014 203.056 148.449 202.069 149.829C203.056 148.449 204.956 148.048 206.414 148.964L206.406 148.959Z" fill="#1A5771"/>
<path d="M249.5 107.094C249.466 107.149 249.447 107.214 249.412 107.269C250.399 105.889 252.244 105.453 253.757 106.403C255.27 107.353 255.733 109.347 254.784 110.86C254.784 110.86 254.784 110.86 254.779 110.868C254.625 111.112 254.442 111.316 254.241 111.497C253.277 112.42 251.886 112.623 250.675 112.05C250.62 112.015 250.55 112.004 250.486 111.965C250.542 111.999 250.587 112.05 250.642 112.084C252.345 113.153 254.598 112.644 255.671 110.934C256.552 109.531 256.346 107.775 255.306 106.596C254.235 106.395 253.181 106.009 252.203 105.395C251.13 105.513 250.126 106.08 249.507 107.065L249.5 107.094Z" fill="#123F52"/>
<path d="M254.243 111.51C254.437 111.324 254.62 111.12 254.773 110.875C254.773 110.875 254.773 110.875 254.778 110.868C255.728 109.354 255.202 107.321 253.752 106.411C252.301 105.501 250.394 105.897 249.407 107.277C248.509 108.9 248.973 110.927 250.487 111.998C250.55 112.037 250.615 112.056 250.675 112.083C251.884 112.644 253.29 112.416 254.241 111.53L254.243 111.51Z" fill="#1A5771"/>
<path d="M250.683 112.064C250.621 112.025 250.552 112.015 250.497 111.98C250.559 112.019 250.628 112.03 250.683 112.064Z" fill="#1A5771"/>
<path d="M253.757 106.403C255.207 107.313 255.733 109.346 254.783 110.86C255.733 109.346 255.27 107.353 253.757 106.403C252.243 105.453 250.399 105.889 249.412 107.269C250.399 105.889 252.298 105.488 253.757 106.403Z" fill="#1A5771"/>
<path d="M254.243 111.508C254.445 111.327 254.633 111.115 254.781 110.879C254.628 111.123 254.445 111.327 254.251 111.513L254.243 111.508Z" fill="#1A5771"/>
<path d="M238.253 131.859C236.55 130.791 234.297 131.299 233.224 133.01C233.189 133.065 233.17 133.13 233.136 133.185C234.123 131.805 235.967 131.37 237.481 132.319C238.994 133.269 239.457 135.263 238.507 136.776C238.507 136.776 238.507 136.776 238.502 136.784C238.349 137.028 238.166 137.232 237.964 137.413C237.001 138.336 235.61 138.539 234.401 137.979C234.338 137.939 234.268 137.928 234.2 137.897C234.255 137.931 234.301 137.982 234.356 138.016C236.058 139.085 238.311 138.576 239.385 136.866C240.458 135.155 239.945 132.91 238.242 131.841L238.253 131.859Z" fill="#123F52"/>
<path d="M237.982 137.435C238.176 137.249 238.359 137.046 238.512 136.801C238.512 136.801 238.512 136.801 238.517 136.793C239.467 135.28 238.941 133.247 237.491 132.337C236.041 131.426 234.133 131.822 233.146 133.202C232.248 134.825 232.712 136.852 234.226 137.924C234.289 137.963 234.359 137.974 234.427 138.006C235.636 138.566 237.039 138.326 237.99 137.44L237.982 137.435Z" fill="#1A5771"/>
<path d="M234.422 137.991C234.36 137.952 234.291 137.941 234.224 137.91C234.286 137.949 234.355 137.96 234.422 137.991Z" fill="#1A5771"/>
<path d="M237.488 132.325C238.938 133.235 239.464 135.268 238.514 136.782C239.464 135.268 239.001 133.275 237.488 132.325C235.975 131.375 234.13 131.811 233.143 133.191C234.13 131.811 236.03 131.41 237.488 132.325Z" fill="#1A5771"/>
<path d="M237.983 137.436C238.176 137.25 238.367 137.051 238.52 136.806C238.367 137.051 238.184 137.255 237.991 137.441L237.983 137.436Z" fill="#1A5771"/>
<path d="M221.984 157.781C220.282 156.713 218.029 157.221 216.955 158.932C216.921 158.987 216.902 159.052 216.867 159.107C217.854 157.727 219.699 157.292 221.212 158.241C222.725 159.191 223.188 161.185 222.238 162.698C222.238 162.698 222.238 162.698 222.233 162.706C222.08 162.95 221.897 163.154 221.696 163.335C220.732 164.258 219.341 164.461 218.13 163.888C218.074 163.853 218.004 163.842 217.941 163.803C217.997 163.837 218.042 163.888 218.097 163.922C219.8 164.991 222.053 164.482 223.126 162.772C224.2 161.061 223.686 158.816 221.983 157.748L221.984 157.781Z" fill="#123F52"/>
<path d="M221.706 163.353C221.9 163.167 222.083 162.964 222.236 162.719C222.236 162.719 222.236 162.719 222.241 162.711C223.191 161.198 222.665 159.165 221.215 158.255C219.764 157.344 217.857 157.74 216.87 159.12C215.972 160.743 216.436 162.77 217.95 163.842C218.013 163.881 218.078 163.9 218.138 163.927C219.346 164.487 220.753 164.26 221.704 163.374L221.706 163.353Z" fill="#1A5771"/>
<path d="M221.215 158.255C222.665 159.165 223.191 161.198 222.241 162.711C223.191 161.198 222.728 159.204 221.215 158.255C219.701 157.305 217.857 157.74 216.87 159.12C217.857 157.74 219.756 157.339 221.215 158.255Z" fill="#1A5771"/>
<path d="M218.141 163.916C218.079 163.877 218.01 163.866 217.955 163.832C218.017 163.871 218.086 163.882 218.141 163.916Z" fill="#1A5771"/>
<path d="M221.706 163.352C221.908 163.171 222.096 162.959 222.244 162.723C222.091 162.967 221.908 163.171 221.714 163.357L221.706 163.352Z" fill="#1A5771"/>
</g>
<path d="M182.438 242.053V222.256H190.203C194.701 222.256 197.285 225.031 197.285 228.928C197.285 232.879 194.66 235.6 190.094 235.6H186.539V242.053H182.438ZM186.539 232.291H189.438C191.871 232.291 193.061 230.924 193.047 228.928C193.061 226.959 191.871 225.633 189.438 225.619H186.539V232.291ZM201.25 242.299C199.965 242.299 198.926 241.273 198.953 240.002C198.926 238.744 199.965 237.719 201.25 237.732C202.467 237.719 203.52 238.744 203.52 240.002C203.52 241.273 202.467 242.299 201.25 242.299ZM206.855 242.053V222.256H214.621C219.119 222.256 221.703 225.031 221.703 228.928C221.703 232.879 219.078 235.6 214.512 235.6H210.957V242.053H206.855ZM210.957 232.291H213.855C216.289 232.291 217.479 230.924 217.465 228.928C217.479 226.959 216.289 225.633 213.855 225.619H210.957V232.291ZM228.266 222.256V242.053H224.219V222.256H228.266ZM238.137 242.354C233.584 242.34 230.795 239.4 230.809 234.697C230.795 230.117 233.625 227.014 237.973 227.014C241.869 227.014 244.945 229.475 244.945 234.533V235.682H234.801C234.801 237.924 236.127 239.305 238.219 239.318C239.6 239.305 240.584 238.703 240.98 237.814H244.836C244.262 240.562 241.801 242.34 238.137 242.354ZM234.801 233.139H241.117C241.104 231.334 239.859 230.035 238.055 230.049C236.195 230.035 234.883 231.43 234.801 233.139Z" fill="black"/>
</g>
<defs>
<filter id="filter0_d_502_14484" x="152.264" y="23.416" width="100.163" height="124.623" filterUnits="userSpaceOnUse" color-interpolation-filters="sRGB">
<feFlood flood-opacity="0" result="BackgroundImageFix"/>
<feColorMatrix in="SourceAlpha" type="matrix" values="0 0 0 0 0 0 0 0 0 0 0 0 0 0 0 0 0 0 127 0" result="hardAlpha"/>
<feOffset dx="4" dy="5"/>
<feComposite in2="hardAlpha" operator="out"/>
<feColorMatrix type="matrix" values="0 0 0 0 0 0 0 0 0 0 0 0 0 0 0 0 0 0 0.25 0"/>
<feBlend mode="normal" in2="BackgroundImageFix" result="effect1_dropShadow_502_14484"/>
<feBlend mode="normal" in="SourceGraphic" in2="effect1_dropShadow_502_14484" result="shape"/>
</filter>
<clipPath id="clip0_502_14484">
<rect width="60.4818" height="108.579" fill="white" transform="translate(226.253 63.248) rotate(32.1127)"/>
</clipPath>
</defs>
</svg>
