<svg width="259" height="253" viewBox="0 0 259 253" fill="none" xmlns="http://www.w3.org/2000/svg">
<rect x="0.769531" y="0.310547" width="258" height="252" fill="#A0B5FF"/>
<mask id="mask0_502_14505" style="mask-type:alpha" maskUnits="userSpaceOnUse" x="0" y="0" width="259" height="253">
<rect x="0.769531" y="0.310547" width="258" height="252" fill="#D6895E"/>
</mask>
<g mask="url(#mask0_502_14505)">
<circle cx="190.636" cy="134.13" r="91.6244" transform="rotate(2.56318 190.636 134.13)" fill="#271A13"/>
<circle cx="197.535" cy="123.434" r="80.6295" transform="rotate(2.56318 197.535 123.434)" fill="#6B4630"/>
<path fill-rule="evenodd" clip-rule="evenodd" d="M225.457 198.345C254.966 187.584 276.613 159.917 278.105 126.58C280.085 82.3471 245.832 44.8839 201.599 42.9037C157.366 40.9236 119.903 75.1764 117.923 119.41C117.874 120.491 117.848 121.568 117.842 122.64C117.752 123.693 117.683 124.752 117.636 125.818C115.746 168.029 148.023 203.761 189.729 205.628C202.493 206.199 214.661 203.532 225.457 198.345ZM194.429 203.086C205.325 203.574 215.811 201.863 225.457 198.345C249.934 186.585 267.353 161.87 268.665 132.579C270.554 90.3676 238.277 54.6353 196.572 52.7683C155.919 50.9485 121.313 81.9779 117.842 122.64C117.623 165.453 151.277 201.154 194.429 203.086Z" fill="#3F2415"/>
<path fill-rule="evenodd" clip-rule="evenodd" d="M194.058 211.323C242.84 213.507 284.157 175.731 286.341 126.948C288.525 78.1655 250.749 36.8489 201.966 34.6651C153.183 32.4813 111.866 70.2572 109.683 119.04C107.499 167.823 145.275 209.139 194.058 211.323ZM194.426 203.088C238.66 205.069 276.123 170.816 278.103 126.583C280.083 82.3495 245.83 44.8862 201.597 42.9061C157.364 40.926 119.901 75.1788 117.921 119.412C115.94 163.645 150.193 201.108 194.426 203.088Z" fill="#A5795F"/>
<g filter="url(#filter0_d_502_14505)">
<path fill-rule="evenodd" clip-rule="evenodd" d="M198.639 29.0695C196.818 28.2868 194.708 29.128 193.926 30.9483L155.945 119.279C155.162 121.1 156.003 123.21 157.824 123.992C159.644 124.775 161.754 123.934 162.537 122.114L200.517 33.7827C201.3 31.9624 200.459 29.8522 198.639 29.0695ZM205.23 31.9081C203.41 31.1254 201.3 31.9665 200.517 33.7868L162.536 122.118C161.754 123.938 162.595 126.048 164.415 126.831C166.217 127.606 168.303 126.789 169.104 125.006C168.362 126.814 169.205 128.889 171.006 129.664C172.809 130.439 174.895 129.622 175.696 127.84C174.953 129.647 175.796 131.722 177.598 132.497C179.418 133.28 181.528 132.439 182.311 130.619L220.291 42.2874C221.074 40.4671 220.233 38.357 218.413 37.5743C216.611 36.7994 214.524 37.6161 213.723 39.3988C214.466 37.5913 213.623 35.5159 211.821 34.7412C210.019 33.9663 207.933 34.783 207.132 36.5657C207.874 34.7582 207.032 32.6828 205.23 31.9081ZM220.292 42.2862C221.075 40.4659 223.185 39.6248 225.005 40.4075C226.826 41.1901 227.667 43.3003 226.884 45.1206L188.904 133.452C188.121 135.272 186.011 136.113 184.19 135.33C182.37 134.548 181.529 132.438 182.312 130.617L220.292 42.2862ZM231.597 43.2433C229.776 42.4606 227.666 43.3017 226.884 45.122L188.903 133.453C188.12 135.273 188.961 137.384 190.782 138.166C192.602 138.949 194.712 138.108 195.495 136.287L233.476 47.9564C234.258 46.1361 233.417 44.026 231.597 43.2433ZM233.476 47.9552C234.259 46.1349 236.369 45.2937 238.189 46.0764C240.01 46.8591 240.851 48.9692 240.068 50.7895L202.088 139.121C201.305 140.941 199.195 141.782 197.374 140.999C195.554 140.217 194.713 138.107 195.496 136.286L233.476 47.9552ZM244.781 48.9122C242.961 48.1295 240.85 48.9707 240.068 50.791L202.087 139.122C201.304 140.942 202.145 143.052 203.966 143.835C205.786 144.618 207.896 143.777 208.679 141.956L246.66 53.6254C247.442 51.8051 246.601 49.6949 244.781 48.9122Z" fill="#804025"/>
<path fill-rule="evenodd" clip-rule="evenodd" d="M196.096 29.5383C194.275 28.7556 192.165 29.5967 191.383 31.417L152.552 121.726C151.769 123.546 152.61 125.656 154.43 126.439C156.251 127.221 158.361 126.38 159.144 124.56L197.974 34.2514C198.757 32.4311 197.916 30.321 196.096 29.5383ZM202.687 32.3768C200.867 31.5941 198.757 32.4353 197.974 34.2555L159.143 124.564C158.36 126.384 159.201 128.495 161.022 129.277C162.824 130.052 164.91 129.235 165.711 127.453C164.969 129.26 165.811 131.336 167.613 132.11C169.415 132.885 171.501 132.069 172.302 130.286C171.56 132.093 172.403 134.169 174.204 134.944C176.025 135.726 178.135 134.885 178.918 133.065L217.749 42.7562C218.531 40.9359 217.69 38.8258 215.87 38.0431C214.068 37.2682 211.981 38.0849 211.181 39.8676C211.923 38.0601 211.08 35.9847 209.278 35.2099C207.476 34.4351 205.39 35.2517 204.589 37.0344C205.331 35.2269 204.489 33.1516 202.687 32.3768ZM217.749 42.7549C218.532 40.9347 220.642 40.0935 222.462 40.8762C224.283 41.6589 225.124 43.769 224.341 45.5893L185.51 135.898C184.728 137.718 182.617 138.559 180.797 137.777C178.977 136.994 178.136 134.884 178.918 133.064L217.749 42.7549ZM229.054 43.712C227.234 42.9293 225.123 43.7705 224.341 45.5908L185.51 135.899C184.727 137.72 185.568 139.83 187.388 140.613C189.209 141.395 191.319 140.554 192.102 138.734L230.933 48.4251C231.715 46.6049 230.874 44.4947 229.054 43.712ZM230.933 48.4239C231.716 46.6036 233.826 45.7625 235.647 46.5452C237.467 47.3279 238.308 49.438 237.525 51.2583L198.694 141.567C197.912 143.387 195.801 144.228 193.981 143.446C192.161 142.663 191.32 140.553 192.102 138.733L230.933 48.4239ZM242.238 49.381C240.418 48.5983 238.307 49.4394 237.525 51.2597L198.694 141.568C197.911 143.389 198.752 145.499 200.573 146.281C202.393 147.064 204.503 146.223 205.286 144.403L244.117 54.0941C244.899 52.2738 244.058 50.1637 242.238 49.381Z" fill="#BE6944"/>
<path d="M195.692 50.4507C193.872 49.6682 191.76 50.5101 190.978 52.3298C190.953 52.3891 190.94 52.4541 190.921 52.5163C191.671 51.0264 193.462 50.3509 195.018 51.02C196.574 51.689 197.387 53.5936 196.69 55.2155C195.993 56.8374 194.257 57.5129 192.681 56.9446C192.74 56.9702 192.791 57.0155 192.851 57.041C194.67 57.8234 196.782 56.9816 197.565 55.1619C198.347 53.3422 197.512 51.2331 195.692 50.4507Z" fill="#804025"/>
<path d="M196.69 55.2156C197.387 53.5938 196.639 51.7178 195.017 51.0205C193.396 50.3232 191.671 51.0269 190.921 52.5166C190.294 54.2308 191.053 56.1351 192.688 56.9474C194.263 57.5156 196.027 56.7742 196.696 55.2184L196.69 55.2156Z" fill="#8E482A"/>
<path d="M183.787 78.1382C181.967 77.3557 179.855 78.1976 179.073 80.0173C179.047 80.0766 179.035 80.1416 179.016 80.2038C179.766 78.7139 181.556 78.0384 183.112 78.7075C184.668 79.3765 185.482 81.2811 184.785 82.903C184.087 84.5249 182.352 85.2004 180.776 84.6321C180.835 84.6577 180.886 84.703 180.945 84.7285C182.765 85.5109 184.877 84.6691 185.659 82.8494C186.442 81.0297 185.607 78.9206 183.787 78.1382Z" fill="#804025"/>
<path d="M184.784 82.9031C185.482 81.2813 184.734 79.4053 183.112 78.708C181.49 78.0107 179.766 78.7144 179.016 80.2041C178.388 81.9183 179.148 83.8226 180.782 84.6349C182.358 85.2031 184.122 84.4617 184.791 82.9059L184.784 82.9031Z" fill="#8E482A"/>
<path d="M171.883 105.826C170.064 105.043 167.952 105.885 167.169 107.705C167.144 107.764 167.132 107.829 167.113 107.891C167.863 106.401 169.653 105.726 171.209 106.395C172.765 107.064 173.579 108.969 172.881 110.59C172.184 112.212 170.448 112.888 168.872 112.32C168.932 112.345 168.983 112.39 169.042 112.416C170.862 113.198 172.974 112.357 173.756 110.537C174.538 108.717 173.703 106.608 171.883 105.826Z" fill="#804025"/>
<path d="M172.881 110.591C173.578 108.969 172.831 107.093 171.209 106.395C169.587 105.698 167.863 106.402 167.113 107.892C166.485 109.606 167.244 111.51 168.879 112.322C170.455 112.891 172.219 112.149 172.888 110.593L172.881 110.591Z" fill="#8E482A"/>
<path d="M196.993 67.4116C195.173 66.6292 193.061 67.471 192.279 69.2907C192.253 69.35 192.241 69.4151 192.222 69.4772C192.972 67.9873 194.762 67.3119 196.318 67.9809C197.874 68.65 198.688 70.5545 197.991 72.1764C197.293 73.7983 195.558 74.4738 193.982 73.9056C194.041 73.9311 194.092 73.9764 194.151 74.0019C195.971 74.7843 198.083 73.9425 198.865 72.1228C199.648 70.3031 198.813 68.194 196.993 67.4116Z" fill="#804025"/>
<path d="M197.99 72.1765C198.688 70.5547 197.94 68.6788 196.318 67.9814C194.696 67.2841 192.972 67.9878 192.222 69.4776C191.595 71.1918 192.354 73.096 193.988 73.9083C195.564 74.4765 197.328 73.7352 197.997 72.1793L197.99 72.1765Z" fill="#8E482A"/>
<path d="M185.088 95.103C183.268 94.3206 181.156 95.1624 180.374 96.9821C180.348 97.0415 180.336 97.1065 180.317 97.1686C181.067 95.6787 182.857 95.0033 184.413 95.6723C185.969 96.3414 186.783 98.2459 186.086 99.8678C185.388 101.49 183.652 102.165 182.077 101.597C182.136 101.623 182.187 101.668 182.246 101.693C184.066 102.476 186.178 101.634 186.96 99.8142C187.743 97.9945 186.907 95.8854 185.088 95.103Z" fill="#804025"/>
<path d="M186.085 99.8679C186.782 98.2462 186.035 96.3702 184.413 95.6728C182.791 94.9755 181.067 95.6792 180.317 97.169C179.689 98.8832 180.448 100.787 182.083 101.6C183.659 102.168 185.423 101.427 186.092 99.8707L186.085 99.8679Z" fill="#8E482A"/>
<path d="M212.813 74.2143C210.993 73.4319 208.882 74.2737 208.099 76.0934C208.074 76.1528 208.061 76.2178 208.042 76.28C208.792 74.79 210.583 74.1146 212.139 74.7837C213.695 75.4527 214.509 77.3572 213.811 78.9791C213.114 80.6011 211.378 81.2765 209.802 80.7083C209.861 80.7338 209.912 80.7791 209.972 80.8046C211.791 81.5871 213.903 80.7452 214.686 78.9255C215.468 77.1058 214.633 74.9968 212.813 74.2143Z" fill="#804025"/>
<path d="M213.811 78.9792C214.508 77.3575 213.76 75.4815 212.138 74.7842C210.517 74.0868 208.792 74.7905 208.043 76.2803C207.415 77.9945 208.174 79.8988 209.809 80.7111C211.384 81.2792 213.148 80.5379 213.817 78.9821L213.811 78.9792Z" fill="#8E482A"/>
<path d="M200.909 101.902C199.089 101.119 196.977 101.961 196.195 103.781C196.169 103.84 196.157 103.905 196.138 103.967C196.888 102.478 198.678 101.802 200.234 102.471C201.79 103.14 202.604 105.045 201.907 106.667C201.209 108.289 199.474 108.964 197.898 108.396C197.957 108.421 198.008 108.467 198.067 108.492C199.887 109.275 201.999 108.433 202.781 106.613C203.564 104.793 202.729 102.684 200.909 101.902Z" fill="#804025"/>
<path d="M201.906 106.667C202.604 105.045 201.856 103.169 200.234 102.472C198.612 101.774 196.888 102.478 196.138 103.968C195.511 105.682 196.27 107.586 197.904 108.399C199.48 108.967 201.244 108.225 201.913 106.67L201.906 106.667Z" fill="#8E482A"/>
<path d="M211.512 57.2534C209.693 56.471 207.581 57.3128 206.798 59.1325C206.773 59.1918 206.761 59.2569 206.742 59.319C207.492 57.8291 209.282 57.1537 210.838 57.8227C212.394 58.4918 213.208 60.3963 212.51 62.0182C211.813 63.6401 210.077 64.3156 208.501 63.7474C208.561 63.7729 208.612 63.8182 208.671 63.8437C210.491 64.6261 212.602 63.7843 213.385 61.9646C214.167 60.1449 213.332 58.0358 211.512 57.2534Z" fill="#804025"/>
<path d="M212.51 62.0183C213.207 60.3965 212.459 58.5205 210.838 57.8232C209.216 57.1259 207.492 57.8296 206.742 59.3194C206.114 61.0336 206.873 62.9378 208.508 63.7501C210.084 64.3183 211.848 63.577 212.517 62.0211L212.51 62.0183Z" fill="#8E482A"/>
<path d="M199.61 84.9409C197.79 84.1585 195.678 85.0003 194.896 86.82C194.871 86.8793 194.858 86.9444 194.839 87.0065C195.589 85.5166 197.38 84.8412 198.936 85.5102C200.492 86.1793 201.305 88.0838 200.608 89.7057C199.911 91.3276 198.175 92.0031 196.599 91.4349C196.658 91.4604 196.709 91.5057 196.769 91.5312C198.588 92.3136 200.7 91.4718 201.483 89.6521C202.265 87.8324 201.43 85.7233 199.61 84.9409Z" fill="#804025"/>
<path d="M200.608 89.7058C201.305 88.084 200.557 86.208 198.935 85.5107C197.314 84.8134 195.589 85.5171 194.839 87.0069C194.212 88.7211 194.971 90.6253 196.606 91.4376C198.181 92.0058 199.945 91.2645 200.614 89.7086L200.608 89.7058Z" fill="#8E482A"/>
<path d="M187.706 112.628C185.886 111.846 183.774 112.688 182.992 114.508C182.966 114.567 182.954 114.632 182.935 114.694C183.685 113.204 185.475 112.529 187.031 113.198C188.587 113.867 189.401 115.771 188.704 117.393C188.006 119.015 186.271 119.691 184.695 119.122C184.754 119.148 184.805 119.193 184.864 119.219C186.684 120.001 188.796 119.159 189.578 117.34C190.361 115.52 189.525 113.411 187.706 112.628Z" fill="#804025"/>
<path d="M188.703 117.393C189.401 115.772 188.653 113.896 187.031 113.198C185.409 112.501 183.685 113.205 182.935 114.694C182.307 116.409 183.067 118.313 184.701 119.125C186.277 119.693 188.041 118.952 188.71 117.396L188.703 117.393Z" fill="#8E482A"/>
<path d="M227.333 64.06C225.513 63.2776 223.401 64.1194 222.619 65.9391C222.593 65.9985 222.581 66.0635 222.562 66.1257C223.312 64.6357 225.102 63.9603 226.658 64.6294C228.214 65.2984 229.028 67.2029 228.331 68.8248C227.633 70.4468 225.898 71.1223 224.322 70.554C224.381 70.5795 224.432 70.6248 224.491 70.6503C226.311 71.4328 228.423 70.5909 229.205 68.7712C229.988 66.9515 229.152 64.8425 227.333 64.06Z" fill="#804025"/>
<path d="M228.33 68.8249C229.028 67.2032 228.28 65.3272 226.658 64.6299C225.036 63.9325 223.312 64.6362 222.562 66.126C221.934 67.8402 222.693 69.7445 224.328 70.5568C225.904 71.125 227.668 70.3836 228.337 68.8278L228.33 68.8249Z" fill="#8E482A"/>
<path d="M215.428 91.7475C213.609 90.9651 211.497 91.8069 210.714 93.6266C210.689 93.686 210.677 93.751 210.658 93.8132C211.408 92.3232 213.198 91.6478 214.754 92.3169C216.31 92.9859 217.124 94.8904 216.426 96.5123C215.729 98.1343 213.993 98.8098 212.417 98.2415C212.477 98.267 212.528 98.3123 212.587 98.3378C214.407 99.1203 216.518 98.2784 217.301 96.4587C218.083 94.639 217.248 92.53 215.428 91.7475Z" fill="#804025"/>
<path d="M216.426 96.5124C217.123 94.8907 216.375 93.0147 214.754 92.3174C213.132 91.62 211.408 92.3237 210.658 93.8135C210.03 95.5277 210.789 97.432 212.424 98.2443C214 98.8125 215.764 98.0711 216.433 96.5153L216.426 96.5124Z" fill="#8E482A"/>
<path d="M203.525 119.431C201.705 118.649 199.593 119.491 198.811 121.31C198.786 121.37 198.773 121.435 198.754 121.497C199.504 120.007 201.295 119.331 202.851 120C204.407 120.669 205.22 122.574 204.523 124.196C203.826 125.818 202.09 126.493 200.514 125.925C200.573 125.951 200.624 125.996 200.684 126.021C202.503 126.804 204.615 125.962 205.398 124.142C206.18 122.323 205.345 120.214 203.525 119.431Z" fill="#804025"/>
<path d="M204.523 124.196C205.22 122.574 204.472 120.698 202.85 120.001C201.229 119.304 199.504 120.007 198.754 121.497C198.127 123.211 198.886 125.116 200.521 125.928C202.096 126.496 203.86 125.755 204.529 124.199L204.523 124.196Z" fill="#8E482A"/>
</g>
<g clip-path="url(#clip0_502_14505)">
<path d="M244.432 82.1047L246.844 82.3307C247.027 82.3485 247.141 82.5284 247.075 82.7031C246.605 84.0202 245.45 88.9634 252.821 92.6805C252.962 92.7478 253.023 92.9266 252.94 93.0585C251.81 94.859 245.4 106.056 257.128 108.603C257.289 108.639 257.415 108.783 257.407 108.951C257.319 110.367 257.287 116.675 263.417 118.543C263.545 118.58 263.605 118.725 263.537 118.834L261.544 122.008L252.185 122.581L243.577 112.614L240.023 106.608L238.685 94.0205L239.744 86.9724L242.693 82.6356L244.442 82.0892L244.432 82.1047Z" fill="#804025"/>
<path d="M228.523 76.0699C229.215 74.9678 230.416 74.3805 231.625 74.4031C231.734 73.1086 231.154 71.7923 229.974 71.0519C228.949 70.4089 227.72 70.3513 226.689 70.7864C226.928 70.8714 227.165 70.9767 227.398 71.1229C229.074 72.175 229.588 74.3906 228.531 76.0748L228.523 76.0699Z" fill="#804025"/>
<path d="M240.676 83.6969C241.368 82.5947 242.57 82.0074 243.778 82.0301C243.887 80.7355 243.307 79.4193 242.127 78.6789C241.103 78.0359 239.873 77.9782 238.843 78.4134C239.082 78.4983 239.318 78.6037 239.551 78.7498C241.228 79.802 241.741 82.0175 240.684 83.7017L240.676 83.6969Z" fill="#804025"/>
<path d="M260.005 120.394L218.97 185.777C220.334 185.984 221.759 185.385 222.543 184.136L262.048 121.19C261.349 121.01 260.658 120.75 260.001 120.402L260.005 120.394Z" fill="#804025"/>
<path d="M234.599 79.8824C235.291 78.7803 236.493 78.193 237.701 78.2156C237.81 76.9211 237.23 75.6048 236.05 74.8644C235.026 74.2214 233.796 74.1638 232.766 74.5989C233.004 74.6839 233.241 74.7892 233.474 74.9354C235.15 75.9875 235.664 78.2031 234.607 79.8873L234.599 79.8824Z" fill="#804025"/>
<path d="M218.678 114.73C219.869 115.282 221.239 115.081 222.183 114.181C221.246 115.053 219.864 115.29 218.678 114.73Z" fill="#BE6944"/>
<path d="M220.001 97.765C221.191 98.3172 222.548 98.1196 223.488 97.2265C222.548 98.0865 221.183 98.3123 220.001 97.765Z" fill="#BE6944"/>
<path d="M233.26 123.882C234.451 124.434 235.816 124.242 236.76 123.341C235.828 124.206 234.438 124.437 233.26 123.882Z" fill="#BE6944"/>
<path d="M202.651 140.249C203.849 140.806 205.219 140.606 206.168 139.697C205.231 140.57 203.841 140.801 202.651 140.249Z" fill="#BE6944"/>
<path d="M218.579 132.451C219.761 132.998 221.119 132.8 222.066 131.912C221.133 132.777 219.761 132.998 218.579 132.451Z" fill="#BE6944"/>
<path d="M217.241 149.406C218.426 149.965 219.804 149.77 220.753 148.861C219.816 149.734 218.431 149.958 217.241 149.406Z" fill="#BE6944"/>
<path d="M234.59 106.921C235.781 107.473 237.138 107.276 238.078 106.383C237.137 107.243 235.773 107.469 234.59 106.921Z" fill="#BE6944"/>
<path d="M202.548 157.978C203.738 158.53 205.095 158.332 206.035 157.439C205.094 158.299 203.73 158.525 202.548 157.978Z" fill="#BE6944"/>
<path d="M203.989 123.294C205.171 123.842 206.529 123.644 207.476 122.756C206.544 123.621 205.171 123.842 203.989 123.294Z" fill="#BE6944"/>
<path d="M187.957 148.822C189.147 149.374 190.505 149.176 191.444 148.283C190.504 149.143 189.139 149.369 187.957 148.822Z" fill="#BE6944"/>
<path d="M233.162 141.603C234.352 142.155 235.722 141.954 236.671 141.046C235.734 141.919 234.352 142.155 233.162 141.603Z" fill="#BE6944"/>
<path d="M217.13 167.13C218.327 167.687 219.698 167.487 220.642 166.586C219.705 167.459 218.315 167.69 217.13 167.13Z" fill="#BE6944"/>
<path d="M259.419 120.069C256.369 118.155 254.857 114.74 255.22 111.387C255.25 111.114 255.058 110.885 254.788 110.867C254.429 110.836 254.072 110.785 253.716 110.714C254.74 111.875 254.942 113.603 254.075 114.985C253.023 116.661 250.808 117.175 249.124 116.118C249.07 116.084 249.025 116.034 248.971 116C247.48 114.945 247.023 112.95 247.907 111.352C247.941 111.297 247.96 111.233 247.994 111.179C248.598 110.217 249.592 109.65 250.649 109.535C250.641 109.53 250.625 109.52 250.617 109.515C246.372 106.851 245.092 101.255 247.756 97.0103C248.468 95.8773 249.28 94.8405 250.305 94.1208C250.465 94.0046 250.428 93.754 250.238 93.7109C249.407 93.5355 248.648 93.2971 247.849 92.7954C244.364 90.6085 242.974 86.3607 244.241 82.6345C244.295 82.4627 244.369 82.2929 244.436 82.1182C244.221 82.0809 244.002 82.0514 243.788 82.0471C242.567 82.0273 241.378 82.6117 240.687 83.7137C241.739 82.0374 241.238 79.8192 239.554 78.7623C239.329 78.621 239.092 78.5157 238.845 78.4259C238.476 78.2911 238.09 78.2331 237.704 78.2285C236.483 78.2087 235.294 78.7931 234.602 79.8951C235.654 78.2188 235.153 76.0006 233.469 74.9437C233.244 74.8024 233.007 74.6971 232.761 74.6073C232.391 74.4726 232.006 74.4145 231.619 74.4099C230.398 74.3902 229.21 74.9746 228.518 76.0766C229.57 74.4003 229.069 72.182 227.385 71.1251C227.16 70.9839 226.923 70.8785 226.677 70.7887C225.133 70.2313 223.357 70.8039 222.446 72.2551L170.296 155.348C169.264 156.993 169.572 159.242 171.156 160.355C172.852 161.549 175.18 161.063 176.266 159.333C175.214 161.009 175.715 163.227 177.399 164.284C179.083 165.341 181.293 164.835 182.35 163.151C181.298 164.827 181.799 167.046 183.483 168.103C185.167 169.16 187.378 168.654 188.434 166.97C187.382 168.646 187.883 170.864 189.567 171.921C191.251 172.978 193.462 172.472 194.519 170.788C193.467 172.465 193.968 174.683 195.652 175.74C197.336 176.797 199.546 176.291 200.603 174.607C199.551 176.283 200.052 178.501 201.736 179.558C203.42 180.615 205.631 180.109 206.687 178.425C205.635 180.102 206.136 182.32 207.82 183.377C209.504 184.434 211.715 183.928 212.772 182.244C211.686 183.975 212.26 186.282 214.073 187.29C215.771 188.237 217.931 187.537 218.963 185.892L219.017 185.806L260.052 120.423C259.856 120.322 259.66 120.22 259.466 120.099L259.419 120.069ZM173.922 153.621L174.015 153.474C173.323 154.576 173.217 155.969 173.741 157.099C173.216 156.023 173.236 154.716 173.922 153.621ZM175.055 158.573C174.923 158.49 174.806 158.384 174.691 158.29C174.832 158.411 174.985 158.529 175.138 158.614C175.114 158.599 175.091 158.584 175.06 158.565L175.055 158.573ZM202.728 118.565C202.762 118.51 202.781 118.446 202.815 118.392C204.013 116.483 206.715 116.091 208.419 117.788C209.357 118.723 209.695 120.168 209.264 121.423C208.478 123.709 205.857 124.542 203.94 123.339C203.886 123.305 203.841 123.255 203.787 123.221C202.296 122.166 201.839 120.17 202.723 118.572L202.728 118.565ZM187.913 148.858C187.859 148.824 187.814 148.775 187.76 148.741C186.269 147.686 185.812 145.69 186.696 144.092C186.73 144.038 186.749 143.974 186.783 143.92C187.981 142.011 190.683 141.618 192.387 143.315C193.325 144.25 193.663 145.695 193.232 146.95C192.446 149.237 189.825 150.069 187.908 148.866L187.913 148.858ZM219.952 97.809C219.897 97.7749 219.853 97.7253 219.799 97.6912C218.308 96.6366 217.851 94.6409 218.735 93.0429C218.769 92.9886 218.788 92.9245 218.822 92.8702C220.02 90.9611 222.722 90.5689 224.418 92.261C225.357 93.1961 225.694 94.641 225.263 95.896C224.477 98.1827 221.856 99.015 219.939 97.8119L219.952 97.809ZM202.602 140.294C202.548 140.259 202.503 140.21 202.449 140.176C200.958 139.121 200.501 137.125 201.385 135.527C201.419 135.473 201.438 135.409 201.472 135.355C202.67 133.446 205.372 133.053 207.068 134.746C208.007 135.681 208.344 137.126 207.913 138.381C207.127 140.667 204.506 141.5 202.589 140.296L202.602 140.294ZM218.622 114.769C218.567 114.735 218.523 114.685 218.468 114.651C216.978 113.596 216.521 111.601 217.405 110.003C217.439 109.948 217.457 109.884 217.492 109.83C218.69 107.921 221.391 107.529 223.088 109.221C224.026 110.156 224.363 111.601 223.933 112.856C223.147 115.143 220.526 115.975 218.609 114.772L218.622 114.769ZM217.306 127.724C217.34 127.67 217.358 127.606 217.392 127.552C218.591 125.643 221.292 125.25 222.996 126.947C223.935 127.883 224.272 129.327 223.841 130.582C223.055 132.869 220.434 133.701 218.517 132.498C218.463 132.464 218.419 132.415 218.364 132.38C216.873 131.326 216.417 129.33 217.301 127.732L217.306 127.724ZM202.49 158.018C202.436 157.984 202.391 157.934 202.337 157.9C200.846 156.846 200.39 154.85 201.273 153.252C201.308 153.198 201.326 153.134 201.36 153.079C202.558 151.17 205.26 150.778 206.964 152.475C207.903 153.41 208.24 154.855 207.809 156.11C207.023 158.397 204.402 159.229 202.485 158.026L202.49 158.018ZM234.529 106.969C234.475 106.935 234.43 106.885 234.376 106.851C232.885 105.796 232.429 103.801 233.312 102.203C233.347 102.148 233.365 102.084 233.399 102.03C234.597 100.121 237.299 99.7286 238.996 101.421C239.934 102.356 240.271 103.801 239.84 105.056C239.054 107.342 236.433 108.175 234.517 106.972L234.529 106.969ZM217.179 149.453C217.125 149.419 217.081 149.37 217.026 149.335C215.535 148.281 215.079 146.285 215.963 144.687C215.997 144.633 216.015 144.569 216.049 144.514C217.248 142.605 219.949 142.213 221.646 143.905C222.584 144.84 222.921 146.285 222.491 147.54C221.705 149.827 219.084 150.659 217.167 149.456L217.179 149.453ZM233.199 123.929C233.145 123.894 233.1 123.845 233.046 123.811C231.555 122.756 231.098 120.76 231.982 119.162C232.016 119.108 232.035 119.044 232.069 118.99C233.267 117.081 235.969 116.688 237.665 118.381C238.604 119.316 238.941 120.76 238.51 122.015C237.724 124.302 235.103 125.134 233.186 123.931L233.199 123.929ZM237.566 136.102C238.504 137.037 238.842 138.482 238.411 139.737C237.625 142.024 235.004 142.856 233.087 141.653C233.033 141.619 232.988 141.569 232.934 141.535C231.443 140.481 230.986 138.485 231.87 136.887C231.904 136.833 231.923 136.769 231.957 136.714C233.155 134.805 235.857 134.413 237.561 136.11L237.566 136.102ZM217.068 167.178C217.013 167.144 216.969 167.094 216.914 167.06C215.424 166.005 214.967 164.01 215.851 162.412C215.885 162.357 215.903 162.293 215.938 162.239C217.136 160.33 219.837 159.938 221.542 161.635C222.48 162.57 222.817 164.015 222.387 165.27C221.6 167.556 218.98 168.389 217.063 167.186L217.068 167.178Z" fill="#BE6944"/>
<path d="M249.174 116.074C250.371 116.631 251.742 116.43 252.686 115.529C251.749 116.402 250.359 116.633 249.174 116.074Z" fill="#BE6944"/>
<path d="M223.779 91.7299C222.102 90.6777 219.884 91.1786 218.827 92.863C218.793 92.9173 218.774 92.9814 218.74 93.0358C219.712 91.6766 221.528 91.2478 223.019 92.1831C224.509 93.1184 224.96 95.0893 224.025 96.5796C223.869 96.828 223.676 97.0316 223.473 97.2178C222.526 98.1058 221.168 98.3034 219.986 97.7562C219.924 97.7172 219.855 97.7064 219.796 97.6801C219.85 97.7142 219.895 97.7638 219.949 97.7979C221.626 98.8502 223.844 98.3492 224.902 96.6648C225.959 94.9804 225.453 92.7695 223.776 91.7173L223.779 91.7299Z" fill="#804025"/>
<path d="M223.495 97.2323C223.69 97.0413 223.883 96.8377 224.039 96.5893C224.979 95.0914 224.461 93.0895 223.033 92.1932C221.605 91.2969 219.727 91.6868 218.755 93.0458C217.871 94.6439 218.328 96.6398 219.818 97.6945C219.881 97.7335 219.949 97.7443 220.012 97.7833C221.194 98.3304 222.565 98.1096 223.498 97.2449L223.495 97.2323Z" fill="#8E482A"/>
<path d="M220.001 97.7639C219.939 97.7251 219.871 97.7143 219.809 97.6755C219.871 97.7143 219.939 97.7251 219.998 97.7513L220.001 97.7639Z" fill="#8E482A"/>
<path d="M223.025 92.1883C224.461 93.0895 224.966 95.0942 224.031 96.5844C223.875 96.8328 223.69 97.0413 223.487 97.2274C223.69 97.0413 223.883 96.8377 224.039 96.5893C224.979 95.0914 224.523 93.1285 223.033 92.1932C221.543 91.258 219.727 91.6868 218.755 93.0458C219.727 91.6868 221.597 91.2921 223.033 92.1932L223.025 92.1883Z" fill="#8E482A"/>
<path d="M207.76 117.255C206.083 116.203 203.864 116.704 202.807 118.388C202.773 118.443 202.754 118.507 202.72 118.561C203.692 117.202 205.509 116.773 206.999 117.708C208.489 118.644 208.94 120.615 208.005 122.105C207.849 122.353 207.661 122.549 207.466 122.74C206.519 123.628 205.169 123.831 203.979 123.279C203.912 123.247 203.848 123.229 203.781 123.198C203.836 123.232 203.88 123.281 203.934 123.315C205.611 124.368 207.83 123.867 208.887 122.182C209.944 120.498 209.438 118.287 207.762 117.235L207.76 117.255Z" fill="#804025"/>
<path d="M207.476 122.756C207.672 122.565 207.864 122.361 208.015 122.121C208.956 120.623 208.438 118.621 207.01 117.724C205.582 116.828 203.703 117.218 202.731 118.577C201.847 120.175 202.304 122.171 203.795 123.226C203.857 123.265 203.934 123.28 204.001 123.312C205.183 123.859 206.547 123.633 207.487 122.773L207.476 122.756Z" fill="#8E482A"/>
<path d="M203.989 123.294C203.923 123.263 203.859 123.245 203.784 123.209C203.846 123.247 203.915 123.258 203.982 123.289L203.989 123.294Z" fill="#8E482A"/>
<path d="M207.007 117.713C208.443 118.614 208.948 120.619 208.013 122.109C207.857 122.357 207.672 122.566 207.473 122.744C207.677 122.558 207.862 122.349 208.013 122.109C208.953 120.611 208.497 118.648 207.007 117.713C205.517 116.777 203.7 117.206 202.728 118.565C203.7 117.206 205.571 116.812 207.007 117.713Z" fill="#8E482A"/>
<path d="M191.74 142.779C190.063 141.726 187.845 142.227 186.788 143.912C186.754 143.966 186.735 144.03 186.701 144.085C187.673 142.725 189.489 142.297 190.98 143.232C192.47 144.167 192.921 146.138 191.985 147.628C191.83 147.877 191.637 148.08 191.433 148.267C190.487 149.155 189.129 149.352 187.947 148.805C187.885 148.766 187.816 148.755 187.757 148.729C187.811 148.763 187.856 148.813 187.91 148.847C189.587 149.899 191.805 149.398 192.862 147.714C193.92 146.029 193.414 143.818 191.737 142.766L191.74 142.779Z" fill="#804025"/>
<path d="M191.452 148.289C191.647 148.098 191.84 147.894 191.996 147.646C192.936 146.148 192.418 144.146 190.99 143.25C189.562 142.354 187.684 142.743 186.712 144.102C185.828 145.701 186.285 147.696 187.775 148.751C187.838 148.79 187.907 148.801 187.969 148.84C189.151 149.387 190.523 149.166 191.455 148.302L191.452 148.289Z" fill="#8E482A"/>
<path d="M187.957 148.821C187.895 148.782 187.827 148.771 187.765 148.732C187.827 148.771 187.895 148.782 187.954 148.808L187.957 148.821Z" fill="#8E482A"/>
<path d="M190.982 143.245C192.418 144.146 192.923 146.151 191.988 147.641C191.832 147.889 191.647 148.098 191.444 148.284C191.647 148.098 191.84 147.894 191.996 147.646C192.936 146.148 192.48 144.185 190.99 143.25C189.5 142.315 187.684 142.743 186.712 144.102C187.684 142.743 189.554 142.349 190.99 143.25L190.982 143.245Z" fill="#8E482A"/>
<path d="M222.461 108.687C220.784 107.635 218.565 108.136 217.508 109.82C217.474 109.874 217.456 109.938 217.422 109.993C218.394 108.634 220.21 108.205 221.7 109.14C223.191 110.075 223.639 112.034 222.716 113.521L222.706 113.537C222.555 113.777 222.375 113.978 222.177 114.156C221.228 115.065 219.858 115.265 218.673 114.705C218.611 114.666 218.542 114.656 218.482 114.629C218.537 114.663 218.581 114.713 218.636 114.747C220.312 115.799 222.531 115.298 223.588 113.614C224.645 111.93 224.139 109.719 222.463 108.666L222.461 108.687Z" fill="#804025"/>
<path d="M222.187 114.173C222.378 113.99 222.558 113.789 222.709 113.548L222.719 113.533C223.641 112.045 223.131 110.048 221.703 109.152C220.275 108.256 218.397 108.646 217.425 110.005C216.541 111.603 216.997 113.599 218.488 114.653C218.55 114.692 218.619 114.703 218.681 114.742C219.871 115.294 221.248 115.066 222.185 114.193L222.187 114.173Z" fill="#8E482A"/>
<path d="M222.186 114.171C222.385 113.993 222.565 113.792 222.716 113.552C222.565 113.792 222.385 113.993 222.194 114.176L222.186 114.171Z" fill="#8E482A"/>
<path d="M221.695 109.146C223.123 110.043 223.633 112.04 222.711 113.527C223.633 112.04 223.185 110.082 221.695 109.146C220.205 108.211 218.389 108.64 217.417 109.999C218.389 108.64 220.259 108.245 221.695 109.146Z" fill="#8E482A"/>
<path d="M218.678 114.729C218.616 114.69 218.547 114.679 218.485 114.64C218.547 114.679 218.616 114.69 218.675 114.716L218.678 114.729Z" fill="#8E482A"/>
<path d="M206.436 134.218C204.76 133.166 202.541 133.667 201.484 135.351C201.45 135.406 201.431 135.47 201.397 135.524C202.369 134.165 204.186 133.736 205.676 134.671C207.166 135.607 207.614 137.565 206.691 139.052C206.691 139.052 206.687 139.06 206.682 139.068C206.536 139.301 206.356 139.501 206.152 139.688C205.203 140.596 203.828 140.804 202.636 140.24C202.581 140.205 202.512 140.195 202.45 140.156C202.505 140.19 202.549 140.239 202.603 140.274C204.28 141.326 206.499 140.825 207.556 139.14C208.613 137.456 208.107 135.245 206.431 134.193L206.436 134.218Z" fill="#804025"/>
<path d="M206.168 139.698C206.358 139.515 206.538 139.314 206.689 139.074C206.689 139.074 206.694 139.066 206.699 139.058C207.627 137.563 207.112 135.574 205.683 134.678C204.255 133.781 202.377 134.171 201.405 135.53C200.521 137.128 200.978 139.124 202.469 140.179C202.531 140.218 202.595 140.236 202.654 140.263C203.844 140.815 205.233 140.583 206.17 139.711L206.168 139.698Z" fill="#8E482A"/>
<path d="M202.651 140.247C202.589 140.209 202.52 140.198 202.466 140.164C202.528 140.203 202.596 140.213 202.651 140.247Z" fill="#8E482A"/>
<path d="M205.676 134.672C207.104 135.568 207.614 137.565 206.691 139.052C207.619 137.557 207.166 135.607 205.676 134.672C204.185 133.736 202.369 134.165 201.397 135.524C202.369 134.165 204.24 133.771 205.676 134.672Z" fill="#8E482A"/>
<path d="M206.167 139.697C206.358 139.514 206.546 139.318 206.697 139.077C206.546 139.318 206.365 139.518 206.175 139.702L206.167 139.697Z" fill="#8E482A"/>
<path d="M237.044 117.839C235.367 116.787 233.148 117.288 232.091 118.972C232.057 119.027 232.039 119.091 232.005 119.145C232.977 117.786 234.793 117.357 236.283 118.292C237.774 119.228 238.222 121.186 237.299 122.673L237.289 122.689C237.138 122.93 236.953 123.138 236.755 123.316C235.811 124.217 234.441 124.418 233.256 123.858C233.201 123.824 233.125 123.808 233.07 123.774C233.125 123.808 233.169 123.858 233.224 123.892C234.9 124.944 237.119 124.443 238.176 122.759C239.233 121.074 238.727 118.863 237.051 117.811L237.044 117.839Z" fill="#804025"/>
<path d="M236.764 123.333C236.955 123.15 237.14 122.941 237.291 122.701L237.301 122.685C238.223 121.198 237.713 119.201 236.285 118.305C234.857 117.408 232.979 117.798 232.007 119.157C231.123 120.755 231.579 122.751 233.07 123.806C233.132 123.845 233.197 123.863 233.264 123.895C234.453 124.447 235.83 124.218 236.762 123.353L236.764 123.333Z" fill="#8E482A"/>
<path d="M236.765 123.332C236.968 123.145 237.148 122.945 237.299 122.704C237.148 122.945 236.963 123.153 236.772 123.336L236.765 123.332Z" fill="#8E482A"/>
<path d="M236.285 118.305C237.713 119.201 238.223 121.198 237.301 122.685C238.223 121.198 237.775 119.24 236.285 118.305C234.795 117.369 232.979 117.798 232.007 119.157C232.979 117.798 234.849 117.403 236.285 118.305Z" fill="#8E482A"/>
<path d="M233.261 123.881C233.199 123.842 233.13 123.832 233.068 123.793C233.13 123.832 233.199 123.842 233.253 123.876L233.261 123.881Z" fill="#8E482A"/>
<path d="M221.019 143.37C219.343 142.318 217.124 142.819 216.067 144.504C216.033 144.558 216.014 144.622 215.98 144.676C216.952 143.317 218.769 142.888 220.259 143.824C221.749 144.759 222.197 146.717 221.275 148.205C221.275 148.205 221.27 148.212 221.265 148.22C221.114 148.461 220.934 148.662 220.73 148.848C219.781 149.756 218.416 149.949 217.219 149.392C217.164 149.358 217.095 149.347 217.033 149.308C217.088 149.342 217.132 149.392 217.186 149.426C218.863 150.478 221.082 149.977 222.139 148.293C223.196 146.608 222.69 144.397 221.014 143.345L221.019 143.37Z" fill="#804025"/>
<path d="M220.746 148.856C220.936 148.673 221.121 148.465 221.272 148.224C221.272 148.224 221.277 148.216 221.282 148.209C222.21 146.713 221.695 144.724 220.266 143.828C218.838 142.932 216.96 143.322 215.988 144.681C215.104 146.279 215.561 148.275 217.052 149.329C217.114 149.368 217.178 149.387 217.237 149.413C218.427 149.965 219.812 149.741 220.749 148.869L220.746 148.856Z" fill="#8E482A"/>
<path d="M220.266 143.828C221.695 144.724 222.205 146.721 221.282 148.209C222.21 146.713 221.757 144.763 220.266 143.828C218.776 142.893 216.96 143.322 215.988 144.681C216.96 143.322 218.831 142.927 220.266 143.828Z" fill="#8E482A"/>
<path d="M220.745 148.857C220.944 148.679 221.129 148.47 221.28 148.229C221.129 148.47 220.944 148.679 220.753 148.862L220.745 148.857Z" fill="#8E482A"/>
<path d="M217.241 149.406C217.187 149.372 217.111 149.356 217.057 149.322C217.111 149.356 217.18 149.367 217.241 149.406Z" fill="#8E482A"/>
<path d="M238.369 100.886C236.692 99.8339 234.474 100.335 233.417 102.019C233.382 102.074 233.364 102.138 233.33 102.192C234.302 100.833 236.118 100.404 237.608 101.339C239.099 102.275 239.55 104.246 238.614 105.736C238.458 105.984 238.266 106.188 238.062 106.374C237.116 107.262 235.758 107.46 234.576 106.912C234.514 106.873 234.445 106.863 234.386 106.836C234.44 106.87 234.485 106.92 234.539 106.954C236.216 108.006 238.434 107.505 239.491 105.821C240.549 104.137 240.043 101.926 238.366 100.874L238.369 100.886Z" fill="#804025"/>
<path d="M238.078 106.383C238.273 106.192 238.466 105.988 238.622 105.74C239.562 104.242 239.044 102.24 237.616 101.344C236.188 100.447 234.31 100.837 233.338 102.196C232.454 103.794 232.911 105.79 234.401 106.845C234.464 106.884 234.532 106.895 234.595 106.934C235.777 107.481 237.148 107.26 238.081 106.395L238.078 106.383Z" fill="#8E482A"/>
<path d="M234.591 106.92C234.529 106.881 234.46 106.871 234.399 106.832C234.46 106.871 234.529 106.881 234.588 106.908L234.591 106.92Z" fill="#8E482A"/>
<path d="M237.616 101.345C239.052 102.246 239.557 104.25 238.622 105.741C238.466 105.989 238.281 106.198 238.078 106.384C238.281 106.198 238.474 105.994 238.63 105.746C239.57 104.248 239.114 102.285 237.624 101.349C236.134 100.414 234.318 100.843 233.346 102.202C234.318 100.843 236.188 100.448 237.624 101.349L237.616 101.345Z" fill="#8E482A"/>
<path d="M222.349 126.412C220.673 125.359 218.454 125.86 217.397 127.545C217.363 127.599 217.344 127.663 217.31 127.717C218.282 126.358 220.099 125.929 221.589 126.865C223.079 127.8 223.53 129.771 222.595 131.261C222.439 131.51 222.251 131.705 222.055 131.896C221.109 132.785 219.759 132.987 218.569 132.435C218.502 132.404 218.438 132.385 218.371 132.354C218.425 132.388 218.47 132.438 218.524 132.472C220.201 133.524 222.42 133.023 223.477 131.339C224.534 129.654 224.028 127.443 222.351 126.391L222.349 126.412Z" fill="#804025"/>
<path d="M222.058 131.908C222.254 131.717 222.446 131.513 222.597 131.273C223.538 129.775 223.02 127.773 221.592 126.877C220.164 125.981 218.285 126.37 217.313 127.729C216.429 129.327 216.886 131.323 218.377 132.378C218.439 132.417 218.516 132.433 218.583 132.464C219.765 133.011 221.129 132.785 222.069 131.926L222.058 131.908Z" fill="#8E482A"/>
<path d="M218.579 132.45C218.512 132.419 218.449 132.401 218.374 132.365C218.436 132.404 218.505 132.415 218.571 132.446L218.579 132.45Z" fill="#8E482A"/>
<path d="M221.597 126.869C223.032 127.77 223.538 129.775 222.602 131.265C222.447 131.513 222.262 131.722 222.063 131.9C222.266 131.714 222.451 131.506 222.602 131.265C223.542 129.767 223.087 127.804 221.597 126.869C220.106 125.934 218.29 126.363 217.318 127.722C218.29 126.363 220.161 125.968 221.597 126.869Z" fill="#8E482A"/>
<path d="M206.33 151.935C204.653 150.883 202.435 151.384 201.377 153.068C201.343 153.122 201.325 153.187 201.291 153.241C202.263 151.882 204.079 151.453 205.569 152.388C207.06 153.324 207.511 155.294 206.575 156.785C206.419 157.033 206.227 157.237 206.023 157.423C205.076 158.311 203.719 158.508 202.537 157.961C202.475 157.922 202.406 157.912 202.347 157.885C202.401 157.919 202.446 157.969 202.5 158.003C204.177 159.055 206.395 158.554 207.452 156.87C208.509 155.186 208.004 152.975 206.327 151.922L206.33 151.935Z" fill="#804025"/>
<path d="M206.034 157.441C206.229 157.25 206.422 157.047 206.578 156.798C207.518 155.3 207 153.298 205.572 152.402C204.144 151.506 202.266 151.896 201.294 153.255C200.41 154.853 200.867 156.849 202.357 157.903C202.42 157.942 202.489 157.953 202.551 157.992C203.733 158.539 205.105 158.319 206.037 157.454L206.034 157.441Z" fill="#8E482A"/>
<path d="M202.547 157.977C202.485 157.938 202.416 157.927 202.355 157.888C202.416 157.927 202.485 157.938 202.544 157.964L202.547 157.977Z" fill="#8E482A"/>
<path d="M205.572 152.401C207.008 153.302 207.513 155.307 206.578 156.797C206.422 157.046 206.237 157.254 206.034 157.44C206.237 157.254 206.43 157.051 206.586 156.802C207.526 155.304 207.07 153.341 205.58 152.406C204.09 151.471 202.274 151.9 201.302 153.259C202.274 151.9 204.144 151.505 205.58 152.406L205.572 152.401Z" fill="#8E482A"/>
<path d="M248.006 111.175C247.972 111.23 247.953 111.294 247.919 111.348C248.891 109.989 250.708 109.56 252.198 110.495C253.688 111.431 254.144 113.394 253.209 114.884C253.209 114.884 253.209 114.884 253.204 114.892C253.053 115.133 252.873 115.333 252.674 115.512C251.726 116.42 250.355 116.621 249.163 116.056C249.108 116.022 249.039 116.011 248.977 115.972C249.032 116.006 249.076 116.056 249.131 116.09C250.807 117.142 253.026 116.641 254.083 114.957C254.95 113.575 254.747 111.847 253.724 110.685C252.668 110.488 251.631 110.107 250.668 109.503C249.611 109.618 248.622 110.177 248.013 111.147L248.006 111.175Z" fill="#804025"/>
<path d="M252.677 115.524C252.868 115.341 253.048 115.14 253.199 114.9C253.199 114.9 253.199 114.9 253.204 114.892C254.139 113.402 253.621 111.4 252.193 110.504C250.765 109.607 248.887 109.997 247.915 111.356C247.031 112.954 247.488 114.95 248.979 116.005C249.041 116.044 249.105 116.063 249.164 116.089C250.354 116.641 251.738 116.417 252.675 115.545L252.677 115.524Z" fill="#8E482A"/>
<path d="M249.173 116.072C249.111 116.033 249.042 116.022 248.988 115.988C249.05 116.027 249.119 116.038 249.173 116.072Z" fill="#8E482A"/>
<path d="M252.198 110.496C253.626 111.392 254.144 113.394 253.209 114.884C254.144 113.394 253.688 111.431 252.198 110.496C250.708 109.561 248.892 109.99 247.92 111.349C248.892 109.99 250.762 109.595 252.198 110.496Z" fill="#8E482A"/>
<path d="M252.677 115.525C252.875 115.347 253.06 115.138 253.206 114.905C253.055 115.146 252.875 115.347 252.684 115.53L252.677 115.525Z" fill="#8E482A"/>
<path d="M236.931 135.564C235.255 134.512 233.036 135.013 231.979 136.697C231.945 136.751 231.926 136.815 231.892 136.87C232.864 135.511 234.681 135.082 236.171 136.017C237.661 136.952 238.117 138.916 237.182 140.406C237.182 140.406 237.182 140.406 237.177 140.414C237.026 140.654 236.846 140.855 236.647 141.033C235.698 141.942 234.328 142.142 233.138 141.59C233.076 141.551 233.007 141.54 232.94 141.509C232.995 141.543 233.039 141.593 233.094 141.627C234.77 142.679 236.989 142.178 238.046 140.494C239.103 138.81 238.597 136.599 236.921 135.546L236.931 135.564Z" fill="#804025"/>
<path d="M236.666 141.054C236.856 140.87 237.036 140.67 237.187 140.429C237.187 140.429 237.187 140.429 237.192 140.421C238.127 138.931 237.61 136.929 236.182 136.033C234.753 135.137 232.875 135.527 231.903 136.886C231.019 138.484 231.476 140.48 232.967 141.534C233.029 141.573 233.098 141.584 233.165 141.615C234.355 142.167 235.736 141.931 236.673 141.059L236.666 141.054Z" fill="#8E482A"/>
<path d="M233.161 141.602C233.099 141.563 233.031 141.552 232.964 141.521C233.026 141.56 233.095 141.571 233.161 141.602Z" fill="#8E482A"/>
<path d="M236.179 136.021C237.607 136.918 238.125 138.919 237.189 140.41C238.125 138.919 237.669 136.957 236.179 136.021C234.688 135.086 232.872 135.515 231.9 136.874C232.872 135.515 234.743 135.12 236.179 136.021Z" fill="#8E482A"/>
<path d="M236.665 141.054C236.856 140.871 237.044 140.675 237.195 140.434C237.044 140.675 236.864 140.876 236.673 141.059L236.665 141.054Z" fill="#8E482A"/>
<path d="M220.912 161.087C219.235 160.035 217.017 160.536 215.96 162.22C215.925 162.275 215.907 162.339 215.873 162.393C216.845 161.034 218.661 160.605 220.151 161.54C221.642 162.476 222.098 164.439 221.162 165.929C221.162 165.929 221.162 165.929 221.157 165.937C221.006 166.178 220.826 166.378 220.628 166.557C219.679 167.465 218.309 167.666 217.116 167.101C217.062 167.067 216.993 167.056 216.931 167.017C216.985 167.051 217.03 167.101 217.084 167.135C218.761 168.187 220.979 167.686 222.036 166.002C223.093 164.317 222.588 162.106 220.911 161.054L220.912 161.087Z" fill="#804025"/>
<path d="M220.638 166.573C220.829 166.39 221.009 166.189 221.16 165.949C221.16 165.949 221.16 165.949 221.165 165.941C222.1 164.451 221.582 162.449 220.154 161.553C218.726 160.656 216.848 161.046 215.876 162.405C214.992 164.003 215.449 165.999 216.94 167.054C217.002 167.093 217.066 167.111 217.125 167.138C218.315 167.69 219.699 167.466 220.636 166.594L220.638 166.573Z" fill="#8E482A"/>
<path d="M220.154 161.553C221.582 162.449 222.1 164.451 221.165 165.941C222.1 164.451 221.644 162.488 220.154 161.553C218.664 160.617 216.848 161.046 215.876 162.405C216.848 161.046 218.718 160.651 220.154 161.553Z" fill="#8E482A"/>
<path d="M217.129 167.13C217.067 167.091 216.999 167.081 216.944 167.047C217.006 167.085 217.075 167.096 217.129 167.13Z" fill="#8E482A"/>
<path d="M220.638 166.574C220.836 166.395 221.021 166.187 221.167 165.954C221.016 166.195 220.836 166.395 220.645 166.579L220.638 166.574Z" fill="#8E482A"/>
</g>
<path d="M182.438 242.311V222.514H190.203C194.701 222.514 197.285 225.289 197.285 229.186C197.285 233.137 194.66 235.857 190.094 235.857H186.539V242.311H182.438ZM186.539 232.549H189.438C191.871 232.549 193.061 231.182 193.047 229.186C193.061 227.217 191.871 225.891 189.438 225.877H186.539V232.549ZM201.25 242.557C199.965 242.557 198.926 241.531 198.953 240.26C198.926 239.002 199.965 237.977 201.25 237.99C202.467 237.977 203.52 239.002 203.52 240.26C203.52 241.531 202.467 242.557 201.25 242.557ZM206.855 242.311V222.514H214.621C219.119 222.514 221.703 225.289 221.703 229.186C221.703 233.137 219.078 235.857 214.512 235.857H210.957V242.311H206.855ZM210.957 232.549H213.855C216.289 232.549 217.479 231.182 217.465 229.186C217.479 227.217 216.289 225.891 213.855 225.877H210.957V232.549ZM228.266 222.514V242.311H224.219V222.514H228.266ZM238.137 242.611C233.584 242.598 230.795 239.658 230.809 234.955C230.795 230.375 233.625 227.271 237.973 227.271C241.869 227.271 244.945 229.732 244.945 234.791V235.939H234.801C234.801 238.182 236.127 239.562 238.219 239.576C239.6 239.562 240.584 238.961 240.98 238.072H244.836C244.262 240.82 241.801 242.598 238.137 242.611ZM234.801 233.396H241.117C241.104 231.592 239.859 230.293 238.055 230.307C236.195 230.293 234.883 231.688 234.801 233.396Z" fill="black"/>
</g>
<defs>
<filter id="filter0_d_502_14505" x="152.259" y="28.7773" width="98.6934" height="122.797" filterUnits="userSpaceOnUse" color-interpolation-filters="sRGB">
<feFlood flood-opacity="0" result="BackgroundImageFix"/>
<feColorMatrix in="SourceAlpha" type="matrix" values="0 0 0 0 0 0 0 0 0 0 0 0 0 0 0 0 0 0 127 0" result="hardAlpha"/>
<feOffset dx="4" dy="5"/>
<feComposite in2="hardAlpha" operator="out"/>
<feColorMatrix type="matrix" values="0 0 0 0 0 0 0 0 0 0 0 0 0 0 0 0 0 0 0.25 0"/>
<feBlend mode="normal" in2="BackgroundImageFix" result="effect1_dropShadow_502_14505"/>
<feBlend mode="normal" in="SourceGraphic" in2="effect1_dropShadow_502_14505" result="shape"/>
</filter>
<clipPath id="clip0_502_14505">
<rect width="59.5559" height="106.917" fill="white" transform="translate(225.115 68.002) rotate(32.1127)"/>
</clipPath>
</defs>
</svg>
