<svg width="259" height="253" viewBox="0 0 259 253" fill="none" xmlns="http://www.w3.org/2000/svg">
<rect x="0.052002" y="0.89624" width="258" height="252" fill="#2E9191"/>
<mask id="mask0_3224_14008" style="mask-type:alpha" maskUnits="userSpaceOnUse" x="0" y="0" width="259" height="253">
<rect x="0.052002" y="0.89624" width="258" height="252" fill="#D6895E"/>
</mask>
<g mask="url(#mask0_3224_14008)">
<circle cx="189.919" cy="134.717" r="91.6244" transform="rotate(2.56318 189.919 134.717)" fill="#271A13"/>
<circle cx="196.817" cy="124.02" r="80.6295" transform="rotate(2.56318 196.817 124.02)" fill="#6B4630"/>
<path fill-rule="evenodd" clip-rule="evenodd" d="M224.739 198.932C254.249 188.171 275.895 160.503 277.388 127.167C279.368 82.9335 245.115 45.4703 200.882 43.4901C156.649 41.51 119.185 75.7628 117.205 119.996C117.157 121.077 117.13 122.154 117.125 123.227C117.035 124.28 116.966 125.339 116.918 126.404C115.028 168.615 147.306 204.347 189.011 206.214C201.776 206.786 213.944 204.119 224.739 198.932ZM193.711 203.672C204.608 204.16 215.094 202.449 224.739 198.932C249.216 187.171 266.636 162.457 267.947 133.165C269.837 90.954 237.56 55.2217 195.854 53.3547C155.201 51.5349 120.596 82.5643 117.125 123.227C116.905 166.039 150.559 201.741 193.711 203.672Z" fill="#3F2415"/>
<path fill-rule="evenodd" clip-rule="evenodd" d="M193.34 211.909C242.123 214.093 283.44 176.317 285.623 127.534C287.807 78.7509 250.031 37.4343 201.249 35.2505C152.466 33.0667 111.149 70.8427 108.965 119.625C106.782 168.408 144.557 209.725 193.34 211.909ZM193.709 203.674C237.942 205.654 275.405 171.401 277.386 127.168C279.366 82.9349 245.113 45.4717 200.88 43.4916C156.647 41.5114 119.183 75.7642 117.203 119.997C115.223 164.23 149.476 201.694 193.709 203.674Z" fill="#A5795F"/>
<g filter="url(#filter0_d_3224_14008)">
<path fill-rule="evenodd" clip-rule="evenodd" d="M197.921 29.6564C196.101 28.8738 193.991 29.7149 193.208 31.5352L155.228 119.866C154.445 121.687 155.286 123.797 157.106 124.579C158.927 125.362 161.037 124.521 161.82 122.701L199.8 34.3696C200.583 32.5493 199.742 30.4391 197.921 29.6564ZM204.513 32.495C202.692 31.7123 200.582 32.5534 199.8 34.3737L161.819 122.705C161.036 124.525 161.877 126.635 163.698 127.418C165.5 128.193 167.586 127.376 168.387 125.593C167.645 127.401 168.487 129.476 170.289 130.251C172.091 131.026 174.177 130.209 174.978 128.426C174.236 130.234 175.079 132.309 176.88 133.084C178.701 133.867 180.811 133.026 181.594 131.205L219.574 42.8744C220.357 41.0541 219.516 38.9439 217.695 38.1612C215.893 37.3864 213.807 38.203 213.006 39.9857C213.748 38.1782 212.906 36.1028 211.104 35.3281C209.302 34.5532 207.216 35.3699 206.415 37.1526C207.157 35.3451 206.315 33.2697 204.513 32.495ZM219.575 42.8731C220.358 41.0528 222.468 40.2117 224.288 40.9944C226.108 41.7771 226.95 43.8872 226.167 45.7075L188.186 134.039C187.404 135.859 185.293 136.7 183.473 135.917C181.653 135.135 180.812 133.024 181.594 131.204L219.575 42.8731ZM230.879 43.8302C229.059 43.0475 226.949 43.8886 226.166 45.7089L188.186 134.04C187.403 135.86 188.244 137.97 190.064 138.753C191.885 139.536 193.995 138.695 194.778 136.874L232.758 48.5433C233.541 46.723 232.7 44.6129 230.879 43.8302ZM232.759 48.5421C233.542 46.7218 235.652 45.8806 237.472 46.6633C239.292 47.446 240.134 49.5562 239.351 51.3764L201.37 139.708C200.588 141.528 198.477 142.369 196.657 141.586C194.837 140.804 193.996 138.693 194.778 136.873L232.759 48.5421ZM244.064 49.4992C242.243 48.7165 240.133 49.5576 239.35 51.3779L201.37 139.709C200.587 141.529 201.428 143.639 203.249 144.422C205.069 145.205 207.179 144.364 207.962 142.543L245.942 54.2123C246.725 52.392 245.884 50.2818 244.064 49.4992Z" fill="#804025"/>
<path fill-rule="evenodd" clip-rule="evenodd" d="M195.378 30.125C193.558 29.3423 191.448 30.1834 190.665 32.0037L151.834 122.312C151.051 124.133 151.892 126.243 153.713 127.025C155.533 127.808 157.643 126.967 158.426 125.147L197.257 34.8381C198.039 33.0178 197.198 30.9076 195.378 30.125ZM201.969 32.9635C200.149 32.1808 198.039 33.0219 197.256 34.8422L158.425 125.151C157.643 126.971 158.484 129.081 160.304 129.864C162.106 130.639 164.192 129.822 164.993 128.039C164.251 129.847 165.093 131.922 166.895 132.697C168.697 133.472 170.784 132.655 171.585 130.873C170.842 132.68 171.685 134.755 173.487 135.53C175.307 136.313 177.417 135.472 178.2 133.651L217.031 43.3429C217.813 41.5226 216.972 39.4124 215.152 38.6297C213.35 37.8549 211.264 38.6715 210.463 40.4542C211.205 38.6467 210.362 36.5714 208.561 35.7966C206.759 35.0217 204.672 35.8384 203.871 37.6211C204.614 35.8136 203.771 33.7382 201.969 32.9635ZM217.032 43.3416C217.814 41.5213 219.924 40.6802 221.745 41.4629C223.565 42.2456 224.406 44.3557 223.623 46.176L184.792 136.485C184.01 138.305 181.9 139.146 180.079 138.363C178.259 137.581 177.418 135.471 178.201 133.65L217.032 43.3416ZM228.336 44.2987C226.516 43.516 224.406 44.3571 223.623 46.1774L184.792 136.486C184.009 138.306 184.85 140.416 186.671 141.199C188.491 141.982 190.601 141.141 191.384 139.32L230.215 49.0118C230.997 47.1915 230.156 45.0814 228.336 44.2987ZM230.216 49.0106C230.998 47.1903 233.108 46.3491 234.929 47.1318C236.749 47.9145 237.59 50.0247 236.807 51.845L197.977 142.154C197.194 143.974 195.084 144.815 193.263 144.032C191.443 143.25 190.602 141.139 191.385 139.319L230.216 49.0106ZM241.52 49.9677C239.7 49.185 237.59 50.0261 236.807 51.8464L197.976 142.155C197.193 143.975 198.034 146.085 199.855 146.868C201.675 147.651 203.785 146.81 204.568 144.989L243.399 54.6808C244.182 52.8605 243.34 50.7504 241.52 49.9677Z" fill="#BE6944"/>
<path d="M194.975 51.0376C193.156 50.2551 191.044 51.097 190.261 52.9167C190.236 52.976 190.223 53.041 190.204 53.1032C190.954 51.6133 192.745 50.9379 194.301 51.6069C195.857 52.2759 196.671 54.1805 195.973 55.8024C195.276 57.4243 193.54 58.0998 191.964 57.5316C192.024 57.5571 192.074 57.6024 192.134 57.6279C193.953 58.4103 196.065 57.5685 196.848 55.7488C197.63 53.9291 196.795 51.82 194.975 51.0376Z" fill="#804025"/>
<path d="M195.973 55.8032C196.67 54.1815 195.922 52.3055 194.3 51.6081C192.679 50.9108 190.954 51.6145 190.204 53.1043C189.577 54.8185 190.336 56.7228 191.971 57.535C193.546 58.1032 195.31 57.3619 195.979 55.806L195.973 55.8032Z" fill="#8E482A"/>
<path d="M183.07 78.7256C181.25 77.9431 179.138 78.785 178.356 80.6047C178.33 80.664 178.318 80.729 178.299 80.7912C179.049 79.3013 180.84 78.6258 182.396 79.2949C183.952 79.9639 184.765 81.8685 184.068 83.4904C183.371 85.1123 181.635 85.7878 180.059 85.2195C180.118 85.2451 180.169 85.2904 180.228 85.3159C182.048 86.0983 184.16 85.2565 184.943 83.4368C185.725 81.6171 184.89 79.508 183.07 78.7256Z" fill="#804025"/>
<path d="M184.067 83.4912C184.765 81.8694 184.017 79.9934 182.395 79.2961C180.773 78.5988 179.049 79.3025 178.299 80.7923C177.671 82.5065 178.431 84.4107 180.065 85.223C181.641 85.7912 183.405 85.0499 184.074 83.494L184.067 83.4912Z" fill="#8E482A"/>
<path d="M171.166 106.413C169.347 105.631 167.235 106.473 166.452 108.292C166.427 108.352 166.415 108.417 166.396 108.479C167.146 106.989 168.936 106.314 170.492 106.983C172.048 107.652 172.862 109.556 172.164 111.178C171.467 112.8 169.731 113.476 168.155 112.907C168.215 112.933 168.266 112.978 168.325 113.004C170.145 113.786 172.257 112.944 173.039 111.125C173.821 109.305 172.986 107.196 171.166 106.413Z" fill="#804025"/>
<path d="M172.164 111.179C172.861 109.557 172.113 107.681 170.492 106.984C168.87 106.287 167.146 106.99 166.396 108.48C165.768 110.194 166.527 112.098 168.162 112.911C169.738 113.479 171.501 112.738 172.17 111.182L172.164 111.179Z" fill="#8E482A"/>
<path d="M196.276 67.9988C194.456 67.2163 192.344 68.0582 191.562 69.8779C191.537 69.9372 191.524 70.0022 191.505 70.0644C192.255 68.5745 194.046 67.899 195.602 68.5681C197.158 69.2371 197.971 71.1417 197.274 72.7636C196.577 74.3855 194.841 75.061 193.265 74.4927C193.324 74.5183 193.375 74.5635 193.435 74.5891C195.254 75.3715 197.366 74.5297 198.149 72.71C198.931 70.8902 198.096 68.7812 196.276 67.9988Z" fill="#804025"/>
<path d="M197.273 72.7644C197.971 71.1426 197.223 69.2666 195.601 68.5693C193.979 67.872 192.255 68.5757 191.505 70.0655C190.878 71.7797 191.637 73.6839 193.271 74.4962C194.847 75.0644 196.611 74.3231 197.28 72.7672L197.273 72.7644Z" fill="#8E482A"/>
<path d="M184.371 95.6902C182.551 94.9077 180.439 95.7496 179.657 97.5693C179.631 97.6286 179.619 97.6936 179.6 97.7558C180.35 96.2659 182.14 95.5904 183.696 96.2595C185.252 96.9285 186.066 98.8331 185.369 100.455C184.671 102.077 182.936 102.752 181.36 102.184C181.419 102.21 181.47 102.255 181.529 102.28C183.349 103.063 185.461 102.221 186.243 100.401C187.026 98.5817 186.19 96.4726 184.371 95.6902Z" fill="#804025"/>
<path d="M185.368 100.456C186.065 98.834 185.318 96.958 183.696 96.2607C182.074 95.5634 180.35 96.2671 179.6 97.7569C178.972 99.4711 179.731 101.375 181.366 102.188C182.942 102.756 184.706 102.014 185.375 100.459L185.368 100.456Z" fill="#8E482A"/>
<path d="M212.096 74.8017C210.276 74.0193 208.164 74.8611 207.382 76.6808C207.356 76.7402 207.344 76.8052 207.325 76.8674C208.075 75.3774 209.865 74.702 211.421 75.3711C212.977 76.0401 213.791 77.9446 213.094 79.5665C212.396 81.1885 210.661 81.864 209.085 81.2957C209.144 81.3212 209.195 81.3665 209.254 81.392C211.074 82.1745 213.186 81.3326 213.968 79.5129C214.751 77.6932 213.916 75.5842 212.096 74.8017Z" fill="#804025"/>
<path d="M213.093 79.5674C213.791 77.9456 213.043 76.0696 211.421 75.3723C209.799 74.675 208.075 75.3787 207.325 76.8685C206.697 78.5826 207.456 80.4869 209.091 81.2992C210.667 81.8674 212.431 81.126 213.1 79.5702L213.093 79.5674Z" fill="#8E482A"/>
<path d="M200.192 102.489C198.372 101.707 196.26 102.549 195.478 104.369C195.452 104.428 195.44 104.493 195.421 104.555C196.171 103.065 197.961 102.39 199.517 103.059C201.073 103.728 201.887 105.632 201.19 107.254C200.492 108.876 198.756 109.552 197.181 108.983C197.24 109.009 197.291 109.054 197.35 109.08C199.17 109.862 201.282 109.02 202.064 107.201C202.847 105.381 202.011 103.272 200.192 102.489Z" fill="#804025"/>
<path d="M201.189 107.255C201.886 105.633 201.138 103.757 199.517 103.06C197.895 102.363 196.171 103.066 195.421 104.556C194.793 106.27 195.552 108.175 197.187 108.987C198.763 109.555 200.527 108.814 201.195 107.258L201.189 107.255Z" fill="#8E482A"/>
<path d="M210.795 57.8403C208.975 57.0579 206.864 57.8997 206.081 59.7194C206.056 59.7788 206.043 59.8438 206.024 59.9059C206.774 58.416 208.565 57.7406 210.121 58.4096C211.677 59.0787 212.49 60.9832 211.793 62.6051C211.096 64.227 209.36 64.9025 207.784 64.3343C207.843 64.3598 207.894 64.4051 207.954 64.4306C209.773 65.2131 211.885 64.3712 212.668 62.5515C213.45 60.7318 212.615 58.6228 210.795 57.8403Z" fill="#804025"/>
<path d="M211.792 62.6059C212.49 60.9842 211.742 59.1082 210.12 58.4109C208.498 57.7135 206.774 58.4173 206.024 59.907C205.397 61.6212 206.156 63.5255 207.79 64.3378C209.366 64.906 211.13 64.1646 211.799 62.6088L211.792 62.6059Z" fill="#8E482A"/>
<path d="M198.893 85.5283C197.074 84.7459 194.962 85.5877 194.179 87.4074C194.154 87.4667 194.141 87.5318 194.122 87.5939C194.872 86.104 196.663 85.4286 198.219 86.0976C199.775 86.7667 200.589 88.6712 199.891 90.2931C199.194 91.915 197.458 92.5905 195.882 92.0223C195.942 92.0478 195.992 92.0931 196.052 92.1186C197.871 92.901 199.983 92.0592 200.766 90.2395C201.548 88.4198 200.713 86.3107 198.893 85.5283Z" fill="#804025"/>
<path d="M199.891 90.2939C200.588 88.6722 199.84 86.7962 198.218 86.0989C196.597 85.4015 194.872 86.1052 194.122 87.595C193.495 89.3092 194.254 91.2135 195.889 92.0258C197.464 92.5939 199.228 91.8526 199.897 90.2968L199.891 90.2939Z" fill="#8E482A"/>
<path d="M186.989 113.215C185.169 112.432 183.057 113.274 182.275 115.094C182.249 115.153 182.237 115.218 182.218 115.28C182.968 113.79 184.759 113.115 186.314 113.784C187.87 114.453 188.684 116.357 187.987 117.979C187.29 119.601 185.554 120.277 183.978 119.709C184.037 119.734 184.088 119.779 184.147 119.805C185.967 120.587 188.079 119.745 188.861 117.926C189.644 116.106 188.809 113.997 186.989 113.215Z" fill="#804025"/>
<path d="M187.986 117.98C188.684 116.358 187.936 114.482 186.314 113.785C184.692 113.088 182.968 113.792 182.218 115.281C181.59 116.995 182.349 118.9 183.984 119.712C185.56 120.28 187.324 119.539 187.993 117.983L187.986 117.98Z" fill="#8E482A"/>
<path d="M226.616 64.6465C224.796 63.864 222.685 64.7059 221.902 66.5256C221.877 66.5849 221.864 66.6499 221.845 66.7121C222.595 65.2222 224.386 64.5467 225.942 65.2158C227.498 65.8848 228.311 67.7894 227.614 69.4113C226.917 71.0332 225.181 71.7087 223.605 71.1404C223.664 71.166 223.715 71.2113 223.775 71.2368C225.594 72.0192 227.706 71.1774 228.489 69.3577C229.271 67.538 228.436 65.4289 226.616 64.6465Z" fill="#804025"/>
<path d="M227.613 69.4123C228.311 67.7906 227.563 65.9146 225.941 65.2173C224.319 64.5199 222.595 65.2237 221.845 66.7134C221.218 68.4276 221.977 70.3319 223.611 71.1442C225.187 71.7124 226.951 70.971 227.62 69.4152L227.613 69.4123Z" fill="#8E482A"/>
<path d="M214.712 92.3345C212.892 91.552 210.78 92.3939 209.998 94.2136C209.972 94.2729 209.96 94.3379 209.941 94.4001C210.691 92.9102 212.481 92.2347 214.037 92.9038C215.593 93.5728 216.407 95.4774 215.71 97.0993C215.012 98.7212 213.276 99.3967 211.701 98.8284C211.76 98.8539 211.811 98.8992 211.87 98.9248C213.69 99.7072 215.802 98.8654 216.584 97.0456C217.367 95.2259 216.531 93.1169 214.712 92.3345Z" fill="#804025"/>
<path d="M215.709 97.1001C216.406 95.4783 215.658 93.6023 214.037 92.905C212.415 92.2077 210.691 92.9114 209.941 94.4012C209.313 96.1153 210.072 98.0196 211.707 98.8319C213.283 99.4001 215.047 98.6587 215.716 97.1029L215.709 97.1001Z" fill="#8E482A"/>
<path d="M202.808 120.019C200.988 119.236 198.876 120.078 198.094 121.898C198.068 121.957 198.056 122.022 198.037 122.084C198.787 120.594 200.578 119.919 202.134 120.588C203.69 121.257 204.503 123.162 203.806 124.784C203.109 126.406 201.373 127.081 199.797 126.513C199.856 126.538 199.907 126.584 199.967 126.609C201.786 127.392 203.898 126.55 204.681 124.73C205.463 122.91 204.628 120.801 202.808 120.019Z" fill="#804025"/>
<path d="M203.805 124.784C204.503 123.163 203.755 121.287 202.133 120.589C200.511 119.892 198.787 120.596 198.037 122.085C197.409 123.8 198.169 125.704 199.803 126.516C201.379 127.084 203.143 126.343 203.812 124.787L203.805 124.784Z" fill="#8E482A"/>
</g>
<g clip-path="url(#clip0_3224_14008)">
<path d="M243.715 82.6902L246.126 82.9161C246.309 82.934 246.424 83.1138 246.357 83.2885C245.888 84.6056 244.732 89.5489 252.103 93.2659C252.244 93.3332 252.305 93.512 252.222 93.644C251.092 95.4444 244.682 106.641 256.41 109.188C256.572 109.225 256.698 109.369 256.689 109.537C256.601 110.952 256.569 117.26 262.699 119.128C262.827 119.165 262.887 119.311 262.819 119.42L260.827 122.594L251.467 123.167L242.859 113.199L239.305 107.194L237.967 94.606L239.026 87.5579L241.975 83.2211L243.724 82.6747L243.715 82.6902Z" fill="#804025"/>
<path d="M227.806 76.6544C228.497 75.5523 229.699 74.9649 230.907 74.9876C231.016 73.693 230.436 72.3768 229.256 71.6364C228.232 70.9934 227.002 70.9357 225.972 71.3709C226.211 71.4559 226.448 71.5612 226.68 71.7073C228.357 72.7595 228.87 74.975 227.813 76.6593L227.806 76.6544Z" fill="#804025"/>
<path d="M239.958 84.2813C240.65 83.1792 241.851 82.5919 243.06 82.6145C243.169 81.32 242.589 80.0038 241.409 79.2633C240.384 78.6204 239.155 78.5627 238.125 78.9979C238.363 79.0828 238.6 79.1882 238.833 79.3343C240.509 80.3864 241.023 82.602 239.966 84.2862L239.958 84.2813Z" fill="#804025"/>
<path d="M259.287 120.979L218.252 186.362C219.616 186.568 221.041 185.97 221.825 184.72L261.33 121.774C260.631 121.595 259.94 121.334 259.283 120.986L259.287 120.979Z" fill="#804025"/>
<path d="M233.881 80.4679C234.573 79.3657 235.775 78.7784 236.983 78.8011C237.092 77.5065 236.512 76.1903 235.332 75.4499C234.308 74.8069 233.078 74.7492 232.048 75.1844C232.287 75.2693 232.523 75.3747 232.756 75.5208C234.433 76.573 234.946 78.7885 233.889 80.4727L233.881 80.4679Z" fill="#804025"/>
<path d="M217.961 115.314C219.151 115.867 220.521 115.666 221.465 114.765C220.528 115.638 219.146 115.874 217.961 115.314Z" fill="#BE6944"/>
<path d="M219.283 98.3497C220.473 98.9019 221.831 98.7043 222.77 97.8112C221.83 98.6713 220.465 98.897 219.283 98.3497Z" fill="#BE6944"/>
<path d="M232.543 124.466C233.733 125.019 235.098 124.826 236.043 123.925C235.11 124.79 233.72 125.021 232.543 124.466Z" fill="#BE6944"/>
<path d="M201.933 140.834C203.131 141.391 204.502 141.191 205.451 140.282C204.513 141.155 203.123 141.387 201.933 140.834Z" fill="#BE6944"/>
<path d="M217.861 133.036C219.044 133.584 220.402 133.386 221.349 132.498C220.416 133.363 219.044 133.584 217.861 133.036Z" fill="#BE6944"/>
<path d="M216.523 149.991C217.709 150.551 219.087 150.356 220.036 149.447C219.098 150.32 217.714 150.543 216.523 149.991Z" fill="#BE6944"/>
<path d="M233.873 107.506C235.063 108.059 236.421 107.861 237.36 106.968C236.42 107.828 235.056 108.054 233.873 107.506Z" fill="#BE6944"/>
<path d="M201.829 158.564C203.019 159.116 204.377 158.918 205.316 158.025C204.376 158.885 203.012 159.111 201.829 158.564Z" fill="#BE6944"/>
<path d="M203.271 123.879C204.454 124.427 205.811 124.229 206.758 123.341C205.826 124.206 204.454 124.427 203.271 123.879Z" fill="#BE6944"/>
<path d="M187.239 149.407C188.43 149.959 189.787 149.762 190.727 148.869C189.786 149.729 188.422 149.954 187.239 149.407Z" fill="#BE6944"/>
<path d="M232.444 142.188C233.634 142.74 235.004 142.54 235.953 141.631C235.016 142.504 233.634 142.74 232.444 142.188Z" fill="#BE6944"/>
<path d="M216.412 167.716C217.609 168.273 218.98 168.072 219.924 167.171C218.987 168.044 217.597 168.276 216.412 167.716Z" fill="#BE6944"/>
<path d="M258.702 120.654C255.652 118.74 254.139 115.324 254.502 111.971C254.532 111.699 254.34 111.47 254.071 111.452C253.711 111.421 253.354 111.37 252.999 111.298C254.022 112.46 254.225 114.188 253.358 115.57C252.306 117.246 250.09 117.759 248.406 116.702C248.352 116.668 248.307 116.619 248.253 116.585C246.762 115.53 246.306 113.534 247.19 111.936C247.224 111.882 247.242 111.818 247.276 111.764C247.88 110.801 248.874 110.235 249.931 110.119C249.923 110.115 249.907 110.105 249.9 110.1C245.655 107.436 244.374 101.84 247.039 97.595C247.75 96.462 248.563 95.4253 249.588 94.7056C249.747 94.5893 249.71 94.3387 249.52 94.2956C248.689 94.1202 247.93 93.8818 247.131 93.3801C243.646 91.1932 242.256 86.9454 243.524 83.2193C243.577 83.0475 243.651 82.8776 243.718 82.7029C243.503 82.6656 243.284 82.6361 243.07 82.6318C241.849 82.612 240.66 83.1964 239.969 84.2984C241.021 82.6221 240.52 80.4039 238.836 79.347C238.611 79.2057 238.374 79.1004 238.128 79.0106C237.758 78.8759 237.372 78.8178 236.986 78.8132C235.765 78.7935 234.576 79.3778 233.884 80.4799C234.936 78.8036 234.436 76.5853 232.752 75.5284C232.526 75.3872 232.29 75.2818 232.043 75.192C231.673 75.0573 231.288 74.9993 230.901 74.9947C229.681 74.9749 228.492 75.5593 227.8 76.6613C228.852 74.985 228.351 72.7668 226.667 71.7098C226.442 71.5686 226.205 71.4633 225.959 71.3734C224.416 70.816 222.639 71.3886 221.728 72.8398L169.579 155.933C168.546 157.578 168.855 159.827 170.438 160.94C172.134 162.134 174.462 161.648 175.548 159.917C174.496 161.594 174.997 163.812 176.681 164.869C178.365 165.926 180.575 165.42 181.632 163.736C180.58 165.412 181.081 167.63 182.765 168.687C184.449 169.744 186.66 169.239 187.717 167.554C186.665 169.231 187.166 171.449 188.85 172.506C190.534 173.563 192.744 173.057 193.801 171.373C192.749 173.049 193.25 175.268 194.934 176.324C196.618 177.381 198.828 176.876 199.885 175.192C198.833 176.868 199.334 179.086 201.018 180.143C202.702 181.2 204.913 180.694 205.97 179.01C204.918 180.686 205.419 182.905 207.103 183.962C208.787 185.019 210.997 184.513 212.054 182.829C210.968 184.559 211.542 186.867 213.355 187.875C215.054 188.822 217.213 188.122 218.246 186.477L218.299 186.391L259.334 121.008C259.138 120.907 258.942 120.805 258.748 120.683L258.702 120.654ZM173.205 154.206L173.297 154.059C172.605 155.161 172.499 156.554 173.023 157.684C172.498 156.608 172.518 155.3 173.205 154.206ZM174.337 159.157C174.205 159.075 174.088 158.969 173.974 158.875C174.114 158.996 174.268 159.114 174.42 159.198C174.397 159.184 174.373 159.169 174.342 159.15L174.337 159.157ZM202.01 119.149C202.045 119.095 202.063 119.031 202.097 118.977C203.295 117.068 205.997 116.675 207.701 118.372C208.64 119.308 208.977 120.752 208.546 122.007C207.76 124.294 205.139 125.126 203.222 123.923C203.168 123.889 203.123 123.84 203.069 123.806C201.578 122.751 201.122 120.755 202.006 119.157L202.01 119.149ZM187.195 149.443C187.141 149.409 187.096 149.359 187.042 149.325C185.551 148.271 185.094 146.275 185.978 144.677C186.012 144.623 186.031 144.559 186.065 144.504C187.263 142.595 189.965 142.203 191.669 143.9C192.608 144.835 192.945 146.28 192.514 147.535C191.728 149.822 189.107 150.654 187.19 149.451L187.195 149.443ZM219.234 98.3937C219.18 98.3596 219.135 98.31 219.081 98.2759C217.59 97.2213 217.133 95.2256 218.017 93.6276C218.051 93.5733 218.07 93.5092 218.104 93.4549C219.302 91.5458 222.004 91.1536 223.7 92.8458C224.639 93.7809 224.976 95.2257 224.545 96.4807C223.759 98.7674 221.138 99.5997 219.221 98.3966L219.234 98.3937ZM201.884 140.878C201.83 140.844 201.785 140.795 201.731 140.76C200.24 139.706 199.784 137.71 200.668 136.112C200.702 136.058 200.72 135.994 200.754 135.939C201.952 134.03 204.654 133.638 206.351 135.33C207.289 136.265 207.626 137.71 207.196 138.965C206.409 141.252 203.789 142.084 201.872 140.881L201.884 140.878ZM217.904 115.354C217.849 115.319 217.805 115.27 217.751 115.236C216.26 114.181 215.803 112.185 216.687 110.587C216.721 110.533 216.74 110.469 216.774 110.415C217.972 108.506 220.674 108.113 222.37 109.806C223.309 110.741 223.646 112.186 223.215 113.441C222.429 115.727 219.808 116.56 217.891 115.356L217.904 115.354ZM216.588 128.309C216.622 128.255 216.64 128.191 216.675 128.136C217.873 126.227 220.574 125.835 222.279 127.532C223.217 128.467 223.554 129.912 223.124 131.167C222.337 133.454 219.717 134.286 217.8 133.083C217.745 133.049 217.701 132.999 217.646 132.965C216.156 131.911 215.699 129.915 216.583 128.317L216.588 128.309ZM201.772 158.603C201.718 158.569 201.674 158.519 201.619 158.485C200.128 157.43 199.672 155.435 200.556 153.837C200.59 153.782 200.608 153.718 200.642 153.664C201.841 151.755 204.542 151.363 206.247 153.06C207.185 153.995 207.522 155.44 207.091 156.695C206.305 158.981 203.684 159.814 201.768 158.611L201.772 158.603ZM233.811 107.553C233.757 107.519 233.712 107.47 233.658 107.436C232.167 106.381 231.711 104.385 232.595 102.787C232.629 102.733 232.647 102.669 232.681 102.615C233.88 100.705 236.581 100.313 238.278 102.005C239.216 102.941 239.553 104.385 239.123 105.64C238.337 107.927 235.716 108.759 233.799 107.556L233.811 107.553ZM216.462 150.038C216.407 150.004 216.363 149.954 216.308 149.92C214.818 148.866 214.361 146.87 215.245 145.272C215.279 145.218 215.298 145.153 215.332 145.099C216.53 143.19 219.232 142.798 220.928 144.49C221.866 145.425 222.204 146.87 221.773 148.125C220.987 150.412 218.366 151.244 216.449 150.041L216.462 150.038ZM232.481 124.513C232.427 124.479 232.382 124.43 232.328 124.395C230.837 123.341 230.38 121.345 231.264 119.747C231.298 119.693 231.317 119.629 231.351 119.574C232.549 117.665 235.251 117.273 236.947 118.965C237.886 119.9 238.223 121.345 237.792 122.6C237.006 124.887 234.385 125.719 232.468 124.516L232.481 124.513ZM236.848 136.687C237.787 137.622 238.124 139.067 237.693 140.322C236.907 142.609 234.286 143.441 232.369 142.238C232.315 142.204 232.27 142.154 232.216 142.12C230.725 141.065 230.269 139.07 231.153 137.472C231.187 137.417 231.205 137.353 231.239 137.299C232.437 135.39 235.139 134.998 236.843 136.695L236.848 136.687ZM216.35 167.762C216.295 167.728 216.251 167.679 216.197 167.645C214.706 166.59 214.249 164.594 215.133 162.996C215.167 162.942 215.186 162.878 215.22 162.824C216.418 160.915 219.12 160.522 220.824 162.219C221.762 163.154 222.099 164.599 221.669 165.854C220.883 168.141 218.262 168.973 216.345 167.77L216.35 167.762Z" fill="#BE6944"/>
<path d="M248.455 116.658C249.653 117.216 251.023 117.015 251.968 116.114C251.03 116.987 249.641 117.218 248.455 116.658Z" fill="#BE6944"/>
<path d="M223.061 92.3146C221.384 91.2624 219.166 91.7633 218.108 93.4477C218.074 93.5021 218.056 93.5661 218.022 93.6205C218.994 92.2614 220.81 91.8325 222.3 92.7678C223.791 93.7032 224.242 95.674 223.306 97.1643C223.15 97.4127 222.958 97.6164 222.754 97.8025C221.807 98.6905 220.45 98.8881 219.268 98.3409C219.206 98.302 219.137 98.2911 219.078 98.2648C219.132 98.2989 219.177 98.3485 219.231 98.3826C220.907 99.4349 223.126 98.9339 224.183 97.2495C225.24 95.5651 224.735 93.3543 223.058 92.302L223.061 92.3146Z" fill="#804025"/>
<path d="M222.777 97.8162C222.973 97.6253 223.166 97.4216 223.322 97.1733C224.262 95.6753 223.744 93.6735 222.316 92.7772C220.888 91.8809 219.009 92.2708 218.038 93.6298C217.154 95.2279 217.61 97.2238 219.101 98.2785C219.163 98.3175 219.232 98.3283 219.294 98.3673C220.476 98.9144 221.848 98.6935 222.78 97.8289L222.777 97.8162Z" fill="#8E482A"/>
<path d="M219.283 98.3486C219.221 98.3098 219.153 98.299 219.091 98.2602C219.153 98.299 219.221 98.3098 219.28 98.336L219.283 98.3486Z" fill="#8E482A"/>
<path d="M222.308 92.7723C223.744 93.6735 224.249 95.6782 223.314 97.1684C223.158 97.4168 222.973 97.6253 222.77 97.8114C222.973 97.6253 223.166 97.4216 223.322 97.1733C224.262 95.6753 223.806 93.7124 222.316 92.7772C220.826 91.8419 219.009 92.2708 218.038 93.6298C219.009 92.2708 220.88 91.876 222.316 92.7772L222.308 92.7723Z" fill="#8E482A"/>
<path d="M207.042 117.839C205.365 116.787 203.146 117.288 202.089 118.972C202.055 119.027 202.036 119.091 202.002 119.145C202.974 117.786 204.791 117.357 206.281 118.292C207.771 119.228 208.222 121.199 207.287 122.689C207.131 122.937 206.943 123.133 206.748 123.324C205.801 124.212 204.451 124.415 203.261 123.863C203.194 123.831 203.13 123.813 203.063 123.782C203.118 123.816 203.162 123.865 203.216 123.899C204.893 124.952 207.112 124.451 208.169 122.766C209.226 121.082 208.72 118.871 207.044 117.819L207.042 117.839Z" fill="#804025"/>
<path d="M206.758 123.341C206.954 123.15 207.146 122.946 207.297 122.706C208.237 121.208 207.719 119.206 206.291 118.31C204.863 117.413 202.985 117.803 202.013 119.162C201.129 120.76 201.586 122.756 203.077 123.811C203.139 123.85 203.216 123.866 203.282 123.897C204.465 124.444 205.829 124.218 206.769 123.358L206.758 123.341Z" fill="#8E482A"/>
<path d="M203.271 123.878C203.205 123.847 203.141 123.829 203.066 123.793C203.128 123.831 203.197 123.842 203.264 123.873L203.271 123.878Z" fill="#8E482A"/>
<path d="M206.288 118.297C207.724 119.198 208.23 121.203 207.294 122.693C207.138 122.941 206.953 123.15 206.755 123.328C206.958 123.142 207.143 122.934 207.294 122.693C208.234 121.195 207.779 119.232 206.288 118.297C204.798 117.362 202.982 117.791 202.01 119.15C202.982 117.791 204.853 117.396 206.288 118.297Z" fill="#8E482A"/>
<path d="M191.022 143.364C189.345 142.312 187.127 142.813 186.07 144.497C186.036 144.551 186.017 144.615 185.983 144.67C186.955 143.311 188.771 142.882 190.262 143.817C191.752 144.752 192.203 146.723 191.267 148.214C191.112 148.462 190.919 148.666 190.715 148.852C189.769 149.74 188.411 149.937 187.229 149.39C187.167 149.351 187.098 149.34 187.039 149.314C187.093 149.348 187.138 149.398 187.192 149.432C188.869 150.484 191.087 149.983 192.144 148.299C193.202 146.614 192.696 144.404 191.019 143.351L191.022 143.364Z" fill="#804025"/>
<path d="M190.734 148.873C190.929 148.682 191.122 148.479 191.278 148.23C192.218 146.732 191.7 144.731 190.272 143.834C188.844 142.938 186.965 143.328 185.994 144.687C185.11 146.285 185.566 148.281 187.057 149.336C187.119 149.375 187.188 149.385 187.25 149.424C188.432 149.971 189.804 149.751 190.736 148.886L190.734 148.873Z" fill="#8E482A"/>
<path d="M187.239 149.406C187.177 149.367 187.109 149.356 187.047 149.317C187.109 149.356 187.177 149.367 187.236 149.393L187.239 149.406Z" fill="#8E482A"/>
<path d="M190.264 143.829C191.7 144.731 192.205 146.735 191.27 148.226C191.114 148.474 190.929 148.682 190.726 148.868C190.929 148.682 191.122 148.479 191.278 148.23C192.218 146.732 191.762 144.77 190.272 143.834C188.782 142.899 186.965 143.328 185.994 144.687C186.965 143.328 188.836 142.933 190.272 143.834L190.264 143.829Z" fill="#8E482A"/>
<path d="M221.743 109.272C220.067 108.219 217.848 108.72 216.791 110.405C216.757 110.459 216.738 110.523 216.704 110.577C217.676 109.218 219.492 108.789 220.983 109.725C222.473 110.66 222.921 112.618 221.998 114.106L221.989 114.121C221.838 114.362 221.658 114.563 221.459 114.741C220.51 115.649 219.14 115.85 217.955 115.29C217.893 115.251 217.824 115.24 217.765 115.214C217.819 115.248 217.864 115.298 217.918 115.332C219.595 116.384 221.813 115.883 222.871 114.199C223.928 112.514 223.422 110.303 221.745 109.251L221.743 109.272Z" fill="#804025"/>
<path d="M221.47 114.758C221.66 114.575 221.84 114.374 221.991 114.133L222.001 114.118C222.924 112.63 222.414 110.633 220.985 109.737C219.557 108.841 217.679 109.231 216.707 110.59C215.823 112.188 216.28 114.184 217.771 115.238C217.833 115.277 217.902 115.288 217.964 115.327C219.154 115.879 220.531 115.651 221.468 114.778L221.47 114.758Z" fill="#8E482A"/>
<path d="M221.469 114.757C221.668 114.579 221.848 114.378 221.999 114.138C221.848 114.378 221.668 114.579 221.477 114.762L221.469 114.757Z" fill="#8E482A"/>
<path d="M220.978 109.732C222.406 110.629 222.916 112.626 221.993 114.113C222.916 112.626 222.468 110.668 220.978 109.732C219.487 108.797 217.671 109.226 216.699 110.585C217.671 109.226 219.542 108.831 220.978 109.732Z" fill="#8E482A"/>
<path d="M217.961 115.313C217.899 115.275 217.83 115.264 217.768 115.225C217.83 115.264 217.899 115.275 217.958 115.301L217.961 115.313Z" fill="#8E482A"/>
<path d="M205.719 134.804C204.042 133.752 201.824 134.253 200.767 135.937C200.733 135.992 200.714 136.056 200.68 136.11C201.652 134.751 203.468 134.322 204.959 135.257C206.449 136.193 206.897 138.151 205.974 139.638C205.974 139.638 205.969 139.646 205.964 139.654C205.818 139.887 205.638 140.087 205.435 140.274C204.486 141.182 203.111 141.39 201.918 140.826C201.864 140.791 201.795 140.781 201.733 140.742C201.787 140.776 201.832 140.825 201.886 140.859C203.563 141.912 205.781 141.411 206.839 139.726C207.896 138.042 207.39 135.831 205.713 134.779L205.719 134.804Z" fill="#804025"/>
<path d="M205.45 140.282C205.641 140.099 205.821 139.898 205.972 139.658C205.972 139.658 205.977 139.65 205.982 139.642C206.909 138.147 206.394 136.158 204.966 135.262C203.538 134.366 201.66 134.755 200.688 136.114C199.804 137.712 200.26 139.708 201.751 140.763C201.813 140.802 201.877 140.821 201.937 140.847C203.126 141.399 204.516 141.167 205.453 140.295L205.45 140.282Z" fill="#8E482A"/>
<path d="M201.933 140.833C201.871 140.794 201.803 140.784 201.749 140.75C201.81 140.789 201.879 140.799 201.933 140.833Z" fill="#8E482A"/>
<path d="M204.958 135.257C206.386 136.153 206.897 138.15 205.974 139.637C206.901 138.142 206.449 136.192 204.958 135.257C203.468 134.322 201.652 134.751 200.68 136.109C201.652 134.751 203.523 134.356 204.958 135.257Z" fill="#8E482A"/>
<path d="M205.45 140.282C205.64 140.099 205.828 139.903 205.979 139.662C205.828 139.903 205.648 140.104 205.457 140.287L205.45 140.282Z" fill="#8E482A"/>
<path d="M236.325 118.423C234.649 117.371 232.43 117.872 231.373 119.557C231.339 119.611 231.32 119.675 231.286 119.729C232.258 118.37 234.075 117.941 235.565 118.877C237.055 119.812 237.503 121.77 236.581 123.258L236.571 123.273C236.42 123.514 236.235 123.722 236.036 123.901C235.092 124.801 233.722 125.002 232.537 124.442C232.483 124.408 232.406 124.392 232.352 124.358C232.406 124.392 232.451 124.442 232.505 124.476C234.182 125.528 236.401 125.027 237.458 123.343C238.515 121.658 238.009 119.448 236.332 118.395L236.325 118.423Z" fill="#804025"/>
<path d="M236.047 123.917C236.238 123.734 236.423 123.526 236.574 123.285L236.583 123.27C237.506 121.782 236.996 119.785 235.568 118.889C234.14 117.993 232.261 118.383 231.289 119.742C230.406 121.34 230.862 123.336 232.353 124.39C232.415 124.429 232.479 124.448 232.546 124.479C233.736 125.031 235.113 124.802 236.045 123.938L236.047 123.917Z" fill="#8E482A"/>
<path d="M236.046 123.917C236.25 123.731 236.43 123.53 236.581 123.289C236.43 123.53 236.245 123.739 236.054 123.922L236.046 123.917Z" fill="#8E482A"/>
<path d="M235.568 118.889C236.996 119.785 237.506 121.782 236.583 123.27C237.506 121.782 237.058 119.824 235.568 118.889C234.078 117.954 232.261 118.383 231.289 119.742C232.261 118.383 234.132 117.988 235.568 118.889Z" fill="#8E482A"/>
<path d="M232.543 124.465C232.481 124.427 232.412 124.416 232.35 124.377C232.412 124.416 232.481 124.427 232.535 124.461L232.543 124.465Z" fill="#8E482A"/>
<path d="M220.301 143.956C218.624 142.904 216.406 143.405 215.349 145.089C215.315 145.143 215.296 145.207 215.262 145.262C216.234 143.903 218.05 143.474 219.541 144.409C221.031 145.344 221.479 147.303 220.556 148.79C220.556 148.79 220.551 148.798 220.547 148.806C220.395 149.046 220.215 149.247 220.012 149.433C219.063 150.342 217.698 150.534 216.5 149.977C216.446 149.943 216.377 149.932 216.315 149.893C216.369 149.928 216.414 149.977 216.468 150.011C218.145 151.064 220.364 150.563 221.421 148.878C222.478 147.194 221.972 144.983 220.295 143.931L220.301 143.956Z" fill="#804025"/>
<path d="M220.027 149.442C220.218 149.259 220.403 149.05 220.554 148.81C220.554 148.81 220.559 148.802 220.564 148.794C221.491 147.299 220.976 145.31 219.548 144.414C218.12 143.517 216.242 143.907 215.27 145.266C214.386 146.864 214.843 148.86 216.334 149.915C216.396 149.954 216.46 149.973 216.519 149.999C217.709 150.551 219.093 150.327 220.03 149.455L220.027 149.442Z" fill="#8E482A"/>
<path d="M219.548 144.414C220.976 145.31 221.486 147.307 220.564 148.794C221.491 147.299 221.038 145.349 219.548 144.414C218.058 143.478 216.242 143.907 215.27 145.266C216.242 143.907 218.112 143.513 219.548 144.414Z" fill="#8E482A"/>
<path d="M220.027 149.442C220.226 149.263 220.411 149.055 220.562 148.814C220.411 149.055 220.226 149.263 220.035 149.447L220.027 149.442Z" fill="#8E482A"/>
<path d="M216.523 149.99C216.469 149.956 216.393 149.94 216.338 149.906C216.393 149.94 216.461 149.951 216.523 149.99Z" fill="#8E482A"/>
<path d="M237.651 101.471C235.974 100.419 233.756 100.92 232.699 102.604C232.664 102.659 232.646 102.723 232.612 102.777C233.584 101.418 235.4 100.989 236.89 101.925C238.381 102.86 238.832 104.831 237.896 106.321C237.74 106.569 237.548 106.773 237.344 106.959C236.398 107.847 235.04 108.045 233.858 107.498C233.796 107.459 233.727 107.448 233.668 107.422C233.722 107.456 233.767 107.505 233.821 107.539C235.498 108.592 237.716 108.091 238.773 106.406C239.83 104.722 239.325 102.511 237.648 101.459L237.651 101.471Z" fill="#804025"/>
<path d="M237.36 106.968C237.555 106.777 237.748 106.573 237.904 106.325C238.844 104.827 238.326 102.825 236.898 101.929C235.47 101.033 233.592 101.423 232.62 102.782C231.736 104.38 232.192 106.376 233.683 107.43C233.746 107.469 233.814 107.48 233.877 107.519C235.059 108.066 236.43 107.845 237.363 106.981L237.36 106.968Z" fill="#8E482A"/>
<path d="M233.873 107.505C233.811 107.467 233.742 107.456 233.681 107.417C233.742 107.456 233.811 107.467 233.87 107.493L233.873 107.505Z" fill="#8E482A"/>
<path d="M236.898 101.929C238.334 102.83 238.839 104.835 237.904 106.325C237.748 106.574 237.563 106.782 237.36 106.968C237.563 106.782 237.756 106.578 237.911 106.33C238.852 104.832 238.396 102.869 236.906 101.934C235.415 100.999 233.599 101.428 232.627 102.786C233.599 101.428 235.47 101.033 236.906 101.934L236.898 101.929Z" fill="#8E482A"/>
<path d="M221.631 126.996C219.955 125.944 217.736 126.445 216.679 128.129C216.645 128.183 216.626 128.247 216.592 128.302C217.564 126.943 219.381 126.514 220.871 127.449C222.361 128.385 222.812 130.355 221.877 131.846C221.721 132.094 221.533 132.29 221.337 132.481C220.391 133.369 219.041 133.571 217.851 133.019C217.784 132.988 217.72 132.97 217.653 132.938C217.707 132.972 217.752 133.022 217.806 133.056C219.483 134.108 221.702 133.607 222.759 131.923C223.816 130.239 223.31 128.028 221.633 126.976L221.631 126.996Z" fill="#804025"/>
<path d="M221.34 132.493C221.536 132.302 221.728 132.098 221.879 131.858C222.82 130.36 222.302 128.358 220.874 127.462C219.446 126.565 217.567 126.955 216.595 128.314C215.711 129.912 216.168 131.908 217.659 132.963C217.721 133.002 217.798 133.017 217.865 133.049C219.047 133.596 220.411 133.37 221.351 132.51L221.34 132.493Z" fill="#8E482A"/>
<path d="M217.861 133.035C217.794 133.004 217.731 132.985 217.656 132.949C217.718 132.988 217.787 132.999 217.853 133.03L217.861 133.035Z" fill="#8E482A"/>
<path d="M220.879 127.454C222.314 128.355 222.82 130.36 221.884 131.85C221.728 132.098 221.544 132.307 221.345 132.485C221.548 132.299 221.733 132.09 221.884 131.85C222.824 130.352 222.369 128.389 220.879 127.454C219.388 126.518 217.572 126.947 216.6 128.306C217.572 126.947 219.443 126.553 220.879 127.454Z" fill="#8E482A"/>
<path d="M205.612 152.521C203.935 151.468 201.717 151.969 200.659 153.654C200.625 153.708 200.607 153.772 200.573 153.827C201.545 152.467 203.361 152.039 204.851 152.974C206.342 153.909 206.793 155.88 205.857 157.37C205.701 157.619 205.509 157.822 205.305 158.009C204.358 158.897 203.001 159.094 201.819 158.547C201.757 158.508 201.688 158.497 201.629 158.471C201.683 158.505 201.728 158.555 201.782 158.589C203.459 159.641 205.677 159.14 206.734 157.456C207.791 155.771 207.286 153.56 205.609 152.508L205.612 152.521Z" fill="#804025"/>
<path d="M205.316 158.025C205.511 157.834 205.704 157.631 205.86 157.382C206.8 155.884 206.282 153.882 204.854 152.986C203.426 152.09 201.548 152.48 200.576 153.839C199.692 155.437 200.149 157.433 201.639 158.487C201.702 158.526 201.771 158.537 201.833 158.576C203.015 159.123 204.387 158.903 205.319 158.038L205.316 158.025Z" fill="#8E482A"/>
<path d="M201.829 158.562C201.767 158.524 201.699 158.513 201.637 158.474C201.699 158.513 201.767 158.524 201.826 158.55L201.829 158.562Z" fill="#8E482A"/>
<path d="M204.854 152.986C206.29 153.887 206.795 155.892 205.86 157.382C205.704 157.631 205.519 157.839 205.316 158.025C205.519 157.839 205.712 157.636 205.868 157.387C206.808 155.889 206.352 153.926 204.862 152.991C203.372 152.056 201.556 152.485 200.584 153.844C201.556 152.485 203.426 152.09 204.862 152.991L204.854 152.986Z" fill="#8E482A"/>
<path d="M247.289 111.761C247.255 111.816 247.236 111.88 247.202 111.934C248.174 110.575 249.99 110.146 251.481 111.081C252.971 112.017 253.427 113.98 252.491 115.47C252.491 115.47 252.491 115.47 252.486 115.478C252.335 115.719 252.155 115.919 251.957 116.098C251.008 117.006 249.638 117.207 248.445 116.642C248.391 116.608 248.322 116.597 248.26 116.558C248.314 116.592 248.359 116.642 248.413 116.676C250.09 117.728 252.308 117.227 253.365 115.543C254.233 114.161 254.03 112.433 253.006 111.271C251.951 111.074 250.913 110.693 249.95 110.089C248.893 110.204 247.904 110.763 247.295 111.733L247.289 111.761Z" fill="#804025"/>
<path d="M251.959 116.109C252.15 115.926 252.33 115.725 252.481 115.485C252.481 115.485 252.481 115.485 252.486 115.477C253.421 113.987 252.904 111.985 251.475 111.089C250.047 110.192 248.169 110.582 247.197 111.941C246.313 113.539 246.77 115.535 248.261 116.59C248.323 116.629 248.387 116.648 248.446 116.674C249.636 117.226 251.021 117.002 251.958 116.13L251.959 116.109Z" fill="#8E482A"/>
<path d="M248.455 116.657C248.393 116.618 248.325 116.608 248.271 116.574C248.332 116.613 248.401 116.623 248.455 116.657Z" fill="#8E482A"/>
<path d="M251.48 111.081C252.908 111.977 253.426 113.979 252.491 115.469C253.426 113.979 252.97 112.016 251.48 111.081C249.99 110.146 248.174 110.574 247.202 111.933C248.174 110.574 250.044 110.18 251.48 111.081Z" fill="#8E482A"/>
<path d="M251.959 116.109C252.157 115.931 252.342 115.722 252.489 115.489C252.338 115.73 252.157 115.931 251.967 116.114L251.959 116.109Z" fill="#8E482A"/>
<path d="M236.214 136.148C234.537 135.096 232.318 135.597 231.261 137.281C231.227 137.335 231.209 137.399 231.174 137.454C232.146 136.095 233.963 135.666 235.453 136.601C236.944 137.536 237.399 139.5 236.464 140.99C236.464 140.99 236.464 140.99 236.459 140.998C236.308 141.238 236.128 141.439 235.929 141.617C234.981 142.526 233.611 142.726 232.421 142.174C232.359 142.135 232.29 142.124 232.223 142.093C232.277 142.127 232.322 142.177 232.376 142.211C234.053 143.263 236.271 142.762 237.328 141.078C238.385 139.394 237.88 137.183 236.203 136.13L236.214 136.148Z" fill="#804025"/>
<path d="M235.948 141.639C236.138 141.456 236.318 141.255 236.469 141.014C236.469 141.014 236.469 141.014 236.474 141.007C237.409 139.516 236.892 137.515 235.464 136.618C234.035 135.722 232.157 136.112 231.185 137.471C230.301 139.069 230.758 141.065 232.249 142.12C232.311 142.159 232.38 142.169 232.447 142.201C233.637 142.753 235.018 142.516 235.955 141.644L235.948 141.639Z" fill="#8E482A"/>
<path d="M232.443 142.187C232.382 142.148 232.313 142.137 232.246 142.106C232.308 142.145 232.377 142.156 232.443 142.187Z" fill="#8E482A"/>
<path d="M235.461 136.606C236.889 137.502 237.407 139.504 236.472 140.994C237.407 139.504 236.951 137.541 235.461 136.606C233.971 135.671 232.154 136.099 231.183 137.458C232.154 136.099 234.025 135.705 235.461 136.606Z" fill="#8E482A"/>
<path d="M235.947 141.639C236.138 141.455 236.326 141.259 236.477 141.019C236.326 141.259 236.146 141.46 235.955 141.643L235.947 141.639Z" fill="#8E482A"/>
<path d="M220.194 161.673C218.518 160.62 216.299 161.121 215.242 162.806C215.208 162.86 215.189 162.924 215.155 162.979C216.127 161.619 217.943 161.191 219.434 162.126C220.924 163.061 221.38 165.024 220.444 166.515C220.444 166.515 220.444 166.515 220.44 166.522C220.289 166.763 220.108 166.964 219.91 167.142C218.961 168.051 217.591 168.251 216.398 167.686C216.344 167.652 216.275 167.641 216.213 167.602C216.267 167.637 216.312 167.686 216.366 167.72C218.043 168.773 220.261 168.272 221.319 166.587C222.376 164.903 221.87 162.692 220.193 161.64L220.194 161.673Z" fill="#804025"/>
<path d="M219.92 167.159C220.111 166.976 220.291 166.775 220.442 166.534C220.442 166.534 220.442 166.534 220.447 166.527C221.382 165.036 220.864 163.035 219.436 162.138C218.008 161.242 216.13 161.632 215.158 162.991C214.274 164.589 214.731 166.585 216.222 167.64C216.284 167.679 216.348 167.697 216.407 167.723C217.597 168.275 218.981 168.052 219.918 167.179L219.92 167.159Z" fill="#8E482A"/>
<path d="M219.436 162.138C220.864 163.035 221.382 165.036 220.447 166.527C221.382 165.036 220.927 163.074 219.436 162.138C217.946 161.203 216.13 161.632 215.158 162.991C216.13 161.632 218.001 161.237 219.436 162.138Z" fill="#8E482A"/>
<path d="M216.411 167.714C216.349 167.676 216.281 167.665 216.227 167.631C216.289 167.67 216.357 167.68 216.411 167.714Z" fill="#8E482A"/>
<path d="M219.92 167.159C220.118 166.98 220.303 166.772 220.45 166.539C220.299 166.779 220.118 166.98 219.928 167.163L219.92 167.159Z" fill="#8E482A"/>
</g>
<path d="M181.72 242.896V223.099H189.486C193.984 223.099 196.568 225.875 196.568 229.771C196.568 233.722 193.943 236.443 189.376 236.443H185.822V242.896H181.72ZM185.822 233.135H188.72C191.154 233.135 192.343 231.767 192.329 229.771C192.343 227.802 191.154 226.476 188.72 226.463H185.822V233.135ZM200.532 243.142C199.247 243.142 198.208 242.117 198.236 240.845C198.208 239.588 199.247 238.562 200.532 238.576C201.749 238.562 202.802 239.588 202.802 240.845C202.802 242.117 201.749 243.142 200.532 243.142ZM206.138 242.896V223.099H213.904C218.402 223.099 220.986 225.875 220.986 229.771C220.986 233.722 218.361 236.443 213.794 236.443H210.24V242.896H206.138ZM210.24 233.135H213.138C215.572 233.135 216.761 231.767 216.747 229.771C216.761 227.802 215.572 226.476 213.138 226.463H210.24V233.135ZM227.548 223.099V242.896H223.501V223.099H227.548ZM237.419 243.197C232.866 243.183 230.077 240.244 230.091 235.541C230.077 230.961 232.907 227.857 237.255 227.857C241.152 227.857 244.228 230.318 244.228 235.377V236.525H234.083C234.083 238.767 235.409 240.148 237.501 240.162C238.882 240.148 239.866 239.547 240.263 238.658H244.118C243.544 241.406 241.083 243.183 237.419 243.197ZM234.083 233.982H240.4C240.386 232.177 239.142 230.879 237.337 230.892C235.478 230.879 234.165 232.273 234.083 233.982Z" fill="black"/>
</g>
<defs>
<filter id="filter0_d_3224_14008" x="151.541" y="29.3638" width="98.6936" height="122.797" filterUnits="userSpaceOnUse" color-interpolation-filters="sRGB">
<feFlood flood-opacity="0" result="BackgroundImageFix"/>
<feColorMatrix in="SourceAlpha" type="matrix" values="0 0 0 0 0 0 0 0 0 0 0 0 0 0 0 0 0 0 127 0" result="hardAlpha"/>
<feOffset dx="4" dy="5"/>
<feComposite in2="hardAlpha" operator="out"/>
<feColorMatrix type="matrix" values="0 0 0 0 0 0 0 0 0 0 0 0 0 0 0 0 0 0 0.25 0"/>
<feBlend mode="normal" in2="BackgroundImageFix" result="effect1_dropShadow_3224_14008"/>
<feBlend mode="normal" in="SourceGraphic" in2="effect1_dropShadow_3224_14008" result="shape"/>
</filter>
<clipPath id="clip0_3224_14008">
<rect width="59.5559" height="106.917" fill="white" transform="translate(224.397 68.5869) rotate(32.1127)"/>
</clipPath>
</defs>
</svg>
