<svg width="351" height="265" viewBox="0 0 351 265" fill="none" xmlns="http://www.w3.org/2000/svg">
<rect x="0.933594" y="0.648438" width="350" height="264" fill="#D38D8D"/>
<path d="M103.016 169.879L202.661 206.648L282.54 170.726L175.774 129.137L103.016 169.879Z" fill="#0C1A27"/>
<path d="M117.613 162.176L220.973 198.527L284.04 170.497L180.68 134.146L117.613 162.176Z" fill="#B0B0B0"/>
<path d="M129.721 143.918L220.82 176.752L271.274 154.252L180.174 121.418L129.721 143.918Z" fill="#373943"/>
<path d="M180.241 126.847L271.34 159.681L271.34 150.338L180.24 117.504L180.241 126.847Z" fill="#4A4D5B"/>
<path d="M180.231 126.827L129.84 149.305L129.84 139.982L180.231 117.504L180.231 126.827Z" fill="#202129"/>
<path d="M180.233 126.827L177.972 127.838L173.09 120.681L180.233 117.504L180.233 126.827Z" fill="black"/>
<path d="M180.233 126.827L266.044 157.828V148.303L180.232 117.504L180.233 126.827Z" fill="black"/>
<path d="M180.231 126.826L261.361 156.078L258.188 157.217L177.975 127.84L180.231 126.826Z" fill="#21232C"/>
<path fill-rule="evenodd" clip-rule="evenodd" d="M220.971 177.504L117.611 141.153L180.678 113.123L284.038 149.474L220.971 177.504ZM220.887 172.836L129.787 140.002L180.241 117.502L271.34 150.336L220.887 172.836Z" fill="#CBE6FF"/>
<path fill-rule="evenodd" clip-rule="evenodd" d="M220.971 177.504L117.611 141.153L180.678 113.123L284.038 149.474L220.971 177.504ZM220.887 172.836L129.787 140.002L180.241 117.502L271.34 150.336L220.887 172.836Z" fill="url(#paint0_linear_505_16153)"/>
<path d="M117.613 141.152L220.973 177.497V198.526L117.613 162.175V141.152Z" fill="#213547"/>
<path d="M284.039 149.475L220.973 177.503V198.527L284.039 170.497V149.475Z" fill="#416E97"/>
<path d="M163.535 134.702L236.658 162.126L241.512 159.587L167.107 132.947L163.535 134.702Z" fill="#21232C"/>
<path d="M165.528 131.133L238.748 158.099L238.748 160.681L165.527 133.714L165.528 131.133Z" fill="#CC8259"/>
<path d="M165.527 131.133L238.748 158.099L241.677 156.572L168.457 129.605L165.527 131.133Z" fill="#FFB287"/>
<path d="M214.996 149.09L238.744 157.78L241.674 156.253L217.926 147.562L214.996 149.09Z" fill="#E87F45"/>
<path d="M223.146 151.731L233.867 155.745L235.508 154.893L224.788 150.879L223.146 151.731Z" fill="#563320"/>
<path d="M238.159 157.319L237.896 156.721L239.538 155.869L239.874 156.366L238.159 157.319Z" fill="#EC9D70"/>
<path d="M223.471 151.367L237.899 156.723L238.16 157.323L233.751 155.694L233.509 155.387L223.144 151.514L223.471 151.367Z" fill="#CC8259"/>
<path d="M223.469 151.367L237.897 156.723L239.538 155.872L225.11 150.516L223.469 151.367Z" fill="#FFB287"/>
<path d="M223.466 151.368L223.158 151.508L224.8 150.656L225.108 150.516L223.466 151.368Z" fill="#B88467"/>
<path d="M238.745 161.066L238.744 157.779L241.674 156.252L241.675 159.539L238.745 161.066Z" fill="#783814"/>
<path d="M214.996 149.088L238.754 157.803V161.092L214.996 152.328V149.088Z" fill="#9E4E21"/>
<path d="M263.073 158.775L263.072 153.939L272.531 149.805L282.542 150.201L263.073 158.775Z" fill="#32485C"/>
<path d="M278.813 172.825L263.053 158.747L284.105 149.467L284.038 170.498L278.813 172.825Z" fill="#213547"/>
<path d="M172.348 112.478L263.447 145.312L311.934 143.594L220.834 110.76L172.348 112.478Z" fill="#CBE6FF"/>
<path d="M172.348 112.478L263.447 145.312L311.934 143.594L220.834 110.76L172.348 112.478Z" fill="url(#paint1_linear_505_16153)"/>
<path d="M263.445 152.922V145.312L311.932 143.594L311.933 150.278L263.445 152.922Z" fill="#416E97"/>
<path d="M263.459 152.939V145.329L172.348 112.477L172.349 119.161L263.459 152.939Z" fill="#213547"/>
<defs>
<linearGradient id="paint0_linear_505_16153" x1="246.456" y1="132.358" x2="235.009" y2="162.611" gradientUnits="userSpaceOnUse">
<stop stop-color="#3A6F9F"/>
<stop offset="1" stop-color="#CBE6FF" stop-opacity="0"/>
</linearGradient>
<linearGradient id="paint1_linear_505_16153" x1="250.22" y1="115.189" x2="240.898" y2="138.573" gradientUnits="userSpaceOnUse">
<stop stop-color="#3A6F9F"/>
<stop offset="1" stop-color="#CBE6FF"/>
</linearGradient>
</defs>
</svg>
