<svg width="351" height="265" viewBox="0 0 351 265" fill="none" xmlns="http://www.w3.org/2000/svg">
<rect x="0.933594" y="0.648438" width="350" height="264" fill="#7C92BC"/>
<path d="M109.441 181.037L175.497 148.541L265.597 178.721L195.225 212.851L109.441 181.037Z" fill="#2F231F"/>
<path d="M266.533 178.375L281.006 171.291L280.798 173.968L266.533 181.321L266.533 178.375Z" fill="#BA6649"/>
<path d="M266.526 178.392L263.564 176.697L263.566 179.727L266.526 181.338L266.526 178.392Z" fill="#512A1D"/>
<path d="M214.543 200.113L326.173 145.363V149.223L214.543 203.783V200.113Z" fill="#BA6649"/>
<path d="M214.531 200.104L124.451 169.994L124.511 173.694L214.581 203.804L214.541 200.104H214.531Z" fill="#D29C85"/>
<path d="M124.432 169.923L236.062 115.213L326.162 145.393L214.532 200.103L124.432 169.923Z" fill="#D3896E"/>
<path d="M222.983 180.393L132.903 150.283L126.812 168.713L216.882 198.823L222.993 180.393H222.983Z" fill="#FFEEE7"/>
<path d="M222.982 180.383L132.902 150.273L182.532 133.033L272.602 163.143L222.982 180.383Z" fill="#F2E1DA"/>
<path d="M222.982 180.383L132.902 150.273L182.532 133.033L272.602 163.143L222.982 180.383Z" fill="url(#paint0_linear_505_16152)"/>
<path d="M222.982 180.384L216.912 198.994L272.602 171.914V163.154L222.982 180.394V180.384Z" fill="#C6AEA4"/>
<path d="M311.818 139.074L322.538 147.194L272.588 171.904V163.144L311.818 139.074Z" fill="#C6AEA4"/>
<path d="M311.831 139.044L221.751 108.934L182.531 133.024L272.601 163.134L311.831 139.044Z" fill="#FFEEE7"/>
<path d="M311.831 139.044L221.751 108.934L182.531 133.024L272.601 163.134L311.831 139.044Z" fill="url(#paint1_linear_505_16152)"/>
<path d="M182.212 133.124L272.432 162.974L242.922 119.274L152.682 89.6836L182.212 133.124Z" fill="#512A1D"/>
<mask id="mask0_505_16152" style="mask-type:luminance" maskUnits="userSpaceOnUse" x="152" y="140" width="53" height="19">
<path d="M157.512 158.134L152.682 142.384L199.882 140.354L204.712 156.094L157.512 158.134Z" fill="white"/>
</mask>
<g mask="url(#mask0_505_16152)">
<path d="M165.002 154.122L160.292 152.362L161.832 151.722C162.362 151.502 162.932 151.382 163.522 151.362C164.382 151.322 165.262 151.482 166.082 151.792C167.442 152.292 167.802 152.892 166.692 153.412L166.542 153.472L165.002 154.112M163.062 150.002C161.912 150.052 160.822 150.262 159.872 150.662L155.752 152.382L169.712 157.602L171.892 156.692L167.342 154.992L169.232 154.202C169.322 154.162 169.422 154.122 169.512 154.082C171.612 153.092 171.012 151.842 168.332 150.842C166.672 150.222 164.802 149.922 163.062 149.992" fill="#C6AEA4"/>
<path d="M177.561 152.104C177.191 152.124 176.861 152.174 176.631 152.284L176.551 152.324C175.941 152.614 176.131 153.084 177.001 153.404C177.541 153.614 178.241 153.714 178.861 153.684C179.241 153.664 179.591 153.604 179.851 153.494L179.901 153.474C180.481 153.204 180.301 152.714 179.431 152.384C178.871 152.174 178.161 152.084 177.561 152.114" fill="#C6AEA4"/>
<path d="M177.952 148.702L173.242 146.942L174.782 146.302C175.312 146.082 175.882 145.962 176.462 145.942C177.312 145.902 178.202 146.062 179.022 146.372C180.382 146.872 180.742 147.462 179.642 147.992L179.482 148.062L177.942 148.712M175.982 144.592C174.832 144.642 173.742 144.852 172.792 145.252L168.672 146.972L182.642 152.202L184.822 151.292L180.262 149.582L182.152 148.802C182.242 148.762 182.342 148.722 182.422 148.682C184.532 147.682 183.922 146.442 181.252 145.442C179.592 144.822 177.722 144.512 175.972 144.592" fill="#C6AEA4"/>
<path d="M180.042 142.213L177.902 143.113L191.872 148.333L194.012 147.443L180.042 142.213Z" fill="#C6AEA4"/>
<path d="M191.182 143.633C190.072 143.183 189.752 142.553 190.632 142.143L190.742 142.093C191.102 141.943 191.552 141.853 192.042 141.833C192.842 141.803 193.742 141.933 194.542 142.233L191.192 143.643M191.522 140.723C190.372 140.773 189.362 140.983 188.552 141.323C188.472 141.363 188.402 141.383 188.332 141.433C186.292 142.383 187.052 143.783 190.172 144.943C192.222 145.713 194.372 146.073 196.282 145.983C197.452 145.933 198.542 145.713 199.452 145.333C199.542 145.293 199.622 145.263 199.702 145.223C201.382 144.423 201.372 143.463 199.802 142.643L197.772 143.503C198.162 143.803 198.092 144.173 197.452 144.473L197.372 144.513C196.952 144.683 196.452 144.783 195.912 144.803C195.012 144.843 193.982 144.673 192.992 144.303L198.362 142.063L197.552 141.763C195.382 140.953 193.292 140.643 191.522 140.723Z" fill="#C6AEA4"/>
</g>
<path d="M131.553 154.373L171.523 167.783" stroke="#F7E5DF" stroke-miterlimit="10"/>
<path d="M130.553 157.404L205.613 182.584" stroke="#F7E5DF" stroke-miterlimit="10"/>
<path d="M179.332 178.094L219.312 191.504" stroke="#F7E5DF" stroke-miterlimit="10"/>
<defs>
<linearGradient id="paint0_linear_505_16152" x1="214.707" y1="139.737" x2="209.191" y2="156.708" gradientUnits="userSpaceOnUse">
<stop stop-color="#E2CABF"/>
<stop offset="0.890366" stop-color="#FFEEE7"/>
</linearGradient>
<linearGradient id="paint1_linear_505_16152" x1="229.731" y1="147.916" x2="239.241" y2="123" gradientUnits="userSpaceOnUse">
<stop stop-color="#E2C8BC"/>
<stop offset="0.687351" stop-color="#FFEFE8" stop-opacity="0"/>
</linearGradient>
</defs>
</svg>
