<svg width="351" height="265" viewBox="0 0 351 265" fill="none" xmlns="http://www.w3.org/2000/svg">
<rect x="0.933594" y="0.630859" width="350" height="264" fill="#2E4491"/>
<path d="M103.016 169.862L202.661 206.63L282.54 170.708L175.774 129.119L103.016 169.862Z" fill="#300901"/>
<path d="M117.613 162.159L220.973 198.51L284.04 170.48L180.68 134.129L117.613 162.159Z" fill="#B0B0B0"/>
<path d="M129.721 143.9L220.82 176.735L271.274 154.235L180.174 121.4L129.721 143.9Z" fill="#373943"/>
<path d="M180.241 126.829L271.34 159.663L271.34 150.321L180.24 117.486L180.241 126.829Z" fill="#4A4D5B"/>
<path d="M180.231 126.809L129.84 149.288L129.84 139.965L180.231 117.486L180.231 126.809Z" fill="#202129"/>
<path d="M180.233 126.809L177.972 127.821L173.09 120.663L180.233 117.486L180.233 126.809Z" fill="black"/>
<path d="M180.233 126.809L266.044 157.81V148.286L180.232 117.486L180.233 126.809Z" fill="black"/>
<path d="M180.231 126.809L261.361 156.061L258.188 157.2L177.975 127.822L180.231 126.809Z" fill="#21232C"/>
<path fill-rule="evenodd" clip-rule="evenodd" d="M220.971 177.486L117.611 141.135L180.678 113.105L284.038 149.456L220.971 177.486ZM220.887 172.818L129.787 139.984L180.241 117.484L271.34 150.318L220.887 172.818Z" fill="#FFD6CD"/>
<path fill-rule="evenodd" clip-rule="evenodd" d="M220.971 177.486L117.611 141.135L180.678 113.105L284.038 149.456L220.971 177.486ZM220.887 172.818L129.787 139.984L180.241 117.484L271.34 150.318L220.887 172.818Z" fill="url(#paint0_linear_515_14094)"/>
<path d="M117.613 141.135L220.973 177.479V198.508L117.613 162.157V141.135Z" fill="#6A2213"/>
<path d="M284.039 149.457L220.973 177.485V198.509L284.039 170.479V149.457Z" fill="#F7785C"/>
<path d="M163.535 134.684L236.658 162.108L241.512 159.569L167.107 132.93L163.535 134.684Z" fill="#21232C"/>
<path d="M165.528 131.115L238.748 158.082L238.748 160.663L165.527 133.697L165.528 131.115Z" fill="#6A68C8"/>
<path d="M165.527 131.115L238.748 158.082L241.677 156.555L168.457 129.588L165.527 131.115Z" fill="#B8B7F8"/>
<path d="M214.996 149.072L238.744 157.762L241.674 156.235L217.926 147.545L214.996 149.072Z" fill="#6E6BE2"/>
<path d="M223.146 151.713L233.867 155.727L235.508 154.876L224.788 150.861L223.146 151.713Z" fill="#1C4664"/>
<path d="M238.159 157.301L237.896 156.704L239.538 155.852L239.874 156.348L238.159 157.301Z" fill="#4745A9"/>
<path d="M223.471 151.35L237.899 156.706L238.16 157.306L233.751 155.676L233.509 155.369L223.144 151.497L223.471 151.35Z" fill="#6A68C8"/>
<path d="M223.469 151.35L237.897 156.706L239.538 155.854L225.11 150.498L223.469 151.35Z" fill="#B8B7F8"/>
<path d="M223.466 151.35L223.158 151.491L224.8 150.639L225.108 150.498L223.466 151.35Z" fill="#32688E"/>
<path d="M238.745 161.048L238.744 157.761L241.674 156.234L241.675 159.521L238.745 161.048Z" fill="#333180"/>
<path d="M214.996 149.07L238.754 157.785V161.074L214.996 152.31V149.07Z" fill="#4745A9"/>
<path d="M263.073 158.758L263.072 153.921L272.531 149.787L282.542 150.184L263.073 158.758Z" fill="#AE442E"/>
<path d="M278.813 172.807L263.053 158.729L284.105 149.449L284.038 170.48L278.813 172.807Z" fill="#300901"/>
<path d="M172.348 112.461L263.447 145.295L311.934 143.576L220.834 110.742L172.348 112.461Z" fill="#FFDBD3"/>
<path d="M172.348 112.461L263.447 145.295L311.934 143.576L220.834 110.742L172.348 112.461Z" fill="url(#paint1_linear_515_14094)"/>
<path d="M263.445 152.904V145.295L311.932 143.576L311.933 150.261L263.445 152.904Z" fill="#F7785C"/>
<path d="M263.459 152.921V145.312L172.348 112.459L172.349 119.143L263.459 152.921Z" fill="#6A2213"/>
<defs>
<linearGradient id="paint0_linear_515_14094" x1="246.456" y1="132.341" x2="235.009" y2="162.593" gradientUnits="userSpaceOnUse">
<stop stop-color="#E37033"/>
<stop offset="1" stop-color="#FF7A34" stop-opacity="0"/>
<stop offset="1" stop-color="#512D1A" stop-opacity="0"/>
</linearGradient>
<linearGradient id="paint1_linear_515_14094" x1="250.22" y1="115.171" x2="240.898" y2="138.556" gradientUnits="userSpaceOnUse">
<stop stop-color="#AE442E"/>
<stop offset="1" stop-color="#F7785C" stop-opacity="0"/>
</linearGradient>
</defs>
</svg>
