<svg width="351" height="265" viewBox="0 0 351 265" fill="none" xmlns="http://www.w3.org/2000/svg">
<rect x="0.933594" y="0.648438" width="350" height="264" fill="#E7AD8D"/>
<path d="M182.506 106.648C182.506 102.23 186.088 98.6484 190.506 98.6484H314.506C318.924 98.6484 322.506 102.23 322.506 106.648V188.648H182.506V106.648Z" fill="#394374"/>
<path d="M217.109 74.6484C217.109 70.2302 220.691 66.6484 225.109 66.6484H279.109C283.528 66.6484 287.109 70.2302 287.109 74.6484V188.648H217.109V74.6484Z" fill="#394374"/>
<path d="M176.934 106.648C176.934 102.23 180.515 98.6484 184.934 98.6484H308.934C313.352 98.6484 316.934 102.23 316.934 106.648V188.648H176.934V106.648Z" fill="#F3F5FF"/>
<path d="M203.934 98.6484H289.934V188.648H203.934V98.6484Z" fill="#D7DAEA"/>
<path d="M211.537 74.6484C211.537 70.2302 215.119 66.6484 219.537 66.6484H273.537C277.955 66.6484 281.537 70.2302 281.537 74.6484V188.648H211.537V74.6484Z" fill="#C3CCFB"/>
<path d="M265.791 99.5427C265.791 110.198 257.419 117.356 248.07 116.655C239.211 115.99 231.021 109.933 231.021 99.9961C231.021 90.0593 238.806 82.0039 248.409 82.0039C258.012 82.0039 265.791 89.6059 265.791 99.5427Z" fill="#A6AFDE"/>
<circle cx="246.537" cy="98.2539" r="17" fill="#353071"/>
<circle cx="246.537" cy="98.4551" r="15" fill="#F3F5FF"/>
<path d="M261.537 98.4551C261.537 90.1708 254.822 83.4551 246.537 83.4551C244.002 83.4551 241.614 84.0841 239.52 85.1946L258.309 107.752C260.331 105.196 261.537 101.967 261.537 98.4551Z" fill="#D7DAEA"/>
<path d="M245.506 88.2539C245.506 87.9778 245.73 87.7539 246.006 87.7539C246.282 87.7539 246.506 87.9778 246.506 88.2539V97.7539H245.506V88.2539Z" fill="#353071"/>
<path d="M257.006 98.7539C257.282 98.7539 257.506 98.9778 257.506 99.2539C257.506 99.53 257.282 99.7539 257.006 99.7539L247.506 99.7539L247.506 98.7539L257.006 98.7539Z" fill="#353071"/>
<circle cx="246.006" cy="99.2539" r="1" fill="#353071"/>
<path d="M220.537 140.648H246.537V188.648H220.537V140.648Z" fill="#8F87F3"/>
<path d="M246.537 140.648H272.537V188.648H246.537V140.648Z" fill="#8F87F3"/>
<path d="M219.537 139.954C219.537 138.187 220.97 136.754 222.737 136.754H270.337C272.104 136.754 273.537 138.187 273.537 139.954C273.537 140.396 273.179 140.754 272.737 140.754H220.337C219.895 140.754 219.537 140.396 219.537 139.954Z" fill="#8F87F3"/>
<path d="M220.537 140.754H272.537V144.758H220.529L220.537 140.754Z" fill="#353071"/>
<rect x="243.537" y="161.754" width="2" height="6" rx="1" fill="#353071"/>
<rect x="247.537" y="161.754" width="2" height="6" rx="1" fill="#353071"/>
</svg>
