<svg width="351" height="265" viewBox="0 0 351 265" fill="none" xmlns="http://www.w3.org/2000/svg">
<rect x="0.933594" y="0.648438" width="350" height="264" fill="#D38D8D"/>
<path d="M172.934 83.0215C172.934 80.8123 174.724 79.0215 176.934 79.0215H304.934C307.143 79.0215 308.934 80.8123 308.934 83.0215V177.021H172.934V83.0215Z" fill="#112D33"/>
<path d="M178.934 89.0215C178.934 86.8123 180.724 85.0215 182.934 85.0215H298.934C301.143 85.0215 302.934 86.8123 302.934 89.0215V175.021H178.934V89.0215Z" fill="#357280"/>
<path d="M274.615 167.629V160.559H277.135C278.78 160.559 279.586 161.545 279.586 162.854C279.586 164.157 278.775 165.148 277.135 165.148H275.689V167.629H274.615ZM275.689 164.23H277.027C278.067 164.235 278.502 163.649 278.502 162.854C278.502 162.053 278.067 161.481 277.027 161.477H275.689V164.23Z" fill="white"/>
<path d="M280.982 167.697C280.602 167.692 280.284 167.385 280.289 167.004C280.284 166.623 280.602 166.311 280.982 166.311C281.358 166.311 281.671 166.623 281.676 167.004C281.671 167.385 281.358 167.692 280.982 167.697Z" fill="white"/>
<path d="M283.023 167.629V160.559H285.543C287.188 160.559 287.994 161.545 287.994 162.854C287.994 164.157 287.184 165.148 285.543 165.148H284.098V167.629H283.023ZM284.098 164.23H285.436C286.476 164.235 286.91 163.649 286.91 162.854C286.91 162.053 286.476 161.481 285.436 161.477H284.098V164.23Z" fill="white"/>
<path d="M290.084 160.559V167.629H289.039V160.559H290.084Z" fill="white"/>
<path d="M293.639 167.736C292.076 167.736 291.114 166.657 291.119 165.012C291.114 163.381 292.091 162.258 293.57 162.258C294.776 162.258 295.924 163.005 295.924 164.924V165.295H292.154C292.184 166.306 292.779 166.877 293.648 166.877C294.239 166.877 294.625 166.623 294.801 166.301H295.855C295.621 167.16 294.806 167.736 293.639 167.736ZM292.159 164.514H294.898C294.898 163.708 294.376 163.112 293.58 163.117C292.745 163.112 292.203 163.767 292.159 164.514Z" fill="white"/>
<rect x="170.934" y="175.021" width="140" height="12" rx="4" fill="#112D33"/>
<path d="M170.934 179.021C170.934 176.812 172.724 175.021 174.934 175.021H306.934C309.143 175.021 310.934 176.812 310.934 179.021H170.934Z" fill="#3E98A9"/>
<path d="M302.933 175.021V89.0215C302.933 86.8123 301.142 85.0215 298.933 85.0215H185.332L293.115 175.021H302.933Z" fill="#1D4953" fill-opacity="0.59"/>
</svg>
