<svg width="259" height="253" viewBox="0 0 259 253" fill="none" xmlns="http://www.w3.org/2000/svg">
<rect x="0.671875" y="0.310547" width="258" height="252" fill="#2E9191"/>
<mask id="mask0_502_13576" style="mask-type:alpha" maskUnits="userSpaceOnUse" x="0" y="0" width="259" height="253">
<rect x="0.671875" y="0.310547" width="258" height="252" fill="#4A5294"/>
</mask>
<g mask="url(#mask0_502_13576)">
<path d="M148.141 79.541L324.109 176.195L262.522 221.405L95.6789 125.128L87.8296 119.565L85.9619 115.335L148.141 79.541Z" fill="#1F1F1F"/>
<path d="M78.301 93.8848C70.2812 105.71 86.3843 119.585 95.5164 125.067L131.113 100.51C131.113 100.51 125.826 97.415 121.334 94.2296C117.881 91.7794 111.365 87.0875 106.831 85.2634C100.167 82.8948 86.3207 82.0599 78.301 93.8848Z" fill="#1F1F1F"/>
<mask id="mask1_502_13576" style="mask-type:luminance" maskUnits="userSpaceOnUse" x="182" y="97" width="12" height="5">
<path d="M191.23 97.6336C192.083 97.719 192.919 97.5995 193.67 97.2754C190.838 98.4696 188.006 99.6638 185.174 100.858C184.423 101.165 183.587 101.302 182.734 101.216C185.276 100.141 188.484 98.0431 191.23 97.6336Z" fill="white"/>
</mask>
<g mask="url(#mask1_502_13576)">
<path d="M182.734 101.202L191.23 97.6191C191.23 97.6191 191.316 97.6191 191.367 97.6191L182.871 101.202C182.871 101.202 182.786 101.202 182.734 101.202Z" fill="#2D2D2D"/>
<path d="M182.87 101.217L191.366 97.6348C191.468 97.6348 191.588 97.6348 191.69 97.6348L183.194 101.217C183.092 101.217 182.972 101.217 182.87 101.217Z" fill="#2C2C2C"/>
<path d="M183.194 101.235L191.69 97.6523C191.81 97.6523 191.929 97.6523 192.048 97.6523L183.553 101.235C183.433 101.235 183.314 101.235 183.194 101.235Z" fill="#2B2B2B"/>
<path d="M183.555 101.236L192.051 97.6533C192.17 97.6533 192.289 97.6362 192.426 97.6191L183.93 101.202C183.811 101.202 183.691 101.236 183.555 101.236Z" fill="#292929"/>
<path d="M183.912 101.185L192.408 97.6029C192.562 97.5858 192.715 97.5517 192.852 97.5176L184.356 101.1C184.202 101.134 184.066 101.168 183.912 101.185Z" fill="#282828"/>
<path d="M184.372 101.116L192.868 97.5339C193.056 97.4827 193.243 97.4315 193.431 97.3633L184.935 100.946C184.747 101.014 184.56 101.065 184.372 101.116Z" fill="#262626"/>
<path d="M184.919 100.945L193.415 97.3621C193.5 97.328 193.603 97.2939 193.688 97.2598L185.192 100.842C185.107 100.876 185.004 100.911 184.919 100.945Z" fill="#252525"/>
</g>
<mask id="mask2_502_13576" style="mask-type:luminance" maskUnits="userSpaceOnUse" x="174" y="76" width="18" height="26">
<path d="M183.47 86.0607C183.641 92.0488 187.121 97.2179 191.233 97.6444L182.737 101.227C178.625 100.801 175.162 95.6314 174.975 89.6433C177.806 88.4491 180.638 87.2549 183.47 86.0607C180.638 87.2549 177.806 88.4491 174.975 89.6262C174.838 84.9347 176.783 81.1303 179.632 79.9361L188.128 76.3535C185.279 77.5477 183.334 81.335 183.47 86.0436V86.0607Z" fill="white"/>
</mask>
<g mask="url(#mask2_502_13576)">
<path d="M179.634 79.9517L188.13 76.3691C187.294 76.7274 186.526 77.3074 185.878 78.0751L177.382 81.6578C178.03 80.8901 178.798 80.31 179.634 79.9517Z" fill="#252525"/>
<path d="M177.382 81.6392L185.878 78.0566C185.69 78.2614 185.52 78.5002 185.366 78.739L176.87 82.3217C177.041 82.0828 177.211 81.861 177.382 81.6392Z" fill="#262626"/>
<path d="M176.852 82.3248L185.348 78.7422C185.212 78.9469 185.092 79.1516 184.956 79.3564L176.46 82.939C176.579 82.7172 176.716 82.5125 176.852 82.3248Z" fill="#282828"/>
<path d="M176.477 82.9381L184.973 79.3555C184.871 79.5431 184.751 79.7479 184.666 79.9526L176.17 83.5352C176.272 83.3305 176.375 83.1257 176.477 82.9381Z" fill="#292929"/>
<path d="M176.152 83.5338L184.648 79.9512C184.563 80.1388 184.461 80.3436 184.392 80.5483L175.896 84.1309C175.982 83.9262 176.067 83.7214 176.152 83.5338Z" fill="#2B2B2B"/>
<path d="M175.897 84.1295L184.392 80.5469C184.307 80.7345 184.239 80.9393 184.171 81.144L175.675 84.7266C175.743 84.5219 175.811 84.3171 175.897 84.1295Z" fill="#2C2C2C"/>
<path d="M175.675 84.7291L184.171 81.1465C184.103 81.3512 184.034 81.5389 183.983 81.7436L175.487 85.3262C175.538 85.1215 175.607 84.9168 175.675 84.7291Z" fill="#2D2D2D"/>
<path d="M175.487 85.3268L183.982 81.7441C183.931 81.9489 183.88 82.1536 183.829 82.3583L175.333 85.9409C175.384 85.7362 175.435 85.5315 175.487 85.3268Z" fill="#2F2F2F"/>
<path d="M175.334 85.9381L183.83 82.3555C183.778 82.5602 183.744 82.7649 183.693 82.9867L175.197 86.5693C175.231 86.3475 175.283 86.1428 175.334 85.9381Z" fill="#303030"/>
<path d="M175.198 86.5728L183.694 82.9902C183.66 83.212 183.626 83.4167 183.592 83.6385L175.096 87.2211C175.13 86.9993 175.164 86.7776 175.198 86.5728Z" fill="#323232"/>
<path d="M175.096 87.235L183.591 83.6523C183.557 83.8741 183.54 84.0959 183.523 84.3177L175.027 87.9003C175.044 87.6785 175.079 87.4567 175.096 87.235Z" fill="#333333"/>
<path d="M175.026 87.901L183.522 84.3184C183.505 84.5572 183.488 84.779 183.488 85.0178L174.992 88.6004C174.992 88.3616 175.009 88.1227 175.026 87.901Z" fill="#353535"/>
<path d="M174.992 88.6021L183.488 85.0195C183.488 85.2584 183.488 85.5143 183.488 85.7531L174.992 89.3357C174.992 89.0798 174.992 88.841 174.992 88.6021Z" fill="#363636"/>
<path d="M174.976 89.3346L183.471 85.752C183.471 85.8543 183.471 85.9567 183.471 86.042C183.471 86.1955 183.471 86.3661 183.489 86.5197L174.993 90.1023C174.993 89.9487 174.993 89.7781 174.976 89.6246C174.976 89.5222 174.976 89.4199 174.976 89.3346Z" fill="#373737"/>
<path d="M175.009 90.1217L183.505 86.5391C183.505 86.812 183.539 87.085 183.573 87.3409L175.077 90.9235C175.043 90.6505 175.026 90.3946 175.009 90.1217Z" fill="#393939"/>
<path d="M175.077 90.9205L183.573 87.3379C183.607 87.6279 183.641 87.9009 183.692 88.1909L175.197 91.7735C175.145 91.5005 175.111 91.2105 175.077 90.9205Z" fill="#3A3A3A"/>
<path d="M175.181 91.774L183.677 88.1914C183.728 88.4985 183.779 88.8056 183.847 89.1126L175.351 92.6953C175.283 92.3882 175.232 92.0811 175.181 91.774Z" fill="#3C3C3C"/>
<path d="M175.368 92.6959L183.864 89.1133C183.949 89.4545 184.035 89.7957 184.137 90.1369L175.641 93.7195C175.539 93.3783 175.453 93.0371 175.368 92.6959Z" fill="#3D3D3D"/>
<path d="M175.623 93.7037L184.119 90.1211C184.255 90.5476 184.392 90.9741 184.563 91.3835L176.067 94.9661C175.913 94.5567 175.76 94.1302 175.623 93.7037Z" fill="#3E3E3E"/>
<path d="M176.066 94.983L184.562 91.4004C185.125 92.8164 185.876 94.0618 186.746 95.0683L178.25 98.6509C177.363 97.6444 176.612 96.399 176.066 94.983Z" fill="#404040"/>
<path d="M178.251 98.6529L186.747 95.0703C186.952 95.2921 187.156 95.5139 187.361 95.7015L178.865 99.2841C178.66 99.0794 178.456 98.8747 178.251 98.6529Z" fill="#3E3E3E"/>
<path d="M178.866 99.2818L187.362 95.6992C187.516 95.8528 187.669 95.9892 187.84 96.1257L179.344 99.7083C179.19 99.5718 179.02 99.4354 178.866 99.2818Z" fill="#3D3D3D"/>
<path d="M179.342 99.7076L187.838 96.125C187.974 96.2274 188.111 96.3297 188.247 96.4321L179.751 100.015C179.615 99.9123 179.478 99.81 179.342 99.7076Z" fill="#3C3C3C"/>
<path d="M179.735 100.012L188.231 96.4297C188.351 96.515 188.47 96.6003 188.59 96.6685L180.094 100.251C179.974 100.183 179.855 100.098 179.735 100.012Z" fill="#3A3A3A"/>
<path d="M180.094 100.254L188.59 96.6719C188.709 96.7401 188.811 96.8084 188.931 96.8766L180.435 100.459C180.316 100.391 180.213 100.323 180.094 100.254Z" fill="#393939"/>
<path d="M180.436 100.456L188.931 96.873C189.034 96.9242 189.136 96.9925 189.239 97.0437L180.743 100.626C180.64 100.575 180.538 100.524 180.436 100.456Z" fill="#373737"/>
<path d="M180.758 100.628L189.254 97.0449C189.356 97.0961 189.458 97.1473 189.561 97.1814L181.065 100.764C180.963 100.713 180.86 100.679 180.758 100.628Z" fill="#363636"/>
<path d="M181.066 100.784L189.562 97.2012C189.665 97.2353 189.767 97.2865 189.852 97.3206L181.356 100.903C181.254 100.869 181.152 100.835 181.066 100.784Z" fill="#353535"/>
<path d="M181.356 100.899L189.852 97.3164C189.955 97.3505 190.057 97.3846 190.142 97.4188L181.646 101.001C181.544 100.967 181.442 100.933 181.356 100.899Z" fill="#333333"/>
<path d="M181.663 100.989L190.159 97.4062C190.261 97.4404 190.347 97.4574 190.449 97.4915L181.953 101.074C181.851 101.057 181.748 101.023 181.663 100.989Z" fill="#323232"/>
<path d="M181.952 101.073L190.448 97.4902C190.55 97.5073 190.653 97.5414 190.755 97.5585L182.259 101.141C182.157 101.124 182.055 101.107 181.952 101.073Z" fill="#303030"/>
<path d="M182.243 101.139L190.739 97.5566C190.841 97.5737 190.944 97.5908 191.046 97.6078L182.55 101.19C182.448 101.19 182.346 101.156 182.243 101.139Z" fill="#2F2F2F"/>
<path d="M182.551 101.19L191.047 97.6074C191.047 97.6074 191.166 97.6074 191.234 97.6245L182.738 101.207C182.738 101.207 182.619 101.207 182.551 101.19Z" fill="#2D2D2D"/>
</g>
<mask id="mask3_502_13576" style="mask-type:luminance" maskUnits="userSpaceOnUse" x="182" y="75" width="17" height="26">
<path d="M193.687 97.2582L185.191 100.841C188.023 99.6467 189.985 95.8593 189.848 91.1337C189.678 85.1627 186.197 79.9764 182.086 79.567L190.582 75.9844C194.676 76.3938 198.156 81.5801 198.344 87.5511C198.481 92.2597 196.519 96.064 193.687 97.2582Z" fill="white"/>
</mask>
<g mask="url(#mask3_502_13576)">
<path d="M182.104 79.567L190.599 75.9844C190.599 75.9844 190.719 75.9844 190.787 76.0014L182.291 79.584C182.291 79.584 182.172 79.584 182.104 79.567Z" fill="#7C7C7C"/>
<path d="M182.291 79.6002L190.787 76.0176C190.889 76.0176 190.992 76.0517 191.094 76.0688L182.598 79.6514C182.496 79.6343 182.393 79.6172 182.291 79.6002Z" fill="#808080"/>
<path d="M182.582 79.6334L191.078 76.0508C191.18 76.0678 191.283 76.0849 191.368 76.119L182.872 79.7016C182.77 79.6846 182.667 79.6505 182.582 79.6334Z" fill="#848484"/>
<path d="M182.889 79.7037L191.385 76.1211C191.487 76.1382 191.572 76.1723 191.675 76.2064L183.179 79.789C183.076 79.7549 182.991 79.7378 182.889 79.7037Z" fill="#888888"/>
<path d="M183.178 79.7916L191.674 76.209C191.776 76.2431 191.878 76.2772 191.964 76.3113L183.468 79.894C183.365 79.8598 183.263 79.8257 183.178 79.7916Z" fill="#8C8C8C"/>
<path d="M183.468 79.8892L191.964 76.3066C192.066 76.3408 192.168 76.3749 192.254 76.4261L183.758 80.0087C183.655 79.9745 183.553 79.9234 183.468 79.8892Z" fill="#909090"/>
<path d="M183.776 80.0103L192.272 76.4277C192.375 76.4789 192.477 76.513 192.579 76.5642L184.083 80.1468C183.981 80.0956 183.879 80.0445 183.776 80.0103Z" fill="#939393"/>
<path d="M184.083 80.1471L192.579 76.5645C192.681 76.6156 192.784 76.6668 192.886 76.7351L184.39 80.3177C184.288 80.2665 184.185 80.1982 184.083 80.1471Z" fill="#979797"/>
<path d="M184.389 80.317L192.885 76.7344C193.004 76.8026 193.106 76.8709 193.226 76.9391L184.73 80.5217C184.61 80.4535 184.508 80.3852 184.389 80.317Z" fill="#9B9B9B"/>
<path d="M184.73 80.524L193.226 76.9414C193.346 77.0267 193.465 77.0949 193.585 77.1802L185.089 80.7629C184.969 80.6776 184.85 80.5923 184.73 80.524Z" fill="#9F9F9F"/>
<path d="M185.089 80.7584L193.585 77.1758C193.721 77.2781 193.858 77.3805 193.994 77.4829L185.498 81.0655C185.362 80.9631 185.225 80.8608 185.089 80.7584Z" fill="#A3A3A3"/>
<path d="M185.499 81.0865L193.995 77.5039C194.166 77.6404 194.319 77.7769 194.473 77.9304L185.977 81.513C185.823 81.3595 185.67 81.223 185.499 81.0865Z" fill="#A7A7A7"/>
<path d="M185.975 81.4967L194.471 77.9141C194.675 78.1188 194.88 78.3235 195.085 78.5623L186.589 82.145C186.384 81.9232 186.179 81.7014 185.975 81.4967Z" fill="#ABABAB"/>
<path d="M186.59 82.1412L195.086 78.5586C195.973 79.5651 196.724 80.8276 197.286 82.2436L188.791 85.8262C188.228 84.4102 187.477 83.1477 186.59 82.1412Z" fill="#AFAFAF"/>
<path d="M188.774 85.8287L197.27 82.2461C197.424 82.6555 197.577 83.082 197.697 83.5085L189.201 87.0911C189.064 86.6646 188.928 86.2381 188.774 85.8287Z" fill="#ABABAB"/>
<path d="M189.218 87.0904L197.714 83.5078C197.816 83.849 197.901 84.1732 197.987 84.5314L189.491 88.114C189.405 87.7728 189.32 87.4316 189.218 87.0904Z" fill="#A7A7A7"/>
<path d="M189.474 88.0963L197.97 84.5137C198.038 84.8208 198.089 85.1108 198.14 85.4179L189.644 89.0005C189.593 88.6934 189.542 88.3863 189.474 88.0963Z" fill="#A3A3A3"/>
<path d="M189.661 89.0162L198.157 85.4336C198.208 85.7066 198.242 85.9966 198.276 86.2866L189.781 89.8692C189.746 89.5792 189.712 89.3062 189.661 89.0162Z" fill="#9F9F9F"/>
<path d="M189.78 89.8521L198.276 86.2695C198.31 86.5425 198.327 86.7984 198.344 87.0714L189.849 90.654C189.849 90.381 189.814 90.1251 189.78 89.8521Z" fill="#9B9B9B"/>
<path d="M189.832 90.6724L198.328 87.0898C198.328 87.2434 198.328 87.414 198.345 87.5675C198.345 87.6699 198.345 87.7722 198.345 87.8575L189.849 91.4402C189.849 91.3378 189.849 91.2354 189.849 91.1501C189.849 90.9966 189.849 90.826 189.832 90.6724Z" fill="#979797"/>
<path d="M189.865 91.442L198.361 87.8594C198.361 88.1153 198.361 88.3541 198.361 88.593L189.865 92.1756C189.865 91.9367 189.865 91.6808 189.865 91.442Z" fill="#939393"/>
<path d="M189.848 92.1744L198.344 88.5918C198.344 88.8306 198.326 89.0695 198.309 89.2913L189.813 92.8739C189.831 92.635 189.848 92.4132 189.848 92.1744Z" fill="#909090"/>
<path d="M189.815 92.8756L198.311 89.293C198.294 89.5147 198.26 89.7365 198.243 89.9583L189.747 93.5409C189.781 93.3191 189.798 93.0974 189.815 92.8756Z" fill="#8C8C8C"/>
<path d="M189.746 93.5377L198.242 89.9551C198.208 90.1769 198.174 90.3986 198.139 90.6034L189.644 94.186C189.678 93.9642 189.712 93.7595 189.746 93.5377Z" fill="#888888"/>
<path d="M189.644 94.2057L198.14 90.623C198.106 90.8448 198.055 91.0495 198.004 91.2543L189.508 94.8369C189.559 94.6322 189.593 94.4274 189.644 94.2057Z" fill="#848484"/>
<path d="M189.507 94.8326L198.003 91.25C197.952 91.4547 197.901 91.6594 197.849 91.8642L189.354 95.4468C189.405 95.2421 189.456 95.0373 189.507 94.8326Z" fill="#808080"/>
<path d="M189.354 95.4498L197.85 91.8672C197.798 92.0719 197.73 92.2766 197.662 92.4643L189.166 96.0469C189.234 95.8422 189.302 95.6545 189.354 95.4498Z" fill="#7C7C7C"/>
<path d="M189.166 96.0474L197.662 92.4648C197.594 92.6696 197.526 92.8743 197.44 93.0619L188.944 96.6446C189.03 96.4569 189.098 96.2522 189.166 96.0474Z" fill="#787878"/>
<path d="M188.945 96.6451L197.441 93.0625C197.356 93.2672 197.271 93.4719 197.185 93.6596L188.689 97.2422C188.775 97.0545 188.877 96.8498 188.945 96.6451Z" fill="#747474"/>
<path d="M188.671 97.2389L197.167 93.6562C197.065 93.861 196.963 94.0657 196.86 94.2533L188.364 97.836C188.467 97.6483 188.586 97.4436 188.671 97.2389Z" fill="#717171"/>
<path d="M188.365 97.8385L196.861 94.2559C196.742 94.4776 196.605 94.6824 196.469 94.87L187.973 98.4526C188.109 98.2479 188.246 98.0432 188.365 97.8385Z" fill="#6D6D6D"/>
<path d="M187.972 98.4693L196.468 94.8867C196.297 95.1256 196.126 95.3473 195.956 95.5691L187.46 99.1517C187.648 98.947 187.818 98.7082 187.972 98.4693Z" fill="#696969"/>
<path d="M187.461 99.1373L195.957 95.5547C195.309 96.3224 194.541 96.9024 193.705 97.2607L185.209 100.843C186.045 100.485 186.813 99.905 187.461 99.1373Z" fill="#656565"/>
</g>
<mask id="mask4_502_13576" style="mask-type:luminance" maskUnits="userSpaceOnUse" x="185" y="97" width="9" height="4">
<path d="M193.672 97.2754C193.672 97.2754 193.672 97.2754 193.689 97.2754L185.193 100.858C185.193 100.858 185.193 100.858 185.176 100.858C188.008 99.6638 190.84 98.4696 193.672 97.2754Z" fill="white"/>
</mask>
<g mask="url(#mask4_502_13576)">
<path d="M184.92 100.945L193.416 97.3621C193.501 97.328 193.603 97.2939 193.689 97.2598L185.193 100.842C185.108 100.876 185.005 100.911 184.92 100.945Z" fill="#252525"/>
</g>
<path d="M205.221 89.123C205.221 88.8842 205.221 88.6453 205.221 88.4065C205.221 88.2188 205.221 88.0482 205.221 87.8606C205.221 87.5706 205.204 87.2635 205.187 86.9734C205.17 86.6664 205.136 86.3593 205.102 86.0522C205.102 85.9157 205.085 85.7792 205.068 85.6598C205.068 85.6086 205.068 85.5404 205.068 85.4892C205.016 84.9604 204.931 84.4315 204.846 83.9197C204.846 83.8856 204.846 83.8515 204.829 83.8173C204.795 83.6467 204.761 83.4761 204.726 83.3055C204.658 82.9473 204.59 82.589 204.522 82.2308C204.505 82.1455 204.471 82.0602 204.454 81.9749C204.385 81.6678 204.3 81.3607 204.215 81.0536C204.146 80.8148 204.095 80.5589 204.027 80.32C204.01 80.2518 203.976 80.1836 203.959 80.0983C203.737 79.3817 203.515 78.6993 203.242 78.0169C203.242 78.0169 203.242 77.9828 203.225 77.9657C202.969 77.3345 202.696 76.7204 202.406 76.1062C202.321 75.9185 202.202 75.7309 202.116 75.5432C201.912 75.1338 201.707 74.7414 201.485 74.3661C201.366 74.1443 201.229 73.9396 201.093 73.7349C200.888 73.3937 200.666 73.0695 200.444 72.7454C200.291 72.5236 200.137 72.3359 199.984 72.1312C199.762 71.8412 199.54 71.5512 199.301 71.2782C199.233 71.1929 199.165 71.0906 199.097 71.0053C198.994 70.8858 198.875 70.7835 198.773 70.664C198.568 70.4423 198.363 70.2205 198.141 70.0158C198.056 69.9305 197.971 69.8281 197.885 69.7428C197.732 69.6063 197.578 69.4698 197.425 69.3334C197.322 69.2481 197.22 69.1457 197.118 69.0604C197.067 69.0092 197.015 68.958 196.964 68.9239C196.708 68.7192 196.452 68.5145 196.196 68.3268C196.145 68.2927 196.077 68.2415 196.026 68.2074C195.975 68.1733 195.906 68.1221 195.855 68.088C195.736 68.0027 195.616 67.9174 195.497 67.8491C195.275 67.7127 195.053 67.5762 194.832 67.4397C194.78 67.4056 194.729 67.3885 194.678 67.3544C194.644 67.3373 194.593 67.3032 194.559 67.2862C194.456 67.235 194.337 67.1667 194.235 67.1156C194.03 67.0132 193.825 66.9279 193.637 66.8426C193.535 66.7914 193.416 66.7573 193.313 66.7061C193.279 66.7061 193.245 66.672 193.211 66.6549C193.16 66.6379 193.109 66.6208 193.057 66.5867C192.87 66.5185 192.665 66.4502 192.477 66.382C192.29 66.3308 192.102 66.2626 191.897 66.2114C191.88 66.2114 191.863 66.2114 191.846 66.2114C191.829 66.2114 191.812 66.2114 191.795 66.2114C191.641 66.1773 191.488 66.1431 191.317 66.109C191.113 66.0749 190.925 66.0408 190.72 66.0067C190.601 66.0067 190.481 65.9725 190.362 65.9555C190.277 65.9555 190.191 65.9555 190.089 65.9384C189.867 65.9384 189.662 65.9043 189.441 65.9043C189.355 65.9043 189.27 65.9043 189.185 65.9043C189.117 65.9043 189.065 65.9043 188.997 65.9043C188.912 65.9043 188.827 65.9043 188.758 65.9043C188.519 65.9043 188.264 65.9384 188.025 65.9725C187.991 65.9725 187.956 65.9725 187.922 65.9896C187.837 65.9896 187.752 66.0237 187.666 66.0408C187.496 66.0749 187.308 66.092 187.138 66.1431C187.052 66.1602 186.967 66.1943 186.882 66.2114C186.711 66.2626 186.54 66.2967 186.37 66.3649C186.268 66.399 186.148 66.4161 186.046 66.4502C185.858 66.5185 185.67 66.5867 185.5 66.6549L177.004 70.2375C177.294 70.1181 177.584 70.0158 177.874 69.9305C178.045 69.8793 178.215 69.8281 178.386 69.7769C178.642 69.7087 178.915 69.6575 179.171 69.6063C179.256 69.6063 179.341 69.5722 179.426 69.5551C179.785 69.504 180.143 69.4698 180.501 69.4698C180.569 69.4698 180.621 69.4698 180.689 69.4698C181.081 69.4698 181.474 69.4698 181.866 69.521C182.344 69.5722 182.821 69.6575 183.299 69.7769C183.316 69.7769 183.333 69.7769 183.35 69.7769C183.811 69.8963 184.271 70.0328 184.715 70.2034C184.749 70.2034 184.783 70.2375 184.817 70.2546C185.244 70.4252 185.653 70.6129 186.08 70.8346C186.114 70.8517 186.165 70.8858 186.199 70.9029C186.592 71.1247 186.984 71.3635 187.376 71.6194C187.428 71.6535 187.496 71.7047 187.547 71.7388C187.922 71.9947 188.281 72.2848 188.639 72.5918C188.741 72.6771 188.844 72.7795 188.946 72.8648C189.185 73.0866 189.424 73.3084 189.662 73.5472C189.884 73.7519 190.089 73.9737 190.294 74.2125C190.481 74.4173 190.652 74.6049 190.823 74.8096C191.061 75.0826 191.283 75.3726 191.505 75.6626C191.658 75.8674 191.812 76.0721 191.966 76.2768C192.187 76.5839 192.392 76.9251 192.614 77.2492C192.75 77.4539 192.887 77.6587 193.006 77.8804C193.228 78.2558 193.433 78.6481 193.637 79.0576C193.74 79.2453 193.842 79.4329 193.927 79.6206C194.217 80.2177 194.49 80.8318 194.746 81.4631C194.746 81.4801 194.746 81.5142 194.763 81.5313C195.019 82.1966 195.258 82.8961 195.48 83.5956C195.582 83.9026 195.651 84.2268 195.736 84.5339C195.821 84.8409 195.906 85.148 195.975 85.4551C196.077 85.8816 196.162 86.3252 196.248 86.7687C196.282 86.9393 196.316 87.1099 196.35 87.2805C196.452 87.8947 196.538 88.5089 196.606 89.123C196.606 89.2595 196.623 89.396 196.64 89.5325C196.691 90.1296 196.742 90.7267 196.759 91.3408C196.759 91.7673 196.759 92.1938 196.759 92.6033C196.759 92.7739 196.759 92.9274 196.759 93.098C196.759 93.5927 196.725 94.0704 196.674 94.5481C196.674 94.5822 196.674 94.5993 196.674 94.6334C196.64 95.094 196.589 95.5376 196.521 95.9641C196.504 96.1176 196.469 96.2541 196.452 96.3906C196.401 96.7147 196.35 97.0218 196.282 97.3289C196.248 97.4824 196.214 97.653 196.179 97.8066C196.111 98.1137 196.043 98.4037 195.975 98.6937C195.941 98.8302 195.906 98.9837 195.872 99.1202C195.77 99.4785 195.668 99.8197 195.565 100.161C195.548 100.229 195.514 100.314 195.497 100.383C195.361 100.792 195.207 101.202 195.036 101.594C194.985 101.73 194.917 101.85 194.866 101.986C194.746 102.242 194.627 102.515 194.508 102.771C194.422 102.959 194.32 103.129 194.235 103.3C194.132 103.505 194.03 103.709 193.91 103.897C193.774 104.136 193.62 104.375 193.467 104.614C193.382 104.75 193.296 104.886 193.211 105.006C192.938 105.415 192.631 105.791 192.324 106.149C192.239 106.251 192.136 106.354 192.051 106.456C191.846 106.695 191.641 106.917 191.42 107.121C191.3 107.241 191.181 107.343 191.061 107.445C190.857 107.633 190.635 107.821 190.43 107.991C190.311 108.094 190.191 108.179 190.055 108.281C189.816 108.452 189.577 108.606 189.338 108.759C189.219 108.827 189.117 108.913 188.997 108.964C188.639 109.169 188.264 109.356 187.888 109.51L196.384 105.927C196.759 105.774 197.135 105.586 197.493 105.381C197.612 105.313 197.715 105.245 197.834 105.177C198.073 105.023 198.312 104.869 198.551 104.699C198.67 104.614 198.807 104.511 198.926 104.409C199.148 104.238 199.353 104.051 199.557 103.863C199.677 103.761 199.796 103.658 199.916 103.539C200.137 103.334 200.342 103.095 200.547 102.873C200.615 102.788 200.7 102.72 200.769 102.652C200.786 102.635 200.803 102.6 200.82 102.583C201.127 102.225 201.417 101.833 201.69 101.44C201.69 101.423 201.724 101.406 201.724 101.389C201.809 101.27 201.877 101.15 201.946 101.031C202.099 100.792 202.253 100.57 202.389 100.314C202.406 100.28 202.44 100.246 202.457 100.212C202.543 100.059 202.628 99.8879 202.713 99.7173C202.799 99.5467 202.901 99.3761 202.986 99.1884C203.003 99.1543 203.02 99.1202 203.038 99.0861C203.14 98.8643 203.242 98.6425 203.345 98.4037C203.396 98.2672 203.464 98.1478 203.515 98.0284C203.515 98.0113 203.532 97.9942 203.549 97.9772C203.703 97.6189 203.839 97.2436 203.976 96.8512C203.976 96.8512 203.976 96.8342 203.976 96.8171C203.993 96.7489 204.027 96.6636 204.044 96.5953C204.146 96.3053 204.232 96.0153 204.317 95.7253C204.317 95.6741 204.351 95.6058 204.368 95.5547C204.402 95.4182 204.436 95.2646 204.471 95.1282C204.522 94.9405 204.573 94.7699 204.607 94.5822C204.641 94.4628 204.658 94.3434 204.675 94.224C204.709 94.0704 204.744 93.9169 204.778 93.7463C204.795 93.6269 204.829 93.5074 204.846 93.388C204.88 93.1833 204.914 92.9956 204.931 92.7909C204.948 92.6544 204.982 92.5009 204.999 92.3644C204.999 92.3132 205.016 92.245 205.034 92.1938C205.085 91.8014 205.119 91.4091 205.153 91.0167C205.153 90.9996 205.153 90.9826 205.153 90.9484C205.187 90.5219 205.221 90.0954 205.238 89.6519C205.238 89.6007 205.238 89.5495 205.238 89.4983C205.238 89.3448 205.238 89.1742 205.238 89.0207L205.221 89.123Z" fill="#6742CF"/>
<path d="M182.035 69.3106C190.06 70.1176 196.855 79.9723 197.184 91.3034C197.513 102.652 191.273 111.167 183.231 110.36C175.188 109.554 168.411 99.716 168.082 88.3676C167.753 77.0364 173.975 68.5037 182.035 69.3106ZM182.971 101.158C187.131 101.57 190.389 97.0377 190.216 91.0287C190.043 85.0198 186.507 79.8006 182.33 79.3885C178.152 78.9765 174.911 83.509 175.084 89.5008C175.258 95.4925 178.794 100.729 182.971 101.158Z" fill="#1F1F1F"/>
<path d="M182.103 79.571C186.197 79.9805 189.677 85.1667 189.865 91.1377C190.053 97.1087 186.845 101.63 182.734 101.203C178.623 100.777 175.159 95.6075 174.972 89.6194C174.784 83.6313 177.991 79.1445 182.103 79.571Z" fill="#1F1F1F"/>
<path d="M86.3463 99.0035C79.7953 89.2452 80.2559 73.84 81.8937 66.6406L92.5903 93.459L117.43 116.098L248.093 189.183L283.919 210.662L283.373 219.959C232.073 191.793 125.977 133.124 111.971 123.741C97.043 113.743 88.7006 102.501 86.3463 99.0035Z" fill="#1A1341"/>
<path d="M169.496 70.084L341.12 165.552L284.037 211.716L112.43 116.248L169.513 70.084H169.496Z" fill="#A387DF"/>
<path d="M84.7253 57.6147C71.8108 79.844 97.7421 105.929 112.448 116.233L169.77 70.0686C169.77 70.0686 161.257 64.2511 154.023 58.263C148.462 53.6568 137.97 44.8368 130.668 41.4077C119.937 36.955 97.6397 35.3855 84.7253 57.6147Z" fill="#A387DF"/>
<mask id="mask5_502_13576" style="mask-type:luminance" maskUnits="userSpaceOnUse" x="114" y="147" width="12" height="5">
<path d="M122.7 147.419C123.553 147.504 124.389 147.385 125.14 147.061C122.308 148.255 119.476 149.449 116.644 150.643C115.893 150.95 115.057 151.087 114.204 151.001C116.746 149.927 119.953 147.828 122.7 147.419Z" fill="white"/>
</mask>
<g mask="url(#mask5_502_13576)">
<path d="M114.204 151.003L122.7 147.42C122.7 147.42 122.785 147.42 122.836 147.42L114.341 151.003C114.341 151.003 114.255 151.003 114.204 151.003Z" fill="#2D2D2D"/>
<path d="M114.342 151.003L122.838 147.42C122.94 147.42 123.059 147.42 123.162 147.42L114.666 151.003C114.564 151.003 114.444 151.003 114.342 151.003Z" fill="#2C2C2C"/>
<path d="M114.683 151.018L123.179 147.436C123.298 147.436 123.417 147.436 123.537 147.436L115.041 151.018C114.921 151.018 114.802 151.018 114.683 151.018Z" fill="#2B2B2B"/>
<path d="M115.024 151.017L123.52 147.435C123.64 147.435 123.759 147.417 123.896 147.4L115.4 150.983C115.28 150.983 115.161 151.017 115.024 151.017Z" fill="#292929"/>
<path d="M115.398 150.986L123.894 147.404C124.048 147.387 124.201 147.352 124.338 147.318L115.842 150.901C115.688 150.935 115.552 150.969 115.398 150.986Z" fill="#282828"/>
<path d="M115.842 150.9L124.338 147.317C124.525 147.266 124.713 147.215 124.901 147.146L116.405 150.729C116.217 150.797 116.029 150.849 115.842 150.9Z" fill="#262626"/>
<path d="M116.405 150.746L124.901 147.163C124.986 147.129 125.089 147.095 125.174 147.061L116.678 150.643C116.593 150.677 116.491 150.711 116.405 150.746Z" fill="#252525"/>
</g>
<mask id="mask6_502_13576" style="mask-type:luminance" maskUnits="userSpaceOnUse" x="106" y="126" width="17" height="25">
<path d="M114.936 135.834C115.107 141.822 118.587 146.991 122.699 147.418L114.203 151C110.091 150.574 106.628 145.405 106.44 139.417C109.272 138.223 112.104 137.028 114.936 135.834C112.104 137.028 109.272 138.223 106.44 139.4C106.304 134.708 108.249 130.904 111.098 129.71L119.594 126.127C116.745 127.321 114.8 131.108 114.936 135.817V135.834Z" fill="white"/>
</mask>
<g mask="url(#mask6_502_13576)">
<path d="M111.099 129.731L119.595 126.148C118.759 126.507 117.991 127.087 117.343 127.854L108.847 131.437C109.495 130.669 110.263 130.089 111.099 129.731Z" fill="#252525"/>
<path d="M108.847 131.436L117.343 127.854C117.155 128.058 116.984 128.297 116.831 128.536L108.335 132.119C108.506 131.88 108.676 131.658 108.847 131.436Z" fill="#262626"/>
<path d="M108.335 132.104L116.831 128.521C116.694 128.726 116.575 128.931 116.438 129.136L107.942 132.718C108.062 132.496 108.198 132.292 108.335 132.104Z" fill="#282828"/>
<path d="M107.942 132.735L116.438 129.152C116.335 129.34 116.216 129.545 116.131 129.749L107.635 133.332C107.737 133.127 107.839 132.923 107.942 132.735Z" fill="#292929"/>
<path d="M107.635 133.329L116.131 129.746C116.045 129.934 115.943 130.138 115.875 130.343L107.379 133.926C107.464 133.721 107.55 133.516 107.635 133.329Z" fill="#2B2B2B"/>
<path d="M107.361 133.909L115.857 130.326C115.772 130.514 115.704 130.719 115.636 130.923L107.14 134.506C107.208 134.301 107.276 134.096 107.361 133.909Z" fill="#2C2C2C"/>
<path d="M107.14 134.508L115.636 130.926C115.567 131.131 115.499 131.318 115.448 131.523L106.952 135.105C107.003 134.901 107.072 134.696 107.14 134.508Z" fill="#2D2D2D"/>
<path d="M106.951 135.124L115.447 131.541C115.396 131.746 115.345 131.95 115.294 132.155L106.798 135.738C106.849 135.533 106.9 135.328 106.951 135.124Z" fill="#2F2F2F"/>
<path d="M106.799 135.735L115.294 132.152C115.243 132.357 115.209 132.562 115.158 132.784L106.662 136.366C106.696 136.144 106.747 135.94 106.799 135.735Z" fill="#303030"/>
<path d="M106.663 136.368L115.159 132.785C115.125 133.007 115.091 133.212 115.056 133.433L106.561 137.016C106.595 136.794 106.629 136.572 106.663 136.368Z" fill="#323232"/>
<path d="M106.577 137.014L115.073 133.432C115.039 133.653 115.022 133.875 115.005 134.097L106.509 137.68C106.526 137.458 106.56 137.236 106.577 137.014Z" fill="#333333"/>
<path d="M106.491 137.68L114.987 134.098C114.97 134.336 114.953 134.558 114.953 134.797L106.457 138.38C106.457 138.141 106.474 137.902 106.491 137.68Z" fill="#353535"/>
<path d="M106.457 138.381L114.953 134.799C114.953 135.038 114.953 135.294 114.953 135.532L106.457 139.115C106.457 138.859 106.457 138.62 106.457 138.381Z" fill="#363636"/>
<path d="M106.44 139.114L114.936 135.531C114.936 135.634 114.936 135.736 114.936 135.821C114.936 135.975 114.936 136.145 114.953 136.299L106.457 139.882C106.457 139.728 106.457 139.557 106.44 139.404C106.44 139.302 106.44 139.199 106.44 139.114Z" fill="#373737"/>
<path d="M106.474 139.901L114.97 136.318C114.97 136.591 115.004 136.864 115.038 137.12L106.542 140.703C106.508 140.43 106.491 140.174 106.474 139.901Z" fill="#393939"/>
<path d="M106.542 140.7L115.038 137.117C115.072 137.407 115.106 137.68 115.157 137.97L106.661 141.553C106.61 141.28 106.576 140.99 106.542 140.7Z" fill="#3A3A3A"/>
<path d="M106.662 141.553L115.158 137.971C115.209 138.278 115.26 138.585 115.329 138.892L106.833 142.475C106.764 142.167 106.713 141.86 106.662 141.553Z" fill="#3C3C3C"/>
<path d="M106.833 142.475L115.329 138.893C115.414 139.234 115.5 139.575 115.602 139.916L107.106 143.499C107.004 143.158 106.918 142.816 106.833 142.475Z" fill="#3D3D3D"/>
<path d="M107.105 143.499L115.601 139.916C115.738 140.343 115.874 140.769 116.045 141.178L107.549 144.761C107.395 144.352 107.242 143.925 107.105 143.499Z" fill="#3E3E3E"/>
<path d="M107.531 144.762L116.027 141.18C116.59 142.596 117.341 143.841 118.211 144.848L109.715 148.43C108.828 147.424 108.077 146.178 107.531 144.762Z" fill="#404040"/>
<path d="M109.732 148.432L118.228 144.85C118.433 145.071 118.638 145.293 118.842 145.481L110.347 149.063C110.142 148.859 109.937 148.654 109.732 148.432Z" fill="#3E3E3E"/>
<path d="M110.331 149.077L118.827 145.494C118.98 145.648 119.134 145.784 119.305 145.921L110.809 149.503C110.655 149.367 110.485 149.23 110.331 149.077Z" fill="#3D3D3D"/>
<path d="M110.807 149.487L119.303 145.904C119.439 146.007 119.576 146.109 119.712 146.211L111.216 149.794C111.08 149.692 110.943 149.589 110.807 149.487Z" fill="#3C3C3C"/>
<path d="M111.217 149.809L119.713 146.227C119.832 146.312 119.952 146.397 120.071 146.465L111.575 150.048C111.456 149.98 111.336 149.894 111.217 149.809Z" fill="#3A3A3A"/>
<path d="M111.575 150.049L120.071 146.467C120.191 146.535 120.293 146.603 120.412 146.672L111.916 150.254C111.797 150.186 111.695 150.118 111.575 150.049Z" fill="#393939"/>
<path d="M111.917 150.253L120.413 146.67C120.515 146.721 120.618 146.789 120.72 146.841L112.224 150.423C112.122 150.372 112.019 150.321 111.917 150.253Z" fill="#373737"/>
<path d="M112.223 150.426L120.719 146.844C120.821 146.895 120.923 146.946 121.026 146.98L112.53 150.563C112.427 150.512 112.325 150.478 112.223 150.426Z" fill="#363636"/>
<path d="M112.531 150.563L121.027 146.98C121.13 147.015 121.232 147.066 121.317 147.1L112.821 150.682C112.719 150.648 112.617 150.614 112.531 150.563Z" fill="#353535"/>
<path d="M112.838 150.678L121.334 147.096C121.436 147.13 121.539 147.164 121.624 147.198L113.128 150.781C113.026 150.747 112.923 150.712 112.838 150.678Z" fill="#333333"/>
<path d="M113.128 150.782L121.624 147.199C121.726 147.233 121.811 147.25 121.914 147.285L113.418 150.867C113.316 150.85 113.213 150.816 113.128 150.782Z" fill="#323232"/>
<path d="M113.417 150.87L121.913 147.287C122.015 147.304 122.118 147.338 122.22 147.355L113.724 150.938C113.622 150.921 113.519 150.904 113.417 150.87Z" fill="#303030"/>
<path d="M113.725 150.936L122.221 147.354C122.323 147.371 122.425 147.388 122.528 147.405L114.032 150.987C113.929 150.987 113.827 150.953 113.725 150.936Z" fill="#2F2F2F"/>
<path d="M114.032 150.989L122.528 147.406C122.528 147.406 122.648 147.406 122.716 147.423L114.22 151.006C114.22 151.006 114.1 151.006 114.032 150.989Z" fill="#2D2D2D"/>
</g>
<mask id="mask7_502_13576" style="mask-type:luminance" maskUnits="userSpaceOnUse" x="113" y="125" width="17" height="26">
<path d="M125.176 147.063L116.68 150.646C119.512 149.451 121.474 145.664 121.338 140.938C121.167 134.967 117.687 129.781 113.575 129.372L122.071 125.789C126.166 126.199 129.646 131.385 129.833 137.356C129.97 142.064 128.008 145.869 125.176 147.063Z" fill="white"/>
</mask>
<g mask="url(#mask7_502_13576)">
<path d="M113.575 129.372L122.071 125.789C122.071 125.789 122.191 125.789 122.259 125.806L113.763 129.389C113.763 129.389 113.643 129.389 113.575 129.372Z" fill="#7C7C7C"/>
<path d="M113.763 129.389L122.259 125.807C122.361 125.807 122.463 125.841 122.566 125.858L114.07 129.44C113.967 129.423 113.865 129.406 113.763 129.389Z" fill="#808080"/>
<path d="M114.07 129.438L122.566 125.855C122.669 125.873 122.771 125.89 122.856 125.924L114.36 129.506C114.258 129.489 114.156 129.455 114.07 129.438Z" fill="#848484"/>
<path d="M114.36 129.508L122.856 125.926C122.959 125.943 123.044 125.977 123.146 126.011L114.65 129.594C114.548 129.56 114.463 129.543 114.36 129.508Z" fill="#888888"/>
<path d="M114.649 129.594L123.145 126.012C123.248 126.046 123.35 126.08 123.435 126.114L114.939 129.697C114.837 129.663 114.735 129.628 114.649 129.594Z" fill="#8C8C8C"/>
<path d="M114.956 129.678L123.452 126.096C123.554 126.13 123.657 126.164 123.742 126.215L115.246 129.798C115.144 129.764 115.041 129.712 114.956 129.678Z" fill="#909090"/>
<path d="M115.248 129.797L123.744 126.215C123.846 126.266 123.949 126.3 124.051 126.351L115.555 129.934C115.453 129.883 115.35 129.832 115.248 129.797Z" fill="#939393"/>
<path d="M115.555 129.952L124.051 126.369C124.153 126.42 124.255 126.472 124.358 126.54L115.862 130.122C115.759 130.071 115.657 130.003 115.555 129.952Z" fill="#979797"/>
<path d="M115.878 130.104L124.374 126.521C124.493 126.59 124.596 126.658 124.715 126.726L116.219 130.309C116.1 130.241 115.997 130.172 115.878 130.104Z" fill="#9B9B9B"/>
<path d="M116.22 130.311L124.716 126.729C124.835 126.814 124.954 126.882 125.074 126.967L116.578 130.55C116.459 130.465 116.339 130.379 116.22 130.311Z" fill="#9F9F9F"/>
<path d="M116.577 130.563L125.073 126.98C125.21 127.083 125.346 127.185 125.482 127.288L116.987 130.87C116.85 130.768 116.714 130.665 116.577 130.563Z" fill="#A3A3A3"/>
<path d="M116.971 130.874L125.467 127.291C125.637 127.427 125.791 127.564 125.944 127.718L117.448 131.3C117.295 131.147 117.141 131.01 116.971 130.874Z" fill="#A7A7A7"/>
<path d="M117.446 131.301L125.942 127.719C126.147 127.923 126.352 128.128 126.556 128.367L118.06 131.95C117.856 131.728 117.651 131.506 117.446 131.301Z" fill="#ABABAB"/>
<path d="M118.062 131.932L126.557 128.35C127.445 129.356 128.195 130.619 128.758 132.035L120.262 135.617C119.699 134.201 118.949 132.939 118.062 131.932Z" fill="#AFAFAF"/>
<path d="M120.263 135.616L128.759 132.033C128.912 132.443 129.066 132.869 129.185 133.296L120.689 136.878C120.553 136.452 120.416 136.025 120.263 135.616Z" fill="#ABABAB"/>
<path d="M120.689 136.878L129.185 133.295C129.288 133.636 129.373 133.96 129.458 134.319L120.962 137.901C120.877 137.56 120.792 137.219 120.689 136.878Z" fill="#A7A7A7"/>
<path d="M120.963 137.901L129.459 134.318C129.527 134.625 129.578 134.915 129.629 135.223L121.133 138.805C121.082 138.498 121.031 138.191 120.963 137.901Z" fill="#A3A3A3"/>
<path d="M121.133 138.805L129.629 135.223C129.68 135.496 129.714 135.786 129.748 136.076L121.252 139.658C121.218 139.368 121.184 139.095 121.133 138.805Z" fill="#9F9F9F"/>
<path d="M121.252 139.657L129.748 136.074C129.782 136.347 129.799 136.603 129.816 136.876L121.32 140.459C121.32 140.186 121.286 139.93 121.252 139.657Z" fill="#9B9B9B"/>
<path d="M121.32 140.46L129.816 136.877C129.816 137.03 129.816 137.201 129.833 137.355C129.833 137.457 129.833 137.559 129.833 137.645L121.337 141.227C121.337 141.125 121.337 141.023 121.337 140.937C121.337 140.784 121.337 140.613 121.32 140.46Z" fill="#979797"/>
<path d="M121.337 141.227L129.833 137.645C129.833 137.9 129.833 138.139 129.833 138.378L121.337 141.961C121.337 141.722 121.337 141.466 121.337 141.227Z" fill="#939393"/>
<path d="M121.338 141.962L129.834 138.379C129.834 138.618 129.817 138.857 129.8 139.078L121.304 142.661C121.321 142.422 121.338 142.2 121.338 141.962Z" fill="#909090"/>
<path d="M121.287 142.661L129.783 139.078C129.766 139.3 129.732 139.522 129.715 139.743L121.219 143.326C121.253 143.104 121.27 142.883 121.287 142.661Z" fill="#8C8C8C"/>
<path d="M121.218 143.342L129.713 139.76C129.679 139.982 129.645 140.203 129.611 140.408L121.115 143.991C121.149 143.769 121.183 143.564 121.218 143.342Z" fill="#888888"/>
<path d="M121.116 143.993L129.612 140.41C129.578 140.632 129.527 140.837 129.475 141.041L120.979 144.624C121.031 144.419 121.065 144.215 121.116 143.993Z" fill="#848484"/>
<path d="M120.995 144.624L129.491 141.041C129.44 141.246 129.389 141.45 129.338 141.655L120.842 145.238C120.893 145.033 120.944 144.828 120.995 144.624Z" fill="#808080"/>
<path d="M120.825 145.237L129.321 141.654C129.27 141.859 129.202 142.064 129.134 142.251L120.638 145.834C120.706 145.629 120.774 145.442 120.825 145.237Z" fill="#7C7C7C"/>
<path d="M120.638 145.835L129.134 142.252C129.065 142.457 128.997 142.661 128.912 142.849L120.416 146.432C120.501 146.244 120.57 146.039 120.638 145.835Z" fill="#787878"/>
<path d="M120.417 146.432L128.913 142.85C128.828 143.054 128.742 143.259 128.657 143.447L120.161 147.029C120.246 146.842 120.349 146.637 120.417 146.432Z" fill="#747474"/>
<path d="M120.16 147.03L128.656 143.447C128.553 143.652 128.451 143.857 128.348 144.044L119.853 147.627C119.955 147.439 120.074 147.235 120.16 147.03Z" fill="#717171"/>
<path d="M119.837 147.643L128.333 144.061C128.213 144.282 128.077 144.487 127.94 144.675L119.444 148.257C119.581 148.053 119.717 147.848 119.837 147.643Z" fill="#6D6D6D"/>
<path d="M119.461 148.258L127.957 144.676C127.786 144.915 127.616 145.136 127.445 145.358L118.949 148.941C119.137 148.736 119.307 148.497 119.461 148.258Z" fill="#696969"/>
<path d="M118.933 148.942L127.428 145.359C126.78 146.127 126.013 146.707 125.177 147.065L116.681 150.648C117.517 150.29 118.284 149.71 118.933 148.942Z" fill="#656565"/>
</g>
<mask id="mask8_502_13576" style="mask-type:luminance" maskUnits="userSpaceOnUse" x="116" y="147" width="10" height="4">
<path d="M125.14 147.061C125.14 147.061 125.14 147.061 125.157 147.061L116.662 150.643C116.662 150.643 116.662 150.643 116.645 150.643C119.476 149.449 122.308 148.255 125.14 147.061Z" fill="white"/>
</mask>
<g mask="url(#mask8_502_13576)">
<path d="M116.407 150.746L124.903 147.163C124.988 147.129 125.091 147.095 125.176 147.061L116.68 150.643C116.595 150.677 116.493 150.711 116.407 150.746Z" fill="#252525"/>
</g>
<mask id="mask9_502_13576" style="mask-type:luminance" maskUnits="userSpaceOnUse" x="111" y="125" width="12" height="5">
<path d="M111.103 129.725L119.598 126.142C120.366 125.818 121.202 125.682 122.072 125.767L113.576 129.35C112.706 129.264 111.87 129.401 111.103 129.725Z" fill="white"/>
</mask>
<g mask="url(#mask9_502_13576)">
<path d="M111.104 129.728L119.599 126.145C119.685 126.111 119.787 126.077 119.872 126.043L111.376 129.626C111.291 129.66 111.189 129.694 111.104 129.728Z" fill="#656565"/>
<path d="M111.377 129.628L119.873 126.046C120.061 125.977 120.248 125.926 120.436 125.875L111.94 129.458C111.752 129.509 111.565 129.56 111.377 129.628Z" fill="#696969"/>
<path d="M111.94 129.455L120.436 125.872C120.59 125.838 120.726 125.804 120.88 125.787L112.384 129.37C112.23 129.387 112.077 129.421 111.94 129.455Z" fill="#6D6D6D"/>
<path d="M112.399 129.388L120.895 125.806C121.015 125.806 121.134 125.771 121.271 125.771L112.775 129.354C112.655 129.354 112.519 129.371 112.399 129.388Z" fill="#717171"/>
<path d="M112.758 129.354L121.254 125.771C121.373 125.771 121.493 125.771 121.612 125.771L113.116 129.354C112.997 129.354 112.877 129.354 112.758 129.354Z" fill="#747474"/>
<path d="M113.116 129.337L121.612 125.754C121.714 125.754 121.834 125.754 121.936 125.754L113.44 129.337C113.338 129.337 113.219 129.337 113.116 129.337Z" fill="#787878"/>
<path d="M113.44 129.354L121.936 125.771C121.936 125.771 122.022 125.771 122.073 125.771L113.577 129.354C113.577 129.354 113.492 129.354 113.44 129.354Z" fill="#7C7C7C"/>
</g>
<path d="M136.692 138.906C136.692 138.667 136.692 138.429 136.692 138.19C136.692 138.002 136.692 137.831 136.692 137.644C136.692 137.354 136.675 137.047 136.658 136.757C136.641 136.45 136.607 136.142 136.572 135.835C136.572 135.699 136.555 135.562 136.538 135.443C136.538 135.392 136.538 135.324 136.538 135.272C136.487 134.744 136.402 134.215 136.317 133.703C136.317 133.669 136.317 133.635 136.3 133.601C136.265 133.43 136.231 133.259 136.197 133.089C136.129 132.73 136.061 132.372 135.992 132.014C135.975 131.929 135.941 131.843 135.924 131.758C135.856 131.451 135.771 131.144 135.685 130.837C135.617 130.598 135.566 130.342 135.498 130.103C135.481 130.035 135.447 129.967 135.429 129.881C135.208 129.165 134.986 128.483 134.713 127.8C134.713 127.8 134.713 127.766 134.696 127.749C134.44 127.118 134.167 126.504 133.877 125.889C133.792 125.702 133.672 125.514 133.587 125.326C133.382 124.917 133.178 124.525 132.956 124.149C132.836 123.927 132.7 123.723 132.563 123.518C132.359 123.177 132.137 122.853 131.915 122.529C131.762 122.307 131.608 122.119 131.454 121.914C131.233 121.624 131.011 121.334 130.772 121.061C130.704 120.976 130.636 120.874 130.567 120.788C130.465 120.669 130.346 120.567 130.243 120.447C130.039 120.225 129.834 120.004 129.612 119.799C129.527 119.714 129.441 119.611 129.356 119.526C129.203 119.39 129.049 119.253 128.895 119.117C128.793 119.031 128.691 118.929 128.588 118.844C128.537 118.792 128.486 118.741 128.435 118.707C128.179 118.502 127.923 118.298 127.667 118.11C127.616 118.076 127.548 118.025 127.497 117.991C127.445 117.956 127.377 117.905 127.326 117.871C127.207 117.786 127.087 117.701 126.968 117.632C126.746 117.496 126.524 117.359 126.302 117.223C126.251 117.189 126.2 117.172 126.149 117.138C126.115 117.121 126.064 117.086 126.029 117.069C125.927 117.018 125.808 116.95 125.705 116.899C125.501 116.796 125.296 116.711 125.108 116.626C125.006 116.575 124.886 116.54 124.784 116.489C124.75 116.489 124.716 116.455 124.682 116.438C124.63 116.421 124.579 116.404 124.528 116.37C124.34 116.302 124.136 116.233 123.948 116.165C123.76 116.114 123.573 116.046 123.368 115.995C123.351 115.995 123.334 115.995 123.317 115.995C123.3 115.995 123.283 115.995 123.266 115.995C123.112 115.96 122.959 115.926 122.788 115.892C122.583 115.858 122.396 115.824 122.191 115.79C122.071 115.79 121.952 115.756 121.833 115.739C121.747 115.739 121.662 115.739 121.56 115.722C121.338 115.722 121.133 115.688 120.911 115.688C120.826 115.688 120.741 115.688 120.655 115.688C120.587 115.688 120.536 115.688 120.468 115.688C120.383 115.688 120.297 115.688 120.229 115.688C119.99 115.688 119.734 115.722 119.495 115.756C119.461 115.756 119.427 115.756 119.393 115.773C119.308 115.773 119.222 115.807 119.137 115.824C118.967 115.858 118.779 115.875 118.608 115.926C118.523 115.943 118.438 115.978 118.352 115.995C118.182 116.046 118.011 116.08 117.841 116.148C117.738 116.182 117.619 116.199 117.516 116.233C117.329 116.302 117.141 116.37 116.971 116.438L108.475 120.021C108.765 119.901 109.055 119.799 109.345 119.714C109.515 119.662 109.686 119.611 109.856 119.56C110.112 119.492 110.385 119.441 110.641 119.39C110.727 119.39 110.812 119.355 110.897 119.338C111.255 119.287 111.614 119.253 111.972 119.253C112.04 119.253 112.091 119.253 112.16 119.253C112.552 119.253 112.944 119.253 113.337 119.304C113.814 119.355 114.292 119.441 114.77 119.56C114.787 119.56 114.804 119.56 114.821 119.56C115.282 119.68 115.742 119.816 116.186 119.987C116.22 119.987 116.254 120.021 116.288 120.038C116.715 120.208 117.124 120.396 117.551 120.618C117.585 120.635 117.636 120.669 117.67 120.686C118.062 120.908 118.455 121.147 118.847 121.403C118.898 121.437 118.967 121.488 119.018 121.522C119.393 121.778 119.751 122.068 120.11 122.375C120.212 122.46 120.314 122.563 120.417 122.648C120.655 122.87 120.894 123.092 121.133 123.33C121.355 123.535 121.56 123.757 121.764 123.996C121.952 124.2 122.123 124.388 122.293 124.593C122.532 124.866 122.754 125.156 122.976 125.446C123.129 125.651 123.283 125.855 123.436 126.06C123.658 126.367 123.863 126.708 124.085 127.032C124.221 127.237 124.358 127.442 124.477 127.664C124.699 128.039 124.903 128.431 125.108 128.841C125.211 129.028 125.313 129.216 125.398 129.404C125.688 130.001 125.961 130.615 126.217 131.246C126.217 131.263 126.217 131.297 126.234 131.314C126.49 131.98 126.729 132.679 126.951 133.379C127.053 133.686 127.121 134.01 127.207 134.317C127.292 134.624 127.377 134.931 127.445 135.238C127.548 135.665 127.633 136.108 127.718 136.552C127.752 136.723 127.787 136.893 127.821 137.064C127.923 137.678 128.008 138.292 128.077 138.906C128.077 139.043 128.094 139.179 128.111 139.316C128.162 139.913 128.213 140.51 128.23 141.124C128.23 141.551 128.23 141.977 128.23 142.386C128.23 142.557 128.23 142.711 128.23 142.881C128.23 143.376 128.196 143.854 128.145 144.331C128.145 144.365 128.145 144.382 128.145 144.417C128.111 144.877 128.06 145.321 127.991 145.747C127.974 145.901 127.94 146.037 127.923 146.174C127.872 146.498 127.821 146.805 127.752 147.112C127.718 147.266 127.684 147.436 127.65 147.59C127.582 147.897 127.514 148.187 127.445 148.477C127.411 148.613 127.377 148.767 127.343 148.903C127.241 149.262 127.138 149.603 127.036 149.944C127.019 150.012 126.985 150.098 126.968 150.166C126.831 150.575 126.678 150.985 126.507 151.377C126.456 151.514 126.388 151.633 126.336 151.769C126.217 152.025 126.098 152.298 125.978 152.554C125.893 152.742 125.791 152.913 125.705 153.083C125.603 153.288 125.501 153.493 125.381 153.68C125.245 153.919 125.091 154.158 124.938 154.397C124.852 154.533 124.767 154.67 124.682 154.789C124.409 155.199 124.102 155.574 123.795 155.932C123.709 156.034 123.607 156.137 123.522 156.239C123.317 156.478 123.112 156.7 122.89 156.905C122.771 157.024 122.652 157.126 122.532 157.229C122.327 157.416 122.106 157.604 121.901 157.775C121.781 157.877 121.662 157.962 121.526 158.065C121.287 158.235 121.048 158.389 120.809 158.542C120.69 158.611 120.587 158.696 120.468 158.747C120.11 158.952 119.734 159.139 119.359 159.293L127.855 155.71C128.23 155.557 128.605 155.369 128.964 155.164C129.083 155.096 129.185 155.028 129.305 154.96C129.544 154.806 129.783 154.653 130.021 154.482C130.141 154.397 130.277 154.294 130.397 154.192C130.619 154.021 130.823 153.834 131.028 153.646C131.147 153.544 131.267 153.441 131.386 153.322C131.608 153.117 131.813 152.878 132.017 152.657C132.086 152.571 132.171 152.503 132.239 152.435C132.256 152.418 132.273 152.384 132.29 152.367C132.598 152.008 132.888 151.616 133.16 151.224C133.16 151.207 133.195 151.189 133.195 151.172C133.28 151.053 133.348 150.934 133.416 150.814C133.57 150.575 133.723 150.354 133.86 150.098C133.877 150.063 133.911 150.029 133.928 149.995C134.013 149.842 134.099 149.671 134.184 149.5C134.269 149.33 134.372 149.159 134.457 148.972C134.474 148.938 134.491 148.903 134.508 148.869C134.611 148.648 134.713 148.426 134.815 148.187C134.866 148.05 134.935 147.931 134.986 147.812C134.986 147.794 135.003 147.777 135.02 147.76C135.174 147.402 135.31 147.027 135.447 146.634C135.447 146.634 135.447 146.617 135.447 146.6C135.464 146.532 135.498 146.447 135.515 146.379C135.617 146.088 135.702 145.798 135.788 145.508C135.788 145.457 135.822 145.389 135.839 145.338C135.873 145.201 135.907 145.048 135.941 144.911C135.992 144.724 136.044 144.553 136.078 144.365C136.112 144.246 136.129 144.127 136.146 144.007C136.18 143.854 136.214 143.7 136.248 143.529C136.265 143.41 136.3 143.291 136.317 143.171C136.351 142.967 136.385 142.779 136.402 142.574C136.419 142.438 136.453 142.284 136.47 142.148C136.47 142.096 136.487 142.028 136.504 141.977C136.555 141.585 136.59 141.192 136.624 140.8C136.624 140.783 136.624 140.766 136.624 140.732C136.658 140.305 136.692 139.879 136.709 139.435C136.709 139.384 136.709 139.333 136.709 139.282C136.709 139.128 136.709 138.957 136.709 138.804L136.692 138.906Z" fill="#6742CF"/>
<path d="M113.393 119.195C121.353 120.004 128.093 129.873 128.42 141.221C128.747 152.586 122.557 161.114 114.579 160.306C106.601 159.498 99.8781 149.646 99.5515 138.281C99.2248 126.933 105.397 118.387 113.393 119.195ZM114.321 151.09C118.448 151.503 121.68 146.964 121.508 140.946C121.336 134.928 117.829 129.701 113.685 129.288C109.541 128.876 106.326 133.415 106.498 139.415C106.67 145.416 110.177 150.66 114.321 151.09Z" fill="#1F123B"/>
<path d="M113.682 129.282C117.809 129.695 121.316 134.922 121.505 140.94C121.695 146.957 118.462 151.514 114.318 151.084C110.175 150.654 106.684 145.444 106.495 139.409C106.306 133.374 109.539 128.852 113.682 129.282Z" fill="#B496F2"/>
<mask id="mask10_502_13576" style="mask-type:luminance" maskUnits="userSpaceOnUse" x="213" y="202" width="12" height="5">
<path d="M222.468 203.116C223.321 203.201 224.157 203.082 224.907 202.758C222.075 203.952 219.243 205.146 216.411 206.34C215.661 206.647 214.825 206.784 213.972 206.699C216.514 205.624 219.721 203.526 222.468 203.116Z" fill="white"/>
</mask>
<g mask="url(#mask10_502_13576)">
<path d="M213.988 206.686L222.484 203.104C222.484 203.104 222.569 203.104 222.621 203.104L214.125 206.686C214.125 206.686 214.039 206.686 213.988 206.686Z" fill="#2D2D2D"/>
<path d="M214.124 206.702L222.62 203.119C222.722 203.119 222.842 203.119 222.944 203.119L214.448 206.702C214.346 206.702 214.226 206.702 214.124 206.702Z" fill="#2C2C2C"/>
<path d="M214.448 206.719L222.944 203.137C223.064 203.137 223.183 203.137 223.302 203.137L214.807 206.719C214.687 206.719 214.568 206.719 214.448 206.719Z" fill="#2B2B2B"/>
<path d="M214.789 206.701L223.285 203.118C223.404 203.118 223.524 203.101 223.66 203.084L215.164 206.667C215.045 206.667 214.926 206.701 214.789 206.701Z" fill="#292929"/>
<path d="M215.166 206.668L223.662 203.085C223.815 203.068 223.969 203.034 224.105 203L215.61 206.583C215.456 206.617 215.32 206.651 215.166 206.668Z" fill="#282828"/>
<path d="M215.609 206.583L224.105 203.001C224.293 202.949 224.481 202.898 224.668 202.83L216.172 206.413C215.985 206.481 215.797 206.532 215.609 206.583Z" fill="#262626"/>
<path d="M216.173 206.429L224.669 202.846C224.754 202.812 224.856 202.778 224.942 202.744L216.446 206.327C216.361 206.361 216.258 206.395 216.173 206.429Z" fill="#252525"/>
</g>
<mask id="mask11_502_13576" style="mask-type:luminance" maskUnits="userSpaceOnUse" x="206" y="181" width="17" height="26">
<path d="M214.723 191.537C214.894 197.525 218.374 202.695 222.486 203.121L213.99 206.704C209.878 206.277 206.415 201.108 206.227 195.12C209.059 193.926 211.891 192.731 214.723 191.537C211.891 192.731 209.059 193.926 206.227 195.103C206.091 190.411 208.036 186.607 210.885 185.413L219.381 181.83C216.532 183.024 214.587 186.812 214.723 191.52V191.537Z" fill="white"/>
</mask>
<g mask="url(#mask11_502_13576)">
<path d="M210.886 185.428L219.382 181.846C218.546 182.204 217.778 182.784 217.13 183.552L208.634 187.134C209.282 186.367 210.05 185.787 210.886 185.428Z" fill="#252525"/>
<path d="M208.615 187.116L217.111 183.533C216.924 183.738 216.753 183.977 216.599 184.216L208.104 187.798C208.274 187.559 208.445 187.338 208.615 187.116Z" fill="#262626"/>
<path d="M208.104 187.801L216.6 184.219C216.464 184.423 216.344 184.628 216.208 184.833L207.712 188.416C207.831 188.194 207.968 187.989 208.104 187.801Z" fill="#282828"/>
<path d="M207.712 188.415L216.208 184.832C216.106 185.02 215.986 185.224 215.901 185.429L207.405 189.012C207.508 188.807 207.61 188.602 207.712 188.415Z" fill="#292929"/>
<path d="M207.404 189.01L215.9 185.428C215.815 185.615 215.713 185.82 215.644 186.025L207.148 189.607C207.234 189.403 207.319 189.198 207.404 189.01Z" fill="#2B2B2B"/>
<path d="M207.149 189.606L215.644 186.023C215.559 186.211 215.491 186.416 215.423 186.621L206.927 190.203C206.995 189.998 207.063 189.794 207.149 189.606Z" fill="#2C2C2C"/>
<path d="M206.927 190.206L215.423 186.623C215.355 186.828 215.286 187.015 215.235 187.22L206.739 190.803C206.79 190.598 206.859 190.393 206.927 190.206Z" fill="#2D2D2D"/>
<path d="M206.739 190.803L215.234 187.221C215.183 187.425 215.132 187.63 215.081 187.835L206.585 191.417C206.636 191.213 206.687 191.008 206.739 190.803Z" fill="#2F2F2F"/>
<path d="M206.569 191.415L215.065 187.832C215.014 188.037 214.98 188.241 214.929 188.463L206.433 192.046C206.467 191.824 206.518 191.619 206.569 191.415Z" fill="#303030"/>
<path d="M206.45 192.049L214.946 188.467C214.912 188.689 214.878 188.893 214.844 189.115L206.348 192.698C206.382 192.476 206.416 192.254 206.45 192.049Z" fill="#323232"/>
<path d="M206.348 192.694L214.843 189.111C214.809 189.333 214.792 189.555 214.775 189.777L206.279 193.359C206.296 193.138 206.33 192.916 206.348 192.694Z" fill="#333333"/>
<path d="M206.278 193.378L214.774 189.795C214.757 190.034 214.74 190.256 214.74 190.494L206.244 194.077C206.244 193.838 206.261 193.599 206.278 193.378Z" fill="#353535"/>
<path d="M206.228 194.079L214.723 190.496C214.723 190.735 214.723 190.991 214.723 191.23L206.228 194.812C206.228 194.556 206.228 194.318 206.228 194.079Z" fill="#363636"/>
<path d="M206.228 194.811L214.723 191.229C214.723 191.331 214.723 191.433 214.723 191.519C214.723 191.672 214.723 191.843 214.741 191.996L206.245 195.579C206.245 195.425 206.245 195.255 206.228 195.101C206.228 194.999 206.228 194.896 206.228 194.811Z" fill="#373737"/>
<path d="M206.244 195.577L214.74 191.994C214.74 192.267 214.774 192.54 214.808 192.796L206.312 196.379C206.278 196.106 206.261 195.85 206.244 195.577Z" fill="#393939"/>
<path d="M206.312 196.397L214.807 192.814C214.842 193.104 214.876 193.377 214.927 193.667L206.431 197.25C206.38 196.977 206.346 196.687 206.312 196.397Z" fill="#3A3A3A"/>
<path d="M206.433 197.251L214.929 193.668C214.98 193.975 215.031 194.282 215.099 194.589L206.603 198.172C206.535 197.865 206.484 197.558 206.433 197.251Z" fill="#3C3C3C"/>
<path d="M206.603 198.157L215.098 194.574C215.184 194.915 215.269 195.257 215.371 195.598L206.876 199.18C206.773 198.839 206.688 198.498 206.603 198.157Z" fill="#3D3D3D"/>
<path d="M206.875 199.18L215.371 195.598C215.507 196.024 215.644 196.451 215.814 196.86L207.319 200.443C207.165 200.033 207.011 199.607 206.875 199.18Z" fill="#3E3E3E"/>
<path d="M207.318 200.442L215.814 196.859C216.377 198.275 217.128 199.521 217.998 200.527L209.502 204.11C208.615 203.103 207.864 201.858 207.318 200.442Z" fill="#404040"/>
<path d="M209.503 204.129L217.999 200.547C218.204 200.769 218.408 200.99 218.613 201.178L210.117 204.761C209.912 204.556 209.708 204.351 209.503 204.129Z" fill="#3E3E3E"/>
<path d="M210.118 204.758L218.614 201.176C218.768 201.329 218.921 201.466 219.092 201.602L210.596 205.185C210.442 205.048 210.272 204.912 210.118 204.758Z" fill="#3D3D3D"/>
<path d="M210.594 205.184L219.09 201.602C219.226 201.704 219.363 201.806 219.499 201.909L211.003 205.491C210.867 205.389 210.73 205.287 210.594 205.184Z" fill="#3C3C3C"/>
<path d="M210.987 205.489L219.483 201.906C219.603 201.992 219.722 202.077 219.841 202.145L211.346 205.728C211.226 205.659 211.107 205.574 210.987 205.489Z" fill="#3A3A3A"/>
<path d="M211.346 205.731L219.842 202.148C219.961 202.217 220.063 202.285 220.183 202.353L211.687 205.936C211.567 205.868 211.465 205.799 211.346 205.731Z" fill="#393939"/>
<path d="M211.688 205.932L220.183 202.35C220.286 202.401 220.388 202.469 220.49 202.52L211.995 206.103C211.892 206.052 211.79 206 211.688 205.932Z" fill="#373737"/>
<path d="M211.994 206.104L220.49 202.521C220.592 202.573 220.695 202.624 220.797 202.658L212.301 206.241C212.199 206.189 212.097 206.155 211.994 206.104Z" fill="#363636"/>
<path d="M212.318 206.241L220.814 202.658C220.917 202.692 221.019 202.744 221.104 202.778L212.608 206.36C212.506 206.326 212.404 206.292 212.318 206.241Z" fill="#353535"/>
<path d="M212.608 206.362L221.104 202.779C221.207 202.813 221.309 202.848 221.394 202.882L212.898 206.464C212.796 206.43 212.694 206.396 212.608 206.362Z" fill="#333333"/>
<path d="M212.898 206.465L221.394 202.883C221.497 202.917 221.582 202.934 221.684 202.968L213.188 206.551C213.086 206.534 212.984 206.5 212.898 206.465Z" fill="#323232"/>
<path d="M213.204 206.549L221.7 202.967C221.802 202.984 221.905 203.018 222.007 203.035L213.511 206.618C213.409 206.601 213.306 206.584 213.204 206.549Z" fill="#303030"/>
<path d="M213.495 206.616L221.991 203.033C222.093 203.05 222.196 203.067 222.298 203.084L213.802 206.667C213.7 206.667 213.597 206.633 213.495 206.616Z" fill="#2F2F2F"/>
<path d="M213.803 206.667L222.299 203.084C222.299 203.084 222.418 203.084 222.486 203.101L213.99 206.684C213.99 206.684 213.871 206.684 213.803 206.667Z" fill="#2D2D2D"/>
</g>
<mask id="mask12_502_13576" style="mask-type:luminance" maskUnits="userSpaceOnUse" x="213" y="181" width="17" height="26">
<path d="M224.944 202.745L216.448 206.327C219.28 205.133 221.242 201.346 221.105 196.62C220.934 190.649 217.454 185.463 213.343 185.053L221.839 181.471C225.933 181.88 229.413 187.066 229.601 193.037C229.737 197.746 227.776 201.55 224.944 202.745Z" fill="white"/>
</mask>
<g mask="url(#mask12_502_13576)">
<path d="M213.358 185.053L221.854 181.471C221.854 181.471 221.974 181.471 222.042 181.488L213.546 185.07C213.546 185.07 213.427 185.07 213.358 185.053Z" fill="#7C7C7C"/>
<path d="M213.528 185.071L222.024 181.488C222.127 181.488 222.229 181.522 222.331 181.539L213.835 185.122C213.733 185.105 213.631 185.088 213.528 185.071Z" fill="#808080"/>
<path d="M213.837 185.12L222.333 181.537C222.435 181.554 222.538 181.571 222.623 181.605L214.127 185.188C214.025 185.171 213.922 185.137 213.837 185.12Z" fill="#848484"/>
<path d="M214.144 185.19L222.639 181.607C222.742 181.624 222.827 181.659 222.929 181.693L214.434 185.275C214.331 185.241 214.246 185.224 214.144 185.19Z" fill="#888888"/>
<path d="M214.433 185.278L222.929 181.695C223.031 181.729 223.133 181.764 223.219 181.798L214.723 185.38C214.62 185.346 214.518 185.312 214.433 185.278Z" fill="#8C8C8C"/>
<path d="M214.723 185.376L223.219 181.793C223.321 181.827 223.423 181.861 223.509 181.912L215.013 185.495C214.91 185.461 214.808 185.41 214.723 185.376Z" fill="#909090"/>
<path d="M215.013 185.497L223.509 181.914C223.611 181.965 223.713 181.999 223.816 182.051L215.32 185.633C215.217 185.582 215.115 185.531 215.013 185.497Z" fill="#939393"/>
<path d="M215.321 185.633L223.817 182.051C223.92 182.102 224.022 182.153 224.124 182.221L215.628 185.804C215.526 185.753 215.424 185.685 215.321 185.633Z" fill="#979797"/>
<path d="M215.644 185.805L224.139 182.223C224.259 182.291 224.361 182.359 224.481 182.427L215.985 186.01C215.865 185.942 215.763 185.874 215.644 185.805Z" fill="#9B9B9B"/>
<path d="M215.985 186.01L224.481 182.428C224.601 182.513 224.72 182.581 224.84 182.667L216.344 186.249C216.224 186.164 216.105 186.079 215.985 186.01Z" fill="#9F9F9F"/>
<path d="M216.344 186.245L224.84 182.662C224.976 182.764 225.113 182.867 225.249 182.969L216.753 186.552C216.617 186.449 216.48 186.347 216.344 186.245Z" fill="#A3A3A3"/>
<path d="M216.737 186.555L225.233 182.973C225.404 183.109 225.557 183.246 225.711 183.399L217.215 186.982C217.061 186.828 216.908 186.692 216.737 186.555Z" fill="#A7A7A7"/>
<path d="M217.213 186.983L225.709 183.4C225.914 183.605 226.118 183.81 226.323 184.049L217.827 187.631C217.622 187.41 217.418 187.188 217.213 186.983Z" fill="#ABABAB"/>
<path d="M217.828 187.629L226.324 184.047C227.211 185.053 227.962 186.316 228.525 187.732L220.029 191.314C219.466 189.898 218.715 188.636 217.828 187.629Z" fill="#AFAFAF"/>
<path d="M220.029 191.315L228.525 187.732C228.679 188.142 228.832 188.568 228.952 188.995L220.456 192.577C220.319 192.151 220.183 191.724 220.029 191.315Z" fill="#ABABAB"/>
<path d="M220.473 192.577L228.969 188.994C229.071 189.335 229.156 189.659 229.242 190.018L220.746 193.6C220.66 193.259 220.575 192.918 220.473 192.577Z" fill="#A7A7A7"/>
<path d="M220.729 193.583L229.224 190C229.293 190.307 229.344 190.597 229.395 190.904L220.899 194.487C220.848 194.18 220.797 193.873 220.729 193.583Z" fill="#A3A3A3"/>
<path d="M220.898 194.503L229.394 190.92C229.446 191.193 229.48 191.483 229.514 191.773L221.018 195.356C220.984 195.066 220.95 194.793 220.898 194.503Z" fill="#9F9F9F"/>
<path d="M221.02 195.338L229.515 191.756C229.55 192.029 229.567 192.285 229.584 192.558L221.088 196.14C221.088 195.867 221.054 195.611 221.02 195.338Z" fill="#9B9B9B"/>
<path d="M221.087 196.143L229.583 192.561C229.583 192.714 229.583 192.885 229.6 193.038C229.6 193.141 229.6 193.243 229.6 193.328L221.104 196.911C221.104 196.808 221.104 196.706 221.104 196.621C221.104 196.467 221.104 196.297 221.087 196.143Z" fill="#979797"/>
<path d="M221.12 196.928L229.616 193.346C229.616 193.602 229.616 193.84 229.616 194.079L221.12 197.662C221.12 197.423 221.12 197.167 221.12 196.928Z" fill="#939393"/>
<path d="M221.102 197.661L229.598 194.078C229.598 194.317 229.581 194.556 229.564 194.778L221.068 198.36C221.085 198.121 221.102 197.9 221.102 197.661Z" fill="#909090"/>
<path d="M221.07 198.362L229.566 194.779C229.549 195.001 229.515 195.223 229.498 195.445L221.002 199.027C221.036 198.805 221.053 198.584 221.07 198.362Z" fill="#8C8C8C"/>
<path d="M220.984 199.024L229.48 195.441C229.446 195.663 229.412 195.885 229.378 196.09L220.882 199.672C220.916 199.451 220.95 199.246 220.984 199.024Z" fill="#888888"/>
<path d="M220.899 199.674L229.395 196.092C229.361 196.314 229.31 196.518 229.259 196.723L220.763 200.306C220.814 200.101 220.848 199.896 220.899 199.674Z" fill="#848484"/>
<path d="M220.762 200.305L229.258 196.723C229.207 196.927 229.155 197.132 229.104 197.337L220.608 200.919C220.66 200.715 220.711 200.51 220.762 200.305Z" fill="#808080"/>
<path d="M220.609 200.919L229.104 197.336C229.053 197.541 228.985 197.745 228.917 197.933L220.421 201.516C220.489 201.311 220.557 201.123 220.609 200.919Z" fill="#7C7C7C"/>
<path d="M220.421 201.534L228.917 197.951C228.849 198.156 228.78 198.361 228.695 198.548L220.199 202.131C220.285 201.943 220.353 201.738 220.421 201.534Z" fill="#787878"/>
<path d="M220.2 202.131L228.696 198.549C228.611 198.754 228.526 198.958 228.44 199.146L219.944 202.729C220.03 202.541 220.132 202.336 220.2 202.131Z" fill="#747474"/>
<path d="M219.926 202.725L228.422 199.143C228.32 199.347 228.217 199.552 228.115 199.74L219.619 203.322C219.722 203.135 219.841 202.93 219.926 202.725Z" fill="#717171"/>
<path d="M219.62 203.325L228.116 199.742C227.996 199.964 227.86 200.169 227.723 200.356L219.228 203.939C219.364 203.734 219.5 203.53 219.62 203.325Z" fill="#6D6D6D"/>
<path d="M219.227 203.94L227.723 200.357C227.552 200.596 227.381 200.818 227.211 201.04L218.715 204.622C218.903 204.418 219.073 204.179 219.227 203.94Z" fill="#696969"/>
<path d="M218.716 204.624L227.212 201.041C226.563 201.809 225.796 202.389 224.96 202.747L216.464 206.33C217.3 205.971 218.068 205.391 218.716 204.624Z" fill="#656565"/>
</g>
<mask id="mask13_502_13576" style="mask-type:luminance" maskUnits="userSpaceOnUse" x="216" y="202" width="9" height="5">
<path d="M224.906 202.758C224.906 202.758 224.906 202.758 224.923 202.758L216.427 206.34C216.427 206.34 216.427 206.34 216.41 206.34C219.242 205.146 222.074 203.952 224.906 202.758Z" fill="white"/>
</mask>
<g mask="url(#mask13_502_13576)">
<path d="M216.174 206.429L224.67 202.846C224.755 202.812 224.857 202.778 224.943 202.744L216.447 206.327C216.361 206.361 216.259 206.395 216.174 206.429Z" fill="#252525"/>
</g>
<path d="M236.474 194.603C236.474 194.365 236.474 194.126 236.474 193.887C236.474 193.699 236.474 193.529 236.474 193.341C236.474 193.051 236.457 192.744 236.44 192.454C236.423 192.147 236.389 191.84 236.355 191.533C236.355 191.396 236.338 191.26 236.321 191.14C236.321 191.089 236.321 191.021 236.321 190.97C236.269 190.441 236.184 189.912 236.099 189.4C236.099 189.366 236.099 189.332 236.082 189.298C236.048 189.127 236.014 188.957 235.979 188.786C235.911 188.428 235.843 188.069 235.775 187.711C235.758 187.626 235.723 187.541 235.706 187.455C235.638 187.148 235.553 186.841 235.468 186.534C235.399 186.295 235.348 186.039 235.28 185.801C235.263 185.732 235.229 185.664 235.212 185.579C234.99 184.862 234.768 184.18 234.495 183.497C234.495 183.497 234.495 183.463 234.478 183.446C234.222 182.815 233.949 182.201 233.659 181.587C233.574 181.399 233.455 181.211 233.369 181.024C233.165 180.614 232.96 180.222 232.738 179.847C232.619 179.625 232.482 179.42 232.346 179.215C232.141 178.874 231.919 178.55 231.697 178.226C231.544 178.004 231.39 177.816 231.237 177.612C231.015 177.322 230.793 177.032 230.554 176.759C230.486 176.673 230.418 176.571 230.35 176.486C230.247 176.366 230.128 176.264 230.025 176.145C229.821 175.923 229.616 175.701 229.394 175.496C229.309 175.411 229.224 175.309 229.138 175.223C228.985 175.087 228.831 174.95 228.678 174.814C228.575 174.729 228.473 174.626 228.371 174.541C228.319 174.49 228.268 174.439 228.217 174.404C227.961 174.2 227.705 173.995 227.449 173.807C227.398 173.773 227.33 173.722 227.279 173.688C227.228 173.654 227.159 173.603 227.108 173.568C226.989 173.483 226.869 173.398 226.75 173.33C226.528 173.193 226.306 173.057 226.085 172.92C226.033 172.886 225.982 172.869 225.931 172.835C225.897 172.818 225.846 172.784 225.812 172.767C225.709 172.715 225.59 172.647 225.487 172.596C225.283 172.494 225.078 172.408 224.89 172.323C224.788 172.272 224.669 172.238 224.566 172.187C224.532 172.187 224.498 172.152 224.464 172.135C224.413 172.118 224.362 172.101 224.31 172.067C224.123 171.999 223.918 171.931 223.73 171.862C223.543 171.811 223.355 171.743 223.15 171.692C223.133 171.692 223.116 171.692 223.099 171.692C223.082 171.692 223.065 171.692 223.048 171.692C222.894 171.658 222.741 171.624 222.57 171.589C222.365 171.555 222.178 171.521 221.973 171.487C221.854 171.487 221.734 171.453 221.615 171.436C221.53 171.436 221.444 171.436 221.342 171.419C221.12 171.419 220.915 171.385 220.694 171.385C220.608 171.385 220.523 171.385 220.438 171.385C220.369 171.385 220.318 171.385 220.25 171.385C220.165 171.385 220.079 171.385 220.011 171.385C219.772 171.385 219.516 171.419 219.278 171.453C219.244 171.453 219.209 171.453 219.175 171.47C219.09 171.47 219.005 171.504 218.919 171.521C218.749 171.555 218.561 171.572 218.391 171.624C218.305 171.641 218.22 171.675 218.135 171.692C217.964 171.743 217.793 171.777 217.623 171.845C217.52 171.88 217.401 171.897 217.299 171.931C217.111 171.999 216.923 172.067 216.753 172.135L208.257 175.718C208.547 175.599 208.837 175.496 209.127 175.411C209.298 175.36 209.468 175.309 209.639 175.257C209.895 175.189 210.168 175.138 210.423 175.087C210.509 175.087 210.594 175.053 210.679 175.036C211.038 174.984 211.396 174.95 211.754 174.95C211.822 174.95 211.874 174.95 211.942 174.95C212.334 174.95 212.727 174.95 213.119 175.001C213.597 175.053 214.074 175.138 214.552 175.257C214.569 175.257 214.586 175.257 214.603 175.257C215.064 175.377 215.524 175.513 215.968 175.684C216.002 175.684 216.036 175.718 216.07 175.735C216.497 175.906 216.906 176.093 217.333 176.315C217.367 176.332 217.418 176.366 217.452 176.383C217.845 176.605 218.237 176.844 218.629 177.1C218.681 177.134 218.749 177.185 218.8 177.219C219.175 177.475 219.534 177.765 219.892 178.072C219.994 178.158 220.097 178.26 220.199 178.345C220.438 178.567 220.677 178.789 220.915 179.028C221.137 179.232 221.342 179.454 221.547 179.693C221.734 179.898 221.905 180.085 222.075 180.29C222.314 180.563 222.536 180.853 222.758 181.143C222.911 181.348 223.065 181.553 223.218 181.757C223.44 182.064 223.645 182.406 223.867 182.73C224.003 182.934 224.14 183.139 224.259 183.361C224.481 183.736 224.686 184.129 224.89 184.538C224.993 184.726 225.095 184.913 225.18 185.101C225.47 185.698 225.743 186.312 225.999 186.944C225.999 186.961 225.999 186.995 226.016 187.012C226.272 187.677 226.511 188.377 226.733 189.076C226.835 189.383 226.903 189.707 226.989 190.014C227.074 190.321 227.159 190.628 227.228 190.936C227.33 191.362 227.415 191.806 227.501 192.249C227.535 192.42 227.569 192.59 227.603 192.761C227.705 193.375 227.791 193.989 227.859 194.603C227.859 194.74 227.876 194.876 227.893 195.013C227.944 195.61 227.995 196.207 228.012 196.821C228.012 197.248 228.012 197.674 228.012 198.084C228.012 198.254 228.012 198.408 228.012 198.578C228.012 199.073 227.978 199.551 227.927 200.029C227.927 200.063 227.927 200.08 227.927 200.114C227.893 200.575 227.842 201.018 227.774 201.445C227.756 201.598 227.722 201.735 227.705 201.871C227.654 202.195 227.603 202.502 227.535 202.809C227.501 202.963 227.466 203.134 227.432 203.287C227.364 203.594 227.296 203.884 227.228 204.174C227.193 204.311 227.159 204.464 227.125 204.601C227.023 204.959 226.921 205.3 226.818 205.641C226.801 205.71 226.767 205.795 226.75 205.863C226.613 206.273 226.46 206.682 226.289 207.074C226.238 207.211 226.17 207.33 226.119 207.467C225.999 207.723 225.88 207.996 225.76 208.252C225.675 208.439 225.573 208.61 225.487 208.78C225.385 208.985 225.283 209.19 225.163 209.377C225.027 209.616 224.873 209.855 224.72 210.094C224.634 210.23 224.549 210.367 224.464 210.486C224.191 210.896 223.884 211.271 223.577 211.629C223.491 211.732 223.389 211.834 223.304 211.936C223.099 212.175 222.894 212.397 222.673 212.602C222.553 212.721 222.434 212.824 222.314 212.926C222.11 213.114 221.888 213.301 221.683 213.472C221.564 213.574 221.444 213.66 221.308 213.762C221.069 213.933 220.83 214.086 220.591 214.24C220.472 214.308 220.369 214.393 220.25 214.444C219.892 214.649 219.516 214.837 219.141 214.99L227.637 211.408C228.012 211.254 228.388 211.066 228.746 210.862C228.865 210.793 228.968 210.725 229.087 210.657C229.326 210.503 229.565 210.35 229.804 210.179C229.923 210.094 230.06 209.992 230.179 209.889C230.401 209.719 230.605 209.531 230.81 209.343C230.93 209.241 231.049 209.139 231.168 209.019C231.39 208.814 231.595 208.576 231.8 208.354C231.868 208.269 231.953 208.2 232.021 208.132C232.039 208.115 232.056 208.081 232.073 208.064C232.38 207.706 232.67 207.313 232.943 206.921C232.943 206.904 232.977 206.887 232.977 206.87C233.062 206.75 233.13 206.631 233.199 206.511C233.352 206.273 233.506 206.051 233.642 205.795C233.659 205.761 233.693 205.727 233.71 205.693C233.796 205.539 233.881 205.368 233.966 205.198C234.052 205.027 234.154 204.857 234.239 204.669C234.256 204.635 234.273 204.601 234.29 204.567C234.393 204.345 234.495 204.123 234.598 203.884C234.649 203.748 234.717 203.628 234.768 203.509C234.768 203.492 234.785 203.475 234.802 203.458C234.956 203.099 235.092 202.724 235.229 202.332C235.229 202.332 235.229 202.315 235.229 202.298C235.246 202.229 235.28 202.144 235.297 202.076C235.399 201.786 235.485 201.496 235.57 201.206C235.57 201.155 235.604 201.086 235.621 201.035C235.655 200.899 235.689 200.745 235.724 200.609C235.775 200.421 235.826 200.25 235.86 200.063C235.894 199.943 235.911 199.824 235.928 199.704C235.962 199.551 235.996 199.397 236.031 199.227C236.048 199.107 236.082 198.988 236.099 198.868C236.133 198.664 236.167 198.476 236.184 198.271C236.201 198.135 236.235 197.981 236.252 197.845C236.252 197.794 236.269 197.725 236.286 197.674C236.338 197.282 236.372 196.89 236.406 196.497C236.406 196.48 236.406 196.463 236.406 196.429C236.44 196.002 236.474 195.576 236.491 195.132C236.491 195.081 236.491 195.03 236.491 194.979C236.491 194.825 236.491 194.655 236.491 194.501L236.474 194.603Z" fill="#6742CF"/>
<path d="M213.142 175.052C221.084 175.854 227.808 185.647 228.134 196.906C228.46 208.183 222.285 216.645 214.326 215.843C206.366 215.041 199.66 205.266 199.334 193.989C199.008 182.73 205.166 174.251 213.142 175.052ZM214.068 206.699C218.185 207.108 221.41 202.604 221.238 196.633C221.067 190.662 217.568 185.476 213.434 185.067C209.3 184.657 206.092 189.161 206.264 195.115C206.435 201.069 209.934 206.272 214.068 206.699Z" fill="#1F123B"/>
<path d="M213.436 185.051C217.553 185.461 221.052 190.647 221.24 196.618C221.429 202.589 218.204 207.11 214.07 206.684C209.936 206.257 206.454 201.088 206.266 195.1C206.077 189.112 209.302 184.625 213.436 185.051Z" fill="#B496F2"/>
<g clip-path="url(#clip0_502_13576)">
<mask id="mask14_502_13576" style="mask-type:luminance" maskUnits="userSpaceOnUse" x="169" y="105" width="83" height="49">
<path d="M169.203 117.171L189.061 105.621L251.228 141.515L231.353 153.048L169.203 117.171Z" fill="white"/>
</mask>
<g mask="url(#mask14_502_13576)">
<path d="M183.226 113.742L189.812 109.92L192.695 111.592C195.1 112.991 194.964 114.441 193.002 115.567C191.04 116.71 188.515 116.83 186.093 115.431L183.209 113.759M196.789 110.091L189.061 105.621L169.493 117L173.571 119.354L179.951 115.652L183.482 117.7C188.02 120.327 193.309 120.259 197.216 117.99C201.122 115.721 201.242 112.667 196.772 110.091" fill="#B496F2"/>
<path d="M192.49 125.326C192.49 125.326 192.49 125.326 192.473 125.326C192.473 125.326 192.473 125.326 192.456 125.326C191.194 124.592 189.164 124.592 187.952 125.326C186.673 126.042 186.69 127.236 187.952 127.97C189.215 128.703 191.228 128.686 192.473 127.953C193.719 127.219 193.684 126.059 192.473 125.36" fill="#B496F2"/>
<path d="M207.503 127.766L214.089 123.944L216.972 125.616C219.377 127.015 219.258 128.465 217.296 129.591C215.334 130.734 212.792 130.836 210.387 129.455L207.503 127.783M221.083 124.115L213.355 119.662L193.787 131.041L197.864 133.395L204.245 129.693L207.793 131.741C212.331 134.368 217.637 134.317 221.544 132.048C225.451 129.779 225.57 126.725 221.1 124.149" fill="#B496F2"/>
<path d="M234.646 131.928L230.62 129.607L211.052 140.986L215.061 143.307L234.646 131.928Z" fill="#B496F2"/>
<path d="M236.676 142.027C236.676 142.027 236.676 142.027 236.693 142.027C238.484 143.051 238.433 144.518 236.676 145.541L230.398 141.908C232.155 140.969 234.816 140.935 236.659 141.993C236.659 141.993 236.659 141.993 236.676 141.993M239.593 140.202C235.277 137.711 229.391 137.864 224.87 140.492C220.213 143.187 220.076 146.48 224.597 149.107C228.248 151.205 232.462 151.598 235.737 150.335L231.899 148.118C230.619 148.408 229.05 148.186 227.668 147.401C225.604 146.19 225.655 144.637 227.856 143.358L237.938 149.175L239.081 148.51C244.08 145.61 243.466 142.437 239.593 140.185" fill="#B496F2"/>
</g>
</g>
<path d="M182.34 242.311V222.514H190.105C194.604 222.514 197.188 225.289 197.188 229.186C197.188 233.137 194.562 235.857 189.996 235.857H186.441V242.311H182.34ZM186.441 232.549H189.34C191.773 232.549 192.963 231.182 192.949 229.186C192.963 227.217 191.773 225.891 189.34 225.877H186.441V232.549ZM201.152 242.557C199.867 242.557 198.828 241.531 198.855 240.26C198.828 239.002 199.867 237.977 201.152 237.99C202.369 237.977 203.422 239.002 203.422 240.26C203.422 241.531 202.369 242.557 201.152 242.557ZM206.758 242.311V222.514H214.523C219.021 222.514 221.605 225.289 221.605 229.186C221.605 233.137 218.98 235.857 214.414 235.857H210.859V242.311H206.758ZM210.859 232.549H213.758C216.191 232.549 217.381 231.182 217.367 229.186C217.381 227.217 216.191 225.891 213.758 225.877H210.859V232.549ZM228.168 222.514V242.311H224.121V222.514H228.168ZM238.039 242.611C233.486 242.598 230.697 239.658 230.711 234.955C230.697 230.375 233.527 227.271 237.875 227.271C241.771 227.271 244.848 229.732 244.848 234.791V235.939H234.703C234.703 238.182 236.029 239.562 238.121 239.576C239.502 239.562 240.486 238.961 240.883 238.072H244.738C244.164 240.82 241.703 242.598 238.039 242.611ZM234.703 233.396H241.02C241.006 231.592 239.762 230.293 237.957 230.307C236.098 230.293 234.785 231.688 234.703 233.396Z" fill="black"/>
</g>
<defs>
<clipPath id="clip0_502_13576">
<rect width="87.6204" height="47.4269" fill="white" transform="translate(166.405 105.621)"/>
</clipPath>
</defs>
</svg>
