<svg width="259" height="253" viewBox="0 0 259 253" fill="none" xmlns="http://www.w3.org/2000/svg">
<rect x="0.671875" y="0.710938" width="258" height="252" fill="#E7AD8D"/>
<mask id="mask0_500_12565" style="mask-type:alpha" maskUnits="userSpaceOnUse" x="0" y="0" width="259" height="253">
<rect x="0.671875" y="0.710938" width="258" height="252" fill="#4A5294"/>
</mask>
<g mask="url(#mask0_500_12565)">
<path d="M182.34 242.711V222.914H190.105C194.604 222.914 197.188 225.689 197.188 229.586C197.188 233.537 194.562 236.258 189.996 236.258H186.441V242.711H182.34ZM186.441 232.949H189.34C191.773 232.949 192.963 231.582 192.949 229.586C192.963 227.617 191.773 226.291 189.34 226.277H186.441V232.949ZM201.152 242.957C199.867 242.957 198.828 241.932 198.855 240.66C198.828 239.402 199.867 238.377 201.152 238.391C202.369 238.377 203.422 239.402 203.422 240.66C203.422 241.932 202.369 242.957 201.152 242.957ZM206.758 242.711V222.914H214.523C219.021 222.914 221.605 225.689 221.605 229.586C221.605 233.537 218.98 236.258 214.414 236.258H210.859V242.711H206.758ZM210.859 232.949H213.758C216.191 232.949 217.381 231.582 217.367 229.586C217.381 227.617 216.191 226.291 213.758 226.277H210.859V232.949ZM228.168 222.914V242.711H224.121V222.914H228.168ZM238.039 243.012C233.486 242.998 230.697 240.059 230.711 235.355C230.697 230.775 233.527 227.672 237.875 227.672C241.771 227.672 244.848 230.133 244.848 235.191V236.34H234.703C234.703 238.582 236.029 239.963 238.121 239.977C239.502 239.963 240.486 239.361 240.883 238.473H244.738C244.164 241.221 241.703 242.998 238.039 243.012ZM234.703 233.797H241.02C241.006 231.992 239.762 230.693 237.957 230.707C236.098 230.693 234.785 232.088 234.703 233.797Z" fill="black"/>
<rect x="125.927" y="193.121" width="194.167" height="14.2332" rx="2" transform="rotate(-47.2408 125.927 193.121)" fill="#A1A6AB"/>
<path d="M266.733 58.8688L259.22 51.9213C258.409 51.1714 257.144 51.2209 256.394 52.0319L253.187 55.5C253.041 55.6576 252.933 55.8142 252.843 56.0088C246.243 70.1773 205.536 127.996 174.482 161.579L266.844 61.6951C267.594 60.8841 267.544 59.6187 266.733 58.8688Z" fill="#848F9B"/>
<rect x="175.933" y="138.395" width="45.9029" height="15.1164" rx="1" transform="rotate(-47.2408 175.933 138.395)" fill="#27435E"/>
<path d="M117.697 137.95C116.886 137.2 116.836 135.934 117.586 135.123L128.926 122.86C129.676 122.049 130.941 122 131.752 122.75L206.076 191.476C206.887 192.226 206.937 193.492 206.187 194.303L194.847 206.566C194.098 207.377 192.832 207.426 192.021 206.676L117.697 137.95Z" fill="#3C6C98"/>
<path d="M206.08 191.48L141.807 132.048L196.53 204.753L206.191 194.306C206.941 193.495 206.891 192.23 206.08 191.48Z" fill="#2B4965"/>
<path d="M112.192 161.057C111.381 160.307 111.332 159.042 112.081 158.231L124.779 144.499L184.945 200.135L172.248 213.866C171.498 214.677 170.233 214.727 169.422 213.977L112.192 161.057Z" fill="#3C6C98"/>
<path d="M209.186 53.2168L221.883 39.4853C222.633 38.6743 223.898 38.6248 224.709 39.3747L281.939 92.2944C282.75 93.0443 282.799 94.3096 282.05 95.1206L269.352 108.852L209.186 53.2168Z" fill="#3C6C98"/>
<path d="M188.049 61.8715C187.238 61.1216 187.189 59.8562 187.939 59.0452L199.278 46.7821C200.028 45.9712 201.294 45.9216 202.105 46.6716L276.429 115.398C277.24 116.148 277.289 117.414 276.539 118.225L265.2 130.488C264.45 131.299 263.185 131.348 262.374 130.598L188.049 61.8715Z" fill="#3C6C98"/>
<path d="M184.945 200.13L130.502 149.788L173.927 212.045L184.945 200.13Z" fill="#2B4965"/>
<path d="M262.375 130.596L198.102 71.1634L274.862 120.038L265.201 130.485C264.452 131.296 263.186 131.346 262.375 130.596Z" fill="#2B4965"/>
<path d="M269.351 108.849L214.909 58.5071L280.369 96.9341L269.351 108.849Z" fill="#2B4965"/>
</g>
</svg>
