<svg width="351" height="264" viewBox="0 0 351 264" fill="none" xmlns="http://www.w3.org/2000/svg">
<rect x="0.712891" width="350" height="264" rx="8" fill="#7C82BC"/>
<circle cx="240.542" cy="155.717" r="69.1201" transform="rotate(-12.0382 240.542 155.717)" fill="#232444"/>
<circle cx="245.715" cy="146.454" r="63.4267" transform="rotate(-12.0382 245.715 146.454)" fill="#686CD3"/>
<circle cx="245.715" cy="146.453" r="60.4937" transform="rotate(-12.0382 245.715 146.453)" fill="#EBECFF"/>
<circle cx="245.715" cy="146.451" r="59.0272" transform="rotate(-12.0382 245.715 146.451)" fill="#D97B5D"/>
<path fill-rule="evenodd" clip-rule="evenodd" d="M187.435 171.223L208.773 136.708L222.938 152.37L281.079 168.139L262.414 208.061C257.843 209.203 253.076 209.861 248.168 209.974C221.137 210.598 197.602 194.543 187.435 171.223Z" fill="#1E1F2F" fill-opacity="0.86"/>
<circle cx="245.672" cy="148.814" r="35.1963" transform="rotate(-15.7648 245.672 148.814)" fill="#686CD3"/>
<path fill-rule="evenodd" clip-rule="evenodd" d="M257 182.191C276.292 176.745 287.516 156.69 282.07 137.399C276.624 118.107 256.57 106.883 237.278 112.329C219.92 117.229 209.093 133.955 211.064 151.312C212.242 170.186 228.307 184.739 247.293 183.956C250.509 183.823 253.605 183.259 256.527 182.321C256.685 182.279 256.843 182.235 257 182.191ZM256.527 182.321C271.088 177.649 281.347 163.708 280.685 147.688C279.891 128.452 263.654 113.502 244.418 114.296C225.182 115.09 210.231 131.327 211.025 150.563C211.036 150.813 211.049 151.063 211.064 151.312C211.284 153.245 211.662 155.187 212.208 157.121C217.61 176.255 237.382 187.453 256.527 182.321Z" fill="#333679"/>
<path fill-rule="evenodd" clip-rule="evenodd" d="M258.258 185.439C279.568 179.423 291.967 157.27 285.951 135.96C279.935 114.65 257.782 102.252 236.472 108.268C215.162 114.284 202.764 136.436 208.78 157.746C214.796 179.056 236.948 191.455 258.258 185.439ZM257.009 181.009C275.874 175.683 286.849 156.073 281.524 137.208C276.198 118.343 256.588 107.368 237.723 112.693C218.858 118.019 207.883 137.629 213.208 156.494C218.534 175.359 238.144 186.334 257.009 181.009Z" fill="#F2F2F2"/>
<rect x="281.88" y="134.022" width="16.1316" height="6.59931" rx="3.29966" transform="rotate(-15.7648 281.88 134.022)" fill="#F2F2F2"/>
</svg>
