<svg width="351" height="264" viewBox="0 0 351 264" fill="none" xmlns="http://www.w3.org/2000/svg">
<rect x="0.712891" width="350" height="264" rx="8" fill="#7C92BC"/>
<path d="M254.271 222.003C291.002 213.495 313.881 176.822 305.373 140.091C296.865 103.36 260.192 80.4812 223.461 88.9893C186.73 97.4974 163.851 134.171 172.359 170.901C180.867 207.632 217.541 230.511 254.271 222.003Z" fill="#371A1B"/>
<path d="M246.071 213.144C281.889 213.144 310.926 184.108 310.926 148.29C310.926 112.472 281.889 83.4355 246.071 83.4355C210.253 83.4355 181.217 112.472 181.217 148.29C181.217 184.108 210.253 213.144 246.071 213.144Z" fill="#D67374"/>
<path d="M246.072 206.317C278.119 206.317 304.099 180.337 304.099 148.289C304.099 116.242 278.119 90.2617 246.072 90.2617C214.024 90.2617 188.044 116.242 188.044 148.289C188.044 180.337 214.024 206.317 246.072 206.317Z" fill="#ECECEC"/>
<path d="M246.072 204.802C277.282 204.802 302.583 179.502 302.583 148.292C302.583 117.082 277.282 91.7812 246.072 91.7812C214.862 91.7812 189.562 117.082 189.562 148.292C189.562 179.502 214.862 204.802 246.072 204.802Z" fill="#4A72AE"/>
<path fill-rule="evenodd" clip-rule="evenodd" d="M246.551 212.988C221.035 213.202 198.747 198.621 188.001 177.176L220.934 131.979L220.935 159.051L272.998 161.182L246.551 212.988Z" fill="#2C1B1D" fill-opacity="0.86"/>
<path d="M246.071 175.219C260.943 175.219 272.999 163.163 272.999 148.291C272.999 133.419 260.943 121.363 246.071 121.363C231.2 121.363 219.144 133.419 219.144 148.291C219.144 163.163 231.2 175.219 246.071 175.219Z" fill="#7B9AC9"/>
<path opacity="0.51" d="M256.767 127.137L258.648 123.83L262.82 126.485L260.885 129.739H259.179L256.903 127.744L256.767 127.137Z" fill="#7CA6D8"/>
<path opacity="0.51" d="M242.385 125.157L242.279 121.365L245.473 121.023L245.503 125.195L244.047 126.075L242.818 125.605L242.385 125.157Z" fill="#7CA6D8"/>
<path opacity="0.51" d="M263.199 132.559L265.535 129.57L269.283 132.794L266.893 135.737L265.209 135.487L263.245 133.181L263.199 132.559Z" fill="#7CA6D8"/>
<path d="M245.215 174.712C259.253 174.712 270.634 163.447 270.634 149.551C270.634 135.655 259.253 124.391 245.215 124.391C231.177 124.391 219.797 135.655 219.797 149.551C219.797 163.447 231.177 174.712 245.215 174.712Z" fill="#C35E5F"/>
<path d="M253.172 142.893L244.327 149.454C244.327 149.454 244.077 152.564 247.111 153.413C251.139 150.637 252.186 149.856 255.978 146.822C253.862 145.692 253.172 142.893 253.172 142.893Z" fill="black" fill-opacity="0.32"/>
<path d="M242.332 121.628C243.356 121.484 244.395 121.4 245.457 121.378H245.51L245.7 118.336C244.577 118.351 243.469 118.427 242.385 118.563L242.286 121.628H242.332Z" fill="#D6DCE5"/>
<path d="M260.157 121.84C255.955 119.602 251.169 118.328 246.071 118.328C245.942 118.328 245.821 118.336 245.692 118.336L245.502 121.37H245.449C245.654 121.37 245.859 121.37 246.071 121.37C250.509 121.37 254.688 122.447 258.375 124.351L258.359 124.336L260.15 121.855L260.157 121.84Z" fill="#D0D3D8"/>
<path d="M264.162 124.411C262.903 123.456 261.561 122.599 260.157 121.848L258.367 124.328L258.382 124.343C259.846 125.094 261.227 125.974 262.516 126.975H262.539L264.17 124.411H264.162Z" fill="#D6DCE5"/>
<path d="M267.788 127.668C266.665 126.492 265.452 125.4 264.155 124.414L262.524 126.985H262.501C263.563 127.797 264.549 128.7 265.474 129.663V129.64L267.78 127.668H267.788Z" fill="#D0D3D8"/>
<path d="M267.789 127.666L265.476 129.638V129.661C266.583 130.806 267.584 132.043 268.464 133.363L270.778 131.368C269.875 130.055 268.881 128.819 267.789 127.666Z" fill="#D6DCE5"/>
<path d="M270.785 131.369L268.471 133.364C271.331 137.634 273 142.77 273 148.292C273 163.159 260.946 175.22 246.072 175.22C239.29 175.22 233.093 172.701 228.36 168.56L226.229 170.721C231.515 175.402 238.464 178.246 246.079 178.246C262.623 178.246 276.041 164.828 276.041 148.284C276.041 142.004 274.099 136.178 270.792 131.361L270.785 131.369Z" fill="#D0D3D8"/>
<path d="M225.272 165.389C221.441 160.739 219.143 154.784 219.143 148.291C219.143 134.691 229.231 123.449 242.331 121.629H242.286L242.384 118.564C227.578 120.385 216.116 132.999 216.116 148.291C216.116 155.588 218.726 162.271 223.057 167.467L225.272 165.396V165.389Z" fill="#D0D3D8"/>
<path d="M225.273 165.389L223.058 167.459C224.029 168.628 225.09 169.712 226.228 170.721L228.36 168.559C227.245 167.588 226.213 166.526 225.273 165.389Z" fill="#D6DCE5"/>
<path d="M286.437 122.541C286.939 122.17 286.738 121.047 285.988 120.033C285.239 119.019 284.224 118.498 283.722 118.869C283.22 119.24 283.421 120.363 284.171 121.377C284.921 122.391 285.935 122.912 286.437 122.541Z" fill="#ECECEC"/>
<path d="M283.696 118.898L253.089 142.959C253.089 142.959 253.021 145.637 255.888 146.896C264.755 139.932 273.167 133.28 286.54 122.464C283.908 121.584 283.703 118.898 283.703 118.898H283.696Z" fill="black"/>
<path d="M233.79 135.086L228.943 139.728L231.515 143.013L235.361 144.863L239.29 141.655L240.647 137.437L238.288 135.086H233.79Z" fill="#D8888D"/>
<path d="M233.26 146.578L229.247 151.22L231.379 154.512L234.557 156.363L237.811 153.147L238.934 148.937L236.984 146.578H233.26Z" fill="#D8888D"/>
<path d="M243.94 151.205L240.359 154.626L242.263 157.053L245.093 158.419L247.99 156.052L248.991 152.942L247.254 151.205H243.94Z" fill="#D8888D"/>
</svg>
