<svg width="351" height="264" viewBox="0 0 351 264" fill="none" xmlns="http://www.w3.org/2000/svg">
<rect x="0.712891" width="350" height="264" rx="8" fill="#BC7C7C"/>
<circle cx="239.141" cy="159.599" r="66.0228" transform="rotate(2.56318 239.141 159.599)" fill="#2B1313"/>
<circle cx="244.113" cy="151.89" r="58.1001" transform="rotate(2.56318 244.113 151.89)" fill="#6B3030"/>
<path fill-rule="evenodd" clip-rule="evenodd" d="M264.235 205.87C285.497 198.115 301.094 178.179 302.169 154.159C303.596 122.285 278.914 95.2897 247.04 93.8628C215.167 92.436 188.171 117.118 186.745 148.991C186.71 149.774 186.69 150.554 186.686 151.33C186.622 152.085 186.573 152.845 186.538 153.609C185.177 184.026 208.435 209.774 238.487 211.119C247.686 211.531 256.455 209.608 264.235 205.87ZM241.873 209.287C249.726 209.639 257.284 208.405 264.235 205.87C281.871 197.395 294.422 179.587 295.367 158.481C296.729 128.064 273.47 102.316 243.418 100.971C214.121 99.6595 189.183 122.024 186.686 151.33C186.534 182.175 210.782 207.895 241.873 209.287Z" fill="#492121"/>
<path fill-rule="evenodd" clip-rule="evenodd" d="M241.607 215.222C276.759 216.796 306.531 189.575 308.105 154.423C309.678 119.271 282.457 89.499 247.306 87.9254C212.154 86.3518 182.382 113.572 180.808 148.724C179.234 183.876 206.455 213.648 241.607 215.222ZM241.873 209.287C273.747 210.714 300.742 186.032 302.169 154.159C303.596 122.285 278.914 95.2897 247.04 93.8628C215.167 92.436 188.171 117.118 186.745 148.991C185.318 180.865 210 207.86 241.873 209.287Z" fill="#B75C5C"/>
<g filter="url(#filter0_d_1399_4174)">
<path fill-rule="evenodd" clip-rule="evenodd" d="M244.906 83.8962C243.595 83.3322 242.074 83.9383 241.51 85.25L214.142 148.9C213.578 150.211 214.184 151.732 215.496 152.296C216.806 152.859 218.324 152.255 218.89 150.947C218.326 152.259 218.932 153.779 220.244 154.343C221.555 154.907 223.076 154.301 223.64 152.989L251.008 89.3393C251.572 88.0276 250.966 86.5071 249.654 85.9431C248.344 85.3798 246.826 85.9836 246.26 87.2917C246.824 85.9802 246.218 84.4601 244.906 83.8962ZM251.01 89.3362C251.574 88.0245 253.095 87.4184 254.406 87.9824C255.714 88.5446 256.32 90.0571 255.766 91.3659C256.335 90.0646 257.849 89.4652 259.155 90.0271C260.456 90.5865 261.063 92.0873 260.522 93.3917C261.096 92.0996 262.604 91.5062 263.906 92.0661C265.205 92.6247 265.812 94.1215 265.276 95.4245C265.853 94.1394 267.356 93.5506 268.655 94.1091C269.967 94.6731 270.573 96.1936 270.009 97.5053L242.641 161.155C242.077 162.467 240.556 163.073 239.245 162.509C237.946 161.95 237.339 160.453 237.875 159.15C237.298 160.435 235.795 161.024 234.496 160.466C233.195 159.906 232.588 158.406 233.129 157.101C232.555 158.393 231.047 158.987 229.745 158.427C228.437 157.865 227.831 156.352 228.385 155.043C227.816 156.345 226.302 156.944 224.996 156.382C223.684 155.818 223.078 154.298 223.642 152.986L251.01 89.3362ZM270.01 97.5058C270.574 96.1942 272.095 95.5881 273.406 96.1521C274.699 96.7079 275.306 98.1929 274.784 99.4913C275.366 98.2182 276.862 97.6371 278.155 98.1931C279.467 98.7571 280.073 100.278 279.509 101.589L252.141 165.239C251.577 166.551 250.056 167.157 248.745 166.593C247.452 166.037 246.845 164.552 247.367 163.253C246.785 164.527 245.289 165.108 243.996 164.552C242.684 163.988 242.078 162.467 242.642 161.156L270.01 97.5058Z" fill="#1B3F53"/>
<path fill-rule="evenodd" clip-rule="evenodd" d="M243.074 84.2321C241.763 83.6681 240.242 84.2743 239.678 85.5859L211.697 150.661C211.133 151.972 211.739 153.493 213.051 154.057C214.361 154.62 215.879 154.016 216.445 152.708C215.881 154.02 216.488 155.54 217.799 156.104C219.111 156.668 220.631 156.062 221.195 154.75L249.176 89.6752C249.74 88.3635 249.134 86.843 247.822 86.279C246.512 85.7158 244.994 86.3195 244.428 87.6276C244.992 86.3161 244.386 84.796 243.074 84.2321ZM249.178 89.6721C249.742 88.3604 251.263 87.7543 252.574 88.3183C253.882 88.8805 254.488 90.393 253.934 91.7018C254.503 90.4005 256.017 89.8012 257.323 90.363C258.624 90.9225 259.231 92.4233 258.69 93.7277C259.264 92.4355 260.772 91.8421 262.074 92.4021C263.373 92.9606 263.98 94.4575 263.444 95.7604C264.021 94.4754 265.524 93.8866 266.823 94.445C268.135 95.009 268.741 96.5295 268.177 97.8412L240.196 162.916C239.632 164.228 238.112 164.834 236.8 164.27C235.501 163.711 234.894 162.214 235.43 160.911C234.853 162.196 233.35 162.785 232.051 162.227C230.75 161.667 230.143 160.166 230.684 158.862C230.11 160.154 228.602 160.748 227.3 160.188C225.993 159.626 225.386 158.113 225.941 156.804C225.372 158.106 223.858 158.705 222.551 158.143C221.239 157.579 220.633 156.058 221.197 154.747L249.178 89.6721ZM268.178 97.8418C268.742 96.5301 270.263 95.924 271.574 96.488C272.867 97.0438 273.474 98.5288 272.952 99.8273C273.534 98.5541 275.03 97.973 276.323 98.529C277.635 99.093 278.241 100.614 277.677 101.925L249.696 167C249.132 168.312 247.612 168.918 246.3 168.354C245.007 167.798 244.4 166.313 244.922 165.014C244.34 166.288 242.844 166.869 241.551 166.313C240.239 165.749 239.633 164.228 240.197 162.916L268.178 97.8418Z" fill="#4492BE"/>
<path d="M242.784 99.3044C241.473 98.7407 239.952 99.3472 239.388 100.658C239.37 100.701 239.361 100.748 239.347 100.793C239.887 99.7192 241.177 99.2326 242.298 99.7146C243.419 100.197 244.006 101.569 243.503 102.737C243.001 103.906 241.75 104.392 240.615 103.983C240.658 104.001 240.694 104.034 240.737 104.052C242.048 104.616 243.57 104.01 244.133 102.699C244.697 101.388 244.095 99.8681 242.784 99.3044Z" fill="#1B3F53"/>
<path d="M243.505 102.738C244.007 101.569 243.468 100.218 242.3 99.7152C241.131 99.2128 239.889 99.7198 239.349 100.793C238.896 102.028 239.443 103.4 240.621 103.986C241.756 104.395 243.027 103.861 243.509 102.74L243.505 102.738Z" fill="#275772"/>
<path d="M234.206 119.252C232.895 118.688 231.374 119.294 230.81 120.605C230.791 120.648 230.783 120.695 230.769 120.74C231.309 119.666 232.599 119.18 233.72 119.662C234.841 120.144 235.427 121.516 234.925 122.684C234.423 123.853 233.172 124.34 232.037 123.93C232.08 123.949 232.116 123.981 232.159 124C233.47 124.563 234.991 123.957 235.555 122.646C236.119 121.335 235.517 119.815 234.206 119.252Z" fill="#1B3F53"/>
<path d="M234.926 122.685C235.429 121.517 234.89 120.165 233.722 119.663C232.553 119.16 231.311 119.667 230.77 120.741C230.318 121.976 230.865 123.348 232.043 123.933C233.178 124.342 234.449 123.808 234.931 122.687L234.926 122.685Z" fill="#275772"/>
<path d="M225.629 139.207C224.318 138.643 222.796 139.25 222.233 140.561C222.214 140.603 222.205 140.65 222.192 140.695C222.732 139.622 224.022 139.135 225.143 139.617C226.264 140.099 226.85 141.471 226.348 142.64C225.845 143.808 224.595 144.295 223.46 143.885C223.502 143.904 223.539 143.936 223.582 143.955C224.893 144.518 226.414 143.912 226.978 142.601C227.542 141.29 226.94 139.77 225.629 139.207Z" fill="#1B3F53"/>
<path d="M226.349 142.64C226.852 141.472 226.313 140.12 225.144 139.618C223.976 139.115 222.734 139.622 222.193 140.696C221.741 141.931 222.288 143.303 223.466 143.888C224.601 144.297 225.872 143.763 226.354 142.642L226.349 142.64Z" fill="#275772"/>
<path d="M243.721 111.527C242.41 110.963 240.888 111.57 240.325 112.881C240.306 112.924 240.297 112.97 240.284 113.015C240.824 111.942 242.114 111.455 243.235 111.937C244.356 112.419 244.942 113.791 244.44 114.96C243.937 116.128 242.687 116.615 241.551 116.206C241.594 116.224 241.631 116.257 241.674 116.275C242.985 116.839 244.506 116.232 245.07 114.921C245.633 113.61 245.032 112.091 243.721 111.527Z" fill="#1B3F53"/>
<path d="M244.441 114.961C244.944 113.792 244.405 112.44 243.236 111.938C242.068 111.435 240.825 111.942 240.285 113.016C239.833 114.251 240.38 115.623 241.558 116.208C242.693 116.618 243.964 116.084 244.446 114.963L244.441 114.961Z" fill="#275772"/>
<path d="M235.143 131.476C233.832 130.913 232.31 131.519 231.746 132.83C231.728 132.873 231.719 132.92 231.705 132.964C232.246 131.891 233.536 131.404 234.657 131.886C235.778 132.368 236.364 133.741 235.862 134.909C235.359 136.078 234.109 136.564 232.973 136.155C233.016 136.173 233.053 136.206 233.095 136.224C234.406 136.788 235.928 136.181 236.492 134.87C237.055 133.559 236.454 132.04 235.143 131.476Z" fill="#1B3F53"/>
<path d="M235.863 134.91C236.365 133.741 235.827 132.39 234.658 131.887C233.49 131.385 232.247 131.892 231.707 132.965C231.255 134.2 231.802 135.572 232.979 136.158C234.115 136.567 235.386 136.033 235.868 134.912L235.863 134.91Z" fill="#275772"/>
<path d="M255.121 116.429C253.81 115.866 252.289 116.472 251.725 117.783C251.707 117.826 251.698 117.873 251.684 117.918C252.224 116.844 253.514 116.358 254.635 116.84C255.756 117.322 256.342 118.694 255.84 119.862C255.338 121.031 254.087 121.517 252.952 121.108C252.995 121.126 253.031 121.159 253.074 121.177C254.385 121.741 255.906 121.135 256.47 119.824C257.034 118.513 256.432 116.993 255.121 116.429Z" fill="#1B3F53"/>
<path d="M255.841 119.863C256.344 118.694 255.805 117.343 254.637 116.84C253.468 116.338 252.226 116.845 251.685 117.918C251.233 119.153 251.78 120.525 252.958 121.111C254.093 121.52 255.364 120.986 255.846 119.865L255.841 119.863Z" fill="#275772"/>
<path d="M246.543 136.381C245.232 135.817 243.71 136.423 243.147 137.734C243.128 137.777 243.12 137.824 243.106 137.869C243.646 136.795 244.936 136.309 246.057 136.791C247.178 137.273 247.764 138.645 247.262 139.813C246.759 140.982 245.509 141.468 244.374 141.059C244.416 141.077 244.453 141.11 244.496 141.129C245.807 141.692 247.328 141.086 247.892 139.775C248.456 138.464 247.854 136.944 246.543 136.381Z" fill="#1B3F53"/>
<path d="M247.263 139.814C247.766 138.646 247.227 137.294 246.058 136.791C244.89 136.289 243.648 136.796 243.107 137.869C242.655 139.105 243.202 140.477 244.38 141.062C245.515 141.471 246.786 140.937 247.268 139.816L247.263 139.814Z" fill="#275772"/>
<path d="M254.185 104.207C252.874 103.643 251.352 104.25 250.788 105.561C250.77 105.603 250.761 105.65 250.747 105.695C251.288 104.622 252.578 104.135 253.699 104.617C254.82 105.099 255.406 106.471 254.904 107.64C254.401 108.808 253.151 109.295 252.015 108.885C252.058 108.904 252.095 108.936 252.137 108.955C253.448 109.518 254.97 108.912 255.534 107.601C256.097 106.29 255.496 104.77 254.185 104.207Z" fill="#1B3F53"/>
<path d="M254.905 107.64C255.407 106.472 254.869 105.12 253.7 104.618C252.532 104.115 251.289 104.622 250.749 105.696C250.297 106.931 250.844 108.303 252.021 108.888C253.157 109.297 254.428 108.763 254.91 107.642L254.905 107.64Z" fill="#275772"/>
<path d="M245.607 124.158C244.296 123.594 242.775 124.201 242.211 125.512C242.193 125.554 242.184 125.601 242.17 125.646C242.711 124.573 244.001 124.086 245.121 124.568C246.242 125.05 246.829 126.422 246.326 127.591C245.824 128.759 244.573 129.246 243.438 128.836C243.481 128.855 243.518 128.887 243.56 128.906C244.871 129.47 246.393 128.863 246.956 127.552C247.52 126.241 246.918 124.722 245.607 124.158Z" fill="#1B3F53"/>
<path d="M246.328 127.591C246.83 126.423 246.291 125.071 245.123 124.569C243.954 124.066 242.712 124.573 242.172 125.647C241.719 126.882 242.266 128.254 243.444 128.839C244.58 129.249 245.851 128.714 246.333 127.593L246.328 127.591Z" fill="#275772"/>
<path d="M237.029 144.109C235.718 143.545 234.197 144.152 233.633 145.463C233.615 145.506 233.606 145.552 233.592 145.597C234.133 144.524 235.422 144.037 236.543 144.519C237.664 145.001 238.251 146.373 237.748 147.542C237.246 148.71 235.995 149.197 234.86 148.788C234.903 148.806 234.939 148.839 234.982 148.857C236.293 149.421 237.815 148.814 238.378 147.503C238.942 146.192 238.34 144.673 237.029 144.109Z" fill="#1B3F53"/>
<path d="M237.75 147.543C238.252 146.374 237.713 145.022 236.545 144.52C235.376 144.017 234.134 144.525 233.594 145.598C233.141 146.833 233.688 148.205 234.866 148.79C236.002 149.2 237.272 148.666 237.754 147.545L237.75 147.543Z" fill="#275772"/>
<path d="M265.584 109.109C264.273 108.545 262.751 109.152 262.188 110.463C262.169 110.506 262.161 110.552 262.147 110.597C262.687 109.524 263.977 109.037 265.098 109.519C266.219 110.001 266.805 111.373 266.303 112.542C265.801 113.71 264.55 114.197 263.415 113.788C263.457 113.806 263.494 113.839 263.537 113.857C264.848 114.421 266.369 113.814 266.933 112.503C267.497 111.192 266.895 109.673 265.584 109.109Z" fill="#1B3F53"/>
<path d="M266.304 112.543C266.807 111.374 266.268 110.022 265.099 109.52C263.931 109.017 262.689 109.525 262.148 110.598C261.696 111.833 262.243 113.205 263.421 113.79C264.556 114.2 265.827 113.666 266.309 112.545L266.304 112.543Z" fill="#275772"/>
<path d="M257.004 129.06C255.693 128.497 254.171 129.103 253.608 130.414C253.589 130.457 253.58 130.504 253.567 130.548C254.107 129.475 255.397 128.988 256.518 129.47C257.639 129.952 258.225 131.325 257.723 132.493C257.22 133.662 255.97 134.148 254.835 133.739C254.877 133.757 254.914 133.79 254.957 133.808C256.268 134.372 257.789 133.765 258.353 132.454C258.917 131.143 258.315 129.624 257.004 129.06Z" fill="#1B3F53"/>
<path d="M257.724 132.494C258.227 131.325 257.688 129.974 256.519 129.471C255.351 128.969 254.109 129.476 253.568 130.549C253.116 131.784 253.663 133.156 254.841 133.742C255.976 134.151 257.247 133.617 257.729 132.496L257.724 132.494Z" fill="#275772"/>
<path d="M248.428 149.009C247.117 148.446 245.595 149.052 245.032 150.363C245.013 150.406 245.004 150.453 244.991 150.498C245.531 149.424 246.821 148.938 247.942 149.42C249.063 149.902 249.649 151.274 249.147 152.442C248.644 153.611 247.394 154.097 246.258 153.688C246.301 153.706 246.338 153.739 246.381 153.757C247.692 154.321 249.213 153.715 249.777 152.404C250.34 151.093 249.739 149.573 248.428 149.009Z" fill="#1B3F53"/>
<path d="M249.148 152.443C249.651 151.274 249.112 149.923 247.943 149.42C246.775 148.918 245.532 149.425 244.992 150.498C244.54 151.733 245.087 153.105 246.265 153.691C247.4 154.1 248.671 153.566 249.153 152.445L249.148 152.443Z" fill="#275772"/>
</g>
<g clip-path="url(#clip0_1399_4174)">
<path d="M277.905 122.112L279.643 122.275C279.775 122.288 279.857 122.417 279.809 122.543C279.471 123.492 278.639 127.054 283.95 129.733C284.052 129.781 284.096 129.91 284.036 130.005C283.222 131.302 278.602 139.371 287.054 141.206C287.17 141.232 287.261 141.336 287.255 141.457C287.191 142.477 287.168 147.023 291.585 148.368C291.677 148.395 291.72 148.5 291.671 148.578L290.236 150.866L283.491 151.279L277.289 144.096L274.728 139.769L273.764 130.698L274.527 125.62L276.652 122.495L277.912 122.101L277.905 122.112Z" fill="#123F52"/>
<path d="M266.441 117.762C266.939 116.968 267.805 116.545 268.675 116.561C268.754 115.628 268.336 114.68 267.486 114.146C266.748 113.683 265.862 113.642 265.12 113.955C265.292 114.016 265.462 114.092 265.63 114.198C266.838 114.956 267.208 116.552 266.446 117.765L266.441 117.762Z" fill="#123F52"/>
<path d="M275.199 123.258C275.697 122.464 276.563 122.041 277.433 122.057C277.512 121.124 277.094 120.176 276.244 119.643C275.506 119.179 274.62 119.138 273.877 119.451C274.049 119.512 274.22 119.588 274.388 119.694C275.596 120.452 275.966 122.048 275.204 123.262L275.199 123.258Z" fill="#123F52"/>
<path d="M289.126 149.702L259.557 196.816C260.539 196.965 261.566 196.533 262.131 195.633L290.598 150.275C290.095 150.146 289.597 149.958 289.123 149.707L289.126 149.702Z" fill="#123F52"/>
<path d="M270.82 120.51C271.318 119.716 272.184 119.293 273.054 119.309C273.133 118.376 272.715 117.428 271.865 116.894C271.127 116.431 270.241 116.39 269.498 116.703C269.67 116.764 269.841 116.84 270.009 116.946C271.217 117.704 271.587 119.3 270.825 120.514L270.82 120.51Z" fill="#123F52"/>
<path d="M259.348 145.62C260.205 146.017 261.192 145.873 261.872 145.224C261.197 145.853 260.202 146.023 259.348 145.62Z" fill="#2E91BC"/>
<path d="M260.3 133.395C261.157 133.793 262.135 133.65 262.812 133.007C262.135 133.627 261.152 133.789 260.3 133.395Z" fill="#2E91BC"/>
<path d="M269.855 152.215C270.712 152.612 271.696 152.474 272.376 151.825C271.704 152.448 270.703 152.614 269.855 152.215Z" fill="#2E91BC"/>
<path d="M247.798 164.009C248.661 164.41 249.648 164.266 250.332 163.611C249.657 164.24 248.656 164.407 247.798 164.009Z" fill="#2E91BC"/>
<path d="M259.276 158.39C260.127 158.784 261.105 158.642 261.787 158.002C261.116 158.625 260.127 158.784 259.276 158.39Z" fill="#2E91BC"/>
<path d="M258.312 170.607C259.165 171.01 260.158 170.869 260.842 170.215C260.167 170.843 259.169 171.005 258.312 170.607Z" fill="#2E91BC"/>
<path d="M270.814 139.994C271.671 140.391 272.649 140.249 273.326 139.606C272.648 140.225 271.665 140.388 270.814 139.994Z" fill="#2E91BC"/>
<path d="M247.724 176.784C248.581 177.182 249.559 177.04 250.236 176.396C249.559 177.016 248.576 177.178 247.724 176.784Z" fill="#2E91BC"/>
<path d="M248.763 151.792C249.615 152.186 250.593 152.043 251.275 151.404C250.603 152.027 249.615 152.186 248.763 151.792Z" fill="#2E91BC"/>
<path d="M237.21 170.186C238.068 170.584 239.045 170.441 239.722 169.798C239.045 170.418 238.062 170.58 237.21 170.186Z" fill="#2E91BC"/>
<path d="M269.784 164.984C270.641 165.382 271.628 165.237 272.312 164.583C271.636 165.212 270.641 165.382 269.784 164.984Z" fill="#2E91BC"/>
<path d="M258.232 183.379C259.094 183.78 260.081 183.636 260.762 182.987C260.086 183.615 259.085 183.782 258.232 183.379Z" fill="#2E91BC"/>
<path d="M288.704 149.468C286.507 148.088 285.417 145.627 285.678 143.211C285.7 143.015 285.562 142.85 285.367 142.837C285.109 142.815 284.851 142.778 284.595 142.726C285.332 143.563 285.478 144.809 284.854 145.804C284.096 147.012 282.499 147.382 281.286 146.62C281.247 146.596 281.215 146.56 281.175 146.535C280.101 145.775 279.772 144.337 280.409 143.186C280.434 143.147 280.447 143.101 280.472 143.061C280.907 142.368 281.623 141.96 282.384 141.877C282.379 141.873 282.368 141.866 282.362 141.863C279.303 139.943 278.381 135.911 280.3 132.852C280.813 132.035 281.399 131.288 282.137 130.77C282.252 130.686 282.225 130.505 282.089 130.474C281.49 130.348 280.943 130.176 280.367 129.815C277.856 128.239 276.854 125.178 277.767 122.493C277.806 122.369 277.86 122.247 277.907 122.121C277.753 122.094 277.595 122.073 277.441 122.07C276.561 122.055 275.704 122.476 275.206 123.271C275.964 122.063 275.603 120.464 274.39 119.703C274.227 119.601 274.057 119.525 273.879 119.46C273.613 119.363 273.335 119.321 273.056 119.318C272.177 119.304 271.32 119.725 270.822 120.519C271.58 119.311 271.219 117.713 270.005 116.951C269.843 116.849 269.673 116.773 269.495 116.709C269.228 116.612 268.951 116.57 268.672 116.566C267.793 116.552 266.936 116.973 266.437 117.767C267.196 116.559 266.835 114.961 265.621 114.199C265.459 114.098 265.288 114.022 265.111 113.957C263.999 113.555 262.719 113.968 262.062 115.014L224.484 174.889C223.74 176.075 223.962 177.695 225.104 178.497C226.325 179.357 228.003 179.007 228.786 177.76C228.027 178.968 228.388 180.566 229.602 181.328C230.815 182.09 232.408 181.725 233.17 180.512C232.412 181.72 232.773 183.318 233.986 184.08C235.2 184.841 236.793 184.477 237.554 183.263C236.796 184.471 237.157 186.07 238.37 186.831C239.584 187.593 241.177 187.228 241.938 186.015C241.18 187.223 241.541 188.821 242.755 189.583C243.968 190.344 245.561 189.98 246.323 188.766C245.565 189.974 245.925 191.573 247.139 192.334C248.352 193.096 249.945 192.732 250.707 191.518C249.949 192.726 250.31 194.324 251.523 195.086C252.737 195.848 254.33 195.483 255.091 194.27C254.308 195.517 254.722 197.18 256.028 197.906C257.253 198.588 258.809 198.084 259.553 196.898L259.591 196.837L289.16 149.723C289.019 149.65 288.878 149.577 288.738 149.489L288.704 149.468ZM227.097 173.645L227.164 173.538C226.665 174.332 226.588 175.337 226.966 176.151C226.588 175.375 226.602 174.433 227.097 173.645ZM227.913 177.213C227.818 177.153 227.734 177.076 227.651 177.009C227.752 177.096 227.863 177.181 227.973 177.242C227.956 177.232 227.939 177.221 227.917 177.207L227.913 177.213ZM247.854 148.384C247.878 148.344 247.892 148.298 247.916 148.259C248.78 146.883 250.727 146.601 251.955 147.824C252.631 148.497 252.874 149.539 252.563 150.443C251.997 152.091 250.108 152.69 248.727 151.823C248.688 151.799 248.656 151.763 248.617 151.739C247.543 150.979 247.213 149.541 247.85 148.389L247.854 148.384ZM237.178 170.213C237.139 170.188 237.107 170.152 237.068 170.128C235.994 169.368 235.665 167.93 236.301 166.778C236.326 166.739 236.339 166.693 236.364 166.654C237.227 165.278 239.174 164.996 240.402 166.218C241.078 166.892 241.321 167.933 241.011 168.838C240.445 170.485 238.556 171.085 237.175 170.218L237.178 170.213ZM260.265 133.427C260.226 133.403 260.194 133.367 260.154 133.342C259.08 132.583 258.751 131.144 259.388 129.993C259.413 129.954 259.426 129.908 259.451 129.869C260.314 128.493 262.261 128.21 263.483 129.43C264.159 130.103 264.402 131.145 264.092 132.049C263.526 133.697 261.637 134.296 260.256 133.429L260.265 133.427ZM247.763 164.041C247.724 164.016 247.692 163.981 247.653 163.956C246.578 163.196 246.249 161.758 246.886 160.607C246.911 160.567 246.924 160.521 246.949 160.482C247.812 159.106 249.759 158.824 250.981 160.043C251.658 160.717 251.901 161.758 251.59 162.662C251.024 164.31 249.135 164.91 247.754 164.043L247.763 164.041ZM259.306 145.648C259.267 145.624 259.235 145.588 259.196 145.563C258.122 144.803 257.793 143.365 258.43 142.214C258.454 142.175 258.468 142.129 258.492 142.089C259.355 140.714 261.302 140.431 262.525 141.651C263.201 142.324 263.444 143.365 263.134 144.27C262.567 145.918 260.678 146.517 259.297 145.65L259.306 145.648ZM258.358 154.984C258.383 154.945 258.396 154.899 258.421 154.859C259.284 153.484 261.231 153.201 262.459 154.424C263.135 155.098 263.378 156.139 263.068 157.043C262.501 158.691 260.613 159.291 259.231 158.424C259.192 158.399 259.16 158.363 259.121 158.339C258.047 157.579 257.718 156.141 258.355 154.989L258.358 154.984ZM247.682 176.813C247.643 176.788 247.611 176.753 247.572 176.728C246.498 175.968 246.169 174.53 246.806 173.379C246.83 173.339 246.844 173.293 246.868 173.254C247.732 171.878 249.678 171.596 250.906 172.819C251.583 173.492 251.826 174.534 251.515 175.438C250.949 177.086 249.06 177.685 247.679 176.818L247.682 176.813ZM270.769 140.028C270.73 140.003 270.698 139.967 270.659 139.943C269.584 139.183 269.255 137.745 269.892 136.593C269.917 136.554 269.93 136.508 269.955 136.469C270.818 135.093 272.765 134.811 273.987 136.03C274.664 136.704 274.907 137.745 274.596 138.649C274.03 140.297 272.141 140.897 270.76 140.03L270.769 140.028ZM258.267 170.641C258.228 170.617 258.196 170.581 258.157 170.556C257.083 169.796 256.753 168.358 257.39 167.207C257.415 167.168 257.428 167.122 257.453 167.082C258.316 165.707 260.263 165.424 261.486 166.643C262.162 167.317 262.405 168.358 262.094 169.263C261.528 170.91 259.639 171.51 258.258 170.643L258.267 170.641ZM269.81 152.249C269.771 152.224 269.739 152.188 269.7 152.164C268.626 151.404 268.297 149.966 268.934 148.814C268.958 148.775 268.972 148.729 268.996 148.69C269.86 147.314 271.806 147.032 273.029 148.251C273.705 148.925 273.948 149.966 273.638 150.87C273.071 152.518 271.183 153.118 269.801 152.251L269.81 152.249ZM272.957 161.021C273.634 161.695 273.877 162.736 273.566 163.64C273 165.288 271.111 165.887 269.73 165.021C269.691 164.996 269.659 164.96 269.619 164.936C268.545 164.176 268.216 162.738 268.853 161.586C268.878 161.547 268.891 161.501 268.916 161.462C269.779 160.086 271.726 159.803 272.954 161.026L272.957 161.021ZM258.187 183.413C258.147 183.389 258.115 183.353 258.076 183.328C257.002 182.568 256.673 181.13 257.31 179.979C257.334 179.94 257.348 179.893 257.372 179.854C258.236 178.479 260.182 178.196 261.411 179.419C262.087 180.093 262.33 181.134 262.019 182.038C261.453 183.686 259.564 184.286 258.183 183.419L258.187 183.413Z" fill="#2E91BC"/>
<path d="M281.321 146.588C282.184 146.99 283.171 146.845 283.851 146.196C283.176 146.825 282.175 146.992 281.321 146.588Z" fill="#2E91BC"/>
<path d="M263.022 129.046C261.814 128.288 260.215 128.649 259.454 129.863C259.429 129.902 259.416 129.948 259.391 129.987C260.091 129.008 261.4 128.699 262.474 129.373C263.547 130.047 263.872 131.467 263.198 132.54C263.086 132.719 262.947 132.866 262.801 133C262.119 133.64 261.141 133.782 260.289 133.388C260.244 133.36 260.195 133.352 260.152 133.333C260.191 133.358 260.223 133.394 260.262 133.418C261.47 134.176 263.069 133.815 263.83 132.602C264.592 131.388 264.227 129.795 263.02 129.037L263.022 129.046Z" fill="#123F52"/>
<path d="M262.817 133.011C262.958 132.873 263.097 132.727 263.209 132.548C263.887 131.469 263.514 130.026 262.485 129.38C261.456 128.735 260.102 129.015 259.402 129.995C258.765 131.146 259.094 132.584 260.168 133.344C260.213 133.372 260.263 133.38 260.308 133.408C261.159 133.802 262.148 133.643 262.819 133.02L262.817 133.011Z" fill="#1A5771"/>
<path d="M260.3 133.395C260.255 133.367 260.206 133.359 260.162 133.331C260.206 133.359 260.255 133.367 260.298 133.386L260.3 133.395Z" fill="#1A5771"/>
<path d="M262.479 129.377C263.514 130.026 263.878 131.471 263.204 132.544C263.091 132.723 262.958 132.873 262.812 133.008C262.958 132.873 263.097 132.727 263.209 132.548C263.887 131.469 263.558 130.054 262.485 129.38C261.411 128.707 260.102 129.015 259.402 129.995C260.102 129.015 261.45 128.731 262.485 129.38L262.479 129.377Z" fill="#1A5771"/>
<path d="M251.478 147.439C250.27 146.681 248.672 147.042 247.91 148.256C247.886 148.295 247.872 148.341 247.848 148.38C248.548 147.401 249.856 147.092 250.93 147.766C252.004 148.44 252.329 149.859 251.655 150.933C251.543 151.112 251.407 151.253 251.266 151.391C250.584 152.031 249.612 152.176 248.755 151.779C248.706 151.756 248.66 151.743 248.612 151.72C248.651 151.745 248.683 151.781 248.722 151.805C249.93 152.563 251.529 152.202 252.29 150.989C253.052 149.775 252.687 148.183 251.48 147.425L251.478 147.439Z" fill="#123F52"/>
<path d="M251.274 151.403C251.415 151.266 251.554 151.119 251.663 150.946C252.34 149.866 251.967 148.424 250.938 147.778C249.909 147.133 248.556 147.413 247.855 148.393C247.218 149.544 247.547 150.982 248.622 151.742C248.666 151.77 248.722 151.781 248.77 151.804C249.622 152.198 250.604 152.036 251.282 151.416L251.274 151.403Z" fill="#1A5771"/>
<path d="M248.762 151.79C248.714 151.768 248.668 151.755 248.615 151.729C248.659 151.757 248.708 151.765 248.756 151.787L248.762 151.79Z" fill="#1A5771"/>
<path d="M250.936 147.769C251.97 148.418 252.334 149.863 251.661 150.936C251.548 151.115 251.415 151.266 251.272 151.394C251.419 151.26 251.552 151.11 251.661 150.936C252.338 149.857 252.01 148.443 250.936 147.769C249.862 147.095 248.554 147.404 247.853 148.383C248.554 147.404 249.901 147.12 250.936 147.769Z" fill="#1A5771"/>
<path d="M239.935 165.832C238.727 165.074 237.128 165.435 236.367 166.648C236.342 166.688 236.329 166.734 236.304 166.773C237.005 165.794 238.313 165.485 239.387 166.159C240.461 166.832 240.785 168.252 240.112 169.326C239.999 169.505 239.86 169.652 239.714 169.786C239.032 170.426 238.054 170.568 237.202 170.174C237.157 170.146 237.108 170.138 237.065 170.119C237.104 170.143 237.136 170.179 237.175 170.204C238.383 170.962 239.982 170.601 240.743 169.387C241.505 168.174 241.141 166.581 239.933 165.823L239.935 165.832Z" fill="#123F52"/>
<path d="M239.727 169.802C239.868 169.664 240.007 169.517 240.12 169.338C240.797 168.259 240.424 166.817 239.395 166.171C238.366 165.525 237.013 165.806 236.312 166.785C235.675 167.937 236.004 169.375 237.079 170.135C237.123 170.163 237.173 170.171 237.218 170.199C238.069 170.593 239.058 170.434 239.73 169.811L239.727 169.802Z" fill="#1A5771"/>
<path d="M237.209 170.185C237.165 170.157 237.115 170.15 237.071 170.122C237.115 170.15 237.165 170.157 237.207 170.176L237.209 170.185Z" fill="#1A5771"/>
<path d="M239.389 166.167C240.424 166.817 240.788 168.261 240.114 169.335C240.002 169.514 239.868 169.664 239.722 169.798C239.868 169.664 240.007 169.517 240.12 169.338C240.797 168.259 240.469 166.845 239.395 166.171C238.321 165.497 237.013 165.806 236.312 166.785C237.013 165.806 238.36 165.522 239.395 166.171L239.389 166.167Z" fill="#1A5771"/>
<path d="M262.073 141.265C260.865 140.507 259.266 140.868 258.505 142.082C258.48 142.121 258.467 142.167 258.442 142.206C259.143 141.227 260.451 140.918 261.525 141.592C262.599 142.266 262.921 143.677 262.257 144.748L262.25 144.759C262.141 144.933 262.011 145.077 261.868 145.206C261.184 145.86 260.197 146.005 259.344 145.601C259.299 145.573 259.249 145.566 259.207 145.547C259.246 145.571 259.278 145.607 259.317 145.631C260.525 146.39 262.123 146.029 262.885 144.815C263.647 143.602 263.282 142.009 262.074 141.251L262.073 141.265Z" fill="#123F52"/>
<path d="M261.875 145.219C262.013 145.086 262.143 144.942 262.251 144.769L262.258 144.757C262.923 143.686 262.556 142.247 261.527 141.601C260.498 140.955 259.144 141.236 258.444 142.215C257.807 143.367 258.136 144.805 259.21 145.565C259.255 145.593 259.305 145.601 259.35 145.629C260.207 146.026 261.199 145.862 261.874 145.233L261.875 145.219Z" fill="#1A5771"/>
<path d="M261.876 145.219C262.019 145.09 262.148 144.946 262.257 144.772C262.148 144.946 262.019 145.09 261.881 145.222L261.876 145.219Z" fill="#1A5771"/>
<path d="M261.521 141.598C262.55 142.243 262.917 143.682 262.253 144.754C262.917 143.682 262.595 142.272 261.521 141.598C260.447 140.924 259.139 141.233 258.438 142.212C259.139 141.233 260.486 140.948 261.521 141.598Z" fill="#1A5771"/>
<path d="M259.347 145.619C259.302 145.591 259.253 145.583 259.209 145.555C259.253 145.583 259.302 145.591 259.344 145.61L259.347 145.619Z" fill="#1A5771"/>
<path d="M250.526 159.664C249.318 158.906 247.72 159.267 246.958 160.48C246.933 160.519 246.92 160.565 246.895 160.605C247.596 159.625 248.904 159.316 249.978 159.99C251.052 160.664 251.375 162.075 250.71 163.147C250.71 163.147 250.706 163.152 250.703 163.158C250.597 163.326 250.468 163.47 250.321 163.604C249.638 164.259 248.647 164.409 247.788 164.002C247.749 163.977 247.699 163.97 247.654 163.941C247.693 163.966 247.725 164.002 247.765 164.026C248.972 164.784 250.571 164.424 251.333 163.21C252.094 161.997 251.73 160.404 250.522 159.646L250.526 159.664Z" fill="#123F52"/>
<path d="M250.332 163.611C250.47 163.479 250.6 163.334 250.708 163.161C250.708 163.161 250.712 163.155 250.715 163.15C251.384 162.073 251.013 160.639 249.984 159.994C248.955 159.348 247.601 159.629 246.901 160.608C246.264 161.759 246.593 163.197 247.668 163.957C247.712 163.985 247.758 163.999 247.801 164.018C248.658 164.416 249.659 164.249 250.335 163.62L250.332 163.611Z" fill="#1A5771"/>
<path d="M247.798 164.008C247.753 163.98 247.704 163.973 247.665 163.948C247.71 163.976 247.759 163.984 247.798 164.008Z" fill="#1A5771"/>
<path d="M249.978 159.99C251.007 160.636 251.374 162.075 250.71 163.146C251.378 162.069 251.052 160.664 249.978 159.99C248.904 159.316 247.596 159.625 246.895 160.605C247.596 159.625 248.943 159.341 249.978 159.99Z" fill="#1A5771"/>
<path d="M250.332 163.611C250.469 163.479 250.605 163.338 250.713 163.165C250.605 163.338 250.475 163.483 250.337 163.615L250.332 163.611Z" fill="#1A5771"/>
<path d="M272.58 147.86C271.372 147.102 269.774 147.463 269.012 148.677C268.988 148.716 268.974 148.762 268.95 148.801C269.65 147.822 270.958 147.513 272.032 148.187C273.106 148.861 273.429 150.271 272.764 151.343L272.757 151.354C272.648 151.528 272.515 151.678 272.372 151.806C271.692 152.455 270.705 152.6 269.851 152.196C269.812 152.172 269.757 152.16 269.717 152.136C269.757 152.16 269.789 152.196 269.828 152.221C271.036 152.979 272.634 152.618 273.396 151.404C274.157 150.191 273.793 148.598 272.585 147.84L272.58 147.86Z" fill="#123F52"/>
<path d="M272.38 151.819C272.517 151.687 272.65 151.537 272.759 151.363L272.766 151.352C273.431 150.28 273.063 148.842 272.034 148.196C271.006 147.55 269.652 147.831 268.952 148.81C268.315 149.962 268.644 151.4 269.718 152.16C269.763 152.188 269.809 152.201 269.857 152.224C270.715 152.621 271.707 152.457 272.378 151.834L272.38 151.819Z" fill="#1A5771"/>
<path d="M272.379 151.819C272.526 151.685 272.655 151.54 272.764 151.367C272.655 151.54 272.522 151.69 272.385 151.823L272.379 151.819Z" fill="#1A5771"/>
<path d="M272.034 148.196C273.063 148.842 273.431 150.28 272.766 151.352C273.431 150.28 273.108 148.87 272.034 148.196C270.961 147.522 269.652 147.831 268.952 148.81C269.652 147.831 271 147.547 272.034 148.196Z" fill="#1A5771"/>
<path d="M269.854 152.214C269.81 152.186 269.76 152.178 269.716 152.15C269.76 152.178 269.81 152.186 269.848 152.21L269.854 152.214Z" fill="#1A5771"/>
<path d="M261.033 166.259C259.825 165.5 258.226 165.861 257.465 167.075C257.44 167.114 257.427 167.16 257.402 167.199C258.103 166.22 259.411 165.911 260.485 166.585C261.559 167.259 261.881 168.67 261.217 169.741C261.217 169.741 261.213 169.747 261.21 169.753C261.101 169.926 260.971 170.07 260.825 170.205C260.141 170.859 259.157 170.998 258.295 170.597C258.255 170.572 258.206 170.564 258.161 170.536C258.2 170.561 258.232 170.597 258.271 170.621C259.479 171.379 261.078 171.018 261.839 169.805C262.601 168.591 262.237 166.998 261.029 166.24L261.033 166.259Z" fill="#123F52"/>
<path d="M260.836 170.211C260.973 170.079 261.106 169.929 261.215 169.756C261.215 169.756 261.219 169.75 261.222 169.745C261.891 168.667 261.52 167.234 260.491 166.588C259.462 165.943 258.108 166.223 257.408 167.203C256.771 168.354 257.1 169.792 258.174 170.552C258.219 170.58 258.265 170.594 258.308 170.613C259.165 171.01 260.163 170.849 260.838 170.221L260.836 170.211Z" fill="#1A5771"/>
<path d="M260.491 166.588C261.52 167.234 261.887 168.673 261.222 169.745C261.891 168.667 261.564 167.262 260.491 166.588C259.417 165.915 258.108 166.223 257.408 167.203C258.108 166.223 259.456 165.939 260.491 166.588Z" fill="#1A5771"/>
<path d="M260.836 170.212C260.979 170.083 261.112 169.933 261.221 169.759C261.112 169.933 260.979 170.083 260.842 170.215L260.836 170.212Z" fill="#1A5771"/>
<path d="M258.31 170.606C258.272 170.582 258.217 170.571 258.178 170.546C258.217 170.571 258.266 170.578 258.31 170.606Z" fill="#1A5771"/>
<path d="M273.535 135.645C272.327 134.887 270.729 135.248 269.967 136.461C269.943 136.501 269.929 136.547 269.905 136.586C270.605 135.607 271.914 135.298 272.987 135.972C274.061 136.645 274.386 138.065 273.712 139.139C273.6 139.318 273.461 139.465 273.314 139.599C272.632 140.239 271.654 140.381 270.803 139.987C270.758 139.959 270.708 139.951 270.666 139.932C270.705 139.956 270.737 139.992 270.776 140.017C271.984 140.775 273.582 140.414 274.344 139.2C275.106 137.987 274.741 136.394 273.533 135.636L273.535 135.645Z" fill="#123F52"/>
<path d="M273.325 139.606C273.466 139.468 273.605 139.321 273.717 139.143C274.395 138.063 274.021 136.621 272.993 135.975C271.964 135.329 270.61 135.61 269.91 136.589C269.273 137.741 269.602 139.179 270.676 139.939C270.721 139.967 270.771 139.975 270.815 140.003C271.667 140.397 272.656 140.238 273.327 139.615L273.325 139.606Z" fill="#1A5771"/>
<path d="M270.812 139.993C270.768 139.965 270.719 139.957 270.675 139.929C270.719 139.957 270.768 139.965 270.81 139.984L270.812 139.993Z" fill="#1A5771"/>
<path d="M272.993 135.975C274.027 136.624 274.391 138.069 273.717 139.142C273.605 139.321 273.472 139.472 273.325 139.606C273.472 139.472 273.611 139.325 273.723 139.146C274.4 138.067 274.072 136.652 272.998 135.979C271.925 135.305 270.616 135.614 269.916 136.593C270.616 135.614 271.964 135.329 272.998 135.979L272.993 135.975Z" fill="#1A5771"/>
<path d="M261.992 154.037C260.784 153.279 259.185 153.64 258.424 154.854C258.399 154.893 258.386 154.939 258.361 154.978C259.062 153.999 260.37 153.69 261.444 154.364C262.518 155.038 262.842 156.458 262.169 157.531C262.056 157.71 261.921 157.851 261.78 157.989C261.098 158.629 260.125 158.775 259.268 158.377C259.22 158.354 259.174 158.341 259.126 158.319C259.165 158.343 259.197 158.379 259.236 158.403C260.444 159.162 262.042 158.801 262.804 157.587C263.566 156.374 263.201 154.781 261.993 154.023L261.992 154.037Z" fill="#123F52"/>
<path d="M261.782 157.998C261.923 157.861 262.062 157.714 262.17 157.54C262.848 156.461 262.475 155.019 261.446 154.373C260.417 153.727 259.063 154.008 258.363 154.987C257.726 156.139 258.055 157.577 259.129 158.337C259.174 158.365 259.229 158.376 259.278 158.399C260.129 158.793 261.112 158.63 261.789 158.011L261.782 157.998Z" fill="#1A5771"/>
<path d="M259.274 158.389C259.227 158.366 259.181 158.353 259.128 158.327C259.172 158.355 259.221 158.363 259.269 158.385L259.274 158.389Z" fill="#1A5771"/>
<path d="M261.45 154.368C262.484 155.017 262.848 156.461 262.174 157.535C262.062 157.714 261.929 157.864 261.786 157.993C261.932 157.859 262.065 157.708 262.174 157.535C262.852 156.456 262.523 155.042 261.45 154.368C260.376 153.694 259.067 154.003 258.367 154.982C259.067 154.003 260.415 153.718 261.45 154.368Z" fill="#1A5771"/>
<path d="M250.448 172.43C249.24 171.672 247.642 172.033 246.88 173.247C246.856 173.286 246.843 173.332 246.818 173.371C247.518 172.392 248.827 172.083 249.9 172.757C250.974 173.431 251.299 174.85 250.625 175.924C250.513 176.103 250.374 176.25 250.228 176.384C249.545 177.024 248.567 177.166 247.716 176.772C247.671 176.744 247.621 176.736 247.579 176.717C247.618 176.742 247.65 176.777 247.689 176.802C248.897 177.56 250.495 177.199 251.257 175.986C252.019 174.772 251.654 173.179 250.446 172.421L250.448 172.43Z" fill="#123F52"/>
<path d="M250.235 176.396C250.376 176.259 250.515 176.112 250.627 175.933C251.305 174.854 250.932 173.411 249.903 172.766C248.874 172.12 247.52 172.401 246.82 173.38C246.183 174.531 246.512 175.969 247.586 176.729C247.631 176.757 247.681 176.765 247.726 176.793C248.577 177.188 249.566 177.028 250.237 176.405L250.235 176.396Z" fill="#1A5771"/>
<path d="M247.722 176.783C247.678 176.755 247.629 176.748 247.585 176.72C247.629 176.748 247.678 176.755 247.72 176.774L247.722 176.783Z" fill="#1A5771"/>
<path d="M249.903 172.766C250.937 173.415 251.301 174.859 250.628 175.933C250.515 176.112 250.382 176.262 250.236 176.396C250.382 176.262 250.521 176.115 250.633 175.936C251.311 174.857 250.982 173.443 249.909 172.769C248.835 172.095 247.526 172.404 246.826 173.383C247.526 172.404 248.874 172.12 249.909 172.769L249.903 172.766Z" fill="#1A5771"/>
<path d="M280.48 143.06C280.456 143.099 280.442 143.145 280.418 143.184C281.118 142.205 282.427 141.896 283.5 142.57C284.574 143.244 284.902 144.658 284.229 145.732C284.229 145.732 284.229 145.732 284.225 145.737C284.116 145.91 283.986 146.055 283.843 146.184C283.16 146.838 282.173 146.982 281.314 146.576C281.274 146.551 281.225 146.543 281.18 146.515C281.219 146.54 281.251 146.576 281.29 146.6C282.498 147.358 284.097 146.997 284.858 145.784C285.483 144.788 285.337 143.543 284.6 142.706C283.839 142.564 283.091 142.29 282.398 141.854C281.636 141.938 280.924 142.34 280.485 143.039L280.48 143.06Z" fill="#123F52"/>
<path d="M283.846 146.193C283.984 146.061 284.113 145.916 284.222 145.743C284.222 145.743 284.222 145.743 284.226 145.737C284.899 144.663 284.526 143.221 283.497 142.575C282.468 141.929 281.115 142.21 280.415 143.189C279.778 144.341 280.107 145.779 281.181 146.539C281.226 146.567 281.272 146.58 281.315 146.599C282.172 146.997 283.17 146.836 283.845 146.207L283.846 146.193Z" fill="#1A5771"/>
<path d="M281.32 146.587C281.276 146.559 281.227 146.552 281.188 146.527C281.232 146.555 281.281 146.563 281.32 146.587Z" fill="#1A5771"/>
<path d="M283.5 142.569C284.529 143.215 284.902 144.657 284.229 145.731C284.902 144.657 284.574 143.243 283.5 142.569C282.427 141.895 281.118 142.204 280.418 143.184C281.118 142.204 282.466 141.92 283.5 142.569Z" fill="#1A5771"/>
<path d="M283.845 146.193C283.988 146.064 284.122 145.914 284.227 145.746C284.118 145.92 283.988 146.064 283.851 146.196L283.845 146.193Z" fill="#1A5771"/>
<path d="M272.499 160.632C271.291 159.874 269.693 160.235 268.931 161.449C268.907 161.488 268.893 161.534 268.869 161.573C269.569 160.594 270.878 160.285 271.951 160.959C273.025 161.633 273.353 163.047 272.679 164.121C272.679 164.121 272.679 164.121 272.676 164.126C272.567 164.3 272.437 164.444 272.294 164.573C271.611 165.227 270.624 165.372 269.767 164.974C269.722 164.946 269.672 164.938 269.624 164.916C269.663 164.94 269.695 164.976 269.734 165C270.942 165.759 272.541 165.398 273.302 164.184C274.064 162.971 273.699 161.378 272.491 160.62L272.499 160.632Z" fill="#123F52"/>
<path d="M272.308 164.589C272.445 164.457 272.575 164.312 272.684 164.139C272.684 164.139 272.684 164.139 272.688 164.133C273.361 163.059 272.988 161.617 271.959 160.971C270.93 160.325 269.577 160.606 268.877 161.585C268.24 162.737 268.569 164.175 269.643 164.935C269.688 164.963 269.738 164.971 269.786 164.993C270.643 165.391 271.639 165.221 272.314 164.592L272.308 164.589Z" fill="#1A5771"/>
<path d="M269.783 164.984C269.738 164.956 269.689 164.948 269.641 164.926C269.686 164.954 269.735 164.961 269.783 164.984Z" fill="#1A5771"/>
<path d="M271.957 160.962C272.986 161.608 273.359 163.051 272.686 164.124C273.359 163.051 273.031 161.636 271.957 160.962C270.884 160.289 269.575 160.598 268.875 161.577C269.575 160.598 270.923 160.313 271.957 160.962Z" fill="#1A5771"/>
<path d="M272.308 164.589C272.446 164.457 272.581 164.316 272.69 164.142C272.581 164.316 272.451 164.46 272.314 164.592L272.308 164.589Z" fill="#1A5771"/>
<path d="M260.956 179.025C259.748 178.267 258.15 178.628 257.388 179.841C257.364 179.88 257.35 179.927 257.326 179.966C258.026 178.987 259.334 178.678 260.408 179.351C261.482 180.025 261.81 181.44 261.136 182.513C261.136 182.513 261.136 182.513 261.133 182.519C261.024 182.692 260.894 182.837 260.751 182.965C260.068 183.62 259.081 183.764 258.221 183.357C258.182 183.333 258.132 183.325 258.088 183.297C258.127 183.322 258.159 183.357 258.198 183.382C259.406 184.14 261.004 183.779 261.766 182.566C262.528 181.352 262.163 179.759 260.955 179.001L260.956 179.025Z" fill="#123F52"/>
<path d="M260.759 182.978C260.897 182.846 261.026 182.701 261.135 182.528C261.135 182.528 261.135 182.528 261.139 182.522C261.813 181.448 261.439 180.006 260.41 179.36C259.382 178.715 258.028 178.995 257.328 179.975C256.691 181.126 257.02 182.564 258.094 183.324C258.139 183.352 258.185 183.366 258.228 183.385C259.085 183.782 260.083 183.621 260.758 182.992L260.759 182.978Z" fill="#1A5771"/>
<path d="M260.41 179.36C261.439 180.006 261.813 181.449 261.139 182.522C261.813 181.449 261.484 180.034 260.41 179.36C259.337 178.686 258.028 178.995 257.328 179.975C258.028 178.995 259.376 178.711 260.41 179.36Z" fill="#1A5771"/>
<path d="M258.23 183.378C258.186 183.35 258.137 183.343 258.098 183.318C258.142 183.346 258.191 183.354 258.23 183.378Z" fill="#1A5771"/>
<path d="M260.76 182.978C260.903 182.849 261.036 182.699 261.141 182.531C261.032 182.705 260.903 182.849 260.765 182.981L260.76 182.978Z" fill="#1A5771"/>
</g>
<defs>
<filter id="filter0_d_1399_4174" x="211.486" y="83.6851" width="72.2334" height="89.8794" filterUnits="userSpaceOnUse" color-interpolation-filters="sRGB">
<feFlood flood-opacity="0" result="BackgroundImageFix"/>
<feColorMatrix in="SourceAlpha" type="matrix" values="0 0 0 0 0 0 0 0 0 0 0 0 0 0 0 0 0 0 127 0" result="hardAlpha"/>
<feOffset dx="4" dy="5"/>
<feComposite in2="hardAlpha" operator="out"/>
<feColorMatrix type="matrix" values="0 0 0 0 0 0 0 0 0 0 0 0 0 0 0 0 0 0 0.25 0"/>
<feBlend mode="normal" in2="BackgroundImageFix" result="effect1_dropShadow_1399_4174"/>
<feBlend mode="normal" in="SourceGraphic" in2="effect1_dropShadow_1399_4174" result="shape"/>
</filter>
<clipPath id="clip0_1399_4174">
<rect width="42.9148" height="77.042" fill="white" transform="translate(263.985 111.949) rotate(32.1127)"/>
</clipPath>
</defs>
</svg>
