<svg width="351" height="265" viewBox="0 0 351 265" fill="none" xmlns="http://www.w3.org/2000/svg">
<rect x="0.732422" y="0.779297" width="350" height="264" rx="8" fill="#A0B5FF"/>
<path d="M130.029 157.423L197.059 125.349L282.108 172.198L215.078 204.271L130.029 157.423Z" fill="#331712"/>
<path d="M194.386 82.5161V82.8909C194.386 82.8909 196.995 84.8802 198.054 86.0262L198.501 85.9613V85.637L194.386 82.5161Z" fill="#58271E"/>
<path d="M186.55 88.3812V88.9722C186.55 88.9722 196.431 89.2461 201.354 93.7725V92.8715C201.354 92.8715 196.994 88.5975 186.55 88.374V88.3812Z" fill="#58271E"/>
<path d="M194.385 82.5149C205.729 82.1762 211.971 87.7187 211.971 87.7187L201.333 92.8793C196.158 88.5404 186.543 88.3818 186.543 88.3818C186.543 88.3818 191.141 85.888 198.212 85.7367C198.212 85.7367 197.369 84.915 196.41 84.115C195.913 83.7042 194.385 82.5149 194.385 82.5149Z" fill="#B54735"/>
<path d="M222.285 109.132L308.775 156.341V159.224L222.285 111.654V109.132Z" fill="black"/>
<path d="M308.776 127.511V124.628L223.727 77.7793L220.844 79.2208L308.776 127.511Z" fill="#283B68"/>
<path d="M156.697 144.449L223.727 112.376L308.776 159.225L241.746 191.298L156.697 144.449Z" fill="#4966A8"/>
<path d="M156.697 141.567L223.727 109.494L308.776 156.343L241.746 188.776L156.697 141.567Z" fill="#233457"/>
<path d="M156.697 112.735L223.727 80.6616L308.776 127.511L241.746 159.584L156.697 112.735Z" fill="#3B548D"/>
<path d="M156.697 109.853L223.727 77.7793L308.776 124.628L241.746 156.702L156.697 109.853Z" fill="#FFBAAD"/>
<path d="M156.697 109.853L223.727 77.7793L308.776 124.628L241.746 156.702L156.697 109.853Z" fill="url(#paint0_linear_1399_4379)"/>
<path d="M156.697 109.854V144.81L241.746 191.659V156.702L156.697 109.854Z" fill="#9A4E41"/>
<path d="M156.697 109.854V144.81L241.746 191.659V156.702L156.697 109.854Z" fill="url(#paint1_linear_1399_4379)"/>
<path d="M308.055 156.702V127.511L242.106 158.504V188.775L308.055 156.702Z" fill="#E1E8FA"/>
<path d="M308.055 156.702V127.511L242.106 158.504V188.775L308.055 156.702Z" fill="url(#paint2_linear_1399_4379)"/>
<path fill-rule="evenodd" clip-rule="evenodd" d="M308.776 124.629V127.512L243.548 158.72V187.904L308.776 156.342V159.225L241.746 191.659V156.702L308.776 124.629Z" fill="#7B3428"/>
<mask id="mask0_1399_4379" style="mask-type:luminance" maskUnits="userSpaceOnUse" x="185" y="89" width="59" height="34">
<path d="M202.984 122.758L185.203 113.122L225.681 89.748L243.462 99.3845L202.984 122.758Z" fill="white"/>
</mask>
<g mask="url(#mask0_1399_4379)">
<path d="M198.3 114.622C198.236 114.658 198.178 114.694 198.106 114.73L196.124 115.746L191.136 112.813L193.111 111.797C194.783 110.946 196.585 111.112 198.048 111.984C199.49 112.82 199.742 113.793 198.3 114.629M185.824 112.777L200.636 121.491L203.432 120.049L198.603 117.209L201.025 115.963C201.147 115.898 201.27 115.833 201.385 115.768C204.117 114.19 203.778 112.164 200.938 110.499C198.019 108.784 194.185 108.467 191.122 110.052L185.831 112.777" fill="#4972CE"/>
<path d="M210.128 113.022C209.342 113.476 209.429 114.255 210.351 114.773C211.281 115.343 212.759 115.429 213.638 114.975C213.66 114.961 213.681 114.954 213.703 114.939C214.46 114.507 214.388 113.714 213.465 113.166C212.521 112.611 211.036 112.532 210.214 112.964C210.178 112.979 210.149 113 210.121 113.015" fill="#4972CE"/>
<path d="M214.95 106.039C214.885 106.075 214.82 106.111 214.748 106.147L212.773 107.163L207.778 104.222L209.753 103.206C211.425 102.356 213.227 102.521 214.69 103.393C216.132 104.23 216.391 105.203 214.95 106.031M202.466 104.179L217.278 112.9L220.074 111.459L215.245 108.619L217.667 107.372C217.789 107.307 217.905 107.242 218.013 107.185C220.752 105.606 220.413 103.581 217.573 101.909C214.654 100.193 210.82 99.8762 207.749 101.455L202.459 104.179" fill="#4972CE"/>
<path d="M214.301 98.0874L229.119 106.808L231.873 105.389L217.061 96.6675L214.301 98.0874Z" fill="#4972CE"/>
<path d="M233.963 96.9412L229.66 99.1612C228.485 98.4116 228.298 97.3881 229.429 96.7322C229.472 96.7034 229.523 96.6818 229.573 96.6529C230.791 96.0115 232.608 96.1484 233.97 96.934M226.957 95.4997C224.305 97.0277 224.787 99.2981 228.11 101.244C231.62 103.32 235.721 103.637 238.835 102.044C238.943 101.987 239.051 101.929 239.152 101.871C241.343 100.603 241.595 99.0458 240.003 97.6908L237.379 99.0458C237.754 99.5504 237.566 100.134 236.738 100.617C236.701 100.639 236.665 100.66 236.622 100.682C235.188 101.41 233.249 101.266 231.57 100.278L238.482 96.7178L237.617 96.2133C233.833 93.9862 229.89 93.979 227.238 95.3484C227.137 95.3988 227.043 95.4493 226.95 95.5069" fill="#4972CE"/>
</g>
<defs>
<linearGradient id="paint0_linear_1399_4379" x1="188.952" y1="101.111" x2="262.112" y2="114.161" gradientUnits="userSpaceOnUse">
<stop stop-color="#FF9C8A"/>
<stop offset="1" stop-color="#F5BDB3" stop-opacity="0"/>
</linearGradient>
<linearGradient id="paint1_linear_1399_4379" x1="156.92" y1="110.207" x2="192.116" y2="150.544" gradientUnits="userSpaceOnUse">
<stop stop-color="#7B2B1E"/>
<stop offset="0.979729" stop-color="#9A4E41" stop-opacity="0"/>
</linearGradient>
<linearGradient id="paint2_linear_1399_4379" x1="252.621" y1="149.357" x2="277.93" y2="172.689" gradientUnits="userSpaceOnUse">
<stop stop-opacity="0.47"/>
<stop offset="1" stop-color="white" stop-opacity="0"/>
</linearGradient>
</defs>
</svg>
