<svg width="351" height="265" viewBox="0 0 351 265" fill="none" xmlns="http://www.w3.org/2000/svg">
<rect x="0.783203" y="0.335938" width="350" height="264" rx="8" fill="#D38D8D"/>
<path d="M235.205 195.712L309.605 161.609L309.604 165.159L235.204 199.263L235.205 195.712Z" fill="#3C6388"/>
<path d="M235.201 195.683L132.352 150.45L132.352 154.001L235.2 199.233L235.201 195.683Z" fill="#2B4A67"/>
<path d="M216.99 207.285L114.142 162.052L132.346 153.995L235.195 199.228L216.99 207.285Z" fill="#1C3043"/>
<path d="M132.276 150.451L206.677 116.347L258.177 138.97L183.777 173.073L132.276 150.451Z" fill="#4D85B9"/>
<path d="M132.276 150.451L206.677 116.347L258.177 138.97L183.777 173.073L132.276 150.451Z" fill="url(#paint0_linear_1399_4438)"/>
<path d="M183.704 173.073L258.104 138.969L309.605 161.592L235.205 195.695L183.704 173.073Z" fill="#4D85B9"/>
<path d="M183.704 173.073L258.104 138.969L309.605 161.592L235.205 195.695L183.704 173.073Z" fill="url(#paint1_linear_1399_4438)"/>
<path d="M186.982 159.553L138.61 137.985L138.606 149.918L186.979 171.487L186.982 159.553Z" fill="#A5ABB0"/>
<path d="M186.982 159.553L138.61 137.985L138.606 149.918L186.979 171.487L186.982 159.553Z" fill="url(#paint2_linear_1399_4438)"/>
<path d="M235.356 181.133L186.983 159.442V171.57L235.356 193.138V181.133Z" fill="#A5ABB0"/>
<path d="M235.356 181.133L186.983 159.442V171.57L235.356 193.138V181.133Z" fill="url(#paint3_linear_1399_4438)"/>
<path d="M235.36 181.218L303.415 149.332L303.412 161.266L235.356 193.152L235.36 181.218Z" fill="#C9DDF0"/>
<path d="M235.399 181.105L138.609 138.003L206.684 106.223L303.434 149.33L235.399 181.105Z" fill="#F2F9FF"/>
<mask id="mask0_1399_4438" style="mask-type:luminance" maskUnits="userSpaceOnUse" x="158" y="111" width="60" height="34">
<path d="M176.91 144.708L158.981 134.991L199.795 111.423L217.724 121.139L176.91 144.708Z" fill="white"/>
</mask>
<g mask="url(#mask0_1399_4438)">
<path d="M172.186 136.503C172.121 136.54 172.063 136.576 171.99 136.612L169.992 137.637L164.963 134.679L166.954 133.655C168.64 132.797 170.457 132.964 171.932 133.844C173.385 134.687 173.64 135.668 172.186 136.511M159.606 134.643L174.541 143.429L177.361 141.976L172.492 139.112L174.933 137.855C175.057 137.79 175.18 137.724 175.297 137.659C178.051 136.067 177.71 134.025 174.846 132.347C171.903 130.617 168.037 130.297 164.948 131.896L159.614 134.643" fill="#D1DFEB"/>
<path d="M184.112 134.89C183.32 135.348 183.407 136.133 184.337 136.656C185.275 137.23 186.764 137.317 187.651 136.86C187.673 136.845 187.695 136.838 187.716 136.823C188.479 136.387 188.407 135.588 187.477 135.035C186.525 134.476 185.027 134.396 184.199 134.832C184.163 134.846 184.134 134.868 184.105 134.883" fill="#D1DFEB"/>
<path d="M188.973 127.849C188.908 127.885 188.842 127.922 188.77 127.958L186.779 128.983L181.742 126.018L183.734 124.993C185.42 124.135 187.236 124.302 188.712 125.182C190.165 126.025 190.427 127.006 188.973 127.842M176.386 125.974L191.321 134.767L194.14 133.314L189.271 130.451L191.713 129.193C191.837 129.128 191.953 129.063 192.062 129.004C194.824 127.413 194.482 125.371 191.619 123.685C188.675 121.955 184.809 121.635 181.713 123.227L176.379 125.974" fill="#D1DFEB"/>
<path d="M188.319 119.832L203.261 128.626L206.037 127.194L191.103 118.4L188.319 119.832Z" fill="#D1DFEB"/>
<path d="M208.145 118.677L203.807 120.915C202.622 120.159 202.433 119.127 203.574 118.466C203.618 118.437 203.669 118.415 203.72 118.386C204.948 117.739 206.779 117.877 208.153 118.669M201.081 117.223C198.407 118.764 198.894 121.053 202.244 123.015C205.783 125.108 209.919 125.428 213.058 123.822C213.167 123.764 213.276 123.706 213.378 123.648C215.587 122.368 215.842 120.799 214.235 119.432L211.59 120.799C211.968 121.307 211.779 121.896 210.943 122.383C210.907 122.405 210.871 122.427 210.827 122.448C209.381 123.182 207.426 123.037 205.733 122.041L212.702 118.451L211.83 117.943C208.015 115.697 204.039 115.69 201.365 117.071C201.263 117.121 201.169 117.172 201.074 117.23" fill="#D1DFEB"/>
</g>
<path d="M235.481 181.296L186.983 159.473L255.037 127.689L303.535 149.512L235.481 181.296Z" fill="#EAF5FF"/>
<path d="M235.481 181.296L186.983 159.473L255.037 127.689L303.535 149.512L235.481 181.296Z" fill="url(#paint4_linear_1399_4438)"/>
<path d="M226.878 150.128L186.983 159.468L255.037 127.684L294.932 118.344L226.878 150.128Z" fill="#E4EEF7"/>
<path d="M226.878 150.128L186.983 159.468L255.037 127.684L294.932 118.344L226.878 150.128Z" fill="url(#paint5_linear_1399_4438)"/>
<defs>
<linearGradient id="paint0_linear_1399_4438" x1="179.877" y1="130.693" x2="195.227" y2="173.073" gradientUnits="userSpaceOnUse">
<stop stop-color="#4D85B9" stop-opacity="0"/>
<stop offset="1" stop-color="#2264A1"/>
</linearGradient>
<linearGradient id="paint1_linear_1399_4438" x1="204.089" y1="159.612" x2="231.958" y2="181.398" gradientUnits="userSpaceOnUse">
<stop stop-color="#2264A2"/>
<stop offset="1" stop-color="#4D85B9" stop-opacity="0"/>
</linearGradient>
<linearGradient id="paint2_linear_1399_4438" x1="186.983" y1="166.951" x2="138.606" y2="146.063" gradientUnits="userSpaceOnUse">
<stop stop-color="#82878B"/>
<stop offset="1" stop-color="#A5ABB0" stop-opacity="0"/>
</linearGradient>
<linearGradient id="paint3_linear_1399_4438" x1="186.983" y1="166.167" x2="235.357" y2="188.535" gradientUnits="userSpaceOnUse">
<stop stop-color="#858C92"/>
<stop offset="1" stop-color="#A5ABB0" stop-opacity="0"/>
</linearGradient>
<linearGradient id="paint4_linear_1399_4438" x1="229.09" y1="143.674" x2="238.978" y2="183.105" gradientUnits="userSpaceOnUse">
<stop stop-color="#A8B1B8"/>
<stop offset="1" stop-color="#EAF5FF" stop-opacity="0"/>
</linearGradient>
<linearGradient id="paint5_linear_1399_4438" x1="226.39" y1="134.65" x2="239.237" y2="159.473" gradientUnits="userSpaceOnUse">
<stop stop-color="#C0C7CD"/>
<stop offset="1" stop-color="#E4EEF6" stop-opacity="0"/>
</linearGradient>
</defs>
</svg>
