<svg width="351" height="265" viewBox="0 0 351 265" fill="none" xmlns="http://www.w3.org/2000/svg">
<rect x="0.783203" y="0.558594" width="350" height="264" rx="8" fill="#A0B5FF"/>
<path d="M102.866 169.79L202.512 206.559L282.39 170.637L175.625 129.047L102.866 169.79Z" fill="#30190D"/>
<path d="M117.463 162.086L220.822 198.437L283.889 170.407L180.53 134.056L117.463 162.086Z" fill="#B0B0B0"/>
<path d="M129.571 143.829L220.671 176.663L271.124 154.163L180.025 121.329L129.571 143.829Z" fill="#373943"/>
<path d="M180.091 126.757L271.191 159.591L271.191 150.248L180.091 117.414L180.091 126.757Z" fill="#4A4D5B"/>
<path d="M180.082 126.736L129.692 149.215L129.691 139.892L180.082 117.414L180.082 126.736Z" fill="#202129"/>
<path d="M180.083 126.736L177.821 127.748L172.939 120.59L180.082 117.414L180.083 126.736Z" fill="black"/>
<path d="M180.082 126.736L265.893 157.737V148.213L180.082 117.414L180.082 126.736Z" fill="black"/>
<path d="M180.081 126.737L261.212 155.989L258.039 157.128L177.825 127.75L180.081 126.737Z" fill="#21232C"/>
<path fill-rule="evenodd" clip-rule="evenodd" d="M220.822 177.413L117.463 141.062L180.53 113.032L283.889 149.383L220.822 177.413ZM220.738 172.745L129.639 139.911L180.092 117.411L271.192 150.245L220.738 172.745Z" fill="#FFDCC2"/>
<path fill-rule="evenodd" clip-rule="evenodd" d="M220.822 177.413L117.463 141.062L180.53 113.032L283.889 149.383L220.822 177.413ZM220.738 172.745L129.639 139.911L180.092 117.411L271.192 150.245L220.738 172.745Z" fill="url(#paint0_linear_1399_4405)"/>
<path d="M117.463 141.063L220.822 177.408V198.437L117.463 162.086V141.063Z" fill="#58280E"/>
<path d="M283.889 149.385L220.822 177.413V198.437L283.889 170.407V149.385Z" fill="#F7935C"/>
<path d="M163.387 134.613L236.509 162.037L241.364 159.498L166.958 132.858L163.387 134.613Z" fill="#21232C"/>
<path d="M165.377 131.044L238.598 158.011L238.598 160.592L165.377 133.625L165.377 131.044Z" fill="#68A0C8"/>
<path d="M165.377 131.044L238.598 158.01L241.527 156.483L168.306 129.517L165.377 131.044Z" fill="#87CDFF"/>
<path d="M214.848 149.001L238.596 157.691L241.525 156.164L217.777 147.474L214.848 149.001Z" fill="#3D98DA"/>
<path d="M222.997 151.642L233.717 155.656L235.358 154.804L224.638 150.79L222.997 151.642Z" fill="#1C4664"/>
<path d="M238.01 157.229L237.747 156.631L239.389 155.779L239.724 156.276L238.01 157.229Z" fill="#64A8D9"/>
<path d="M223.322 151.276L237.75 156.632L238.01 157.232L233.602 155.603L233.359 155.296L222.995 151.424L223.322 151.276Z" fill="#488BBC"/>
<path d="M223.32 151.277L237.748 156.633L239.389 155.781L224.961 150.425L223.32 151.277Z" fill="#87CDFF"/>
<path d="M223.317 151.277L223.009 151.418L224.651 150.566L224.958 150.425L223.317 151.277Z" fill="#32688E"/>
<path d="M238.597 160.977L238.596 157.69L241.525 156.163L241.526 159.45L238.597 160.977Z" fill="#346E99"/>
<path d="M214.848 148.999L238.606 157.714V161.003L214.848 152.239V148.999Z" fill="#2072AD"/>
<path d="M262.924 158.685L262.924 153.848L272.382 149.714L282.394 150.111L262.924 158.685Z" fill="#512D1A"/>
<path d="M278.665 172.735L262.904 158.657L283.957 149.377L283.89 170.408L278.665 172.735Z" fill="#3E1B09"/>
<path d="M172.197 112.388L263.297 145.223L311.783 143.504L220.684 110.67L172.197 112.388Z" fill="#FFDDCB"/>
<path d="M172.197 112.388L263.297 145.223L311.783 143.504L220.684 110.67L172.197 112.388Z" fill="url(#paint1_linear_1399_4405)"/>
<path d="M263.296 152.832V145.222L311.782 143.503L311.784 150.188L263.296 152.832Z" fill="#F7935C"/>
<path d="M263.309 152.85V145.24L172.198 112.387L172.2 119.072L263.309 152.85Z" fill="#58280E"/>
<defs>
<linearGradient id="paint0_linear_1399_4405" x1="246.308" y1="132.267" x2="234.861" y2="162.52" gradientUnits="userSpaceOnUse">
<stop stop-color="#E37033"/>
<stop offset="1" stop-color="#FF7A34" stop-opacity="0"/>
<stop offset="1" stop-color="#512D1A" stop-opacity="0"/>
</linearGradient>
<linearGradient id="paint1_linear_1399_4405" x1="250.069" y1="115.099" x2="240.748" y2="138.483" gradientUnits="userSpaceOnUse">
<stop stop-color="#E4824D"/>
<stop offset="1" stop-color="#FFDCC2"/>
</linearGradient>
</defs>
</svg>
