<svg width="351" height="264" viewBox="0 0 351 264" fill="none" xmlns="http://www.w3.org/2000/svg">
<rect x="0.732422" width="350" height="264" rx="8" fill="#F5BDB3"/>
<path d="M141.733 159.706L205.108 129.381L285.518 173.675L222.144 204L141.733 159.706Z" fill="#222D49"/>
<path d="M202.58 88.8843V89.2386C202.58 89.2386 205.047 91.1194 206.049 92.2029L206.471 92.1416V91.8349L202.58 88.8843Z" fill="#1A2843"/>
<path d="M195.172 94.4292V94.988C195.172 94.988 204.514 95.2469 209.169 99.5264V98.6746C209.169 98.6746 205.046 94.6336 195.172 94.4224V94.4292Z" fill="#121D31"/>
<path d="M202.579 88.8837C213.305 88.5635 219.206 93.8038 219.206 93.8038L209.148 98.6829C204.256 94.5806 195.165 94.4307 195.165 94.4307C195.165 94.4307 199.513 92.0729 206.198 91.9298C206.198 91.9298 205.4 91.1529 204.494 90.3965C204.024 90.0081 202.579 88.8837 202.579 88.8837Z" fill="#283D6C"/>
<path d="M228.959 114.049L310.732 158.684V161.409L228.959 116.434V114.049Z" fill="black"/>
<path d="M310.732 131.426V128.7L230.321 84.4062L227.596 85.7691L310.732 131.426Z" fill="#283B68"/>
<path d="M166.947 147.44L230.322 117.116L310.732 161.41L247.358 191.734L166.947 147.44Z" fill="#4966A8"/>
<path d="M166.947 144.715L230.322 114.391L310.732 158.685L247.358 189.35L166.947 144.715Z" fill="#233457"/>
<path d="M166.947 117.456L230.322 87.1313L310.732 131.425L247.358 161.75L166.947 117.456Z" fill="#3B548D"/>
<path d="M166.947 114.731L230.322 84.4062L310.732 128.7L247.358 159.025L166.947 114.731Z" fill="#5C7CC5"/>
<path d="M166.947 114.731L230.322 84.4062L310.732 128.7L247.358 159.025L166.947 114.731Z" fill="url(#paint0_linear_1399_4353)"/>
<path d="M166.947 114.731V147.781L247.358 192.075V159.025L166.947 114.731Z" fill="#243969"/>
<path d="M166.947 114.731V147.781L247.358 192.075V159.025L166.947 114.731Z" fill="url(#paint1_linear_1399_4353)"/>
<path d="M310.051 159.024V131.426L247.698 160.728V189.349L310.051 159.024Z" fill="#E1E8FA"/>
<path d="M310.051 159.024V131.426L247.698 160.728V189.349L310.051 159.024Z" fill="url(#paint2_linear_1399_4353)"/>
<path fill-rule="evenodd" clip-rule="evenodd" d="M310.732 128.701V131.426L249.061 160.933V188.525L310.732 158.684V161.41L247.357 192.075V159.025L310.732 128.701Z" fill="#2C4071"/>
<mask id="mask0_1399_4353" style="mask-type:luminance" maskUnits="userSpaceOnUse" x="193" y="95" width="56" height="32">
<path d="M210.711 126.931L193.899 117.82L232.169 95.7212L248.981 104.832L210.711 126.931Z" fill="white"/>
</mask>
<g mask="url(#mask0_1399_4353)">
<path d="M206.281 119.239C206.22 119.273 206.165 119.307 206.097 119.341L204.223 120.302L199.508 117.529L201.375 116.568C202.956 115.764 204.659 115.92 206.043 116.745C207.406 117.535 207.644 118.455 206.281 119.246M194.485 117.494L208.489 125.733L211.133 124.37L206.567 121.685L208.857 120.506C208.973 120.445 209.089 120.384 209.198 120.322C211.78 118.83 211.46 116.915 208.775 115.341C206.015 113.719 202.39 113.419 199.494 114.919L194.492 117.494" fill="#FC7B72"/>
<path d="M217.463 117.725C216.72 118.155 216.802 118.891 217.674 119.381C218.553 119.92 219.95 120.001 220.782 119.572C220.802 119.559 220.823 119.552 220.843 119.538C221.558 119.129 221.49 118.38 220.618 117.862C219.725 117.337 218.322 117.262 217.545 117.671C217.511 117.685 217.483 117.705 217.456 117.719" fill="#FC7B72"/>
<path d="M222.022 111.123C221.961 111.157 221.9 111.192 221.832 111.226L219.964 112.186L215.242 109.406L217.109 108.445C218.69 107.641 220.394 107.798 221.777 108.622C223.14 109.413 223.385 110.333 222.022 111.117M210.22 109.365L224.223 117.611L226.867 116.248L222.302 113.563L224.591 112.384C224.707 112.323 224.816 112.261 224.918 112.207C227.508 110.715 227.188 108.8 224.503 107.219C221.743 105.597 218.118 105.297 215.215 106.789L210.213 109.365" fill="#FC7B72"/>
<path d="M221.409 103.606L235.42 111.852L238.023 110.509L224.019 102.264L221.409 103.606Z" fill="#FC7B72"/>
<path d="M239.999 102.523L235.931 104.621C234.82 103.913 234.643 102.945 235.713 102.325C235.754 102.298 235.802 102.277 235.849 102.25C237.001 101.643 238.718 101.773 240.006 102.516M233.376 101.16C230.868 102.604 231.324 104.751 234.466 106.591C237.785 108.553 241.662 108.853 244.606 107.347C244.708 107.293 244.81 107.238 244.906 107.184C246.977 105.984 247.216 104.512 245.71 103.231L243.229 104.512C243.584 104.989 243.406 105.541 242.623 105.998C242.589 106.018 242.555 106.039 242.514 106.059C241.158 106.748 239.325 106.611 237.737 105.678L244.272 102.311L243.454 101.834C239.877 99.7286 236.149 99.7218 233.641 101.017C233.546 101.064 233.457 101.112 233.369 101.166" fill="#FC7B72"/>
</g>
<defs>
<linearGradient id="paint0_linear_1399_4353" x1="197.443" y1="106.466" x2="266.613" y2="118.804" gradientUnits="userSpaceOnUse">
<stop stop-color="#4061AA"/>
<stop offset="1" stop-color="#5C7CC5" stop-opacity="0"/>
</linearGradient>
<linearGradient id="paint1_linear_1399_4353" x1="167.158" y1="115.065" x2="200.435" y2="153.202" gradientUnits="userSpaceOnUse">
<stop stop-color="#1E3265"/>
<stop offset="0.979729" stop-color="#222D49" stop-opacity="0"/>
</linearGradient>
<linearGradient id="paint2_linear_1399_4353" x1="257.639" y1="152.08" x2="281.568" y2="174.14" gradientUnits="userSpaceOnUse">
<stop stop-opacity="0.47"/>
<stop offset="1" stop-color="white" stop-opacity="0"/>
</linearGradient>
</defs>
</svg>
