<svg width="351" height="264" viewBox="0 0 351 264" fill="none" xmlns="http://www.w3.org/2000/svg">
<rect x="0.998047" width="350" height="264" rx="8" fill="#87B499"/>
<path d="M269.229 148.473V193.174C269.229 194.749 271.987 196.026 275.385 196.026C278.784 196.026 281.542 194.749 281.542 193.174V148.473H269.229Z" fill="#784949"/>
<path d="M269.229 148.473H281.542V181.431L269.229 174.259V148.473Z" fill="#290D0D"/>
<path d="M306.191 161.247L289.516 89.2027C288.134 82.5371 282.227 77.7559 275.379 77.7559C268.525 77.7559 262.624 82.5371 261.242 89.2027L244.567 161.247C244.431 161.585 244.352 161.934 244.352 162.282C244.352 167.215 258.24 171.215 275.379 171.215C292.518 171.215 306.406 167.215 306.406 162.282C306.406 161.934 306.327 161.585 306.191 161.247Z" fill="#AA5959"/>
<path d="M261.242 89.2027C262.064 85.2359 264.487 81.9365 267.759 79.915C271.746 77.4515 276.102 81.011 277.119 85.5862L294.859 165.403C293.87 166.803 288.59 169.926 275.379 171.215C258.24 171.215 244.352 167.215 244.352 162.282C244.352 161.934 244.431 161.585 244.567 161.247L261.242 89.2027Z" fill="#512020"/>
<path d="M200.459 148.473V193.174C200.459 194.749 203.217 196.026 206.616 196.026C210.014 196.026 212.773 194.749 212.773 193.174V148.473H200.459Z" fill="#784949"/>
<path d="M200.459 148.473H212.773V183.687L200.459 177.111V148.473Z" fill="#290D0D"/>
<path d="M237.423 161.247L220.748 89.2027C219.366 82.5371 213.458 77.7559 206.611 77.7559C199.757 77.7559 193.855 82.5371 192.473 89.2027L175.804 161.247C175.668 161.585 175.589 161.934 175.589 162.282C175.589 167.215 189.477 171.215 206.616 171.215C223.755 171.215 237.644 167.215 237.644 162.282C237.644 161.934 237.564 161.585 237.428 161.247H237.423Z" fill="#291816"/>
<path d="M250.075 158.447V203.149C250.075 204.724 252.834 206.001 256.232 206.001C259.63 206.001 262.389 204.724 262.389 203.149V158.447H250.075Z" fill="#784949"/>
<path d="M250.075 158.447H262.389V180.798L250.075 172.382V158.447Z" fill="#290D0D"/>
<path d="M287.044 157.963L270.369 77.4468C268.987 70.7812 263.079 66 256.231 66C249.378 66 243.476 70.7812 242.094 77.4468L225.419 157.963C225.283 158.3 225.204 158.649 225.204 158.998C225.204 163.931 239.092 167.93 256.231 167.93C273.371 167.93 287.259 163.931 287.259 158.998C287.259 158.649 287.18 158.3 287.044 157.963Z" fill="#E3978E"/>
</svg>
