<svg width="351" height="264" viewBox="0 0 351 264" fill="none" xmlns="http://www.w3.org/2000/svg">
<rect x="0.998047" width="350" height="264" rx="8" fill="#A0B5FF"/>
<path d="M308.411 161.673C308.471 140.085 277.86 127.739 239.206 127.631C200.552 127.523 169.168 144.937 169.107 166.525C169.047 188.113 200.333 205.701 238.988 205.808C277.642 205.916 308.351 183.261 308.411 161.673Z" fill="#330D0D"/>
<mask id="mask0_1399_4462" style="mask-type:luminance" maskUnits="userSpaceOnUse" x="176" y="133" width="133" height="66">
<path d="M308.991 134.264L308.915 160.001C308.89 169.726 302.481 179.437 289.688 186.863C263.937 201.797 222.041 201.803 196.114 186.863C183.074 179.343 176.564 169.473 176.589 159.623L176.665 133.885C176.64 143.735 183.15 153.605 196.196 161.119C222.123 176.059 264.013 176.053 289.77 161.119C302.563 153.7 308.972 143.988 308.997 134.257L308.991 134.264Z" fill="white"/>
</mask>
<g mask="url(#mask0_1399_4462)">
<path d="M308.99 134.264L308.915 160.001C308.915 160.197 308.915 160.387 308.908 160.582L308.984 134.845C308.984 134.649 308.99 134.459 308.99 134.264Z" fill="#D38D8D"/>
<path d="M308.549 138.632C308.296 139.876 307.942 141.12 307.48 142.352C307.006 143.615 306.417 144.871 305.715 146.109C304.956 147.447 304.07 148.761 303.051 150.055C301.862 151.564 300.495 153.036 298.945 154.456C296.573 156.641 293.776 158.719 290.562 160.651L290.486 186.389C293.7 184.456 296.497 182.385 298.869 180.194C300.413 178.767 301.786 177.296 302.976 175.793C303.994 174.505 304.88 173.185 305.639 171.847C306.341 170.609 306.923 169.359 307.404 168.089C307.866 166.858 308.22 165.62 308.474 164.37C308.727 163.114 308.872 161.844 308.91 160.582L308.986 134.844C308.948 136.107 308.803 137.376 308.549 138.632Z" fill="#D38D8D"/>
<path d="M289.763 161.12C285.354 163.677 280.463 165.799 275.262 167.485C271.251 168.786 267.05 169.821 262.735 170.598L262.659 196.336C266.974 195.559 271.169 194.524 275.186 193.223C280.387 191.543 285.271 189.421 289.687 186.858C289.96 186.7 290.232 186.542 290.497 186.384L290.573 160.646C290.308 160.804 290.035 160.962 289.763 161.12Z" fill="#D38D8D"/>
<path d="M254.302 171.772C251.872 172.011 249.424 172.176 246.963 172.258C244.704 172.334 242.445 172.346 240.186 172.289C238.01 172.233 235.834 172.119 233.67 171.942C231.512 171.765 229.361 171.525 227.235 171.222C225.021 170.906 222.832 170.528 220.674 170.086C218.334 169.599 216.031 169.037 213.772 168.4C211.013 167.617 208.324 166.714 205.737 165.691C202.377 164.365 199.176 162.843 196.19 161.125C183.15 153.605 176.633 143.742 176.665 133.885L176.589 159.623C176.564 169.473 183.074 179.343 196.12 186.857C199.106 188.581 202.301 190.102 205.667 191.422C208.255 192.445 210.944 193.342 213.702 194.131C215.955 194.775 218.264 195.337 220.605 195.817C222.762 196.265 224.951 196.644 227.166 196.954C229.292 197.257 231.436 197.497 233.6 197.673C235.764 197.85 237.94 197.97 240.117 198.021C242.376 198.078 244.641 198.065 246.893 197.989C249.348 197.907 251.803 197.743 254.232 197.503C257.079 197.219 259.901 196.827 262.672 196.328L262.748 170.591C259.977 171.09 257.155 171.481 254.308 171.765L254.302 171.772Z" fill="#D38D8D"/>
</g>
<mask id="mask1_1399_4462" style="mask-type:luminance" maskUnits="userSpaceOnUse" x="176" y="133" width="133" height="66">
<path d="M308.991 134.264L308.915 160.001C308.89 169.726 302.481 179.437 289.688 186.863C263.937 201.797 222.041 201.803 196.114 186.863C183.074 179.343 176.564 169.473 176.589 159.623L176.665 133.885C176.64 143.735 183.15 153.605 196.196 161.119C222.123 176.059 264.013 176.053 289.77 161.119C302.563 153.7 308.972 143.988 308.997 134.257L308.991 134.264Z" fill="white"/>
</mask>
<g mask="url(#mask1_1399_4462)">
<path d="M308.99 134.264L308.915 160.001C308.915 160.197 308.915 160.387 308.908 160.582L308.984 134.845C308.984 134.649 308.99 134.459 308.99 134.264Z" fill="#D38D8D"/>
<path d="M307.479 142.352C307.941 141.12 308.295 139.876 308.548 138.632C308.801 137.376 308.947 136.107 308.985 134.844L308.909 160.582C308.871 161.844 308.725 163.114 308.472 164.37C308.219 165.62 307.865 166.858 307.403 168.089C306.922 169.359 306.34 170.609 305.638 171.847L297.478 155.748C297.983 155.322 298.472 154.891 298.944 154.456C300.494 153.036 301.861 151.564 303.05 150.055C304.069 148.761 304.955 147.447 305.714 146.109C306.416 144.871 307.005 143.615 307.479 142.352Z" fill="#330D0D"/>
<path d="M254.302 171.772C251.872 172.011 249.424 172.176 246.963 172.258C244.704 172.334 242.445 172.346 240.186 172.289C238.01 172.233 235.834 172.119 233.67 171.942C231.512 171.765 229.361 171.525 227.235 171.222C225.021 170.906 222.832 170.528 220.674 170.086C218.334 169.599 216.031 169.037 213.772 168.4C211.013 167.617 208.324 166.714 205.737 165.691C202.377 164.365 199.176 162.843 196.19 161.125C183.15 153.605 176.633 143.742 176.665 133.885L176.589 159.623C176.564 169.473 183.074 179.343 196.12 186.857C199.106 188.581 202.301 190.102 205.667 191.422C208.255 192.445 210.944 193.342 213.702 194.131C215.955 194.775 218.264 195.337 220.605 195.817C222.762 196.265 224.951 196.644 227.166 196.954C229.292 197.257 231.436 197.497 233.6 197.673C235.764 197.85 237.94 197.97 240.117 198.021C242.376 198.078 244.641 198.065 246.893 197.989C249.348 197.907 251.803 197.743 254.232 197.503C257.079 197.219 259.901 196.827 262.672 196.328L262.748 170.591C259.977 171.09 257.155 171.481 254.308 171.765L254.302 171.772Z" fill="#D38D8D"/>
</g>
<path d="M188.275 134.077C188.23 126.007 193.507 117.931 204.123 111.774C225.363 99.4549 259.901 99.4612 281.273 111.774C291.959 117.931 297.331 126.007 297.381 134.077V145.55L240.702 156.406L188.275 149.442V134.077Z" fill="#2E1C1C"/>
<path d="M297.382 140.943C297.431 123.524 273.045 109.334 242.914 109.25C212.784 109.167 188.319 123.22 188.27 140.639C188.221 158.058 212.607 172.248 242.738 172.332C272.868 172.416 297.334 158.363 297.382 140.943Z" fill="#7F6EE6"/>
<mask id="mask2_1399_4462" style="mask-type:luminance" maskUnits="userSpaceOnUse" x="204" y="125" width="78" height="39">
<path d="M281.548 126.125L281.504 141.192C281.485 146.887 277.74 152.57 270.249 156.915C255.172 165.66 230.649 165.66 215.471 156.915C207.834 152.513 204.019 146.736 204.038 140.971L204.082 125.904C204.063 131.669 207.879 137.447 215.515 141.848C230.693 150.594 255.216 150.594 270.293 141.848C277.784 137.504 281.536 131.821 281.548 126.125Z" fill="white"/>
</mask>
<g mask="url(#mask2_1399_4462)">
<path d="M281.548 126.125L281.504 141.191C281.504 141.305 281.504 141.419 281.504 141.532L281.548 126.466C281.548 126.352 281.548 126.239 281.548 126.125Z" fill="#978AE4"/>
<path d="M281.288 128.681C281.143 129.414 280.934 130.14 280.662 130.86C280.384 131.599 280.042 132.331 279.631 133.057C279.188 133.84 278.669 134.611 278.074 135.368C277.379 136.252 276.575 137.111 275.67 137.945C274.278 139.226 272.646 140.439 270.767 141.569L270.723 156.635C272.602 155.505 274.24 154.293 275.626 153.011C276.531 152.177 277.334 151.312 278.03 150.435C278.625 149.677 279.144 148.906 279.587 148.123C279.998 147.397 280.339 146.665 280.618 145.926C280.89 145.206 281.099 144.48 281.244 143.748C281.39 143.009 281.478 142.27 281.497 141.531L281.542 126.465C281.523 127.204 281.434 127.949 281.288 128.681Z" fill="#978AE4"/>
<path d="M280.662 130.86C280.934 130.14 281.143 129.414 281.289 128.681C281.434 127.949 281.523 127.204 281.542 126.465L281.497 141.531C281.478 142.27 281.39 143.009 281.244 143.748C281.099 144.48 280.89 145.206 280.618 145.926C280.339 146.665 279.998 147.397 279.587 148.123C279.144 148.906 278.625 149.677 278.03 150.435C277.334 151.312 276.531 152.177 275.626 153.011L275.67 137.945C276.575 137.111 277.379 136.252 278.074 135.368C278.669 134.611 279.188 133.84 279.631 133.057C280.042 132.331 280.384 131.599 280.662 130.86Z" fill="#7769CA"/>
<path d="M270.293 141.848C267.711 143.345 264.851 144.589 261.802 145.574C259.455 146.331 256.994 146.944 254.469 147.399L254.425 162.465C256.949 162.01 259.41 161.404 261.758 160.64C264.801 159.655 267.661 158.411 270.248 156.914C270.406 156.82 270.565 156.731 270.723 156.637L270.767 141.57C270.609 141.665 270.451 141.76 270.293 141.848Z" fill="#978AE4"/>
<path d="M249.534 148.087C248.111 148.226 246.674 148.321 245.238 148.371C243.916 148.415 242.594 148.422 241.271 148.39C239.993 148.359 238.721 148.289 237.456 148.188C236.191 148.087 234.938 147.942 233.692 147.765C232.395 147.582 231.117 147.361 229.851 147.096C228.478 146.811 227.131 146.483 225.808 146.104C224.195 145.643 222.62 145.119 221.108 144.519C219.14 143.743 217.267 142.852 215.521 141.848C207.884 137.447 204.069 131.669 204.088 125.904L204.044 140.971C204.025 146.736 207.84 152.513 215.477 156.915C217.223 157.925 219.096 158.815 221.063 159.586C222.582 160.186 224.151 160.71 225.764 161.171C227.086 161.543 228.434 161.878 229.807 162.162C231.072 162.421 232.35 162.648 233.647 162.831C234.894 163.008 236.146 163.147 237.412 163.254C238.677 163.355 239.949 163.425 241.227 163.456C242.549 163.488 243.872 163.482 245.194 163.437C246.63 163.387 248.066 163.292 249.49 163.153C251.154 162.989 252.805 162.762 254.431 162.465L254.475 147.399C252.849 147.689 251.198 147.923 249.534 148.087Z" fill="#978AE4"/>
</g>
<path d="M297.382 140.942C297.431 123.522 273.045 109.333 242.914 109.249C228.949 109.21 216.201 112.208 206.537 117.171L257.99 141.226L270.33 146.996L290.366 156.363C294.819 151.811 297.367 146.551 297.382 140.942Z" fill="#6052B9" fill-opacity="0.67"/>
<path d="M242.904 113.225C242.627 113.225 242.403 113.448 242.402 113.724C242.401 114 242.625 114.225 242.901 114.225L242.904 113.225ZM274.855 161.159C275.099 161.029 275.191 160.726 275.061 160.482C274.931 160.239 274.629 160.146 274.385 160.276L274.855 161.159ZM199.548 130.371L199.141 130.08L199.141 130.08L199.548 130.371ZM288.72 144.471C288.656 144.74 288.822 145.009 289.091 145.073C289.36 145.136 289.629 144.97 289.693 144.702L288.72 144.471ZM201.806 128.391C201.993 128.188 201.98 127.872 201.776 127.685C201.573 127.498 201.257 127.512 201.07 127.715L201.806 128.391ZM242.901 114.225C255.757 114.261 267.363 117.307 275.733 122.177C284.115 127.055 289.163 133.7 289.143 140.92L290.143 140.923C290.164 133.195 284.769 126.278 276.235 121.313C267.688 116.34 255.903 113.262 242.904 113.225L242.901 114.225ZM242.752 167.357C229.896 167.321 218.29 164.275 209.92 159.405C201.538 154.528 196.49 147.882 196.51 140.662L195.51 140.659C195.489 148.387 200.883 155.304 209.417 160.27C217.964 165.243 229.75 168.321 242.749 168.357L242.752 167.357ZM274.385 160.276C266.101 164.694 254.984 167.391 242.752 167.357L242.749 168.357C255.12 168.392 266.404 165.666 274.855 161.159L274.385 160.276ZM196.51 140.662C196.52 137.135 197.735 133.76 199.954 130.662L199.141 130.08C196.82 133.319 195.521 136.893 195.51 140.659L196.51 140.662ZM289.143 140.92C289.139 142.124 288.995 143.309 288.72 144.471L289.693 144.702C289.986 143.467 290.139 142.206 290.143 140.923L289.143 140.92ZM199.954 130.662C200.51 129.887 201.128 129.13 201.806 128.391L201.07 127.715C200.366 128.481 199.722 129.27 199.141 130.08L199.954 130.662Z" fill="#6354BA"/>
<path d="M289.461 107.033C263.539 92.099 221.643 92.0927 195.886 107.033C170.136 121.966 170.269 146.189 196.19 161.129C222.118 176.069 264.008 176.062 289.764 161.129C315.521 146.189 315.382 121.973 289.461 107.033ZM281.527 156.38C260.294 168.693 225.749 168.7 204.377 156.38C183.005 144.067 182.891 124.094 204.124 111.781C225.363 99.4617 259.901 99.468 281.274 111.781C302.652 124.101 302.76 144.067 281.527 156.38Z" fill="#FFEBEB"/>
<path d="M289.462 107.033C312.46 120.288 315.163 140.846 297.49 155.748L289.237 150.758C302.307 138.588 299.638 122.364 281.275 111.781C264.779 102.278 240.44 100.105 220.427 105.273L217.244 98.745C241.208 92.9912 269.889 95.7565 289.462 107.033Z" fill="#E1BFBF"/>
<path d="M195.887 107.033C221.643 92.0927 263.54 92.099 289.461 107.033C309.392 118.52 314.08 135.491 303.474 149.513L294.096 144.977C301.137 133.799 296.854 120.759 281.274 111.781C259.902 99.468 225.364 99.4617 204.124 111.781L195.887 107.033Z" fill="#E1BFBF"/>
<mask id="mask3_1399_4462" style="mask-type:luminance" maskUnits="userSpaceOnUse" x="204" y="116" width="78" height="38">
<path d="M281.548 116.233L281.504 131.299C281.485 136.995 277.74 142.678 270.249 147.022C255.172 155.768 230.649 155.768 215.471 147.022C207.834 142.621 204.019 136.843 204.038 131.078L204.082 116.012C204.063 121.777 207.879 127.555 215.515 131.956C230.693 140.701 255.216 140.701 270.293 131.956C277.784 127.611 281.536 121.928 281.548 116.233Z" fill="white"/>
</mask>
<g mask="url(#mask3_1399_4462)">
<path d="M281.548 116.232L281.504 131.299C281.504 131.412 281.504 131.526 281.504 131.64L281.548 116.573C281.548 116.46 281.548 116.346 281.548 116.232Z" fill="#D38D8D"/>
<path d="M281.288 118.789C281.143 119.521 280.934 120.247 280.662 120.967C280.384 121.706 280.042 122.438 279.631 123.165C279.188 123.948 278.669 124.718 278.074 125.476C277.379 126.36 276.575 127.218 275.67 128.052C274.278 129.334 272.646 130.546 270.767 131.676L270.723 146.743C272.602 145.612 274.24 144.4 275.626 143.118C276.531 142.285 277.334 141.42 278.03 140.542C278.625 139.784 279.144 139.014 279.587 138.231C279.998 137.505 280.339 136.772 280.618 136.033C280.89 135.314 281.099 134.587 281.244 133.855C281.39 133.116 281.478 132.377 281.497 131.639L281.542 116.572C281.523 117.311 281.434 118.056 281.288 118.789Z" fill="#D38D8D"/>
<path d="M270.293 131.956C267.711 133.452 264.851 134.696 261.802 135.681C259.455 136.439 256.994 137.051 254.469 137.506L254.425 152.572C256.949 152.118 259.41 151.511 261.758 150.747C264.801 149.762 267.661 148.518 270.248 147.022C270.406 146.927 270.565 146.839 270.723 146.744L270.767 131.678C270.609 131.772 270.451 131.867 270.293 131.956Z" fill="#D38D8D"/>
<path d="M249.534 138.194C248.111 138.333 246.674 138.428 245.238 138.479C243.916 138.523 242.594 138.529 241.271 138.498C239.993 138.466 238.721 138.396 237.456 138.295C236.191 138.194 234.938 138.049 233.692 137.872C232.395 137.689 231.117 137.468 229.851 137.203C228.478 136.919 227.131 136.591 225.808 136.212C224.195 135.751 222.62 135.227 221.108 134.627C219.14 133.85 217.267 132.96 215.521 131.956C207.884 127.555 204.069 121.777 204.088 116.012L204.044 131.078C204.025 136.843 207.84 142.621 215.477 147.022C217.223 148.032 219.096 148.923 221.063 149.693C222.582 150.293 224.151 150.817 225.764 151.278C227.086 151.651 228.434 151.985 229.807 152.269C231.072 152.528 232.35 152.756 233.647 152.939C234.894 153.116 236.146 153.254 237.412 153.362C238.677 153.463 239.949 153.532 241.227 153.564C242.549 153.595 243.872 153.589 245.194 153.545C246.63 153.494 248.066 153.4 249.49 153.261C251.154 153.097 252.805 152.869 254.431 152.572L254.475 137.506C252.849 137.797 251.198 138.03 249.534 138.194Z" fill="#D38D8D"/>
</g>
<path d="M210.874 116.125C210.849 111.402 213.936 106.672 220.156 103.067C232.588 95.8554 252.809 95.8554 265.323 103.067C271.58 106.672 274.725 111.395 274.75 116.125H210.874Z" fill="#2E1C1C"/>
<path d="M274.747 120.142C274.775 109.945 260.499 101.639 242.86 101.59C225.222 101.541 210.9 109.767 210.871 119.964C210.842 130.161 225.118 138.468 242.757 138.517C260.396 138.566 274.718 130.339 274.747 120.142Z" fill="#7F6EE6"/>
<path d="M274.747 120.142C274.775 109.945 260.499 101.639 242.86 101.59C225.222 101.541 210.9 109.767 210.871 119.964C210.842 130.161 225.118 138.468 242.757 138.517C260.396 138.566 274.718 130.339 274.747 120.142Z" fill="url(#paint0_linear_1399_4462)"/>
<path d="M242.792 125.615C237.478 125.6 233.178 123.098 233.187 120.027M237.305 115.48C238.868 114.852 240.771 114.486 242.823 114.492C248.136 114.506 252.436 117.009 252.428 120.08C252.423 121.656 251.286 123.076 249.461 124.083" stroke="#6E5ED1" stroke-linecap="round"/>
<path d="M250.027 120.074C250.021 122.38 246.782 124.24 242.794 124.229C238.806 124.218 235.578 122.34 235.584 120.034C235.59 117.729 238.829 115.868 242.817 115.88C246.806 115.891 250.034 117.769 250.027 120.074Z" fill="#6A5BC7"/>
<path d="M270.112 100.292C254.94 91.546 230.411 91.546 215.334 100.292C200.257 109.037 200.339 123.213 215.511 131.959C230.689 140.704 255.212 140.704 270.289 131.959C285.366 123.213 285.29 109.037 270.112 100.292ZM265.468 129.18C253.036 136.391 232.815 136.391 220.301 129.18C207.786 121.969 207.723 110.281 220.155 103.07C232.587 95.8588 252.808 95.8588 265.322 103.07C277.837 110.281 277.9 121.969 265.468 129.18Z" fill="#FFEBEB"/>
<path d="M215.334 100.292C230.411 91.546 254.94 91.546 270.112 100.292C285.29 109.037 285.366 123.213 270.289 131.959L265.468 129.18C277.9 121.969 277.837 110.281 265.322 103.07C252.808 95.8588 232.587 95.8588 220.155 103.07L215.334 100.292Z" fill="#E1BFBF"/>
<path d="M242.562 117.35C242.853 112.671 244.84 87.0473 253.9 77.9102C256.045 75.7507 259.138 74.6646 262.137 75.1824C263.89 75.4792 265.326 76.2937 266.332 77.7524C267.11 78.8827 267.136 80.2908 267.053 81.0864C266.807 83.5175 265.782 84.5404 263.662 86.0496C260.113 88.569 248.781 94.3973 242.802 117.388C242.765 117.527 242.549 117.489 242.562 117.344V117.35Z" fill="#403487"/>
<path d="M242.562 117.35C242.853 112.671 244.84 87.0473 253.9 77.9102C256.045 75.7507 259.138 74.6646 262.137 75.1824C263.89 75.4792 265.326 76.2937 266.332 77.7524C267.11 78.8827 267.136 80.2908 267.053 81.0864C266.807 83.5175 265.782 84.5404 263.662 86.0496C260.113 88.569 248.781 94.3973 242.802 117.388C242.765 117.527 242.549 117.489 242.562 117.344V117.35Z" fill="url(#paint1_linear_1399_4462)"/>
<path d="M242.525 117.39C242.323 114.151 240.95 96.3884 234.667 90.055C233.18 88.5584 231.036 87.807 228.954 88.1606C227.739 88.369 226.746 88.931 226.05 89.9413C225.512 90.7243 225.493 91.703 225.55 92.2524C225.721 93.9384 226.43 94.6456 227.904 95.6875C230.365 97.4303 238.217 101.472 242.361 117.409C242.386 117.504 242.531 117.479 242.531 117.378L242.525 117.39Z" fill="#403487"/>
<path d="M242.525 117.39C242.323 114.151 240.95 96.3884 234.667 90.055C233.18 88.5584 231.036 87.807 228.954 88.1606C227.739 88.369 226.746 88.931 226.05 89.9413C225.512 90.7243 225.493 91.703 225.55 92.2524C225.721 93.9384 226.43 94.6456 227.904 95.6875C230.365 97.4303 238.217 101.472 242.361 117.409C242.386 117.504 242.531 117.479 242.531 117.378L242.525 117.39Z" fill="url(#paint2_linear_1399_4462)"/>
<defs>
<linearGradient id="paint0_linear_1399_4462" x1="256.703" y1="102.48" x2="249.329" y2="118.867" gradientUnits="userSpaceOnUse">
<stop stop-color="#5A49C5"/>
<stop offset="1" stop-color="#505CCE" stop-opacity="0"/>
</linearGradient>
<linearGradient id="paint1_linear_1399_4462" x1="254.823" y1="75.0547" x2="248.902" y2="117.1" gradientUnits="userSpaceOnUse">
<stop stop-color="#30218F"/>
<stop offset="1" stop-color="#6A5BC7"/>
</linearGradient>
<linearGradient id="paint2_linear_1399_4462" x1="234.03" y1="88.0742" x2="229.929" y2="117.209" gradientUnits="userSpaceOnUse">
<stop stop-color="#30218F"/>
<stop offset="1" stop-color="#6A5BC7"/>
</linearGradient>
</defs>
</svg>
