<svg width="351" height="264" viewBox="0 0 351 264" fill="none" xmlns="http://www.w3.org/2000/svg">
<rect x="0.998047" width="350" height="264" rx="8" fill="#A0B5FF"/>
<path d="M207.993 166.654H216.601V190.327C216.601 191.511 215.633 192.479 214.449 192.479H210.145C208.962 192.479 207.993 191.511 207.993 190.327V166.654Z" fill="#3C271B"/>
<path d="M216.601 166.654H207.993V172.192L216.601 177.535V166.654Z" fill="#160B05"/>
<path d="M238.014 132.349C238.079 131.595 238.122 130.842 238.122 130.067C238.122 116.983 227.534 106.395 214.449 106.395C213.717 106.395 213.007 106.438 212.297 106.502C224.37 107.6 233.818 117.714 233.818 130.067C233.818 130.842 233.775 131.595 233.71 132.349C242.254 133.36 248.882 140.634 248.882 149.436C248.882 158.948 241.178 166.653 231.666 166.653H235.97C245.482 166.653 253.186 158.948 253.186 149.436C253.186 140.613 246.558 133.36 238.014 132.349Z" fill="#291F1A"/>
<path d="M233.71 132.349C233.775 131.595 233.818 130.842 233.818 130.067C233.818 117.714 224.37 107.6 212.297 106.502C211.587 106.438 210.876 106.395 210.145 106.395C197.06 106.395 186.472 116.983 186.472 130.067C186.472 130.842 186.515 131.595 186.579 132.349C178.036 133.36 171.407 140.634 171.407 149.436C171.407 158.948 179.112 166.653 188.624 166.653H231.666C241.178 166.653 248.882 158.948 248.882 149.436C248.882 140.613 242.254 133.36 233.71 132.349Z" fill="#4E2F1D"/>
<path d="M233.011 132.349C224.69 132.349 217.944 139.095 217.944 147.416H215.792C215.792 137.906 223.501 130.197 233.011 130.197C233.302 130.197 233.591 130.204 233.879 130.219V132.374C233.592 132.358 233.302 132.349 233.011 132.349Z" fill="#291F1A"/>
<path d="M265.84 166.027H274.359V189.454C274.359 190.625 273.4 191.583 272.229 191.583H267.97C266.798 191.583 265.84 190.625 265.84 189.454V166.027Z" fill="#3C271B"/>
<path d="M274.359 166.027H265.84V172.1L274.359 177.489V166.027Z" fill="#160B05"/>
<path d="M295.548 132.078C295.612 131.333 295.655 130.588 295.655 129.821C295.655 116.872 285.177 106.395 272.228 106.395C271.504 106.395 270.801 106.437 270.099 106.501C282.046 107.587 291.395 117.597 291.395 129.821C291.395 130.588 291.353 131.333 291.289 132.078C299.744 133.079 306.303 140.278 306.303 148.988C306.303 158.401 298.679 166.025 289.266 166.025H293.525C302.938 166.025 310.562 158.401 310.562 148.988C310.562 140.256 304.003 133.079 295.548 132.078Z" fill="#3E2415"/>
<path d="M291.289 132.078C291.352 131.333 291.395 130.588 291.395 129.821C291.395 117.597 282.046 107.587 270.098 106.501C269.396 106.437 268.693 106.395 267.969 106.395C255.02 106.395 244.542 116.872 244.542 129.821C244.542 130.588 244.585 131.333 244.649 132.078C236.194 133.079 229.635 140.278 229.635 148.988C229.635 158.401 237.259 166.025 246.672 166.025H289.265C298.679 166.025 306.303 158.401 306.303 148.988C306.303 140.256 299.743 133.079 291.289 132.078Z" fill="#A34D1C"/>
<path d="M290.597 132.079C282.363 132.079 275.687 138.754 275.687 146.989H273.558C273.558 137.578 281.186 129.949 290.597 129.949C290.885 129.949 291.171 129.956 291.456 129.97V132.103C291.172 132.087 290.885 132.079 290.597 132.079Z" fill="#F1884C"/>
<path d="M247.867 160.562H258.505V189.818C258.505 191.28 257.309 192.477 255.846 192.477H250.527C249.064 192.477 247.867 191.28 247.867 189.818V160.562Z" fill="#3C271B"/>
<path d="M258.505 160.562H247.867V167.769L258.505 175.461V160.562Z" fill="#160B05"/>
<path d="M284.967 118.168C285.047 117.237 285.1 116.306 285.1 115.349C285.1 99.1788 272.015 86.0938 255.845 86.0938C254.941 86.0938 254.063 86.1469 253.186 86.2267C268.106 87.5831 279.781 100.083 279.781 115.349C279.781 116.306 279.728 117.237 279.648 118.168C290.207 119.418 298.398 128.407 298.398 139.285C298.398 151.04 288.877 160.561 277.122 160.561H282.441C294.196 160.561 303.717 151.04 303.717 139.285C303.717 128.381 295.526 119.418 284.967 118.168Z" fill="#F1884C"/>
<path d="M279.649 118.168C279.728 117.237 279.782 116.306 279.782 115.349C279.782 100.083 268.106 87.5831 253.186 86.2267C252.308 86.1469 251.431 86.0938 250.526 86.0938C234.356 86.0938 221.271 99.1788 221.271 115.349C221.271 116.306 221.324 117.237 221.404 118.168C210.846 119.418 202.654 128.407 202.654 139.285C202.654 151.04 212.176 160.561 223.931 160.561H277.122C288.877 160.561 298.398 151.04 298.398 139.285C298.398 128.381 290.207 119.418 279.649 118.168Z" fill="#F3AE87"/>
<path d="M278.784 118.169C268.501 118.169 260.164 126.506 260.164 136.789H257.505C257.505 125.037 267.032 115.51 278.784 115.51C279.144 115.51 279.501 115.519 279.857 115.536V118.2C279.502 118.18 279.144 118.169 278.784 118.169Z" fill="#F1884C"/>
</svg>
