<svg width="351" height="264" viewBox="0 0 351 264" fill="none" xmlns="http://www.w3.org/2000/svg">
<rect x="0.998047" width="350" height="264" rx="8" fill="#F5BDB3"/>
<path d="M269.577 148.473V193.174C269.577 194.749 272.336 196.026 275.734 196.026C279.132 196.026 281.891 194.749 281.891 193.174V148.473H269.577Z" fill="#6F7976"/>
<path d="M269.577 148.473H281.891V181.431L269.577 174.259V148.473Z" fill="#0B231C"/>
<path d="M306.54 161.247L289.865 89.2027C288.483 82.5371 282.575 77.7559 275.728 77.7559C268.874 77.7559 262.972 82.5371 261.59 89.2027L244.915 161.247C244.779 161.585 244.7 161.934 244.7 162.282C244.7 167.215 258.588 171.215 275.728 171.215C292.867 171.215 306.755 167.215 306.755 162.282C306.755 161.934 306.676 161.585 306.54 161.247Z" fill="#448974"/>
<path d="M261.59 89.2027C262.413 85.2359 264.836 81.9365 268.108 79.915C272.095 77.4515 276.451 81.011 277.468 85.5862L295.208 165.403C294.219 166.803 288.939 169.926 275.728 171.215C258.588 171.215 244.7 167.215 244.7 162.282C244.7 161.934 244.779 161.585 244.915 161.247L261.59 89.2027Z" fill="#112922"/>
<path d="M200.808 148.473V193.174C200.808 194.749 203.566 196.026 206.964 196.026C210.363 196.026 213.121 194.749 213.121 193.174V148.473H200.808Z" fill="#6F7976"/>
<path d="M200.808 148.473H213.121V183.687L200.808 177.111V148.473Z" fill="#0B231C"/>
<path d="M237.771 161.247L221.097 89.2027C219.714 82.5371 213.807 77.7559 206.959 77.7559C200.106 77.7559 194.204 82.5371 192.822 89.2027L176.153 161.247C176.017 161.585 175.938 161.934 175.938 162.282C175.938 167.215 189.826 171.215 206.965 171.215C224.104 171.215 237.992 167.215 237.992 162.282C237.992 161.934 237.913 161.585 237.777 161.247H237.771Z" fill="#112922"/>
<path d="M250.424 158.447V203.149C250.424 204.724 253.182 206.001 256.581 206.001C259.979 206.001 262.737 204.724 262.737 203.149V158.447H250.424Z" fill="#6F7976"/>
<path d="M250.424 158.447H262.737V180.798L250.424 172.382V158.447Z" fill="#0B231C"/>
<path d="M287.392 157.963L270.717 77.4468C269.335 70.7812 263.428 66 256.58 66C249.727 66 243.825 70.7812 242.443 77.4468L225.768 157.963C225.632 158.3 225.553 158.649 225.553 158.998C225.553 163.931 239.441 167.93 256.58 167.93C273.719 167.93 287.607 163.931 287.607 158.998C287.607 158.649 287.528 158.3 287.392 157.963Z" fill="#83CCB6"/>
</svg>
