<svg width="351" height="265" viewBox="0 0 351 265" fill="none" xmlns="http://www.w3.org/2000/svg">
<rect x="0.990234" y="0.363281" width="350" height="264" rx="8" fill="#87B499"/>
<circle cx="239.605" cy="134.736" r="68.6148" fill="#522D12"/>
<circle cx="245.493" cy="133.072" r="65.4985" fill="#FFFBF8"/>
<circle cx="245.548" cy="133.073" r="43.1793" fill="#FFFBF8"/>
<path d="M245.548 89.894C221.701 89.894 202.369 109.226 202.369 133.073C202.369 139.775 203.896 146.12 206.62 151.779C198.149 113.767 238.706 80.2027 276.839 103.319C268.973 95.0489 257.863 89.894 245.548 89.894Z" fill="#EBE3DE"/>
<path fill-rule="evenodd" clip-rule="evenodd" d="M280.44 153.253C280.235 148.459 280.955 143.207 283.698 139.27C287.455 133.879 289.67 127.252 289.67 120.088C289.67 102.001 275.556 87.3398 258.145 87.3398C240.734 87.3398 226.62 102.001 226.62 120.088C226.62 130.796 231.568 140.305 239.22 146.28C241.532 148.086 242.69 151.071 242.69 154.005C242.69 163.969 251.144 172.046 261.573 172.046C272.002 172.046 280.456 163.969 280.456 154.005C280.456 153.753 280.451 153.502 280.44 153.253Z" fill="#ECDACD"/>
<path fill-rule="evenodd" clip-rule="evenodd" d="M278.742 152.197C278.536 147.403 279.256 142.151 282 138.215C285.757 132.824 287.972 126.196 287.972 119.032C287.972 100.946 273.858 86.2842 256.447 86.2842C239.036 86.2842 224.922 100.946 224.922 119.032C224.922 129.741 229.87 139.249 237.521 145.224C239.834 147.03 240.992 150.015 240.992 152.949C240.992 162.913 249.446 170.99 259.875 170.99C270.304 170.99 278.758 162.913 278.758 152.949C278.758 152.697 278.753 152.446 278.742 152.197Z" fill="#FFF2E9"/>
<circle cx="256.446" cy="112.83" r="14.3342" fill="#FFA462"/>
<path d="M256.446 127.164C264.363 127.164 270.781 120.746 270.781 112.83C270.781 110.397 270.175 108.106 269.105 106.099C270.758 112.816 269.719 126.314 252.341 126.567C253.641 126.955 255.02 127.164 256.446 127.164Z" fill="#C47740"/>
<path d="M256.596 102.648C250.882 103.327 246.957 107.197 246.161 113.218C246.087 113.778 245.561 114.18 245.007 114.064C244.576 113.973 244.264 113.592 244.289 113.152C244.662 106.509 249.927 101.173 256.539 100.688C257.081 100.648 257.524 101.093 257.524 101.637C257.524 102.159 257.114 102.586 256.596 102.648Z" fill="#FFD0AE" fill-opacity="0.94"/>
<path d="M246.667 92.6832C240.903 94.6615 234.682 101.11 232.808 107.039C232.61 107.663 231.935 108.029 231.325 107.795C230.821 107.602 230.537 107.062 230.695 106.546C232.89 99.3321 239.418 93.25 246.185 90.8705C246.535 90.7473 246.922 90.8654 247.155 91.1546C247.574 91.6757 247.3 92.4661 246.667 92.6832Z" fill="#FFFBF9"/>
</svg>
