<svg width="351" height="265" viewBox="0 0 351 265" fill="none" xmlns="http://www.w3.org/2000/svg">
<rect x="0.277344" y="0.34375" width="350" height="264" rx="8" fill="#ECB393"/>
<circle cx="248.321" cy="138.28" r="59.5367" fill="#353071"/>
<circle cx="253.428" cy="136.838" r="56.8326" fill="#E7E6F0"/>
<circle cx="253.478" cy="136.837" r="37.4664" fill="#E7E6F0"/>
<path d="M253.478 99.3706C232.786 99.3706 216.012 116.145 216.012 136.837C216.012 142.652 217.336 148.157 219.7 153.068C212.35 120.085 247.541 90.9615 280.629 111.019C273.804 103.843 264.163 99.3706 253.478 99.3706Z" fill="#D5D3E1"/>
<path fill-rule="evenodd" clip-rule="evenodd" d="M220.229 83.1059C220.672 82.0941 221.851 81.6332 222.863 82.0763L224.04 82.5917C225.052 83.0348 225.513 84.2143 225.069 85.226L222.032 92.16C221.811 92.6659 222.041 93.2556 222.547 93.4772L223.136 93.735C223.642 93.9566 224.232 93.7261 224.453 93.2202L227.49 86.2874C227.933 85.2756 229.112 84.8146 230.124 85.2578L231.301 85.7731C232.313 86.2163 232.774 87.3957 232.33 88.4075L229.294 95.3404C229.072 95.8463 229.303 96.436 229.809 96.6576L235.237 99.0352C235.743 99.2568 235.973 99.8465 235.752 100.352L232.2 108.462C230.87 111.498 227.332 112.88 224.297 111.551L222.527 110.776L211.874 135.099L207.043 132.983L217.696 108.66L215.926 107.885C212.891 106.555 211.508 103.017 212.837 99.9817L216.497 91.6273L216.497 91.6273L216.497 91.6272L220.229 83.1059ZM234.751 89.4667C235.194 88.4549 236.373 87.994 237.385 88.4371L238.562 88.9525C239.573 89.3956 240.034 90.5751 239.591 91.5869L236.555 98.5201C236.333 99.026 235.743 99.2564 235.237 99.0349L232.229 97.7171C231.723 97.4956 231.492 96.9058 231.714 96.3999L234.751 89.4667Z" fill="#353071"/>
<path fill-rule="evenodd" clip-rule="evenodd" d="M222.194 83.9703C222.636 82.9574 223.816 82.4955 224.829 82.9389L226.006 83.4543C227.017 83.8971 227.478 85.0753 227.036 86.0868L224.005 93.0265C223.784 93.5323 224.014 94.1214 224.52 94.3428L225.1 94.5968C225.606 94.8184 226.195 94.5879 226.417 94.082L229.454 87.1492C229.897 86.1374 231.076 85.6764 232.088 86.1196L233.265 86.6349C234.276 87.0781 234.737 88.2575 234.294 89.2693L231.258 96.2022C231.036 96.7081 231.267 97.2978 231.772 97.5194L232.225 97.7178C232.726 97.937 233.31 97.714 233.536 97.217L236.699 90.2882C237.153 89.2942 238.32 88.8483 239.321 89.2867L240.497 89.8018C241.52 90.2498 241.978 91.4485 241.514 92.4643L238.002 100.159C237.983 100.199 238.002 100.248 238.043 100.266C238.084 100.284 238.102 100.331 238.085 100.372L234.164 109.324C232.834 112.359 229.296 113.742 226.261 112.413L224.491 111.638L213.37 137.029L208.539 134.913L219.66 109.522L217.89 108.747C214.855 107.417 213.472 103.879 214.801 100.843L218.752 91.8224C218.754 91.8198 218.757 91.8186 218.759 91.8197C218.762 91.8209 218.765 91.8197 218.766 91.817L222.194 83.9703Z" fill="#E7E6F0"/>
<path d="M231.156 103.013L232.233 100.554C232.455 100.048 233.045 99.8178 233.551 100.039L234.139 100.297C234.645 100.519 234.875 101.108 234.654 101.614L233.577 104.073C231.956 107.774 227.85 109.615 224.075 108.497C223.545 108.341 223.315 107.744 223.537 107.238L223.794 106.65C224.016 106.144 224.606 105.924 225.144 106.047C227.569 106.601 230.122 105.375 231.156 103.013Z" fill="#ABA9C8"/>
<rect x="204.877" y="131.327" width="10.5691" height="15.8536" rx="1" transform="rotate(23.653 204.877 131.327)" fill="#353071"/>
<rect x="206.842" y="132.186" width="10.5691" height="15.8536" rx="1" transform="rotate(23.653 206.842 132.186)" fill="#8F87F3"/>
<path fill-rule="evenodd" clip-rule="evenodd" d="M200.751 72.2664C197.427 74.397 194.807 77.464 193.223 81.0808L192.234 83.3394C190.301 87.7524 191.808 92.8033 195.583 95.4919L183.624 122.795L188.462 124.914L200.42 97.6108C204.956 98.5618 209.69 96.2445 211.623 91.8315L213.827 86.7996C214.619 84.9912 214.858 82.9888 214.514 81.0447L213.808 77.0547C212.813 71.4335 206.42 68.6333 201.613 71.7137L200.751 72.2664Z" fill="#353071"/>
<path fill-rule="evenodd" clip-rule="evenodd" d="M203.174 73.3284C199.85 75.459 197.23 78.526 195.646 82.1428L194.657 84.4014C192.724 88.8144 194.231 93.8653 198.006 96.5539L186.047 123.857L190.885 125.976L202.843 98.6728C207.379 99.6238 212.113 97.3065 214.046 92.8935L215.035 90.635C216.619 87.0182 217.097 83.0134 216.409 79.1253L216.231 78.1168C215.236 72.4955 208.842 69.6953 204.036 72.7757L203.174 73.3284Z" fill="#E7E6F0"/>
<path d="M209.432 90.237L210.511 87.7734C210.733 87.2675 211.323 87.037 211.829 87.2586L212.42 87.5177C212.926 87.7393 213.157 88.329 212.935 88.8349L211.856 91.2985C210.233 95.0045 206.121 96.8485 202.34 95.7283C201.81 95.5714 201.58 94.9747 201.802 94.4688L202.061 93.8772C202.283 93.3713 202.872 93.1516 203.411 93.2747C205.839 93.8303 208.396 92.6027 209.432 90.237Z" fill="#ABA9C8"/>
<rect x="181.494" y="121.049" width="10.5836" height="15.8753" rx="1" transform="rotate(23.653 181.494 121.049)" fill="#353071"/>
<rect x="183.919" y="122.113" width="10.5836" height="15.8753" rx="1" transform="rotate(23.653 183.919 122.113)" fill="#8F87F3"/>
<path d="M288.726 174.348L281.848 170.061L283.458 167.476C284.442 165.899 285.925 165.657 287.249 166.475C288.562 167.3 288.986 168.746 287.997 170.332L287.168 171.662L289.496 173.113L288.726 174.348ZM286.152 171.028L286.874 169.869C287.45 168.935 287.188 168.192 286.461 167.739C285.725 167.28 284.956 167.381 284.376 168.312L283.653 169.471L286.152 171.028Z" fill="#D5D3E1"/>
<path d="M292.776 168.021C292.521 168.429 291.978 168.559 291.573 168.3C291.171 168.056 291.053 167.514 291.303 167.103C291.554 166.711 292.092 166.579 292.491 166.827C292.899 167.082 293.021 167.626 292.776 168.021Z" fill="#D5D3E1"/>
<path d="M293.92 166.016L287.041 161.729L288.652 159.145C289.635 157.568 291.119 157.325 292.442 158.143C293.755 158.968 294.18 160.414 293.191 162L292.362 163.33L294.689 164.781L293.92 166.016ZM291.345 162.697L292.068 161.538C292.643 160.604 292.381 159.86 291.655 159.407C290.918 158.948 290.15 159.049 289.569 159.98L288.847 161.139L291.345 162.697Z" fill="#D5D3E1"/>
<path d="M291.507 154.565L298.385 158.853L297.627 160.069L290.748 155.781L291.507 154.565Z" fill="#D5D3E1"/>
<path d="M300.639 155.469C299.671 157.023 298.04 157.332 296.425 156.325C294.829 155.33 294.35 153.686 295.268 152.214C296.055 150.95 297.53 150.352 299.34 151.48L299.72 151.717L297.475 155.318C298.366 155.847 299.211 155.654 299.695 154.868C300.031 154.339 300.025 153.84 299.814 153.491L300.555 152.303C301.311 153.079 301.385 154.272 300.639 155.469ZM296.652 154.798L298.171 152.361C297.465 151.927 296.655 152.083 296.22 152.781C295.767 153.508 296.023 154.346 296.652 154.798Z" fill="#D5D3E1"/>
</svg>
