<svg width="351" height="265" viewBox="0 0 351 265" fill="none" xmlns="http://www.w3.org/2000/svg">
<rect x="0.125" y="0.455078" width="350" height="264" rx="8" fill="#7C82BC"/>
<circle cx="248.185" cy="138.39" r="59.5367" fill="#523030"/>
<circle cx="253.293" cy="136.947" r="56.8326" fill="#FFFAFA"/>
<circle cx="253.342" cy="136.946" r="37.4664" fill="#FFFAFA"/>
<path d="M253.342 99.48C232.65 99.48 215.876 116.254 215.876 136.946C215.876 142.761 217.201 148.267 219.565 153.177C212.214 120.195 247.406 91.0708 280.493 111.128C273.668 103.953 264.027 99.48 253.342 99.48Z" fill="#E9D3D3"/>
<path fill-rule="evenodd" clip-rule="evenodd" d="M220.093 83.2153C220.536 82.2035 221.716 81.7425 222.727 82.1857L223.904 82.701C224.916 83.1442 225.377 84.3236 224.934 85.3354L221.897 92.2693C221.675 92.7752 221.906 93.365 222.412 93.5865L223 93.8444C223.506 94.066 224.096 93.8355 224.317 93.3296L227.354 86.3968C227.797 85.385 228.977 84.924 229.988 85.3672L231.165 85.8825C232.177 86.3257 232.638 87.5051 232.195 88.5169L229.158 95.4498C228.937 95.9556 229.167 96.5454 229.673 96.7669L235.101 99.1446C235.607 99.3662 235.838 99.9559 235.616 100.462L232.064 108.572C230.735 111.607 227.196 112.99 224.161 111.66L222.391 110.885L211.738 135.208L206.907 133.092L217.56 108.769L215.791 107.994C212.755 106.665 211.372 103.126 212.702 100.091L216.361 91.7367L216.361 91.7366L216.361 91.7366L220.093 83.2153ZM234.615 89.5761C235.058 88.5643 236.238 88.1033 237.249 88.5465L238.426 89.0619C239.438 89.505 239.899 90.6845 239.456 91.6962L236.419 98.6295C236.197 99.1353 235.608 99.3658 235.102 99.1442L232.093 97.8265C231.587 97.6049 231.357 97.0152 231.578 96.5093L234.615 89.5761Z" fill="#523030"/>
<path fill-rule="evenodd" clip-rule="evenodd" d="M222.058 84.0797C222.5 83.0668 223.681 82.6048 224.693 83.0483L225.87 83.5636C226.881 84.0065 227.342 85.1847 226.9 86.1962L223.869 93.1359C223.648 93.6416 223.879 94.2307 224.384 94.4522L224.964 94.7062C225.47 94.9278 226.06 94.6973 226.281 94.1914L229.318 87.2586C229.761 86.2468 230.94 85.7858 231.952 86.229L233.129 86.7443C234.141 87.1875 234.602 88.3669 234.158 89.3787L231.122 96.3116C230.9 96.8174 231.131 97.4072 231.637 97.6287L232.09 97.8272C232.59 98.0463 233.174 97.8234 233.401 97.3264L236.563 90.3976C237.017 89.4036 238.184 88.9577 239.185 89.396L240.361 89.9112C241.384 90.3592 241.842 91.5579 241.378 92.5737L237.866 100.268C237.848 100.309 237.866 100.357 237.907 100.375C237.948 100.393 237.967 100.441 237.949 100.481L234.028 109.433C232.698 112.469 229.16 113.852 226.125 112.522L224.356 111.747L213.235 137.138L208.404 135.022L219.524 109.631L217.754 108.856C214.719 107.527 213.336 103.988 214.666 100.953L218.617 91.9318C218.618 91.9292 218.621 91.928 218.624 91.9291C218.626 91.9303 218.629 91.9291 218.631 91.9264L222.058 84.0797Z" fill="#FFFAFA"/>
<path d="M231.021 103.123L232.098 100.664C232.319 100.158 232.909 99.9272 233.415 100.149L234.003 100.406C234.509 100.628 234.739 101.218 234.518 101.724L233.441 104.183C231.82 107.883 227.714 109.725 223.939 108.607C223.409 108.45 223.179 107.853 223.401 107.347L223.659 106.759C223.88 106.253 224.47 106.033 225.008 106.156C227.433 106.71 229.986 105.485 231.021 103.123Z" fill="#E7BDBD"/>
<rect x="204.741" y="131.436" width="10.5691" height="15.8536" rx="1" transform="rotate(23.653 204.741 131.436)" fill="#523030"/>
<rect x="206.706" y="132.295" width="10.5691" height="15.8536" rx="1" transform="rotate(23.653 206.706 132.295)" fill="#DE8A8A"/>
<path fill-rule="evenodd" clip-rule="evenodd" d="M200.615 72.3758C197.291 74.5064 194.672 77.5734 193.088 81.1902L192.098 83.4487C190.165 87.8617 191.673 92.9127 195.447 95.6013L183.488 122.904L188.326 125.023L200.285 97.7202C204.82 98.6711 209.554 96.3539 211.487 91.9409L213.691 86.9089C214.483 85.1005 214.722 83.0982 214.378 81.1541L213.672 77.1641C212.677 71.5429 206.284 68.7426 201.478 71.8231L200.615 72.3758Z" fill="#523030"/>
<path fill-rule="evenodd" clip-rule="evenodd" d="M203.038 73.4378C199.714 75.5684 197.095 78.6354 195.51 82.2522L194.521 84.5107C192.588 88.9237 194.095 93.9747 197.87 96.6633L185.911 123.966L190.749 126.085L202.708 98.7822C207.243 99.7332 211.977 97.4159 213.91 93.0029L214.899 90.7443C216.483 87.1276 216.962 83.1228 216.273 79.2347L216.095 78.2261C215.1 72.6049 208.707 69.8047 203.9 72.8851L203.038 73.4378Z" fill="#FFFAFA"/>
<path d="M209.297 90.3464L210.376 87.8828C210.597 87.3769 211.187 87.1464 211.693 87.368L212.285 87.6271C212.79 87.8487 213.021 88.4384 212.799 88.9443L211.72 91.4079C210.097 95.1139 205.985 96.9579 202.204 95.8377C201.674 95.6808 201.445 95.0841 201.666 94.5782L201.925 93.9866C202.147 93.4807 202.736 93.2609 203.275 93.3841C205.703 93.9397 208.261 92.7121 209.297 90.3464Z" fill="#E7BDBD"/>
<rect x="181.358" y="121.159" width="10.5836" height="15.8753" rx="1" transform="rotate(23.653 181.358 121.159)" fill="#523030"/>
<rect x="183.783" y="122.222" width="10.5836" height="15.8753" rx="1" transform="rotate(23.653 183.783 122.222)" fill="#DE8A8A"/>
<path d="M288.59 174.457L281.712 170.17L283.323 167.586C284.306 166.009 285.789 165.766 287.113 166.584C288.426 167.409 288.851 168.855 287.862 170.441L287.032 171.772L289.36 173.222L288.59 174.457ZM286.016 171.138L286.738 169.979C287.314 169.045 287.052 168.301 286.325 167.848C285.589 167.389 284.82 167.49 284.24 168.421L283.517 169.58L286.016 171.138Z" fill="#E9D3D3"/>
<path d="M292.64 168.13C292.385 168.539 291.843 168.669 291.437 168.409C291.035 168.165 290.917 167.624 291.167 167.212C291.418 166.821 291.956 166.688 292.355 166.937C292.763 167.191 292.886 167.736 292.64 168.13Z" fill="#E9D3D3"/>
<path d="M293.784 166.126L286.906 161.838L288.516 159.254C289.499 157.677 290.983 157.434 292.307 158.253C293.619 159.078 294.044 160.523 293.055 162.11L292.226 163.44L294.554 164.891L293.784 166.126ZM291.21 162.806L291.932 161.647C292.508 160.713 292.246 159.969 291.519 159.516C290.783 159.057 290.014 159.158 289.433 160.089L288.711 161.249L291.21 162.806Z" fill="#E9D3D3"/>
<path d="M291.371 154.675L298.249 158.962L297.491 160.178L290.613 155.891L291.371 154.675Z" fill="#E9D3D3"/>
<path d="M300.503 155.579C299.535 157.132 297.904 157.441 296.289 156.435C294.693 155.44 294.214 153.796 295.132 152.323C295.92 151.059 297.394 150.461 299.204 151.59L299.584 151.826L297.339 155.427C298.23 155.956 299.075 155.764 299.559 154.977C299.896 154.448 299.89 153.95 299.679 153.6L300.419 152.413C301.176 153.188 301.249 154.382 300.503 155.579ZM296.516 154.907L298.035 152.47C297.329 152.037 296.52 152.192 296.084 152.89C295.631 153.617 295.887 154.456 296.516 154.907Z" fill="#E9D3D3"/>
</svg>
