<svg width="351" height="264" viewBox="0 0 351 264" fill="none" xmlns="http://www.w3.org/2000/svg">
<rect x="0.259766" width="350" height="264" rx="8" fill="#D38D8D"/>
<path fill-rule="evenodd" clip-rule="evenodd" d="M197.512 80.883L210.548 84.6399L210.549 84.6389L223.585 88.3958L195.245 186.733L182.209 182.976L182.208 182.977L169.172 179.22L197.512 80.883ZM236.621 92.1537L223.585 88.3967L195.245 186.734L208.281 190.491L236.621 92.1537ZM236.622 92.1525L249.656 95.9089L249.656 95.9084L262.692 99.6654L234.352 198.002L221.318 194.246L221.318 194.246L208.282 190.489L236.622 92.1525ZM275.729 103.423L262.693 99.6662L234.353 198.003L247.389 201.76L275.729 103.423ZM288.765 107.181L275.729 103.424L247.389 201.761L260.425 205.518L288.765 107.181Z" fill="#442B26"/>
<rect x="201.685" y="81.8945" width="13.5668" height="102.339" transform="rotate(16.0767 201.685 81.8945)" fill="#E7F1F3"/>
<rect x="214.721" y="85.6543" width="13.5668" height="102.339" transform="rotate(16.0767 214.721 85.6543)" fill="#357280"/>
<rect x="227.756" y="89.4102" width="13.5668" height="102.339" transform="rotate(16.0767 227.756 89.4102)" fill="#E7F1F3"/>
<rect x="240.793" y="93.166" width="13.5668" height="102.339" transform="rotate(16.0767 240.793 93.166)" fill="#357280"/>
<rect x="266.865" y="100.68" width="13.5668" height="102.339" transform="rotate(16.0767 266.865 100.68)" fill="#357280"/>
<rect x="253.829" y="96.9238" width="13.5668" height="102.339" transform="rotate(16.0767 253.829 96.9238)" fill="#E7F1F3"/>
<rect x="279.901" y="104.436" width="13.5668" height="102.339" transform="rotate(16.0767 279.901 104.436)" fill="#E7F1F3"/>
<path fill-rule="evenodd" clip-rule="evenodd" d="M258.326 129.057C254.344 132.341 253.516 138.117 256.415 142.388L271.225 164.21L271.226 164.209C273.39 167.906 278.43 168.979 282.541 166.572C286.653 164.165 288.239 159.212 286.075 155.516L286.077 155.515L273.463 130.624C270.888 125.543 264.266 124.159 259.871 127.783L258.326 129.057Z" fill="#0D1F23"/>
<path fill-rule="evenodd" clip-rule="evenodd" d="M259.653 128.168C255.777 131.459 254.989 137.136 257.821 141.359L272.603 163.404L272.604 163.403C274.769 167.099 279.532 168.334 283.298 166.129C287.065 163.924 288.371 159.136 286.207 155.439L286.208 155.439L273.059 129.815C270.679 125.177 264.598 123.968 260.625 127.342L259.653 128.168Z" fill="#DFE9EB"/>
<mask id="path-12-inside-1_1399_4673" fill="white">
<path fill-rule="evenodd" clip-rule="evenodd" d="M259.653 128.168C255.777 131.459 254.989 137.136 257.821 141.359L272.603 163.404L272.604 163.403C274.769 167.099 279.532 168.334 283.298 166.129C287.065 163.924 288.371 159.136 286.207 155.439L286.208 155.439L273.059 129.815C270.679 125.177 264.598 123.968 260.625 127.342L259.653 128.168Z"/>
</mask>
<path d="M257.821 141.359L258.652 140.803L257.821 141.359ZM259.653 128.168L260.301 128.93L259.653 128.168ZM272.603 163.404L271.772 163.96L272.296 164.742L273.108 164.266L272.603 163.404ZM272.604 163.403L273.467 162.898L272.962 162.035L272.099 162.54L272.604 163.403ZM286.207 155.439L285.702 154.576L284.839 155.081L285.344 155.944L286.207 155.439ZM286.208 155.439L286.713 156.302L287.529 155.824L287.098 154.982L286.208 155.439ZM273.059 129.815L272.169 130.272L273.059 129.815ZM260.625 127.342L259.978 126.58L260.625 127.342ZM258.652 140.803C256.103 137.001 256.812 131.893 260.301 128.93L259.006 127.406C254.742 131.026 253.875 137.271 256.99 141.916L258.652 140.803ZM273.434 162.847L258.652 140.803L256.99 141.916L271.772 163.96L273.434 162.847ZM272.099 162.54L272.098 162.541L273.108 164.266L273.109 164.266L272.099 162.54ZM271.741 163.908C274.189 168.089 279.569 169.471 283.804 166.992L282.793 165.266C279.496 167.196 275.348 166.109 273.467 162.898L271.741 163.908ZM283.804 166.992C288.03 164.518 289.523 159.123 287.07 154.934L285.344 155.944C287.219 159.148 286.099 163.33 282.793 165.266L283.804 166.992ZM285.703 154.576L285.702 154.576L286.713 156.302L286.713 156.302L285.703 154.576ZM272.169 130.272L285.318 155.895L287.098 154.982L273.948 129.358L272.169 130.272ZM261.273 128.105C264.755 125.148 270.083 126.207 272.169 130.272L273.948 129.358C271.274 124.148 264.442 122.789 259.978 126.58L261.273 128.105ZM260.301 128.93L261.273 128.105L259.978 126.58L259.006 127.406L260.301 128.93Z" fill="#228093" mask="url(#path-12-inside-1_1399_4673)"/>
<path d="M263.073 133.395L264.391 134.599L262.323 149.826C261.306 148.088 260.933 146.047 261.269 144.061L263.073 133.395Z" fill="#6A7173"/>
<path d="M264.296 132.677L264.701 134.416L278.991 140.066C277.973 138.328 276.376 137.004 274.48 136.325L264.296 132.677Z" fill="#6A7173"/>
<path d="M262.333 132.127L263.437 134.011L262.293 150.687L261.918 150.047C260.767 148.083 260.321 145.786 260.653 143.534L262.333 132.127Z" fill="#40C0DA"/>
<path d="M262.333 132.127L263.437 134.011L262.293 150.687L261.918 150.047C260.767 148.083 260.321 145.786 260.653 143.534L262.333 132.127Z" fill="url(#paint0_linear_1399_4673)"/>
<path d="M263.437 134.014L262.334 132.129L262.263 132.617C262.295 132.658 263.034 133.929 263.4 134.56L263.437 134.014Z" fill="#0D1F23"/>
<path d="M270.827 159.493C271.025 159.698 271.372 159.56 271.376 159.274C271.376 159.201 271.352 159.131 271.307 159.073L262.485 147.862L262.287 150.676L270.827 159.493Z" fill="#20606D"/>
<path d="M262.288 150.678L262.486 147.863L263.1 148.643L263.112 151.528L262.288 150.678Z" fill="#0D1F23"/>
<path d="M283.31 152.187C283.392 152.46 283.101 152.695 282.851 152.558C282.787 152.523 282.737 152.467 282.709 152.4L277.25 139.219L279.802 140.424L283.31 152.187Z" fill="#20606D"/>
<path d="M263.603 131.387L264.706 133.271L279.807 140.437L279.433 139.796C278.283 137.831 276.498 136.318 274.373 135.505L263.603 131.387Z" fill="#40C0DA"/>
<path d="M263.603 131.387L264.706 133.271L279.807 140.437L279.433 139.796C278.283 137.831 276.498 136.318 274.373 135.505L263.603 131.387Z" fill="url(#paint1_linear_1399_4673)"/>
<path d="M264.706 133.27L263.603 131.386L264.063 131.562C264.083 131.611 264.83 132.878 265.201 133.505L264.706 133.27Z" fill="#0D1F23"/>
<path d="M279.802 140.424L277.251 139.219L277.63 140.136L280.14 141.558L279.802 140.424Z" fill="#0D1F23"/>
<rect x="261.776" y="131.168" width="1.46519" height="4.39557" rx="0.732594" transform="rotate(-30.3463 261.776 131.168)" fill="#66BACB"/>
<path d="M275.529 163.214L273.729 160.141L274.884 159.465C275.589 159.052 276.215 159.261 276.563 159.85C276.905 160.439 276.775 161.088 276.066 161.503L275.472 161.851L276.081 162.891L275.529 163.214ZM275.206 161.397L275.724 161.093C276.138 160.848 276.188 160.505 275.998 160.18C275.806 159.851 275.486 159.734 275.07 159.977L274.552 160.28L275.206 161.397Z" fill="#C6D6DA"/>
<path d="M278.397 161.58C278.214 161.687 277.977 161.627 277.872 161.443C277.765 161.266 277.83 161.031 278.012 160.922C278.189 160.821 278.425 160.88 278.53 161.058C278.637 161.24 278.573 161.477 278.397 161.58Z" fill="#C6D6DA"/>
<path d="M279.251 161.034L277.452 157.961L278.607 157.285C279.311 156.873 279.938 157.082 280.286 157.67C280.628 158.259 280.498 158.909 279.789 159.324L279.194 159.671L279.803 160.711L279.251 161.034ZM278.928 159.217L279.446 158.914C279.861 158.668 279.911 158.326 279.721 158.001C279.528 157.672 279.209 157.554 278.793 157.798L278.275 158.101L278.928 159.217Z" fill="#C6D6DA"/>
<path d="M280.653 156.087L282.452 159.161L281.909 159.479L280.109 156.406L280.653 156.087Z" fill="#C6D6DA"/>
<path d="M284.02 158.305C283.326 158.712 282.629 158.499 282.206 157.777C281.789 157.064 281.938 156.327 282.596 155.941C283.161 155.611 283.857 155.68 284.33 156.488L284.429 156.658L282.821 157.6C283.059 157.987 283.427 158.085 283.776 157.878C284.015 157.741 284.114 157.546 284.104 157.367L284.634 157.057C284.77 157.513 284.555 157.992 284.02 158.305ZM282.607 157.229L283.695 156.592C283.509 156.279 283.163 156.174 282.851 156.357C282.526 156.547 282.454 156.925 282.607 157.229Z" fill="#C6D6DA"/>
<path fill-rule="evenodd" clip-rule="evenodd" d="M273.127 114.463C276.557 110.605 282.359 109.992 286.519 113.047L307.776 128.655L307.776 128.654C311.39 130.954 312.276 136.03 309.719 140.05C307.161 144.069 302.154 145.471 298.54 143.172L298.538 143.175L274.132 129.647C269.15 126.885 268.012 120.217 271.797 115.959L273.127 114.463Z" fill="#0D1F23"/>
<path fill-rule="evenodd" clip-rule="evenodd" d="M272.84 114.294C276.273 110.543 281.974 109.965 286.09 112.952L307.571 128.541L307.571 128.542C311.184 130.842 312.24 135.648 309.898 139.329C307.555 143.011 302.722 144.139 299.108 141.84L299.108 141.841L273.989 127.751C269.443 125.201 268.46 119.08 271.979 115.235L272.84 114.294Z" fill="#DFE9EB"/>
<mask id="path-28-inside-2_1399_4673" fill="white">
<path fill-rule="evenodd" clip-rule="evenodd" d="M272.84 114.294C276.273 110.543 281.974 109.965 286.09 112.952L307.571 128.541L307.571 128.542C311.184 130.842 312.24 135.648 309.898 139.329C307.555 143.011 302.722 144.139 299.108 141.84L299.108 141.841L273.989 127.751C269.443 125.201 268.46 119.08 271.979 115.235L272.84 114.294Z"/>
</mask>
<path d="M286.09 112.952L285.503 113.761L286.09 112.952ZM272.84 114.294L273.577 114.969L272.84 114.294ZM307.571 128.541L308.159 127.731L308.92 128.284L308.415 129.078L307.571 128.541ZM307.571 128.542L307.034 129.385L306.19 128.848L306.727 128.005L307.571 128.542ZM299.108 141.84L298.264 141.304L298.801 140.46L299.645 140.997L299.108 141.84ZM299.108 141.841L299.951 142.378L299.444 143.176L298.618 142.713L299.108 141.841ZM273.989 127.751L274.478 126.879L273.989 127.751ZM271.979 115.235L271.241 114.56L271.979 115.235ZM285.503 113.761C281.799 111.073 276.667 111.593 273.577 114.969L272.102 113.619C275.878 109.493 282.15 108.857 286.677 112.143L285.503 113.761ZM306.984 129.35L285.503 113.761L286.677 112.143L308.159 127.731L306.984 129.35ZM306.727 128.005L306.728 128.004L308.415 129.078L308.414 129.079L306.727 128.005ZM308.108 127.698C312.194 130.3 313.376 135.726 310.741 139.866L309.054 138.792C311.105 135.569 310.173 131.384 307.034 129.385L308.108 127.698ZM310.741 139.866C308.113 143.998 302.667 145.289 298.571 142.684L299.645 140.997C302.777 142.989 306.998 142.024 309.054 138.792L310.741 139.866ZM298.264 141.304L298.264 141.304L299.952 142.377L299.951 142.378L298.264 141.304ZM274.478 126.879L299.597 140.969L298.618 142.713L273.5 128.624L274.478 126.879ZM272.716 115.91C269.632 119.28 270.494 124.644 274.478 126.879L273.5 128.624C268.392 125.758 267.287 118.881 271.241 114.56L272.716 115.91ZM273.577 114.969L272.716 115.91L271.241 114.56L272.102 113.619L273.577 114.969Z" fill="#228093" mask="url(#path-28-inside-2_1399_4673)"/>
<path d="M277.937 117.905L279.092 119.267L294.384 117.764C292.685 116.684 290.66 116.235 288.663 116.497L277.937 117.905Z" fill="#6A7173"/>
<path d="M277.175 119.101L278.898 119.57L284.014 134.059C282.316 132.978 281.051 131.333 280.443 129.413L277.175 119.101Z" fill="#6A7173"/>
<path d="M276.698 117.119L278.54 118.292L295.247 117.767L294.621 117.368C292.701 116.146 290.422 115.615 288.16 115.863L276.698 117.119Z" fill="#40C0DA"/>
<path d="M276.698 117.119L278.54 118.292L295.247 117.767L294.621 117.368C292.701 116.146 290.422 115.615 288.16 115.863L276.698 117.119Z" fill="url(#paint2_linear_1399_4673)"/>
<path d="M278.542 118.292L276.7 117.119L277.189 117.066C277.229 117.1 278.472 117.886 279.089 118.274L278.542 118.292Z" fill="#0D1F23"/>
<path d="M303.73 126.622C303.927 126.828 303.776 127.17 303.491 127.163C303.418 127.161 303.348 127.134 303.293 127.087L292.416 117.856L295.236 117.762L303.73 126.622Z" fill="#20606D"/>
<path d="M295.237 117.762L292.417 117.855L293.174 118.497L296.056 118.616L295.237 117.762Z" fill="#0D1F23"/>
<path d="M295.966 138.825C296.237 138.917 296.482 138.635 296.355 138.38C296.322 138.314 296.268 138.262 296.202 138.232L283.232 132.289L284.342 134.883L295.966 138.825Z" fill="#20606D"/>
<path d="M275.91 118.361L277.752 119.533L284.353 134.889L283.727 134.491C281.806 133.27 280.36 131.43 279.626 129.276L275.91 118.361Z" fill="#40C0DA"/>
<path d="M275.91 118.361L277.752 119.533L284.353 134.889L283.727 134.491C281.806 133.27 280.36 131.43 279.626 129.276L275.91 118.361Z" fill="url(#paint3_linear_1399_4673)"/>
<path d="M277.752 119.533L275.91 118.361L276.068 118.827C276.116 118.849 277.354 119.642 277.968 120.036L277.752 119.533Z" fill="#0D1F23"/>
<path d="M284.341 134.883L283.231 132.288L284.133 132.702L285.461 135.263L284.341 134.883Z" fill="#0D1F23"/>
<rect width="1.46519" height="4.39557" rx="0.732594" transform="matrix(-0.536859 0.843672 0.843672 0.536859 275.759 116.527)" fill="#66BACB"/>
<defs>
<linearGradient id="paint0_linear_1399_4673" x1="262.334" y1="132.127" x2="264.4" y2="149.034" gradientUnits="userSpaceOnUse">
<stop stop-color="#0D5564"/>
<stop offset="1" stop-color="#41B0C6" stop-opacity="0"/>
</linearGradient>
<linearGradient id="paint1_linear_1399_4673" x1="267.665" y1="129.009" x2="275.747" y2="142.814" gradientUnits="userSpaceOnUse">
<stop stop-color="#0D5564"/>
<stop offset="1" stop-color="#40BFD8" stop-opacity="0"/>
</linearGradient>
<linearGradient id="paint2_linear_1399_4673" x1="276.698" y1="117.12" x2="293.517" y2="119.811" gradientUnits="userSpaceOnUse">
<stop stop-color="#0D5564"/>
<stop offset="1" stop-color="#41B0C6" stop-opacity="0"/>
</linearGradient>
<linearGradient id="paint3_linear_1399_4673" x1="273.383" y1="122.332" x2="286.879" y2="130.92" gradientUnits="userSpaceOnUse">
<stop stop-color="#0D5564"/>
<stop offset="1" stop-color="#40BFD8" stop-opacity="0"/>
</linearGradient>
</defs>
</svg>
