<svg width="351" height="264" viewBox="0 0 351 264" fill="none" xmlns="http://www.w3.org/2000/svg">
<rect x="0.259766" width="350" height="264" rx="8" fill="#A0B5FF"/>
<path d="M263.831 100.759L261.747 98.6743C260.595 97.5231 258.636 97.6164 257.369 98.8828L170.237 186.015C168.971 187.281 168.877 189.241 170.029 190.392L172.113 192.477C173.264 193.628 175.224 193.535 176.491 192.268L263.623 105.136C264.889 103.87 264.982 101.91 263.831 100.759Z" fill="#FFEFEA"/>
<path d="M263.831 100.759L261.747 98.6743C260.595 97.5231 258.636 97.6164 257.369 98.8828L251.116 105.136L257.369 111.39L263.623 105.136C264.889 103.87 264.982 101.91 263.831 100.759Z" fill="#FFF9F8"/>
<path d="M199.952 168.811L206.306 149.95L235.521 120.734L241.775 126.988L199.952 168.811Z" fill="#4E2417"/>
<path d="M176.986 100.059L197.831 120.904L193.71 125.025C193.319 125.416 192.686 125.416 192.295 125.025L172.865 105.595C172.474 105.204 172.474 104.571 172.865 104.18L176.986 100.059Z" fill="#FF6737"/>
<path d="M239.52 162.592L260.365 183.437L256.243 187.559C255.852 187.949 255.219 187.949 254.829 187.559L235.398 168.128C235.007 167.737 235.007 167.104 235.398 166.714L239.52 162.592Z" fill="#F9EDE9"/>
<path d="M197.829 120.908L239.499 162.578L235.377 166.7C234.986 167.09 234.353 167.09 233.963 166.7L193.707 126.444C193.317 126.054 193.317 125.421 193.707 125.03L197.829 120.908Z" fill="#F1B09B"/>
<path d="M256.147 104.279C256.147 104.279 259.316 142.968 239.492 162.666L260.316 183.49C283.35 160.457 279.181 127.313 256.147 104.279Z" fill="#FF6737"/>
<path d="M256.147 104.278C233.113 81.2441 199.949 77.096 176.936 100.109L197.76 120.933C217.438 101.089 256.147 104.278 256.147 104.278Z" fill="#F1B09B"/>
<path d="M215.436 84.8543C229.847 85.6123 244.331 92.4586 256.148 104.276C256.148 104.276 240.168 102.959 223.523 107.281C217.345 97.5712 215.557 88.2841 215.436 84.8543Z" fill="#F2C3B4"/>
<path d="M275.64 144.938C274.842 130.529 267.956 116.064 256.107 104.279C256.107 104.279 257.467 120.256 253.191 136.912C262.918 143.063 272.21 144.826 275.64 144.938Z" fill="#FF8C67"/>
<path fill-rule="evenodd" clip-rule="evenodd" d="M256.13 104.297L256.148 104.28L256.127 104.259C256.127 104.259 256.128 104.272 256.13 104.297ZM218.565 141.741L197.761 120.937C204.82 113.818 214.324 109.658 223.61 107.25C240.206 102.946 256.106 104.241 256.106 104.241L237.345 123.001L231.064 129.282L256.13 104.297C256.236 105.67 258.953 143.328 239.472 162.646L239.43 162.604L218.548 141.758L218.565 141.741Z" fill="#F9EDE9"/>
<path d="M223.611 107.247C240.207 102.943 256.107 104.237 256.107 104.237L237.346 122.998L223.611 107.247Z" fill="#FFF8F5"/>
<path d="M253.097 136.733C257.401 120.137 256.106 104.237 256.106 104.237L237.346 122.998L253.097 136.733Z" fill="#FFF8F5"/>
<circle cx="297.838" cy="96.5926" r="13.2801" fill="#FF6737"/>
</svg>
