<svg width="351" height="264" viewBox="0 0 351 264" fill="none" xmlns="http://www.w3.org/2000/svg">
<rect x="0.935547" width="350" height="264" rx="8" fill="#ECB393"/>
<path d="M264.054 101.516L261.965 99.4267C260.811 98.2731 258.847 98.3666 257.578 99.6356L170.266 186.948C168.997 188.217 168.903 190.181 170.057 191.335L172.146 193.424C173.299 194.577 175.263 194.484 176.532 193.215L263.845 105.902C265.114 104.633 265.207 102.669 264.054 101.516Z" fill="#F3F5FF"/>
<path d="M264.054 101.516L261.965 99.4267C260.811 98.2731 258.847 98.3666 257.578 99.6356L251.312 105.902L257.578 112.168L263.845 105.902C265.114 104.633 265.207 102.669 264.054 101.516Z" fill="#FCFCFF"/>
<path d="M200.042 169.705L206.409 150.806L235.686 121.529L241.952 127.796L200.042 169.705Z" fill="#171F48"/>
<path d="M177.029 100.812L197.917 121.701L193.786 125.832C193.395 126.223 192.762 126.223 192.371 125.832L172.898 106.359C172.507 105.968 172.507 105.335 172.898 104.944L177.029 100.812Z" fill="#33449A"/>
<path d="M239.692 163.477L260.581 184.365L256.449 188.497C256.058 188.887 255.425 188.887 255.035 188.497L235.561 169.023C235.17 168.632 235.17 167.999 235.561 167.608L239.692 163.477Z" fill="#F3F5FF"/>
<path d="M197.915 121.705L239.671 163.461L235.539 167.593C235.149 167.983 234.516 167.983 234.125 167.593L193.783 127.251C193.393 126.861 193.393 126.227 193.783 125.837L197.915 121.705Z" fill="#9BA9F1"/>
<path d="M256.355 105.041C256.355 105.041 259.53 143.809 239.666 163.549L260.533 184.416C283.615 161.335 279.437 128.122 256.355 105.041Z" fill="#33449A"/>
<path d="M256.354 105.04C233.273 81.9586 200.04 77.8018 176.979 100.862L197.847 121.73C217.565 101.844 256.354 105.04 256.354 105.04Z" fill="#9BA9F1"/>
<path d="M215.558 85.5775C229.999 86.3371 244.513 93.1976 256.355 105.039C256.355 105.039 240.342 103.72 223.663 108.051C217.472 98.3208 215.68 89.0144 215.558 85.5775Z" fill="#C3CCFB"/>
<path d="M275.887 145.784C275.088 131.345 268.188 116.851 256.314 105.041C256.314 105.041 257.677 121.051 253.392 137.742C263.139 143.906 272.45 145.672 275.887 145.784Z" fill="#5167D9"/>
<path fill-rule="evenodd" clip-rule="evenodd" d="M256.337 105.057L256.355 105.039L256.334 105.018C256.334 105.018 256.335 105.031 256.337 105.057ZM218.671 142.556L197.847 121.732C204.921 114.598 214.445 110.429 223.75 108.016C240.381 103.704 256.313 105.001 256.313 105.001L238.263 123.051L256.337 105.057C256.444 106.432 259.166 144.168 239.645 163.526L239.603 163.484L218.669 142.559L218.671 142.556Z" fill="#F3F5FF"/>
<path d="M223.749 108.016C240.381 103.704 256.313 105 256.313 105L237.514 123.8L223.749 108.016Z" fill="#FAFBFF"/>
<path d="M253.298 137.563C257.611 120.932 256.314 105 256.314 105L237.515 123.799L253.298 137.563Z" fill="#FAFBFF"/>
<circle cx="298.132" cy="97.3369" r="13.3076" fill="#F3F5FF"/>
</svg>
