<svg width="351" height="264" viewBox="0 0 351 264" fill="none" xmlns="http://www.w3.org/2000/svg">
<rect x="0.259766" width="350" height="264" rx="8" fill="#A0B5FF"/>
<path fill-rule="evenodd" clip-rule="evenodd" d="M189.097 65.7597L203.619 69.9449L172.048 179.493L157.525 175.308L189.097 65.7597ZM203.619 69.9452L218.142 74.1305L218.142 74.1309L232.664 78.3162L201.093 187.864L186.57 183.679L186.571 183.679L172.048 179.493L203.619 69.9452ZM232.665 78.3145L247.187 82.4998L247.187 82.5004L261.708 86.6854L230.137 196.234L215.615 192.048L215.615 192.048L201.094 187.863L232.665 78.3145ZM276.231 90.8708L261.709 86.6855L230.138 196.234L244.66 200.419L244.66 200.419L259.183 204.605L290.754 95.0565L276.231 90.8712L276.231 90.8708Z" fill="#442B26"/>
<rect x="193.744" y="66.8862" width="15.1135" height="114.007" transform="rotate(16.0767 193.744 66.8862)" fill="#FFE3DE"/>
<rect x="208.267" y="71.0737" width="15.1135" height="114.007" transform="rotate(16.0767 208.267 71.0737)" fill="#FF775E"/>
<rect x="222.788" y="75.2593" width="15.1135" height="114.007" transform="rotate(16.0767 222.788 75.2593)" fill="#FFE3DE"/>
<rect x="237.312" y="79.4429" width="15.1135" height="114.007" transform="rotate(16.0767 237.312 79.4429)" fill="#FF775E"/>
<rect x="266.356" y="87.812" width="15.1135" height="114.007" transform="rotate(16.0767 266.356 87.812)" fill="#FF775E"/>
<rect x="251.833" y="83.6284" width="15.1135" height="114.007" transform="rotate(16.0767 251.833 83.6284)" fill="#FFE3DE"/>
<rect x="280.879" y="91.9976" width="15.1135" height="114.007" transform="rotate(16.0767 280.879 91.9976)" fill="#FFE3DE"/>
<path fill-rule="evenodd" clip-rule="evenodd" d="M256.043 120.087C252.062 123.371 251.233 129.147 254.132 133.417L271.214 158.586L271.214 158.586C273.625 162.704 279.239 163.899 283.819 161.218C288.399 158.537 290.167 153.02 287.756 148.902L287.759 148.9L273.707 121.172C270.838 115.511 263.461 113.969 258.565 118.007L256.043 120.087Z" fill="#442B26"/>
<path fill-rule="evenodd" clip-rule="evenodd" d="M257.547 119.092C253.671 122.384 252.882 128.06 255.714 132.284L272.748 157.686L272.75 157.686C275.161 161.804 280.468 163.179 284.663 160.723C288.859 158.266 290.314 152.932 287.904 148.814L287.904 148.813L273.256 120.268C270.605 115.102 263.831 113.755 259.405 117.514L257.547 119.092Z" fill="#FFE0DB"/>
<mask id="path-12-inside-1_1399_4518" fill="white">
<path fill-rule="evenodd" clip-rule="evenodd" d="M257.547 119.092C253.671 122.384 252.882 128.06 255.714 132.284L272.748 157.686L272.75 157.686C275.161 161.804 280.468 163.179 284.663 160.723C288.859 158.266 290.314 152.932 287.904 148.814L287.904 148.813L273.256 120.268C270.605 115.102 263.831 113.755 259.405 117.514L257.547 119.092Z"/>
</mask>
<path d="M255.714 132.284L256.545 131.727L255.714 132.284ZM257.547 119.092L256.899 118.33L257.547 119.092ZM272.748 157.686L271.918 158.243L272.442 159.025L273.254 158.549L272.748 157.686ZM272.75 157.686L273.613 157.18L273.107 156.317L272.244 156.823L272.75 157.686ZM287.904 148.814L287.398 147.951L286.535 148.456L287.041 149.319L287.904 148.814ZM287.904 148.813L288.41 149.676L289.226 149.198L288.794 148.357L287.904 148.813ZM273.256 120.268L274.146 119.812L273.256 120.268ZM259.405 117.514L260.053 118.276L259.405 117.514ZM256.545 131.727C253.996 127.926 254.706 122.817 258.194 119.854L256.899 118.33C252.636 121.951 251.768 128.195 254.884 132.841L256.545 131.727ZM273.579 157.129L256.545 131.727L254.884 132.841L271.918 158.243L273.579 157.129ZM272.244 156.823L272.243 156.823L273.254 158.549L273.255 158.549L272.244 156.823ZM271.887 158.191C274.581 162.793 280.504 164.316 285.168 161.586L284.158 159.86C280.431 162.042 275.74 160.814 273.613 157.18L271.887 158.191ZM285.168 161.586C289.824 158.86 291.466 152.92 288.767 148.309L287.041 149.319C289.163 152.944 287.894 157.673 284.158 159.86L285.168 161.586ZM287.399 147.95L287.398 147.951L288.409 149.677L288.41 149.676L287.399 147.95ZM272.366 120.725L287.015 149.27L288.794 148.357L274.146 119.812L272.366 120.725ZM260.053 118.276C263.987 114.934 270.009 116.132 272.366 120.725L274.146 119.812C271.2 114.072 263.675 112.576 258.758 116.752L260.053 118.276ZM258.194 119.854L260.053 118.276L258.758 116.752L256.899 118.33L258.194 119.854Z" fill="#C76553" mask="url(#path-12-inside-1_1399_4518)"/>
<path d="M262.132 124.258L263.601 125.6L261.297 142.562C260.164 140.626 259.748 138.353 260.122 136.141L262.132 124.258Z" fill="#8D655E"/>
<path d="M263.495 123.458L263.946 125.396L279.865 131.689C278.731 129.754 276.952 128.279 274.84 127.522L263.495 123.458Z" fill="#8D655E"/>
<path d="M261.308 122.845L262.537 124.944L261.264 143.521L260.643 142.461C259.492 140.498 259.046 138.2 259.378 135.949L261.308 122.845Z" fill="#FF775E"/>
<path d="M261.308 122.845L262.537 124.944L261.264 143.521L260.643 142.461C259.492 140.498 259.046 138.2 259.378 135.949L261.308 122.845Z" fill="url(#paint0_linear_1399_4518)"/>
<path d="M262.538 124.947L261.309 122.848L261.229 123.391C261.265 123.437 262.089 124.853 262.496 125.555L262.538 124.947Z" fill="#753124"/>
<path d="M270.77 153.333C270.991 153.561 271.378 153.407 271.382 153.089C271.383 153.008 271.356 152.929 271.305 152.865L261.478 140.375L261.257 143.511L270.77 153.333Z" fill="#B44C38"/>
<path d="M261.257 143.51L261.478 140.374L262.162 141.243L262.174 144.457L261.257 143.51Z" fill="#753124"/>
<path d="M284.677 145.19C284.768 145.495 284.444 145.757 284.165 145.604C284.094 145.565 284.038 145.503 284.007 145.428L277.927 130.745L280.769 132.087L284.677 145.19Z" fill="#B44C38"/>
<path d="M262.723 122.019L263.952 124.118L280.774 132.1L280.155 131.041C279.005 129.076 277.22 127.563 275.095 126.75L262.723 122.019Z" fill="#FF775E"/>
<path d="M262.723 122.019L263.952 124.118L280.774 132.1L280.155 131.041C279.005 129.076 277.22 127.563 275.095 126.75L262.723 122.019Z" fill="url(#paint1_linear_1399_4518)"/>
<path d="M263.951 124.118L262.722 122.019L263.235 122.215C263.257 122.269 264.089 123.681 264.502 124.38L263.951 124.118Z" fill="#753124"/>
<path d="M280.768 132.088L277.926 130.746L278.349 131.767L281.145 133.352L280.768 132.088Z" fill="#753124"/>
<rect x="260.688" y="121.775" width="1.63223" height="4.8967" rx="0.816117" transform="rotate(-30.3463 260.688 121.775)" fill="#FF7258"/>
<path d="M275.27 157.761L273.127 154.1L274.502 153.294C275.342 152.803 276.088 153.052 276.502 153.753C276.91 154.455 276.755 155.228 275.91 155.722L275.202 156.137L275.928 157.376L275.27 157.761ZM274.886 155.596L275.502 155.235C275.997 154.942 276.056 154.534 275.83 154.147C275.6 153.755 275.219 153.615 274.724 153.905L274.107 154.266L274.886 155.596Z" fill="#F2CBC5"/>
<path d="M278.687 155.815C278.469 155.942 278.186 155.87 278.062 155.651C277.935 155.44 278.012 155.161 278.228 155.031C278.439 154.911 278.721 154.98 278.845 155.192C278.973 155.41 278.897 155.692 278.687 155.815Z" fill="#F2CBC5"/>
<path d="M279.705 155.164L277.562 151.503L278.937 150.698C279.776 150.207 280.523 150.456 280.937 151.157C281.344 151.859 281.189 152.632 280.345 153.126L279.637 153.541L280.362 154.78L279.705 155.164ZM279.32 153L279.937 152.638C280.431 152.346 280.491 151.937 280.264 151.551C280.035 151.159 279.654 151.018 279.158 151.309L278.542 151.67L279.32 153Z" fill="#F2CBC5"/>
<path d="M281.374 149.271L283.517 152.932L282.87 153.311L280.727 149.65L281.374 149.271Z" fill="#F2CBC5"/>
<path d="M285.386 151.913C284.559 152.397 283.728 152.144 283.225 151.284C282.727 150.435 282.906 149.556 283.689 149.097C284.362 148.704 285.191 148.785 285.755 149.749L285.873 149.951L283.957 151.073C284.241 151.535 284.679 151.651 285.095 151.405C285.379 151.241 285.498 151.009 285.485 150.796L286.117 150.426C286.279 150.969 286.023 151.54 285.386 151.913ZM283.702 150.631L284.999 149.872C284.777 149.499 284.364 149.374 283.993 149.592C283.606 149.818 283.52 150.269 283.702 150.631Z" fill="#F2CBC5"/>
<path fill-rule="evenodd" clip-rule="evenodd" d="M268.129 99.1618C271.311 95.0974 277.063 94.1223 281.407 96.911L307.003 113.345L297.742 130.132L269.664 116.792C263.932 114.068 262.203 106.733 266.115 101.736L268.129 99.1618ZM297.743 130.131C301.921 132.436 307.392 130.528 309.956 125.881C312.519 121.234 311.181 115.652 307.003 113.347L297.743 130.131Z" fill="#442B26"/>
<path fill-rule="evenodd" clip-rule="evenodd" d="M268.106 98.9495C271.297 94.9907 276.952 94.0577 281.246 96.7812L307.075 113.162L307.075 113.162C311.253 115.467 312.763 120.737 310.415 124.994C308.066 129.251 302.771 130.842 298.593 128.537L298.591 128.539L269.682 114.624C264.45 112.105 262.931 105.368 266.575 100.848L268.106 98.9495Z" fill="#FFE0DB"/>
<mask id="path-28-inside-2_1399_4518" fill="white">
<path fill-rule="evenodd" clip-rule="evenodd" d="M268.106 98.9495C271.297 94.9907 276.952 94.0577 281.246 96.7812L307.075 113.162L307.075 113.162C311.253 115.467 312.763 120.737 310.415 124.994C308.066 129.251 302.771 130.842 298.593 128.537L298.591 128.539L269.682 114.624C264.45 112.105 262.931 105.368 266.575 100.848L268.106 98.9495Z"/>
</mask>
<path d="M281.246 96.7812L280.711 97.6257L281.246 96.7812ZM268.106 98.9495L267.327 98.3218L268.106 98.9495ZM307.075 113.162L307.611 112.317L308.405 112.821L307.951 113.645L307.075 113.162ZM307.075 113.162L306.592 114.038L305.716 113.554L306.199 112.679L307.075 113.162ZM298.593 128.537L297.717 128.054L298.2 127.179L299.076 127.662L298.593 128.537ZM298.591 128.539L299.467 129.022L299.01 129.851L298.158 129.44L298.591 128.539ZM269.682 114.624L269.248 115.525L269.682 114.624ZM266.575 100.848L267.354 101.475L266.575 100.848ZM280.711 97.6257C276.846 95.1745 271.757 96.0142 268.884 99.5771L267.327 98.3218C270.838 93.9672 277.058 92.9409 281.782 95.9367L280.711 97.6257ZM306.539 114.006L280.711 97.6257L281.782 95.9367L307.611 112.317L306.539 114.006ZM306.199 112.679L306.199 112.679L307.951 113.645L307.951 113.645L306.199 112.679ZM307.558 112.286C312.227 114.863 313.901 120.745 311.29 125.477L309.539 124.511C311.625 120.73 310.278 116.072 306.592 114.038L307.558 112.286ZM311.29 125.477C308.684 130.201 302.788 131.993 298.11 129.413L299.076 127.662C302.754 129.69 307.448 128.301 309.539 124.511L311.29 125.477ZM297.716 128.056L297.717 128.054L299.468 129.02L299.467 129.022L297.716 128.056ZM270.116 113.723L299.025 127.638L298.158 129.44L269.248 115.525L270.116 113.723ZM267.354 101.475C264.114 105.494 265.464 111.484 270.116 113.723L269.248 115.525C263.436 112.727 261.748 105.242 265.797 100.22L267.354 101.475ZM268.884 99.5771L267.354 101.475L265.797 100.22L267.327 98.3218L268.884 99.5771Z" fill="#C76553" mask="url(#path-28-inside-2_1399_4518)"/>
<path d="M273.385 103.4L274.763 104.834L291.662 102.098C289.697 101.015 287.414 100.657 285.212 101.088L273.385 103.4Z" fill="#8D655E"/>
<path d="M272.624 104.784L274.572 105.186L281.27 120.94C279.306 119.855 277.786 118.115 276.976 116.023L272.624 104.784Z" fill="#8D655E"/>
<path d="M271.956 102.615L274.086 103.79L292.624 102.043L291.549 101.449C289.557 100.349 287.249 99.9618 285.007 100.351L271.956 102.615Z" fill="#FF775E"/>
<path d="M271.956 102.615L274.086 103.79L292.624 102.043L291.549 101.449C289.557 100.349 287.249 99.9618 285.007 100.351L271.956 102.615Z" fill="url(#paint2_linear_1399_4518)"/>
<path d="M274.087 103.789L271.957 102.615L272.498 102.521C272.544 102.556 273.981 103.343 274.694 103.732L274.087 103.789Z" fill="#753124"/>
<path d="M302.672 111.294C302.906 111.509 302.761 111.9 302.444 111.912C302.363 111.915 302.283 111.89 302.218 111.841L289.481 102.335L292.61 102.035L302.672 111.294Z" fill="#B44C38"/>
<path d="M292.611 102.035L289.482 102.336L290.368 102.997L293.581 102.928L292.611 102.035Z" fill="#753124"/>
<path d="M294.888 125.404C295.195 125.487 295.448 125.157 295.289 124.882C295.248 124.812 295.184 124.758 295.109 124.729L280.275 119.024L281.69 121.832L294.888 125.404Z" fill="#B44C38"/>
<path d="M271.164 104.048L273.294 105.223L281.703 121.837L280.628 121.244C278.635 120.145 277.076 118.4 276.209 116.295L271.164 104.048Z" fill="#FF775E"/>
<path d="M271.164 104.048L273.294 105.223L281.703 121.837L280.628 121.244C278.635 120.145 277.076 118.4 276.209 116.295L271.164 104.048Z" fill="url(#paint3_linear_1399_4518)"/>
<path d="M273.294 105.223L271.165 104.049L271.374 104.556C271.428 104.576 272.861 105.372 273.57 105.767L273.294 105.223Z" fill="#753124"/>
<path d="M281.69 121.832L280.276 119.025L281.308 119.422L282.963 122.177L281.69 121.832Z" fill="#753124"/>
<rect width="1.63223" height="4.8967" rx="0.816117" transform="matrix(-0.483053 0.875591 0.875591 0.483053 270.869 102.019)" fill="#FF7258"/>
<defs>
<linearGradient id="paint0_linear_1399_4518" x1="261.309" y1="122.844" x2="263.61" y2="141.679" gradientUnits="userSpaceOnUse">
<stop stop-color="#D94D33"/>
<stop offset="1" stop-color="#753124" stop-opacity="0"/>
</linearGradient>
<linearGradient id="paint1_linear_1399_4518" x1="267.248" y1="119.37" x2="276.251" y2="134.749" gradientUnits="userSpaceOnUse">
<stop stop-color="#D94D33"/>
<stop offset="1" stop-color="#B44C38" stop-opacity="0"/>
</linearGradient>
<linearGradient id="paint2_linear_1399_4518" x1="271.956" y1="102.615" x2="290.843" y2="104.436" gradientUnits="userSpaceOnUse">
<stop stop-color="#D94D33"/>
<stop offset="1" stop-color="#753124" stop-opacity="0"/>
</linearGradient>
<linearGradient id="paint3_linear_1399_4518" x1="268.631" y1="108.639" x2="284.235" y2="117.247" gradientUnits="userSpaceOnUse">
<stop stop-color="#D94D33"/>
<stop offset="1" stop-color="#B44C38" stop-opacity="0"/>
</linearGradient>
</defs>
</svg>
