<svg width="259" height="253" viewBox="0 0 259 253" fill="none" xmlns="http://www.w3.org/2000/svg">
<rect x="0.857422" y="0.710938" width="258" height="252" fill="#EC9898"/>
<mask id="mask0_500_12996" style="mask-type:alpha" maskUnits="userSpaceOnUse" x="0" y="0" width="259" height="253">
<rect x="0.857422" y="0.710938" width="258" height="252" fill="#D6895E"/>
</mask>
<g mask="url(#mask0_500_12996)">
<path d="M182.525 242.711V222.914H190.291C194.789 222.914 197.373 225.689 197.373 229.586C197.373 233.537 194.748 236.258 190.182 236.258H186.627V242.711H182.525ZM186.627 232.949H189.525C191.959 232.949 193.148 231.582 193.135 229.586C193.148 227.617 191.959 226.291 189.525 226.277H186.627V232.949ZM201.338 242.957C200.053 242.957 199.014 241.932 199.041 240.66C199.014 239.402 200.053 238.377 201.338 238.391C202.555 238.377 203.607 239.402 203.607 240.66C203.607 241.932 202.555 242.957 201.338 242.957ZM206.943 242.711V222.914H214.709C219.207 222.914 221.791 225.689 221.791 229.586C221.791 233.537 219.166 236.258 214.6 236.258H211.045V242.711H206.943ZM211.045 232.949H213.943C216.377 232.949 217.566 231.582 217.553 229.586C217.566 227.617 216.377 226.291 213.943 226.277H211.045V232.949ZM228.354 222.914V242.711H224.307V222.914H228.354ZM238.225 243.012C233.672 242.998 230.883 240.059 230.896 235.355C230.883 230.775 233.713 227.672 238.061 227.672C241.957 227.672 245.033 230.133 245.033 235.191V236.34H234.889C234.889 238.582 236.215 239.963 238.307 239.977C239.688 239.963 240.672 239.361 241.068 238.473H244.924C244.35 241.221 241.889 242.998 238.225 243.012ZM234.889 233.797H241.205C241.191 231.992 239.947 230.693 238.143 230.707C236.283 230.693 234.971 232.088 234.889 233.797Z" fill="black"/>
<path d="M197.858 208.036C242.382 208.036 278.475 171.943 278.475 127.42H117.242C117.242 171.943 153.335 208.036 197.858 208.036Z" fill="#4841A6"/>
<path d="M117.249 127.42H278.481C278.481 146.645 271.752 164.298 260.52 178.152C239.573 178.646 216.811 177.472 194.965 173.602C130.089 162.112 116.906 138.655 117.249 127.42Z" fill="#353071"/>
<ellipse cx="197.858" cy="127.419" rx="80.6163" ry="40.3081" fill="#8F87F3"/>
<path d="M246.056 72.9589C246.101 72.4551 246.131 71.9512 246.131 71.433C246.131 62.6804 238.824 55.5977 229.796 55.5977C229.291 55.5977 228.801 55.6264 228.311 55.6696C236.641 56.4038 243.161 63.1698 243.161 71.433C243.161 71.9512 243.131 72.4551 243.086 72.9589C248.982 73.6355 253.556 78.5013 253.556 84.3892C253.556 90.7521 248.239 95.9058 241.676 95.9058H244.646C251.209 95.9058 256.526 90.7521 256.526 84.3892C256.526 78.4869 251.952 73.6355 246.056 72.9589Z" fill="#ABA9C8"/>
<path d="M243.085 72.9589C243.129 72.4551 243.159 71.9512 243.159 71.433C243.159 63.1698 236.64 56.4038 228.309 55.6696C227.819 55.6264 227.329 55.5977 226.824 55.5977C217.795 55.5977 210.489 62.6804 210.489 71.433C210.489 71.9512 210.518 72.4551 210.563 72.9589C204.668 73.6355 200.094 78.5013 200.094 84.3892C200.094 90.7521 205.41 95.9058 211.974 95.9058H241.674C248.238 95.9058 253.554 90.7521 253.554 84.3892C253.554 78.4869 248.98 73.6355 243.085 72.9589Z" fill="#E7E6F0"/>
<path d="M242.6 72.963C236.858 72.963 232.204 77.4753 232.204 83.0415H230.719C230.719 76.6802 236.038 71.5234 242.6 71.5234C242.801 71.5234 243.001 71.5283 243.199 71.5378V72.9795C243.001 72.9685 242.801 72.963 242.6 72.963Z" fill="#ABA9C8"/>
<path d="M172.842 91.5859C172.886 91.082 172.916 90.5782 172.916 90.0599C172.916 81.3073 165.61 74.2246 156.581 74.2246C156.076 74.2246 155.586 74.2534 155.096 74.2966C163.427 75.0308 169.946 81.7968 169.946 90.0599C169.946 90.5782 169.916 91.082 169.872 91.5859C175.767 92.2625 180.341 97.1283 180.341 103.016C180.341 109.379 175.025 114.533 168.461 114.533H171.431C177.995 114.533 183.311 109.379 183.311 103.016C183.311 97.1139 178.737 92.2625 172.842 91.5859Z" fill="#ABA9C8"/>
<path d="M169.87 91.5859C169.915 91.082 169.945 90.5782 169.945 90.0599C169.945 81.7968 163.425 75.0308 155.094 74.2966C154.604 74.2534 154.114 74.2246 153.609 74.2246C144.58 74.2246 137.274 81.3073 137.274 90.0599C137.274 90.5782 137.304 91.082 137.348 91.5859C131.453 92.2625 126.879 97.1283 126.879 103.016C126.879 109.379 132.195 114.533 138.759 114.533H168.459C175.023 114.533 180.34 109.379 180.34 103.016C180.34 97.1139 175.766 92.2625 169.87 91.5859Z" fill="#E7E6F0"/>
<path d="M169.386 91.59C163.644 91.59 158.989 96.1022 158.989 101.668H157.504C157.504 95.3072 162.823 90.1504 169.386 90.1504C169.586 90.1504 169.786 90.1552 169.984 90.1648V91.6064C169.786 91.5955 169.587 91.59 169.386 91.59Z" fill="#ABA9C8"/>
</g>
</svg>
