<svg width="259" height="253" viewBox="0 0 259 253" fill="none" xmlns="http://www.w3.org/2000/svg">
<rect x="0.526611" y="0.89624" width="258" height="252" fill="#5BA89F"/>
<mask id="mask0_3224_14327" style="mask-type:alpha" maskUnits="userSpaceOnUse" x="0" y="0" width="259" height="253">
<rect x="0.526611" y="0.89624" width="258" height="252" fill="#D6895E"/>
</mask>
<g mask="url(#mask0_3224_14327)">
<path d="M182.195 242.896V223.099H189.96C194.458 223.099 197.042 225.875 197.042 229.771C197.042 233.722 194.417 236.443 189.851 236.443H186.296V242.896H182.195ZM186.296 233.135H189.195C191.628 233.135 192.818 231.767 192.804 229.771C192.818 227.802 191.628 226.476 189.195 226.463H186.296V233.135ZM201.007 243.142C199.722 243.142 198.683 242.117 198.71 240.845C198.683 239.588 199.722 238.562 201.007 238.576C202.224 238.562 203.277 239.588 203.277 240.845C203.277 242.117 202.224 243.142 201.007 243.142ZM206.613 242.896V223.099H214.378C218.876 223.099 221.46 225.875 221.46 229.771C221.46 233.722 218.835 236.443 214.269 236.443H210.714V242.896H206.613ZM210.714 233.135H213.613C216.046 233.135 217.236 231.767 217.222 229.771C217.236 227.802 216.046 226.476 213.613 226.463H210.714V233.135ZM228.023 223.099V242.896H223.976V223.099H228.023ZM237.894 243.197C233.341 243.183 230.552 240.244 230.566 235.541C230.552 230.961 233.382 227.857 237.73 227.857C241.626 227.857 244.702 230.318 244.702 235.377V236.525H234.558C234.558 238.767 235.884 240.148 237.976 240.162C239.357 240.148 240.341 239.547 240.738 238.658H244.593C244.019 241.406 241.558 243.183 237.894 243.197ZM234.558 233.982H240.874C240.861 232.177 239.616 230.879 237.812 230.892C235.952 230.879 234.64 232.273 234.558 233.982Z" fill="black"/>
<path d="M197.528 208.222C242.051 208.222 278.144 172.129 278.144 127.606H116.911C116.911 172.129 153.005 208.222 197.528 208.222Z" fill="#4841A6"/>
<path d="M116.918 127.606H278.15C278.15 146.83 271.421 164.483 260.189 178.338C239.242 178.832 216.48 177.657 194.634 173.788C129.758 162.298 116.576 138.841 116.918 127.606Z" fill="#353071"/>
<ellipse cx="197.528" cy="127.605" rx="80.6163" ry="40.3081" fill="#8F87F3"/>
<path d="M245.726 73.1445C245.77 72.6406 245.8 72.1368 245.8 71.6185C245.8 62.8659 238.494 55.7832 229.465 55.7832C228.96 55.7832 228.47 55.812 227.98 55.8552C236.311 56.5894 242.83 63.3554 242.83 71.6185C242.83 72.1368 242.8 72.6406 242.756 73.1445C248.651 73.8211 253.225 78.6869 253.225 84.5747C253.225 90.9376 247.909 96.0913 241.345 96.0913H244.315C250.879 96.0913 256.195 90.9376 256.195 84.5747C256.195 78.6725 251.621 73.8211 245.726 73.1445Z" fill="#ABA9C8"/>
<path d="M242.754 73.1445C242.798 72.6406 242.828 72.1368 242.828 71.6185C242.828 63.3554 236.309 56.5894 227.978 55.8552C227.488 55.812 226.998 55.7832 226.493 55.7832C217.464 55.7832 210.158 62.8659 210.158 71.6185C210.158 72.1368 210.188 72.6406 210.232 73.1445C204.337 73.8211 199.763 78.6869 199.763 84.5747C199.763 90.9376 205.079 96.0913 211.643 96.0913H241.343C247.907 96.0913 253.223 90.9376 253.223 84.5747C253.223 78.6725 248.649 73.8211 242.754 73.1445Z" fill="#E7E6F0"/>
<path d="M242.269 73.149C236.527 73.149 231.872 77.6613 231.872 83.2275H230.387C230.387 76.8663 235.707 71.7095 242.269 71.7095C242.47 71.7095 242.669 71.7143 242.868 71.7239V73.1655C242.669 73.1546 242.47 73.149 242.269 73.149Z" fill="#ABA9C8"/>
<path d="M172.511 91.7712C172.555 91.2673 172.585 90.7635 172.585 90.2452C172.585 81.4926 165.279 74.4099 156.25 74.4099C155.745 74.4099 155.255 74.4387 154.765 74.4819C163.096 75.2161 169.615 81.9821 169.615 90.2452C169.615 90.7635 169.585 91.2673 169.541 91.7712C175.436 92.4478 180.01 97.3136 180.01 103.201C180.01 109.564 174.694 114.718 168.13 114.718H171.1C177.664 114.718 182.98 109.564 182.98 103.201C182.98 97.2992 178.406 92.4478 172.511 91.7712Z" fill="#ABA9C8"/>
<path d="M169.539 91.7712C169.584 91.2673 169.613 90.7635 169.613 90.2452C169.613 81.9821 163.094 75.2161 154.763 74.4819C154.273 74.4387 153.783 74.4099 153.278 74.4099C144.249 74.4099 136.943 81.4926 136.943 90.2452C136.943 90.7635 136.973 91.2673 137.017 91.7712C131.122 92.4478 126.548 97.3136 126.548 103.201C126.548 109.564 131.864 114.718 138.428 114.718H168.128C174.692 114.718 180.009 109.564 180.009 103.201C180.009 97.2992 175.435 92.4478 169.539 91.7712Z" fill="#E7E6F0"/>
<path d="M169.054 91.7758C163.312 91.7758 158.657 96.288 158.657 101.854H157.172C157.172 95.493 162.492 90.3362 169.054 90.3362C169.255 90.3362 169.454 90.341 169.653 90.3506V91.7922C169.454 91.7813 169.255 91.7758 169.054 91.7758Z" fill="#ABA9C8"/>
</g>
</svg>
