<svg width="259" height="253" viewBox="0 0 259 253" fill="none" xmlns="http://www.w3.org/2000/svg">
<rect x="0.857422" y="0.453125" width="258" height="252" fill="#D6895E"/>
<mask id="mask0_500_12172" style="mask-type:alpha" maskUnits="userSpaceOnUse" x="0" y="0" width="259" height="253">
<rect x="0.857422" y="0.453125" width="258" height="252" fill="#D6895E"/>
</mask>
<g mask="url(#mask0_500_12172)">
<path d="M182.525 242.453V222.656H190.291C194.789 222.656 197.373 225.432 197.373 229.328C197.373 233.279 194.748 236 190.182 236H186.627V242.453H182.525ZM186.627 232.691H189.525C191.959 232.691 193.148 231.324 193.135 229.328C193.148 227.359 191.959 226.033 189.525 226.02H186.627V232.691ZM201.338 242.699C200.053 242.699 199.014 241.674 199.041 240.402C199.014 239.145 200.053 238.119 201.338 238.133C202.555 238.119 203.607 239.145 203.607 240.402C203.607 241.674 202.555 242.699 201.338 242.699ZM206.943 242.453V222.656H214.709C219.207 222.656 221.791 225.432 221.791 229.328C221.791 233.279 219.166 236 214.6 236H211.045V242.453H206.943ZM211.045 232.691H213.943C216.377 232.691 217.566 231.324 217.553 229.328C217.566 227.359 216.377 226.033 213.943 226.02H211.045V232.691ZM228.354 222.656V242.453H224.307V222.656H228.354ZM238.225 242.754C233.672 242.74 230.883 239.801 230.896 235.098C230.883 230.518 233.713 227.414 238.061 227.414C241.957 227.414 245.033 229.875 245.033 234.934V236.082H234.889C234.889 238.324 236.215 239.705 238.307 239.719C239.688 239.705 240.672 239.104 241.068 238.215H244.924C244.35 240.963 241.889 242.74 238.225 242.754ZM234.889 233.539H241.205C241.191 231.734 239.947 230.436 238.143 230.449C236.283 230.436 234.971 231.83 234.889 233.539Z" fill="black"/>
<path d="M197.858 207.778C242.382 207.778 278.475 171.685 278.475 127.162H117.242C117.242 171.685 153.335 207.778 197.858 207.778Z" fill="#4841A6"/>
<path d="M117.249 127.162H278.481C278.481 146.387 271.752 164.04 260.52 177.894C239.573 178.389 216.811 177.214 194.965 173.345C130.089 161.854 116.906 138.397 117.249 127.162Z" fill="#353071"/>
<ellipse cx="197.858" cy="127.162" rx="80.6163" ry="40.3081" fill="#8F87F3"/>
<path d="M246.056 72.7011C246.101 72.1973 246.131 71.6934 246.131 71.1752C246.131 62.4226 238.824 55.3398 229.796 55.3398C229.291 55.3398 228.801 55.3686 228.311 55.4118C236.641 56.146 243.161 62.912 243.161 71.1752C243.161 71.6934 243.131 72.1973 243.086 72.7011C248.982 73.3777 253.556 78.2435 253.556 84.1314C253.556 90.4943 248.239 95.648 241.676 95.648H244.646C251.209 95.648 256.526 90.4943 256.526 84.1314C256.526 78.2291 251.952 73.3777 246.056 72.7011Z" fill="#ABA9C8"/>
<path d="M243.085 72.7011C243.129 72.1973 243.159 71.6934 243.159 71.1752C243.159 62.912 236.64 56.146 228.309 55.4118C227.819 55.3686 227.329 55.3398 226.824 55.3398C217.795 55.3398 210.489 62.4226 210.489 71.1752C210.489 71.6934 210.518 72.1973 210.563 72.7011C204.668 73.3777 200.094 78.2435 200.094 84.1314C200.094 90.4943 205.41 95.648 211.974 95.648H241.674C248.238 95.648 253.554 90.4943 253.554 84.1314C253.554 78.2291 248.98 73.3777 243.085 72.7011Z" fill="#E7E6F0"/>
<path d="M242.6 72.7052C236.858 72.7052 232.204 77.2175 232.204 82.7836H230.719C230.719 76.4224 236.038 71.2656 242.6 71.2656C242.801 71.2656 243.001 71.2705 243.199 71.28V72.7216C243.001 72.7107 242.801 72.7052 242.6 72.7052Z" fill="#ABA9C8"/>
<path d="M172.842 91.3281C172.886 90.8242 172.916 90.3204 172.916 89.8021C172.916 81.0495 165.61 73.9668 156.581 73.9668C156.076 73.9668 155.586 73.9956 155.096 74.0388C163.427 74.773 169.946 81.539 169.946 89.8021C169.946 90.3204 169.916 90.8242 169.872 91.3281C175.767 92.0047 180.341 96.8705 180.341 102.758C180.341 109.121 175.025 114.275 168.461 114.275H171.431C177.995 114.275 183.311 109.121 183.311 102.758C183.311 96.8561 178.737 92.0047 172.842 91.3281Z" fill="#ABA9C8"/>
<path d="M169.87 91.3281C169.915 90.8242 169.945 90.3204 169.945 89.8021C169.945 81.539 163.425 74.773 155.094 74.0388C154.604 73.9956 154.114 73.9668 153.609 73.9668C144.58 73.9668 137.274 81.0495 137.274 89.8021C137.274 90.3204 137.304 90.8242 137.348 91.3281C131.453 92.0047 126.879 96.8705 126.879 102.758C126.879 109.121 132.195 114.275 138.759 114.275H168.459C175.023 114.275 180.34 109.121 180.34 102.758C180.34 96.8561 175.766 92.0047 169.87 91.3281Z" fill="#E7E6F0"/>
<path d="M169.386 91.3322C163.644 91.3322 158.989 95.8444 158.989 101.411H157.504C157.504 95.0494 162.823 89.8926 169.386 89.8926C169.586 89.8926 169.786 89.8974 169.984 89.907V91.3486C169.786 91.3377 169.587 91.3322 169.386 91.3322Z" fill="#ABA9C8"/>
</g>
</svg>
