<svg width="259" height="253" viewBox="0 0 259 253" fill="none" xmlns="http://www.w3.org/2000/svg">
<rect x="0.857422" y="0.0527344" width="258" height="252" fill="#3B7BAA"/>
<mask id="mask0_503_15922" style="mask-type:alpha" maskUnits="userSpaceOnUse" x="0" y="0" width="259" height="253">
<rect x="0.857422" y="0.0527344" width="258" height="252" fill="#D6895E"/>
</mask>
<g mask="url(#mask0_503_15922)">
<path d="M182.525 242.053V222.256H190.291C194.789 222.256 197.373 225.031 197.373 228.928C197.373 232.879 194.748 235.6 190.182 235.6H186.627V242.053H182.525ZM186.627 232.291H189.525C191.959 232.291 193.148 230.924 193.135 228.928C193.148 226.959 191.959 225.633 189.525 225.619H186.627V232.291ZM201.338 242.299C200.053 242.299 199.014 241.273 199.041 240.002C199.014 238.744 200.053 237.719 201.338 237.732C202.555 237.719 203.607 238.744 203.607 240.002C203.607 241.273 202.555 242.299 201.338 242.299ZM206.943 242.053V222.256H214.709C219.207 222.256 221.791 225.031 221.791 228.928C221.791 232.879 219.166 235.6 214.6 235.6H211.045V242.053H206.943ZM211.045 232.291H213.943C216.377 232.291 217.566 230.924 217.553 228.928C217.566 226.959 216.377 225.633 213.943 225.619H211.045V232.291ZM228.354 222.256V242.053H224.307V222.256H228.354ZM238.225 242.354C233.672 242.34 230.883 239.4 230.896 234.697C230.883 230.117 233.713 227.014 238.061 227.014C241.957 227.014 245.033 229.475 245.033 234.533V235.682H234.889C234.889 237.924 236.215 239.305 238.307 239.318C239.688 239.305 240.672 238.703 241.068 237.814H244.924C244.35 240.562 241.889 242.34 238.225 242.354ZM234.889 233.139H241.205C241.191 231.334 239.947 230.035 238.143 230.049C236.283 230.035 234.971 231.43 234.889 233.139Z" fill="black"/>
<path d="M197.858 207.378C242.382 207.378 278.475 171.285 278.475 126.762H117.242C117.242 171.285 153.335 207.378 197.858 207.378Z" fill="#4841A6"/>
<path d="M117.249 126.762H278.481C278.481 145.986 271.752 163.639 260.52 177.494C239.573 177.988 216.811 176.813 194.965 172.944C130.089 161.454 116.906 137.997 117.249 126.762Z" fill="#353071"/>
<ellipse cx="197.858" cy="126.761" rx="80.6163" ry="40.3081" fill="#8F87F3"/>
<path d="M246.056 72.3007C246.101 71.7969 246.131 71.293 246.131 70.7748C246.131 62.0222 238.824 54.9395 229.796 54.9395C229.291 54.9395 228.801 54.9682 228.311 55.0114C236.641 55.7456 243.161 62.5116 243.161 70.7748C243.161 71.293 243.131 71.7969 243.086 72.3007C248.982 72.9773 253.556 77.8431 253.556 83.731C253.556 90.0939 248.239 95.2476 241.676 95.2476H244.646C251.209 95.2476 256.526 90.0939 256.526 83.731C256.526 77.8287 251.952 72.9773 246.056 72.3007Z" fill="#ABA9C8"/>
<path d="M243.085 72.3007C243.129 71.7969 243.159 71.293 243.159 70.7748C243.159 62.5116 236.64 55.7456 228.309 55.0114C227.819 54.9682 227.329 54.9395 226.824 54.9395C217.795 54.9395 210.489 62.0222 210.489 70.7748C210.489 71.293 210.518 71.7969 210.563 72.3007C204.668 72.9773 200.094 77.8431 200.094 83.731C200.094 90.0939 205.41 95.2476 211.974 95.2476H241.674C248.238 95.2476 253.554 90.0939 253.554 83.731C253.554 77.8287 248.98 72.9773 243.085 72.3007Z" fill="#E7E6F0"/>
<path d="M242.6 72.3048C236.858 72.3048 232.204 76.8171 232.204 82.3832H230.719C230.719 76.022 236.038 70.8652 242.6 70.8652C242.801 70.8652 243.001 70.8701 243.199 70.8796V72.3213C243.001 72.3103 242.801 72.3048 242.6 72.3048Z" fill="#ABA9C8"/>
<path d="M172.842 90.9277C172.886 90.4238 172.916 89.92 172.916 89.4017C172.916 80.6491 165.61 73.5664 156.581 73.5664C156.076 73.5664 155.586 73.5952 155.096 73.6384C163.427 74.3726 169.946 81.1386 169.946 89.4017C169.946 89.92 169.916 90.4238 169.872 90.9277C175.767 91.6043 180.341 96.4701 180.341 102.358C180.341 108.721 175.025 113.875 168.461 113.875H171.431C177.995 113.875 183.311 108.721 183.311 102.358C183.311 96.4557 178.737 91.6043 172.842 90.9277Z" fill="#ABA9C8"/>
<path d="M169.87 90.9277C169.915 90.4238 169.945 89.92 169.945 89.4017C169.945 81.1386 163.425 74.3726 155.094 73.6384C154.604 73.5952 154.114 73.5664 153.609 73.5664C144.58 73.5664 137.274 80.6491 137.274 89.4017C137.274 89.92 137.304 90.4238 137.348 90.9277C131.453 91.6043 126.879 96.4701 126.879 102.358C126.879 108.721 132.195 113.875 138.759 113.875H168.459C175.023 113.875 180.34 108.721 180.34 102.358C180.34 96.4557 175.766 91.6043 169.87 90.9277Z" fill="#E7E6F0"/>
<path d="M169.386 90.9318C163.644 90.9318 158.989 95.444 158.989 101.01H157.504C157.504 94.649 162.823 89.4922 169.386 89.4922C169.586 89.4922 169.786 89.497 169.984 89.5066V90.9482C169.786 90.9373 169.587 90.9318 169.386 90.9318Z" fill="#ABA9C8"/>
</g>
</svg>
