<svg width="259" height="253" viewBox="0 0 259 253" fill="none" xmlns="http://www.w3.org/2000/svg">
<rect x="0.857422" y="0.310547" width="258" height="252" fill="#98C4EC"/>
<mask id="mask0_503_15938" style="mask-type:alpha" maskUnits="userSpaceOnUse" x="0" y="0" width="259" height="253">
<rect x="0.857422" y="0.310547" width="258" height="252" fill="#D6895E"/>
</mask>
<g mask="url(#mask0_503_15938)">
<path d="M182.525 242.311V222.514H190.291C194.789 222.514 197.373 225.289 197.373 229.186C197.373 233.137 194.748 235.857 190.182 235.857H186.627V242.311H182.525ZM186.627 232.549H189.525C191.959 232.549 193.148 231.182 193.135 229.186C193.148 227.217 191.959 225.891 189.525 225.877H186.627V232.549ZM201.338 242.557C200.053 242.557 199.014 241.531 199.041 240.26C199.014 239.002 200.053 237.977 201.338 237.99C202.555 237.977 203.607 239.002 203.607 240.26C203.607 241.531 202.555 242.557 201.338 242.557ZM206.943 242.311V222.514H214.709C219.207 222.514 221.791 225.289 221.791 229.186C221.791 233.137 219.166 235.857 214.6 235.857H211.045V242.311H206.943ZM211.045 232.549H213.943C216.377 232.549 217.566 231.182 217.553 229.186C217.566 227.217 216.377 225.891 213.943 225.877H211.045V232.549ZM228.354 222.514V242.311H224.307V222.514H228.354ZM238.225 242.611C233.672 242.598 230.883 239.658 230.896 234.955C230.883 230.375 233.713 227.271 238.061 227.271C241.957 227.271 245.033 229.732 245.033 234.791V235.939H234.889C234.889 238.182 236.215 239.562 238.307 239.576C239.688 239.562 240.672 238.961 241.068 238.072H244.924C244.35 240.82 241.889 242.598 238.225 242.611ZM234.889 233.396H241.205C241.191 231.592 239.947 230.293 238.143 230.307C236.283 230.293 234.971 231.688 234.889 233.396Z" fill="black"/>
<path d="M197.858 207.636C242.382 207.636 278.475 171.543 278.475 127.02H117.242C117.242 171.543 153.335 207.636 197.858 207.636Z" fill="#4841A6"/>
<path d="M117.249 127.02H278.481C278.481 146.244 271.752 163.897 260.52 177.751C239.573 178.246 216.811 177.071 194.965 173.202C130.089 161.712 116.906 138.255 117.249 127.02Z" fill="#353071"/>
<ellipse cx="197.858" cy="127.019" rx="80.6163" ry="40.3081" fill="#8F87F3"/>
<path d="M246.056 72.5586C246.101 72.0547 246.131 71.5508 246.131 71.0326C246.131 62.28 238.824 55.1973 229.796 55.1973C229.291 55.1973 228.801 55.2261 228.311 55.2692C236.641 56.0034 243.161 62.7694 243.161 71.0326C243.161 71.5508 243.131 72.0547 243.086 72.5586C248.982 73.2352 253.556 78.1009 253.556 83.9888C253.556 90.3517 248.239 95.5054 241.676 95.5054H244.646C251.209 95.5054 256.526 90.3517 256.526 83.9888C256.526 78.0865 251.952 73.2352 246.056 72.5586Z" fill="#ABA9C8"/>
<path d="M243.085 72.5586C243.129 72.0547 243.159 71.5508 243.159 71.0326C243.159 62.7694 236.64 56.0034 228.309 55.2692C227.819 55.2261 227.329 55.1973 226.824 55.1973C217.795 55.1973 210.489 62.28 210.489 71.0326C210.489 71.5508 210.518 72.0547 210.563 72.5586C204.668 73.2352 200.094 78.1009 200.094 83.9888C200.094 90.3517 205.41 95.5054 211.974 95.5054H241.674C248.238 95.5054 253.554 90.3517 253.554 83.9888C253.554 78.0865 248.98 73.2352 243.085 72.5586Z" fill="#E7E6F0"/>
<path d="M242.6 72.5626C236.858 72.5626 232.204 77.0749 232.204 82.6411H230.719C230.719 76.2798 236.038 71.123 242.6 71.123C242.801 71.123 243.001 71.1279 243.199 71.1374V72.5791C243.001 72.5682 242.801 72.5626 242.6 72.5626Z" fill="#ABA9C8"/>
<path d="M172.842 91.1855C172.886 90.6817 172.916 90.1778 172.916 89.6596C172.916 80.9069 165.61 73.8242 156.581 73.8242C156.076 73.8242 155.586 73.853 155.096 73.8962C163.427 74.6304 169.946 81.3964 169.946 89.6596C169.946 90.1778 169.916 90.6817 169.872 91.1855C175.767 91.8621 180.341 96.7279 180.341 102.616C180.341 108.979 175.025 114.132 168.461 114.132H171.431C177.995 114.132 183.311 108.979 183.311 102.616C183.311 96.7135 178.737 91.8621 172.842 91.1855Z" fill="#ABA9C8"/>
<path d="M169.87 91.1855C169.915 90.6817 169.945 90.1778 169.945 89.6596C169.945 81.3964 163.425 74.6304 155.094 73.8962C154.604 73.853 154.114 73.8242 153.609 73.8242C144.58 73.8242 137.274 80.9069 137.274 89.6596C137.274 90.1778 137.304 90.6817 137.348 91.1855C131.453 91.8621 126.879 96.7279 126.879 102.616C126.879 108.979 132.195 114.132 138.759 114.132H168.459C175.023 114.132 180.34 108.979 180.34 102.616C180.34 96.7135 175.766 91.8621 169.87 91.1855Z" fill="#E7E6F0"/>
<path d="M169.386 91.1896C163.644 91.1896 158.989 95.7018 158.989 101.268H157.504C157.504 94.9068 162.823 89.75 169.386 89.75C169.586 89.75 169.786 89.7548 169.984 89.7644V91.206C169.786 91.1951 169.587 91.1896 169.386 91.1896Z" fill="#ABA9C8"/>
</g>
</svg>
