<svg width="351" height="265" viewBox="0 0 351 265" fill="none" xmlns="http://www.w3.org/2000/svg">
<rect x="0.699219" y="0.648438" width="350" height="264" fill="#E09064"/>
<path d="M263.816 102.164L261.727 100.075C260.574 98.9215 258.61 99.015 257.341 100.284L170.028 187.597C168.759 188.866 168.666 190.83 169.82 191.983L171.908 194.072C173.062 195.226 175.026 195.132 176.295 193.863L263.607 106.55C264.876 105.281 264.97 103.318 263.816 102.164Z" fill="#F3F5FF"/>
<path d="M263.816 102.164L261.727 100.075C260.574 98.9215 258.61 99.015 257.341 100.284L251.075 106.55L257.341 112.817L263.607 106.55C264.876 105.281 264.97 103.318 263.816 102.164Z" fill="#FCFCFF"/>
<path d="M199.806 170.354L206.173 151.454L235.449 122.178L241.716 128.444L199.806 170.354Z" fill="#171F48"/>
<path d="M176.793 101.461L197.681 122.349L193.549 126.481C193.159 126.871 192.526 126.871 192.135 126.481L172.661 107.007C172.271 106.616 172.271 105.983 172.661 105.593L176.793 101.461Z" fill="#33449A"/>
<path d="M239.455 164.125L260.343 185.013L256.211 189.145C255.821 189.535 255.188 189.535 254.797 189.145L235.323 169.671C234.933 169.28 234.933 168.647 235.323 168.257L239.455 164.125Z" fill="#F3F5FF"/>
<path d="M197.678 122.354L239.434 164.109L235.302 168.241C234.911 168.632 234.278 168.632 233.888 168.241L193.546 127.9C193.155 127.509 193.155 126.876 193.546 126.485L197.678 122.354Z" fill="#9BA9F1"/>
<path d="M256.119 105.689C256.119 105.689 259.294 144.458 239.429 164.197L260.297 185.065C283.378 161.983 279.201 128.771 256.119 105.689Z" fill="#33449A"/>
<path d="M256.118 105.688C233.037 82.607 199.804 78.4503 176.743 101.511L197.61 122.378C217.329 102.493 256.118 105.688 256.118 105.688Z" fill="#9BA9F1"/>
<path d="M215.321 86.226C229.762 86.9856 244.276 93.8461 256.117 105.688C256.117 105.688 240.104 104.368 223.425 108.7C217.235 98.9693 215.443 89.6629 215.321 86.226Z" fill="#C3CCFB"/>
<path d="M275.651 146.433C274.852 131.994 267.952 117.499 256.077 105.69C256.077 105.69 257.441 121.699 253.155 138.39C262.902 144.554 272.214 146.32 275.651 146.433Z" fill="#5167D9"/>
<path fill-rule="evenodd" clip-rule="evenodd" d="M256.1 105.705L256.118 105.687L256.097 105.666C256.097 105.666 256.098 105.679 256.1 105.705ZM218.434 143.205L197.61 122.381C204.684 115.246 214.208 111.078 223.512 108.665C240.143 104.352 256.076 105.649 256.076 105.649L238.025 123.7L256.1 105.705C256.206 107.08 258.929 144.817 239.407 164.174L239.365 164.132L218.431 143.207L218.434 143.205Z" fill="#F3F5FF"/>
<path d="M223.513 108.665C240.144 104.352 256.077 105.649 256.077 105.649L237.277 124.448L223.513 108.665Z" fill="#FAFBFF"/>
<path d="M253.062 138.211C257.375 121.58 256.078 105.648 256.078 105.648L237.278 124.447L253.062 138.211Z" fill="#FAFBFF"/>
<circle cx="297.895" cy="97.9853" r="13.3076" fill="#F3F5FF"/>
</svg>
