<svg width="351" height="265" viewBox="0 0 351 265" fill="none" xmlns="http://www.w3.org/2000/svg">
<rect x="0.0234375" y="0.648438" width="350" height="264" fill="#33837E"/>
<path d="M263.593 101.407L261.508 99.3228C260.357 98.1715 258.397 98.2649 257.131 99.5312L169.999 186.663C168.733 187.93 168.639 189.889 169.79 191.041L171.875 193.125C173.026 194.276 174.986 194.183 176.252 192.917L263.384 105.785C264.651 104.518 264.744 102.559 263.593 101.407Z" fill="#FFEFEA"/>
<path d="M263.593 101.407L261.508 99.3228C260.357 98.1715 258.397 98.2649 257.131 99.5312L250.877 105.785L257.131 112.038L263.384 105.785C264.651 104.518 264.744 102.559 263.593 101.407Z" fill="#FFF9F8"/>
<path d="M199.714 169.459L206.067 150.599L235.283 121.383L241.537 127.636L199.714 169.459Z" fill="#4E2417"/>
<path d="M176.748 100.707L197.593 121.552L193.471 125.674C193.081 126.064 192.448 126.064 192.057 125.674L172.626 106.243C172.236 105.852 172.236 105.219 172.626 104.829L176.748 100.707Z" fill="#FF6737"/>
<path d="M239.281 163.24L260.126 184.085L256.004 188.207C255.614 188.598 254.981 188.598 254.59 188.207L235.159 168.776C234.769 168.386 234.769 167.753 235.159 167.362L239.281 163.24Z" fill="#F9EDE9"/>
<path d="M197.592 121.557L239.261 163.226L235.14 167.348C234.749 167.739 234.116 167.739 233.725 167.348L193.47 127.093C193.079 126.702 193.079 126.069 193.47 125.678L197.592 121.557Z" fill="#F1B09B"/>
<path d="M255.91 104.928C255.91 104.928 259.079 143.616 239.255 163.315L260.079 184.139C283.113 161.105 278.944 127.961 255.91 104.928Z" fill="#FF6737"/>
<path d="M255.909 104.926C232.875 81.8926 199.711 77.7444 176.698 100.757L197.522 121.581C217.2 101.737 255.909 104.926 255.909 104.926Z" fill="#F1B09B"/>
<path d="M215.198 85.5027C229.61 86.2607 244.093 93.1071 255.911 104.924C255.911 104.924 239.931 103.608 223.286 107.93C217.108 98.2197 215.32 88.9325 215.198 85.5027Z" fill="#F2C3B4"/>
<path d="M275.401 145.587C274.604 131.177 267.718 116.713 255.868 104.928C255.868 104.928 257.229 120.904 252.952 137.56C262.679 143.712 271.971 145.474 275.401 145.587Z" fill="#FF8C67"/>
<path fill-rule="evenodd" clip-rule="evenodd" d="M255.893 104.945L255.91 104.927L255.89 104.906C255.89 104.906 255.891 104.919 255.893 104.945ZM218.327 142.389L197.523 121.585C204.583 114.465 214.087 110.305 223.372 107.898C239.969 103.594 255.868 104.888 255.868 104.888L237.108 123.649L230.829 129.928L255.893 104.945C255.999 106.317 258.715 143.976 239.234 163.293L239.193 163.251L218.31 142.406L218.327 142.389Z" fill="#F9EDE9"/>
<path d="M223.372 107.895C239.969 103.592 255.868 104.886 255.868 104.886L237.108 123.646L223.372 107.895Z" fill="#FFF8F5"/>
<path d="M252.859 137.382C257.162 120.785 255.868 104.886 255.868 104.886L237.108 123.646L252.859 137.382Z" fill="#FFF8F5"/>
<circle cx="297.6" cy="97.241" r="13.2801" fill="#FF6737"/>
</svg>
