<svg width="351" height="265" viewBox="0 0 351 265" fill="none" xmlns="http://www.w3.org/2000/svg">
<rect x="0.0234375" y="0.648438" width="350" height="264" fill="#2E4491"/>
<path fill-rule="evenodd" clip-rule="evenodd" d="M188.86 66.4081L203.383 70.5934L171.811 180.142L157.289 175.956L188.86 66.4081ZM203.383 70.5936L217.905 74.7789L217.905 74.7793L232.428 78.9646L200.857 188.513L186.334 184.327L186.334 184.327L171.812 180.142L203.383 70.5936ZM232.428 78.963L246.951 83.1482L246.951 83.1489L261.472 87.3338L229.901 196.882L215.378 192.697L215.378 192.696L200.857 188.511L232.428 78.963ZM275.995 91.5193L261.473 87.334L229.901 196.882L244.424 201.067L244.424 201.068L258.946 205.253L290.517 95.7049L275.995 91.5196L275.995 91.5193Z" fill="#442B26"/>
<rect x="193.508" y="67.5352" width="15.1135" height="114.007" transform="rotate(16.0767 193.508 67.5352)" fill="#FFE3DE"/>
<rect x="208.029" y="71.7227" width="15.1135" height="114.007" transform="rotate(16.0767 208.029 71.7227)" fill="#FF775E"/>
<rect x="222.551" y="75.9082" width="15.1135" height="114.007" transform="rotate(16.0767 222.551 75.9082)" fill="#FFE3DE"/>
<rect x="237.074" y="80.0918" width="15.1135" height="114.007" transform="rotate(16.0767 237.074 80.0918)" fill="#FF775E"/>
<rect x="266.119" y="88.4609" width="15.1135" height="114.007" transform="rotate(16.0767 266.119 88.4609)" fill="#FF775E"/>
<rect x="251.596" y="84.2773" width="15.1135" height="114.007" transform="rotate(16.0767 251.596 84.2773)" fill="#FFE3DE"/>
<rect x="280.643" y="92.6465" width="15.1135" height="114.007" transform="rotate(16.0767 280.643 92.6465)" fill="#FFE3DE"/>
<path fill-rule="evenodd" clip-rule="evenodd" d="M255.808 120.736C251.826 124.02 250.998 129.795 253.897 134.066L270.978 159.235L270.979 159.235C273.39 163.352 279.004 164.548 283.584 161.867C288.164 159.185 289.931 153.668 287.521 149.55L287.523 149.549L273.471 121.82C270.602 116.16 263.225 114.618 258.33 118.656L255.808 120.736Z" fill="#442B26"/>
<path fill-rule="evenodd" clip-rule="evenodd" d="M257.311 119.741C253.435 123.033 252.647 128.71 255.479 132.933L272.513 158.336L272.514 158.335C274.925 162.453 280.232 163.828 284.428 161.372C288.623 158.916 290.079 153.581 287.668 149.463L287.669 149.463L273.021 120.918C270.37 115.751 263.596 114.404 259.17 118.163L257.311 119.741Z" fill="#FFE0DB"/>
<mask id="path-12-inside-1_505_16146" fill="white">
<path fill-rule="evenodd" clip-rule="evenodd" d="M257.311 119.741C253.435 123.033 252.647 128.71 255.479 132.933L272.513 158.336L272.514 158.335C274.925 162.453 280.232 163.828 284.428 161.372C288.623 158.916 290.079 153.581 287.668 149.463L287.669 149.463L273.021 120.918C270.37 115.751 263.596 114.404 259.17 118.163L257.311 119.741Z"/>
</mask>
<path d="M255.479 132.933L256.31 132.376L255.479 132.933ZM257.311 119.741L256.664 118.979L257.311 119.741ZM272.513 158.336L271.683 158.893L272.206 159.674L273.018 159.199L272.513 158.336ZM272.514 158.335L273.377 157.83L272.872 156.967L272.009 157.472L272.514 158.335ZM287.668 149.463L287.163 148.6L286.3 149.105L286.805 149.968L287.668 149.463ZM287.669 149.463L288.174 150.326L288.991 149.848L288.559 149.006L287.669 149.463ZM273.021 120.918L273.91 120.461L273.021 120.918ZM259.17 118.163L259.817 118.925L259.17 118.163ZM256.31 132.376C253.761 128.575 254.47 123.466 257.959 120.504L256.664 118.979C252.4 122.6 251.533 128.844 254.648 133.49L256.31 132.376ZM273.344 157.779L256.31 132.376L254.648 133.49L271.683 158.893L273.344 157.779ZM272.009 157.472L272.008 157.473L273.018 159.199L273.019 159.198L272.009 157.472ZM271.651 158.84C274.346 163.443 280.269 164.966 284.933 162.235L283.923 160.509C280.196 162.691 275.505 161.463 273.377 157.83L271.651 158.84ZM284.933 162.235C289.589 159.51 291.23 153.569 288.531 148.958L286.805 149.968C288.927 153.594 287.658 158.322 283.923 160.509L284.933 162.235ZM287.164 148.6L287.163 148.6L288.173 150.326L288.174 150.326L287.164 148.6ZM272.131 121.374L286.779 149.919L288.559 149.006L273.91 120.461L272.131 121.374ZM259.817 118.925C263.752 115.584 269.774 116.781 272.131 121.374L273.91 120.461C270.965 114.722 263.44 113.225 258.523 117.401L259.817 118.925ZM257.959 120.504L259.817 118.925L258.523 117.401L256.664 118.979L257.959 120.504Z" fill="#C76553" mask="url(#path-12-inside-1_505_16146)"/>
<path d="M261.896 124.907L263.364 126.249L261.06 143.211C259.927 141.275 259.512 139.001 259.886 136.789L261.896 124.907Z" fill="#8D655E"/>
<path d="M263.258 124.107L263.709 126.044L279.629 132.338C278.495 130.402 276.716 128.927 274.604 128.171L263.258 124.107Z" fill="#8D655E"/>
<path d="M261.073 123.493L262.302 125.592L261.028 144.169L260.408 143.11C259.257 141.146 258.811 138.849 259.143 136.597L261.073 123.493Z" fill="#FF775E"/>
<path d="M261.073 123.493L262.302 125.592L261.028 144.169L260.408 143.11C259.257 141.146 258.811 138.849 259.143 136.597L261.073 123.493Z" fill="url(#paint0_linear_505_16146)"/>
<path d="M262.302 125.595L261.074 123.496L260.994 124.039C261.03 124.085 261.854 125.501 262.261 126.204L262.302 125.595Z" fill="#753124"/>
<path d="M270.534 153.981C270.755 154.21 271.142 154.056 271.145 153.738C271.146 153.656 271.119 153.577 271.069 153.514L261.241 141.024L261.021 144.16L270.534 153.981Z" fill="#B44C38"/>
<path d="M261.021 144.158L261.241 141.023L261.925 141.892L261.938 145.105L261.021 144.158Z" fill="#753124"/>
<path d="M284.441 145.839C284.532 146.143 284.208 146.405 283.929 146.253C283.858 146.214 283.802 146.152 283.771 146.077L277.69 131.393L280.533 132.736L284.441 145.839Z" fill="#B44C38"/>
<path d="M262.487 122.667L263.716 124.766L280.539 132.749L279.919 131.689C278.77 129.725 276.985 128.211 274.859 127.398L262.487 122.667Z" fill="#FF775E"/>
<path d="M262.487 122.667L263.716 124.766L280.539 132.749L279.919 131.689C278.77 129.725 276.985 128.211 274.859 127.398L262.487 122.667Z" fill="url(#paint1_linear_505_16146)"/>
<path d="M263.716 124.767L262.487 122.668L263 122.864C263.021 122.918 263.853 124.329 264.267 125.028L263.716 124.767Z" fill="#753124"/>
<path d="M280.533 132.737L277.69 131.394L278.113 132.416L280.909 134L280.533 132.737Z" fill="#753124"/>
<rect x="260.451" y="122.424" width="1.63223" height="4.8967" rx="0.816117" transform="rotate(-30.3463 260.451 122.424)" fill="#FF7258"/>
<path d="M275.034 158.409L272.891 154.748L274.266 153.943C275.105 153.451 275.852 153.7 276.266 154.402C276.673 155.103 276.518 155.876 275.674 156.371L274.966 156.785L275.691 158.024L275.034 158.409ZM274.649 156.244L275.266 155.883C275.76 155.59 275.82 155.182 275.593 154.795C275.364 154.403 274.983 154.263 274.488 154.553L273.871 154.914L274.649 156.244Z" fill="#F2CBC5"/>
<path d="M278.451 156.463C278.233 156.59 277.95 156.518 277.825 156.3C277.698 156.089 277.776 155.809 277.992 155.679C278.203 155.559 278.485 155.628 278.609 155.841C278.736 156.058 278.66 156.34 278.451 156.463Z" fill="#F2CBC5"/>
<path d="M279.468 155.813L277.325 152.152L278.701 151.347C279.54 150.855 280.287 151.104 280.701 151.805C281.108 152.507 280.953 153.28 280.108 153.775L279.401 154.189L280.126 155.428L279.468 155.813ZM279.084 153.648L279.701 153.287C280.195 152.994 280.254 152.586 280.028 152.199C279.799 151.807 279.418 151.667 278.922 151.957L278.305 152.318L279.084 153.648Z" fill="#F2CBC5"/>
<path d="M281.138 149.92L283.281 153.581L282.634 153.96L280.491 150.299L281.138 149.92Z" fill="#F2CBC5"/>
<path d="M285.149 152.562C284.322 153.046 283.492 152.792 282.988 151.933C282.491 151.083 282.669 150.205 283.453 149.746C284.126 149.352 284.954 149.434 285.518 150.397L285.637 150.599L283.72 151.721C284.004 152.183 284.443 152.3 284.858 152.053C285.143 151.89 285.261 151.658 285.249 151.444L285.881 151.074C286.043 151.618 285.786 152.189 285.149 152.562ZM283.465 151.28L284.762 150.521C284.541 150.148 284.128 150.023 283.756 150.24C283.369 150.467 283.284 150.918 283.465 151.28Z" fill="#F2CBC5"/>
<path fill-rule="evenodd" clip-rule="evenodd" d="M267.895 99.8098C271.077 95.7454 276.829 94.7702 281.172 97.5589L306.769 113.993L297.508 130.78L269.43 117.439C263.698 114.716 261.968 107.381 265.88 102.384L267.895 99.8098ZM297.509 130.779C301.687 133.084 307.158 131.176 309.721 126.529C312.285 121.882 310.947 116.3 306.768 113.995L297.509 130.779Z" fill="#442B26"/>
<path fill-rule="evenodd" clip-rule="evenodd" d="M267.869 99.5984C271.061 95.6396 276.716 94.7066 281.01 97.4301L306.839 113.811L306.839 113.811C311.016 116.116 312.527 121.386 310.178 125.643C307.83 129.9 302.534 131.491 298.356 129.186L298.355 129.188L269.446 115.273C264.214 112.754 262.694 106.017 266.339 101.497L267.869 99.5984Z" fill="#FFE0DB"/>
<mask id="path-28-inside-2_505_16146" fill="white">
<path fill-rule="evenodd" clip-rule="evenodd" d="M267.869 99.5984C271.061 95.6396 276.716 94.7066 281.01 97.4301L306.839 113.811L306.839 113.811C311.016 116.116 312.527 121.386 310.178 125.643C307.83 129.9 302.534 131.491 298.356 129.186L298.355 129.188L269.446 115.273C264.214 112.754 262.694 106.017 266.339 101.497L267.869 99.5984Z"/>
</mask>
<path d="M281.01 97.4301L280.474 98.2746L281.01 97.4301ZM267.869 99.5984L267.091 98.9707L267.869 99.5984ZM306.839 113.811L307.374 112.966L308.169 113.47L307.714 114.294L306.839 113.811ZM306.839 113.811L306.355 114.686L305.48 114.203L305.963 113.328L306.839 113.811ZM298.356 129.186L297.481 128.703L297.964 127.828L298.839 128.311L298.356 129.186ZM298.355 129.188L299.231 129.671L298.774 130.5L297.921 130.089L298.355 129.188ZM269.446 115.273L269.012 116.174L269.446 115.273ZM266.339 101.497L267.117 102.124L266.339 101.497ZM280.474 98.2746C276.609 95.8235 271.52 96.6632 268.648 100.226L267.091 98.9707C270.602 94.6161 276.822 93.5898 281.546 96.5857L280.474 98.2746ZM306.303 114.655L280.474 98.2746L281.546 96.5857L307.374 112.966L306.303 114.655ZM305.963 113.328L305.963 113.328L307.714 114.294L307.714 114.294L305.963 113.328ZM307.322 112.935C311.991 115.512 313.664 121.394 311.054 126.126L309.303 125.16C311.389 121.379 310.042 116.721 306.355 114.686L307.322 112.935ZM311.054 126.126C308.448 130.85 302.552 132.642 297.873 130.062L298.839 128.311C302.517 130.339 307.212 128.95 309.303 125.16L311.054 126.126ZM297.48 128.705L297.481 128.703L299.232 129.669L299.231 129.671L297.48 128.705ZM269.88 114.372L298.789 128.287L297.921 130.089L269.012 116.174L269.88 114.372ZM267.117 102.124C263.877 106.143 265.228 112.132 269.88 114.372L269.012 116.174C263.199 113.376 261.511 105.891 265.56 100.869L267.117 102.124ZM268.648 100.226L267.117 102.124L265.56 100.869L267.091 98.9707L268.648 100.226Z" fill="#C76553" mask="url(#path-28-inside-2_505_16146)"/>
<path d="M273.149 104.049L274.528 105.483L291.426 102.747C289.462 101.664 287.178 101.306 284.977 101.737L273.149 104.049Z" fill="#8D655E"/>
<path d="M272.388 105.433L274.336 105.835L281.034 121.589C279.07 120.504 277.55 118.764 276.739 116.672L272.388 105.433Z" fill="#8D655E"/>
<path d="M271.72 103.264L273.849 104.439L292.388 102.692L291.313 102.098C289.321 100.998 287.013 100.611 284.77 101L271.72 103.264Z" fill="#FF775E"/>
<path d="M271.72 103.264L273.849 104.439L292.388 102.692L291.313 102.098C289.321 100.998 287.013 100.611 284.77 101L271.72 103.264Z" fill="url(#paint2_linear_505_16146)"/>
<path d="M273.85 104.438L271.721 103.264L272.262 103.17C272.308 103.205 273.745 103.992 274.458 104.381L273.85 104.438Z" fill="#753124"/>
<path d="M302.435 111.943C302.669 112.158 302.525 112.549 302.207 112.561C302.126 112.563 302.047 112.539 301.981 112.49L289.245 102.984L292.374 102.684L302.435 111.943Z" fill="#B44C38"/>
<path d="M292.375 102.684L289.246 102.985L290.132 103.646L293.345 103.577L292.375 102.684Z" fill="#753124"/>
<path d="M294.653 126.053C294.96 126.136 295.213 125.806 295.053 125.531C295.013 125.461 294.949 125.407 294.873 125.378L280.04 119.673L281.454 122.481L294.653 126.053Z" fill="#B44C38"/>
<path d="M270.929 104.697L273.058 105.872L281.467 122.486L280.392 121.893C278.399 120.794 276.84 119.049 275.974 116.944L270.929 104.697Z" fill="#FF775E"/>
<path d="M270.929 104.697L273.058 105.872L281.467 122.486L280.392 121.893C278.399 120.794 276.84 119.049 275.974 116.944L270.929 104.697Z" fill="url(#paint3_linear_505_16146)"/>
<path d="M273.059 105.872L270.93 104.697L271.139 105.205C271.193 105.225 272.625 106.021 273.334 106.416L273.059 105.872Z" fill="#753124"/>
<path d="M281.455 122.481L280.04 119.674L281.072 120.071L282.727 122.825L281.455 122.481Z" fill="#753124"/>
<rect width="1.63223" height="4.8967" rx="0.816117" transform="matrix(-0.483053 0.875591 0.875591 0.483053 270.633 102.668)" fill="#FF7258"/>
<defs>
<linearGradient id="paint0_linear_505_16146" x1="261.073" y1="123.493" x2="263.375" y2="142.327" gradientUnits="userSpaceOnUse">
<stop stop-color="#D94D33"/>
<stop offset="1" stop-color="#753124" stop-opacity="0"/>
</linearGradient>
<linearGradient id="paint1_linear_505_16146" x1="267.012" y1="120.018" x2="276.016" y2="135.397" gradientUnits="userSpaceOnUse">
<stop stop-color="#D94D33"/>
<stop offset="1" stop-color="#B44C38" stop-opacity="0"/>
</linearGradient>
<linearGradient id="paint2_linear_505_16146" x1="271.719" y1="103.264" x2="290.607" y2="105.085" gradientUnits="userSpaceOnUse">
<stop stop-color="#D94D33"/>
<stop offset="1" stop-color="#753124" stop-opacity="0"/>
</linearGradient>
<linearGradient id="paint3_linear_505_16146" x1="268.396" y1="109.288" x2="283.999" y2="117.896" gradientUnits="userSpaceOnUse">
<stop stop-color="#D94D33"/>
<stop offset="1" stop-color="#B44C38" stop-opacity="0"/>
</linearGradient>
</defs>
</svg>
