<svg width="351" height="265" viewBox="0 0 351 265" fill="none" xmlns="http://www.w3.org/2000/svg">
<rect x="0.464844" y="0.160156" width="350" height="264" fill="#7C92BC"/>
<path d="M171.863 113.729H229.863V185.729H171.863V113.729Z" fill="#B66B25"/>
<path d="M253.863 113.729H311.863V185.729H253.863V113.729Z" fill="#B66B25"/>
<path d="M193.297 105.746C193.297 103.537 195.088 101.746 197.297 101.746H204.43C206.639 101.746 208.43 103.537 208.43 105.746V113.729H193.297V105.746Z" fill="#B66B25"/>
<path d="M275.297 105.746C275.297 103.537 277.088 101.746 279.297 101.746H286.43C288.639 101.746 290.43 103.537 290.43 105.746V113.729H275.297V105.746Z" fill="#B66B25"/>
<path d="M171.863 105.746C171.863 103.537 173.654 101.746 175.863 101.746H182.996C185.205 101.746 186.996 103.537 186.996 105.746V113.729H171.863V105.746Z" fill="#B66B25"/>
<path d="M296.73 105.746C296.73 103.537 298.521 101.746 300.73 101.746H307.863C310.072 101.746 311.863 103.537 311.863 105.746V113.729H296.73V105.746Z" fill="#B66B25"/>
<path d="M168.465 113.729H226.465V185.729H168.465V113.729Z" fill="#E9A363"/>
<path d="M250.465 113.729H308.465V185.729H250.465V113.729Z" fill="#E9A363"/>
<path d="M189.898 105.746C189.898 103.537 191.689 101.746 193.898 101.746H201.031C203.24 101.746 205.031 103.537 205.031 105.746V113.729H189.898V105.746Z" fill="#E9A363"/>
<path d="M271.898 105.746C271.898 103.537 273.689 101.746 275.898 101.746H283.031C285.24 101.746 287.031 103.537 287.031 105.746V113.729H271.898V105.746Z" fill="#E9A363"/>
<path d="M168.465 105.746C168.465 103.537 170.256 101.746 172.465 101.746H179.598C181.807 101.746 183.598 103.537 183.598 105.746V113.729H168.465V105.746Z" fill="#E9A363"/>
<path d="M293.332 105.746C293.332 103.537 295.123 101.746 297.332 101.746H304.465C306.674 101.746 308.465 103.537 308.465 105.746V113.729H293.332V105.746Z" fill="#E9A363"/>
<path d="M259.809 113.729H270.926V185.729H259.809V113.729Z" fill="#E19752"/>
<rect x="211.752" y="91.8418" width="58" height="93.8867" fill="#A3673C"/>
<path d="M233.186 83.8594C233.186 81.6502 234.976 79.8594 237.186 79.8594H244.318C246.527 79.8594 248.318 81.6502 248.318 83.8594V91.8418H233.186V83.8594Z" fill="#A3673C"/>
<path d="M211.752 83.8594C211.752 81.6502 213.543 79.8594 215.752 79.8594H222.885C225.094 79.8594 226.885 81.6502 226.885 83.8594V91.8418H211.752V83.8594Z" fill="#A3673C"/>
<path d="M254.619 83.8594C254.619 81.6502 256.41 79.8594 258.619 79.8594H265.752C267.961 79.8594 269.752 81.6502 269.752 83.8594V91.8418H254.619V83.8594Z" fill="#A3673C"/>
<path d="M206.193 113.729H217.311V185.729H206.193V113.729Z" fill="#E19752"/>
<rect x="209.465" y="91.8418" width="58" height="93.8867" fill="#EABF98"/>
<path d="M230.898 83.8594C230.898 81.6502 232.689 79.8594 234.898 79.8594H242.031C244.24 79.8594 246.031 81.6502 246.031 83.8594V91.8418H230.898V83.8594Z" fill="#EABF98"/>
<path d="M209.465 83.8594C209.465 81.6502 211.256 79.8594 213.465 79.8594H220.598C222.807 79.8594 224.598 81.6502 224.598 83.8594V91.8418H209.465V83.8594Z" fill="#EABF98"/>
<path d="M252.332 83.8594C252.332 81.6502 254.123 79.8594 256.332 79.8594H263.465C265.674 79.8594 267.465 81.6502 267.465 83.8594V91.8418H252.332V83.8594Z" fill="#EABF98"/>
<g filter="url(#filter0_i_516_14738)">
<rect x="214.961" y="110.717" width="12.5918" height="17.4258" rx="4" fill="#B77A41"/>
</g>
<g filter="url(#filter1_i_516_14738)">
<rect x="232.168" y="110.717" width="12.5918" height="17.4258" rx="4" fill="#B77A41"/>
</g>
<g filter="url(#filter2_i_516_14738)">
<rect x="250.465" y="110.717" width="12.5918" height="17.4258" rx="4" fill="#B77A41"/>
</g>
<g filter="url(#filter3_i_516_14738)">
<path d="M221.93 163.12C221.93 153.989 229.332 146.586 238.464 146.586V146.586C247.595 146.586 254.998 153.989 254.998 163.12V185.573C254.998 185.659 254.928 185.729 254.842 185.729H222.086C222 185.729 221.93 185.659 221.93 185.573V163.12Z" fill="#B77A41"/>
</g>
<defs>
<filter id="filter0_i_516_14738" x="214.961" y="110.717" width="12.6918" height="17.5258" filterUnits="userSpaceOnUse" color-interpolation-filters="sRGB">
<feFlood flood-opacity="0" result="BackgroundImageFix"/>
<feBlend mode="normal" in="SourceGraphic" in2="BackgroundImageFix" result="shape"/>
<feColorMatrix in="SourceAlpha" type="matrix" values="0 0 0 0 0 0 0 0 0 0 0 0 0 0 0 0 0 0 127 0" result="hardAlpha"/>
<feOffset dx="1" dy="1"/>
<feGaussianBlur stdDeviation="0.05"/>
<feComposite in2="hardAlpha" operator="arithmetic" k2="-1" k3="1"/>
<feColorMatrix type="matrix" values="0 0 0 0 0.6375 0 0 0 0 0.403325 0 0 0 0 0.23375 0 0 0 1 0"/>
<feBlend mode="normal" in2="shape" result="effect1_innerShadow_516_14738"/>
</filter>
<filter id="filter1_i_516_14738" x="232.168" y="110.717" width="12.6918" height="17.5258" filterUnits="userSpaceOnUse" color-interpolation-filters="sRGB">
<feFlood flood-opacity="0" result="BackgroundImageFix"/>
<feBlend mode="normal" in="SourceGraphic" in2="BackgroundImageFix" result="shape"/>
<feColorMatrix in="SourceAlpha" type="matrix" values="0 0 0 0 0 0 0 0 0 0 0 0 0 0 0 0 0 0 127 0" result="hardAlpha"/>
<feOffset dx="1" dy="1"/>
<feGaussianBlur stdDeviation="0.05"/>
<feComposite in2="hardAlpha" operator="arithmetic" k2="-1" k3="1"/>
<feColorMatrix type="matrix" values="0 0 0 0 0.6375 0 0 0 0 0.403325 0 0 0 0 0.23375 0 0 0 1 0"/>
<feBlend mode="normal" in2="shape" result="effect1_innerShadow_516_14738"/>
</filter>
<filter id="filter2_i_516_14738" x="250.465" y="110.717" width="12.6918" height="17.5258" filterUnits="userSpaceOnUse" color-interpolation-filters="sRGB">
<feFlood flood-opacity="0" result="BackgroundImageFix"/>
<feBlend mode="normal" in="SourceGraphic" in2="BackgroundImageFix" result="shape"/>
<feColorMatrix in="SourceAlpha" type="matrix" values="0 0 0 0 0 0 0 0 0 0 0 0 0 0 0 0 0 0 127 0" result="hardAlpha"/>
<feOffset dx="1" dy="1"/>
<feGaussianBlur stdDeviation="0.05"/>
<feComposite in2="hardAlpha" operator="arithmetic" k2="-1" k3="1"/>
<feColorMatrix type="matrix" values="0 0 0 0 0.6375 0 0 0 0 0.403325 0 0 0 0 0.23375 0 0 0 1 0"/>
<feBlend mode="normal" in2="shape" result="effect1_innerShadow_516_14738"/>
</filter>
<filter id="filter3_i_516_14738" x="221.93" y="146.586" width="33.2684" height="39.3426" filterUnits="userSpaceOnUse" color-interpolation-filters="sRGB">
<feFlood flood-opacity="0" result="BackgroundImageFix"/>
<feBlend mode="normal" in="SourceGraphic" in2="BackgroundImageFix" result="shape"/>
<feColorMatrix in="SourceAlpha" type="matrix" values="0 0 0 0 0 0 0 0 0 0 0 0 0 0 0 0 0 0 127 0" result="hardAlpha"/>
<feOffset dx="2" dy="2"/>
<feGaussianBlur stdDeviation="0.1"/>
<feComposite in2="hardAlpha" operator="arithmetic" k2="-1" k3="1"/>
<feColorMatrix type="matrix" values="0 0 0 0 0.639216 0 0 0 0 0.403922 0 0 0 0 0.235294 0 0 0 1 0"/>
<feBlend mode="normal" in2="shape" result="effect1_innerShadow_516_14738"/>
</filter>
</defs>
</svg>
