<svg width="351" height="265" viewBox="0 0 351 265" fill="none" xmlns="http://www.w3.org/2000/svg">
<rect x="0.0234375" y="0.648438" width="350" height="264" fill="#D38D8D"/>
<path fill-rule="evenodd" clip-rule="evenodd" d="M197.276 81.5305L210.312 85.2873L210.312 85.2863L223.348 89.0433L195.008 187.38L181.972 183.623L181.972 183.624L168.936 179.867L197.276 81.5305ZM236.385 92.8011L223.348 89.0441L195.008 187.381L208.044 191.138L236.385 92.8011ZM236.386 92.8L249.42 96.5563L249.42 96.5559L262.456 100.313L234.116 198.65L221.082 194.893L221.082 194.894L208.045 191.137L236.386 92.8ZM275.493 104.071L262.457 100.314L234.117 198.651L247.153 202.408L275.493 104.071ZM288.529 107.828L275.493 104.071L247.153 202.408L260.189 206.165L288.529 107.828Z" fill="#442B26"/>
<rect x="201.449" y="82.543" width="13.5668" height="102.339" transform="rotate(16.0767 201.449 82.543)" fill="#E7F1F3"/>
<rect x="214.484" y="86.3027" width="13.5668" height="102.339" transform="rotate(16.0767 214.484 86.3027)" fill="#357280"/>
<rect x="227.52" y="90.0586" width="13.5668" height="102.339" transform="rotate(16.0767 227.52 90.0586)" fill="#E7F1F3"/>
<rect x="240.557" y="93.8145" width="13.5668" height="102.339" transform="rotate(16.0767 240.557 93.8145)" fill="#357280"/>
<rect x="266.629" y="101.328" width="13.5668" height="102.339" transform="rotate(16.0767 266.629 101.328)" fill="#357280"/>
<rect x="253.594" y="97.5723" width="13.5668" height="102.339" transform="rotate(16.0767 253.594 97.5723)" fill="#E7F1F3"/>
<rect x="279.666" y="105.084" width="13.5668" height="102.339" transform="rotate(16.0767 279.666 105.084)" fill="#E7F1F3"/>
<path fill-rule="evenodd" clip-rule="evenodd" d="M258.088 129.706C254.106 132.99 253.278 138.766 256.177 143.036L270.987 164.858L270.988 164.858C273.152 168.555 278.192 169.628 282.303 167.221C286.414 164.814 288.001 159.861 285.837 156.165L285.838 156.164L273.225 131.273C270.649 126.192 264.027 124.808 259.633 128.432L258.088 129.706Z" fill="#0D1F23"/>
<path fill-rule="evenodd" clip-rule="evenodd" d="M259.415 128.817C255.539 132.108 254.751 137.785 257.583 142.008L272.365 164.052L272.366 164.052C274.53 167.748 279.294 168.983 283.06 166.778C286.826 164.573 288.133 159.785 285.969 156.088L285.97 156.088L272.82 130.464C270.441 125.826 264.36 124.617 260.387 127.991L259.415 128.817Z" fill="#DFE9EB"/>
<mask id="path-12-inside-1_505_16143" fill="white">
<path fill-rule="evenodd" clip-rule="evenodd" d="M259.415 128.817C255.539 132.108 254.751 137.785 257.583 142.008L272.365 164.052L272.366 164.052C274.53 167.748 279.294 168.983 283.06 166.778C286.826 164.573 288.133 159.785 285.969 156.088L285.97 156.088L272.82 130.464C270.441 125.826 264.36 124.617 260.387 127.991L259.415 128.817Z"/>
</mask>
<path d="M257.583 142.008L258.413 141.451L257.583 142.008ZM259.415 128.817L260.062 129.579L259.415 128.817ZM272.365 164.052L271.534 164.609L272.058 165.391L272.87 164.915L272.365 164.052ZM272.366 164.052L273.229 163.546L272.724 162.684L271.861 163.189L272.366 164.052ZM285.969 156.088L285.464 155.225L284.601 155.73L285.106 156.593L285.969 156.088ZM285.97 156.088L286.475 156.951L287.291 156.473L286.859 155.631L285.97 156.088ZM272.82 130.464L271.931 130.92L272.82 130.464ZM260.387 127.991L259.74 127.229L260.387 127.991ZM258.413 141.451C255.864 137.65 256.574 132.541 260.062 129.579L258.768 128.054C254.504 131.675 253.637 137.919 256.752 142.565L258.413 141.451ZM273.195 163.495L258.413 141.451L256.752 142.565L271.534 164.609L273.195 163.495ZM271.861 163.189L271.859 163.189L272.87 164.915L272.871 164.915L271.861 163.189ZM271.503 164.557C273.951 168.738 279.331 170.12 283.565 167.641L282.555 165.915C279.257 167.845 275.11 166.758 273.229 163.546L271.503 164.557ZM283.565 167.641C287.792 165.167 289.284 159.772 286.832 155.583L285.106 156.593C286.981 159.797 285.861 163.979 282.555 165.915L283.565 167.641ZM285.464 155.225L285.464 155.225L286.474 156.951L286.475 156.951L285.464 155.225ZM271.931 130.92L285.08 156.544L286.859 155.631L273.71 130.007L271.931 130.92ZM261.034 128.754C264.516 125.797 269.845 126.856 271.931 130.92L273.71 130.007C271.036 124.797 264.204 123.438 259.74 127.229L261.034 128.754ZM260.062 129.579L261.034 128.754L259.74 127.229L258.768 128.054L260.062 129.579Z" fill="#228093" mask="url(#path-12-inside-1_505_16143)"/>
<path d="M262.836 134.043L264.154 135.248L262.086 150.474C261.069 148.736 260.696 146.695 261.032 144.71L262.836 134.043Z" fill="#6A7173"/>
<path d="M264.059 133.326L264.464 135.065L278.754 140.714C277.736 138.977 276.139 137.653 274.243 136.974L264.059 133.326Z" fill="#6A7173"/>
<path d="M262.096 132.775L263.199 134.66L262.056 151.335L261.681 150.695C260.53 148.731 260.084 146.434 260.416 144.182L262.096 132.775Z" fill="#40C0DA"/>
<path d="M262.096 132.775L263.199 134.66L262.056 151.335L261.681 150.695C260.53 148.731 260.084 146.434 260.416 144.182L262.096 132.775Z" fill="url(#paint0_linear_505_16143)"/>
<path d="M263.201 134.662L262.098 132.778L262.026 133.265C262.059 133.306 262.798 134.578 263.164 135.208L263.201 134.662Z" fill="#0D1F23"/>
<path d="M270.589 160.142C270.788 160.347 271.135 160.208 271.138 159.923C271.139 159.85 271.115 159.779 271.07 159.722L262.248 148.51L262.05 151.325L270.589 160.142Z" fill="#20606D"/>
<path d="M262.052 151.326L262.25 148.511L262.864 149.291L262.875 152.176L262.052 151.326Z" fill="#0D1F23"/>
<path d="M283.074 152.835C283.155 153.109 282.865 153.344 282.614 153.207C282.55 153.172 282.5 153.116 282.472 153.049L277.014 139.868L279.566 141.073L283.074 152.835Z" fill="#20606D"/>
<path d="M263.367 132.035L264.47 133.919L279.571 141.085L279.196 140.444C278.047 138.48 276.262 136.966 274.136 136.153L263.367 132.035Z" fill="#40C0DA"/>
<path d="M263.367 132.035L264.47 133.919L279.571 141.085L279.196 140.444C278.047 138.48 276.262 136.966 274.136 136.153L263.367 132.035Z" fill="url(#paint1_linear_505_16143)"/>
<path d="M264.468 133.919L263.365 132.035L263.825 132.211C263.845 132.259 264.592 133.526 264.962 134.153L264.468 133.919Z" fill="#0D1F23"/>
<path d="M279.566 141.072L277.014 139.867L277.394 140.784L279.904 142.206L279.566 141.072Z" fill="#0D1F23"/>
<rect x="261.539" y="131.816" width="1.46519" height="4.39557" rx="0.732594" transform="rotate(-30.3463 261.539 131.816)" fill="#66BACB"/>
<path d="M275.291 163.862L273.492 160.789L274.647 160.113C275.351 159.701 275.978 159.909 276.326 160.498C276.668 161.087 276.538 161.736 275.829 162.151L275.234 162.499L275.843 163.539L275.291 163.862ZM274.968 162.045L275.486 161.742C275.901 161.496 275.951 161.153 275.761 160.829C275.568 160.5 275.249 160.382 274.833 160.626L274.315 160.929L274.968 162.045Z" fill="#C6D6DA"/>
<path d="M278.16 162.229C277.977 162.336 277.739 162.275 277.635 162.092C277.528 161.914 277.593 161.68 277.774 161.571C277.952 161.47 278.188 161.528 278.293 161.706C278.399 161.889 278.336 162.126 278.16 162.229Z" fill="#C6D6DA"/>
<path d="M279.014 161.683L277.215 158.61L278.369 157.934C279.074 157.521 279.701 157.73 280.048 158.319C280.39 158.908 280.26 159.557 279.551 159.972L278.957 160.32L279.566 161.36L279.014 161.683ZM278.691 159.866L279.209 159.562C279.624 159.317 279.674 158.974 279.484 158.649C279.291 158.32 278.971 158.203 278.555 158.446L278.038 158.749L278.691 159.866Z" fill="#C6D6DA"/>
<path d="M280.415 156.736L282.215 159.809L281.671 160.127L279.872 157.054L280.415 156.736Z" fill="#C6D6DA"/>
<path d="M283.783 158.954C283.089 159.36 282.391 159.147 281.969 158.426C281.551 157.712 281.701 156.975 282.359 156.59C282.924 156.259 283.619 156.328 284.093 157.137L284.192 157.306L282.583 158.248C282.822 158.636 283.19 158.734 283.539 158.527C283.778 158.39 283.877 158.195 283.866 158.016L284.397 157.705C284.533 158.161 284.318 158.641 283.783 158.954ZM282.369 157.878L283.458 157.24C283.272 156.927 282.926 156.822 282.614 157.005C282.289 157.195 282.217 157.574 282.369 157.878Z" fill="#C6D6DA"/>
<path fill-rule="evenodd" clip-rule="evenodd" d="M272.891 115.111C276.32 111.254 282.122 110.64 286.283 113.695L307.54 129.303L307.54 129.303C311.154 131.602 312.04 136.679 309.482 140.698C306.925 144.717 301.917 146.119 298.303 143.821L298.302 143.823L273.896 130.295C268.913 127.534 267.776 120.865 271.561 116.608L272.891 115.111Z" fill="#0D1F23"/>
<path fill-rule="evenodd" clip-rule="evenodd" d="M272.603 114.942C276.036 111.191 281.738 110.613 285.854 113.6L307.335 129.189L307.334 129.19C310.947 131.49 312.004 136.296 309.661 139.977C307.319 143.659 302.486 144.787 298.872 142.488L298.871 142.489L273.753 128.399C269.206 125.849 268.223 119.728 271.742 115.883L272.603 114.942Z" fill="#DFE9EB"/>
<mask id="path-28-inside-2_505_16143" fill="white">
<path fill-rule="evenodd" clip-rule="evenodd" d="M272.603 114.942C276.036 111.191 281.738 110.613 285.854 113.6L307.335 129.189L307.334 129.19C310.947 131.49 312.004 136.296 309.661 139.977C307.319 143.659 302.486 144.787 298.872 142.488L298.871 142.489L273.753 128.399C269.206 125.849 268.223 119.728 271.742 115.883L272.603 114.942Z"/>
</mask>
<path d="M285.854 113.6L286.441 112.791L285.854 113.6ZM272.603 114.942L273.341 115.617L272.603 114.942ZM307.335 129.189L307.922 128.379L308.684 128.932L308.179 129.726L307.335 129.189ZM307.334 129.19L306.797 130.033L305.954 129.496L306.491 128.653L307.334 129.19ZM298.872 142.488L298.028 141.951L298.565 141.108L299.409 141.645L298.872 142.488ZM298.871 142.489L299.715 143.026L299.207 143.824L298.382 143.361L298.871 142.489ZM273.753 128.399L274.242 127.527L273.753 128.399ZM271.742 115.883L271.005 115.208L271.742 115.883ZM285.266 114.409C281.562 111.721 276.431 112.241 273.341 115.617L271.866 114.267C275.642 110.141 281.914 109.505 286.441 112.791L285.266 114.409ZM306.748 129.998L285.266 114.409L286.441 112.791L307.922 128.379L306.748 129.998ZM306.491 128.653L306.491 128.652L308.179 129.726L308.178 129.727L306.491 128.653ZM307.871 128.346C311.958 130.948 313.139 136.374 310.505 140.514L308.818 139.44C310.869 136.217 309.937 132.032 306.797 130.033L307.871 128.346ZM310.505 140.514C307.876 144.645 302.431 145.937 298.335 143.332L299.409 141.645C302.54 143.637 306.761 142.672 308.818 139.44L310.505 140.514ZM298.028 141.952L298.028 141.951L299.715 143.025L299.715 143.026L298.028 141.952ZM274.242 127.527L299.361 141.617L298.382 143.361L273.263 129.271L274.242 127.527ZM272.48 116.558C269.396 119.928 270.258 125.292 274.242 127.527L273.263 129.271C268.155 126.406 267.051 119.529 271.005 115.208L272.48 116.558ZM273.341 115.617L272.48 116.558L271.005 115.208L271.866 114.267L273.341 115.617Z" fill="#228093" mask="url(#path-28-inside-2_505_16143)"/>
<path d="M277.702 118.554L278.856 119.915L294.149 118.413C292.45 117.332 290.424 116.884 288.428 117.146L277.702 118.554Z" fill="#6A7173"/>
<path d="M276.939 119.749L278.662 120.218L283.778 134.708C282.079 133.626 280.815 131.981 280.207 130.062L276.939 119.749Z" fill="#6A7173"/>
<path d="M276.462 117.768L278.304 118.94L295.011 118.415L294.385 118.017C292.465 116.794 290.186 116.263 287.923 116.511L276.462 117.768Z" fill="#40C0DA"/>
<path d="M276.462 117.768L278.304 118.94L295.011 118.415L294.385 118.017C292.465 116.794 290.186 116.263 287.923 116.511L276.462 117.768Z" fill="url(#paint2_linear_505_16143)"/>
<path d="M278.305 118.94L276.463 117.768L276.953 117.714C276.993 117.748 278.236 118.534 278.852 118.923L278.305 118.94Z" fill="#0D1F23"/>
<path d="M303.494 127.271C303.691 127.477 303.54 127.819 303.255 127.811C303.182 127.809 303.112 127.783 303.056 127.736L292.179 118.504L294.999 118.411L303.494 127.271Z" fill="#20606D"/>
<path d="M295.001 118.41L292.181 118.504L292.937 119.146L295.82 119.264L295.001 118.41Z" fill="#0D1F23"/>
<path d="M295.731 139.473C296.001 139.565 296.247 139.283 296.119 139.028C296.087 138.963 296.033 138.911 295.967 138.88L282.997 132.937L284.107 135.532L295.731 139.473Z" fill="#20606D"/>
<path d="M275.675 119.009L277.517 120.182L284.118 135.538L283.492 135.14C281.571 133.919 280.124 132.079 279.391 129.924L275.675 119.009Z" fill="#40C0DA"/>
<path d="M275.675 119.009L277.517 120.182L284.118 135.538L283.492 135.14C281.571 133.919 280.124 132.079 279.391 129.924L275.675 119.009Z" fill="url(#paint3_linear_505_16143)"/>
<path d="M277.515 120.182L275.673 119.01L275.832 119.476C275.88 119.497 277.118 120.291 277.731 120.684L277.515 120.182Z" fill="#0D1F23"/>
<path d="M284.104 135.531L282.995 132.937L283.897 133.35L285.225 135.911L284.104 135.531Z" fill="#0D1F23"/>
<rect width="1.46519" height="4.39557" rx="0.732594" transform="matrix(-0.536859 0.843672 0.843672 0.536859 275.523 117.176)" fill="#66BACB"/>
<defs>
<linearGradient id="paint0_linear_505_16143" x1="262.096" y1="132.775" x2="264.162" y2="149.682" gradientUnits="userSpaceOnUse">
<stop stop-color="#0D5564"/>
<stop offset="1" stop-color="#41B0C6" stop-opacity="0"/>
</linearGradient>
<linearGradient id="paint1_linear_505_16143" x1="267.428" y1="129.657" x2="275.51" y2="143.462" gradientUnits="userSpaceOnUse">
<stop stop-color="#0D5564"/>
<stop offset="1" stop-color="#40BFD8" stop-opacity="0"/>
</linearGradient>
<linearGradient id="paint2_linear_505_16143" x1="276.462" y1="117.768" x2="293.281" y2="120.459" gradientUnits="userSpaceOnUse">
<stop stop-color="#0D5564"/>
<stop offset="1" stop-color="#41B0C6" stop-opacity="0"/>
</linearGradient>
<linearGradient id="paint3_linear_505_16143" x1="273.148" y1="122.98" x2="286.644" y2="131.568" gradientUnits="userSpaceOnUse">
<stop stop-color="#0D5564"/>
<stop offset="1" stop-color="#40BFD8" stop-opacity="0"/>
</linearGradient>
</defs>
</svg>
