<svg width="351" height="265" viewBox="0 0 351 265" fill="none" xmlns="http://www.w3.org/2000/svg">
<rect x="0.666016" y="0.794922" width="350" height="264" fill="#B8693D"/>
<path d="M244.326 193.62C279.857 193.62 308.661 164.817 308.661 129.285H179.99C179.99 164.817 208.794 193.62 244.326 193.62Z" fill="#4841A6"/>
<path d="M179.995 129.285H308.666C308.666 144.627 303.296 158.715 294.332 169.771C277.616 170.166 259.45 169.229 242.016 166.141C190.242 156.971 179.722 138.251 179.995 129.285Z" fill="#353071"/>
<ellipse cx="244.326" cy="129.285" rx="64.3353" ry="32.1677" fill="#8F87F3"/>
<path d="M282.789 85.8238C282.824 85.4217 282.848 85.0196 282.848 84.606C282.848 77.6211 277.017 71.9688 269.812 71.9688C269.409 71.9688 269.018 71.9917 268.627 72.0262C275.275 72.6121 280.478 78.0117 280.478 84.606C280.478 85.0196 280.454 85.4217 280.419 85.8238C285.124 86.3638 288.774 90.2469 288.774 94.9457C288.774 100.024 284.531 104.136 279.293 104.136H281.663C286.901 104.136 291.144 100.024 291.144 94.9457C291.144 90.2354 287.494 86.3638 282.789 85.8238Z" fill="#ABA9C8"/>
<path d="M280.418 85.8238C280.454 85.4217 280.477 85.0196 280.477 84.606C280.477 78.0117 275.275 72.6121 268.626 72.0262C268.235 71.9917 267.844 71.9688 267.441 71.9688C260.236 71.9688 254.405 77.6211 254.405 84.606C254.405 85.0196 254.429 85.4217 254.464 85.8238C249.759 86.3638 246.109 90.2469 246.109 94.9457C246.109 100.024 250.352 104.136 255.59 104.136H279.292C284.53 104.136 288.773 100.024 288.773 94.9457C288.773 90.2354 285.123 86.3638 280.418 85.8238Z" fill="#E7E6F0"/>
<path d="M280.031 85.8266C275.449 85.8266 271.734 89.4276 271.734 93.8696H270.549C270.549 88.7931 274.794 84.6777 280.031 84.6777C280.191 84.6777 280.35 84.6816 280.509 84.6892V85.8397C280.351 85.831 280.191 85.8266 280.031 85.8266Z" fill="#ABA9C8"/>
<path d="M224.359 100.689C224.395 100.287 224.419 99.8849 224.419 99.4713C224.419 92.4863 218.588 86.834 211.382 86.834C210.979 86.834 210.588 86.857 210.197 86.8914C216.846 87.4773 222.048 92.8769 222.048 99.4713C222.048 99.8849 222.025 100.287 221.989 100.689C226.694 101.229 230.344 105.112 230.344 109.811C230.344 114.889 226.101 119.002 220.863 119.002H223.234C228.472 119.002 232.714 114.889 232.714 109.811C232.714 105.101 229.064 101.229 224.359 100.689Z" fill="#ABA9C8"/>
<path d="M221.989 100.689C222.024 100.287 222.048 99.8849 222.048 99.4713C222.048 92.8769 216.845 87.4773 210.197 86.8914C209.806 86.857 209.415 86.834 209.012 86.834C201.806 86.834 195.975 92.4863 195.975 99.4713C195.975 99.8849 195.999 100.287 196.035 100.689C191.33 101.229 187.68 105.112 187.68 109.811C187.68 114.889 191.922 119.002 197.161 119.002H220.863C226.101 119.002 230.344 114.889 230.344 109.811C230.344 105.101 226.694 101.229 221.989 100.689Z" fill="#E7E6F0"/>
<path d="M221.601 100.692C217.019 100.692 213.304 104.293 213.304 108.735H212.119C212.119 103.658 216.364 99.543 221.601 99.543C221.761 99.543 221.921 99.5468 222.079 99.5544V100.705C221.921 100.696 221.762 100.692 221.601 100.692Z" fill="#ABA9C8"/>
<path d="M260.198 134.755C259.798 134.088 260.278 133.24 261.055 133.24H280.04C280.818 133.24 281.298 134.088 280.898 134.755L278.72 138.384C278.54 138.685 278.214 138.87 277.863 138.87H263.233C262.882 138.87 262.556 138.685 262.375 138.384L260.198 134.755Z" fill="#4841A6"/>
<path d="M259.743 133.997C259.543 133.664 259.784 133.24 260.172 133.24H280.924C281.312 133.24 281.552 133.664 281.352 133.997L278.575 138.627C278.484 138.777 278.322 138.87 278.146 138.87H262.95C262.774 138.87 262.611 138.777 262.521 138.627L259.743 133.997Z" fill="#4841A6"/>
<path d="M266.045 133.24H280.924C281.313 133.24 281.553 133.664 281.353 133.998L279.546 137.009L270.226 134.486L266.045 133.24Z" fill="#353071"/>
<path d="M269.984 116.991C269.984 116.68 270.236 116.428 270.547 116.428V116.428C270.858 116.428 271.11 116.68 271.11 116.991V133.316H269.984V116.991Z" fill="#4841A6"/>
<path d="M270.547 116.916L279.123 127.636C279.336 127.902 279.227 128.298 278.908 128.417L270.547 131.552V116.916Z" fill="#353071"/>
<path d="M270.547 117.479L277.531 127.686C277.706 127.941 277.609 128.293 277.328 128.422L270.547 131.552V117.479Z" fill="#8F87F3"/>
<path d="M269.984 119.168L265.152 128.833C265.024 129.088 265.136 129.398 265.396 129.513L269.984 131.553V119.168Z" fill="#E7E6F0"/>
<path d="M269.984 119.168L269.958 119.743L269.42 131.305L269.984 131.553V119.168Z" fill="#ABA9C8"/>
<rect x="262.221" y="139.92" width="21.8848" height="1" rx="0.5" fill="#4841A6"/>
<rect x="266.164" y="141.549" width="16.0859" height="1" rx="0.5" fill="#4841A6"/>
</svg>
