<svg width="351" height="265" viewBox="0 0 351 265" fill="none" xmlns="http://www.w3.org/2000/svg">
<rect x="0.666016" y="0.0449219" width="350" height="264" fill="#974444"/>
<path d="M244.326 192.87C279.857 192.87 308.661 164.067 308.661 128.535H179.99C179.99 164.067 208.794 192.87 244.326 192.87Z" fill="#4841A6"/>
<path d="M179.995 128.535H308.666C308.666 143.877 303.296 157.965 294.332 169.021C277.616 169.416 259.45 168.479 242.016 165.391C190.242 156.221 179.722 137.501 179.995 128.535Z" fill="#353071"/>
<ellipse cx="244.326" cy="128.535" rx="64.3353" ry="32.1677" fill="#8F87F3"/>
<path d="M282.789 85.0738C282.824 84.6717 282.848 84.2696 282.848 83.856C282.848 76.8711 277.017 71.2188 269.812 71.2188C269.409 71.2188 269.018 71.2417 268.627 71.2762C275.275 71.8621 280.478 77.2617 280.478 83.856C280.478 84.2696 280.454 84.6717 280.419 85.0738C285.124 85.6138 288.774 89.4969 288.774 94.1957C288.774 99.2735 284.531 103.386 279.293 103.386H281.663C286.901 103.386 291.144 99.2735 291.144 94.1957C291.144 89.4854 287.494 85.6138 282.789 85.0738Z" fill="#ABA9C8"/>
<path d="M280.418 85.0738C280.454 84.6717 280.477 84.2696 280.477 83.856C280.477 77.2617 275.275 71.8621 268.626 71.2762C268.235 71.2417 267.844 71.2188 267.441 71.2188C260.236 71.2188 254.405 76.8711 254.405 83.856C254.405 84.2696 254.429 84.6717 254.464 85.0738C249.759 85.6138 246.109 89.4969 246.109 94.1957C246.109 99.2735 250.352 103.386 255.59 103.386H279.292C284.53 103.386 288.773 99.2735 288.773 94.1957C288.773 89.4854 285.123 85.6138 280.418 85.0738Z" fill="#E7E6F0"/>
<path d="M280.031 85.0766C275.449 85.0766 271.734 88.6776 271.734 93.1196H270.549C270.549 88.0431 274.794 83.9277 280.031 83.9277C280.191 83.9277 280.35 83.9316 280.509 83.9392V85.0897C280.351 85.081 280.191 85.0766 280.031 85.0766Z" fill="#ABA9C8"/>
<path d="M224.359 99.9391C224.395 99.537 224.419 99.1349 224.419 98.7213C224.419 91.7363 218.588 86.084 211.382 86.084C210.979 86.084 210.588 86.107 210.197 86.1414C216.846 86.7273 222.048 92.1269 222.048 98.7213C222.048 99.1349 222.025 99.537 221.989 99.9391C226.694 100.479 230.344 104.362 230.344 109.061C230.344 114.139 226.101 118.252 220.863 118.252H223.234C228.472 118.252 232.714 114.139 232.714 109.061C232.714 104.351 229.064 100.479 224.359 99.9391Z" fill="#ABA9C8"/>
<path d="M221.989 99.9391C222.024 99.537 222.048 99.1349 222.048 98.7213C222.048 92.1269 216.845 86.7273 210.197 86.1414C209.806 86.107 209.415 86.084 209.012 86.084C201.806 86.084 195.975 91.7363 195.975 98.7213C195.975 99.1349 195.999 99.537 196.035 99.9391C191.33 100.479 187.68 104.362 187.68 109.061C187.68 114.139 191.922 118.252 197.161 118.252H220.863C226.101 118.252 230.344 114.139 230.344 109.061C230.344 104.351 226.694 100.479 221.989 99.9391Z" fill="#E7E6F0"/>
<path d="M221.601 99.9418C217.019 99.9418 213.304 103.543 213.304 107.985H212.119C212.119 102.908 216.364 98.793 221.601 98.793C221.761 98.793 221.921 98.7968 222.079 98.8044V99.9549C221.921 99.9462 221.762 99.9418 221.601 99.9418Z" fill="#ABA9C8"/>
<path d="M260.198 134.005C259.798 133.338 260.278 132.49 261.055 132.49H280.04C280.818 132.49 281.298 133.338 280.898 134.005L278.72 137.634C278.54 137.935 278.214 138.12 277.863 138.12H263.233C262.882 138.12 262.556 137.935 262.375 137.634L260.198 134.005Z" fill="#4841A6"/>
<path d="M259.743 133.247C259.543 132.914 259.784 132.49 260.172 132.49H280.924C281.312 132.49 281.552 132.914 281.352 133.247L278.575 137.877C278.484 138.027 278.322 138.12 278.146 138.12H262.95C262.774 138.12 262.611 138.027 262.521 137.877L259.743 133.247Z" fill="#4841A6"/>
<path d="M266.045 132.49H280.924C281.313 132.49 281.553 132.914 281.353 133.248L279.546 136.259L270.226 133.736L266.045 132.49Z" fill="#353071"/>
<path d="M269.984 116.241C269.984 115.93 270.236 115.678 270.547 115.678V115.678C270.858 115.678 271.11 115.93 271.11 116.241V132.566H269.984V116.241Z" fill="#4841A6"/>
<path d="M270.547 116.166L279.123 126.886C279.336 127.152 279.227 127.548 278.908 127.667L270.547 130.802V116.166Z" fill="#353071"/>
<path d="M270.547 116.729L277.531 126.936C277.706 127.191 277.609 127.543 277.328 127.672L270.547 130.802V116.729Z" fill="#8F87F3"/>
<path d="M269.984 118.418L265.152 128.083C265.024 128.338 265.136 128.648 265.396 128.763L269.984 130.803V118.418Z" fill="#E7E6F0"/>
<path d="M269.984 118.418L269.958 118.993L269.42 130.555L269.984 130.803V118.418Z" fill="#ABA9C8"/>
<rect x="262.221" y="139.17" width="21.8848" height="1" rx="0.5" fill="#4841A6"/>
<rect x="266.164" y="140.799" width="16.0859" height="1" rx="0.5" fill="#4841A6"/>
</svg>
