<svg width="351" height="234" viewBox="0 0 351 234" fill="none" xmlns="http://www.w3.org/2000/svg">
<rect x="0.666016" y="0.826172" width="350" height="233" fill="#D57070"/>
<path d="M258.982 165.939C286.42 165.939 308.662 143.697 308.662 116.26H209.303C209.303 143.697 231.545 165.939 258.982 165.939Z" fill="#4841A6"/>
<path d="M209.307 116.26H308.666C308.666 128.107 304.519 138.986 297.598 147.523C284.689 147.828 270.662 147.104 257.199 144.72C217.219 137.639 209.096 123.183 209.307 116.26Z" fill="#353071"/>
<ellipse cx="258.982" cy="116.26" rx="49.6797" ry="24.8398" fill="#8F87F3"/>
<path d="M288.684 82.6989C288.711 82.3884 288.73 82.0779 288.73 81.7585C288.73 76.3647 284.227 72 278.663 72C278.352 72 278.05 72.0177 277.748 72.0444C282.882 72.4968 286.899 76.6663 286.899 81.7585C286.899 82.0779 286.881 82.3884 286.854 82.6989C290.487 83.1158 293.305 86.1143 293.305 89.7427C293.305 93.6639 290.029 96.8398 285.984 96.8398H287.815C291.859 96.8398 295.136 93.6639 295.136 89.7427C295.136 86.1055 292.317 83.1158 288.684 82.6989Z" fill="#ABA9C8"/>
<path d="M286.852 82.6989C286.88 82.3884 286.898 82.0779 286.898 81.7585C286.898 76.6663 282.881 72.4968 277.747 72.0444C277.445 72.0177 277.143 72 276.832 72C271.268 72 266.765 76.3647 266.765 81.7585C266.765 82.0779 266.784 82.3884 266.811 82.6989C263.178 83.1158 260.359 86.1143 260.359 89.7427C260.359 93.6639 263.636 96.8398 267.68 96.8398H285.983C290.028 96.8398 293.304 93.6639 293.304 89.7427C293.304 86.1055 290.486 83.1158 286.852 82.6989Z" fill="#E7E6F0"/>
<path d="M286.554 82.7016C283.016 82.7016 280.148 85.4823 280.148 88.9124H279.232C279.232 84.9923 282.511 81.8145 286.554 81.8145C286.678 81.8145 286.801 81.8174 286.923 81.8233V82.7117C286.801 82.705 286.678 82.7016 286.554 82.7016Z" fill="#ABA9C8"/>
<path d="M243.565 94.1774C243.592 93.8669 243.611 93.5564 243.611 93.237C243.611 87.8432 239.108 83.4785 233.544 83.4785C233.233 83.4785 232.931 83.4963 232.629 83.5229C237.763 83.9753 241.78 88.1449 241.78 93.237C241.78 93.5564 241.762 93.8669 241.735 94.1774C245.368 94.5943 248.186 97.5929 248.186 101.221C248.186 105.142 244.91 108.318 240.865 108.318H242.695C246.74 108.318 250.017 105.142 250.017 101.221C250.017 97.584 247.198 94.5943 243.565 94.1774Z" fill="#ABA9C8"/>
<path d="M241.734 94.1774C241.761 93.8669 241.779 93.5564 241.779 93.237C241.779 88.1449 237.762 83.9753 232.628 83.5229C232.326 83.4963 232.024 83.4785 231.713 83.4785C226.149 83.4785 221.646 87.8432 221.646 93.237C221.646 93.5564 221.665 93.8669 221.692 94.1774C218.059 94.5943 215.24 97.5929 215.24 101.221C215.24 105.142 218.516 108.318 222.561 108.318H240.864C244.909 108.318 248.185 105.142 248.185 101.221C248.185 97.584 245.367 94.5943 241.734 94.1774Z" fill="#E7E6F0"/>
<path d="M241.435 94.1801C237.897 94.1801 235.028 96.9608 235.028 100.391H234.113C234.113 96.4708 237.391 93.293 241.435 93.293C241.559 93.293 241.682 93.2959 241.804 93.3018V94.1902C241.682 94.1835 241.559 94.1801 241.435 94.1801Z" fill="#ABA9C8"/>
<path d="M271.446 120.827C271.046 120.16 271.526 119.312 272.303 119.312H286.159C286.936 119.312 287.416 120.16 287.016 120.827L285.608 123.174C285.428 123.475 285.102 123.66 284.751 123.66H273.712C273.36 123.66 273.035 123.475 272.854 123.174L271.446 120.827Z" fill="#4841A6"/>
<path d="M270.991 120.07C270.792 119.736 271.032 119.312 271.42 119.312H287.042C287.431 119.312 287.671 119.736 287.471 120.07L285.463 123.417C285.372 123.567 285.209 123.66 285.034 123.66H273.428C273.253 123.66 273.09 123.567 273 123.417L270.991 120.07Z" fill="#4841A6"/>
<path d="M275.754 119.312H287.042C287.431 119.312 287.671 119.737 287.471 120.07L286.179 122.223L278.982 120.274L275.754 119.312Z" fill="#353071"/>
<path d="M278.797 106.765C278.797 106.525 278.991 106.33 279.232 106.33V106.33C279.472 106.33 279.666 106.525 279.666 106.765V119.371H278.797V106.765Z" fill="#4841A6"/>
<path d="M279.23 106.707L285.755 114.863C285.967 115.128 285.858 115.524 285.54 115.643L279.23 118.009V106.707Z" fill="#353071"/>
<path d="M279.23 107.141L284.547 114.912C284.722 115.167 284.625 115.518 284.344 115.648L279.23 118.008V107.141Z" fill="#8F87F3"/>
<path d="M278.797 108.445L275.119 115.802C274.991 116.057 275.102 116.367 275.363 116.482L278.797 118.009V108.445Z" fill="#E7E6F0"/>
<path d="M278.797 108.445L278.776 108.889L278.361 117.817L278.797 118.009V108.445Z" fill="#ABA9C8"/>
<rect x="272.801" y="124.473" width="16.8994" height="0.772199" rx="0.386099" fill="#4841A6"/>
<rect x="275.846" y="125.73" width="12.4215" height="0.772199" rx="0.386099" fill="#4841A6"/>
</svg>
