<svg width="351" height="265" viewBox="0 0 351 265" fill="none" xmlns="http://www.w3.org/2000/svg">
<rect x="0.666016" y="0.216797" width="350" height="264" fill="#44976F"/>
<path d="M244.326 193.042C279.857 193.042 308.661 164.238 308.661 128.707H179.99C179.99 164.238 208.794 193.042 244.326 193.042Z" fill="#4841A6"/>
<path d="M179.995 128.707H308.666C308.666 144.049 303.296 158.137 294.332 169.193C277.616 169.588 259.45 168.651 242.016 165.563C190.242 156.393 179.722 137.673 179.995 128.707Z" fill="#353071"/>
<ellipse cx="244.326" cy="128.707" rx="64.3353" ry="32.1677" fill="#8F87F3"/>
<path d="M282.789 85.2457C282.824 84.8436 282.848 84.4415 282.848 84.0279C282.848 77.0429 277.017 71.3906 269.812 71.3906C269.409 71.3906 269.018 71.4136 268.627 71.4481C275.275 72.034 280.478 77.4336 280.478 84.0279C280.478 84.4415 280.454 84.8436 280.419 85.2457C285.124 85.7857 288.774 89.6687 288.774 94.3675C288.774 99.4454 284.531 103.558 279.293 103.558H281.663C286.901 103.558 291.144 99.4454 291.144 94.3675C291.144 89.6573 287.494 85.7857 282.789 85.2457Z" fill="#ABA9C8"/>
<path d="M280.418 85.2457C280.454 84.8436 280.477 84.4415 280.477 84.0279C280.477 77.4336 275.275 72.034 268.626 71.4481C268.235 71.4136 267.844 71.3906 267.441 71.3906C260.236 71.3906 254.405 77.0429 254.405 84.0279C254.405 84.4415 254.429 84.8436 254.464 85.2457C249.759 85.7857 246.109 89.6687 246.109 94.3675C246.109 99.4454 250.352 103.558 255.59 103.558H279.292C284.53 103.558 288.773 99.4454 288.773 94.3675C288.773 89.6573 285.123 85.7857 280.418 85.2457Z" fill="#E7E6F0"/>
<path d="M280.031 85.2485C275.449 85.2485 271.734 88.8494 271.734 93.2915H270.549C270.549 88.215 274.794 84.0996 280.031 84.0996C280.191 84.0996 280.35 84.1035 280.509 84.1111V85.2616C280.351 85.2529 280.191 85.2485 280.031 85.2485Z" fill="#ABA9C8"/>
<path d="M224.359 100.111C224.395 99.7088 224.419 99.3067 224.419 98.8932C224.419 91.9082 218.588 86.2559 211.382 86.2559C210.979 86.2559 210.588 86.2788 210.197 86.3133C216.846 86.8992 222.048 92.2988 222.048 98.8932C222.048 99.3067 222.025 99.7088 221.989 100.111C226.694 100.651 230.344 104.534 230.344 109.233C230.344 114.311 226.101 118.424 220.863 118.424H223.234C228.472 118.424 232.714 114.311 232.714 109.233C232.714 104.522 229.064 100.651 224.359 100.111Z" fill="#ABA9C8"/>
<path d="M221.989 100.111C222.024 99.7088 222.048 99.3067 222.048 98.8932C222.048 92.2988 216.845 86.8992 210.197 86.3133C209.806 86.2788 209.415 86.2559 209.012 86.2559C201.806 86.2559 195.975 91.9082 195.975 98.8932C195.975 99.3067 195.999 99.7088 196.035 100.111C191.33 100.651 187.68 104.534 187.68 109.233C187.68 114.311 191.922 118.424 197.161 118.424H220.863C226.101 118.424 230.344 114.311 230.344 109.233C230.344 104.522 226.694 100.651 221.989 100.111Z" fill="#E7E6F0"/>
<path d="M221.601 100.114C217.019 100.114 213.304 103.715 213.304 108.157H212.119C212.119 103.08 216.364 98.9648 221.601 98.9648C221.761 98.9648 221.921 98.9687 222.079 98.9763V100.127C221.921 100.118 221.762 100.114 221.601 100.114Z" fill="#ABA9C8"/>
<path d="M260.198 134.177C259.798 133.51 260.278 132.662 261.055 132.662H280.04C280.818 132.662 281.298 133.51 280.898 134.177L278.72 137.806C278.54 138.107 278.214 138.292 277.863 138.292H263.233C262.882 138.292 262.556 138.107 262.375 137.806L260.198 134.177Z" fill="#4841A6"/>
<path d="M259.743 133.419C259.543 133.086 259.784 132.662 260.172 132.662H280.924C281.312 132.662 281.552 133.086 281.352 133.419L278.575 138.049C278.484 138.199 278.322 138.292 278.146 138.292H262.95C262.774 138.292 262.611 138.199 262.521 138.049L259.743 133.419Z" fill="#4841A6"/>
<path d="M266.045 132.662H280.924C281.313 132.662 281.553 133.086 281.353 133.419L279.546 136.431L270.226 133.908L266.045 132.662Z" fill="#353071"/>
<path d="M269.984 116.413C269.984 116.102 270.236 115.85 270.547 115.85V115.85C270.858 115.85 271.11 116.102 271.11 116.413V132.738H269.984V116.413Z" fill="#4841A6"/>
<path d="M270.547 116.338L279.123 127.058C279.336 127.324 279.227 127.719 278.908 127.839L270.547 130.974V116.338Z" fill="#353071"/>
<path d="M270.547 116.9L277.531 127.108C277.706 127.363 277.609 127.715 277.328 127.844L270.547 130.974V116.9Z" fill="#8F87F3"/>
<path d="M269.984 118.59L265.152 128.255C265.024 128.51 265.136 128.819 265.396 128.935L269.984 130.975V118.59Z" fill="#E7E6F0"/>
<path d="M269.984 118.59L269.958 119.165L269.42 130.727L269.984 130.975V118.59Z" fill="#ABA9C8"/>
<rect x="262.221" y="139.342" width="21.8848" height="1" rx="0.5" fill="#4841A6"/>
<rect x="266.164" y="140.971" width="16.0859" height="1" rx="0.5" fill="#4841A6"/>
</svg>
