<svg width="351" height="234" viewBox="0 0 351 234" fill="none" xmlns="http://www.w3.org/2000/svg">
<rect x="0.746094" y="0.226562" width="350" height="233" fill="#44976F"/>
<path d="M255.982 165.336C283.42 165.336 305.662 143.094 305.662 115.656H206.303C206.303 143.094 228.545 165.336 255.982 165.336Z" fill="#4841A6"/>
<path d="M206.307 115.656H305.666C305.666 127.503 301.519 138.382 294.598 146.92C281.689 147.225 267.662 146.501 254.199 144.116C214.219 137.035 206.096 122.58 206.307 115.656Z" fill="#353071"/>
<ellipse cx="255.982" cy="115.656" rx="49.6797" ry="24.8398" fill="#8F87F3"/>
<path d="M285.684 82.0973C285.711 81.7868 285.73 81.4763 285.73 81.1569C285.73 75.7632 281.227 71.3984 275.663 71.3984C275.352 71.3984 275.05 71.4162 274.748 71.4428C279.882 71.8952 283.899 76.0648 283.899 81.1569C283.899 81.4763 283.881 81.7868 283.854 82.0973C287.487 82.5143 290.305 85.5128 290.305 89.1412C290.305 93.0623 287.029 96.2383 282.984 96.2383H284.815C288.859 96.2383 292.136 93.0623 292.136 89.1412C292.136 85.5039 289.317 82.5143 285.684 82.0973Z" fill="#ABA9C8"/>
<path d="M283.852 82.0973C283.88 81.7868 283.898 81.4763 283.898 81.1569C283.898 76.0648 279.881 71.8952 274.747 71.4428C274.445 71.4162 274.143 71.3984 273.832 71.3984C268.268 71.3984 263.765 75.7632 263.765 81.1569C263.765 81.4763 263.784 81.7868 263.811 82.0973C260.178 82.5143 257.359 85.5128 257.359 89.1412C257.359 93.0623 260.636 96.2383 264.68 96.2383H282.983C287.028 96.2383 290.304 93.0623 290.304 89.1412C290.304 85.5039 287.486 82.5143 283.852 82.0973Z" fill="#E7E6F0"/>
<path d="M283.554 82.0981C280.016 82.0981 277.148 84.8788 277.148 88.3089H276.232C276.232 84.3888 279.511 81.2109 283.554 81.2109C283.678 81.2109 283.801 81.2139 283.923 81.2198V82.1082C283.801 82.1015 283.678 82.0981 283.554 82.0981Z" fill="#ABA9C8"/>
<path d="M240.565 93.5778C240.592 93.2673 240.611 92.9568 240.611 92.6374C240.611 87.2436 236.108 82.8789 230.544 82.8789C230.233 82.8789 229.931 82.8966 229.629 82.9233C234.763 83.3757 238.78 87.5452 238.78 92.6374C238.78 92.9568 238.762 93.2673 238.735 93.5778C242.368 93.9947 245.186 96.9933 245.186 100.622C245.186 104.543 241.91 107.719 237.865 107.719H239.695C243.74 107.719 247.017 104.543 247.017 100.622C247.017 96.9844 244.198 93.9947 240.565 93.5778Z" fill="#ABA9C8"/>
<path d="M238.734 93.5778C238.761 93.2673 238.779 92.9568 238.779 92.6374C238.779 87.5452 234.762 83.3757 229.628 82.9233C229.326 82.8966 229.024 82.8789 228.713 82.8789C223.149 82.8789 218.646 87.2436 218.646 92.6374C218.646 92.9568 218.665 93.2673 218.692 93.5778C215.059 93.9947 212.24 96.9933 212.24 100.622C212.24 104.543 215.516 107.719 219.561 107.719H237.864C241.909 107.719 245.185 104.543 245.185 100.622C245.185 96.9844 242.367 93.9947 238.734 93.5778Z" fill="#E7E6F0"/>
<path d="M238.435 93.5785C234.897 93.5785 232.028 96.3592 232.028 99.7894H231.113C231.113 95.8693 234.391 92.6914 238.435 92.6914C238.559 92.6914 238.682 92.6944 238.804 92.7003V93.5887C238.682 93.582 238.559 93.5785 238.435 93.5785Z" fill="#ABA9C8"/>
<path d="M268.446 120.229C268.046 119.563 268.526 118.715 269.303 118.715H283.159C283.936 118.715 284.416 119.563 284.016 120.229L282.608 122.576C282.428 122.878 282.102 123.062 281.751 123.062H270.712C270.36 123.062 270.035 122.878 269.854 122.576L268.446 120.229Z" fill="#4841A6"/>
<path d="M267.991 119.472C267.792 119.139 268.032 118.715 268.42 118.715H284.042C284.431 118.715 284.671 119.139 284.471 119.472L282.463 122.819C282.372 122.97 282.209 123.062 282.034 123.062H270.428C270.253 123.062 270.09 122.97 270 122.819L267.991 119.472Z" fill="#4841A6"/>
<path d="M272.754 118.715H284.042C284.431 118.715 284.671 119.139 284.471 119.472L283.179 121.625L275.982 119.677L272.754 118.715Z" fill="#353071"/>
<path d="M275.797 106.165C275.797 105.925 275.991 105.73 276.232 105.73V105.73C276.472 105.73 276.666 105.925 276.666 106.165V118.772H275.797V106.165Z" fill="#4841A6"/>
<path d="M276.23 106.109L282.755 114.265C282.967 114.531 282.858 114.926 282.54 115.045L276.23 117.412V106.109Z" fill="#353071"/>
<path d="M276.23 106.543L281.547 114.314C281.722 114.569 281.625 114.921 281.344 115.05L276.23 117.41V106.543Z" fill="#8F87F3"/>
<path d="M275.797 107.848L272.119 115.204C271.991 115.459 272.102 115.769 272.363 115.885L275.797 117.411V107.848Z" fill="#E7E6F0"/>
<path d="M275.797 107.848L275.776 108.292L275.361 117.22L275.797 117.411V107.848Z" fill="#ABA9C8"/>
<rect x="269.801" y="123.871" width="16.8994" height="0.772199" rx="0.386099" fill="#4841A6"/>
<rect x="272.846" y="125.129" width="12.4215" height="0.772199" rx="0.386099" fill="#4841A6"/>
</svg>
