<svg width="351" height="234" viewBox="0 0 351 234" fill="none" xmlns="http://www.w3.org/2000/svg">
<rect x="0.746094" y="0.8125" width="350" height="233" fill="#33837E"/>
<path d="M255.982 165.926C283.42 165.926 305.662 143.683 305.662 116.246H206.303C206.303 143.683 228.545 165.926 255.982 165.926Z" fill="#4841A6"/>
<path d="M206.307 116.246H305.666C305.666 128.093 301.519 138.972 294.598 147.51C281.689 147.814 267.662 147.09 254.199 144.706C214.219 137.625 206.096 123.17 206.307 116.246Z" fill="#353071"/>
<ellipse cx="255.982" cy="116.246" rx="49.6797" ry="24.8398" fill="#8F87F3"/>
<path d="M285.684 82.6852C285.711 82.3747 285.73 82.0642 285.73 81.7448C285.73 76.351 281.227 71.9863 275.663 71.9863C275.352 71.9863 275.05 72.0041 274.748 72.0307C279.882 72.4831 283.899 76.6527 283.899 81.7448C283.899 82.0642 283.881 82.3747 283.854 82.6852C287.487 83.1022 290.305 86.1007 290.305 89.7291C290.305 93.6502 287.029 96.8262 282.984 96.8262H284.815C288.859 96.8262 292.136 93.6502 292.136 89.7291C292.136 86.0918 289.317 83.1022 285.684 82.6852Z" fill="#ABA9C8"/>
<path d="M283.852 82.6852C283.88 82.3747 283.898 82.0642 283.898 81.7448C283.898 76.6527 279.881 72.4831 274.747 72.0307C274.445 72.0041 274.143 71.9863 273.832 71.9863C268.268 71.9863 263.765 76.351 263.765 81.7448C263.765 82.0642 263.784 82.3747 263.811 82.6852C260.178 83.1022 257.359 86.1007 257.359 89.7291C257.359 93.6502 260.636 96.8262 264.68 96.8262H282.983C287.028 96.8262 290.304 93.6502 290.304 89.7291C290.304 86.0918 287.486 83.1022 283.852 82.6852Z" fill="#E7E6F0"/>
<path d="M283.554 82.6879C280.016 82.6879 277.148 85.4686 277.148 88.8987H276.232C276.232 84.9786 279.511 81.8008 283.554 81.8008C283.678 81.8008 283.801 81.8038 283.923 81.8096V82.6981C283.801 82.6913 283.678 82.6879 283.554 82.6879Z" fill="#ABA9C8"/>
<path d="M240.565 94.1637C240.592 93.8532 240.611 93.5427 240.611 93.2234C240.611 87.8296 236.108 83.4648 230.544 83.4648C230.233 83.4648 229.931 83.4826 229.629 83.5092C234.763 83.9616 238.78 88.1312 238.78 93.2234C238.78 93.5427 238.762 93.8532 238.735 94.1637C242.368 94.5807 245.186 97.5792 245.186 101.208C245.186 105.129 241.91 108.305 237.865 108.305H239.695C243.74 108.305 247.017 105.129 247.017 101.208C247.017 97.5703 244.198 94.5807 240.565 94.1637Z" fill="#ABA9C8"/>
<path d="M238.734 94.1637C238.761 93.8532 238.779 93.5427 238.779 93.2234C238.779 88.1312 234.762 83.9616 229.628 83.5092C229.326 83.4826 229.024 83.4648 228.713 83.4648C223.149 83.4648 218.646 87.8296 218.646 93.2234C218.646 93.5427 218.665 93.8532 218.692 94.1637C215.059 94.5807 212.24 97.5792 212.24 101.208C212.24 105.129 215.516 108.305 219.561 108.305H237.864C241.909 108.305 245.185 105.129 245.185 101.208C245.185 97.5703 242.367 94.5807 238.734 94.1637Z" fill="#E7E6F0"/>
<path d="M238.435 94.1664C234.897 94.1664 232.028 96.9471 232.028 100.377H231.113C231.113 96.4572 234.391 93.2793 238.435 93.2793C238.559 93.2793 238.682 93.2823 238.804 93.2882V94.1766C238.682 94.1698 238.559 94.1664 238.435 94.1664Z" fill="#ABA9C8"/>
<path d="M268.446 120.815C268.046 120.149 268.526 119.301 269.303 119.301H283.159C283.936 119.301 284.416 120.149 284.016 120.815L282.608 123.162C282.428 123.463 282.102 123.648 281.751 123.648H270.712C270.36 123.648 270.035 123.463 269.854 123.162L268.446 120.815Z" fill="#4841A6"/>
<path d="M267.991 120.058C267.792 119.725 268.032 119.301 268.42 119.301H284.042C284.431 119.301 284.671 119.725 284.471 120.058L282.463 123.405C282.372 123.556 282.209 123.648 282.034 123.648H270.428C270.253 123.648 270.09 123.556 270 123.405L267.991 120.058Z" fill="#4841A6"/>
<path d="M272.754 119.301H284.042C284.431 119.301 284.671 119.725 284.471 120.058L283.179 122.211L275.982 120.263L272.754 119.301Z" fill="#353071"/>
<path d="M275.797 106.751C275.797 106.511 275.991 106.316 276.232 106.316V106.316C276.472 106.316 276.666 106.511 276.666 106.751V119.357H275.797V106.751Z" fill="#4841A6"/>
<path d="M276.23 106.693L282.755 114.849C282.967 115.115 282.858 115.51 282.54 115.629L276.23 117.996V106.693Z" fill="#353071"/>
<path d="M276.23 107.127L281.547 114.898C281.722 115.153 281.625 115.505 281.344 115.634L276.23 117.994V107.127Z" fill="#8F87F3"/>
<path d="M275.797 108.432L272.119 115.788C271.991 116.043 272.102 116.353 272.363 116.469L275.797 117.995V108.432Z" fill="#E7E6F0"/>
<path d="M275.797 108.432L275.776 108.876L275.361 117.804L275.797 117.995V108.432Z" fill="#ABA9C8"/>
<rect x="269.801" y="124.457" width="16.8994" height="0.772199" rx="0.386099" fill="#4841A6"/>
<rect x="272.846" y="125.715" width="12.4215" height="0.772199" rx="0.386099" fill="#4841A6"/>
</svg>
