<svg width="351" height="265" viewBox="0 0 351 265" fill="none" xmlns="http://www.w3.org/2000/svg">
<rect x="0.666016" y="0.992188" width="350" height="264" fill="#A0B5FF"/>
<path d="M244.326 193.818C279.857 193.818 308.661 165.014 308.661 129.482H179.99C179.99 165.014 208.794 193.818 244.326 193.818Z" fill="#4841A6"/>
<path d="M179.995 129.482H308.666C308.666 144.825 303.296 158.912 294.332 169.969C277.616 170.363 259.45 169.426 242.016 166.338C190.242 157.168 179.722 138.449 179.995 129.482Z" fill="#353071"/>
<ellipse cx="244.326" cy="129.482" rx="64.3353" ry="32.1677" fill="#8F87F3"/>
<path d="M282.789 86.0211C282.824 85.619 282.848 85.2169 282.848 84.8033C282.848 77.8183 277.017 72.166 269.812 72.166C269.409 72.166 269.018 72.189 268.627 72.2235C275.275 72.8094 280.478 78.2089 280.478 84.8033C280.478 85.2169 280.454 85.619 280.419 86.0211C285.124 86.561 288.774 90.4441 288.774 95.1429C288.774 100.221 284.531 104.334 279.293 104.334H281.663C286.901 104.334 291.144 100.221 291.144 95.1429C291.144 90.4327 287.494 86.561 282.789 86.0211Z" fill="#ABA9C8"/>
<path d="M280.418 86.0211C280.454 85.619 280.477 85.2169 280.477 84.8033C280.477 78.2089 275.275 72.8094 268.626 72.2235C268.235 72.189 267.844 72.166 267.441 72.166C260.236 72.166 254.405 77.8183 254.405 84.8033C254.405 85.2169 254.429 85.619 254.464 86.0211C249.759 86.561 246.109 90.4441 246.109 95.1429C246.109 100.221 250.352 104.334 255.59 104.334H279.292C284.53 104.334 288.773 100.221 288.773 95.1429C288.773 90.4327 285.123 86.561 280.418 86.0211Z" fill="#E7E6F0"/>
<path d="M280.031 86.0238C275.449 86.0238 271.734 89.6248 271.734 94.0669H270.549C270.549 88.9903 274.794 84.875 280.031 84.875C280.191 84.875 280.35 84.8789 280.509 84.8865V86.037C280.351 86.0283 280.191 86.0238 280.031 86.0238Z" fill="#ABA9C8"/>
<path d="M224.359 100.886C224.395 100.484 224.419 100.082 224.419 99.6685C224.419 92.6836 218.588 87.0312 211.382 87.0312C210.979 87.0312 210.588 87.0542 210.197 87.0887C216.846 87.6746 222.048 93.0742 222.048 99.6685C222.048 100.082 222.025 100.484 221.989 100.886C226.694 101.426 230.344 105.309 230.344 110.008C230.344 115.086 226.101 119.199 220.863 119.199H223.234C228.472 119.199 232.714 115.086 232.714 110.008C232.714 105.298 229.064 101.426 224.359 100.886Z" fill="#ABA9C8"/>
<path d="M221.989 100.886C222.024 100.484 222.048 100.082 222.048 99.6685C222.048 93.0742 216.845 87.6746 210.197 87.0887C209.806 87.0542 209.415 87.0312 209.012 87.0312C201.806 87.0312 195.975 92.6836 195.975 99.6685C195.975 100.082 195.999 100.484 196.035 100.886C191.33 101.426 187.68 105.309 187.68 110.008C187.68 115.086 191.922 119.199 197.161 119.199H220.863C226.101 119.199 230.344 115.086 230.344 110.008C230.344 105.298 226.694 101.426 221.989 100.886Z" fill="#E7E6F0"/>
<path d="M221.601 100.889C217.019 100.889 213.304 104.49 213.304 108.932H212.119C212.119 103.856 216.364 99.7402 221.601 99.7402C221.761 99.7402 221.921 99.7441 222.079 99.7517V100.902C221.921 100.893 221.762 100.889 221.601 100.889Z" fill="#ABA9C8"/>
<path d="M260.198 134.952C259.798 134.285 260.278 133.438 261.055 133.438H280.04C280.818 133.438 281.298 134.285 280.898 134.952L278.72 138.581C278.54 138.883 278.214 139.067 277.863 139.067H263.233C262.882 139.067 262.556 138.883 262.375 138.581L260.198 134.952Z" fill="#4841A6"/>
<path d="M259.743 134.195C259.543 133.861 259.784 133.438 260.172 133.438H280.924C281.312 133.438 281.552 133.861 281.352 134.195L278.575 138.824C278.484 138.975 278.322 139.067 278.146 139.067H262.95C262.774 139.067 262.611 138.975 262.521 138.824L259.743 134.195Z" fill="#4841A6"/>
<path d="M266.045 133.438H280.924C281.313 133.438 281.553 133.862 281.353 134.195L279.546 137.207L270.226 134.683L266.045 133.438Z" fill="#353071"/>
<path d="M269.984 117.188C269.984 116.877 270.236 116.625 270.547 116.625C270.858 116.625 271.11 116.877 271.11 117.188V133.513H269.984V117.188Z" fill="#4841A6"/>
<path d="M270.547 117.113L279.123 127.834C279.336 128.099 279.227 128.495 278.908 128.614L270.547 131.75V117.113Z" fill="#353071"/>
<path d="M270.547 117.676L277.531 127.883C277.706 128.139 277.609 128.49 277.328 128.62L270.547 131.749V117.676Z" fill="#8F87F3"/>
<path d="M269.984 119.365L265.152 129.03C265.024 129.285 265.136 129.595 265.396 129.711L269.984 131.75V119.365Z" fill="#E7E6F0"/>
<path d="M269.984 119.365L269.958 119.94L269.42 131.502L269.984 131.75V119.365Z" fill="#ABA9C8"/>
<rect x="262.221" y="140.117" width="21.8848" height="1" rx="0.5" fill="#4841A6"/>
<rect x="266.164" y="141.746" width="16.0859" height="1" rx="0.5" fill="#4841A6"/>
</svg>
