<svg width="351" height="234" viewBox="0 0 351 234" fill="none" xmlns="http://www.w3.org/2000/svg">
<rect x="0.746094" y="0.285156" width="350" height="233" fill="#B8693D"/>
<path d="M255.982 165.395C283.42 165.395 305.662 143.152 305.662 115.715H206.303C206.303 143.152 228.545 165.395 255.982 165.395Z" fill="#4841A6"/>
<path d="M206.307 115.715H305.666C305.666 127.562 301.519 138.441 294.598 146.978C281.689 147.283 267.662 146.559 254.199 144.175C214.219 137.094 206.096 122.639 206.307 115.715Z" fill="#353071"/>
<ellipse cx="255.982" cy="115.715" rx="49.6797" ry="24.8398" fill="#8F87F3"/>
<path d="M285.684 82.1559C285.711 81.8454 285.73 81.5349 285.73 81.2155C285.73 75.8217 281.227 71.457 275.663 71.457C275.352 71.457 275.05 71.4748 274.748 71.5014C279.882 71.9538 283.899 76.1234 283.899 81.2155C283.899 81.5349 283.881 81.8454 283.854 82.1559C287.487 82.5729 290.305 85.5714 290.305 89.1998C290.305 93.1209 287.029 96.2969 282.984 96.2969H284.815C288.859 96.2969 292.136 93.1209 292.136 89.1998C292.136 85.5625 289.317 82.5729 285.684 82.1559Z" fill="#ABA9C8"/>
<path d="M283.852 82.1559C283.88 81.8454 283.898 81.5349 283.898 81.2155C283.898 76.1234 279.881 71.9538 274.747 71.5014C274.445 71.4748 274.143 71.457 273.832 71.457C268.268 71.457 263.765 75.8217 263.765 81.2155C263.765 81.5349 263.784 81.8454 263.811 82.1559C260.178 82.5729 257.359 85.5714 257.359 89.1998C257.359 93.1209 260.636 96.2969 264.68 96.2969H282.983C287.028 96.2969 290.304 93.1209 290.304 89.1998C290.304 85.5625 287.486 82.5729 283.852 82.1559Z" fill="#E7E6F0"/>
<path d="M283.554 82.1567C280.016 82.1567 277.148 84.9373 277.148 88.3675H276.232C276.232 84.4474 279.511 81.2695 283.554 81.2695C283.678 81.2695 283.801 81.2725 283.923 81.2784V82.1668C283.801 82.1601 283.678 82.1567 283.554 82.1567Z" fill="#ABA9C8"/>
<path d="M240.565 93.6364C240.592 93.3259 240.611 93.0154 240.611 92.696C240.611 87.3022 236.108 82.9375 230.544 82.9375C230.233 82.9375 229.931 82.9552 229.629 82.9819C234.763 83.4343 238.78 87.6038 238.78 92.696C238.78 93.0154 238.762 93.3259 238.735 93.6364C242.368 94.0533 245.186 97.0518 245.186 100.68C245.186 104.601 241.91 107.777 237.865 107.777H239.695C243.74 107.777 247.017 104.601 247.017 100.68C247.017 97.043 244.198 94.0533 240.565 93.6364Z" fill="#ABA9C8"/>
<path d="M238.734 93.6364C238.761 93.3259 238.779 93.0154 238.779 92.696C238.779 87.6038 234.762 83.4343 229.628 82.9819C229.326 82.9552 229.024 82.9375 228.713 82.9375C223.149 82.9375 218.646 87.3022 218.646 92.696C218.646 93.0154 218.665 93.3259 218.692 93.6364C215.059 94.0533 212.24 97.0518 212.24 100.68C212.24 104.601 215.516 107.777 219.561 107.777H237.864C241.909 107.777 245.185 104.601 245.185 100.68C245.185 97.043 242.367 94.0533 238.734 93.6364Z" fill="#E7E6F0"/>
<path d="M238.435 93.6371C234.897 93.6371 232.028 96.4178 232.028 99.848H231.113C231.113 95.9279 234.391 92.75 238.435 92.75C238.559 92.75 238.682 92.753 238.804 92.7589V93.6473C238.682 93.6405 238.559 93.6371 238.435 93.6371Z" fill="#ABA9C8"/>
<path d="M268.446 120.288C268.046 119.621 268.526 118.773 269.303 118.773H283.159C283.936 118.773 284.416 119.621 284.016 120.288L282.608 122.635C282.428 122.936 282.102 123.12 281.751 123.12H270.712C270.36 123.12 270.035 122.936 269.854 122.635L268.446 120.288Z" fill="#4841A6"/>
<path d="M267.991 119.531C267.792 119.197 268.032 118.773 268.42 118.773H284.042C284.431 118.773 284.671 119.197 284.471 119.531L282.463 122.878C282.372 123.028 282.209 123.12 282.034 123.12H270.428C270.253 123.12 270.09 123.028 270 122.878L267.991 119.531Z" fill="#4841A6"/>
<path d="M272.754 118.773H284.042C284.431 118.773 284.671 119.197 284.471 119.531L283.179 121.684L275.982 119.735L272.754 118.773Z" fill="#353071"/>
<path d="M275.797 106.224C275.797 105.984 275.991 105.789 276.232 105.789V105.789C276.472 105.789 276.666 105.984 276.666 106.224V118.83H275.797V106.224Z" fill="#4841A6"/>
<path d="M276.23 106.168L282.755 114.324C282.967 114.589 282.858 114.985 282.54 115.104L276.23 117.47V106.168Z" fill="#353071"/>
<path d="M276.23 106.602L281.547 114.373C281.722 114.628 281.625 114.979 281.344 115.109L276.23 117.469V106.602Z" fill="#8F87F3"/>
<path d="M275.797 107.906L272.119 115.263C271.991 115.518 272.102 115.828 272.363 115.943L275.797 117.47V107.906Z" fill="#E7E6F0"/>
<path d="M275.797 107.906L275.776 108.35L275.361 117.278L275.797 117.47V107.906Z" fill="#ABA9C8"/>
<rect x="269.801" y="123.93" width="16.8994" height="0.772199" rx="0.386099" fill="#4841A6"/>
<rect x="272.846" y="125.188" width="12.4215" height="0.772199" rx="0.386099" fill="#4841A6"/>
</svg>
