<svg width="351" height="265" viewBox="0 0 351 265" fill="none" xmlns="http://www.w3.org/2000/svg">
<rect x="0.666016" y="0.746094" width="350" height="264" fill="#D57070"/>
<path d="M244.326 193.572C279.857 193.572 308.661 164.768 308.661 129.236H179.99C179.99 164.768 208.794 193.572 244.326 193.572Z" fill="#4841A6"/>
<path d="M179.995 129.236H308.666C308.666 144.578 303.296 158.666 294.332 169.723C277.616 170.117 259.45 169.18 242.016 166.092C190.242 156.922 179.722 138.203 179.995 129.236Z" fill="#353071"/>
<ellipse cx="244.326" cy="129.236" rx="64.3353" ry="32.1677" fill="#8F87F3"/>
<path d="M282.789 85.775C282.824 85.3729 282.848 84.9708 282.848 84.5572C282.848 77.5722 277.017 71.9199 269.812 71.9199C269.409 71.9199 269.018 71.9429 268.627 71.9774C275.275 72.5633 280.478 77.9628 280.478 84.5572C280.478 84.9708 280.454 85.3729 280.419 85.775C285.124 86.315 288.774 90.198 288.774 94.8968C288.774 99.9747 284.531 104.088 279.293 104.088H281.663C286.901 104.088 291.144 99.9747 291.144 94.8968C291.144 90.1866 287.494 86.315 282.789 85.775Z" fill="#ABA9C8"/>
<path d="M280.418 85.775C280.454 85.3729 280.477 84.9708 280.477 84.5572C280.477 77.9628 275.275 72.5633 268.626 71.9774C268.235 71.9429 267.844 71.9199 267.441 71.9199C260.236 71.9199 254.405 77.5722 254.405 84.5572C254.405 84.9708 254.429 85.3729 254.464 85.775C249.759 86.315 246.109 90.198 246.109 94.8968C246.109 99.9747 250.352 104.088 255.59 104.088H279.292C284.53 104.088 288.773 99.9747 288.773 94.8968C288.773 90.1866 285.123 86.315 280.418 85.775Z" fill="#E7E6F0"/>
<path d="M280.031 85.7778C275.449 85.7778 271.734 89.3787 271.734 93.8208H270.549C270.549 88.7443 274.794 84.6289 280.031 84.6289C280.191 84.6289 280.35 84.6328 280.509 84.6404V85.7909C280.351 85.7822 280.191 85.7778 280.031 85.7778Z" fill="#ABA9C8"/>
<path d="M224.359 100.64C224.395 100.238 224.419 99.836 224.419 99.4225C224.419 92.4375 218.588 86.7852 211.382 86.7852C210.979 86.7852 210.588 86.8081 210.197 86.8426C216.846 87.4285 222.048 92.8281 222.048 99.4225C222.048 99.836 222.025 100.238 221.989 100.64C226.694 101.18 230.344 105.063 230.344 109.762C230.344 114.84 226.101 118.953 220.863 118.953H223.234C228.472 118.953 232.714 114.84 232.714 109.762C232.714 105.052 229.064 101.18 224.359 100.64Z" fill="#ABA9C8"/>
<path d="M221.989 100.64C222.024 100.238 222.048 99.836 222.048 99.4225C222.048 92.8281 216.845 87.4285 210.197 86.8426C209.806 86.8081 209.415 86.7852 209.012 86.7852C201.806 86.7852 195.975 92.4375 195.975 99.4225C195.975 99.836 195.999 100.238 196.035 100.64C191.33 101.18 187.68 105.063 187.68 109.762C187.68 114.84 191.922 118.953 197.161 118.953H220.863C226.101 118.953 230.344 114.84 230.344 109.762C230.344 105.052 226.694 101.18 221.989 100.64Z" fill="#E7E6F0"/>
<path d="M221.601 100.643C217.019 100.643 213.304 104.244 213.304 108.686H212.119C212.119 103.609 216.364 99.4941 221.601 99.4941C221.761 99.4941 221.921 99.498 222.079 99.5056V100.656C221.921 100.647 221.762 100.643 221.601 100.643Z" fill="#ABA9C8"/>
<path d="M260.198 134.706C259.798 134.039 260.278 133.191 261.055 133.191H280.04C280.818 133.191 281.298 134.039 280.898 134.706L278.72 138.335C278.54 138.637 278.214 138.821 277.863 138.821H263.233C262.882 138.821 262.556 138.637 262.375 138.335L260.198 134.706Z" fill="#4841A6"/>
<path d="M259.743 133.949C259.543 133.615 259.784 133.191 260.172 133.191H280.924C281.312 133.191 281.552 133.615 281.352 133.949L278.575 138.578C278.484 138.729 278.322 138.821 278.146 138.821H262.95C262.774 138.821 262.611 138.729 262.521 138.578L259.743 133.949Z" fill="#4841A6"/>
<path d="M266.045 133.191H280.924C281.313 133.191 281.553 133.615 281.353 133.949L279.546 136.96L270.226 134.437L266.045 133.191Z" fill="#353071"/>
<path d="M269.984 116.942C269.984 116.631 270.236 116.379 270.547 116.379V116.379C270.858 116.379 271.11 116.631 271.11 116.942V133.267H269.984V116.942Z" fill="#4841A6"/>
<path d="M270.547 116.867L279.123 127.588C279.336 127.853 279.227 128.249 278.908 128.368L270.547 131.504V116.867Z" fill="#353071"/>
<path d="M270.547 117.43L277.531 127.637C277.706 127.893 277.609 128.244 277.328 128.374L270.547 131.503V117.43Z" fill="#8F87F3"/>
<path d="M269.984 119.119L265.152 128.784C265.024 129.039 265.136 129.349 265.396 129.465L269.984 131.504V119.119Z" fill="#E7E6F0"/>
<path d="M269.984 119.119L269.958 119.694L269.42 131.256L269.984 131.504V119.119Z" fill="#ABA9C8"/>
<rect x="262.221" y="139.871" width="21.8848" height="1" rx="0.5" fill="#4841A6"/>
<rect x="266.164" y="141.5" width="16.0859" height="1" rx="0.5" fill="#4841A6"/>
</svg>
