<svg width="351" height="234" viewBox="0 0 351 234" fill="none" xmlns="http://www.w3.org/2000/svg">
<rect x="0.746094" y="0.992188" width="350" height="233" fill="#A0B5FF"/>
<path d="M255.982 166.102C283.42 166.102 305.662 143.859 305.662 116.422H206.303C206.303 143.859 228.545 166.102 255.982 166.102Z" fill="#4841A6"/>
<path d="M206.307 116.422H305.666C305.666 128.269 301.519 139.148 294.598 147.685C281.689 147.99 267.662 147.266 254.199 144.882C214.219 137.801 206.096 123.346 206.307 116.422Z" fill="#353071"/>
<ellipse cx="255.982" cy="116.422" rx="49.6797" ry="24.8398" fill="#8F87F3"/>
<path d="M285.684 82.8629C285.711 82.5524 285.73 82.2419 285.73 81.9226C285.73 76.5288 281.227 72.1641 275.663 72.1641C275.352 72.1641 275.05 72.1818 274.748 72.2084C279.882 72.6609 283.899 76.8304 283.899 81.9226C283.899 82.2419 283.881 82.5524 283.854 82.8629C287.487 83.2799 290.305 86.2784 290.305 89.9068C290.305 93.8279 287.029 97.0039 282.984 97.0039H284.815C288.859 97.0039 292.136 93.8279 292.136 89.9068C292.136 86.2695 289.317 83.2799 285.684 82.8629Z" fill="#ABA9C8"/>
<path d="M283.852 82.8629C283.88 82.5524 283.898 82.2419 283.898 81.9226C283.898 76.8304 279.881 72.6609 274.747 72.2084C274.445 72.1818 274.143 72.1641 273.832 72.1641C268.268 72.1641 263.765 76.5288 263.765 81.9226C263.765 82.2419 263.784 82.5524 263.811 82.8629C260.178 83.2799 257.359 86.2784 257.359 89.9068C257.359 93.8279 260.636 97.0039 264.68 97.0039H282.983C287.028 97.0039 290.304 93.8279 290.304 89.9068C290.304 86.2695 287.486 83.2799 283.852 82.8629Z" fill="#E7E6F0"/>
<path d="M283.554 82.8637C280.016 82.8637 277.148 85.6444 277.148 89.0745H276.232C276.232 85.1544 279.511 81.9766 283.554 81.9766C283.678 81.9766 283.801 81.9795 283.923 81.9854V82.8738C283.801 82.8671 283.678 82.8637 283.554 82.8637Z" fill="#ABA9C8"/>
<path d="M240.565 94.3434C240.592 94.0329 240.611 93.7224 240.611 93.403C240.611 88.0092 236.108 83.6445 230.544 83.6445C230.233 83.6445 229.931 83.6623 229.629 83.6889C234.763 84.1413 238.78 88.3109 238.78 93.403C238.78 93.7224 238.762 94.0329 238.735 94.3434C242.368 94.7604 245.186 97.7589 245.186 101.387C245.186 105.308 241.91 108.484 237.865 108.484H239.695C243.74 108.484 247.017 105.308 247.017 101.387C247.017 97.75 244.198 94.7604 240.565 94.3434Z" fill="#ABA9C8"/>
<path d="M238.734 94.3434C238.761 94.0329 238.779 93.7224 238.779 93.403C238.779 88.3109 234.762 84.1413 229.628 83.6889C229.326 83.6623 229.024 83.6445 228.713 83.6445C223.149 83.6445 218.646 88.0092 218.646 93.403C218.646 93.7224 218.665 94.0329 218.692 94.3434C215.059 94.7604 212.24 97.7589 212.24 101.387C212.24 105.308 215.516 108.484 219.561 108.484H237.864C241.909 108.484 245.185 105.308 245.185 101.387C245.185 97.75 242.367 94.7604 238.734 94.3434Z" fill="#E7E6F0"/>
<path d="M238.435 94.3442C234.897 94.3442 232.028 97.1248 232.028 100.555H231.113C231.113 96.6349 234.391 93.457 238.435 93.457C238.559 93.457 238.682 93.46 238.804 93.4659V94.3543C238.682 94.3476 238.559 94.3442 238.435 94.3442Z" fill="#ABA9C8"/>
<path d="M268.446 120.995C268.046 120.328 268.526 119.48 269.303 119.48H283.159C283.936 119.48 284.416 120.328 284.016 120.995L282.608 123.342C282.428 123.643 282.102 123.827 281.751 123.827H270.712C270.36 123.827 270.035 123.643 269.854 123.342L268.446 120.995Z" fill="#4841A6"/>
<path d="M267.991 120.238C267.792 119.904 268.032 119.48 268.42 119.48H284.042C284.431 119.48 284.671 119.904 284.471 120.238L282.463 123.585C282.372 123.735 282.209 123.827 282.034 123.827H270.428C270.253 123.827 270.09 123.735 270 123.585L267.991 120.238Z" fill="#4841A6"/>
<path d="M272.754 119.48H284.042C284.431 119.48 284.671 119.904 284.471 120.238L283.179 122.391L275.982 120.442L272.754 119.48Z" fill="#353071"/>
<path d="M275.797 106.931C275.797 106.691 275.991 106.496 276.232 106.496V106.496C276.472 106.496 276.666 106.691 276.666 106.931V119.537H275.797V106.931Z" fill="#4841A6"/>
<path d="M276.23 106.875L282.755 115.031C282.967 115.296 282.858 115.692 282.54 115.811L276.23 118.177V106.875Z" fill="#353071"/>
<path d="M276.23 107.309L281.547 115.08C281.722 115.335 281.625 115.686 281.344 115.816L276.23 118.176V107.309Z" fill="#8F87F3"/>
<path d="M275.797 108.613L272.119 115.97C271.991 116.225 272.102 116.535 272.363 116.65L275.797 118.177V108.613Z" fill="#E7E6F0"/>
<path d="M275.797 108.613L275.776 109.057L275.361 117.985L275.797 118.177V108.613Z" fill="#ABA9C8"/>
<rect x="269.801" y="124.637" width="16.8994" height="0.772199" rx="0.386099" fill="#4841A6"/>
<rect x="272.846" y="125.895" width="12.4215" height="0.772199" rx="0.386099" fill="#4841A6"/>
</svg>
