<svg width="351" height="234" viewBox="0 0 351 234" fill="none" xmlns="http://www.w3.org/2000/svg">
<rect x="0.746094" y="0.386719" width="350" height="233" fill="#974444"/>
<path d="M255.982 165.496C283.42 165.496 305.662 143.254 305.662 115.816H206.303C206.303 143.254 228.545 165.496 255.982 165.496Z" fill="#4841A6"/>
<path d="M206.307 115.816H305.666C305.666 127.664 301.519 138.542 294.598 147.08C281.689 147.385 267.662 146.661 254.199 144.276C214.219 137.195 206.096 122.74 206.307 115.816Z" fill="#353071"/>
<ellipse cx="255.982" cy="115.816" rx="49.6797" ry="24.8398" fill="#8F87F3"/>
<path d="M285.684 82.2575C285.711 81.947 285.73 81.6365 285.73 81.3171C285.73 75.9233 281.227 71.5586 275.663 71.5586C275.352 71.5586 275.05 71.5763 274.748 71.603C279.882 72.0554 283.899 76.2249 283.899 81.3171C283.899 81.6365 283.881 81.947 283.854 82.2575C287.487 82.6744 290.305 85.6729 290.305 89.3013C290.305 93.2225 287.029 96.3984 282.984 96.3984H284.815C288.859 96.3984 292.136 93.2225 292.136 89.3013C292.136 85.6641 289.317 82.6744 285.684 82.2575Z" fill="#ABA9C8"/>
<path d="M283.852 82.2575C283.88 81.947 283.898 81.6365 283.898 81.3171C283.898 76.2249 279.881 72.0554 274.747 71.603C274.445 71.5763 274.143 71.5586 273.832 71.5586C268.268 71.5586 263.765 75.9233 263.765 81.3171C263.765 81.6365 263.784 81.947 263.811 82.2575C260.178 82.6744 257.359 85.6729 257.359 89.3013C257.359 93.2225 260.636 96.3984 264.68 96.3984H282.983C287.028 96.3984 290.304 93.2225 290.304 89.3013C290.304 85.6641 287.486 82.6744 283.852 82.2575Z" fill="#E7E6F0"/>
<path d="M283.554 82.2582C280.016 82.2582 277.148 85.0389 277.148 88.4691H276.232C276.232 84.549 279.511 81.3711 283.554 81.3711C283.678 81.3711 283.801 81.3741 283.923 81.38V82.2684C283.801 82.2616 283.678 82.2582 283.554 82.2582Z" fill="#ABA9C8"/>
<path d="M240.565 93.7379C240.592 93.4274 240.611 93.1169 240.611 92.7976C240.611 87.4038 236.108 83.0391 230.544 83.0391C230.233 83.0391 229.931 83.0568 229.629 83.0834C234.763 83.5359 238.78 87.7054 238.78 92.7976C238.78 93.1169 238.762 93.4274 238.735 93.7379C242.368 94.1549 245.186 97.1534 245.186 100.782C245.186 104.703 241.91 107.879 237.865 107.879H239.695C243.74 107.879 247.017 104.703 247.017 100.782C247.017 97.1445 244.198 94.1549 240.565 93.7379Z" fill="#ABA9C8"/>
<path d="M238.734 93.7379C238.761 93.4274 238.779 93.1169 238.779 92.7976C238.779 87.7054 234.762 83.5359 229.628 83.0834C229.326 83.0568 229.024 83.0391 228.713 83.0391C223.149 83.0391 218.646 87.4038 218.646 92.7976C218.646 93.1169 218.665 93.4274 218.692 93.7379C215.059 94.1549 212.24 97.1534 212.24 100.782C212.24 104.703 215.516 107.879 219.561 107.879H237.864C241.909 107.879 245.185 104.703 245.185 100.782C245.185 97.1445 242.367 94.1549 238.734 93.7379Z" fill="#E7E6F0"/>
<path d="M238.435 93.7387C234.897 93.7387 232.028 96.5194 232.028 99.9495H231.113C231.113 96.0294 234.391 92.8516 238.435 92.8516C238.559 92.8516 238.682 92.8545 238.804 92.8604V93.7488C238.682 93.7421 238.559 93.7387 238.435 93.7387Z" fill="#ABA9C8"/>
<path d="M268.446 120.389C268.046 119.723 268.526 118.875 269.303 118.875H283.159C283.936 118.875 284.416 119.723 284.016 120.389L282.608 122.737C282.428 123.038 282.102 123.222 281.751 123.222H270.712C270.36 123.222 270.035 123.038 269.854 122.737L268.446 120.389Z" fill="#4841A6"/>
<path d="M267.991 119.632C267.792 119.299 268.032 118.875 268.42 118.875H284.042C284.431 118.875 284.671 119.299 284.471 119.632L282.463 122.979C282.372 123.13 282.209 123.222 282.034 123.222H270.428C270.253 123.222 270.09 123.13 270 122.979L267.991 119.632Z" fill="#4841A6"/>
<path d="M272.754 118.875H284.042C284.431 118.875 284.671 119.299 284.471 119.632L283.179 121.785L275.982 119.837L272.754 118.875Z" fill="#353071"/>
<path d="M275.797 106.325C275.797 106.085 275.991 105.891 276.232 105.891V105.891C276.472 105.891 276.666 106.085 276.666 106.325V118.932H275.797V106.325Z" fill="#4841A6"/>
<path d="M276.23 106.27L282.755 114.425C282.967 114.691 282.858 115.086 282.54 115.206L276.23 117.572V106.27Z" fill="#353071"/>
<path d="M276.23 106.703L281.547 114.474C281.722 114.73 281.625 115.081 281.344 115.21L276.23 117.571V106.703Z" fill="#8F87F3"/>
<path d="M275.797 108.008L272.119 115.364C271.991 115.619 272.102 115.929 272.363 116.045L275.797 117.571V108.008Z" fill="#E7E6F0"/>
<path d="M275.797 108.008L275.776 108.452L275.361 117.38L275.797 117.571V108.008Z" fill="#ABA9C8"/>
<rect x="269.801" y="124.031" width="16.8994" height="0.772199" rx="0.386099" fill="#4841A6"/>
<rect x="272.846" y="125.289" width="12.4215" height="0.772199" rx="0.386099" fill="#4841A6"/>
</svg>
