<svg width="259" height="253" viewBox="0 0 259 253" fill="none" xmlns="http://www.w3.org/2000/svg">
<rect x="0.113281" y="0.710938" width="258" height="252" fill="#A0B5FF"/>
<mask id="mask0_500_12736" style="mask-type:alpha" maskUnits="userSpaceOnUse" x="0" y="0" width="259" height="253">
<rect x="0.113281" y="0.710938" width="258" height="252" fill="#D6895E"/>
</mask>
<g mask="url(#mask0_500_12736)">
<path d="M216.656 90.2962L214.281 88.2916C212.97 87.1846 210.919 87.4567 209.701 88.8995L125.912 188.169C124.694 189.612 124.77 191.679 126.082 192.786L128.457 194.791C129.768 195.898 131.819 195.625 133.036 194.183L216.826 94.9131C218.044 93.4703 217.968 91.4032 216.656 90.2962Z" fill="#FFEFEA"/>
<path d="M216.656 90.2962L214.281 88.2916C212.97 87.1846 210.919 87.4567 209.701 88.8995L203.688 96.0241L210.812 102.038L216.826 94.9131C218.044 93.4703 217.968 91.4032 216.656 90.2962Z" fill="#FFF9F8"/>
<path d="M155.595 167.458L160.595 147.08L188.689 113.795L195.814 119.809L155.595 167.458Z" fill="#4E2417"/>
<path d="M125.365 97.2754L149.114 117.321L145.115 122.058C144.759 122.48 144.128 122.533 143.706 122.177L121.486 103.422C121.064 103.066 121.01 102.435 121.367 102.013L125.365 97.2754Z" fill="#FF6737"/>
<path d="M196.609 157.41L220.358 177.455L216.359 182.193C216.003 182.615 215.372 182.668 214.95 182.312L192.73 163.557C192.308 163.2 192.255 162.57 192.611 162.148L196.609 157.41Z" fill="#F9EDE9"/>
<path d="M149.111 117.324L196.586 157.395L192.587 162.133C192.231 162.555 191.6 162.608 191.178 162.252L145.232 123.471C144.81 123.115 144.756 122.484 145.113 122.062L149.111 117.324Z" fill="#F1B09B"/>
<path d="M208.896 94.6777C208.896 94.6777 215.662 135.037 196.587 157.491L220.312 177.516C242.462 151.274 235.139 116.828 208.896 94.6777Z" fill="#FF6737"/>
<path d="M208.896 94.6746C182.654 72.5245 147.447 71.1131 125.317 97.3317L149.042 117.357C167.95 94.763 208.896 94.6746 208.896 94.6746Z" fill="#F1B09B"/>
<path d="M164.406 77.888C179.612 77.4041 195.434 83.3093 208.898 94.6732C208.898 94.6732 191.994 94.7097 174.894 100.729C167.541 91.0771 164.838 81.4801 164.406 77.888Z" fill="#F2C3B4"/>
<path d="M232.986 135.656C230.868 120.591 222.35 106.008 208.855 94.6806C208.855 94.6806 211.703 111.342 208.691 129.219C219.455 134.817 229.373 135.843 232.986 135.656Z" fill="#FF8C67"/>
<path fill-rule="evenodd" clip-rule="evenodd" d="M208.879 94.6977L208.897 94.6775L208.873 94.6574C208.873 94.6574 208.875 94.671 208.879 94.6977ZM172.745 137.368L149.043 117.362C155.826 109.256 165.44 104.041 174.98 100.687C192.032 94.6921 208.849 94.6392 208.849 94.6392L190.808 116.013L184.57 123.404L208.879 94.6977C209.113 96.1303 215.312 135.448 196.564 157.47L196.516 157.43L172.728 137.388L172.745 137.368Z" fill="#F9EDE9"/>
<path d="M174.981 100.685C192.033 94.6896 208.85 94.6367 208.85 94.6367L190.809 116.011L174.981 100.685Z" fill="#FFF8F5"/>
<path d="M208.575 129.04C211.621 111.224 208.849 94.6367 208.849 94.6367L190.809 116.011L208.575 129.04Z" fill="#FFF8F5"/>
<circle cx="252.007" cy="82.8976" r="14.0001" transform="rotate(-4.83366 252.007 82.8976)" fill="#FF6737"/>
<path d="M181.781 242.711V222.914H189.547C194.045 222.914 196.629 225.689 196.629 229.586C196.629 233.537 194.004 236.258 189.438 236.258H185.883V242.711H181.781ZM185.883 232.949H188.781C191.215 232.949 192.404 231.582 192.391 229.586C192.404 227.617 191.215 226.291 188.781 226.277H185.883V232.949ZM200.594 242.957C199.309 242.957 198.27 241.932 198.297 240.66C198.27 239.402 199.309 238.377 200.594 238.391C201.811 238.377 202.863 239.402 202.863 240.66C202.863 241.932 201.811 242.957 200.594 242.957ZM206.199 242.711V222.914H213.965C218.463 222.914 221.047 225.689 221.047 229.586C221.047 233.537 218.422 236.258 213.855 236.258H210.301V242.711H206.199ZM210.301 232.949H213.199C215.633 232.949 216.822 231.582 216.809 229.586C216.822 227.617 215.633 226.291 213.199 226.277H210.301V232.949ZM227.609 222.914V242.711H223.562V222.914H227.609ZM237.48 243.012C232.928 242.998 230.139 240.059 230.152 235.355C230.139 230.775 232.969 227.672 237.316 227.672C241.213 227.672 244.289 230.133 244.289 235.191V236.34H234.145C234.145 238.582 235.471 239.963 237.562 239.977C238.943 239.963 239.928 239.361 240.324 238.473H244.18C243.605 241.221 241.145 242.998 237.48 243.012ZM234.145 233.797H240.461C240.447 231.992 239.203 230.693 237.398 230.707C235.539 230.693 234.227 232.088 234.145 233.797Z" fill="black"/>
</g>
</svg>
