<svg width="259" height="253" viewBox="0 0 259 253" fill="none" xmlns="http://www.w3.org/2000/svg">
<rect x="0.113281" y="0.310547" width="258" height="252" fill="#ECB393"/>
<mask id="mask0_502_15344" style="mask-type:alpha" maskUnits="userSpaceOnUse" x="0" y="0" width="259" height="253">
<rect x="0.113281" y="0.310547" width="258" height="252" fill="#D6895E"/>
</mask>
<g mask="url(#mask0_502_15344)">
<path d="M216.991 90.129L214.542 88.0518C213.189 86.9046 211.069 87.1811 209.807 88.6693L122.981 191.068C121.719 192.556 121.793 194.693 123.146 195.84L125.595 197.917C126.948 199.064 129.068 198.788 130.33 197.299L217.156 94.9009C218.418 93.4126 218.344 91.2762 216.991 90.129Z" fill="#F3F5FF"/>
<path d="M216.991 90.129L214.542 88.0518C213.189 86.9046 211.069 87.1811 209.807 88.6693L203.575 96.0185L210.925 102.25L217.156 94.9009C218.418 93.4126 218.344 91.2762 216.991 90.129Z" fill="#FCFCFF"/>
<path d="M153.71 169.728L158.924 148.68L188.037 114.346L195.386 120.577L153.71 169.728Z" fill="#171F48"/>
<path d="M122.629 97.1289L147.126 117.901L142.961 122.813C142.604 123.234 141.973 123.286 141.552 122.929L118.58 103.451C118.158 103.093 118.107 102.462 118.464 102.041L122.629 97.1289Z" fill="#33449A"/>
<path d="M196.117 159.443L220.614 180.215L216.449 185.127C216.092 185.549 215.461 185.601 215.04 185.243L192.068 165.765C191.647 165.408 191.595 164.777 191.952 164.356L196.117 159.443Z" fill="#F3F5FF"/>
<path d="M147.123 117.906L196.094 159.43L191.928 164.342C191.571 164.763 190.94 164.815 190.519 164.458L143.074 124.228C142.653 123.871 142.601 123.24 142.958 122.818L147.123 117.906Z" fill="#9BA9F1"/>
<path d="M208.963 94.6367C208.963 94.6367 215.861 136.363 196.095 159.524L220.568 180.275C243.521 153.206 236.032 117.59 208.963 94.6367Z" fill="#33449A"/>
<path d="M208.963 94.6354C181.894 71.6826 145.512 70.1419 122.579 97.1869L147.052 117.938C166.646 94.6314 208.963 94.6354 208.963 94.6354Z" fill="#9BA9F1"/>
<path d="M163.019 77.1843C178.735 76.7196 195.074 82.8594 208.962 94.6352C208.962 94.6352 191.492 94.6335 173.805 100.814C166.229 90.8224 163.458 80.8977 163.019 77.1843Z" fill="#C3CCFB"/>
<path d="M233.762 137.045C231.609 121.47 222.839 106.379 208.919 94.6415C208.919 94.6415 211.824 111.868 208.669 130.336C219.78 136.146 230.028 137.23 233.762 137.045Z" fill="#5167D9"/>
<path fill-rule="evenodd" clip-rule="evenodd" d="M208.945 94.655L208.963 94.6342L208.938 94.6134C208.938 94.6134 208.941 94.6274 208.945 94.655ZM171.474 138.649L147.052 117.941C154.082 109.579 164.029 104.213 173.897 100.768C191.534 94.6121 208.914 94.5967 208.914 94.5967L190.965 115.766L208.945 94.655C209.183 96.1358 215.498 136.784 196.071 159.501L196.022 159.46L171.471 138.652L171.474 138.649Z" fill="#F3F5FF"/>
<path d="M173.897 100.768C191.534 94.6113 208.914 94.5959 208.914 94.5959L190.22 116.643L173.897 100.768Z" fill="#FAFBFF"/>
<path d="M208.552 130.15C211.742 111.744 208.916 94.5955 208.916 94.5955L190.221 116.643L208.552 130.15Z" fill="#FAFBFF"/>
<circle cx="253.548" cy="82.5616" r="14.4689" transform="rotate(-4.7046 253.548 82.5616)" fill="#F3F5FF"/>
<path d="M181.781 242.311V222.514H189.547C194.045 222.514 196.629 225.289 196.629 229.186C196.629 233.137 194.004 235.857 189.438 235.857H185.883V242.311H181.781ZM185.883 232.549H188.781C191.215 232.549 192.404 231.182 192.391 229.186C192.404 227.217 191.215 225.891 188.781 225.877H185.883V232.549ZM200.594 242.557C199.309 242.557 198.27 241.531 198.297 240.26C198.27 239.002 199.309 237.977 200.594 237.99C201.811 237.977 202.863 239.002 202.863 240.26C202.863 241.531 201.811 242.557 200.594 242.557ZM206.199 242.311V222.514H213.965C218.463 222.514 221.047 225.289 221.047 229.186C221.047 233.137 218.422 235.857 213.855 235.857H210.301V242.311H206.199ZM210.301 232.549H213.199C215.633 232.549 216.822 231.182 216.809 229.186C216.822 227.217 215.633 225.891 213.199 225.877H210.301V232.549ZM227.609 222.514V242.311H223.562V222.514H227.609ZM237.48 242.611C232.928 242.598 230.139 239.658 230.152 234.955C230.139 230.375 232.969 227.271 237.316 227.271C241.213 227.271 244.289 229.732 244.289 234.791V235.939H234.145C234.145 238.182 235.471 239.562 237.562 239.576C238.943 239.562 239.928 238.961 240.324 238.072H244.18C243.605 240.82 241.145 242.598 237.48 242.611ZM234.145 233.396H240.461C240.447 231.592 239.203 230.293 237.398 230.307C235.539 230.293 234.227 231.688 234.145 233.396Z" fill="black"/>
</g>
</svg>
