<svg width="259" height="253" viewBox="0 0 259 253" fill="none" xmlns="http://www.w3.org/2000/svg">
<rect x="0.113281" y="0.453125" width="258" height="252" fill="#A0B5FF"/>
<mask id="mask0_500_11600" style="mask-type:alpha" maskUnits="userSpaceOnUse" x="0" y="0" width="259" height="253">
<rect x="0.113281" y="0.453125" width="258" height="252" fill="#D6895E"/>
</mask>
<g mask="url(#mask0_500_11600)">
<path fill-rule="evenodd" clip-rule="evenodd" d="M110.794 34.7305L130.799 40.4958L130.799 40.496L150.804 46.2613L150.804 46.2614L170.809 52.0267L127.319 202.931L107.314 197.166L107.314 197.165L87.309 191.4L87.3091 191.4L67.3042 185.635L110.794 34.7305ZM170.81 52.0248L190.814 57.7901L190.814 57.7908L210.817 63.5556L167.327 214.46L147.322 208.694L147.323 208.694L127.32 202.929L170.81 52.0248ZM230.823 69.3211L210.818 63.5558L167.328 214.46L187.333 220.225L187.333 220.225L207.338 225.991L250.828 75.0866L230.823 69.3213L230.823 69.3211Z" fill="#442B26"/>
<rect x="117.197" y="36.2832" width="20.8191" height="157.046" transform="rotate(16.0767 117.197 36.2832)" fill="#FFE3DE"/>
<rect x="137.201" y="42.0527" width="20.8191" height="157.046" transform="rotate(16.0767 137.201 42.0527)" fill="#FF775E"/>
<rect x="157.205" y="47.8184" width="20.8191" height="157.046" transform="rotate(16.0767 157.205 47.8184)" fill="#FFE3DE"/>
<rect x="177.211" y="53.582" width="20.8191" height="157.046" transform="rotate(16.0767 177.211 53.582)" fill="#FF775E"/>
<rect x="217.221" y="65.1113" width="20.8191" height="157.046" transform="rotate(16.0767 217.221 65.1113)" fill="#FF775E"/>
<rect x="197.215" y="59.3477" width="20.8191" height="157.046" transform="rotate(16.0767 197.215 59.3477)" fill="#FFE3DE"/>
<rect x="237.227" y="70.877" width="20.8191" height="157.046" transform="rotate(16.0767 237.227 70.877)" fill="#FFE3DE"/>
<path fill-rule="evenodd" clip-rule="evenodd" d="M200.364 111.756C196.382 115.04 195.554 120.815 198.453 125.086L223.913 162.6L223.913 162.601C227.234 168.273 234.968 169.921 241.277 166.227C247.586 162.533 250.021 154.934 246.701 149.261L246.704 149.259L225.288 106.998C222.392 101.284 214.947 99.7283 210.005 103.804L206.49 106.703L200.364 111.756Z" fill="#442B26"/>
<path fill-rule="evenodd" clip-rule="evenodd" d="M202.517 110.382C198.641 113.674 197.852 119.35 200.684 123.574L226.026 161.365L226.028 161.364C229.349 167.036 236.659 168.931 242.439 165.547C248.218 162.164 250.223 154.816 246.902 149.143L246.903 149.142L225.335 107.113C222.393 101.38 214.877 99.8856 209.965 104.057L207.645 106.027L202.517 110.382Z" fill="#FFE0DB"/>
<mask id="path-13-inside-1_500_11600" fill="white">
<path fill-rule="evenodd" clip-rule="evenodd" d="M202.517 110.382C198.641 113.674 197.852 119.35 200.684 123.574L226.026 161.365L226.028 161.364C229.349 167.036 236.659 168.931 242.439 165.547C248.218 162.164 250.223 154.816 246.902 149.143L246.903 149.142L225.335 107.113C222.393 101.38 214.877 99.8856 209.965 104.057L207.645 106.027L202.517 110.382Z"/>
</mask>
<path d="M200.684 123.574L201.515 123.017L200.684 123.574ZM202.517 110.382L201.869 109.62L202.517 110.382ZM226.026 161.365L225.195 161.922L225.719 162.703L226.531 162.228L226.026 161.365ZM226.028 161.364L226.89 160.859L226.385 159.996L225.522 160.501L226.028 161.364ZM246.902 149.143L246.397 148.28L245.534 148.785L246.039 149.648L246.902 149.143ZM246.903 149.142L247.409 150.005L248.225 149.527L247.793 148.686L246.903 149.142ZM225.335 107.113L224.446 107.57L224.446 107.57L225.335 107.113ZM209.965 104.057L210.613 104.819L209.965 104.057ZM207.645 106.027L208.293 106.789L207.645 106.027ZM201.515 123.017C198.966 119.216 199.676 114.107 203.164 111.144L201.869 109.62C197.606 113.241 196.738 119.485 199.854 124.131L201.515 123.017ZM226.856 160.808L201.515 123.017L199.854 124.131L225.195 161.922L226.856 160.808ZM225.522 160.501L225.521 160.502L226.531 162.228L226.533 162.227L225.522 160.501ZM225.165 161.869C228.77 168.026 236.696 170.068 242.944 166.41L241.933 164.684C236.623 167.794 229.928 166.047 226.89 160.859L225.165 161.869ZM242.944 166.41C249.183 162.758 251.374 154.804 247.765 148.638L246.039 149.648C249.071 154.828 247.253 161.57 241.933 164.684L242.944 166.41ZM246.398 148.279L246.397 148.28L247.408 150.006L247.409 150.005L246.398 148.279ZM224.446 107.57L246.014 149.599L247.793 148.686L226.225 106.657L224.446 107.57ZM210.613 104.819C215.033 101.065 221.798 102.41 224.446 107.57L226.225 106.657C222.989 100.351 214.721 98.7062 209.318 103.294L210.613 104.819ZM208.293 106.789L210.613 104.819L209.318 103.294L206.998 105.265L208.293 106.789ZM203.164 111.144L208.293 106.789L206.998 105.265L201.869 109.62L203.164 111.144Z" fill="#C76553" mask="url(#path-13-inside-1_500_11600)"/>
<path d="M211.404 115.314L213.426 117.162L210.252 140.528L209.671 139.535C208.486 137.509 208.051 135.131 208.443 132.817L211.404 115.314Z" fill="#8D655E"/>
<path d="M213.28 114.213L213.902 116.882L235.83 125.552L235.249 124.559C234.062 122.534 232.202 120.99 229.992 120.199L213.28 114.213Z" fill="#8D655E"/>
<path d="M210.269 113.368L211.961 116.259L210.207 141.849L208.681 139.245C207.53 137.281 207.084 134.984 207.416 132.732L210.269 113.368Z" fill="#FF775E"/>
<path d="M210.269 113.368L211.961 116.259L210.207 141.849L208.681 139.245C207.53 137.281 207.084 134.984 207.416 132.732L210.269 113.368Z" fill="url(#paint0_linear_500_11600)"/>
<path d="M211.962 116.264L210.269 113.372L210.159 114.12C210.209 114.183 211.344 116.134 211.905 117.102L211.962 116.264Z" fill="#753124"/>
<path d="M223.302 155.365C223.607 155.68 224.14 155.468 224.145 155.03V155.03C224.146 154.918 224.109 154.809 224.04 154.721L210.502 137.516L210.198 141.836L223.302 155.365Z" fill="#B44C38"/>
<path d="M210.199 141.835L210.502 137.515L211.444 138.712L211.462 143.14L210.199 141.835Z" fill="#753124"/>
<path d="M242.459 144.149C242.584 144.569 242.138 144.93 241.754 144.719V144.719C241.656 144.666 241.579 144.58 241.536 144.477L233.16 124.25L237.075 126.099L242.459 144.149Z" fill="#B44C38"/>
<path d="M212.218 112.23L213.91 115.121L237.084 126.117L235.56 123.512C234.411 121.547 232.626 120.034 230.5 119.221L212.218 112.23Z" fill="#FF775E"/>
<path d="M212.218 112.23L213.91 115.121L237.084 126.117L235.56 123.512C234.411 121.547 232.626 120.034 230.5 119.221L212.218 112.23Z" fill="url(#paint1_linear_500_11600)"/>
<path d="M213.91 115.122L212.217 112.231L212.923 112.501C212.953 112.576 214.099 114.52 214.668 115.483L213.91 115.122Z" fill="#753124"/>
<path d="M237.076 126.099L233.16 124.249L233.743 125.656L237.595 127.839L237.076 126.099Z" fill="#753124"/>
<rect x="209.414" y="111.895" width="2.24842" height="6.74527" rx="1.12421" transform="rotate(-30.3463 209.414 111.895)" fill="#FF7258"/>
<path d="M229.501 161.465L226.549 156.422L228.443 155.313C229.6 154.636 230.628 154.978 231.198 155.945C231.76 156.911 231.546 157.976 230.383 158.657L229.408 159.228L230.407 160.935L229.501 161.465ZM228.971 158.483L229.821 157.985C230.502 157.582 230.584 157.02 230.272 156.487C229.956 155.947 229.431 155.754 228.749 156.153L227.899 156.651L228.971 158.483Z" fill="#F2CBC5"/>
<path d="M234.208 158.784C233.908 158.96 233.518 158.861 233.346 158.559C233.172 158.269 233.278 157.884 233.576 157.705C233.867 157.539 234.255 157.635 234.426 157.927C234.601 158.227 234.497 158.615 234.208 158.784Z" fill="#F2CBC5"/>
<path d="M235.61 157.889L232.658 152.846L234.552 151.736C235.708 151.059 236.737 151.402 237.307 152.368C237.868 153.335 237.655 154.4 236.492 155.081L235.516 155.652L236.515 157.358L235.61 157.889ZM235.08 154.907L235.93 154.409C236.61 154.006 236.693 153.443 236.381 152.911C236.065 152.371 235.54 152.178 234.857 152.577L234.008 153.075L235.08 154.907Z" fill="#F2CBC5"/>
<path d="M237.91 149.771L240.862 154.814L239.97 155.336L237.018 150.293L237.91 149.771Z" fill="#F2CBC5"/>
<path d="M243.435 153.41C242.296 154.077 241.152 153.728 240.459 152.543C239.774 151.373 240.019 150.163 241.099 149.531C242.025 148.989 243.167 149.101 243.944 150.428L244.107 150.707L241.467 152.253C241.858 152.889 242.462 153.05 243.034 152.71C243.427 152.485 243.59 152.165 243.572 151.871L244.443 151.361C244.666 152.11 244.313 152.896 243.435 153.41ZM241.115 151.644L242.902 150.599C242.597 150.085 242.028 149.913 241.516 150.213C240.984 150.525 240.865 151.146 241.115 151.644Z" fill="#F2CBC5"/>
<path fill-rule="evenodd" clip-rule="evenodd" d="M221.781 78.0324C224.963 73.968 230.715 72.9929 235.058 75.7816L273.211 100.278L260.454 123.401L217.661 103.069C211.875 100.32 210.13 92.9169 214.078 87.873L216.887 84.285L221.781 78.0324ZM260.456 123.401C266.211 126.576 273.747 123.948 277.279 117.547C280.81 111.146 278.967 103.456 273.211 100.281L260.456 123.401Z" fill="#442B26"/>
<path fill-rule="evenodd" clip-rule="evenodd" d="M221.745 77.826C224.937 73.8672 230.591 72.9342 234.886 75.6577L273.311 100.027L273.31 100.028C279.066 103.203 281.146 110.463 277.911 116.327C274.676 122.191 267.382 124.382 261.626 121.207L261.625 121.21L219.059 100.721C213.253 97.9258 211.567 90.4499 215.611 85.4335L217.522 83.064L221.745 77.826Z" fill="#FFE0DB"/>
<mask id="path-29-inside-2_500_11600" fill="white">
<path fill-rule="evenodd" clip-rule="evenodd" d="M221.745 77.826C224.937 73.8672 230.591 72.9342 234.886 75.6577L273.311 100.027L273.31 100.028C279.066 103.203 281.146 110.463 277.911 116.327C274.676 122.191 267.382 124.382 261.626 121.207L261.625 121.21L219.059 100.721C213.253 97.9258 211.567 90.4499 215.611 85.4335L217.522 83.064L221.745 77.826Z"/>
</mask>
<path d="M234.886 75.6577L235.421 74.8133L234.886 75.6577ZM221.745 77.826L222.524 78.4537L222.524 78.4537L221.745 77.826ZM273.311 100.027L273.846 99.1827L274.641 99.6866L274.186 100.51L273.311 100.027ZM273.31 100.028L272.827 100.903L271.952 100.42L272.435 99.5447L273.31 100.028ZM261.626 121.207L260.75 120.724L261.233 119.849L262.109 120.332L261.626 121.207ZM261.625 121.21L262.5 121.693L262.043 122.521L261.191 122.111L261.625 121.21ZM219.059 100.721L218.625 101.622L218.625 101.622L219.059 100.721ZM215.611 85.4335L216.39 86.0612L216.39 86.0612L215.611 85.4335ZM217.522 83.064L216.743 82.4363L216.743 82.4363L217.522 83.064ZM234.35 76.5022C230.485 74.051 225.396 74.8908 222.524 78.4537L220.967 77.1983C224.478 72.8437 230.697 71.8174 235.421 74.8133L234.35 76.5022ZM272.775 100.872L234.35 76.5022L235.421 74.8133L273.846 99.1827L272.775 100.872ZM272.435 99.5447L272.435 99.5442L274.186 100.51L274.186 100.511L272.435 99.5447ZM273.794 99.1521C280.041 102.599 282.284 110.471 278.787 116.81L277.036 115.844C280.009 110.456 278.091 103.808 272.827 100.903L273.794 99.1521ZM278.787 116.81C275.294 123.141 267.399 125.534 261.143 122.083L262.109 120.332C267.364 123.231 274.058 121.241 277.036 115.844L278.787 116.81ZM260.749 120.727L260.75 120.724L262.502 121.69L262.5 121.693L260.749 120.727ZM219.493 99.8195L262.058 120.309L261.191 122.111L218.625 101.622L219.493 99.8195ZM216.39 86.0612C212.75 90.5759 214.267 97.3042 219.493 99.8195L218.625 101.622C212.239 98.5474 210.384 90.3238 214.833 84.8059L216.39 86.0612ZM218.3 83.6917L216.39 86.0612L214.833 84.8059L216.743 82.4363L218.3 83.6917ZM222.524 78.4537L218.3 83.6917L216.743 82.4363L220.967 77.1983L222.524 78.4537Z" fill="#C76553" mask="url(#path-29-inside-2_500_11600)"/>
<path d="M226.902 86.5825L228.801 88.5574L252.078 84.7886L251.07 84.233C249.015 83.1 246.627 82.7259 244.324 83.1762L226.902 86.5825Z" fill="#8D655E"/>
<path d="M225.854 88.4898L228.538 89.0431L237.764 110.744L236.756 110.187C234.702 109.053 233.112 107.232 232.264 105.044L225.854 88.4898Z" fill="#8D655E"/>
<path d="M224.934 85.5016L227.868 87.12L253.405 84.7134L250.762 83.2544C248.77 82.1543 246.462 81.7668 244.22 82.1558L224.934 85.5016Z" fill="#FF775E"/>
<path d="M224.934 85.5016L227.868 87.12L253.405 84.7134L250.762 83.2544C248.77 82.1543 246.462 81.7668 244.22 82.1558L224.934 85.5016Z" fill="url(#paint2_linear_500_11600)"/>
<path d="M227.869 87.1185L224.936 85.5L225.68 85.3708C225.744 85.4193 227.724 86.5036 228.705 87.0396L227.869 87.1185Z" fill="#753124"/>
<path d="M267.245 97.4567C267.567 97.7534 267.368 98.2916 266.931 98.3075V98.3075C266.819 98.3115 266.709 98.2773 266.62 98.2104L249.075 85.1158L253.385 84.7019L267.245 97.4567Z" fill="#B44C38"/>
<path d="M253.387 84.7025L249.077 85.1164L250.297 86.0274L254.723 85.9323L253.387 84.7025Z" fill="#753124"/>
<path d="M256.524 116.893C256.946 117.007 257.296 116.552 257.076 116.173V116.173C257.019 116.077 256.932 116.002 256.828 115.962L236.394 108.104L238.342 111.971L256.524 116.893Z" fill="#B44C38"/>
<path d="M223.843 87.4749L226.777 89.0933L238.36 111.979L235.717 110.522C233.724 109.423 232.165 107.677 231.298 105.573L223.843 87.4749Z" fill="#FF775E"/>
<path d="M223.843 87.4749L226.777 89.0933L238.36 111.979L235.717 110.522C233.724 109.423 232.165 107.677 231.298 105.573L223.843 87.4749Z" fill="url(#paint3_linear_500_11600)"/>
<path d="M226.777 89.093L223.844 87.4746L224.132 88.1736C224.207 88.2019 226.18 89.2979 227.157 89.8424L226.777 89.093Z" fill="#753124"/>
<path d="M238.342 111.972L236.393 108.105L237.815 108.652L240.095 112.447L238.342 111.972Z" fill="#753124"/>
<rect width="2.24842" height="6.74527" rx="1.12421" transform="matrix(-0.483053 0.875591 0.875591 0.483053 223.438 84.6797)" fill="#FF7258"/>
<path d="M181.781 242.453V222.656H189.547C194.045 222.656 196.629 225.432 196.629 229.328C196.629 233.279 194.004 236 189.438 236H185.883V242.453H181.781ZM185.883 232.691H188.781C191.215 232.691 192.404 231.324 192.391 229.328C192.404 227.359 191.215 226.033 188.781 226.02H185.883V232.691ZM200.594 242.699C199.309 242.699 198.27 241.674 198.297 240.402C198.27 239.145 199.309 238.119 200.594 238.133C201.811 238.119 202.863 239.145 202.863 240.402C202.863 241.674 201.811 242.699 200.594 242.699ZM206.199 242.453V222.656H213.965C218.463 222.656 221.047 225.432 221.047 229.328C221.047 233.279 218.422 236 213.855 236H210.301V242.453H206.199ZM210.301 232.691H213.199C215.633 232.691 216.822 231.324 216.809 229.328C216.822 227.359 215.633 226.033 213.199 226.02H210.301V232.691ZM227.609 222.656V242.453H223.562V222.656H227.609ZM237.48 242.754C232.928 242.74 230.139 239.801 230.152 235.098C230.139 230.518 232.969 227.414 237.316 227.414C241.213 227.414 244.289 229.875 244.289 234.934V236.082H234.145C234.145 238.324 235.471 239.705 237.562 239.719C238.943 239.705 239.928 239.104 240.324 238.215H244.18C243.605 240.963 241.145 242.74 237.48 242.754ZM234.145 233.539H240.461C240.447 231.734 239.203 230.436 237.398 230.449C235.539 230.436 234.227 231.83 234.145 233.539Z" fill="black"/>
</g>
<defs>
<linearGradient id="paint0_linear_500_11600" x1="210.269" y1="113.368" x2="213.44" y2="139.313" gradientUnits="userSpaceOnUse">
<stop stop-color="#D94D33"/>
<stop offset="1" stop-color="#753124" stop-opacity="0"/>
</linearGradient>
<linearGradient id="paint1_linear_500_11600" x1="218.451" y1="108.581" x2="230.853" y2="129.765" gradientUnits="userSpaceOnUse">
<stop stop-color="#D94D33"/>
<stop offset="1" stop-color="#B44C38" stop-opacity="0"/>
</linearGradient>
<linearGradient id="paint2_linear_500_11600" x1="224.934" y1="85.502" x2="250.951" y2="88.0097" gradientUnits="userSpaceOnUse">
<stop stop-color="#D94D33"/>
<stop offset="1" stop-color="#753124" stop-opacity="0"/>
</linearGradient>
<linearGradient id="paint3_linear_500_11600" x1="220.354" y1="93.799" x2="241.848" y2="105.657" gradientUnits="userSpaceOnUse">
<stop stop-color="#D94D33"/>
<stop offset="1" stop-color="#B44C38" stop-opacity="0"/>
</linearGradient>
</defs>
</svg>
