<svg width="351" height="234" viewBox="0 0 351 234" fill="none" xmlns="http://www.w3.org/2000/svg">
<rect x="0.251953" y="0.53125" width="350" height="233" fill="#DC7D94"/>
<path d="M307.405 145.853C307.461 125.778 278.995 114.298 243.05 114.198C207.105 114.097 177.92 130.29 177.863 150.366C177.807 170.441 206.901 186.796 242.846 186.896C278.792 186.996 307.349 165.929 307.405 145.853Z" fill="#222727"/>
<mask id="mask0_569_27179" style="mask-type:luminance" maskUnits="userSpaceOnUse" x="184" y="120" width="124" height="60">
<path d="M307.944 120.368L307.873 144.302C307.85 153.345 301.89 162.376 289.993 169.281C266.048 183.168 227.087 183.174 202.977 169.281C190.851 162.288 184.797 153.11 184.82 143.95L184.891 120.016C184.867 129.176 190.922 138.354 203.053 145.341C227.164 159.234 266.118 159.229 290.07 145.341C301.966 138.442 307.926 129.411 307.95 120.362L307.944 120.368Z" fill="white"/>
</mask>
<g mask="url(#mask0_569_27179)">
<path d="M307.944 120.367L307.873 144.301C307.873 144.483 307.873 144.659 307.867 144.841L307.938 120.907C307.938 120.725 307.944 120.549 307.944 120.367Z" fill="#8DD3CF"/>
<path d="M307.532 124.429C307.296 125.586 306.967 126.743 306.537 127.888C306.096 129.062 305.549 130.231 304.896 131.382C304.19 132.627 303.366 133.848 302.419 135.052C301.313 136.455 300.042 137.823 298.601 139.145C296.394 141.176 293.794 143.108 290.805 144.905L290.734 168.839C293.723 167.042 296.324 165.116 298.53 163.079C299.966 161.752 301.242 160.383 302.348 158.986C303.296 157.788 304.119 156.561 304.825 155.316C305.478 154.165 306.02 153.002 306.467 151.822C306.896 150.677 307.226 149.526 307.461 148.363C307.696 147.195 307.832 146.015 307.867 144.84L307.938 120.906C307.902 122.081 307.767 123.261 307.532 124.429Z" fill="#8DD3CF"/>
<path d="M290.063 145.343C285.962 147.721 281.414 149.694 276.578 151.262C272.848 152.471 268.942 153.434 264.929 154.157L264.858 178.091C268.871 177.368 272.772 176.405 276.508 175.196C281.344 173.634 285.886 171.661 289.993 169.277C290.246 169.13 290.499 168.983 290.746 168.836L290.816 144.902C290.569 145.049 290.316 145.196 290.063 145.343Z" fill="#8DD3CF"/>
<path d="M257.087 155.247C254.828 155.47 252.551 155.623 250.262 155.699C248.162 155.77 246.061 155.782 243.961 155.729C241.937 155.676 239.913 155.57 237.901 155.406C235.895 155.241 233.894 155.018 231.918 154.736C229.858 154.443 227.823 154.091 225.816 153.68C223.64 153.227 221.498 152.705 219.398 152.112C216.832 151.384 214.332 150.544 211.926 149.593C208.801 148.36 205.824 146.944 203.047 145.347C190.922 138.354 184.862 129.182 184.891 120.016L184.82 143.95C184.797 153.11 190.851 162.288 202.983 169.275C205.76 170.878 208.731 172.294 211.861 173.521C214.267 174.472 216.768 175.306 219.333 176.04C221.427 176.639 223.575 177.161 225.752 177.608C227.758 178.025 229.794 178.377 231.853 178.665C233.83 178.946 235.824 179.17 237.836 179.334C239.848 179.498 241.872 179.61 243.896 179.657C245.997 179.71 248.103 179.698 250.197 179.628C252.48 179.551 254.763 179.399 257.022 179.176C259.67 178.911 262.294 178.547 264.871 178.083L264.941 154.149C262.364 154.613 259.74 154.977 257.093 155.241L257.087 155.247Z" fill="#8DD3CF"/>
</g>
<mask id="mask1_569_27179" style="mask-type:luminance" maskUnits="userSpaceOnUse" x="184" y="120" width="124" height="60">
<path d="M307.944 120.368L307.873 144.302C307.85 153.345 301.89 162.376 289.993 169.281C266.048 183.168 227.087 183.174 202.977 169.281C190.851 162.288 184.797 153.11 184.82 143.95L184.891 120.016C184.867 129.176 190.922 138.354 203.053 145.341C227.164 159.234 266.118 159.229 290.07 145.341C301.966 138.442 307.926 129.411 307.95 120.362L307.944 120.368Z" fill="white"/>
</mask>
<g mask="url(#mask1_569_27179)">
<path d="M307.944 120.367L307.873 144.301C307.873 144.483 307.873 144.659 307.867 144.841L307.938 120.907C307.938 120.725 307.944 120.549 307.944 120.367Z" fill="#8DD3CF"/>
<path d="M306.538 127.888C306.967 126.743 307.297 125.586 307.532 124.429C307.768 123.261 307.903 122.081 307.938 120.906L307.868 144.84C307.832 146.015 307.697 147.195 307.462 148.363C307.226 149.526 306.897 150.677 306.467 151.822C306.02 153.002 305.479 154.165 304.826 155.316L297.237 140.345C297.707 139.949 298.162 139.549 298.601 139.145C300.043 137.823 301.313 136.455 302.419 135.052C303.367 133.848 304.19 132.627 304.896 131.382C305.549 130.231 306.097 129.062 306.538 127.888Z" fill="#25515A"/>
<path d="M257.087 155.247C254.828 155.47 252.551 155.623 250.262 155.699C248.162 155.77 246.061 155.782 243.961 155.729C241.937 155.676 239.913 155.57 237.901 155.406C235.895 155.241 233.894 155.018 231.918 154.736C229.858 154.443 227.823 154.091 225.816 153.68C223.64 153.227 221.498 152.705 219.398 152.112C216.832 151.384 214.332 150.544 211.926 149.593C208.801 148.36 205.824 146.944 203.047 145.347C190.922 138.354 184.862 129.182 184.891 120.016L184.82 143.95C184.797 153.11 190.851 162.288 202.983 169.275C205.76 170.878 208.731 172.294 211.861 173.521C214.267 174.472 216.768 175.306 219.333 176.04C221.427 176.639 223.575 177.161 225.752 177.608C227.758 178.025 229.794 178.377 231.853 178.665C233.83 178.946 235.824 179.17 237.836 179.334C239.848 179.498 241.872 179.61 243.896 179.657C245.997 179.71 248.103 179.698 250.197 179.628C252.48 179.551 254.763 179.399 257.022 179.176C259.67 178.911 262.294 178.547 264.871 178.083L264.941 154.149C262.364 154.613 259.74 154.977 257.093 155.241L257.087 155.247Z" fill="#8DD3CF"/>
</g>
<path d="M195.688 120.201C195.647 112.696 200.553 105.186 210.426 99.461C230.177 88.0048 262.295 88.0107 282.169 99.461C292.106 105.186 297.101 112.696 297.148 120.201V130.87L244.441 140.965L195.688 134.489V120.201Z" fill="#222727"/>
<path d="M297.149 126.581C297.194 110.383 274.517 97.1879 246.498 97.1098C218.479 97.0317 195.728 110.1 195.683 126.299C195.637 142.497 218.314 155.692 246.334 155.77C274.353 155.848 297.103 142.78 297.149 126.581Z" fill="#6E8FE6"/>
<mask id="mask2_569_27179" style="mask-type:luminance" maskUnits="userSpaceOnUse" x="210" y="112" width="73" height="36">
<path d="M282.422 112.803L282.381 126.814C282.363 132.11 278.88 137.395 271.914 141.435C257.894 149.567 235.09 149.567 220.975 141.435C213.874 137.342 210.326 131.969 210.344 126.608L210.385 112.598C210.367 117.959 213.915 123.332 221.016 127.424C235.131 135.557 257.935 135.557 271.955 127.424C278.922 123.384 282.41 118.1 282.422 112.803Z" fill="white"/>
</mask>
<g mask="url(#mask2_569_27179)">
<path d="M282.422 112.801L282.381 126.811C282.381 126.917 282.381 127.023 282.381 127.128L282.422 113.118C282.422 113.012 282.422 112.906 282.422 112.801Z" fill="#8AA9E4"/>
<path d="M282.18 115.182C282.045 115.863 281.85 116.539 281.597 117.208C281.339 117.895 281.021 118.576 280.638 119.251C280.227 119.98 279.744 120.696 279.191 121.401C278.544 122.223 277.797 123.021 276.955 123.796C275.661 124.988 274.143 126.116 272.396 127.167L272.354 141.177C274.102 140.126 275.626 138.999 276.914 137.807C277.756 137.032 278.503 136.227 279.15 135.411C279.703 134.706 280.185 133.99 280.597 133.262C280.98 132.587 281.297 131.905 281.556 131.218C281.809 130.549 282.003 129.874 282.139 129.193C282.274 128.506 282.356 127.819 282.374 127.132L282.415 113.121C282.398 113.808 282.315 114.501 282.18 115.182Z" fill="#8AA9E4"/>
<path d="M281.597 117.208C281.85 116.539 282.044 115.863 282.18 115.182C282.315 114.501 282.397 113.808 282.415 113.121L282.374 127.132C282.356 127.819 282.274 128.506 282.139 129.193C282.003 129.874 281.809 130.549 281.556 131.218C281.297 131.905 280.98 132.587 280.597 133.262C280.185 133.99 279.703 134.706 279.15 135.411C278.503 136.227 277.755 137.032 276.914 137.807L276.955 123.796C277.797 123.021 278.544 122.223 279.191 121.401C279.744 120.696 280.226 119.98 280.638 119.251C281.021 118.576 281.338 117.895 281.597 117.208Z" fill="#697ECA"/>
<path d="M271.954 127.422C269.554 128.814 266.894 129.971 264.058 130.887C261.876 131.592 259.587 132.161 257.239 132.584L257.198 146.594C259.546 146.172 261.834 145.608 264.017 144.897C266.847 143.981 269.506 142.825 271.913 141.433C272.06 141.345 272.207 141.263 272.354 141.175L272.395 127.164C272.248 127.252 272.101 127.34 271.954 127.422Z" fill="#8AA9E4"/>
<path d="M252.651 133.226C251.327 133.355 249.992 133.443 248.656 133.49C247.426 133.531 246.197 133.537 244.967 133.508C243.779 133.478 242.596 133.414 241.419 133.32C240.243 133.226 239.078 133.091 237.919 132.926C236.713 132.756 235.524 132.551 234.347 132.304C233.071 132.04 231.817 131.734 230.588 131.382C229.088 130.953 227.623 130.466 226.216 129.908C224.387 129.186 222.645 128.358 221.021 127.424C213.92 123.332 210.372 117.959 210.39 112.598L210.349 126.608C210.331 131.969 213.879 137.342 220.98 141.435C222.604 142.374 224.345 143.202 226.175 143.919C227.587 144.476 229.046 144.964 230.547 145.392C231.776 145.739 233.029 146.05 234.306 146.314C235.483 146.555 236.671 146.767 237.877 146.937C239.036 147.101 240.201 147.23 241.378 147.33C242.555 147.424 243.737 147.489 244.926 147.518C246.155 147.547 247.385 147.542 248.615 147.501C249.95 147.454 251.286 147.365 252.61 147.236C254.157 147.084 255.693 146.872 257.205 146.596L257.246 132.586C255.734 132.856 254.198 133.073 252.651 133.226Z" fill="#8AA9E4"/>
</g>
<path d="M297.149 126.584C297.194 110.385 274.517 97.1905 246.498 97.1124C233.511 97.0762 221.657 99.8641 212.67 104.479L260.517 126.849L271.993 132.214L290.624 140.925C294.765 136.692 297.134 131.8 297.149 126.584Z" fill="#5281B9" fill-opacity="0.67"/>
<path d="M246.488 100.775C246.212 100.775 245.987 100.998 245.987 101.274C245.986 101.55 246.209 101.775 246.485 101.775L246.488 100.775ZM276.217 145.415C276.461 145.286 276.553 144.983 276.423 144.739C276.293 144.495 275.99 144.403 275.747 144.533L276.217 145.415ZM206.171 116.755L206.577 117.046L206.577 117.046L206.171 116.755ZM289.06 129.858C288.996 130.127 289.162 130.396 289.431 130.46C289.699 130.524 289.969 130.358 290.033 130.089L289.06 129.858ZM208.296 114.937C208.483 114.734 208.47 114.418 208.266 114.231C208.063 114.044 207.747 114.057 207.56 114.261L208.296 114.937ZM246.485 101.775C258.435 101.809 269.222 104.64 276.999 109.165C284.789 113.698 289.47 119.868 289.452 126.564L290.452 126.567C290.472 119.363 285.443 112.922 277.502 108.301C269.547 103.673 258.582 100.809 246.488 100.775L246.485 101.775ZM246.347 151.114C234.397 151.08 223.611 148.249 215.834 143.724C208.044 139.191 203.362 133.021 203.381 126.325L202.381 126.322C202.361 133.526 207.39 139.967 215.331 144.588C223.285 149.216 234.251 152.08 246.344 152.114L246.347 151.114ZM275.747 144.533C268.049 148.638 257.717 151.145 246.347 151.114L246.344 152.114C257.853 152.146 268.352 149.61 276.217 145.415L275.747 144.533ZM203.381 126.325C203.39 123.053 204.517 119.921 206.577 117.046L205.764 116.463C203.602 119.481 202.391 122.811 202.381 126.322L203.381 126.325ZM289.452 126.564C289.448 127.681 289.315 128.781 289.06 129.858L290.033 130.089C290.305 128.938 290.448 127.762 290.452 126.567L289.452 126.564ZM206.577 117.046C207.093 116.326 207.667 115.623 208.296 114.937L207.56 114.261C206.905 114.974 206.305 115.709 205.764 116.463L206.577 117.046Z" fill="#5B79C7"/>
<path d="M289.782 95.0504C265.678 81.1632 226.717 81.1574 202.766 95.0504C178.82 108.938 178.944 131.462 203.048 145.355C227.159 159.248 266.113 159.243 290.065 145.355C314.016 131.462 313.887 108.943 289.782 95.0504ZM282.404 140.94C262.659 152.39 230.536 152.396 210.661 140.94C190.787 129.489 190.681 110.916 210.426 99.4661C230.177 88.0099 262.295 88.0158 282.169 99.4661C302.049 110.922 302.149 129.489 282.404 140.94Z" fill="#E5FAF8"/>
<path d="M289.782 95.0504C311.169 107.377 313.682 126.494 297.249 140.351L289.573 135.711C301.728 124.395 299.246 109.307 282.169 99.4661C266.83 90.6285 244.197 88.6085 225.586 93.414L222.626 87.3435C244.91 81.9929 271.581 84.5643 289.782 95.0504Z" fill="#BBDCDA"/>
<path d="M202.767 95.0504C226.718 81.1574 265.679 81.1632 289.783 95.0504C308.317 105.733 312.677 121.515 302.814 134.554L294.093 130.336C300.641 119.941 296.658 107.815 282.17 99.4661C262.296 88.0158 230.178 88.0099 210.427 99.4661L202.767 95.0504Z" fill="#BBDCDA"/>
<mask id="mask3_569_27179" style="mask-type:luminance" maskUnits="userSpaceOnUse" x="210" y="103" width="73" height="36">
<path d="M282.422 103.6L282.381 117.611C282.363 122.907 278.88 128.192 271.914 132.232C257.894 140.364 235.09 140.364 220.975 132.232C213.874 128.139 210.326 122.766 210.344 117.405L210.385 103.395C210.367 108.756 213.915 114.128 221.016 118.221C235.131 126.354 257.935 126.354 271.955 118.221C278.922 114.181 282.41 108.897 282.422 103.6Z" fill="white"/>
</mask>
<g mask="url(#mask3_569_27179)">
<path d="M282.422 103.598L282.381 117.608C282.381 117.714 282.381 117.82 282.381 117.925L282.422 103.915C282.422 103.809 282.422 103.703 282.422 103.598Z" fill="#8DD3CF"/>
<path d="M282.18 105.979C282.045 106.66 281.85 107.335 281.597 108.005C281.339 108.692 281.021 109.373 280.638 110.048C280.227 110.776 279.744 111.493 279.191 112.197C278.544 113.019 277.797 113.818 276.955 114.593C275.661 115.785 274.143 116.913 272.396 117.964L272.354 131.974C274.102 130.923 275.626 129.796 276.914 128.604C277.756 127.829 278.503 127.024 279.15 126.208C279.703 125.503 280.185 124.787 280.597 124.059C280.98 123.383 281.297 122.702 281.556 122.015C281.809 121.346 282.003 120.671 282.139 119.989C282.274 119.302 282.356 118.615 282.374 117.928L282.415 103.918C282.398 104.605 282.315 105.298 282.18 105.979Z" fill="#8DD3CF"/>
<path d="M271.954 118.219C269.554 119.611 266.894 120.768 264.058 121.684C261.876 122.388 259.587 122.958 257.239 123.381L257.198 137.391C259.546 136.968 261.834 136.405 264.017 135.694C266.847 134.778 269.506 133.621 271.913 132.23C272.06 132.142 272.207 132.059 272.354 131.971L272.395 117.961C272.248 118.049 272.101 118.137 271.954 118.219Z" fill="#8DD3CF"/>
<path d="M252.651 124.023C251.327 124.152 249.992 124.24 248.656 124.287C247.426 124.328 246.197 124.334 244.967 124.305C243.779 124.275 242.596 124.211 241.419 124.117C240.243 124.023 239.078 123.888 237.919 123.723C236.713 123.553 235.524 123.347 234.347 123.101C233.071 122.837 231.817 122.531 230.588 122.179C229.088 121.75 227.623 121.263 226.216 120.705C224.387 119.983 222.645 119.155 221.021 118.221C213.92 114.128 210.372 108.756 210.39 103.395L210.349 117.405C210.331 122.766 213.879 128.139 220.98 132.232C222.604 133.171 224.345 133.999 226.175 134.716C227.587 135.273 229.046 135.761 230.547 136.189C231.776 136.536 233.029 136.847 234.306 137.111C235.483 137.352 236.671 137.563 237.877 137.734C239.036 137.898 240.201 138.027 241.378 138.127C242.555 138.221 243.737 138.286 244.926 138.315C246.155 138.344 247.385 138.338 248.615 138.297C249.95 138.25 251.286 138.162 252.61 138.033C254.157 137.88 255.693 137.669 257.205 137.393L257.246 123.383C255.734 123.653 254.198 123.87 252.651 124.023Z" fill="#8DD3CF"/>
</g>
<path d="M216.703 103.508C216.68 99.1162 219.551 94.7181 225.334 91.3653C236.895 84.6595 255.699 84.6595 267.336 91.3653C273.155 94.7181 276.079 99.1104 276.103 103.508H216.703Z" fill="#222727"/>
<path d="M276.099 107.242C276.125 97.7597 262.85 90.0356 246.447 89.9898C230.044 89.9441 216.726 97.5941 216.699 107.077C216.673 116.559 229.948 124.283 246.351 124.329C262.754 124.375 276.072 116.725 276.099 107.242Z" fill="#6E8FE6"/>
<path d="M246.384 112.326C241.443 112.312 237.444 109.985 237.452 107.129M241.282 102.901C242.736 102.317 244.505 101.977 246.413 101.982C251.354 101.996 255.353 104.322 255.345 107.179C255.341 108.644 254.283 109.964 252.587 110.901" stroke="#5B79C7" stroke-linecap="round"/>
<path d="M253.113 107.174C253.107 109.318 250.096 111.047 246.387 111.037C242.678 111.027 239.676 109.28 239.682 107.136C239.688 104.992 242.7 103.262 246.409 103.273C250.118 103.283 253.119 105.029 253.113 107.174Z" fill="#5B79C7"/>
<path d="M271.79 88.7792C257.681 80.6465 234.871 80.6465 220.851 88.7792C206.831 96.9118 206.907 110.094 221.016 118.227C235.13 126.36 257.934 126.36 271.955 118.227C285.975 110.094 285.904 96.9118 271.79 88.7792ZM267.472 115.643C255.911 122.349 237.107 122.349 225.469 115.643C213.832 108.938 213.773 98.0686 225.334 91.3628C236.895 84.6571 255.699 84.6571 267.336 91.3628C278.974 98.0686 279.033 108.938 267.472 115.643Z" fill="#E5FAF8"/>
<path d="M220.852 88.7792C234.872 80.6465 257.682 80.6465 271.791 88.7792C285.905 96.9118 285.976 110.094 271.955 118.227L267.472 115.643C279.033 108.938 278.974 98.0686 267.337 91.3628C255.699 84.6571 236.896 84.6571 225.335 91.3628L220.852 88.7792Z" fill="#BBDCDA"/>
<path d="M246.169 104.644C246.44 100.293 248.287 76.4646 256.713 67.9679C258.707 65.9597 261.584 64.9497 264.373 65.4312C266.003 65.7072 267.338 66.4647 268.274 67.8211C268.997 68.8722 269.021 70.1817 268.944 70.9215C268.715 73.1822 267.762 74.1335 265.791 75.5369C262.49 77.8798 251.953 83.2996 246.393 104.679C246.358 104.809 246.158 104.773 246.169 104.638V104.644Z" fill="#5B79C7"/>
<path d="M246.169 104.644C246.44 100.293 248.287 76.4646 256.713 67.9679C258.707 65.9597 261.584 64.9497 264.373 65.4312C266.003 65.7072 267.338 66.4647 268.274 67.8211C268.997 68.8722 269.021 70.1817 268.944 70.9215C268.715 73.1822 267.762 74.1335 265.791 75.5369C262.49 77.8798 251.953 83.2996 246.393 104.679C246.358 104.809 246.158 104.773 246.169 104.638V104.644Z" fill="url(#paint0_linear_569_27179)"/>
<path d="M246.135 104.683C245.947 101.671 244.67 85.1534 238.828 79.2638C237.445 77.8722 235.45 77.1734 233.515 77.5022C232.385 77.696 231.461 78.2186 230.814 79.1581C230.314 79.8862 230.296 80.7964 230.349 81.3072C230.508 82.8751 231.167 83.5327 232.538 84.5016C234.827 86.1222 242.128 89.8803 245.982 104.701C246.005 104.789 246.141 104.766 246.141 104.672L246.135 104.683Z" fill="#5B79C7"/>
<path d="M246.135 104.683C245.947 101.671 244.67 85.1534 238.828 79.2638C237.445 77.8722 235.45 77.1734 233.515 77.5022C232.385 77.696 231.461 78.2186 230.814 79.1581C230.314 79.8862 230.296 80.7964 230.349 81.3072C230.508 82.8751 231.167 83.5327 232.538 84.5016C234.827 86.1222 242.128 89.8803 245.982 104.701C246.005 104.789 246.141 104.766 246.141 104.672L246.135 104.683Z" fill="url(#paint1_linear_569_27179)"/>
<defs>
<linearGradient id="paint0_linear_569_27179" x1="257.571" y1="65.3125" x2="252.065" y2="104.411" gradientUnits="userSpaceOnUse">
<stop stop-color="#274683"/>
<stop offset="1" stop-color="#5B79C7"/>
</linearGradient>
<linearGradient id="paint1_linear_569_27179" x1="238.235" y1="77.4219" x2="234.421" y2="104.515" gradientUnits="userSpaceOnUse">
<stop stop-color="#274683"/>
<stop offset="1" stop-color="#5B79C7"/>
</linearGradient>
</defs>
</svg>
