<svg width="351" height="265" viewBox="0 0 351 265" fill="none" xmlns="http://www.w3.org/2000/svg">
<rect x="0.761719" y="0.648438" width="350" height="264" fill="#D38D8D"/>
<path d="M269.341 149.121V193.823C269.341 195.398 272.099 196.675 275.498 196.675C278.896 196.675 281.654 195.398 281.654 193.823V149.121H269.341Z" fill="#6F7976"/>
<path d="M269.341 149.121H281.654V182.079L269.341 174.908V149.121Z" fill="#0B231C"/>
<path d="M306.303 161.896L289.629 89.8511C288.247 83.1855 282.339 78.4043 275.491 78.4043C268.638 78.4043 262.736 83.1855 261.354 89.8511L244.679 161.896C244.543 162.233 244.464 162.582 244.464 162.931C244.464 167.864 258.352 171.863 275.491 171.863C292.63 171.863 306.519 167.864 306.519 162.931C306.519 162.582 306.439 162.233 306.303 161.896Z" fill="#448974"/>
<path d="M261.354 89.8511C262.176 85.8843 264.6 82.5849 267.871 80.5634C271.859 78.1 276.215 81.6594 277.232 86.2347L294.971 166.051C293.983 167.451 288.702 170.574 275.491 171.863C258.352 171.863 244.464 167.864 244.464 162.931C244.464 162.582 244.543 162.233 244.679 161.896L261.354 89.8511Z" fill="#112922"/>
<path d="M200.571 149.121V193.823C200.571 195.398 203.33 196.675 206.728 196.675C210.126 196.675 212.885 195.398 212.885 193.823V149.121H200.571Z" fill="#6F7976"/>
<path d="M200.571 149.121H212.885V184.335L200.571 177.76V149.121Z" fill="#0B231C"/>
<path d="M237.535 161.896L220.86 89.8511C219.478 83.1855 213.571 78.4043 206.723 78.4043C199.869 78.4043 193.968 83.1855 192.586 89.8511L175.916 161.896C175.78 162.233 175.701 162.582 175.701 162.931C175.701 167.864 189.589 171.863 206.729 171.863C223.868 171.863 237.756 167.864 237.756 162.931C237.756 162.582 237.677 162.233 237.541 161.896H237.535Z" fill="#112922"/>
<path d="M250.188 159.096V203.797C250.188 205.372 252.946 206.649 256.344 206.649C259.743 206.649 262.501 205.372 262.501 203.797V159.096H250.188Z" fill="#6F7976"/>
<path d="M250.188 159.096H262.501V181.447L250.188 173.031V159.096Z" fill="#0B231C"/>
<path d="M287.156 158.611L270.481 78.0953C269.099 71.4297 263.192 66.6484 256.344 66.6484C249.49 66.6484 243.588 71.4297 242.206 78.0953L225.532 158.611C225.396 158.949 225.316 159.297 225.316 159.646C225.316 164.579 239.205 168.579 256.344 168.579C273.483 168.579 287.371 164.579 287.371 159.646C287.371 159.297 287.292 158.949 287.156 158.611Z" fill="#83CCB6"/>
</svg>
