<svg width="351" height="265" viewBox="0 0 351 265" fill="none" xmlns="http://www.w3.org/2000/svg">
<rect x="0.761719" y="0.648438" width="350" height="264" fill="#33837E"/>
<path d="M268.992 149.121V193.823C268.992 195.398 271.751 196.675 275.149 196.675C278.547 196.675 281.306 195.398 281.306 193.823V149.121H268.992Z" fill="#784949"/>
<path d="M268.992 149.121H281.306V182.079L268.992 174.908V149.121Z" fill="#290D0D"/>
<path d="M305.955 161.896L289.28 89.8511C287.898 83.1855 281.99 78.4043 275.143 78.4043C268.289 78.4043 262.387 83.1855 261.005 89.8511L244.33 161.896C244.195 162.233 244.115 162.582 244.115 162.931C244.115 167.864 258.003 171.863 275.143 171.863C292.282 171.863 306.17 167.864 306.17 162.931C306.17 162.582 306.091 162.233 305.955 161.896Z" fill="#AA5959"/>
<path d="M261.005 89.8511C261.828 85.8843 264.251 82.5849 267.523 80.5634C271.51 78.1 275.866 81.6594 276.883 86.2347L294.623 166.051C293.634 167.451 288.354 170.574 275.143 171.863C258.003 171.863 244.115 167.864 244.115 162.931C244.115 162.582 244.195 162.233 244.33 161.896L261.005 89.8511Z" fill="#512020"/>
<path d="M200.223 149.121V193.823C200.223 195.398 202.981 196.675 206.379 196.675C209.778 196.675 212.536 195.398 212.536 193.823V149.121H200.223Z" fill="#784949"/>
<path d="M200.223 149.121H212.536V184.335L200.223 177.76V149.121Z" fill="#290D0D"/>
<path d="M237.186 161.896L220.512 89.8511C219.13 83.1855 213.222 78.4043 206.374 78.4043C199.521 78.4043 193.619 83.1855 192.237 89.8511L175.568 161.896C175.432 162.233 175.353 162.582 175.353 162.931C175.353 167.864 189.241 171.863 206.38 171.863C223.519 171.863 237.407 167.864 237.407 162.931C237.407 162.582 237.328 162.233 237.192 161.896H237.186Z" fill="#291816"/>
<path d="M249.839 159.096V203.797C249.839 205.372 252.597 206.649 255.996 206.649C259.394 206.649 262.152 205.372 262.152 203.797V159.096H249.839Z" fill="#784949"/>
<path d="M249.839 159.096H262.152V181.447L249.839 173.031V159.096Z" fill="#290D0D"/>
<path d="M286.807 158.611L270.132 78.0953C268.75 71.4297 262.843 66.6484 255.995 66.6484C249.142 66.6484 243.24 71.4297 241.858 78.0953L225.183 158.611C225.047 158.949 224.968 159.297 224.968 159.646C224.968 164.579 238.856 168.579 255.995 168.579C273.134 168.579 287.023 164.579 287.023 159.646C287.023 159.297 286.943 158.949 286.807 158.611Z" fill="#E3978E"/>
</svg>
