<svg width="351" height="265" viewBox="0 0 351 265" fill="none" xmlns="http://www.w3.org/2000/svg">
<rect x="0.761719" y="0.351562" width="350" height="264" fill="#508D69"/>
<path d="M207.757 167.006H216.365V190.679C216.365 191.862 215.397 192.831 214.213 192.831H209.909C208.725 192.831 207.757 191.862 207.757 190.679V167.006Z" fill="#3C1D1B"/>
<path d="M216.365 167.006H207.757V172.543L216.365 177.886V167.006Z" fill="#160B05"/>
<path d="M237.778 132.7C237.842 131.947 237.886 131.194 237.886 130.419C237.886 117.334 227.297 106.746 214.213 106.746C213.481 106.746 212.771 106.789 212.061 106.854C224.134 107.951 233.581 118.066 233.581 130.419C233.581 131.194 233.538 131.947 233.474 132.7C242.018 133.712 248.646 140.986 248.646 149.788C248.646 159.3 240.941 167.004 231.429 167.004H235.733C245.246 167.004 252.95 159.3 252.95 149.788C252.95 140.964 246.322 133.712 237.778 132.7Z" fill="#291F1A"/>
<path d="M233.474 132.7C233.538 131.947 233.581 131.194 233.581 130.419C233.581 118.066 224.134 107.951 212.06 106.854C211.35 106.789 210.64 106.746 209.908 106.746C196.824 106.746 186.235 117.334 186.235 130.419C186.235 131.194 186.279 131.947 186.343 132.7C177.799 133.712 171.171 140.986 171.171 149.788C171.171 159.3 178.875 167.004 188.388 167.004H231.429C240.941 167.004 248.646 159.3 248.646 149.788C248.646 140.964 242.017 133.712 233.474 132.7Z" fill="#583C3C"/>
<path d="M232.774 132.701C224.453 132.701 217.708 139.446 217.708 147.768H215.556C215.556 138.258 223.265 130.549 232.774 130.549C233.066 130.549 233.355 130.556 233.642 130.57V132.725C233.355 132.709 233.066 132.701 232.774 132.701Z" fill="#291F1A"/>
<path d="M265.604 166.379H274.122V189.805C274.122 190.977 273.164 191.935 271.993 191.935H267.733C266.562 191.935 265.604 190.977 265.604 189.805V166.379Z" fill="#3C1D1B"/>
<path d="M274.122 166.379H265.604V172.452L274.122 177.841V166.379Z" fill="#160B05"/>
<path d="M295.312 132.43C295.376 131.684 295.418 130.939 295.418 130.172C295.418 117.224 284.94 106.746 271.992 106.746C271.268 106.746 270.565 106.789 269.862 106.853C281.81 107.939 291.159 117.948 291.159 130.172C291.159 130.939 291.116 131.684 291.052 132.43C299.507 133.431 306.067 140.629 306.067 149.339C306.067 158.753 298.442 166.377 289.029 166.377H293.289C302.702 166.377 310.326 158.753 310.326 149.339C310.326 140.608 303.767 133.431 295.312 132.43Z" fill="#4E2A2A"/>
<path d="M291.052 132.43C291.116 131.684 291.159 130.939 291.159 130.172C291.159 117.948 281.81 107.939 269.862 106.853C269.159 106.789 268.457 106.746 267.732 106.746C254.784 106.746 244.306 117.224 244.306 130.172C244.306 130.939 244.349 131.684 244.413 132.43C235.958 133.431 229.398 140.629 229.398 149.339C229.398 158.753 237.023 166.377 246.436 166.377H289.029C298.442 166.377 306.066 158.753 306.066 149.339C306.066 140.608 299.507 133.431 291.052 132.43Z" fill="#B43D3D"/>
<path d="M290.361 132.43C282.126 132.43 275.451 139.106 275.451 147.34H273.321C273.321 137.93 280.95 130.301 290.361 130.301C290.649 130.301 290.935 130.308 291.22 130.322V132.455C290.935 132.439 290.649 132.43 290.361 132.43Z" fill="#BC5656"/>
<path d="M247.631 160.914H258.269V190.169C258.269 191.632 257.072 192.829 255.61 192.829H250.29C248.828 192.829 247.631 191.632 247.631 190.169V160.914Z" fill="#3C1D1B"/>
<path d="M258.269 160.914H247.631V168.12L258.269 175.812V160.914Z" fill="#160B05"/>
<path d="M284.731 118.52C284.811 117.589 284.864 116.658 284.864 115.7C284.864 99.5304 271.779 86.4453 255.609 86.4453C254.705 86.4453 253.827 86.4985 252.949 86.5783C267.869 87.9347 279.545 100.435 279.545 115.7C279.545 116.658 279.492 117.589 279.412 118.52C289.97 119.77 298.162 128.759 298.162 139.637C298.162 151.392 288.641 160.913 276.885 160.913H282.204C293.96 160.913 303.481 151.392 303.481 139.637C303.481 128.732 295.289 119.77 284.731 118.52Z" fill="#BC5656"/>
<path d="M279.412 118.52C279.492 117.589 279.545 116.658 279.545 115.7C279.545 100.435 267.87 87.9347 252.95 86.5783C252.072 86.4985 251.194 86.4453 250.29 86.4453C234.12 86.4453 221.035 99.5304 221.035 115.7C221.035 116.658 221.088 117.589 221.168 118.52C210.609 119.77 202.418 128.759 202.418 139.637C202.418 151.392 211.939 160.913 223.694 160.913H276.886C288.641 160.913 298.162 151.392 298.162 139.637C298.162 128.732 289.971 119.77 279.412 118.52Z" fill="#F38787"/>
<path d="M278.548 118.521C268.264 118.521 259.928 126.857 259.928 137.14H257.269C257.269 125.388 266.796 115.861 278.548 115.861C278.907 115.861 279.265 115.87 279.62 115.888V118.551C279.265 118.531 278.908 118.521 278.548 118.521Z" fill="#BC5656"/>
</svg>
