<svg width="351" height="234" viewBox="0 0 351 234" fill="none" xmlns="http://www.w3.org/2000/svg">
<rect x="0.761719" y="0.53125" width="350" height="233" fill="#D38D8D"/>
<path d="M277.459 130.996V165.937C277.459 167.168 279.615 168.166 282.271 168.166C284.928 168.166 287.084 167.168 287.084 165.937V130.996H277.459Z" fill="#6F7976"/>
<path d="M277.459 130.996H287.084V156.757L277.459 151.152V130.996Z" fill="#0B231C"/>
<path d="M306.35 140.983L293.316 84.6699C292.236 79.4598 287.618 75.7227 282.266 75.7227C276.909 75.7227 272.296 79.4598 271.216 84.6699L258.182 140.983C258.076 141.246 258.014 141.519 258.014 141.792C258.014 145.647 268.869 148.774 282.266 148.774C295.662 148.774 306.518 145.647 306.518 141.792C306.518 141.519 306.456 141.246 306.35 140.983Z" fill="#448974"/>
<path d="M271.216 84.6699C271.733 82.1726 273.063 80.0137 274.897 78.4425C278.456 75.3933 282.989 78.9778 284.006 83.553L297.492 144.231C296.719 145.325 292.592 147.766 282.266 148.774C268.869 148.774 258.014 145.647 258.014 141.792C258.014 141.519 258.076 141.246 258.182 140.983L271.216 84.6699Z" fill="#112922"/>
<path d="M223.706 130.996V165.937C223.706 167.168 225.862 168.166 228.518 168.166C231.175 168.166 233.331 167.168 233.331 165.937V130.996H223.706Z" fill="#6F7976"/>
<path d="M223.706 130.996H233.331V158.521L223.706 153.381V130.996Z" fill="#0B231C"/>
<path d="M252.598 140.983L239.565 84.6699C238.484 79.4598 233.867 75.7227 228.514 75.7227C223.157 75.7227 218.544 79.4598 217.464 84.6699L204.435 140.983C204.329 141.246 204.267 141.519 204.267 141.792C204.267 145.647 215.122 148.774 228.519 148.774C241.915 148.774 252.771 145.647 252.771 141.792C252.771 141.519 252.709 141.246 252.603 140.983H252.598Z" fill="#112922"/>
<path d="M262.488 138.789V173.73C262.488 174.961 264.644 175.959 267.301 175.959C269.957 175.959 272.113 174.961 272.113 173.73V138.789H262.488Z" fill="#6F7976"/>
<path d="M262.488 138.789H272.113V156.259L262.488 149.681V138.789Z" fill="#0B231C"/>
<path d="M291.384 138.413L278.35 75.4785C277.27 70.2684 272.652 66.5312 267.3 66.5312C261.943 66.5312 257.33 70.2684 256.25 75.4785L243.216 138.413C243.11 138.676 243.048 138.949 243.048 139.222C243.048 143.078 253.903 146.204 267.3 146.204C280.697 146.204 291.552 143.078 291.552 139.222C291.552 138.949 291.49 138.676 291.384 138.413Z" fill="#83CCB6"/>
</svg>
