<svg width="351" height="234" viewBox="0 0 351 234" fill="none" xmlns="http://www.w3.org/2000/svg">
<rect x="0.761719" y="0.529297" width="350" height="233" fill="#33837E"/>
<path d="M276.868 132.527V167.759C276.868 169 279.042 170.007 281.721 170.007C284.399 170.007 286.573 169 286.573 167.759V132.527H276.868Z" fill="#784949"/>
<path d="M276.868 132.527H286.573V158.503L276.868 152.851V132.527Z" fill="#290D0D"/>
<path d="M306.001 142.599L292.858 85.8168C291.769 80.5633 287.113 76.7949 281.716 76.7949C276.314 76.7949 271.663 80.5633 270.574 85.8168L257.431 142.599C257.324 142.865 257.262 143.14 257.262 143.415C257.262 147.303 268.208 150.455 281.716 150.455C295.224 150.455 306.17 147.303 306.17 143.415C306.17 143.14 306.108 142.865 306.001 142.599Z" fill="#AA5959"/>
<path d="M270.574 85.8168C271.1 83.2756 272.461 81.0819 274.336 79.4941C277.914 76.4658 282.439 80.0501 283.456 84.6253L297.069 145.874C296.29 146.977 292.128 149.439 281.716 150.455C268.208 150.455 257.262 147.303 257.262 143.415C257.262 143.14 257.324 142.865 257.431 142.599L270.574 85.8168Z" fill="#512020"/>
<path d="M222.668 132.527V167.759C222.668 169 224.842 170.007 227.52 170.007C230.199 170.007 232.373 169 232.373 167.759V132.527H222.668Z" fill="#784949"/>
<path d="M222.668 132.527H232.373V160.282L222.668 155.099V132.527Z" fill="#290D0D"/>
<path d="M251.801 142.599L238.659 85.8168C237.569 80.5633 232.913 76.7949 227.516 76.7949C222.115 76.7949 217.463 80.5633 216.374 85.8168L203.236 142.599C203.129 142.865 203.066 143.14 203.066 143.415C203.066 147.303 214.012 150.455 227.521 150.455C241.029 150.455 251.975 147.303 251.975 143.415C251.975 143.14 251.912 142.865 251.805 142.599H251.801Z" fill="#291816"/>
<path d="M261.772 140.391V175.622C261.772 176.864 263.946 177.87 266.625 177.87C269.303 177.87 271.477 176.864 271.477 175.622V140.391H261.772Z" fill="#784949"/>
<path d="M261.772 140.391H271.477V158.006L261.772 151.373V140.391Z" fill="#290D0D"/>
<path d="M290.91 140.01L277.767 76.5511C276.678 71.2976 272.022 67.5293 266.625 67.5293C261.224 67.5293 256.572 71.2976 255.483 76.5511L242.341 140.01C242.233 140.276 242.171 140.551 242.171 140.826C242.171 144.714 253.117 147.866 266.625 147.866C280.133 147.866 291.079 144.714 291.079 140.826C291.079 140.551 291.017 140.276 290.91 140.01Z" fill="#E3978E"/>
</svg>
