<svg width="351" height="234" viewBox="0 0 351 234" fill="none" xmlns="http://www.w3.org/2000/svg">
<rect x="0.761719" y="0.529297" width="350" height="233" fill="#2E4491"/>
<path d="M308.209 144.115C308.266 123.795 279.453 112.174 243.069 112.073C206.685 111.971 177.144 128.362 177.087 148.682C177.03 169.002 206.479 185.557 242.863 185.658C279.247 185.76 308.152 164.435 308.209 144.115Z" fill="#330D0D"/>
<mask id="mask0_569_27294" style="mask-type:luminance" maskUnits="userSpaceOnUse" x="184" y="117" width="125" height="62">
<path d="M308.757 118.316L308.685 142.542C308.661 151.695 302.629 160.836 290.587 167.826C266.349 181.882 226.913 181.888 202.509 167.826C190.235 160.747 184.107 151.457 184.131 142.185L184.202 117.959C184.179 127.231 190.307 136.521 202.586 143.594C226.991 157.656 266.421 157.65 290.664 143.594C302.706 136.61 308.739 127.469 308.762 118.31L308.757 118.316Z" fill="white"/>
</mask>
<g mask="url(#mask0_569_27294)">
<path d="M308.756 118.316L308.685 142.542C308.685 142.727 308.685 142.905 308.679 143.089L308.75 118.863C308.75 118.679 308.756 118.501 308.756 118.316Z" fill="#D38D8D"/>
<path d="M308.341 122.427C308.103 123.598 307.769 124.769 307.335 125.928C306.888 127.117 306.334 128.3 305.673 129.465C304.959 130.725 304.125 131.961 303.166 133.179C302.046 134.6 300.76 135.985 299.301 137.322C297.068 139.379 294.436 141.334 291.41 143.153L291.339 167.379C294.364 165.56 296.996 163.611 299.23 161.548C300.683 160.205 301.975 158.82 303.095 157.406C304.053 156.193 304.887 154.951 305.602 153.691C306.263 152.526 306.811 151.349 307.263 150.154C307.698 148.995 308.031 147.83 308.27 146.654C308.508 145.471 308.645 144.276 308.681 143.087L308.752 118.861C308.716 120.05 308.579 121.245 308.341 122.427Z" fill="#D38D8D"/>
<path d="M290.658 143.594C286.507 146.001 281.904 147.998 277.008 149.585C273.233 150.81 269.278 151.784 265.217 152.516L265.146 176.742C269.207 176.011 273.155 175.036 276.937 173.811C281.832 172.23 286.43 170.233 290.586 167.82C290.842 167.672 291.098 167.523 291.349 167.375L291.42 143.148C291.17 143.297 290.914 143.446 290.658 143.594Z" fill="#D38D8D"/>
<path d="M257.279 153.621C254.992 153.846 252.688 154.001 250.371 154.078C248.245 154.15 246.119 154.161 243.993 154.108C241.945 154.054 239.896 153.947 237.859 153.781C235.828 153.615 233.804 153.389 231.803 153.103C229.718 152.806 227.658 152.45 225.627 152.034C223.424 151.576 221.256 151.047 219.13 150.447C216.533 149.71 214.002 148.86 211.567 147.897C208.405 146.649 205.391 145.216 202.58 143.6C190.307 136.521 184.173 127.237 184.202 117.959L184.131 142.185C184.107 151.457 190.235 160.747 202.515 167.82C205.326 169.442 208.333 170.875 211.501 172.117C213.937 173.08 216.468 173.924 219.064 174.667C221.185 175.273 223.358 175.802 225.562 176.254C227.592 176.676 229.653 177.032 231.737 177.324C233.738 177.609 235.757 177.835 237.794 178.001C239.83 178.168 241.879 178.281 243.928 178.328C246.054 178.382 248.186 178.37 250.306 178.298C252.616 178.221 254.927 178.067 257.214 177.841C259.894 177.573 262.55 177.205 265.158 176.735L265.23 152.509C262.621 152.979 259.965 153.347 257.285 153.615L257.279 153.621Z" fill="#D38D8D"/>
</g>
<mask id="mask1_569_27294" style="mask-type:luminance" maskUnits="userSpaceOnUse" x="184" y="117" width="125" height="62">
<path d="M308.757 118.316L308.685 142.542C308.661 151.695 302.629 160.836 290.587 167.826C266.349 181.882 226.913 181.888 202.509 167.826C190.235 160.747 184.107 151.457 184.131 142.185L184.202 117.959C184.179 127.231 190.307 136.521 202.586 143.594C226.991 157.656 266.421 157.65 290.664 143.594C302.706 136.61 308.739 127.469 308.762 118.31L308.757 118.316Z" fill="white"/>
</mask>
<g mask="url(#mask1_569_27294)">
<path d="M308.756 118.316L308.685 142.542C308.685 142.727 308.685 142.905 308.679 143.089L308.75 118.863C308.75 118.679 308.756 118.501 308.756 118.316Z" fill="#D38D8D"/>
<path d="M307.333 125.928C307.768 124.769 308.101 123.598 308.339 122.427C308.578 121.245 308.715 120.05 308.75 118.861L308.679 143.087C308.643 144.276 308.506 145.471 308.268 146.654C308.03 147.83 307.696 148.995 307.262 150.154C306.809 151.349 306.261 152.526 305.6 153.691L297.919 138.537C298.395 138.137 298.855 137.731 299.299 137.322C300.758 135.985 302.045 134.6 303.164 133.179C304.123 131.961 304.957 130.725 305.672 129.465C306.333 128.3 306.886 127.117 307.333 125.928Z" fill="#330D0D"/>
<path d="M257.279 153.621C254.992 153.846 252.688 154.001 250.371 154.078C248.245 154.15 246.119 154.161 243.993 154.108C241.945 154.054 239.896 153.947 237.859 153.781C235.828 153.615 233.804 153.389 231.803 153.103C229.718 152.806 227.658 152.45 225.627 152.034C223.424 151.576 221.256 151.047 219.13 150.447C216.533 149.71 214.002 148.86 211.567 147.897C208.405 146.649 205.391 145.216 202.58 143.6C190.307 136.521 184.173 127.237 184.202 117.959L184.131 142.185C184.107 151.457 190.235 160.747 202.515 167.82C205.326 169.442 208.333 170.875 211.501 172.117C213.937 173.08 216.468 173.924 219.064 174.667C221.185 175.273 223.358 175.802 225.562 176.254C227.592 176.676 229.653 177.032 231.737 177.324C233.738 177.609 235.757 177.835 237.794 178.001C239.83 178.168 241.879 178.281 243.928 178.328C246.054 178.382 248.186 178.37 250.306 178.298C252.616 178.221 254.927 178.067 257.214 177.841C259.894 177.573 262.55 177.205 265.158 176.735L265.23 152.509C262.621 152.979 259.965 153.347 257.285 153.615L257.279 153.621Z" fill="#D38D8D"/>
</g>
<path d="M195.129 118.141C195.087 110.545 200.054 102.943 210.047 97.1479C230.039 85.5519 262.549 85.5579 282.665 97.1479C292.724 102.943 297.78 110.545 297.828 118.141V128.94L244.477 139.158L195.129 132.603V118.141Z" fill="#2E1C1C"/>
<path d="M297.828 124.602C297.874 108.206 274.92 94.8498 246.559 94.7708C218.198 94.6917 195.17 107.919 195.124 124.316C195.078 140.712 218.032 154.068 246.393 154.147C274.754 154.226 297.782 140.998 297.828 124.602Z" fill="#7F6EE6"/>
<mask id="mask2_569_27294" style="mask-type:luminance" maskUnits="userSpaceOnUse" x="209" y="110" width="74" height="36">
<path d="M282.923 110.653L282.881 124.835C282.863 130.196 279.338 135.545 272.287 139.634C258.095 147.866 235.013 147.866 220.726 139.634C213.538 135.492 209.947 130.053 209.965 124.627L210.007 110.445C209.989 115.872 213.58 121.31 220.768 125.453C235.054 133.685 258.137 133.685 272.328 125.453C279.379 121.364 282.911 116.014 282.923 110.653Z" fill="white"/>
</mask>
<g mask="url(#mask2_569_27294)">
<path d="M282.923 110.652L282.881 124.834C282.881 124.941 282.881 125.048 282.881 125.155L282.923 110.973C282.923 110.866 282.923 110.759 282.923 110.652Z" fill="#978AE4"/>
<path d="M282.679 113.059C282.542 113.748 282.345 114.432 282.089 115.109C281.827 115.805 281.505 116.494 281.118 117.178C280.702 117.915 280.213 118.64 279.653 119.353C278.998 120.185 278.242 120.994 277.39 121.778C276.08 122.985 274.544 124.126 272.775 125.19L272.733 139.371C274.502 138.307 276.045 137.166 277.349 135.96C278.2 135.175 278.957 134.361 279.612 133.535C280.172 132.821 280.66 132.096 281.077 131.359C281.464 130.676 281.785 129.986 282.047 129.291C282.303 128.613 282.5 127.93 282.637 127.24C282.774 126.545 282.857 125.849 282.875 125.154L282.917 110.973C282.899 111.668 282.816 112.369 282.679 113.059Z" fill="#978AE4"/>
<path d="M282.089 115.109C282.345 114.432 282.542 113.748 282.679 113.059C282.816 112.369 282.899 111.668 282.917 110.973L282.875 125.154C282.857 125.849 282.774 126.545 282.637 127.24C282.5 127.93 282.303 128.613 282.047 129.291C281.785 129.986 281.464 130.676 281.077 131.359C280.66 132.096 280.171 132.821 279.612 133.535C278.957 134.361 278.2 135.175 277.349 135.96L277.39 121.778C278.242 120.994 278.998 120.185 279.653 119.353C280.213 118.64 280.701 117.915 281.118 117.178C281.505 116.494 281.827 115.805 282.089 115.109Z" fill="#7769CA"/>
<path d="M272.328 125.453C269.899 126.862 267.207 128.032 264.336 128.96C262.127 129.673 259.81 130.249 257.434 130.677L257.393 144.859C259.769 144.431 262.085 143.86 264.295 143.141C267.159 142.214 269.851 141.043 272.287 139.634C272.436 139.545 272.584 139.462 272.733 139.373L272.775 125.191C272.626 125.281 272.477 125.37 272.328 125.453Z" fill="#978AE4"/>
<path d="M252.789 131.325C251.449 131.456 250.097 131.545 248.745 131.593C247.501 131.634 246.256 131.64 245.011 131.61C243.809 131.581 242.612 131.515 241.42 131.42C240.229 131.325 239.05 131.188 237.877 131.022C236.656 130.85 235.453 130.642 234.262 130.392C232.97 130.125 231.701 129.815 230.457 129.459C228.938 129.025 227.455 128.532 226.032 127.967C224.18 127.236 222.417 126.398 220.774 125.453C213.586 121.31 209.995 115.872 210.012 110.445L209.971 124.627C209.953 130.053 213.544 135.492 220.732 139.634C222.376 140.585 224.138 141.423 225.99 142.148C227.42 142.713 228.897 143.206 230.415 143.64C231.66 143.991 232.928 144.306 234.221 144.573C235.412 144.817 236.615 145.031 237.835 145.203C239.009 145.37 240.188 145.501 241.379 145.602C242.57 145.697 243.767 145.762 244.97 145.792C246.214 145.822 247.459 145.816 248.704 145.774C250.056 145.726 251.407 145.637 252.747 145.507C254.314 145.352 255.868 145.138 257.398 144.859L257.44 130.677C255.91 130.951 254.355 131.171 252.789 131.325Z" fill="#978AE4"/>
</g>
<path d="M297.828 124.601C297.874 108.205 274.92 94.849 246.559 94.7699C233.414 94.7333 221.415 97.5553 212.318 102.226L260.749 124.869L272.365 130.3L291.224 139.117C295.416 134.832 297.813 129.881 297.828 124.601Z" fill="#6052B9" fill-opacity="0.67"/>
<path d="M246.549 98.483C246.273 98.4822 246.049 98.7055 246.048 98.9816C246.047 99.2578 246.27 99.4822 246.546 99.483L246.549 98.483ZM276.638 143.656C276.882 143.526 276.974 143.223 276.844 142.98C276.714 142.736 276.411 142.644 276.168 142.774L276.638 143.656ZM205.74 114.651L206.146 114.942L206.146 114.942L205.74 114.651ZM289.646 127.916C289.582 128.185 289.749 128.454 290.017 128.518C290.286 128.581 290.555 128.415 290.619 128.147L289.646 127.916ZM207.887 112.808C208.074 112.604 208.061 112.288 207.857 112.101C207.654 111.914 207.338 111.928 207.151 112.131L207.887 112.808ZM246.546 99.483C258.643 99.5167 269.562 102.383 277.435 106.964C285.321 111.552 290.062 117.799 290.043 124.581L291.043 124.583C291.063 117.294 285.975 110.776 277.938 106.099C269.888 101.415 258.79 98.5171 246.549 98.483L246.546 99.483ZM246.407 149.435C234.31 149.402 223.391 146.535 215.518 141.955C207.632 137.366 202.891 131.119 202.91 124.338L201.91 124.335C201.89 131.624 206.978 138.142 215.015 142.819C223.065 147.503 234.163 150.401 246.404 150.435L246.407 149.435ZM276.168 142.774C268.375 146.929 257.916 149.467 246.407 149.435L246.404 150.435C258.052 150.468 268.678 147.901 276.638 143.656L276.168 142.774ZM202.91 124.338C202.919 121.025 204.06 117.854 206.146 114.942L205.333 114.36C203.146 117.413 201.92 120.783 201.91 124.335L202.91 124.338ZM290.043 124.581C290.04 125.712 289.905 126.825 289.646 127.916L290.619 128.147C290.895 126.982 291.04 125.793 291.043 124.583L290.043 124.581ZM206.146 114.942C206.668 114.214 207.25 113.501 207.887 112.808L207.151 112.131C206.488 112.853 205.88 113.597 205.333 114.36L206.146 114.942Z" fill="#6354BA"/>
<path d="M290.372 92.6833C265.973 78.6268 226.537 78.6208 202.293 92.6833C178.055 106.74 178.181 129.54 202.579 143.602C226.984 157.665 266.414 157.659 290.657 143.602C314.901 129.54 314.77 106.746 290.372 92.6833ZM282.904 139.133C262.918 150.723 230.402 150.728 210.285 139.133C190.168 127.543 190.061 108.743 210.047 97.1529C230.039 85.557 262.549 85.5629 282.665 97.1529C302.788 108.749 302.89 127.543 282.904 139.133Z" fill="#FFEBEB"/>
<path d="M290.372 92.6833C312.02 105.16 314.564 124.51 297.93 138.537L290.161 133.84C302.464 122.386 299.952 107.114 282.666 97.1529C267.14 88.2075 244.23 86.1628 225.392 91.027L222.396 84.8824C244.952 79.4665 271.949 82.0694 290.372 92.6833Z" fill="#E1BFBF"/>
<path d="M202.294 92.6833C226.538 78.6208 265.973 78.6268 290.372 92.6833C309.132 103.496 313.545 119.471 303.562 132.669L294.735 128.399C301.362 117.877 297.331 105.604 282.666 97.1529C262.549 85.5629 230.039 85.557 210.048 97.1529L202.294 92.6833Z" fill="#E1BFBF"/>
<mask id="mask3_569_27294" style="mask-type:luminance" maskUnits="userSpaceOnUse" x="209" y="101" width="74" height="36">
<path d="M282.923 101.345L282.881 115.526C282.863 120.887 279.338 126.237 272.287 130.326C258.095 138.558 235.013 138.558 220.726 130.326C213.538 126.183 209.947 120.745 209.965 115.318L210.007 101.137C209.989 106.563 213.58 112.002 220.768 116.144C235.054 124.376 258.137 124.376 272.328 116.144C279.379 112.055 282.911 106.706 282.923 101.345Z" fill="white"/>
</mask>
<g mask="url(#mask3_569_27294)">
<path d="M282.923 101.344L282.881 115.525C282.881 115.632 282.881 115.739 282.881 115.846L282.923 101.665C282.923 101.558 282.923 101.451 282.923 101.344Z" fill="#D38D8D"/>
<path d="M282.679 103.75C282.542 104.44 282.345 105.123 282.089 105.801C281.827 106.496 281.505 107.186 281.118 107.869C280.702 108.606 280.213 109.331 279.653 110.045C278.998 110.877 278.242 111.685 277.39 112.47C276.08 113.676 274.544 114.817 272.775 115.881L272.733 130.063C274.502 128.999 276.045 127.857 277.349 126.651C278.2 125.866 278.957 125.052 279.612 124.226C280.172 123.513 280.66 122.788 281.077 122.051C281.464 121.367 281.785 120.678 282.047 119.982C282.303 119.305 282.5 118.621 282.637 117.932C282.774 117.236 282.857 116.541 282.875 115.845L282.917 101.664C282.899 102.359 282.816 103.061 282.679 103.75Z" fill="#D38D8D"/>
<path d="M272.328 116.144C269.899 117.553 267.207 118.724 264.336 119.651C262.127 120.364 259.81 120.941 257.434 121.369L257.393 135.55C259.769 135.122 262.085 134.552 264.295 133.832C267.159 132.905 269.851 131.734 272.287 130.326C272.436 130.237 272.584 130.153 272.733 130.064L272.775 115.883C272.626 115.972 272.477 116.061 272.328 116.144Z" fill="#D38D8D"/>
<path d="M252.789 122.017C251.449 122.147 250.097 122.236 248.745 122.284C247.501 122.326 246.256 122.332 245.011 122.302C243.809 122.272 242.612 122.207 241.42 122.112C240.229 122.017 239.05 121.88 237.877 121.713C236.656 121.541 235.453 121.333 234.262 121.083C232.97 120.816 231.701 120.507 230.457 120.15C228.938 119.716 227.455 119.223 226.032 118.658C224.18 117.927 222.417 117.089 220.774 116.144C213.586 112.002 209.995 106.563 210.012 101.137L209.971 115.318C209.953 120.745 213.544 126.183 220.732 130.326C222.376 131.277 224.138 132.115 225.99 132.84C227.42 133.404 228.897 133.898 230.415 134.332C231.66 134.682 232.928 134.997 234.221 135.265C235.412 135.509 236.615 135.722 237.835 135.895C239.009 136.061 240.188 136.192 241.379 136.293C242.57 136.388 243.767 136.454 244.97 136.483C246.214 136.513 247.459 136.507 248.704 136.465C250.056 136.418 251.407 136.329 252.747 136.198C254.314 136.043 255.868 135.829 257.398 135.55L257.44 121.369C255.91 121.642 254.355 121.862 252.789 122.017Z" fill="#D38D8D"/>
</g>
<path d="M216.401 101.241C216.377 96.7956 219.283 92.3439 225.137 88.9501C236.839 82.1625 255.872 82.1625 267.651 88.9501C273.541 92.3439 276.501 96.7897 276.525 101.241H216.401Z" fill="#2E1C1C"/>
<path d="M276.522 105.023C276.549 95.4248 263.112 87.6064 246.509 87.5602C229.906 87.5139 216.425 95.2572 216.398 104.855C216.371 114.454 229.809 122.272 246.412 122.318C263.014 122.364 276.495 114.621 276.522 105.023Z" fill="#7F6EE6"/>
<path d="M276.522 105.023C276.549 95.4248 263.112 87.6064 246.509 87.5602C229.906 87.5139 216.425 95.2572 216.398 104.855C216.371 114.454 229.809 122.272 246.412 122.318C263.014 122.364 276.495 114.621 276.522 105.023Z" fill="url(#paint0_linear_569_27294)"/>
<path d="M246.444 110.175C241.443 110.161 237.395 107.806 237.403 104.915M241.28 100.636C242.751 100.044 244.542 99.6995 246.474 99.7049C251.475 99.7189 255.523 102.074 255.515 104.965C255.51 106.449 254.44 107.785 252.722 108.733" stroke="#6E5ED1" stroke-linecap="round"/>
<path d="M253.255 104.96C253.249 107.13 250.2 108.881 246.446 108.87C242.692 108.86 239.654 107.092 239.66 104.922C239.666 102.752 242.714 101.001 246.468 101.011C250.222 101.022 253.261 102.789 253.255 104.96Z" fill="#6A5BC7"/>
<path d="M272.159 86.338C257.879 78.1061 234.79 78.1061 220.599 86.338C206.407 94.5698 206.485 107.913 220.765 116.145C235.052 124.377 258.135 124.377 272.326 116.145C286.517 107.913 286.446 94.5698 272.159 86.338ZM267.788 113.53C256.086 120.317 237.053 120.317 225.274 113.53C213.494 106.742 213.435 95.7407 225.137 88.9532C236.839 82.1656 255.872 82.1656 267.651 88.9532C279.431 95.7407 279.49 106.742 267.788 113.53Z" fill="#FFEBEB"/>
<path d="M220.599 86.338C234.79 78.1061 257.879 78.1061 272.159 86.338C286.446 94.5698 286.517 107.913 272.326 116.145L267.788 113.53C279.49 106.742 279.431 95.7407 267.651 88.9532C255.872 82.1656 236.839 82.1656 225.137 88.9532L220.599 86.338Z" fill="#E1BFBF"/>
<path d="M246.228 102.395C246.502 97.9913 248.372 73.8722 256.9 65.2718C258.919 63.2391 261.831 62.2168 264.654 62.7042C266.303 62.9835 267.655 63.7503 268.602 65.1232C269.334 66.1871 269.358 67.5125 269.281 68.2614C269.049 70.5497 268.084 71.5126 266.089 72.9331C262.748 75.3046 252.082 80.7905 246.454 102.431C246.419 102.562 246.216 102.526 246.228 102.39V102.395Z" fill="#403487"/>
<path d="M246.228 102.395C246.502 97.9913 248.372 73.8722 256.9 65.2718C258.919 63.2391 261.831 62.2168 264.654 62.7042C266.303 62.9835 267.655 63.7503 268.602 65.1232C269.334 66.1871 269.358 67.5125 269.281 68.2614C269.049 70.5497 268.084 71.5126 266.089 72.9331C262.748 75.3046 252.082 80.7905 246.454 102.431C246.419 102.562 246.216 102.526 246.228 102.39V102.395Z" fill="url(#paint1_linear_569_27294)"/>
<path d="M246.193 102.432C246.002 99.383 244.71 82.6637 238.796 76.7023C237.397 75.2937 235.378 74.5864 233.419 74.9192C232.275 75.1154 231.34 75.6443 230.685 76.5953C230.179 77.3323 230.161 78.2536 230.215 78.7707C230.376 80.3576 231.043 81.0233 232.43 82.004C234.747 83.6444 242.137 87.4483 246.038 102.45C246.062 102.539 246.199 102.515 246.199 102.42L246.193 102.432Z" fill="#403487"/>
<path d="M246.193 102.432C246.002 99.383 244.71 82.6637 238.796 76.7023C237.397 75.2937 235.378 74.5864 233.419 74.9192C232.275 75.1154 231.34 75.6443 230.685 76.5953C230.179 77.3323 230.161 78.2536 230.215 78.7707C230.376 80.3576 231.043 81.0233 232.43 82.004C234.747 83.6444 242.137 87.4483 246.038 102.45C246.062 102.539 246.199 102.515 246.199 102.42L246.193 102.432Z" fill="url(#paint2_linear_569_27294)"/>
<defs>
<linearGradient id="paint0_linear_569_27294" x1="259.539" y1="88.3976" x2="252.597" y2="103.823" gradientUnits="userSpaceOnUse">
<stop stop-color="#5A49C5"/>
<stop offset="1" stop-color="#505CCE" stop-opacity="0"/>
</linearGradient>
<linearGradient id="paint1_linear_569_27294" x1="257.769" y1="62.584" x2="252.195" y2="102.159" gradientUnits="userSpaceOnUse">
<stop stop-color="#30218F"/>
<stop offset="1" stop-color="#6A5BC7"/>
</linearGradient>
<linearGradient id="paint2_linear_569_27294" x1="238.197" y1="74.8379" x2="234.336" y2="102.261" gradientUnits="userSpaceOnUse">
<stop stop-color="#30218F"/>
<stop offset="1" stop-color="#6A5BC7"/>
</linearGradient>
</defs>
</svg>
