<svg width="351" height="234" viewBox="0 0 351 234" fill="none" xmlns="http://www.w3.org/2000/svg">
<rect x="0.761719" y="0.53125" width="350" height="233" fill="#33837E"/>
<path d="M224.289 149.352H231.51V169.209C231.51 170.202 230.698 171.014 229.705 171.014H226.094C225.101 171.014 224.289 170.202 224.289 169.209V149.352Z" fill="#3C271B"/>
<path d="M231.51 149.352H224.289V153.997L231.51 158.478V149.352Z" fill="#160B05"/>
<path d="M249.472 120.575C249.526 119.944 249.562 119.312 249.562 118.662C249.562 107.686 240.68 98.8047 229.705 98.8047C229.091 98.8047 228.495 98.8408 227.899 98.8949C238.027 99.8156 245.951 108.3 245.951 118.662C245.951 119.312 245.915 119.944 245.861 120.575C253.028 121.424 258.588 127.525 258.588 134.909C258.588 142.888 252.125 149.35 244.146 149.35H247.757C255.736 149.35 262.198 142.888 262.198 134.909C262.198 127.507 256.638 121.424 249.472 120.575Z" fill="#291F1A"/>
<path d="M245.861 120.575C245.915 119.944 245.951 119.312 245.951 118.662C245.951 108.3 238.027 99.8156 227.899 98.8949C227.304 98.8408 226.708 98.8047 226.094 98.8047C215.119 98.8047 206.237 107.686 206.237 118.662C206.237 119.312 206.273 119.944 206.327 120.575C199.161 121.424 193.601 127.525 193.601 134.909C193.601 142.888 200.063 149.35 208.042 149.35H244.146C252.125 149.35 258.588 142.888 258.588 134.909C258.588 127.507 253.028 121.424 245.861 120.575Z" fill="#4E2F1D"/>
<path d="M245.274 120.575C238.295 120.575 232.636 126.233 232.636 133.213H230.831C230.831 125.236 237.298 118.77 245.274 118.77C245.519 118.77 245.761 118.776 246.003 118.788V120.595C245.762 120.582 245.519 120.575 245.274 120.575Z" fill="#291F1A"/>
<path d="M272.812 148.824H279.958V168.475C279.958 169.457 279.154 170.261 278.172 170.261H274.599C273.616 170.261 272.812 169.457 272.812 168.475V148.824Z" fill="#3C271B"/>
<path d="M279.958 148.824H272.812V153.918L279.958 158.439V148.824Z" fill="#160B05"/>
<path d="M297.732 120.349C297.786 119.723 297.822 119.098 297.822 118.455C297.822 107.594 289.032 98.8047 278.171 98.8047C277.564 98.8047 276.974 98.8404 276.385 98.894C286.406 99.8051 294.249 108.201 294.249 118.455C294.249 119.098 294.213 119.723 294.159 120.349C301.251 121.188 306.753 127.226 306.753 134.533C306.753 142.428 300.358 148.824 292.462 148.824H296.035C303.931 148.824 310.326 142.428 310.326 134.533C310.326 127.208 304.824 121.188 297.732 120.349Z" fill="#3E2415"/>
<path d="M294.16 120.349C294.213 119.723 294.249 119.098 294.249 118.455C294.249 108.201 286.407 99.8051 276.385 98.894C275.795 98.8404 275.206 98.8047 274.598 98.8047C263.737 98.8047 254.948 107.594 254.948 118.455C254.948 119.098 254.984 119.723 255.037 120.349C247.945 121.188 242.443 127.226 242.443 134.533C242.443 142.428 248.839 148.824 256.735 148.824H292.462C300.358 148.824 306.754 142.428 306.754 134.533C306.754 127.208 301.252 121.188 294.16 120.349Z" fill="#A34D1C"/>
<path d="M293.579 120.349C286.672 120.349 281.073 125.948 281.073 132.855H279.286C279.286 124.962 285.685 118.562 293.579 118.562C293.821 118.562 294.061 118.568 294.3 118.58V120.369C294.061 120.356 293.821 120.349 293.579 120.349Z" fill="#F1884C"/>
<path d="M257.735 144.238H266.659V168.778C266.659 170.005 265.655 171.009 264.428 171.009H259.966C258.739 171.009 257.735 170.005 257.735 168.778V144.238Z" fill="#3C271B"/>
<path d="M266.659 144.238H257.735V150.283L266.659 156.735V144.238Z" fill="#160B05"/>
<path d="M288.856 108.678C288.923 107.897 288.968 107.116 288.968 106.313C288.968 92.7494 277.992 81.7734 264.428 81.7734C263.67 81.7734 262.933 81.8181 262.197 81.885C274.712 83.0227 284.506 93.5079 284.506 106.313C284.506 107.116 284.461 107.897 284.395 108.678C293.251 109.726 300.122 117.267 300.122 126.391C300.122 136.252 292.136 144.238 282.275 144.238H286.737C296.597 144.238 304.584 136.252 304.584 126.391C304.584 117.244 297.713 109.726 288.856 108.678Z" fill="#F1884C"/>
<path d="M284.395 108.678C284.461 107.897 284.506 107.116 284.506 106.313C284.506 93.5079 274.712 83.0227 262.197 81.885C261.461 81.8181 260.725 81.7734 259.966 81.7734C246.403 81.7734 235.427 92.7494 235.427 106.313C235.427 107.116 235.471 107.897 235.538 108.678C226.682 109.726 219.811 117.267 219.811 126.391C219.811 136.252 227.797 144.238 237.658 144.238H282.275C292.136 144.238 300.122 136.252 300.122 126.391C300.122 117.244 293.251 109.726 284.395 108.678Z" fill="#F3AE87"/>
<path d="M283.67 108.676C275.044 108.676 268.051 115.669 268.051 124.295H265.82C265.82 114.437 273.812 106.445 283.67 106.445C283.971 106.445 284.271 106.453 284.569 106.468V108.702C284.272 108.685 283.972 108.676 283.67 108.676Z" fill="#F1884C"/>
</svg>
