<svg width="351" height="234" viewBox="0 0 351 234" fill="none" xmlns="http://www.w3.org/2000/svg">
<rect x="0.761719" y="0.234375" width="350" height="233" fill="#508D69"/>
<path d="M224.312 147.059H231.531V166.91C231.531 167.903 230.719 168.715 229.727 168.715H226.117C225.125 168.715 224.312 167.903 224.312 166.91V147.059Z" fill="#3C1D1B"/>
<path d="M231.531 147.059H224.312V151.702L231.531 156.183V147.059Z" fill="#160B05"/>
<path d="M249.488 118.288C249.542 117.657 249.578 117.025 249.578 116.375C249.578 105.403 240.699 96.5234 229.727 96.5234C229.113 96.5234 228.517 96.5595 227.922 96.6137C238.046 97.5341 245.969 106.016 245.969 116.375C245.969 117.025 245.933 117.657 245.879 118.288C253.043 119.136 258.602 125.236 258.602 132.618C258.602 140.594 252.141 147.055 244.164 147.055H247.774C255.751 147.055 262.211 140.594 262.211 132.618C262.211 125.218 256.653 119.136 249.488 118.288Z" fill="#291F1A"/>
<path d="M245.878 118.288C245.932 117.657 245.968 117.025 245.968 116.375C245.968 106.016 238.046 97.5341 227.921 96.6137C227.326 96.5595 226.73 96.5234 226.117 96.5234C215.144 96.5234 206.265 105.403 206.265 116.375C206.265 117.025 206.301 117.657 206.355 118.288C199.19 119.136 193.632 125.236 193.632 132.618C193.632 140.594 200.093 147.055 208.07 147.055H244.164C252.141 147.055 258.601 140.594 258.601 132.618C258.601 125.218 253.043 119.136 245.878 118.288Z" fill="#583C3C"/>
<path d="M245.292 118.289C238.314 118.289 232.657 123.946 232.657 130.924H230.853C230.853 122.949 237.317 116.484 245.292 116.484C245.536 116.484 245.779 116.49 246.02 116.502V118.31C245.779 118.296 245.536 118.289 245.292 118.289Z" fill="#291F1A"/>
<path d="M272.822 146.531H279.966V166.176C279.966 167.159 279.162 167.962 278.18 167.962H274.608C273.626 167.962 272.822 167.159 272.822 166.176V146.531Z" fill="#3C1D1B"/>
<path d="M279.966 146.531H272.822V151.624L279.966 156.143V146.531Z" fill="#160B05"/>
<path d="M297.735 118.062C297.789 117.436 297.825 116.811 297.825 116.168C297.825 105.31 289.038 96.5234 278.179 96.5234C277.572 96.5234 276.983 96.5592 276.394 96.6127C286.413 97.5235 294.253 105.917 294.253 116.168C294.253 116.811 294.217 117.436 294.163 118.062C301.253 118.901 306.754 124.937 306.754 132.242C306.754 140.135 300.36 146.529 292.467 146.529H296.039C303.932 146.529 310.326 140.135 310.326 132.242C310.326 124.919 304.825 118.901 297.735 118.062Z" fill="#4E2A2A"/>
<path d="M294.163 118.062C294.217 117.436 294.252 116.811 294.252 116.168C294.252 105.917 286.412 97.5235 276.393 96.6127C275.804 96.5592 275.215 96.5234 274.607 96.5234C263.749 96.5234 254.962 105.31 254.962 116.168C254.962 116.811 254.998 117.436 255.052 118.062C247.962 118.901 242.461 124.937 242.461 132.242C242.461 140.135 248.855 146.529 256.748 146.529H292.466C300.36 146.529 306.754 140.135 306.754 132.242C306.754 124.919 301.253 118.901 294.163 118.062Z" fill="#B43D3D"/>
<path d="M293.583 118.063C286.678 118.063 281.08 123.661 281.08 130.566H279.294C279.294 122.675 285.691 116.277 293.583 116.277C293.825 116.277 294.065 116.283 294.303 116.295V118.084C294.065 118.07 293.825 118.063 293.583 118.063Z" fill="#BC5656"/>
<path d="M257.75 141.949H266.671V166.482C266.671 167.709 265.667 168.713 264.441 168.713H259.98C258.754 168.713 257.75 167.709 257.75 166.482V141.949Z" fill="#3C1D1B"/>
<path d="M266.671 141.949H257.75V147.992L266.671 154.443V141.949Z" fill="#160B05"/>
<path d="M288.862 106.397C288.929 105.617 288.973 104.836 288.973 104.033C288.973 90.473 278 79.5 264.44 79.5C263.682 79.5 262.946 79.5446 262.21 79.6115C274.722 80.749 284.513 91.2312 284.513 104.033C284.513 104.836 284.468 105.617 284.401 106.397C293.255 107.445 300.125 114.984 300.125 124.106C300.125 133.963 292.14 141.948 282.282 141.948H286.743C296.601 141.948 304.585 133.963 304.585 124.106C304.585 114.961 297.716 107.445 288.862 106.397Z" fill="#BC5656"/>
<path d="M284.401 106.397C284.468 105.617 284.513 104.836 284.513 104.033C284.513 91.2312 274.722 80.749 262.21 79.6115C261.474 79.5446 260.738 79.5 259.98 79.5C246.42 79.5 235.447 90.473 235.447 104.033C235.447 104.836 235.491 105.617 235.558 106.397C226.704 107.445 219.835 114.984 219.835 124.106C219.835 133.963 227.819 141.948 237.677 141.948H282.283C292.141 141.948 300.125 133.963 300.125 124.106C300.125 114.961 293.256 107.445 284.401 106.397Z" fill="#F38787"/>
<path d="M283.676 106.398C275.053 106.398 268.062 113.389 268.062 122.012H265.832C265.832 112.157 273.821 104.168 283.676 104.168C283.978 104.168 284.278 104.175 284.576 104.19V106.424C284.278 106.407 283.978 106.398 283.676 106.398Z" fill="#BC5656"/>
</svg>
