<svg width="351" height="265" viewBox="0 0 351 265" fill="none" xmlns="http://www.w3.org/2000/svg">
<rect x="0.251953" y="0.648438" width="350" height="264" fill="#DC7D94"/>
<path d="M307.365 161.802C307.425 140.274 276.9 127.963 238.354 127.855C199.809 127.748 168.512 145.112 168.452 166.64C168.392 188.168 199.59 205.706 238.136 205.814C276.682 205.921 307.305 183.329 307.365 161.802Z" fill="#222727"/>
<mask id="mask0_504_16141" style="mask-type:luminance" maskUnits="userSpaceOnUse" x="175" y="134" width="133" height="65">
<path d="M307.943 134.474L307.868 160.139C307.842 169.836 301.451 179.521 288.694 186.926C263.016 201.818 221.237 201.824 195.382 186.926C182.379 179.426 175.887 169.584 175.912 159.761L175.988 134.096C175.963 143.919 182.455 153.761 195.464 161.254C221.319 176.152 263.092 176.146 288.776 161.254C301.533 153.855 307.924 144.171 307.95 134.467L307.943 134.474Z" fill="white"/>
</mask>
<g mask="url(#mask0_504_16141)">
<path d="M307.943 134.473L307.868 160.138C307.868 160.334 307.868 160.522 307.861 160.718L307.937 135.052C307.937 134.857 307.943 134.668 307.943 134.473Z" fill="#8DD3CF"/>
<path d="M307.502 138.831C307.249 140.071 306.896 141.312 306.436 142.54C305.962 143.799 305.376 145.052 304.675 146.286C303.918 147.621 303.035 148.931 302.019 150.222C300.833 151.727 299.47 153.194 297.925 154.611C295.559 156.789 292.77 158.861 289.565 160.788L289.489 186.453C292.694 184.527 295.483 182.461 297.849 180.276C299.388 178.853 300.757 177.386 301.943 175.887C302.959 174.603 303.843 173.287 304.6 171.952C305.3 170.718 305.88 169.471 306.36 168.205C306.82 166.977 307.174 165.743 307.426 164.496C307.678 163.243 307.824 161.978 307.861 160.718L307.937 135.053C307.899 136.312 307.754 137.578 307.502 138.831Z" fill="#8DD3CF"/>
<path d="M288.77 161.254C284.372 163.804 279.495 165.919 274.309 167.601C270.309 168.898 266.12 169.93 261.817 170.705L261.741 196.371C266.044 195.596 270.227 194.563 274.233 193.266C279.419 191.591 284.29 189.476 288.694 186.919C288.965 186.762 289.236 186.604 289.501 186.447L289.577 160.781C289.312 160.939 289.041 161.096 288.77 161.254Z" fill="#8DD3CF"/>
<path d="M253.407 171.876C250.985 172.116 248.543 172.279 246.089 172.361C243.836 172.437 241.584 172.449 239.332 172.393C237.161 172.336 234.991 172.223 232.833 172.046C230.682 171.87 228.537 171.631 226.417 171.329C224.209 171.014 222.026 170.636 219.874 170.195C217.54 169.71 215.243 169.15 212.991 168.514C210.24 167.733 207.559 166.833 204.978 165.813C201.628 164.49 198.436 162.973 195.458 161.26C182.455 153.761 175.956 143.925 175.988 134.096L175.912 159.761C175.887 169.584 182.379 179.426 195.388 186.919C198.366 188.638 201.552 190.156 204.909 191.472C207.489 192.492 210.171 193.386 212.922 194.173C215.168 194.816 217.47 195.376 219.805 195.854C221.956 196.302 224.139 196.679 226.347 196.988C228.467 197.29 230.606 197.529 232.764 197.706C234.921 197.882 237.092 198.002 239.262 198.052C241.515 198.109 243.773 198.096 246.019 198.021C248.467 197.939 250.915 197.775 253.338 197.536C256.177 197.252 258.991 196.862 261.754 196.365L261.83 170.699C259.067 171.196 256.253 171.587 253.414 171.87L253.407 171.876Z" fill="#8DD3CF"/>
</g>
<mask id="mask1_504_16141" style="mask-type:luminance" maskUnits="userSpaceOnUse" x="175" y="134" width="133" height="65">
<path d="M307.943 134.474L307.868 160.139C307.842 169.836 301.451 179.521 288.694 186.926C263.016 201.818 221.237 201.824 195.382 186.926C182.379 179.426 175.887 169.584 175.912 159.761L175.988 134.096C175.963 143.919 182.455 153.761 195.464 161.254C221.319 176.152 263.092 176.146 288.776 161.254C301.533 153.855 307.924 144.171 307.95 134.467L307.943 134.474Z" fill="white"/>
</mask>
<g mask="url(#mask1_504_16141)">
<path d="M307.943 134.473L307.868 160.138C307.868 160.334 307.868 160.522 307.861 160.718L307.937 135.052C307.937 134.857 307.943 134.668 307.943 134.473Z" fill="#8DD3CF"/>
<path d="M306.435 142.54C306.896 141.312 307.249 140.071 307.502 138.831C307.754 137.578 307.899 136.312 307.937 135.053L307.861 160.718C307.823 161.978 307.678 163.243 307.426 164.496C307.174 165.743 306.82 166.977 306.36 168.205C305.88 169.471 305.3 170.718 304.599 171.952L296.462 155.898C296.966 155.473 297.454 155.044 297.924 154.611C299.47 153.194 300.833 151.727 302.019 150.222C303.035 148.931 303.918 147.621 304.675 146.286C305.375 145.052 305.962 143.799 306.435 142.54Z" fill="#25515A"/>
<path d="M253.407 171.876C250.985 172.116 248.543 172.279 246.089 172.361C243.836 172.437 241.584 172.449 239.332 172.393C237.161 172.336 234.991 172.223 232.833 172.046C230.682 171.87 228.537 171.631 226.417 171.329C224.209 171.014 222.026 170.636 219.874 170.195C217.54 169.71 215.243 169.15 212.991 168.514C210.24 167.733 207.559 166.833 204.978 165.813C201.628 164.49 198.436 162.973 195.458 161.26C182.455 153.761 175.956 143.925 175.988 134.096L175.912 159.761C175.887 169.584 182.379 179.426 195.388 186.919C198.366 188.638 201.552 190.156 204.909 191.472C207.489 192.492 210.171 193.386 212.922 194.173C215.168 194.816 217.47 195.376 219.805 195.854C221.956 196.302 224.139 196.679 226.347 196.988C228.467 197.29 230.606 197.529 232.764 197.706C234.921 197.882 237.092 198.002 239.262 198.052C241.515 198.109 243.773 198.096 246.019 198.021C248.467 197.939 250.915 197.775 253.338 197.536C256.177 197.252 258.991 196.862 261.754 196.365L261.83 170.699C259.067 171.196 256.253 171.587 253.414 171.87L253.407 171.876Z" fill="#8DD3CF"/>
</g>
<path d="M187.566 134.288C187.522 126.24 192.783 118.187 203.37 112.047C224.55 99.7623 258.991 99.7686 280.304 112.047C290.96 118.187 296.316 126.24 296.367 134.288V145.729L239.846 156.554L187.566 149.609V134.288Z" fill="#222727"/>
<path d="M296.368 141.132C296.416 123.762 272.098 109.612 242.052 109.528C212.006 109.445 187.609 123.458 187.561 140.829C187.512 158.2 211.83 172.349 241.876 172.433C271.922 172.517 296.319 158.503 296.368 141.132Z" fill="#6E8FE6"/>
<mask id="mask2_504_16141" style="mask-type:luminance" maskUnits="userSpaceOnUse" x="203" y="126" width="78" height="38">
<path d="M280.574 126.353L280.53 141.377C280.511 147.057 276.776 152.724 269.306 157.056C254.272 165.777 229.818 165.777 214.682 157.056C207.067 152.667 203.262 146.906 203.281 141.157L203.325 126.133C203.307 131.882 207.111 137.643 214.726 142.032C229.862 150.753 254.316 150.753 269.351 142.032C276.821 137.7 280.562 132.033 280.574 126.353Z" fill="white"/>
</mask>
<g mask="url(#mask2_504_16141)">
<path d="M280.574 126.354L280.53 141.378C280.53 141.491 280.53 141.604 280.53 141.718L280.574 126.694C280.574 126.58 280.574 126.467 280.574 126.354Z" fill="#8AA9E4"/>
<path d="M280.316 128.904C280.17 129.634 279.962 130.358 279.691 131.076C279.413 131.813 279.073 132.543 278.663 133.267C278.221 134.048 277.704 134.816 277.111 135.572C276.416 136.453 275.615 137.31 274.713 138.141C273.325 139.419 271.697 140.628 269.823 141.755L269.779 156.779C271.653 155.652 273.287 154.443 274.669 153.165C275.571 152.334 276.372 151.471 277.066 150.596C277.659 149.84 278.177 149.072 278.618 148.291C279.028 147.567 279.369 146.837 279.647 146.1C279.918 145.382 280.126 144.658 280.271 143.928C280.416 143.191 280.505 142.454 280.524 141.717L280.568 126.693C280.549 127.43 280.461 128.173 280.316 128.904Z" fill="#8AA9E4"/>
<path d="M279.691 131.076C279.962 130.358 280.171 129.634 280.316 128.904C280.461 128.173 280.549 127.43 280.568 126.693L280.524 141.717C280.505 142.454 280.417 143.191 280.271 143.928C280.126 144.658 279.918 145.382 279.647 146.1C279.369 146.837 279.029 147.567 278.618 148.291C278.177 149.072 277.659 149.84 277.066 150.596C276.372 151.471 275.571 152.334 274.669 153.165L274.713 138.141C275.615 137.31 276.417 136.453 277.111 135.572C277.704 134.816 278.221 134.048 278.663 133.267C279.073 132.543 279.413 131.813 279.691 131.076Z" fill="#697ECA"/>
<path d="M269.35 142.031C266.776 143.523 263.924 144.764 260.883 145.746C258.542 146.502 256.088 147.112 253.571 147.566L253.526 162.59C256.044 162.137 258.498 161.532 260.839 160.77C263.873 159.788 266.725 158.547 269.306 157.055C269.463 156.961 269.621 156.872 269.779 156.778L269.823 141.754C269.665 141.848 269.507 141.943 269.35 142.031Z" fill="#8AA9E4"/>
<path d="M248.65 148.253C247.23 148.392 245.798 148.486 244.366 148.537C243.047 148.581 241.729 148.587 240.41 148.556C239.136 148.524 237.868 148.455 236.606 148.354C235.344 148.253 234.095 148.109 232.852 147.932C231.558 147.75 230.284 147.529 229.022 147.265C227.653 146.981 226.309 146.654 224.991 146.276C223.382 145.817 221.811 145.294 220.303 144.696C218.341 143.921 216.473 143.033 214.732 142.032C207.117 137.643 203.312 131.882 203.331 126.133L203.287 141.157C203.268 146.906 207.073 152.667 214.688 157.056C216.429 158.064 218.297 158.952 220.259 159.72C221.773 160.318 223.338 160.841 224.946 161.3C226.265 161.672 227.609 162.006 228.978 162.289C230.24 162.547 231.514 162.774 232.808 162.956C234.05 163.133 235.3 163.271 236.562 163.378C237.823 163.479 239.091 163.548 240.366 163.58C241.685 163.611 243.003 163.605 244.322 163.561C245.754 163.51 247.186 163.416 248.606 163.277C250.265 163.114 251.912 162.887 253.533 162.591L253.577 147.567C251.956 147.857 250.309 148.09 248.65 148.253Z" fill="#8AA9E4"/>
</g>
<path d="M296.368 141.133C296.416 123.762 272.098 109.612 242.052 109.529C228.126 109.49 215.414 112.48 205.777 117.428L257.085 141.416L269.391 147.17L289.371 156.511C293.812 151.972 296.352 146.726 296.368 141.133Z" fill="#5281B9" fill-opacity="0.67"/>
<path d="M242.042 113.492C241.765 113.491 241.541 113.714 241.54 113.99C241.539 114.267 241.763 114.491 242.039 114.492L242.042 113.492ZM273.905 161.294C274.148 161.164 274.24 160.861 274.11 160.617C273.981 160.373 273.678 160.281 273.434 160.411L273.905 161.294ZM198.807 130.591L198.401 130.3L198.401 130.3L198.807 130.591ZM287.728 144.651C287.665 144.92 287.831 145.189 288.099 145.253C288.368 145.316 288.638 145.15 288.701 144.882L287.728 144.651ZM201.06 128.618C201.247 128.414 201.234 128.098 201.03 127.911C200.827 127.725 200.511 127.738 200.324 127.941L201.06 128.618ZM242.039 114.492C254.859 114.528 266.432 117.565 274.778 122.421C283.137 127.285 288.17 133.911 288.15 141.111L289.15 141.113C289.171 133.406 283.791 126.509 275.281 121.557C266.757 116.598 255.005 113.528 242.042 113.492L242.039 114.492ZM241.89 167.472C229.071 167.436 217.497 164.399 209.151 159.543C200.792 154.679 195.759 148.052 195.78 140.853L194.78 140.85C194.758 148.557 200.138 155.455 208.648 160.407C217.172 165.366 228.924 168.436 241.888 168.472L241.89 167.472ZM273.434 160.411C265.174 164.816 254.088 167.506 241.89 167.472L241.888 168.472C254.224 168.506 265.477 165.788 273.905 161.294L273.434 160.411ZM195.78 140.853C195.789 137.336 197.001 133.971 199.214 130.882L198.401 130.3C196.086 133.53 194.79 137.095 194.78 140.85L195.78 140.853ZM288.15 141.111C288.146 142.311 288.003 143.493 287.728 144.651L288.701 144.882C288.993 143.65 289.146 142.392 289.15 141.113L288.15 141.111ZM199.214 130.882C199.767 130.109 200.384 129.354 201.06 128.618L200.324 127.941C199.622 128.705 198.98 129.492 198.401 130.3L199.214 130.882Z" fill="#5B79C7"/>
<path d="M288.468 107.32C262.619 92.4278 220.84 92.4215 195.156 107.32C169.478 122.212 169.61 146.366 195.459 161.264C221.313 176.162 263.086 176.156 288.771 161.264C314.455 146.366 314.316 122.218 288.468 107.32ZM280.556 156.529C259.383 168.808 224.935 168.814 203.623 156.529C182.31 144.25 182.197 124.334 203.37 112.055C224.55 99.7699 258.992 99.7762 280.304 112.055C301.622 124.34 301.73 144.25 280.556 156.529Z" fill="#E5FAF8"/>
<path d="M288.468 107.32C311.402 120.538 314.097 141.038 296.475 155.898L288.244 150.922C301.278 138.787 298.617 122.608 280.304 112.055C263.855 102.578 239.585 100.412 219.627 105.565L216.453 99.0552C240.349 93.3175 268.95 96.075 288.468 107.32Z" fill="#BBDCDA"/>
<path d="M195.156 107.32C220.841 92.4215 262.62 92.4278 288.468 107.32C308.343 118.775 313.018 135.699 302.442 149.681L293.09 145.158C300.111 134.011 295.841 121.008 280.304 112.055C258.992 99.7762 224.55 99.7699 203.371 112.055L195.156 107.32Z" fill="#BBDCDA"/>
<mask id="mask3_504_16141" style="mask-type:luminance" maskUnits="userSpaceOnUse" x="203" y="116" width="78" height="38">
<path d="M280.574 116.494L280.53 131.518C280.511 137.198 276.776 142.865 269.306 147.197C254.272 155.918 229.818 155.918 214.682 147.197C207.067 142.808 203.262 137.047 203.281 131.298L203.325 116.273C203.307 122.022 207.111 127.784 214.726 132.173C229.862 140.894 254.316 140.894 269.351 132.173C276.821 127.841 280.562 122.174 280.574 116.494Z" fill="white"/>
</mask>
<g mask="url(#mask3_504_16141)">
<path d="M280.574 116.494L280.53 131.518C280.53 131.632 280.53 131.745 280.53 131.858L280.574 116.834C280.574 116.721 280.574 116.607 280.574 116.494Z" fill="#8DD3CF"/>
<path d="M280.316 119.044C280.17 119.775 279.962 120.499 279.691 121.217C279.413 121.953 279.073 122.684 278.663 123.408C278.221 124.189 277.704 124.957 277.111 125.712C276.416 126.594 275.615 127.45 274.713 128.282C273.325 129.56 271.697 130.769 269.823 131.896L269.779 146.92C271.653 145.793 273.287 144.584 274.669 143.306C275.571 142.474 276.372 141.612 277.066 140.737C277.659 139.981 278.177 139.213 278.618 138.432C279.028 137.708 279.369 136.977 279.647 136.241C279.918 135.523 280.126 134.799 280.271 134.068C280.416 133.332 280.505 132.595 280.524 131.858L280.568 116.834C280.549 117.571 280.461 118.314 280.316 119.044Z" fill="#8DD3CF"/>
<path d="M269.35 132.172C266.776 133.664 263.924 134.904 260.883 135.887C258.542 136.642 256.088 137.253 253.571 137.706L253.526 152.731C256.044 152.277 258.498 151.673 260.839 150.911C263.873 149.929 266.725 148.688 269.306 147.196C269.463 147.101 269.621 147.013 269.779 146.919L269.823 131.895C269.665 131.989 269.507 132.083 269.35 132.172Z" fill="#8DD3CF"/>
<path d="M248.65 138.394C247.23 138.533 245.798 138.627 244.366 138.677C243.047 138.721 241.729 138.728 240.41 138.696C239.136 138.665 237.868 138.596 236.606 138.495C235.344 138.394 234.095 138.249 232.852 138.073C231.558 137.89 230.284 137.67 229.022 137.405C227.653 137.122 226.309 136.795 224.991 136.417C223.382 135.957 221.811 135.435 220.303 134.836C218.341 134.062 216.473 133.174 214.732 132.173C207.117 127.784 203.312 122.022 203.331 116.273L203.287 131.298C203.268 137.047 207.073 142.808 214.688 147.197C216.429 148.204 218.297 149.092 220.259 149.86C221.773 150.459 223.338 150.981 224.946 151.441C226.265 151.812 227.609 152.146 228.978 152.43C230.24 152.688 231.514 152.914 232.808 153.097C234.05 153.273 235.3 153.412 236.562 153.519C237.823 153.62 239.091 153.689 240.366 153.72C241.685 153.752 243.003 153.746 244.322 153.701C245.754 153.651 247.186 153.557 248.606 153.418C250.265 153.254 251.912 153.028 253.533 152.732L253.577 137.708C251.956 137.997 250.309 138.23 248.65 138.394Z" fill="#8DD3CF"/>
</g>
<path d="M210.102 116.388C210.076 111.678 213.155 106.961 219.357 103.366C231.755 96.1749 251.919 96.1749 264.398 103.366C270.638 106.961 273.773 111.671 273.799 116.388H210.102Z" fill="#222727"/>
<path d="M273.794 120.391C273.823 110.222 259.587 101.939 241.997 101.89C224.408 101.841 210.126 110.045 210.097 120.213C210.069 130.382 224.305 138.665 241.894 138.714C259.484 138.763 273.766 130.559 273.794 120.391Z" fill="#6E8FE6"/>
<path d="M241.93 125.846C236.631 125.831 232.343 123.336 232.352 120.273M236.458 115.739C238.017 115.113 239.915 114.748 241.961 114.753C247.259 114.768 251.548 117.263 251.539 120.326C251.535 121.898 250.4 123.313 248.581 124.317" stroke="#5B79C7" stroke-linecap="round"/>
<path d="M249.146 120.322C249.14 122.622 245.91 124.477 241.933 124.465C237.956 124.454 234.737 122.582 234.743 120.282C234.75 117.983 237.979 116.128 241.956 116.139C245.933 116.15 249.152 118.023 249.146 120.322Z" fill="#5B79C7"/>
<path d="M269.174 100.594C254.045 91.8725 229.584 91.8725 214.55 100.594C199.515 109.315 199.597 123.451 214.726 132.172C229.862 140.893 254.316 140.893 269.351 132.172C284.385 123.451 284.31 109.315 269.174 100.594ZM264.543 129.401C252.146 136.592 231.982 136.592 219.502 129.401C207.023 122.21 206.96 110.555 219.357 103.364C231.755 96.1732 251.919 96.1732 264.398 103.364C276.877 110.555 276.941 122.21 264.543 129.401Z" fill="#E5FAF8"/>
<path d="M214.55 100.594C229.584 91.8725 254.045 91.8725 269.174 100.594C284.31 109.315 284.386 123.451 269.351 132.172L264.543 129.401C276.941 122.21 276.878 110.555 264.398 103.364C251.919 96.1732 231.755 96.1732 219.357 103.364L214.55 100.594Z" fill="#BBDCDA"/>
<path d="M241.701 117.607C241.991 112.941 243.972 87.3887 253.007 78.2772C255.145 76.1237 258.231 75.0407 261.221 75.557C262.969 75.853 264.401 76.6653 265.404 78.1198C266.18 79.2469 266.205 80.6511 266.123 81.4445C265.877 83.8688 264.855 84.8888 262.742 86.3938C259.202 88.9062 247.903 94.7181 241.94 117.645C241.903 117.783 241.688 117.745 241.701 117.601V117.607Z" fill="#5B79C7"/>
<path d="M241.701 117.607C241.991 112.941 243.972 87.3887 253.007 78.2772C255.145 76.1237 258.231 75.0407 261.221 75.557C262.969 75.853 264.401 76.6653 265.404 78.1198C266.18 79.2469 266.205 80.6511 266.123 81.4445C265.877 83.8688 264.855 84.8888 262.742 86.3938C259.202 88.9062 247.903 94.7181 241.94 117.645C241.903 117.783 241.688 117.745 241.701 117.601V117.607Z" fill="url(#paint0_linear_504_16141)"/>
<path d="M241.663 117.646C241.461 114.416 240.092 96.703 233.827 90.3873C232.344 88.895 230.206 88.1456 228.13 88.4983C226.919 88.7061 225.928 89.2665 225.234 90.274C224.698 91.0548 224.679 92.0308 224.736 92.5786C224.906 94.2598 225.613 94.9651 227.083 96.004C229.537 97.7419 237.367 101.772 241.499 117.665C241.524 117.759 241.669 117.734 241.669 117.633L241.663 117.646Z" fill="#5B79C7"/>
<path d="M241.663 117.646C241.461 114.416 240.092 96.703 233.827 90.3873C232.344 88.895 230.206 88.1456 228.13 88.4983C226.919 88.7061 225.928 89.2665 225.234 90.274C224.698 91.0548 224.679 92.0308 224.736 92.5786C224.906 94.2598 225.613 94.9651 227.083 96.004C229.537 97.7419 237.367 101.772 241.499 117.665C241.524 117.759 241.669 117.734 241.669 117.633L241.663 117.646Z" fill="url(#paint1_linear_504_16141)"/>
<defs>
<linearGradient id="paint0_linear_504_16141" x1="253.928" y1="75.4297" x2="248.022" y2="117.357" gradientUnits="userSpaceOnUse">
<stop stop-color="#274683"/>
<stop offset="1" stop-color="#5B79C7"/>
</linearGradient>
<linearGradient id="paint1_linear_504_16141" x1="233.192" y1="88.4121" x2="229.102" y2="117.465" gradientUnits="userSpaceOnUse">
<stop stop-color="#274683"/>
<stop offset="1" stop-color="#5B79C7"/>
</linearGradient>
</defs>
</svg>
