<svg width="351" height="265" viewBox="0 0 351 265" fill="none" xmlns="http://www.w3.org/2000/svg">
<rect x="0.761719" y="0.648438" width="350" height="264" fill="#33837E"/>
<path d="M207.757 167.303H216.365V190.976C216.365 192.159 215.397 193.128 214.213 193.128H209.909C208.725 193.128 207.757 192.159 207.757 190.976V167.303Z" fill="#3C271B"/>
<path d="M216.365 167.303H207.757V172.84L216.365 178.183V167.303Z" fill="#160B05"/>
<path d="M237.778 132.997C237.842 132.244 237.886 131.491 237.886 130.716C237.886 117.631 227.297 107.043 214.213 107.043C213.481 107.043 212.771 107.086 212.061 107.151C224.134 108.248 233.581 118.363 233.581 130.716C233.581 131.491 233.538 132.244 233.474 132.997C242.018 134.009 248.646 141.283 248.646 150.085C248.646 159.597 240.941 167.301 231.429 167.301H235.733C245.246 167.301 252.95 159.597 252.95 150.085C252.95 141.261 246.322 134.009 237.778 132.997Z" fill="#291F1A"/>
<path d="M233.474 132.997C233.538 132.244 233.581 131.491 233.581 130.716C233.581 118.363 224.134 108.248 212.06 107.151C211.35 107.086 210.64 107.043 209.908 107.043C196.824 107.043 186.235 117.631 186.235 130.716C186.235 131.491 186.279 132.244 186.343 132.997C177.799 134.009 171.171 141.283 171.171 150.085C171.171 159.597 178.875 167.301 188.388 167.301H231.429C240.941 167.301 248.646 159.597 248.646 150.085C248.646 141.261 242.017 134.009 233.474 132.997Z" fill="#4E2F1D"/>
<path d="M232.774 132.998C224.453 132.998 217.708 139.743 217.708 148.064H215.556C215.556 138.555 223.265 130.846 232.774 130.846C233.066 130.846 233.355 130.853 233.642 130.867V133.022C233.355 133.006 233.066 132.998 232.774 132.998Z" fill="#291F1A"/>
<path d="M265.604 166.676H274.122V190.102C274.122 191.273 273.164 192.232 271.993 192.232H267.733C266.562 192.232 265.604 191.273 265.604 190.102V166.676Z" fill="#3C271B"/>
<path d="M274.122 166.676H265.604V172.749L274.122 178.138V166.676Z" fill="#160B05"/>
<path d="M295.312 132.727C295.376 131.981 295.418 131.236 295.418 130.469C295.418 117.521 284.94 107.043 271.992 107.043C271.268 107.043 270.565 107.086 269.862 107.149C281.81 108.236 291.159 118.245 291.159 130.469C291.159 131.236 291.116 131.981 291.052 132.727C299.507 133.728 306.067 140.926 306.067 149.636C306.067 159.049 298.442 166.674 289.029 166.674H293.289C302.702 166.674 310.326 159.049 310.326 149.636C310.326 140.905 303.767 133.728 295.312 132.727Z" fill="#3E2415"/>
<path d="M291.052 132.727C291.116 131.981 291.159 131.236 291.159 130.469C291.159 118.245 281.81 108.236 269.862 107.149C269.159 107.086 268.457 107.043 267.732 107.043C254.784 107.043 244.306 117.521 244.306 130.469C244.306 131.236 244.349 131.981 244.413 132.727C235.958 133.728 229.398 140.926 229.398 149.636C229.398 159.049 237.023 166.674 246.436 166.674H289.029C298.442 166.674 306.066 159.049 306.066 149.636C306.066 140.905 299.507 133.728 291.052 132.727Z" fill="#A34D1C"/>
<path d="M290.361 132.727C282.126 132.727 275.451 139.403 275.451 147.637H273.321C273.321 138.226 280.95 130.598 290.361 130.598C290.649 130.598 290.935 130.605 291.22 130.619V132.752C290.935 132.736 290.649 132.727 290.361 132.727Z" fill="#F1884C"/>
<path d="M247.631 161.211H258.269V190.466C258.269 191.929 257.072 193.126 255.61 193.126H250.29C248.828 193.126 247.631 191.929 247.631 190.466V161.211Z" fill="#3C271B"/>
<path d="M258.269 161.211H247.631V168.417L258.269 176.109V161.211Z" fill="#160B05"/>
<path d="M284.731 118.816C284.811 117.886 284.864 116.955 284.864 115.997C284.864 99.8272 271.779 86.7422 255.609 86.7422C254.705 86.7422 253.827 86.7954 252.949 86.8752C267.869 88.2315 279.545 100.731 279.545 115.997C279.545 116.955 279.492 117.886 279.412 118.816C289.97 120.066 298.162 129.056 298.162 139.933C298.162 151.689 288.641 161.21 276.885 161.21H282.204C293.96 161.21 303.481 151.689 303.481 139.933C303.481 129.029 295.289 120.066 284.731 118.816Z" fill="#F1884C"/>
<path d="M279.412 118.816C279.492 117.886 279.545 116.955 279.545 115.997C279.545 100.731 267.87 88.2315 252.95 86.8752C252.072 86.7954 251.194 86.7422 250.29 86.7422C234.12 86.7422 221.035 99.8272 221.035 115.997C221.035 116.955 221.088 117.886 221.168 118.816C210.609 120.066 202.418 129.056 202.418 139.933C202.418 151.689 211.939 161.21 223.694 161.21H276.886C288.641 161.21 298.162 151.689 298.162 139.933C298.162 129.029 289.971 120.066 279.412 118.816Z" fill="#F3AE87"/>
<path d="M278.548 118.818C268.264 118.818 259.928 127.154 259.928 137.437H257.269C257.269 125.685 266.796 116.158 278.548 116.158C278.907 116.158 279.265 116.167 279.62 116.185V118.848C279.265 118.828 278.908 118.818 278.548 118.818Z" fill="#F1884C"/>
</svg>
