<svg width="351" height="265" viewBox="0 0 351 265" fill="none" xmlns="http://www.w3.org/2000/svg">
<rect x="0.761719" y="0.648438" width="350" height="264" fill="#2E4491"/>
<path d="M308.175 162.321C308.235 140.733 277.624 128.387 238.97 128.28C200.316 128.172 168.931 145.585 168.871 167.173C168.811 188.761 200.097 206.349 238.751 206.457C277.405 206.565 308.114 183.909 308.175 162.321Z" fill="#330D0D"/>
<mask id="mask0_504_16137" style="mask-type:luminance" maskUnits="userSpaceOnUse" x="176" y="134" width="133" height="65">
<path d="M308.755 134.912L308.679 160.65C308.653 170.374 302.244 180.086 289.451 187.512C263.701 202.445 221.805 202.452 195.877 187.512C182.838 179.991 176.327 170.122 176.353 160.271L176.429 134.533C176.403 144.384 182.914 154.253 195.96 161.767C221.887 176.708 263.777 176.701 289.534 161.767C302.327 154.348 308.736 144.636 308.761 134.906L308.755 134.912Z" fill="white"/>
</mask>
<g mask="url(#mask0_504_16137)">
<path d="M308.754 134.912L308.678 160.65C308.678 160.846 308.678 161.035 308.672 161.231L308.748 135.493C308.748 135.297 308.754 135.108 308.754 134.912Z" fill="#D38D8D"/>
<path d="M308.313 139.281C308.06 140.525 307.706 141.769 307.244 143C306.769 144.263 306.181 145.52 305.479 146.757C304.72 148.096 303.834 149.409 302.815 150.704C301.626 152.213 300.259 153.684 298.709 155.105C296.336 157.29 293.54 159.367 290.326 161.299L290.25 187.037C293.464 185.105 296.261 183.034 298.633 180.843C300.177 179.416 301.55 177.944 302.739 176.441C303.758 175.153 304.644 173.834 305.403 172.495C306.105 171.257 306.687 170.007 307.168 168.738C307.63 167.507 307.984 166.269 308.237 165.019C308.49 163.762 308.636 162.493 308.674 161.23L308.75 135.492C308.712 136.755 308.566 138.024 308.313 139.281Z" fill="#D38D8D"/>
<path d="M289.527 161.769C285.117 164.326 280.227 166.448 275.026 168.133C271.015 169.434 266.814 170.47 262.499 171.247L262.423 196.984C266.738 196.208 270.932 195.172 274.95 193.871C280.151 192.192 285.035 190.07 289.451 187.506C289.723 187.348 289.995 187.191 290.261 187.033L290.337 161.295C290.071 161.453 289.799 161.611 289.527 161.769Z" fill="#D38D8D"/>
<path d="M254.065 172.42C251.636 172.66 249.187 172.824 246.726 172.906C244.467 172.982 242.209 172.995 239.95 172.938C237.774 172.881 235.597 172.767 233.433 172.59C231.276 172.414 229.125 172.174 226.999 171.871C224.785 171.555 222.596 171.176 220.438 170.734C218.097 170.248 215.794 169.686 213.536 169.048C210.777 168.265 208.088 167.362 205.5 166.339C202.141 165.013 198.939 163.491 195.953 161.774C182.914 154.253 176.397 144.39 176.429 134.533L176.353 160.271C176.327 170.122 182.838 179.991 195.884 187.505C198.87 189.229 202.065 190.751 205.431 192.071C208.019 193.094 210.707 193.99 213.466 194.779C215.718 195.424 218.028 195.986 220.369 196.465C222.526 196.914 224.715 197.293 226.929 197.602C229.055 197.905 231.2 198.145 233.364 198.322C235.528 198.499 237.704 198.619 239.881 198.669C242.139 198.726 244.404 198.713 246.657 198.638C249.111 198.556 251.566 198.391 253.996 198.151C256.843 197.867 259.665 197.476 262.436 196.977L262.512 171.239C259.741 171.738 256.919 172.13 254.072 172.414L254.065 172.42Z" fill="#D38D8D"/>
</g>
<mask id="mask1_504_16137" style="mask-type:luminance" maskUnits="userSpaceOnUse" x="176" y="134" width="133" height="65">
<path d="M308.755 134.912L308.679 160.65C308.653 170.374 302.244 180.086 289.451 187.512C263.701 202.445 221.805 202.452 195.877 187.512C182.838 179.991 176.327 170.122 176.353 160.271L176.429 134.533C176.403 144.384 182.914 154.253 195.96 161.767C221.887 176.708 263.777 176.701 289.534 161.767C302.327 154.348 308.736 144.636 308.761 134.906L308.755 134.912Z" fill="white"/>
</mask>
<g mask="url(#mask1_504_16137)">
<path d="M308.754 134.912L308.678 160.65C308.678 160.846 308.678 161.035 308.672 161.231L308.748 135.493C308.748 135.297 308.754 135.108 308.754 134.912Z" fill="#D38D8D"/>
<path d="M307.243 143C307.705 141.769 308.059 140.525 308.312 139.281C308.565 138.024 308.711 136.755 308.749 135.492L308.673 161.23C308.635 162.493 308.489 163.762 308.236 165.019C307.983 166.269 307.629 167.507 307.167 168.738C306.686 170.007 306.104 171.257 305.402 172.495L297.241 156.396C297.747 155.97 298.236 155.54 298.708 155.105C300.258 153.684 301.624 152.213 302.814 150.704C303.833 149.409 304.718 148.096 305.478 146.757C306.18 145.52 306.768 144.263 307.243 143Z" fill="#330D0D"/>
<path d="M254.065 172.42C251.636 172.66 249.187 172.824 246.726 172.906C244.467 172.982 242.209 172.995 239.95 172.938C237.774 172.881 235.597 172.767 233.433 172.59C231.276 172.414 229.125 172.174 226.999 171.871C224.785 171.555 222.596 171.176 220.438 170.734C218.097 170.248 215.794 169.686 213.536 169.048C210.777 168.265 208.088 167.362 205.5 166.339C202.141 165.013 198.939 163.491 195.953 161.774C182.914 154.253 176.397 144.39 176.429 134.533L176.353 160.271C176.327 170.122 182.838 179.991 195.884 187.505C198.87 189.229 202.065 190.751 205.431 192.071C208.019 193.094 210.707 193.99 213.466 194.779C215.718 195.424 218.028 195.986 220.369 196.465C222.526 196.914 224.715 197.293 226.929 197.602C229.055 197.905 231.2 198.145 233.364 198.322C235.528 198.499 237.704 198.619 239.881 198.669C242.139 198.726 244.404 198.713 246.657 198.638C249.111 198.556 251.566 198.391 253.996 198.151C256.843 197.867 259.665 197.476 262.436 196.977L262.512 171.239C259.741 171.738 256.919 172.13 254.072 172.414L254.065 172.42Z" fill="#D38D8D"/>
</g>
<path d="M188.038 134.726C187.994 126.656 193.271 118.579 203.887 112.423C225.126 100.103 259.665 100.11 281.037 112.423C291.723 118.579 297.094 126.656 297.145 134.726V146.199L240.465 157.054L188.038 150.09V134.726Z" fill="#2E1C1C"/>
<path d="M297.146 141.592C297.195 124.172 272.809 109.983 242.678 109.899C212.547 109.815 188.082 123.868 188.034 141.288C187.985 158.707 212.371 172.896 242.502 172.98C272.632 173.064 297.097 159.011 297.146 141.592Z" fill="#7F6EE6"/>
<mask id="mask2_504_16137" style="mask-type:luminance" maskUnits="userSpaceOnUse" x="203" y="126" width="79" height="39">
<path d="M281.312 126.774L281.268 141.84C281.249 147.536 277.503 153.219 270.012 157.563C254.935 166.309 230.413 166.309 215.234 157.563C207.598 153.162 203.783 147.384 203.802 141.619L203.846 126.553C203.827 132.318 207.642 138.096 215.279 142.497C230.457 151.242 254.98 151.242 270.057 142.497C277.548 138.152 281.299 132.469 281.312 126.774Z" fill="white"/>
</mask>
<g mask="url(#mask2_504_16137)">
<path d="M281.312 126.773L281.268 141.84C281.268 141.953 281.268 142.067 281.268 142.181L281.312 127.114C281.312 127.001 281.312 126.887 281.312 126.773Z" fill="#978AE4"/>
<path d="M281.052 129.33C280.907 130.062 280.698 130.788 280.426 131.508C280.147 132.247 279.806 132.979 279.395 133.706C278.952 134.489 278.433 135.259 277.838 136.017C277.142 136.901 276.339 137.759 275.434 138.593C274.042 139.875 272.41 141.087 270.531 142.217L270.486 157.284C272.365 156.153 274.004 154.941 275.39 153.659C276.294 152.826 277.098 151.961 277.794 151.083C278.389 150.325 278.907 149.555 279.35 148.772C279.761 148.046 280.103 147.313 280.382 146.574C280.654 145.855 280.862 145.128 281.008 144.396C281.153 143.657 281.242 142.918 281.261 142.18L281.305 127.113C281.286 127.852 281.198 128.597 281.052 129.33Z" fill="#978AE4"/>
<path d="M280.426 131.508C280.698 130.788 280.907 130.062 281.052 129.33C281.198 128.597 281.286 127.852 281.305 127.113L281.261 142.18C281.242 142.918 281.153 143.657 281.008 144.396C280.862 145.128 280.654 145.855 280.382 146.574C280.103 147.313 279.761 148.046 279.35 148.772C278.907 149.555 278.389 150.325 277.794 151.083C277.098 151.961 276.294 152.826 275.39 153.659L275.434 138.593C276.339 137.759 277.142 136.901 277.838 136.017C278.433 135.259 278.952 134.489 279.395 133.706C279.806 132.979 280.147 132.247 280.426 131.508Z" fill="#7769CA"/>
<path d="M270.056 142.497C267.475 143.993 264.615 145.237 261.566 146.222C259.218 146.98 256.757 147.592 254.233 148.047L254.188 163.113C256.713 162.659 259.174 162.052 261.521 161.288C264.565 160.303 267.424 159.059 270.012 157.563C270.17 157.468 270.328 157.38 270.486 157.285L270.531 142.219C270.373 142.313 270.214 142.408 270.056 142.497Z" fill="#978AE4"/>
<path d="M249.298 148.735C247.874 148.874 246.438 148.969 245.002 149.02C243.68 149.064 242.357 149.07 241.035 149.039C239.757 149.007 238.485 148.938 237.22 148.836C235.954 148.735 234.702 148.59 233.455 148.413C232.158 148.23 230.88 148.009 229.615 147.744C228.242 147.46 226.894 147.132 225.572 146.753C223.959 146.292 222.383 145.768 220.871 145.168C218.904 144.391 217.031 143.501 215.285 142.497C207.648 138.096 203.833 132.318 203.852 126.553L203.808 141.619C203.789 147.384 207.604 153.162 215.24 157.563C216.987 158.573 218.859 159.464 220.827 160.234C222.345 160.834 223.914 161.358 225.528 161.819C226.85 162.192 228.198 162.526 229.571 162.81C230.836 163.069 232.114 163.297 233.411 163.48C234.657 163.657 235.91 163.795 237.176 163.903C238.441 164.004 239.713 164.073 240.991 164.105C242.313 164.136 243.635 164.13 244.958 164.086C246.394 164.035 247.83 163.941 249.253 163.802C250.917 163.638 252.569 163.41 254.195 163.113L254.239 148.047C252.613 148.338 250.962 148.571 249.298 148.735Z" fill="#978AE4"/>
</g>
<path d="M297.146 141.59C297.195 124.171 272.808 109.981 242.678 109.897C228.713 109.858 215.965 112.857 206.3 117.819L257.753 141.875L270.094 147.644L290.129 157.011C294.583 152.46 297.13 147.199 297.146 141.59Z" fill="#6052B9" fill-opacity="0.67"/>
<path d="M242.667 113.874C242.391 113.873 242.167 114.096 242.166 114.372C242.165 114.649 242.388 114.873 242.664 114.874L242.667 113.874ZM274.619 161.807C274.863 161.677 274.955 161.374 274.825 161.131C274.695 160.887 274.392 160.795 274.149 160.925L274.619 161.807ZM199.312 131.02L198.905 130.728L198.905 130.728L199.312 131.02ZM288.484 145.119C288.42 145.388 288.586 145.657 288.855 145.721C289.124 145.785 289.393 145.619 289.457 145.35L288.484 145.119ZM201.57 129.04C201.757 128.837 201.743 128.52 201.54 128.333C201.337 128.147 201.02 128.16 200.833 128.363L201.57 129.04ZM242.664 114.874C255.52 114.91 267.127 117.956 275.496 122.826C283.879 127.703 288.926 134.349 288.906 141.569L289.906 141.572C289.928 133.844 284.533 126.927 275.999 121.961C267.452 116.988 255.667 113.91 242.667 113.874L242.664 114.874ZM242.516 168.005C229.66 167.97 218.054 164.924 209.684 160.054C201.301 155.176 196.254 148.531 196.274 141.311L195.274 141.308C195.252 149.036 200.647 155.952 209.181 160.918C217.728 165.891 229.513 168.969 242.513 169.005L242.516 168.005ZM274.149 160.925C265.865 165.342 254.748 168.04 242.516 168.005L242.513 169.005C254.883 169.04 266.168 166.314 274.619 161.807L274.149 160.925ZM196.274 141.311C196.284 137.784 197.499 134.408 199.718 131.311L198.905 130.728C196.584 133.968 195.285 137.542 195.274 141.308L196.274 141.311ZM288.906 141.569C288.903 142.773 288.759 143.958 288.484 145.119L289.457 145.35C289.749 144.115 289.903 142.854 289.906 141.572L288.906 141.569ZM199.718 131.311C200.273 130.536 200.892 129.778 201.57 129.04L200.833 128.363C200.13 129.129 199.485 129.918 198.905 130.728L199.718 131.311Z" fill="#6354BA"/>
<path d="M289.224 107.681C263.303 92.7475 221.407 92.7411 195.65 107.681C169.9 122.615 170.033 146.837 195.954 161.777C221.881 176.717 263.771 176.711 289.528 161.777C315.285 146.837 315.145 122.621 289.224 107.681ZM281.29 157.029C260.057 169.342 225.513 169.348 204.141 157.029C182.769 144.715 182.655 124.743 203.888 112.43C225.127 100.11 259.665 100.116 281.037 112.43C302.416 124.749 302.523 144.715 281.29 157.029Z" fill="#FFEBEB"/>
<path d="M289.225 107.681C312.223 120.937 314.926 141.494 297.254 156.396L289.001 151.406C302.071 139.237 299.402 123.012 281.038 112.43C264.543 102.926 240.204 100.754 220.191 105.922L217.008 99.3935C240.971 93.6396 269.652 96.4049 289.225 107.681Z" fill="#E1BFBF"/>
<path d="M195.65 107.681C221.407 92.7411 263.303 92.7475 289.225 107.681C309.155 119.169 313.844 136.14 303.238 150.162L293.859 145.626C300.9 134.447 296.618 121.408 281.038 112.43C259.665 100.116 225.127 100.11 203.888 112.43L195.65 107.681Z" fill="#E1BFBF"/>
<mask id="mask3_504_16137" style="mask-type:luminance" maskUnits="userSpaceOnUse" x="203" y="116" width="79" height="39">
<path d="M281.312 116.881L281.268 131.947C281.249 137.643 277.503 143.326 270.012 147.67C254.935 156.416 230.413 156.416 215.234 147.67C207.598 143.269 203.783 137.492 203.802 131.726L203.846 116.66C203.827 122.425 207.642 128.203 215.279 132.604C230.457 141.35 254.98 141.35 270.057 132.604C277.548 128.26 281.299 122.577 281.312 116.881Z" fill="white"/>
</mask>
<g mask="url(#mask3_504_16137)">
<path d="M281.312 116.881L281.268 131.947C281.268 132.061 281.268 132.174 281.268 132.288L281.312 117.222C281.312 117.108 281.312 116.995 281.312 116.881Z" fill="#D38D8D"/>
<path d="M281.052 119.437C280.907 120.17 280.698 120.896 280.426 121.616C280.147 122.354 279.806 123.087 279.395 123.813C278.952 124.596 278.433 125.366 277.838 126.124C277.142 127.008 276.339 127.867 275.434 128.7C274.042 129.982 272.41 131.195 270.531 132.325L270.486 147.391C272.365 146.261 274.004 145.049 275.39 143.767C276.294 142.933 277.098 142.068 277.794 141.19C278.389 140.433 278.907 139.662 279.35 138.879C279.761 138.153 280.103 137.421 280.382 136.682C280.654 135.962 280.862 135.236 281.008 134.503C281.153 133.765 281.242 133.026 281.261 132.287L281.305 117.221C281.286 117.959 281.198 118.705 281.052 119.437Z" fill="#D38D8D"/>
<path d="M270.056 132.604C267.475 134.101 264.615 135.344 261.566 136.33C259.218 137.087 256.757 137.7 254.233 138.154L254.188 153.221C256.713 152.766 259.174 152.16 261.521 151.396C264.565 150.411 267.424 149.167 270.012 147.67C270.17 147.576 270.328 147.487 270.486 147.392L270.531 132.326C270.373 132.421 270.214 132.516 270.056 132.604Z" fill="#D38D8D"/>
<path d="M249.298 138.843C247.874 138.982 246.438 139.077 245.002 139.127C243.68 139.171 242.357 139.178 241.035 139.146C239.757 139.114 238.485 139.045 237.22 138.944C235.954 138.843 234.702 138.698 233.455 138.521C232.158 138.338 230.88 138.117 229.615 137.851C228.242 137.567 226.894 137.239 225.572 136.86C223.959 136.399 222.383 135.875 220.871 135.275C218.904 134.499 217.031 133.608 215.285 132.604C207.648 128.203 203.833 122.425 203.852 116.66L203.808 131.726C203.789 137.492 207.604 143.269 215.24 147.67C216.987 148.681 218.859 149.571 220.827 150.341C222.345 150.941 223.914 151.465 225.528 151.926C226.85 152.299 228.198 152.634 229.571 152.918C230.836 153.177 232.114 153.404 233.411 153.587C234.657 153.764 235.91 153.903 237.176 154.01C238.441 154.111 239.713 154.181 240.991 154.212C242.313 154.244 243.635 154.238 244.958 154.193C246.394 154.143 247.83 154.048 249.253 153.909C250.917 153.745 252.569 153.518 254.195 153.221L254.239 138.155C252.613 138.445 250.962 138.679 249.298 138.843Z" fill="#D38D8D"/>
</g>
<path d="M210.638 116.773C210.613 112.05 213.7 107.321 219.919 103.715C232.352 96.5039 252.572 96.5039 265.087 103.715C271.344 107.321 274.488 112.044 274.514 116.773H210.638Z" fill="#2E1C1C"/>
<path d="M274.51 120.791C274.539 110.594 260.263 102.288 242.624 102.238C224.985 102.189 210.663 110.416 210.635 120.613C210.606 130.81 224.882 139.116 242.521 139.165C260.16 139.214 274.482 130.988 274.51 120.791Z" fill="#7F6EE6"/>
<path d="M274.51 120.791C274.539 110.594 260.263 102.288 242.624 102.238C224.985 102.189 210.663 110.416 210.635 120.613C210.606 130.81 224.882 139.116 242.521 139.165C260.16 139.214 274.482 130.988 274.51 120.791Z" fill="url(#paint0_linear_504_16137)"/>
<path d="M242.555 126.264C237.242 126.249 232.942 123.747 232.95 120.675M237.068 116.129C238.632 115.5 240.535 115.134 242.586 115.14C247.9 115.155 252.2 117.657 252.192 120.729C252.187 122.305 251.049 123.724 249.225 124.731" stroke="#6E5ED1" stroke-linecap="round"/>
<path d="M249.791 120.723C249.784 123.029 246.546 124.889 242.558 124.878C238.569 124.866 235.341 122.988 235.348 120.683C235.354 118.377 238.593 116.517 242.581 116.528C246.569 116.539 249.797 118.417 249.791 120.723Z" fill="#6A5BC7"/>
<path d="M269.876 100.94C254.704 92.1945 230.175 92.1945 215.098 100.94C200.021 109.686 200.103 123.862 215.275 132.607C230.453 141.353 254.976 141.353 270.053 132.607C285.13 123.862 285.054 109.686 269.876 100.94ZM265.232 129.829C252.799 137.04 232.579 137.04 220.064 129.829C207.55 122.618 207.486 110.929 219.919 103.718C232.351 96.5073 252.572 96.5073 265.086 103.718C277.601 110.929 277.664 122.618 265.232 129.829Z" fill="#FFEBEB"/>
<path d="M215.098 100.94C230.175 92.1945 254.704 92.1945 269.876 100.94C285.054 109.686 285.13 123.862 270.053 132.607L265.232 129.829C277.664 122.618 277.601 110.929 265.086 103.718C252.572 96.5073 232.351 96.5073 219.919 103.718L215.098 100.94Z" fill="#E1BFBF"/>
<path d="M242.326 117.999C242.617 113.32 244.603 87.6957 253.663 78.5587C255.808 76.3991 258.902 75.313 261.901 75.8308C263.654 76.1276 265.09 76.9422 266.096 78.4008C266.874 79.5311 266.899 80.9392 266.817 81.7348C266.57 84.1659 265.545 85.1889 263.426 86.698C259.876 89.2175 248.545 95.0457 242.566 118.037C242.528 118.176 242.313 118.138 242.326 117.992V117.999Z" fill="#403487"/>
<path d="M242.326 117.999C242.617 113.32 244.603 87.6957 253.663 78.5587C255.808 76.3991 258.902 75.313 261.901 75.8308C263.654 76.1276 265.09 76.9422 266.096 78.4008C266.874 79.5311 266.899 80.9392 266.817 81.7348C266.57 84.1659 265.545 85.1889 263.426 86.698C259.876 89.2175 248.545 95.0457 242.566 118.037C242.528 118.176 242.313 118.138 242.326 117.992V117.999Z" fill="url(#paint1_linear_504_16137)"/>
<path d="M242.289 118.039C242.086 114.799 240.713 97.0368 234.431 90.7034C232.944 89.2069 230.799 88.4554 228.718 88.8091C227.503 89.0174 226.51 89.5794 225.814 90.5897C225.276 91.3727 225.257 92.3515 225.314 92.9008C225.485 94.5868 226.193 95.294 227.667 96.3359C230.129 98.0787 237.98 102.12 242.124 118.058C242.15 118.152 242.295 118.127 242.295 118.026L242.289 118.039Z" fill="#403487"/>
<path d="M242.289 118.039C242.086 114.799 240.713 97.0368 234.431 90.7034C232.944 89.2069 230.799 88.4554 228.718 88.8091C227.503 89.0174 226.51 89.5794 225.814 90.5897C225.276 91.3727 225.257 92.3515 225.314 92.9008C225.485 94.5868 226.193 95.294 227.667 96.3359C230.129 98.0787 237.98 102.12 242.124 118.058C242.15 118.152 242.295 118.127 242.295 118.026L242.289 118.039Z" fill="url(#paint2_linear_504_16137)"/>
<defs>
<linearGradient id="paint0_linear_504_16137" x1="256.467" y1="103.128" x2="249.092" y2="119.516" gradientUnits="userSpaceOnUse">
<stop stop-color="#5A49C5"/>
<stop offset="1" stop-color="#505CCE" stop-opacity="0"/>
</linearGradient>
<linearGradient id="paint1_linear_504_16137" x1="254.587" y1="75.7031" x2="248.665" y2="117.748" gradientUnits="userSpaceOnUse">
<stop stop-color="#30218F"/>
<stop offset="1" stop-color="#6A5BC7"/>
</linearGradient>
<linearGradient id="paint2_linear_504_16137" x1="233.794" y1="88.7227" x2="229.693" y2="117.857" gradientUnits="userSpaceOnUse">
<stop stop-color="#30218F"/>
<stop offset="1" stop-color="#6A5BC7"/>
</linearGradient>
</defs>
</svg>
