<svg width="351" height="265" viewBox="0 0 351 265" fill="none" xmlns="http://www.w3.org/2000/svg">
<rect x="0.888672" y="0.00195312" width="350" height="264" fill="#7C82BC"/>
<circle cx="248.949" cy="137.937" r="59.5367" fill="#523030"/>
<circle cx="254.057" cy="136.495" r="56.8326" fill="#FFFAFA"/>
<circle cx="254.105" cy="136.494" r="37.4664" fill="#FFFAFA"/>
<path d="M254.105 99.0273C233.413 99.0273 216.639 115.802 216.639 136.494C216.639 142.309 217.963 147.814 220.327 152.725C212.977 119.742 248.168 90.6182 281.256 110.676C274.431 103.5 264.79 99.0273 254.105 99.0273Z" fill="#E9D3D3"/>
<path fill-rule="evenodd" clip-rule="evenodd" d="M220.858 82.7617C221.301 81.7499 222.48 81.2889 223.492 81.7321L224.669 82.2474C225.681 82.6906 226.142 83.87 225.698 84.8818L222.661 91.8157C222.44 92.3216 222.67 92.9113 223.176 93.1329L223.765 93.3908C224.271 93.6124 224.861 93.3819 225.082 92.876L228.119 85.9431C228.562 84.9314 229.741 84.4704 230.753 84.9136L231.93 85.4289C232.941 85.8721 233.402 87.0515 232.959 88.0633L229.923 94.9961C229.701 95.502 229.932 96.0918 230.438 96.3133L235.866 98.691C236.372 98.9125 236.602 99.5023 236.381 100.008L232.829 108.118C231.499 111.153 227.961 112.536 224.926 111.207L223.156 110.432L212.503 134.755L207.672 132.639L218.325 108.316L216.555 107.541C213.52 106.211 212.137 102.673 213.466 99.6374L217.126 91.2831L217.126 91.283L217.126 91.283L220.858 82.7617ZM235.38 89.1225C235.823 88.1107 237.002 87.6497 238.014 88.0929L239.191 88.6082C240.202 89.0514 240.663 90.2308 240.22 91.2426L237.183 98.1758C236.962 98.6817 236.372 98.9122 235.866 98.6906L232.858 97.3729C232.352 97.1513 232.121 96.5616 232.343 96.0557L235.38 89.1225Z" fill="#523030"/>
<path fill-rule="evenodd" clip-rule="evenodd" d="M222.824 83.6256C223.266 82.6127 224.446 82.1507 225.459 82.5942L226.635 83.1095C227.646 83.5524 228.108 84.7306 227.666 85.7421L224.635 92.6818C224.414 93.1875 224.644 93.7766 225.15 93.9981L225.73 94.2521C226.236 94.4737 226.825 94.2432 227.047 93.7373L230.083 86.8045C230.527 85.7927 231.706 85.3317 232.718 85.7749L233.894 86.2902C234.906 86.7334 235.367 87.9128 234.924 88.9246L231.888 95.8574C231.666 96.3633 231.896 96.9531 232.402 97.1746L232.855 97.3731C233.356 97.5922 233.939 97.3693 234.166 96.8723L237.329 89.9435C237.783 88.9495 238.95 88.5036 239.951 88.9419L241.127 89.4571C242.15 89.9051 242.608 91.1038 242.144 92.1196L238.632 99.8138C238.613 99.8547 238.632 99.9031 238.673 99.9211C238.714 99.939 238.732 99.9865 238.714 100.027L234.794 108.979C233.464 112.015 229.926 113.398 226.89 112.068L225.121 111.293L214 136.684L209.169 134.568L220.29 109.177L218.52 108.402C215.485 107.072 214.102 103.534 215.431 100.499L219.382 91.4777C219.383 91.4751 219.387 91.4738 219.389 91.475C219.392 91.4762 219.395 91.475 219.396 91.4723L222.824 83.6256Z" fill="#FFFAFA"/>
<path d="M231.786 102.669L232.863 100.21C233.085 99.7041 233.675 99.4736 234.18 99.6952L234.769 99.9528C235.275 100.174 235.505 100.764 235.284 101.27L234.207 103.729C232.586 107.429 228.48 109.271 224.704 108.153C224.175 107.996 223.945 107.4 224.167 106.894L224.424 106.305C224.646 105.8 225.235 105.58 225.774 105.703C228.198 106.257 230.752 105.031 231.786 102.669Z" fill="#E7BDBD"/>
<rect x="205.506" y="130.982" width="10.5691" height="15.8536" rx="1" transform="rotate(23.653 205.506 130.982)" fill="#523030"/>
<rect x="207.471" y="131.842" width="10.5691" height="15.8536" rx="1" transform="rotate(23.653 207.471 131.842)" fill="#DE8A8A"/>
<path fill-rule="evenodd" clip-rule="evenodd" d="M201.38 71.9226C198.056 74.0533 195.436 77.1202 193.852 80.737L192.863 82.9956C190.93 87.4086 192.437 92.4596 196.212 95.1482L184.253 122.451L189.091 124.57L201.049 97.2671C205.585 98.218 210.319 95.9007 212.252 91.4878L214.456 86.4558C215.248 84.6474 215.487 82.645 215.143 80.701L214.437 76.711C213.442 71.0897 207.048 68.2895 202.242 71.3699L201.38 71.9226Z" fill="#523030"/>
<path fill-rule="evenodd" clip-rule="evenodd" d="M203.802 72.9851C200.477 75.1158 197.858 78.1827 196.274 81.7995L195.285 84.0581C193.352 88.4711 194.859 93.5221 198.633 96.2107L186.675 123.514L191.513 125.633L203.471 98.3296C208.007 99.2805 212.741 96.9632 214.674 92.5503L215.663 90.2917C217.247 86.6749 217.725 82.6701 217.037 78.7821L216.859 77.7735C215.864 72.1522 209.47 69.352 204.664 72.4324L203.802 72.9851Z" fill="#FFFAFA"/>
<path d="M210.062 89.8933L211.141 87.4297C211.363 86.9238 211.953 86.6933 212.459 86.9149L213.05 87.174C213.556 87.3956 213.787 87.9853 213.565 88.4912L212.486 90.9548C210.863 94.6608 206.751 96.5047 202.97 95.3845C202.44 95.2277 202.21 94.631 202.432 94.1251L202.691 93.5334C202.912 93.0276 203.502 92.8078 204.04 92.931C206.469 93.4865 209.026 92.2589 210.062 89.8933Z" fill="#E7BDBD"/>
<rect x="182.123" y="120.705" width="10.5836" height="15.8753" rx="1" transform="rotate(23.653 182.123 120.705)" fill="#523030"/>
<rect x="184.549" y="121.77" width="10.5836" height="15.8753" rx="1" transform="rotate(23.653 184.549 121.77)" fill="#DE8A8A"/>
<path d="M289.355 174.004L282.477 169.717L284.087 167.133C285.07 165.556 286.554 165.313 287.878 166.131C289.19 166.956 289.615 168.402 288.626 169.988L287.797 171.318L290.125 172.769L289.355 174.004ZM286.781 170.685L287.503 169.526C288.079 168.592 287.817 167.848 287.09 167.395C286.354 166.936 285.585 167.037 285.004 167.968L284.282 169.127L286.781 170.685Z" fill="#E9D3D3"/>
<path d="M293.405 167.677C293.15 168.085 292.607 168.215 292.202 167.956C291.8 167.712 291.682 167.171 291.932 166.759C292.183 166.368 292.721 166.235 293.12 166.484C293.528 166.738 293.65 167.283 293.405 167.677Z" fill="#E9D3D3"/>
<path d="M294.548 165.672L287.67 161.385L289.281 158.801C290.264 157.224 291.748 156.981 293.071 157.8C294.384 158.624 294.809 160.07 293.82 161.656L292.991 162.987L295.318 164.437L294.548 165.672ZM291.974 162.353L292.697 161.194C293.272 160.26 293.01 159.516 292.284 159.063C291.547 158.604 290.778 158.705 290.198 159.636L289.476 160.795L291.974 162.353Z" fill="#E9D3D3"/>
<path d="M292.135 154.222L299.014 158.509L298.256 159.725L291.377 155.438L292.135 154.222Z" fill="#E9D3D3"/>
<path d="M301.268 155.126C300.3 156.679 298.669 156.988 297.054 155.982C295.458 154.987 294.979 153.342 295.897 151.87C296.684 150.606 298.159 150.008 299.969 151.136L300.349 151.373L298.104 154.974C298.995 155.503 299.84 155.311 300.324 154.524C300.66 153.995 300.654 153.497 300.443 153.147L301.183 151.96C301.94 152.735 302.014 153.929 301.268 155.126ZM297.28 154.454L298.8 152.017C298.094 151.584 297.284 151.739 296.849 152.437C296.396 153.164 296.652 154.003 297.28 154.454Z" fill="#E9D3D3"/>
</svg>
