<svg width="351" height="265" viewBox="0 0 351 265" fill="none" xmlns="http://www.w3.org/2000/svg">
<rect x="0.888672" y="0.59375" width="350" height="264" fill="#33837E"/>
<circle cx="248.949" cy="138.529" r="59.5367" fill="#523030"/>
<circle cx="254.057" cy="137.087" r="56.8326" fill="#FFFAFA"/>
<circle cx="254.105" cy="137.086" r="37.4664" fill="#FFFAFA"/>
<path d="M254.105 99.6191C233.413 99.6191 216.639 116.393 216.639 137.086C216.639 142.9 217.963 148.406 220.327 153.317C212.977 120.334 248.168 91.21 281.256 111.268C274.431 104.092 264.79 99.6191 254.105 99.6191Z" fill="#E9D3D3"/>
<path fill-rule="evenodd" clip-rule="evenodd" d="M220.858 83.3535C221.301 82.3417 222.48 81.8807 223.492 82.3239L224.669 82.8392C225.681 83.2824 226.142 84.4618 225.698 85.4736L222.661 92.4075C222.44 92.9134 222.67 93.5031 223.176 93.7247L223.765 93.9826C224.271 94.2042 224.861 93.9737 225.082 93.4678L228.119 86.5349C228.562 85.5232 229.741 85.0622 230.753 85.5054L231.93 86.0207C232.941 86.4639 233.402 87.6433 232.959 88.6551L229.923 95.5879C229.701 96.0938 229.932 96.6836 230.438 96.9051L235.866 99.2828C236.372 99.5043 236.602 100.094 236.381 100.6L232.829 108.71C231.499 111.745 227.961 113.128 224.926 111.799L223.156 111.024L212.503 135.347L207.672 133.231L218.325 108.908L216.555 108.132C213.52 106.803 212.137 103.265 213.466 100.229L217.126 91.8748L217.126 91.8748L217.126 91.8748L220.858 83.3535ZM235.38 89.7143C235.823 88.7025 237.002 88.2415 238.014 88.6847L239.191 89.2C240.202 89.6432 240.663 90.8226 240.22 91.8344L237.183 98.7676C236.962 99.2735 236.372 99.504 235.866 99.2824L232.858 97.9647C232.352 97.7431 232.121 97.1534 232.343 96.6475L235.38 89.7143Z" fill="#523030"/>
<path fill-rule="evenodd" clip-rule="evenodd" d="M222.824 84.2174C223.266 83.2045 224.446 82.7425 225.459 83.186L226.635 83.7013C227.646 84.1442 228.108 85.3224 227.666 86.3339L224.635 93.2736C224.414 93.7793 224.644 94.3684 225.15 94.5899L225.73 94.8439C226.236 95.0655 226.825 94.835 227.047 94.3291L230.083 87.3963C230.527 86.3845 231.706 85.9235 232.718 86.3667L233.894 86.882C234.906 87.3252 235.367 88.5046 234.924 89.5164L231.888 96.4492C231.666 96.9551 231.896 97.5449 232.402 97.7664L232.855 97.9649C233.356 98.184 233.939 97.9611 234.166 97.4641L237.329 90.5352C237.783 89.5413 238.95 89.0954 239.951 89.5337L241.127 90.0489C242.15 90.4969 242.608 91.6956 242.144 92.7114L238.632 100.406C238.613 100.447 238.632 100.495 238.673 100.513C238.714 100.531 238.732 100.578 238.714 100.619L234.794 109.571C233.464 112.606 229.926 113.989 226.89 112.66L225.121 111.885L214 137.276L209.169 135.16L220.29 109.769L218.52 108.994C215.485 107.664 214.102 104.126 215.431 101.091L219.382 92.0695C219.383 92.0669 219.387 92.0656 219.389 92.0668C219.392 92.068 219.395 92.0668 219.396 92.0641L222.824 84.2174Z" fill="#FFFAFA"/>
<path d="M231.786 103.261L232.863 100.802C233.085 100.296 233.675 100.065 234.18 100.287L234.769 100.545C235.275 100.766 235.505 101.356 235.284 101.862L234.207 104.321C232.586 108.021 228.48 109.863 224.704 108.745C224.175 108.588 223.945 107.991 224.167 107.486L224.424 106.897C224.646 106.391 225.235 106.172 225.774 106.295C228.198 106.849 230.752 105.623 231.786 103.261Z" fill="#E7BDBD"/>
<rect x="205.506" y="131.574" width="10.5691" height="15.8536" rx="1" transform="rotate(23.653 205.506 131.574)" fill="#523030"/>
<rect x="207.471" y="132.434" width="10.5691" height="15.8536" rx="1" transform="rotate(23.653 207.471 132.434)" fill="#DE8A8A"/>
<path fill-rule="evenodd" clip-rule="evenodd" d="M201.38 72.5144C198.056 74.6451 195.436 77.712 193.852 81.3288L192.863 83.5874C190.93 88.0004 192.437 93.0514 196.212 95.74L184.253 123.043L189.091 125.162L201.049 97.8589C205.585 98.8098 210.319 96.4925 212.252 92.0796L214.456 87.0476C215.248 85.2392 215.487 83.2368 215.143 81.2928L214.437 77.3028C213.442 71.6815 207.048 68.8813 202.242 71.9617L201.38 72.5144Z" fill="#523030"/>
<path fill-rule="evenodd" clip-rule="evenodd" d="M203.802 73.5769C200.477 75.7076 197.858 78.7745 196.274 82.3913L195.285 84.6499C193.352 89.0629 194.859 94.1139 198.633 96.8025L186.675 124.106L191.513 126.225L203.471 98.9214C208.007 99.8723 212.741 97.555 214.674 93.1421L215.663 90.8835C217.247 87.2667 217.725 83.2619 217.037 79.3739L216.859 78.3653C215.864 72.744 209.47 69.9438 204.664 73.0242L203.802 73.5769Z" fill="#FFFAFA"/>
<path d="M210.062 90.4851L211.141 88.0215C211.363 87.5156 211.953 87.2851 212.459 87.5067L213.05 87.7658C213.556 87.9874 213.787 88.5771 213.565 89.083L212.486 91.5466C210.863 95.2526 206.751 97.0965 202.97 95.9763C202.44 95.8194 202.21 95.2228 202.432 94.7169L202.691 94.1252C202.912 93.6194 203.502 93.3996 204.04 93.5228C206.469 94.0783 209.026 92.8507 210.062 90.4851Z" fill="#E7BDBD"/>
<rect x="182.123" y="121.297" width="10.5836" height="15.8753" rx="1" transform="rotate(23.653 182.123 121.297)" fill="#523030"/>
<rect x="184.549" y="122.361" width="10.5836" height="15.8753" rx="1" transform="rotate(23.653 184.549 122.361)" fill="#DE8A8A"/>
<path d="M289.355 174.596L282.477 170.309L284.087 167.724C285.07 166.147 286.554 165.905 287.878 166.723C289.19 167.548 289.615 168.994 288.626 170.58L287.797 171.91L290.125 173.361L289.355 174.596ZM286.781 171.277L287.503 170.117C288.079 169.183 287.817 168.44 287.09 167.987C286.354 167.528 285.585 167.629 285.004 168.56L284.282 169.719L286.781 171.277Z" fill="#E9D3D3"/>
<path d="M293.405 168.269C293.15 168.677 292.607 168.807 292.202 168.548C291.8 168.304 291.682 167.762 291.932 167.351C292.183 166.96 292.721 166.827 293.12 167.075C293.528 167.33 293.65 167.874 293.405 168.269Z" fill="#E9D3D3"/>
<path d="M294.548 166.264L287.67 161.977L289.281 159.393C290.264 157.816 291.748 157.573 293.071 158.391C294.384 159.216 294.809 160.662 293.82 162.248L292.991 163.578L295.318 165.029L294.548 166.264ZM291.974 162.945L292.697 161.786C293.272 160.852 293.01 160.108 292.284 159.655C291.547 159.196 290.778 159.297 290.198 160.228L289.476 161.387L291.974 162.945Z" fill="#E9D3D3"/>
<path d="M292.135 154.813L299.014 159.101L298.256 160.317L291.377 156.029L292.135 154.813Z" fill="#E9D3D3"/>
<path d="M301.268 155.717C300.3 157.271 298.669 157.58 297.054 156.573C295.458 155.578 294.979 153.934 295.897 152.462C296.684 151.198 298.159 150.6 299.969 151.728L300.349 151.965L298.104 155.566C298.995 156.095 299.84 155.903 300.324 155.116C300.66 154.587 300.654 154.088 300.443 153.739L301.183 152.552C301.94 153.327 302.014 154.52 301.268 155.717ZM297.28 155.046L298.8 152.609C298.094 152.175 297.284 152.331 296.849 153.029C296.396 153.756 296.652 154.594 297.28 155.046Z" fill="#E9D3D3"/>
</svg>
