<svg width="351" height="265" viewBox="0 0 351 265" fill="none" xmlns="http://www.w3.org/2000/svg">
<rect x="0.0410156" y="0.285156" width="350" height="264" fill="#DC7D94"/>
<circle cx="248.084" cy="138.222" r="59.5367" fill="#353071"/>
<circle cx="253.192" cy="136.78" r="56.8326" fill="#E7E6F0"/>
<circle cx="253.24" cy="136.779" r="37.4664" fill="#E7E6F0"/>
<path d="M253.24 99.3125C232.548 99.3125 215.773 116.087 215.773 136.779C215.773 142.594 217.098 148.099 219.462 153.01C212.112 120.027 247.303 90.9034 280.391 110.961C273.565 103.785 263.925 99.3125 253.24 99.3125Z" fill="#D5D3E1"/>
<path fill-rule="evenodd" clip-rule="evenodd" d="M219.993 83.0468C220.436 82.035 221.615 81.5741 222.627 82.0172L223.804 82.5326C224.815 82.9757 225.276 84.1552 224.833 85.167L221.796 92.1009C221.575 92.6068 221.805 93.1965 222.311 93.4181L222.9 93.676C223.406 93.8975 223.995 93.667 224.217 93.1612L227.253 86.2283C227.697 85.2165 228.876 84.7556 229.888 85.1987L231.064 85.7141C232.076 86.1572 232.537 87.3367 232.094 88.3484L229.057 95.2813C228.836 95.7872 229.066 96.3769 229.572 96.5985L235.001 98.9761C235.507 99.1977 235.737 99.7874 235.516 100.293L231.964 108.403C230.634 111.438 227.096 112.821 224.06 111.492L222.291 110.717L211.638 135.04L206.807 132.924L217.46 108.601L215.69 107.826C212.655 106.496 211.272 102.958 212.601 99.9226L216.26 91.5682L216.26 91.5682L216.26 91.5681L219.993 83.0468ZM234.514 89.4076C234.957 88.3959 236.137 87.9349 237.149 88.378L238.325 88.8934C239.337 89.3365 239.798 90.516 239.355 91.5278L236.318 98.461C236.097 98.9669 235.507 99.1974 235.001 98.9758L231.992 97.658C231.487 97.4365 231.256 96.8467 231.478 96.3409L234.514 89.4076Z" fill="#353071"/>
<path fill-rule="evenodd" clip-rule="evenodd" d="M221.958 83.9108C222.401 82.8978 223.581 82.4359 224.594 82.8793L225.77 83.3947C226.781 83.8375 227.242 85.0157 226.801 86.0272L223.769 92.9669C223.548 93.4727 223.779 94.0618 224.284 94.2832L224.865 94.5373C225.37 94.7588 225.96 94.5284 226.182 94.0225L229.218 87.0896C229.661 86.0778 230.841 85.6169 231.853 86.06L233.029 86.5754C234.041 87.0185 234.502 88.198 234.059 89.2098L231.022 96.1426C230.801 96.6485 231.031 97.2382 231.537 97.4598L231.99 97.6582C232.491 97.8774 233.074 97.6544 233.301 97.1575L236.464 90.2286C236.917 89.2347 238.085 88.7888 239.086 89.2271L240.262 89.7423C241.285 90.1902 241.742 91.3889 241.279 92.4047L237.767 100.099C237.748 100.14 237.766 100.188 237.808 100.206C237.849 100.224 237.867 100.272 237.849 100.312L233.928 109.264C232.599 112.3 229.061 113.683 226.025 112.353L224.256 111.578L213.135 136.969L208.304 134.853L219.425 109.462L217.655 108.687C214.619 107.358 213.236 103.819 214.566 100.784L218.517 91.7629C218.518 91.7602 218.521 91.759 218.524 91.7602C218.527 91.7613 218.53 91.7601 218.531 91.7575L221.958 83.9108Z" fill="#E7E6F0"/>
<path d="M230.921 102.954L231.998 100.495C232.22 99.9892 232.809 99.7587 233.315 99.9803L233.904 100.238C234.409 100.46 234.64 101.049 234.418 101.555L233.341 104.014C231.721 107.715 227.615 109.556 223.839 108.438C223.31 108.281 223.08 107.685 223.301 107.179L223.559 106.591C223.781 106.085 224.37 105.865 224.909 105.988C227.333 106.542 229.886 105.316 230.921 102.954Z" fill="#ABA9C8"/>
<rect x="204.641" y="131.268" width="10.5691" height="15.8536" rx="1" transform="rotate(23.653 204.641 131.268)" fill="#353071"/>
<rect x="206.605" y="132.127" width="10.5691" height="15.8536" rx="1" transform="rotate(23.653 206.605 132.127)" fill="#8F87F3"/>
<path fill-rule="evenodd" clip-rule="evenodd" d="M200.515 72.2078C197.19 74.3384 194.571 77.4054 192.987 81.0222L191.998 83.2808C190.065 87.6938 191.572 92.7447 195.346 95.4333L183.388 122.737L188.226 124.855L200.184 97.5522C204.72 98.5032 209.454 96.1859 211.387 91.7729L213.591 86.741C214.383 84.9326 214.622 82.9302 214.278 80.9861L213.571 76.9961C212.576 71.3749 206.183 68.5747 201.377 71.6551L200.515 72.2078Z" fill="#353071"/>
<path fill-rule="evenodd" clip-rule="evenodd" d="M202.937 73.2703C199.612 75.4009 196.993 78.4679 195.409 82.0847L194.42 84.3433C192.487 88.7563 193.994 93.8072 197.768 96.4958L185.81 123.799L190.647 125.918L202.606 98.6147C207.141 99.5657 211.876 97.2484 213.809 92.8354L214.798 90.5769C216.382 86.9601 216.86 82.9553 216.172 79.0672L215.993 78.0586C214.998 72.4374 208.605 69.6372 203.799 72.7176L202.937 73.2703Z" fill="#E7E6F0"/>
<path d="M209.197 90.1784L210.276 87.7148C210.498 87.2089 211.087 86.9784 211.593 87.2L212.185 87.4591C212.691 87.6807 212.921 88.2704 212.7 88.7763L211.621 91.2399C209.998 94.9459 205.885 96.7899 202.104 95.6697C201.575 95.5128 201.345 94.9161 201.566 94.4102L201.826 93.8186C202.047 93.3127 202.637 93.093 203.175 93.2161C205.603 93.7717 208.161 92.5441 209.197 90.1784Z" fill="#ABA9C8"/>
<rect x="181.258" y="120.99" width="10.5836" height="15.8753" rx="1" transform="rotate(23.653 181.258 120.99)" fill="#353071"/>
<rect x="183.684" y="122.055" width="10.5836" height="15.8753" rx="1" transform="rotate(23.653 183.684 122.055)" fill="#8F87F3"/>
<path d="M288.49 174.29L281.611 170.002L283.222 167.418C284.205 165.841 285.689 165.598 287.012 166.417C288.325 167.241 288.75 168.687 287.761 170.274L286.932 171.604L289.259 173.054L288.49 174.29ZM285.915 170.97L286.638 169.811C287.213 168.877 286.951 168.133 286.225 167.68C285.488 167.221 284.72 167.322 284.139 168.253L283.417 169.412L285.915 170.97Z" fill="#D5D3E1"/>
<path d="M292.539 167.962C292.285 168.371 291.742 168.501 291.336 168.241C290.934 167.997 290.817 167.456 291.067 167.044C291.317 166.653 291.855 166.52 292.254 166.769C292.663 167.023 292.785 167.568 292.539 167.962Z" fill="#D5D3E1"/>
<path d="M293.683 165.958L286.805 161.67L288.416 159.086C289.399 157.509 290.882 157.266 292.206 158.085C293.519 158.91 293.944 160.355 292.955 161.942L292.126 163.272L294.453 164.723L293.683 165.958ZM291.109 162.638L291.831 161.479C292.407 160.545 292.145 159.801 291.418 159.348C290.682 158.889 289.913 158.99 289.333 159.921L288.61 161.081L291.109 162.638Z" fill="#D5D3E1"/>
<path d="M291.27 154.507L298.148 158.794L297.39 160.01L290.512 155.723L291.27 154.507Z" fill="#D5D3E1"/>
<path d="M300.403 155.411C299.434 156.964 297.804 157.273 296.189 156.267C294.593 155.272 294.114 153.628 295.031 152.155C295.819 150.892 297.293 150.293 299.103 151.422L299.483 151.658L297.239 155.259C298.129 155.788 298.975 155.596 299.459 154.809C299.795 154.28 299.789 153.782 299.578 153.432L300.318 152.245C301.075 153.02 301.149 154.214 300.403 155.411ZM296.415 154.739L297.934 152.302C297.228 151.869 296.419 152.024 295.984 152.722C295.531 153.449 295.786 154.288 296.415 154.739Z" fill="#D5D3E1"/>
</svg>
