<svg width="351" height="265" viewBox="0 0 351 265" fill="none" xmlns="http://www.w3.org/2000/svg">
<rect x="0.0410156" y="0.992188" width="350" height="264" fill="#E09064"/>
<circle cx="248.084" cy="138.929" r="59.5367" fill="#353071"/>
<circle cx="253.192" cy="137.487" r="56.8326" fill="#E7E6F0"/>
<circle cx="253.24" cy="137.486" r="37.4664" fill="#E7E6F0"/>
<path d="M253.24 100.02C232.548 100.02 215.773 116.794 215.773 137.486C215.773 143.301 217.098 148.806 219.462 153.717C212.112 120.734 247.303 91.6104 280.391 111.668C273.565 104.492 263.925 100.02 253.24 100.02Z" fill="#D5D3E1"/>
<path fill-rule="evenodd" clip-rule="evenodd" d="M219.993 83.7539C220.436 82.7421 221.615 82.2811 222.627 82.7243L223.804 83.2396C224.815 83.6828 225.276 84.8622 224.833 85.874L221.796 92.8079C221.575 93.3138 221.805 93.9035 222.311 94.1251L222.9 94.383C223.406 94.6046 223.995 94.3741 224.217 93.8682L227.253 86.9353C227.697 85.9236 228.876 85.4626 229.888 85.9057L231.064 86.4211C232.076 86.8642 232.537 88.0437 232.094 89.0555L229.057 95.9883C228.836 96.4942 229.066 97.0839 229.572 97.3055L235.001 99.6832C235.507 99.9047 235.737 100.494 235.516 101L231.964 109.11C230.634 112.146 227.096 113.528 224.06 112.199L222.291 111.424L211.638 135.747L206.807 133.631L217.46 109.308L215.69 108.533C212.655 107.203 211.272 103.665 212.601 100.63L216.26 92.2752L216.26 92.2752L216.26 92.2752L219.993 83.7539ZM234.514 90.1147C234.957 89.1029 236.137 88.6419 237.149 89.0851L238.325 89.6004C239.337 90.0436 239.798 91.223 239.355 92.2348L236.318 99.168C236.097 99.6739 235.507 99.9044 235.001 99.6828L231.992 98.3651C231.487 98.1435 231.256 97.5538 231.478 97.0479L234.514 90.1147Z" fill="#353071"/>
<path fill-rule="evenodd" clip-rule="evenodd" d="M221.958 84.6178C222.401 83.6049 223.581 83.1429 224.594 83.5864L225.77 84.1017C226.781 84.5446 227.242 85.7228 226.801 86.7343L223.769 93.674C223.548 94.1797 223.779 94.7688 224.284 94.9902L224.865 95.2443C225.37 95.4659 225.96 95.2354 226.182 94.7295L229.218 87.7966C229.661 86.7849 230.841 86.3239 231.853 86.7671L233.029 87.2824C234.041 87.7256 234.502 88.905 234.059 89.9168L231.022 96.8496C230.801 97.3555 231.031 97.9452 231.537 98.1668L231.99 98.3652C232.491 98.5844 233.074 98.3615 233.301 97.8645L236.464 90.9356C236.917 89.9417 238.085 89.4958 239.086 89.9341L240.262 90.4493C241.285 90.8973 241.742 92.096 241.279 93.1118L237.767 100.806C237.748 100.847 237.766 100.895 237.808 100.913C237.849 100.931 237.867 100.979 237.849 101.02L233.928 109.972C232.599 113.007 229.061 114.39 226.025 113.06L224.256 112.285L213.135 137.676L208.304 135.56L219.425 110.169L217.655 109.394C214.619 108.065 213.236 104.526 214.566 101.491L218.517 92.4699C218.518 92.4672 218.521 92.466 218.524 92.4672C218.527 92.4684 218.53 92.4672 218.531 92.4645L221.958 84.6178Z" fill="#E7E6F0"/>
<path d="M230.921 103.661L231.998 101.202C232.22 100.696 232.809 100.466 233.315 100.687L233.904 100.945C234.409 101.167 234.64 101.756 234.418 102.262L233.341 104.721C231.721 108.422 227.615 110.263 223.839 109.145C223.31 108.988 223.08 108.392 223.301 107.886L223.559 107.298C223.781 106.792 224.37 106.572 224.909 106.695C227.333 107.249 229.886 106.023 230.921 103.661Z" fill="#ABA9C8"/>
<rect x="204.641" y="131.975" width="10.5691" height="15.8536" rx="1" transform="rotate(23.653 204.641 131.975)" fill="#353071"/>
<rect x="206.605" y="132.834" width="10.5691" height="15.8536" rx="1" transform="rotate(23.653 206.605 132.834)" fill="#8F87F3"/>
<path fill-rule="evenodd" clip-rule="evenodd" d="M200.515 72.9148C197.19 75.0455 194.571 78.1124 192.987 81.7292L191.998 83.9878C190.065 88.4008 191.572 93.4517 195.346 96.1404L183.388 123.444L188.226 125.562L200.184 98.2592C204.72 99.2102 209.454 96.8929 211.387 92.48L213.591 87.448C214.383 85.6396 214.622 83.6372 214.278 81.6932L213.571 77.7032C212.576 72.0819 206.183 69.2817 201.377 72.3621L200.515 72.9148Z" fill="#353071"/>
<path fill-rule="evenodd" clip-rule="evenodd" d="M202.937 73.9773C199.612 76.108 196.993 79.1749 195.409 82.7917L194.42 85.0503C192.487 89.4633 193.994 94.5142 197.768 97.2029L185.81 124.506L190.647 126.625L202.606 99.3217C207.141 100.273 211.876 97.9554 213.809 93.5425L214.798 91.2839C216.382 87.6671 216.86 83.6623 216.172 79.7743L215.993 78.7657C214.998 73.1444 208.605 70.3442 203.799 73.4246L202.937 73.9773Z" fill="#E7E6F0"/>
<path d="M209.197 90.8855L210.276 88.4218C210.498 87.916 211.087 87.6855 211.593 87.9071L212.185 88.1662C212.691 88.3878 212.921 88.9775 212.7 89.4834L211.621 91.947C209.998 95.6529 205.885 97.4969 202.104 96.3767C201.575 96.2198 201.345 95.6232 201.566 95.1173L201.826 94.5256C202.047 94.0197 202.637 93.8 203.175 93.9232C205.603 94.4787 208.161 93.2511 209.197 90.8855Z" fill="#ABA9C8"/>
<rect x="181.258" y="121.697" width="10.5836" height="15.8753" rx="1" transform="rotate(23.653 181.258 121.697)" fill="#353071"/>
<rect x="183.684" y="122.762" width="10.5836" height="15.8753" rx="1" transform="rotate(23.653 183.684 122.762)" fill="#8F87F3"/>
<path d="M288.49 174.997L281.611 170.709L283.222 168.125C284.205 166.548 285.689 166.305 287.012 167.124C288.325 167.949 288.75 169.394 287.761 170.981L286.932 172.311L289.259 173.761L288.49 174.997ZM285.915 171.677L286.638 170.518C287.213 169.584 286.951 168.84 286.225 168.387C285.488 167.928 284.72 168.029 284.139 168.96L283.417 170.119L285.915 171.677Z" fill="#D5D3E1"/>
<path d="M292.539 168.669C292.285 169.078 291.742 169.208 291.336 168.948C290.934 168.704 290.817 168.163 291.067 167.751C291.317 167.36 291.855 167.227 292.254 167.476C292.663 167.73 292.785 168.275 292.539 168.669Z" fill="#D5D3E1"/>
<path d="M293.683 166.665L286.805 162.377L288.416 159.793C289.399 158.216 290.882 157.973 292.206 158.792C293.519 159.617 293.944 161.062 292.955 162.649L292.126 163.979L294.453 165.43L293.683 166.665ZM291.109 163.345L291.831 162.186C292.407 161.252 292.145 160.508 291.418 160.055C290.682 159.596 289.913 159.697 289.333 160.629L288.61 161.788L291.109 163.345Z" fill="#D5D3E1"/>
<path d="M291.27 155.214L298.148 159.501L297.39 160.717L290.512 156.43L291.27 155.214Z" fill="#D5D3E1"/>
<path d="M300.403 156.118C299.434 157.671 297.804 157.98 296.189 156.974C294.593 155.979 294.114 154.335 295.031 152.862C295.819 151.599 297.293 151 299.103 152.129L299.483 152.366L297.239 155.966C298.129 156.495 298.975 156.303 299.459 155.516C299.795 154.987 299.789 154.489 299.578 154.139L300.318 152.952C301.075 153.727 301.149 154.921 300.403 156.118ZM296.415 155.446L297.934 153.009C297.228 152.576 296.419 152.731 295.984 153.429C295.531 154.156 295.786 154.995 296.415 155.446Z" fill="#D5D3E1"/>
</svg>
