<svg width="259" height="253" viewBox="0 0 259 253" fill="none" xmlns="http://www.w3.org/2000/svg">
<rect x="0.648438" y="0.453125" width="258" height="252" fill="#E7AD8D"/>
<mask id="mask0_500_11748" style="mask-type:alpha" maskUnits="userSpaceOnUse" x="0" y="0" width="259" height="253">
<rect x="0.648438" y="0.453125" width="258" height="252" fill="#D6895E"/>
</mask>
<g mask="url(#mask0_500_11748)">
<circle cx="187.648" cy="134.763" r="84.1619" fill="#3A2313"/>
<circle cx="194.869" cy="132.724" r="80.3394" fill="#E7E6F0"/>
<circle cx="194.938" cy="132.723" r="52.9631" fill="#E7E6F0"/>
<path d="M194.938 79.7598C165.687 79.7598 141.975 103.472 141.975 132.723C141.975 140.943 143.847 148.725 147.189 155.667C136.799 109.042 186.545 67.8725 233.318 96.2261C223.67 86.0827 210.042 79.7598 194.938 79.7598Z" fill="#D5D3E1"/>
<path fill-rule="evenodd" clip-rule="evenodd" d="M147.574 57.5991C148.401 55.7095 150.604 54.8486 152.494 55.6763C154.383 56.5039 155.244 58.7066 154.416 60.5962L150.322 69.9448C150.1 70.4507 150.331 71.0404 150.837 71.262L152.427 71.9584C152.932 72.1799 153.522 71.9494 153.744 71.4436L157.838 62.0967C158.665 60.2071 160.868 59.3463 162.758 60.1739C164.647 61.0015 165.508 63.2042 164.68 65.0938L160.587 74.4406C160.365 74.9465 160.595 75.5362 161.101 75.7578L162.69 76.4537C163.196 76.6753 163.786 76.4448 164.007 75.9389L168.102 66.5916C168.929 64.702 171.132 63.8411 173.021 64.6687C174.911 65.4963 175.772 67.6991 174.944 69.5886L170.449 79.8519L170.449 79.852L170.449 79.8522L167.452 86.6948C164.658 93.0743 157.945 96.5224 151.375 95.4523L136.127 130.265L129.298 127.273L144.546 92.4608C139.304 88.3571 137.287 81.0857 140.081 74.7066L142.662 68.8136L142.662 68.8134L142.662 68.8132L147.574 57.5991Z" fill="#3A2313"/>
<path fill-rule="evenodd" clip-rule="evenodd" d="M170.848 67.7292C171.695 65.8731 173.875 65.0405 175.744 65.859C177.654 66.6955 178.509 68.9339 177.643 70.8308L173.061 80.8692C173.035 80.9272 173.061 80.9958 173.119 81.0214C173.177 81.0467 173.204 81.1142 173.178 81.172L170.227 87.91C167.433 94.2892 160.721 97.7374 154.15 96.6676L138.241 132.991L131.412 129.999L147.321 93.6764C142.079 89.5728 140.062 82.3011 142.856 75.9218L145.85 69.0857C145.852 69.082 145.856 69.0803 145.86 69.082C145.863 69.0836 145.868 69.0819 145.869 69.0782L150.351 58.8192C151.177 56.9275 153.381 56.0648 155.272 56.893C157.16 57.72 158.021 59.9204 157.196 61.8094L153.109 71.1665C152.888 71.6722 153.119 72.2613 153.624 72.4828L155.201 73.1736C155.707 73.3951 156.297 73.1646 156.519 72.6588L160.613 63.3119C161.44 61.4223 163.643 60.5615 165.532 61.3891C167.422 62.2167 168.283 64.4194 167.455 66.309L163.361 75.6558C163.14 76.1617 163.37 76.7514 163.876 76.973L165.268 77.5827C165.769 77.8018 166.352 77.5789 166.579 77.0819L170.848 67.7292Z" fill="#E7E6F0"/>
<path d="M163.384 84.9086L164.724 81.8484C165.138 80.9036 166.239 80.4731 167.184 80.887C168.129 81.3008 168.56 82.4021 168.146 83.3469L166.805 86.4071C164.577 91.4955 159.024 94.0973 153.811 92.7811C152.811 92.5286 152.381 91.4098 152.795 90.465C153.209 89.5202 154.312 89.1169 155.33 89.2848C158.62 89.8277 161.985 88.1033 163.384 84.9086Z" fill="#ABA9C8"/>
<rect x="126.234" y="124.934" width="14.9406" height="22.4109" rx="4" transform="rotate(23.653 126.234 124.934)" fill="#3A2313"/>
<rect x="129.014" y="126.148" width="14.9406" height="22.4109" rx="4" transform="rotate(23.653 129.014 126.148)" fill="#8F87F3"/>
<path fill-rule="evenodd" clip-rule="evenodd" d="M121.353 40.8362C116.034 44.2456 111.843 49.1532 109.308 54.9406L108.67 56.3972C105.885 62.7565 107.931 70.0218 113.165 74.1214L96.1925 112.873L103.031 115.868L120.004 77.1164C126.566 78.1829 133.293 74.7609 136.078 68.4018L136.716 66.9453C139.251 61.1579 140.016 54.7496 138.915 48.5281C137.482 40.4327 128.275 36.4 121.353 40.8362Z" fill="#3A2313"/>
<path fill-rule="evenodd" clip-rule="evenodd" d="M124.779 42.3382C119.46 45.7475 115.269 50.6552 112.734 56.4426L112.096 57.8991C109.31 64.2585 111.357 71.5238 116.591 75.6233L99.6183 114.375L106.457 117.37L123.43 78.6184C129.992 79.6849 136.719 76.2629 139.504 69.9038L140.142 68.4472C142.677 62.6598 143.442 56.2516 142.341 50.03C140.908 41.9346 131.701 37.9019 124.779 42.3382Z" fill="#E7E6F0"/>
<path d="M132.676 66.8489L134.018 63.7845C134.432 62.8384 135.535 62.4074 136.481 62.8218C137.427 63.2361 137.858 64.339 137.444 65.2851L136.102 68.3495C133.87 73.4448 128.31 76.0502 123.089 74.7322C122.088 74.4793 121.658 73.359 122.072 72.4129C122.486 71.4668 123.592 71.063 124.611 71.2311C127.905 71.7748 131.274 70.048 132.676 66.8489Z" fill="#ABA9C8"/>
<rect x="93.1816" y="110.406" width="14.9611" height="22.4416" rx="4" transform="rotate(23.653 93.1816 110.406)" fill="#3A2313"/>
<path d="M95.0046 115.574C95.8909 113.551 98.2498 112.629 100.273 113.515L106.65 116.308C108.673 117.194 109.595 119.553 108.709 121.576L102.915 134.805C102.029 136.828 99.6697 137.75 97.6461 136.864L91.2699 134.071C89.2463 133.185 88.3244 130.826 89.2107 128.803L95.0046 115.574Z" fill="#8F87F3"/>
<path d="M244.766 185.75L235.043 179.689L237.32 176.037C238.71 173.807 240.807 173.464 242.678 174.621C244.534 175.787 245.134 177.831 243.736 180.073L242.564 181.954L245.855 184.005L244.766 185.75ZM241.127 181.058L242.149 179.419C242.962 178.099 242.592 177.048 241.565 176.407C240.524 175.758 239.437 175.901 238.616 177.218L237.595 178.856L241.127 181.058Z" fill="#D5D3E1"/>
<path d="M250.491 176.806C250.131 177.383 249.364 177.567 248.79 177.2C248.222 176.856 248.056 176.09 248.409 175.508C248.763 174.955 249.524 174.767 250.088 175.119C250.665 175.479 250.838 176.249 250.491 176.806Z" fill="#D5D3E1"/>
<path d="M252.108 173.972L242.385 167.911L244.662 164.258C246.051 162.029 248.149 161.686 250.02 162.843C251.876 164.009 252.476 166.052 251.078 168.295L249.906 170.175L253.196 172.226L252.108 173.972ZM248.469 169.28L249.49 167.641C250.304 166.321 249.934 165.27 248.906 164.629C247.865 163.98 246.779 164.123 245.958 165.44L244.937 167.078L248.469 169.28Z" fill="#D5D3E1"/>
<path d="M248.697 157.785L258.42 163.846L257.349 165.565L247.625 159.504L248.697 157.785Z" fill="#D5D3E1"/>
<path d="M261.607 159.063C260.238 161.259 257.933 161.696 255.65 160.273C253.393 158.867 252.716 156.542 254.014 154.461C255.127 152.675 257.211 151.829 259.77 153.424L260.307 153.759L257.134 158.849C258.393 159.596 259.588 159.325 260.272 158.213C260.748 157.465 260.739 156.76 260.441 156.267L261.487 154.588C262.557 155.684 262.662 157.371 261.607 159.063ZM255.97 158.114L258.117 154.669C257.119 154.056 255.976 154.276 255.36 155.263C254.72 156.29 255.081 157.476 255.97 158.114Z" fill="#D5D3E1"/>
<path d="M182.316 242.453V222.656H190.082C194.58 222.656 197.164 225.432 197.164 229.328C197.164 233.279 194.539 236 189.973 236H186.418V242.453H182.316ZM186.418 232.691H189.316C191.75 232.691 192.939 231.324 192.926 229.328C192.939 227.359 191.75 226.033 189.316 226.02H186.418V232.691ZM201.129 242.699C199.844 242.699 198.805 241.674 198.832 240.402C198.805 239.145 199.844 238.119 201.129 238.133C202.346 238.119 203.398 239.145 203.398 240.402C203.398 241.674 202.346 242.699 201.129 242.699ZM206.734 242.453V222.656H214.5C218.998 222.656 221.582 225.432 221.582 229.328C221.582 233.279 218.957 236 214.391 236H210.836V242.453H206.734ZM210.836 232.691H213.734C216.168 232.691 217.357 231.324 217.344 229.328C217.357 227.359 216.168 226.033 213.734 226.02H210.836V232.691ZM228.145 222.656V242.453H224.098V222.656H228.145ZM238.016 242.754C233.463 242.74 230.674 239.801 230.688 235.098C230.674 230.518 233.504 227.414 237.852 227.414C241.748 227.414 244.824 229.875 244.824 234.934V236.082H234.68C234.68 238.324 236.006 239.705 238.098 239.719C239.479 239.705 240.463 239.104 240.859 238.215H244.715C244.141 240.963 241.68 242.74 238.016 242.754ZM234.68 233.539H240.996C240.982 231.734 239.738 230.436 237.934 230.449C236.074 230.436 234.762 231.83 234.68 233.539Z" fill="black"/>
</g>
</svg>
