<svg width="259" height="253" viewBox="0 0 259 253" fill="none" xmlns="http://www.w3.org/2000/svg">
<rect x="0.648438" y="0.710938" width="258" height="252" fill="#87B499"/>
<mask id="mask0_500_12838" style="mask-type:alpha" maskUnits="userSpaceOnUse" x="0" y="0" width="259" height="253">
<rect x="0.648438" y="0.710938" width="258" height="252" fill="#D6895E"/>
</mask>
<g mask="url(#mask0_500_12838)">
<circle cx="187.073" cy="129.345" r="87.0244" fill="#0E3519"/>
<circle cx="194.541" cy="127.236" r="83.0719" fill="#FFFBF8"/>
<circle cx="194.612" cy="127.235" r="54.7645" fill="#FFFBF8"/>
<path d="M194.612 72.4707C164.367 72.4707 139.848 96.9896 139.848 127.235C139.848 135.735 141.784 143.782 145.239 150.96C134.496 102.749 185.934 60.1791 234.298 89.4971C224.322 79.0087 210.23 72.4707 194.612 72.4707Z" fill="#EBE3DE"/>
<path fill-rule="evenodd" clip-rule="evenodd" d="M238.66 150.62C237.974 145.872 238.733 140.665 241.682 136.881C247.242 129.746 250.572 120.66 250.572 110.766C250.572 87.8278 232.671 69.2324 210.589 69.2324C188.507 69.2324 170.605 87.8278 170.605 110.766C170.605 124.35 176.882 136.41 186.588 143.988C189.52 146.277 190.988 150.061 190.988 153.781V153.781C190.988 166.419 201.711 176.663 214.938 176.663C228.165 176.663 238.887 166.419 238.887 153.781C238.887 152.709 238.81 151.653 238.66 150.62Z" fill="#ECDACD"/>
<path fill-rule="evenodd" clip-rule="evenodd" d="M236.506 149.287C235.819 144.538 236.578 139.331 239.528 135.547C245.087 128.412 248.418 119.326 248.418 109.432C248.418 86.4938 230.517 67.8984 208.434 67.8984C186.352 67.8984 168.451 86.4938 168.451 109.432C168.451 123.015 174.728 135.075 184.432 142.653C187.365 144.943 188.834 148.729 188.834 152.449V152.449C188.834 165.087 199.556 175.331 212.783 175.331C226.01 175.331 236.733 165.087 236.733 152.449C236.733 151.377 236.656 150.321 236.506 149.287Z" fill="#FFF2E9"/>
<circle cx="208.432" cy="101.563" r="18.1801" fill="#FFA462"/>
<path d="M208.434 119.742C218.474 119.742 226.614 111.603 226.614 101.562C226.614 98.4767 225.845 95.5708 224.489 93.0254C226.585 101.545 225.268 118.664 203.227 118.986C204.876 119.478 206.624 119.742 208.434 119.742Z" fill="#C47740"/>
<path d="M208.624 88.649C201.377 89.5102 196.4 94.419 195.39 102.054C195.296 102.766 194.628 103.275 193.926 103.128C193.38 103.013 192.984 102.529 193.015 101.972C193.489 93.5464 200.166 86.7788 208.552 86.1629C209.24 86.1124 209.801 86.6764 209.801 87.3662C209.801 88.0284 209.282 88.5708 208.624 88.649Z" fill="#FFD0AE" fill-opacity="0.94"/>
<path d="M196.03 76.0075C188.719 78.5165 180.83 86.6953 178.452 94.2151C178.202 95.0064 177.346 95.471 176.571 95.1738C175.932 94.9288 175.573 94.2443 175.772 93.5898C178.557 84.4403 186.837 76.7264 195.418 73.7084C195.862 73.5522 196.353 73.7019 196.649 74.0687C197.181 74.7296 196.832 75.7321 196.03 76.0075Z" fill="#FFFBF9"/>
<path d="M182.316 242.711V222.914H190.082C194.58 222.914 197.164 225.689 197.164 229.586C197.164 233.537 194.539 236.258 189.973 236.258H186.418V242.711H182.316ZM186.418 232.949H189.316C191.75 232.949 192.939 231.582 192.926 229.586C192.939 227.617 191.75 226.291 189.316 226.277H186.418V232.949ZM201.129 242.957C199.844 242.957 198.805 241.932 198.832 240.66C198.805 239.402 199.844 238.377 201.129 238.391C202.346 238.377 203.398 239.402 203.398 240.66C203.398 241.932 202.346 242.957 201.129 242.957ZM206.734 242.711V222.914H214.5C218.998 222.914 221.582 225.689 221.582 229.586C221.582 233.537 218.957 236.258 214.391 236.258H210.836V242.711H206.734ZM210.836 232.949H213.734C216.168 232.949 217.357 231.582 217.344 229.586C217.357 227.617 216.168 226.291 213.734 226.277H210.836V232.949ZM228.145 222.914V242.711H224.098V222.914H228.145ZM238.016 243.012C233.463 242.998 230.674 240.059 230.688 235.355C230.674 230.775 233.504 227.672 237.852 227.672C241.748 227.672 244.824 230.133 244.824 235.191V236.34H234.68C234.68 238.582 236.006 239.963 238.098 239.977C239.479 239.963 240.463 239.361 240.859 238.473H244.715C244.141 241.221 241.68 242.998 238.016 243.012ZM234.68 233.797H240.996C240.982 231.992 239.738 230.693 237.934 230.707C236.074 230.693 234.762 232.088 234.68 233.797Z" fill="black"/>
</g>
</svg>
