<svg width="259" height="253" viewBox="0 0 259 253" fill="none" xmlns="http://www.w3.org/2000/svg">
<rect x="0.182617" y="0.89624" width="258" height="252" fill="#D9894F"/>
<mask id="mask0_3224_14287" style="mask-type:alpha" maskUnits="userSpaceOnUse" x="0" y="0" width="259" height="253">
<rect x="0.182617" y="0.89624" width="258" height="252" fill="#D6895E"/>
</mask>
<g mask="url(#mask0_3224_14287)">
<circle cx="187.182" cy="135.207" r="84.1619" fill="#3A2313"/>
<circle cx="194.402" cy="133.168" r="80.3394" fill="#E7E6F0"/>
<circle cx="194.472" cy="133.167" r="52.9631" fill="#E7E6F0"/>
<path d="M194.472 80.2036C165.222 80.2036 141.509 103.916 141.509 133.167C141.509 141.387 143.382 149.169 146.724 156.111C136.333 109.486 186.08 68.3163 232.853 96.6699C223.205 86.5265 209.577 80.2036 194.472 80.2036Z" fill="#D5D3E1"/>
<path fill-rule="evenodd" clip-rule="evenodd" d="M147.107 58.0439C147.935 56.1544 150.137 55.2935 152.027 56.1211C153.917 56.9487 154.777 59.1514 153.95 61.041L149.855 70.3896C149.634 70.8955 149.864 71.4852 150.37 71.7068L151.96 72.4032C152.466 72.6248 153.056 72.3943 153.277 71.8884L157.371 62.5415C158.199 60.652 160.401 59.7911 162.291 60.6187C164.18 61.4463 165.041 63.649 164.214 65.5386L160.12 74.8854C159.898 75.3913 160.129 75.9811 160.635 76.2026L162.224 76.8986C162.729 77.1201 163.319 76.8897 163.541 76.3838L167.635 67.0364C168.462 65.1468 170.665 64.2859 172.555 65.1136C174.444 65.9412 175.305 68.1439 174.478 70.0335L169.982 80.2967L169.982 80.2969L169.982 80.297L166.985 87.1396C164.191 93.5191 157.479 96.9672 150.908 95.8971L135.661 130.709L128.831 127.718L144.079 92.9056C138.837 88.8019 136.82 81.5305 139.614 75.1514L142.196 69.2584L142.195 69.2582L142.195 69.258L147.107 58.0439Z" fill="#3A2313"/>
<path fill-rule="evenodd" clip-rule="evenodd" d="M170.382 68.174C171.23 66.318 173.409 65.4853 175.278 66.3038C177.188 67.1403 178.043 69.3787 177.177 71.2756L172.595 81.314C172.569 81.3721 172.595 81.4406 172.654 81.4662C172.711 81.4916 172.738 81.559 172.712 81.6168L169.761 88.3548C166.967 94.7341 160.255 98.1822 153.685 97.1124L137.775 133.435L130.946 130.444L146.855 94.1213C141.613 90.0176 139.596 82.7459 142.39 76.3666L145.384 69.5305C145.386 69.5269 145.39 69.5252 145.394 69.5268C145.398 69.5284 145.402 69.5267 145.404 69.523L149.885 59.264C150.711 57.3723 152.915 56.5096 154.806 57.3378C156.694 58.1648 157.556 60.3652 156.73 62.2543L152.643 71.6113C152.422 72.1171 152.653 72.7062 153.158 72.9276L154.736 73.6184C155.242 73.8399 155.831 73.6095 156.053 73.1036L160.147 63.7567C160.974 61.8672 163.177 61.0063 165.067 61.8339C166.956 62.6615 167.817 64.8642 166.989 66.7538L162.896 76.1006C162.674 76.6065 162.905 77.1963 163.41 77.4178L164.802 78.0275C165.303 78.2467 165.886 78.0237 166.113 77.5267L170.382 68.174Z" fill="#E7E6F0"/>
<path d="M162.918 85.3527L164.258 82.2925C164.672 81.3477 165.773 80.9172 166.718 81.331C167.663 81.7448 168.093 82.8462 167.68 83.791L166.339 86.8512C164.111 91.9396 158.558 94.5414 153.345 93.2252C152.345 92.9727 151.915 91.8539 152.329 90.9091C152.743 89.9643 153.846 89.561 154.864 89.7289C158.154 90.2718 161.519 88.5474 162.918 85.3527Z" fill="#ABA9C8"/>
<rect x="125.769" y="125.377" width="14.9406" height="22.4109" rx="4" transform="rotate(23.653 125.769 125.377)" fill="#3A2313"/>
<rect x="128.547" y="126.592" width="14.9406" height="22.4109" rx="4" transform="rotate(23.653 128.547 126.592)" fill="#8F87F3"/>
<path fill-rule="evenodd" clip-rule="evenodd" d="M120.886 41.2793C115.567 44.6887 111.376 49.5963 108.841 55.3838L108.203 56.8403C105.418 63.1997 107.464 70.4649 112.698 74.5645L95.7255 113.316L102.564 116.311L119.537 77.5596C126.099 78.6261 132.826 75.204 135.611 68.845L136.249 67.3884C138.784 61.601 139.549 55.1927 138.448 48.9712C137.015 40.8758 127.808 36.8431 120.886 41.2793Z" fill="#3A2313"/>
<path fill-rule="evenodd" clip-rule="evenodd" d="M124.312 42.7813C118.992 46.1907 114.801 51.0983 112.266 56.8857L111.628 58.3422C108.843 64.7016 110.89 71.9669 116.123 76.0664L99.1507 114.818L105.989 117.813L122.962 79.0615C129.524 80.128 136.251 76.706 139.037 70.3469L139.674 68.8904C142.209 63.1029 142.974 56.6947 141.873 50.4732C140.44 42.3778 131.233 38.3451 124.312 42.7813Z" fill="#E7E6F0"/>
<path d="M132.208 67.2925L133.55 64.2281C133.965 63.282 135.068 62.851 136.014 63.2654C136.96 63.6797 137.391 64.7826 136.976 65.7287L135.634 68.7931C133.402 73.8884 127.842 76.4939 122.622 75.1758C121.62 74.9229 121.19 73.8026 121.605 72.8565C122.019 71.9104 123.124 71.5066 124.143 71.6747C127.438 72.2184 130.807 70.4916 132.208 67.2925Z" fill="#ABA9C8"/>
<rect x="92.7141" y="110.849" width="14.9611" height="22.4416" rx="4" transform="rotate(23.653 92.7141 110.849)" fill="#3A2313"/>
<path d="M94.5371 116.017C95.4234 113.994 97.7823 113.072 99.8058 113.958L106.182 116.751C108.206 117.637 109.128 119.996 108.241 122.02L102.447 135.248C101.561 137.272 99.2022 138.193 97.1786 137.307L90.8023 134.514C88.7788 133.628 87.8568 131.269 88.7431 129.246L94.5371 116.017Z" fill="#8F87F3"/>
<path d="M244.299 186.193L234.575 180.132L236.852 176.479C238.242 174.25 240.339 173.907 242.21 175.064C244.066 176.23 244.667 178.273 243.269 180.516L242.097 182.396L245.387 184.447L244.299 186.193ZM240.66 181.501L241.681 179.862C242.495 178.542 242.124 177.491 241.097 176.85C240.056 176.201 238.969 176.344 238.149 177.66L237.128 179.299L240.66 181.501Z" fill="#D5D3E1"/>
<path d="M250.023 177.249C249.663 177.826 248.896 178.01 248.323 177.643C247.755 177.298 247.589 176.533 247.942 175.951C248.296 175.398 249.056 175.21 249.62 175.562C250.198 175.922 250.371 176.691 250.023 177.249Z" fill="#D5D3E1"/>
<path d="M251.64 174.415L241.917 168.354L244.194 164.701C245.584 162.472 247.681 162.129 249.552 163.286C251.408 164.452 252.008 166.495 250.61 168.738L249.438 170.618L252.729 172.669L251.64 174.415ZM248.001 169.723L249.023 168.084C249.836 166.764 249.466 165.712 248.439 165.072C247.398 164.423 246.311 164.566 245.491 165.882L244.469 167.521L248.001 169.723Z" fill="#D5D3E1"/>
<path d="M248.229 158.228L257.953 164.289L256.881 166.008L247.158 159.947L248.229 158.228Z" fill="#D5D3E1"/>
<path d="M261.139 159.506C259.77 161.702 257.465 162.139 255.182 160.716C252.926 159.31 252.249 156.985 253.546 154.904C254.66 153.118 256.744 152.272 259.302 153.867L259.84 154.202L256.667 159.292C257.926 160.039 259.121 159.768 259.805 158.656C260.28 157.908 260.272 157.203 259.973 156.709L261.02 155.031C262.09 156.127 262.194 157.814 261.139 159.506ZM255.502 158.557L257.65 155.112C256.652 154.499 255.508 154.719 254.893 155.706C254.252 156.733 254.614 157.919 255.502 158.557Z" fill="#D5D3E1"/>
<path d="M181.851 242.896V223.099H189.616C194.114 223.099 196.698 225.875 196.698 229.771C196.698 233.722 194.073 236.443 189.507 236.443H185.952V242.896H181.851ZM185.952 233.135H188.851C191.284 233.135 192.474 231.767 192.46 229.771C192.474 227.802 191.284 226.476 188.851 226.463H185.952V233.135ZM200.663 243.142C199.378 243.142 198.339 242.117 198.366 240.845C198.339 239.588 199.378 238.562 200.663 238.576C201.88 238.562 202.933 239.588 202.933 240.845C202.933 242.117 201.88 243.142 200.663 243.142ZM206.269 242.896V223.099H214.034C218.532 223.099 221.116 225.875 221.116 229.771C221.116 233.722 218.491 236.443 213.925 236.443H210.37V242.896H206.269ZM210.37 233.135H213.269C215.702 233.135 216.892 231.767 216.878 229.771C216.892 227.802 215.702 226.476 213.269 226.463H210.37V233.135ZM227.679 223.099V242.896H223.632V223.099H227.679ZM237.55 243.197C232.997 243.183 230.208 240.244 230.222 235.541C230.208 230.961 233.038 227.857 237.386 227.857C241.282 227.857 244.358 230.318 244.358 235.377V236.525H234.214C234.214 238.767 235.54 240.148 237.632 240.162C239.013 240.148 239.997 239.547 240.394 238.658H244.249C243.675 241.406 241.214 243.183 237.55 243.197ZM234.214 233.982H240.53C240.517 232.177 239.272 230.879 237.468 230.892C235.608 230.879 234.296 232.273 234.214 233.982Z" fill="black"/>
</g>
</svg>
