<svg width="259" height="253" viewBox="0 0 259 253" fill="none" xmlns="http://www.w3.org/2000/svg">
<rect x="0.648438" y="0.0527344" width="258" height="252" fill="#D38D8D"/>
<mask id="mask0_502_15525" style="mask-type:alpha" maskUnits="userSpaceOnUse" x="0" y="0" width="259" height="253">
<rect x="0.648438" y="0.0527344" width="258" height="252" fill="#D38D8D"/>
</mask>
<g mask="url(#mask0_502_15525)">
<circle cx="187.648" cy="134.363" r="84.1619" fill="#713044"/>
<circle cx="194.869" cy="132.324" r="80.3394" fill="#E7E6F0"/>
<circle cx="194.938" cy="132.322" r="52.9631" fill="#E7E6F0"/>
<path d="M194.938 79.3594C165.687 79.3594 141.975 103.072 141.975 132.322C141.975 140.542 143.847 148.325 147.189 155.267C136.799 108.642 186.545 67.4721 233.318 95.8257C223.67 85.6823 210.042 79.3594 194.938 79.3594Z" fill="#D5D3E1"/>
<path fill-rule="evenodd" clip-rule="evenodd" d="M147.574 57.1987C148.401 55.3091 150.604 54.4483 152.494 55.2759C154.383 56.1035 155.244 58.3062 154.416 60.1958L150.322 69.5444C150.1 70.0503 150.331 70.64 150.837 70.8616L152.427 71.558C152.932 71.7795 153.522 71.5491 153.744 71.0432L157.838 61.6963C158.665 59.8068 160.868 58.9459 162.758 59.7735C164.647 60.6011 165.508 62.8038 164.68 64.6934L160.587 74.0402C160.365 74.5461 160.595 75.1358 161.101 75.3574L162.69 76.0534C163.196 76.2749 163.786 76.0444 164.007 75.5386L168.102 66.1912C168.929 64.3016 171.132 63.4407 173.021 64.2683C174.911 65.096 175.772 67.2987 174.944 69.1882L170.449 79.4515L170.449 79.4516L170.449 79.4518L167.452 86.2944C164.658 92.6739 157.945 96.122 151.375 95.0519L136.127 129.864L129.298 126.873L144.546 92.0604C139.304 87.9567 137.287 80.6853 140.081 74.3062L142.662 68.4132L142.662 68.413L142.662 68.4128L147.574 57.1987Z" fill="#353071"/>
<path fill-rule="evenodd" clip-rule="evenodd" d="M170.848 67.3288C171.695 65.4728 173.875 64.6401 175.744 65.4586C177.654 66.2951 178.509 68.5335 177.643 70.4304L173.061 80.4688C173.035 80.5269 173.061 80.5954 173.119 80.621C173.177 80.6463 173.204 80.7138 173.178 80.7716L170.227 87.5096C167.433 93.8889 160.721 97.337 154.15 96.2672L138.241 132.59L131.412 129.599L147.321 93.2761C142.079 89.1724 140.062 81.9007 142.856 75.5214L145.85 68.6853C145.852 68.6816 145.856 68.68 145.86 68.6816C145.863 68.6832 145.868 68.6815 145.869 68.6778L150.351 58.4188C151.177 56.5271 153.381 55.6644 155.272 56.4926C157.16 57.3196 158.021 59.52 157.196 61.4091L153.109 70.7661C152.888 71.2718 153.119 71.8609 153.624 72.0824L155.201 72.7732C155.707 72.9947 156.297 72.7643 156.519 72.2584L160.613 62.9115C161.44 61.022 163.643 60.1611 165.532 60.9887C167.422 61.8163 168.283 64.019 167.455 65.9086L163.361 75.2554C163.14 75.7613 163.37 76.351 163.876 76.5726L165.268 77.1823C165.769 77.4015 166.352 77.1785 166.579 76.6815L170.848 67.3288Z" fill="#E7E6F0"/>
<path d="M163.384 84.5082L164.724 81.448C165.138 80.5032 166.239 80.0728 167.184 80.4866C168.129 80.9004 168.56 82.0017 168.146 82.9465L166.805 86.0068C164.577 91.0951 159.024 93.697 153.811 92.3807C152.811 92.1282 152.381 91.0094 152.795 90.0646C153.209 89.1198 154.312 88.7165 155.33 88.8844C158.62 89.4274 161.985 87.7029 163.384 84.5082Z" fill="#ABA9C8"/>
<rect x="126.234" y="124.533" width="14.9406" height="22.4109" rx="4" transform="rotate(23.653 126.234 124.533)" fill="#353071"/>
<rect x="129.014" y="125.748" width="14.9406" height="22.4109" rx="4" transform="rotate(23.653 129.014 125.748)" fill="#8F87F3"/>
<path fill-rule="evenodd" clip-rule="evenodd" d="M121.353 40.4358C116.034 43.8452 111.843 48.7528 109.308 54.5402L108.67 55.9968C105.885 62.3562 107.931 69.6214 113.165 73.721L96.1925 112.472L103.031 115.468L120.004 76.7161C126.566 77.7825 133.293 74.3605 136.078 68.0015L136.716 66.5449C139.251 60.7575 140.016 54.3492 138.915 48.1277C137.482 40.0323 128.275 35.9996 121.353 40.4358Z" fill="#353071"/>
<path fill-rule="evenodd" clip-rule="evenodd" d="M124.779 41.9378C119.46 45.3471 115.269 50.2548 112.734 56.0422L112.096 57.4987C109.31 63.8581 111.357 71.1234 116.591 75.2229L99.6183 113.974L106.457 116.97L123.43 78.218C129.992 79.2845 136.719 75.8625 139.504 69.5034L140.142 68.0469C142.677 62.2594 143.442 55.8512 142.341 49.6297C140.908 41.5343 131.701 37.5016 124.779 41.9378Z" fill="#E7E6F0"/>
<path d="M132.676 66.4485L134.018 63.3841C134.432 62.438 135.535 62.007 136.481 62.4214C137.427 62.8358 137.858 63.9386 137.444 64.8847L136.102 67.9491C133.87 73.0445 128.31 75.6499 123.089 74.3318C122.088 74.0789 121.658 72.9586 122.072 72.0125C122.486 71.0664 123.592 70.6626 124.611 70.8307C127.905 71.3744 131.274 69.6476 132.676 66.4485Z" fill="#ABA9C8"/>
<rect x="93.1816" y="110.006" width="14.9611" height="22.4416" rx="4" transform="rotate(23.653 93.1816 110.006)" fill="#353071"/>
<path d="M95.0046 115.174C95.8909 113.15 98.2498 112.228 100.273 113.115L106.65 115.907C108.673 116.794 109.595 119.153 108.709 121.176L102.915 134.404C102.029 136.428 99.6697 137.35 97.6461 136.464L91.2699 133.671C89.2463 132.785 88.3244 130.426 89.2107 128.402L95.0046 115.174Z" fill="#8F87F3"/>
<path d="M244.766 185.35L235.043 179.289L237.32 175.636C238.71 173.407 240.807 173.064 242.678 174.221C244.534 175.387 245.134 177.43 243.736 179.673L242.564 181.553L245.855 183.604L244.766 185.35ZM241.127 180.657L242.149 179.019C242.962 177.699 242.592 176.647 241.565 176.007C240.524 175.358 239.437 175.501 238.616 176.817L237.595 178.456L241.127 180.657Z" fill="#D5D3E1"/>
<path d="M250.491 176.406C250.131 176.983 249.364 177.167 248.79 176.8C248.222 176.455 248.056 175.69 248.409 175.108C248.763 174.555 249.524 174.367 250.088 174.718C250.665 175.078 250.838 175.848 250.491 176.406Z" fill="#D5D3E1"/>
<path d="M252.108 173.572L242.385 167.511L244.662 163.858C246.051 161.629 248.149 161.286 250.02 162.443C251.876 163.609 252.476 165.652 251.078 167.895L249.906 169.775L253.196 171.826L252.108 173.572ZM248.469 168.879L249.49 167.241C250.304 165.921 249.934 164.869 248.906 164.229C247.865 163.58 246.779 163.723 245.958 165.039L244.937 166.678L248.469 168.879Z" fill="#D5D3E1"/>
<path d="M248.697 157.385L258.42 163.446L257.349 165.165L247.625 159.104L248.697 157.385Z" fill="#D5D3E1"/>
<path d="M261.607 158.663C260.238 160.859 257.933 161.296 255.65 159.873C253.393 158.466 252.716 156.142 254.014 154.06C255.127 152.274 257.211 151.429 259.77 153.024L260.307 153.358L257.134 158.448C258.393 159.196 259.588 158.924 260.272 157.812C260.748 157.064 260.739 156.36 260.441 155.866L261.487 154.187C262.557 155.283 262.662 156.971 261.607 158.663ZM255.97 157.713L258.117 154.269C257.119 153.656 255.976 153.875 255.36 154.862C254.72 155.89 255.081 157.075 255.97 157.713Z" fill="#D5D3E1"/>
<path d="M182.316 242.053V222.256H190.082C194.58 222.256 197.164 225.031 197.164 228.928C197.164 232.879 194.539 235.6 189.973 235.6H186.418V242.053H182.316ZM186.418 232.291H189.316C191.75 232.291 192.939 230.924 192.926 228.928C192.939 226.959 191.75 225.633 189.316 225.619H186.418V232.291ZM201.129 242.299C199.844 242.299 198.805 241.273 198.832 240.002C198.805 238.744 199.844 237.719 201.129 237.732C202.346 237.719 203.398 238.744 203.398 240.002C203.398 241.273 202.346 242.299 201.129 242.299ZM206.734 242.053V222.256H214.5C218.998 222.256 221.582 225.031 221.582 228.928C221.582 232.879 218.957 235.6 214.391 235.6H210.836V242.053H206.734ZM210.836 232.291H213.734C216.168 232.291 217.357 230.924 217.344 228.928C217.357 226.959 216.168 225.633 213.734 225.619H210.836V232.291ZM228.145 222.256V242.053H224.098V222.256H228.145ZM238.016 242.354C233.463 242.34 230.674 239.4 230.688 234.697C230.674 230.117 233.504 227.014 237.852 227.014C241.748 227.014 244.824 229.475 244.824 234.533V235.682H234.68C234.68 237.924 236.006 239.305 238.098 239.318C239.479 239.305 240.463 238.703 240.859 237.814H244.715C244.141 240.562 241.68 242.34 238.016 242.354ZM234.68 233.139H240.996C240.982 231.334 239.738 230.035 237.934 230.049C236.074 230.035 234.762 231.43 234.68 233.139Z" fill="black"/>
</g>
</svg>
