<svg width="351" height="265" viewBox="0 0 351 265" fill="none" xmlns="http://www.w3.org/2000/svg">
<rect x="0.726562" y="0.648438" width="350" height="264" fill="#E09064"/>
<path d="M235.609 71.5C235.609 70.9477 236.057 70.5 236.609 70.5H240.845C241.397 70.5 241.845 70.9477 241.845 71.5V171.207H235.609V71.5Z" fill="#4841A6"/>
<path d="M238.727 73.2031L287.749 134.482C288.174 135.013 287.957 135.804 287.32 136.043L238.727 154.265V73.2031Z" fill="#353071"/>
<path d="M238.727 76.3223L278.589 134.583C278.939 135.094 278.745 135.797 278.183 136.056L238.727 154.267V76.3223Z" fill="#8F87F3"/>
<path d="M235.609 85.6738L208.052 146.682C207.792 147.257 208.123 147.926 208.738 148.068L235.609 154.265V85.6738Z" fill="#F0EFF7"/>
<path d="M235.609 85.6738L235.461 88.8588L232.482 152.892L235.609 154.265V85.6738Z" fill="#ABA9C8"/>
<path d="M177.828 177.113C177.242 176.512 177.613 175.5 178.448 175.419L299.109 163.809C299.926 163.73 300.484 164.615 300.062 165.319L282.667 194.311C282.486 194.613 282.16 194.797 281.809 194.797H195.499C195.23 194.797 194.972 194.688 194.783 194.495L177.828 177.113Z" fill="#4841A6"/>
<path d="M299.108 163.809L213.783 172.026C252.331 182.767 266.722 183.524 288.555 184.494L300.061 165.319C300.484 164.615 299.925 163.731 299.108 163.809Z" fill="#353071"/>
</svg>
