<svg width="351" height="265" viewBox="0 0 351 265" fill="none" xmlns="http://www.w3.org/2000/svg">
<rect x="0.726562" y="0.648438" width="350" height="264" fill="#7C92BC"/>
<rect x="251.846" y="121.785" width="4.07989" height="78.7912" transform="rotate(32.1381 251.846 121.785)" fill="#F0D5DC"/>
<path d="M261.659 72.2021C264.597 67.5255 270.77 66.116 275.446 69.054L292.565 79.8087C297.242 82.7467 298.651 88.9195 295.713 93.596L281.992 115.438C278.545 120.925 272.653 124.402 266.184 124.767L251.876 125.575L246.394 112.334C243.915 106.348 244.49 99.5311 247.937 94.0444L261.659 72.2021Z" fill="#EB6A89"/>
<path d="M268.062 95.2264C268.156 95.0777 268.287 94.9562 268.442 94.8742L271.751 93.1256C272.091 92.9458 272.498 93.2017 272.484 93.5863L272.345 97.3261C272.338 97.5016 272.286 97.6722 272.192 97.8209L251.1 131.396C250.806 131.863 250.189 132.004 249.721 131.711L247.285 130.18C246.817 129.886 246.676 129.269 246.97 128.801L268.062 95.2264Z" fill="#341D28"/>
<path d="M212.508 192.823L216.508 186.455C216.802 185.987 216.661 185.37 216.193 185.076L213.757 183.546C213.289 183.252 212.672 183.393 212.378 183.861L208.378 190.229L212.508 192.823Z" fill="#341D28"/>
<path d="M216.249 193.993L217.17 192.526C217.464 192.058 217.323 191.441 216.856 191.147L208.001 185.585C207.534 185.291 206.916 185.432 206.622 185.9L205.701 187.367C205.408 187.835 205.549 188.452 206.016 188.746L214.871 194.308C215.338 194.602 215.956 194.461 216.249 193.993Z" fill="#341D28"/>
<path d="M221.642 171.467L225.073 171.469L229.379 165.531L230.802 163.325C228.394 165.149 224.282 168.571 221.642 171.467Z" fill="#C2BDE3"/>
<rect x="266.719" y="131.42" width="3.36256" height="64.938" transform="rotate(48.2092 266.719 131.42)" fill="#F0D5DC"/>
<path d="M281.983 94.0936C286.433 90.1163 293.353 90.8972 296.805 95.766L302.916 104.386C305.638 108.225 305.314 113.443 302.14 116.916L292.654 127.294C287.42 133.021 279.345 135.204 271.938 132.894L266.247 131.12L264.532 123.408C262.96 116.342 265.33 108.979 270.727 104.155L281.983 94.0936Z" fill="#341D28"/>
<path d="M284.491 95.5606C288.609 91.8801 294.931 92.2346 298.611 96.3523L307.372 106.154C311.053 110.272 310.698 116.593 306.58 120.274L293.395 132.059C288.564 136.378 281.94 138.088 275.622 136.648L265.877 134.427L264.759 124.494C264.035 118.055 266.475 111.664 271.306 107.346L284.491 95.5606Z" fill="#EB6A89"/>
<path d="M285.584 114.115C285.715 113.998 285.875 113.918 286.047 113.882L288.871 113.293C289.248 113.214 289.568 113.573 289.448 113.938L288.547 116.679C288.492 116.846 288.394 116.995 288.263 117.112L264.065 138.742C263.653 139.11 263.021 139.074 262.653 138.662L261.307 137.156C260.939 136.745 260.974 136.113 261.386 135.744L285.584 114.115Z" fill="#341D28"/>
<path d="M219.355 178.704L223.845 174.691C224.257 174.323 224.293 173.691 223.925 173.279L222.579 171.773C222.21 171.361 221.578 171.326 221.167 171.694L216.677 175.707L219.355 178.704Z" fill="#341D28"/>
<path d="M222.183 180.366L222.985 179.649C223.397 179.281 223.432 178.649 223.064 178.237L217.555 172.074C217.187 171.662 216.555 171.627 216.143 171.995L215.341 172.712C214.929 173.08 214.894 173.712 215.262 174.124L220.771 180.287C221.139 180.699 221.771 180.735 222.183 180.366Z" fill="#341D28"/>
</svg>
