<svg width="351" height="234" viewBox="0 0 351 234" fill="none" xmlns="http://www.w3.org/2000/svg">
<rect x="0.726562" y="0.529297" width="350" height="233" fill="#4A5294"/>
<path d="M261.719 71.3809C261.719 70.8286 262.166 70.3809 262.719 70.3809H265.42C265.972 70.3809 266.42 70.8286 266.42 71.3809V146.308H261.719V71.3809Z" fill="#E77F45"/>
<path d="M264.068 72.418L300.817 118.354C301.242 118.885 301.024 119.676 300.387 119.915L264.068 133.534V72.418Z" fill="#783E1E"/>
<path d="M264.068 74.7695L293.958 118.455C294.308 118.966 294.114 119.668 293.552 119.927L264.068 133.535V74.7695Z" fill="#EFA278"/>
<path d="M261.719 81.8223L241.065 127.545C240.806 128.12 241.137 128.79 241.752 128.931L261.719 133.536V81.8223Z" fill="#FFE9DD"/>
<path d="M261.719 81.8223L261.607 84.2235L259.361 132.501L261.719 133.536V81.8223Z" fill="#EAB191"/>
<path d="M218.514 151.131C217.927 150.53 218.298 149.518 219.134 149.437L309.109 140.78C309.926 140.701 310.484 141.586 310.062 142.29L297.269 163.611C297.089 163.912 296.763 164.096 296.412 164.096H231.582C231.312 164.096 231.054 163.987 230.866 163.794L218.514 151.131Z" fill="#E77F45"/>
<path d="M309.108 140.78L245.264 146.928C274.327 155.026 285.176 155.597 301.638 156.328L310.061 142.29C310.484 141.586 309.925 140.701 309.108 140.78Z" fill="#783E1E"/>
</svg>
