<svg width="351" height="234" viewBox="0 0 351 234" fill="none" xmlns="http://www.w3.org/2000/svg">
<rect x="0.726562" y="0.826172" width="350" height="233" fill="#7C92BC"/>
<rect x="251.846" y="121.666" width="4.07989" height="78.7912" transform="rotate(32.1381 251.846 121.666)" fill="#F0D5DC"/>
<path d="M261.659 72.0829C264.597 67.4063 270.77 65.9969 275.446 68.9349L292.565 79.6896C297.242 82.6275 298.651 88.8003 295.713 93.4769L281.992 115.319C278.545 120.806 272.653 124.283 266.184 124.648L251.876 125.456L246.394 112.215C243.915 106.229 244.49 99.4119 247.937 93.9252L261.659 72.0829Z" fill="#EB6A89"/>
<path d="M268.062 95.1072C268.156 94.9585 268.287 94.8371 268.442 94.755L271.751 93.0065C272.091 92.8267 272.498 93.0825 272.484 93.4671L272.345 97.207C272.338 97.3824 272.286 97.5531 272.192 97.7017L251.1 131.277C250.806 131.744 250.189 131.885 249.721 131.592L247.285 130.061C246.817 129.767 246.676 129.15 246.97 128.682L268.062 95.1072Z" fill="#341D28"/>
<path d="M212.508 192.704L216.508 186.336C216.802 185.868 216.661 185.251 216.193 184.957L213.757 183.427C213.289 183.133 212.672 183.274 212.378 183.741L208.378 190.11L212.508 192.704Z" fill="#341D28"/>
<path d="M216.249 193.874L217.17 192.407C217.464 191.939 217.323 191.322 216.856 191.028L208.001 185.466C207.534 185.172 206.916 185.313 206.622 185.781L205.701 187.248C205.408 187.716 205.549 188.333 206.016 188.626L214.871 194.189C215.338 194.483 215.956 194.342 216.249 193.874Z" fill="#341D28"/>
<path d="M221.642 171.348L225.073 171.35L229.379 165.412L230.802 163.206C228.394 165.03 224.282 168.451 221.642 171.348Z" fill="#C2BDE3"/>
<rect x="266.719" y="131.301" width="3.36256" height="64.938" transform="rotate(48.2092 266.719 131.301)" fill="#F0D5DC"/>
<path d="M281.983 93.9745C286.433 89.9972 293.353 90.778 296.805 95.6469L302.916 104.267C305.638 108.106 305.314 113.323 302.14 116.797L292.654 127.175C287.42 132.902 279.345 135.085 271.938 132.775L266.247 131.001L264.532 123.289C262.96 116.223 265.33 108.859 270.727 104.035L281.983 93.9745Z" fill="#341D28"/>
<path d="M284.491 95.4415C288.609 91.761 294.931 92.1154 298.611 96.2332L307.372 106.035C311.053 110.152 310.698 116.474 306.58 120.155L293.395 131.94C288.564 136.258 281.94 137.968 275.622 136.529L265.877 134.308L264.759 124.375C264.035 117.936 266.475 111.545 271.306 107.227L284.491 95.4415Z" fill="#EB6A89"/>
<path d="M285.584 113.996C285.715 113.879 285.875 113.798 286.047 113.763L288.871 113.173C289.248 113.095 289.568 113.453 289.448 113.819L288.547 116.56C288.492 116.727 288.394 116.876 288.263 116.993L264.065 138.622C263.653 138.99 263.021 138.955 262.653 138.543L261.307 137.037C260.939 136.626 260.974 135.993 261.386 135.625L285.584 113.996Z" fill="#341D28"/>
<path d="M219.355 178.585L223.845 174.572C224.257 174.204 224.293 173.571 223.925 173.16L222.579 171.654C222.21 171.242 221.578 171.207 221.167 171.575L216.677 175.588L219.355 178.585Z" fill="#341D28"/>
<path d="M222.183 180.247L222.985 179.53C223.397 179.162 223.432 178.53 223.064 178.118L217.555 171.955C217.187 171.543 216.555 171.508 216.143 171.876L215.341 172.593C214.929 172.961 214.894 173.593 215.262 174.005L220.771 180.168C221.139 180.58 221.771 180.615 222.183 180.247Z" fill="#341D28"/>
</svg>
