<svg width="351" height="234" viewBox="0 0 351 234" fill="none" xmlns="http://www.w3.org/2000/svg">
<rect x="0.726562" y="0.53125" width="350" height="233" fill="#E09064"/>
<path d="M261.463 71.3828C261.463 70.8305 261.911 70.3828 262.463 70.3828H265.189C265.741 70.3828 266.189 70.8305 266.189 71.3828V146.704H261.463V71.3828Z" fill="#4841A6"/>
<path d="M263.824 72.4297L300.768 118.609C301.193 119.14 300.975 119.932 300.338 120.17L263.824 133.863V72.4297Z" fill="#353071"/>
<path d="M263.824 74.793L293.873 118.71C294.222 119.221 294.028 119.923 293.466 120.183L263.824 133.864V74.793Z" fill="#8F87F3"/>
<path d="M261.463 81.8828L240.7 127.849C240.44 128.424 240.771 129.093 241.386 129.235L261.463 133.865V81.8828Z" fill="#F0EFF7"/>
<path d="M261.463 81.8828L261.351 84.2966L259.093 132.824L261.463 133.865V81.8828Z" fill="#ABA9C8"/>
<path d="M218.025 151.541C217.439 150.94 217.81 149.928 218.646 149.848L309.108 141.143C309.925 141.064 310.484 141.949 310.062 142.653L297.196 164.096C297.015 164.397 296.69 164.581 296.338 164.581H231.167C230.897 164.581 230.639 164.473 230.451 164.28L218.025 151.541Z" fill="#4841A6"/>
<path d="M309.108 141.143L244.922 147.324C274.136 155.464 285.042 156.038 301.588 156.773L310.061 142.653C310.484 141.949 309.925 141.064 309.108 141.143Z" fill="#353071"/>
</svg>
