<svg width="351" height="265" viewBox="0 0 351 265" fill="none" xmlns="http://www.w3.org/2000/svg">
<rect x="0.726562" y="0.0449219" width="350" height="264" fill="#D57070"/>
<path d="M244.213 127.59C254.578 100.503 276.3 79.3228 303.64 69.6449L304.723 69.2615L304.926 69.8899C314.184 98.6295 309.821 130.023 293.076 155.149L261.555 202.448C259.864 204.985 256.071 204.774 254.672 202.066L246.051 185.377L227.453 188.01C224.435 188.438 222.067 185.467 223.156 182.62L244.213 127.59Z" fill="#0E1623"/>
<path d="M254.979 202.37L252.944 199.276L255.039 198.735L254.979 202.37Z" fill="#0E231E"/>
<path d="M224.042 186.123L222.083 183.186L225.849 183.337L224.042 186.123Z" fill="#0E231E"/>
<path d="M242.456 124.953C252.803 97.9135 274.685 76.9073 302.125 67.6731C303.174 67.32 304.307 67.9051 304.627 68.9648C312.985 96.684 308.528 126.688 292.472 150.78L259.8 199.805C258.11 202.341 254.317 202.13 252.918 199.422L244.297 182.733L225.698 185.367C222.68 185.794 220.312 182.824 221.402 179.977L242.456 124.953Z" fill="#78A8E0"/>
<path d="M259.8 199.803L294.576 147.581C304.33 132.934 309.299 115.621 308.797 98.0297C298.601 120.536 277.507 154.094 263.624 163.539C257.129 167.958 234.55 176.008 222.144 178.04L221.402 179.979C220.313 182.826 222.681 185.796 225.699 185.369L244.297 182.735L252.917 199.421C254.316 202.13 258.11 202.34 259.8 199.803Z" fill="#3F6EA5"/>
<path d="M302.086 67.6856L296.623 69.524C280.658 98.6894 246.226 162.392 236.218 183.877L242.891 182.932C243.733 182.813 244.558 183.239 244.948 183.994L248.041 189.982L306.303 74.5221L304.639 69.0038C304.313 67.9224 303.156 67.3254 302.086 67.6856Z" fill="#4072AC"/>
<path d="M236.218 183.875L242.891 182.931C243.733 182.811 244.558 183.237 244.949 183.993L248.042 189.981L260.4 165.489C256.645 167.266 247.62 171.243 241.557 172.944C239.397 177.242 237.581 180.95 236.218 183.875Z" fill="#285384"/>
<path d="M239.958 160.725C241.094 158.165 253.564 148.853 261.001 143.55C261.426 143.247 261.965 143.721 261.725 144.186L247.806 171.142C243.369 169.101 238.424 164.177 239.958 160.725Z" fill="#1A3B62"/>
<path d="M247.805 171.143C243.368 169.102 238.424 164.177 239.957 160.725L239.964 160.708C240.183 160.217 240.32 159.907 241.28 158.978C241.582 159.812 243.004 162.584 246.392 163.32C249.852 164.072 254.666 157.474 256.965 153.404L247.805 171.143Z" fill="#0F2137"/>
</svg>
