<svg width="351" height="234" viewBox="0 0 351 234" fill="none" xmlns="http://www.w3.org/2000/svg">
<rect x="0.726562" y="0.386719" width="350" height="233" fill="#E09064"/>
<path d="M243.964 124.062C254.329 96.9747 276.05 75.7948 303.39 66.1169L304.379 65.767L304.549 66.2965C313.808 95.036 309.445 126.43 292.7 151.555L261.311 198.656C259.62 201.192 255.828 200.981 254.429 198.273L245.833 181.633L227.289 184.259C224.27 184.687 221.902 181.716 222.992 178.869L243.964 124.062Z" fill="#0E231E"/>
<path d="M254.739 198.59L252.709 195.501L254.8 194.962L254.739 198.59Z" fill="#0E231E"/>
<path d="M223.868 182.376L221.913 179.445L225.671 179.595L223.868 182.376Z" fill="#0E231E"/>
<path d="M242.244 121.337C252.569 94.3555 274.404 73.3944 301.785 64.18V64.18C302.832 63.8277 303.962 64.4115 304.281 65.469V65.469C312.622 93.1287 308.174 123.068 292.152 147.108L259.559 196.016C257.868 198.553 254.075 198.342 252.676 195.634L244.08 178.993L225.536 181.619C222.518 182.047 220.15 179.076 221.24 176.229L242.244 121.337Z" fill="#54A592"/>
<path d="M259.557 196.01L294.617 143.361C304.113 129.102 308.961 112.254 308.497 95.1288C298.323 117.587 277.218 150.411 263.365 159.836C256.884 164.246 234.353 172.278 221.973 174.307L221.238 176.227C220.149 179.074 222.517 182.044 225.535 181.617L244.079 178.991L252.674 195.629C254.073 198.337 257.867 198.548 259.557 196.01Z" fill="#1A3E36"/>
<path d="M301.741 64.1963L296.294 66.0293C280.363 95.1322 246.005 158.698 236.018 180.137L242.674 179.194C243.516 179.075 244.341 179.501 244.731 180.257L247.816 186.229L305.952 71.0168L304.293 65.5145C303.967 64.4331 302.811 63.8361 301.741 64.1963Z" fill="#1A453B"/>
<path d="M236.018 180.133L242.674 179.191C243.516 179.072 244.341 179.498 244.731 180.253L247.816 186.226L260.148 161.787C256.401 163.559 247.395 167.528 241.345 169.226C239.19 173.514 237.378 177.214 236.018 180.133Z" fill="#14312A"/>
<path d="M239.749 157.033C240.884 154.479 253.322 145.19 260.744 139.898C261.17 139.595 261.708 140.069 261.468 140.534L247.581 167.429C243.154 165.392 238.219 160.478 239.749 157.033Z" fill="#0E231E"/>
<path d="M247.581 167.429C243.154 165.392 238.22 160.479 239.75 157.034L239.758 157.017C239.975 156.526 240.113 156.217 241.07 155.29C241.372 156.123 242.791 158.889 246.172 159.623C249.624 160.373 254.428 153.789 256.722 149.728L247.581 167.429Z" fill="#031410"/>
<path d="M269.782 138L262.088 133.965L263.604 131.074C264.529 129.31 266.096 128.933 267.576 129.702C269.045 130.48 269.614 131.991 268.683 133.766L267.903 135.253L270.506 136.619L269.782 138ZM266.766 134.657L267.446 133.36C267.987 132.316 267.647 131.542 266.834 131.116C266.011 130.684 265.197 130.853 264.651 131.895L263.971 133.191L266.766 134.657Z" fill="#335B52"/>
<path d="M273.607 130.915C273.367 131.372 272.797 131.554 272.343 131.309C271.894 131.08 271.725 130.51 271.96 130.051C272.196 129.612 272.761 129.427 273.207 129.662C273.664 129.901 273.838 130.474 273.607 130.915Z" fill="#335B52"/>
<path d="M274.67 128.681L266.976 124.645L268.492 121.755C269.418 119.991 270.984 119.613 272.464 120.383C273.933 121.16 274.502 122.671 273.571 124.446L272.791 125.934L275.395 127.299L274.67 128.681ZM271.654 125.337L272.334 124.041C272.875 122.997 272.536 122.223 271.723 121.796C270.899 121.364 270.085 121.534 269.539 122.575L268.859 123.871L271.654 125.337Z" fill="#335B52"/>
<path d="M271.179 116.633L278.873 120.669L278.159 122.029L270.466 117.993L271.179 116.633Z" fill="#335B52"/>
<path d="M281.013 116.872C280.102 118.61 278.383 119.07 276.577 118.123C274.791 117.186 274.148 115.467 275.012 113.82C275.754 112.406 277.282 111.65 279.306 112.712L279.732 112.935L277.619 116.962C278.613 117.456 279.501 117.184 279.956 116.304C280.273 115.712 280.227 115.18 279.974 114.823L280.671 113.495C281.541 114.263 281.715 115.533 281.013 116.872ZM276.697 116.472L278.127 113.746C277.338 113.339 276.485 113.569 276.076 114.35C275.649 115.163 275.989 116.039 276.697 116.472Z" fill="#335B52"/>
</svg>
