<svg width="351" height="265" viewBox="0 0 351 265" fill="none" xmlns="http://www.w3.org/2000/svg">
<rect x="0.726562" y="0.0449219" width="350" height="264" fill="#E09064"/>
<path d="M243.964 128.601C254.329 101.514 276.05 80.3339 303.39 70.656L304.379 70.3061L304.549 70.8355C313.808 99.5751 309.445 130.969 292.7 156.095L261.311 203.195C259.62 205.731 255.828 205.521 254.429 202.812L245.833 186.172L227.289 188.798C224.27 189.226 221.902 186.255 222.992 183.408L243.964 128.601Z" fill="#0E231E"/>
<path d="M254.739 203.129L252.709 200.04L254.8 199.501L254.739 203.129Z" fill="#0E231E"/>
<path d="M223.868 186.917L221.913 183.986L225.671 184.136L223.868 186.917Z" fill="#0E231E"/>
<path d="M242.244 125.878C252.569 98.8965 274.404 77.9354 301.785 68.721C302.832 68.3687 303.962 68.9526 304.281 70.01C312.622 97.6697 308.174 127.609 292.152 151.649L259.559 200.557C257.868 203.094 254.075 202.883 252.676 200.175L244.08 183.534L225.536 186.16C222.518 186.588 220.15 183.617 221.24 180.77L242.244 125.878Z" fill="#54A592"/>
<path d="M259.557 200.553L294.617 147.904C304.113 133.645 308.961 116.797 308.497 99.6718C298.323 122.13 277.218 154.954 263.365 164.379C256.884 168.788 234.353 176.821 221.973 178.85L221.238 180.77C220.149 183.617 222.517 186.587 225.535 186.16L244.079 183.534L252.674 200.172C254.073 202.88 257.867 203.091 259.557 200.553Z" fill="#1A3E36"/>
<path d="M301.741 68.7354L296.294 70.5684C280.363 99.6713 246.005 163.237 236.018 184.676L242.674 183.733C243.516 183.614 244.341 184.04 244.731 184.796L247.816 190.768L305.952 75.5558L304.293 70.0535C303.967 68.9722 302.811 68.3752 301.741 68.7354Z" fill="#1A453B"/>
<path d="M236.018 184.674L242.674 183.732C243.516 183.613 244.341 184.039 244.731 184.794L247.816 190.767L260.148 166.328C256.401 168.1 247.395 172.069 241.345 173.767C239.19 178.055 237.378 181.755 236.018 184.674Z" fill="#14312A"/>
<path d="M239.749 161.574C240.884 159.02 253.322 149.731 260.744 144.439C261.17 144.136 261.708 144.61 261.468 145.075L247.581 171.97C243.154 169.933 238.219 165.019 239.749 161.574Z" fill="#0E231E"/>
<path d="M247.581 171.968C243.154 169.932 238.22 165.018 239.75 161.573L239.758 161.556C239.975 161.065 240.113 160.756 241.07 159.829C241.372 160.662 242.791 163.428 246.172 164.162C249.624 164.912 254.428 158.329 256.722 154.267L247.581 171.968Z" fill="#031410"/>
<path d="M269.782 142.539L262.088 138.504L263.604 135.613C264.529 133.849 266.096 133.472 267.576 134.241C269.045 135.019 269.614 136.53 268.683 138.305L267.903 139.792L270.506 141.158L269.782 142.539ZM266.766 139.196L267.446 137.9C267.987 136.855 267.647 136.081 266.834 135.655C266.011 135.223 265.197 135.392 264.651 136.434L263.971 137.73L266.766 139.196Z" fill="#335B52"/>
<path d="M273.607 135.454C273.367 135.911 272.797 136.093 272.343 135.848C271.894 135.619 271.725 135.049 271.96 134.59C272.196 134.151 272.761 133.967 273.207 134.201C273.664 134.44 273.838 135.013 273.607 135.454Z" fill="#335B52"/>
<path d="M274.67 133.22L266.976 129.184L268.492 126.294C269.418 124.53 270.984 124.153 272.464 124.922C273.933 125.699 274.502 127.211 273.571 128.985L272.791 130.473L275.395 131.839L274.67 133.22ZM271.654 129.876L272.334 128.58C272.875 127.536 272.536 126.762 271.723 126.335C270.899 125.903 270.085 126.073 269.539 127.114L268.859 128.411L271.654 129.876Z" fill="#335B52"/>
<path d="M271.179 121.172L278.873 125.208L278.159 126.568L270.466 122.532L271.179 121.172Z" fill="#335B52"/>
<path d="M281.013 121.411C280.102 123.149 278.383 123.609 276.577 122.662C274.791 121.725 274.148 120.006 275.012 118.359C275.754 116.945 277.282 116.189 279.306 117.251L279.732 117.474L277.619 121.501C278.613 121.995 279.501 121.723 279.956 120.843C280.273 120.251 280.227 119.719 279.974 119.362L280.671 118.034C281.541 118.802 281.715 120.072 281.013 121.411ZM276.697 121.011L278.127 118.285C277.338 117.878 276.485 118.108 276.076 118.889C275.649 119.702 275.989 120.578 276.697 121.011Z" fill="#335B52"/>
</svg>
