<svg width="351" height="234" viewBox="0 0 351 234" fill="none" xmlns="http://www.w3.org/2000/svg">
<rect x="0.726562" y="0.285156" width="350" height="233" fill="#D57070"/>
<path d="M244.213 127.83C254.578 100.743 276.3 79.5631 303.64 69.8852L304.723 69.5017L304.926 70.1301C314.184 98.8697 309.821 130.263 293.076 155.389L261.555 202.688C259.864 205.225 256.071 205.014 254.672 202.306L246.051 185.617L227.453 188.251C224.435 188.678 222.067 185.708 223.156 182.861L244.213 127.83Z" fill="#0E1623"/>
<path d="M254.979 202.611L252.944 199.516L255.039 198.975L254.979 202.611Z" fill="#0E231E"/>
<path d="M224.042 186.366L222.083 183.428L225.849 183.579L224.042 186.366Z" fill="#0E231E"/>
<path d="M242.456 125.194C252.803 98.1537 274.685 77.1475 302.125 67.9133V67.9133C303.174 67.5603 304.307 68.1453 304.627 69.2051V69.2051C312.985 96.9242 308.528 126.928 292.472 151.02L259.8 200.045C258.11 202.581 254.317 202.371 252.918 199.662L244.297 182.974L225.698 185.607C222.68 186.035 220.312 183.064 221.402 180.217L242.456 125.194Z" fill="#78A8E0"/>
<path d="M259.8 200.041L294.576 147.819C304.33 133.172 309.299 115.859 308.797 98.268C298.601 120.774 277.507 154.332 263.624 163.777C257.129 168.196 234.55 176.246 222.144 178.279L221.402 180.217C220.313 183.064 222.681 186.034 225.699 185.607L244.297 182.973L252.917 199.66C254.316 202.368 258.11 202.579 259.8 200.041Z" fill="#3F6EA5"/>
<path d="M302.086 67.9259L296.623 69.7642C280.658 98.9297 246.226 162.632 236.218 184.117L242.891 183.172C243.733 183.053 244.558 183.479 244.948 184.234L248.041 190.222L306.303 74.7624L304.639 69.244C304.313 68.1627 303.156 67.5656 302.086 67.9259Z" fill="#4072AC"/>
<path d="M236.218 184.116L242.891 183.171C243.733 183.052 244.558 183.478 244.949 184.233L248.042 190.221L260.4 165.73C256.645 167.506 247.62 171.483 241.557 173.185C239.397 177.482 237.581 181.19 236.218 184.116Z" fill="#285384"/>
<path d="M239.958 160.967C241.094 158.407 253.564 149.095 261.001 143.793C261.426 143.489 261.965 143.964 261.725 144.428L247.806 171.385C243.369 169.343 238.424 164.419 239.958 160.967Z" fill="#1A3B62"/>
<path d="M247.805 171.381C243.368 169.34 238.424 164.416 239.957 160.964L239.964 160.947C240.183 160.455 240.32 160.145 241.28 159.216C241.582 160.05 243.004 162.822 246.392 163.558C249.852 164.31 254.666 157.712 256.965 153.642L247.805 171.381Z" fill="#0F2137"/>
</svg>
