<svg width="351" height="265" viewBox="0 0 351 265" fill="none" xmlns="http://www.w3.org/2000/svg">
<rect x="0.726562" y="0.216797" width="350" height="264" fill="#7165B6"/>
<rect x="251.846" y="121.354" width="4.07989" height="78.7912" transform="rotate(32.1381 251.846 121.354)" fill="#F0D8D5"/>
<path d="M261.659 71.7704C264.597 67.0938 270.77 65.6844 275.446 68.6224L292.565 79.3771C297.242 82.315 298.651 88.4878 295.713 93.1644L281.992 115.007C278.545 120.493 272.653 123.97 266.184 124.336L251.876 125.144L246.394 111.903C243.915 105.916 244.49 99.0994 247.937 93.6127L261.659 71.7704Z" fill="#EB896A"/>
<path d="M268.062 94.7947C268.156 94.646 268.287 94.5246 268.442 94.4425L271.751 92.694C272.091 92.5142 272.498 92.77 272.484 93.1546L272.345 96.8945C272.338 97.0699 272.286 97.2406 272.192 97.3892L251.1 130.964C250.806 131.432 250.189 131.573 249.721 131.279L247.285 129.748C246.817 129.455 246.676 128.837 246.97 128.37L268.062 94.7947Z" fill="#34231D"/>
<path d="M212.508 192.392L216.508 186.023C216.802 185.556 216.661 184.938 216.193 184.645L213.757 183.114C213.289 182.82 212.672 182.961 212.378 183.429L208.378 189.797L212.508 192.392Z" fill="#34231D"/>
<path d="M216.249 193.561L217.17 192.094C217.464 191.627 217.323 191.009 216.856 190.716L208.001 185.153C207.534 184.859 206.916 185 206.622 185.468L205.701 186.935C205.408 187.403 205.549 188.02 206.016 188.314L214.871 193.876C215.338 194.17 215.956 194.029 216.249 193.561Z" fill="#34231D"/>
<path d="M221.642 171.035L225.073 171.037L229.379 165.1L230.802 162.894C228.394 164.718 224.282 168.139 221.642 171.035Z" fill="#E3C4BD"/>
<rect x="266.719" y="130.988" width="3.36256" height="64.938" transform="rotate(48.2092 266.719 130.988)" fill="#F0D8D5"/>
<path d="M281.983 93.662C286.433 89.6847 293.353 90.4655 296.805 95.3344L302.916 103.955C305.638 107.794 305.314 113.011 302.14 116.485L292.654 126.862C287.42 132.59 279.345 134.772 271.938 132.463L266.247 130.688L264.532 122.977C262.96 115.911 265.33 108.547 270.727 103.723L281.983 93.662Z" fill="#34231D"/>
<path d="M284.491 95.129C288.609 91.4485 294.931 91.8029 298.611 95.9207L307.372 105.722C311.053 109.84 310.698 116.162 306.58 119.842L293.395 131.628C288.564 135.946 281.94 137.656 275.622 136.216L265.877 133.995L264.759 124.063C264.035 117.624 266.475 111.233 271.306 106.915L284.491 95.129Z" fill="#EB896A"/>
<path d="M285.584 113.683C285.715 113.566 285.875 113.486 286.047 113.45L288.871 112.861C289.248 112.782 289.568 113.141 289.448 113.507L288.547 116.247C288.492 116.414 288.394 116.563 288.263 116.68L264.065 138.31C263.653 138.678 263.021 138.642 262.653 138.231L261.307 136.725C260.939 136.313 260.974 135.681 261.386 135.313L285.584 113.683Z" fill="#34231D"/>
<path d="M219.355 178.273L223.845 174.259C224.257 173.891 224.293 173.259 223.925 172.847L222.579 171.341C222.21 170.93 221.578 170.894 221.167 171.262L216.677 175.276L219.355 178.273Z" fill="#34231D"/>
<path d="M222.183 179.935L222.985 179.217C223.397 178.849 223.432 178.217 223.064 177.806L217.555 171.642C217.187 171.23 216.555 171.195 216.143 171.563L215.341 172.281C214.929 172.649 214.894 173.281 215.262 173.692L220.771 179.856C221.139 180.268 221.771 180.303 222.183 179.935Z" fill="#34231D"/>
</svg>
