<svg width="351" height="234" viewBox="0 0 351 234" fill="none" xmlns="http://www.w3.org/2000/svg">
<rect x="0.726562" y="0.53125" width="350" height="233" fill="#7165B6"/>
<rect x="251.846" y="121.668" width="4.07989" height="78.7912" transform="rotate(32.1381 251.846 121.668)" fill="#F0D8D5"/>
<path d="M261.659 72.0849C264.597 67.4083 270.77 65.9989 275.446 68.9368L292.565 79.6916C297.242 82.6295 298.651 88.8023 295.713 93.4789L281.992 115.321C278.545 120.808 272.653 124.285 266.184 124.65L251.876 125.458L246.394 112.217C243.915 106.23 244.49 99.4139 247.937 93.9272L261.659 72.0849Z" fill="#EB896A"/>
<path d="M268.062 95.1111C268.156 94.9624 268.287 94.841 268.442 94.7589L271.751 93.0104C272.091 92.8306 272.498 93.0865 272.484 93.471L272.345 97.2109C272.338 97.3863 272.286 97.557 272.192 97.7056L251.1 131.281C250.806 131.748 250.189 131.889 249.721 131.595L247.285 130.065C246.817 129.771 246.676 129.154 246.97 128.686L268.062 95.1111Z" fill="#34231D"/>
<path d="M212.508 192.708L216.508 186.34C216.802 185.872 216.661 185.255 216.193 184.961L213.757 183.43C213.289 183.137 212.672 183.278 212.378 183.745L208.378 190.113L212.508 192.708Z" fill="#34231D"/>
<path d="M216.249 193.878L217.17 192.411C217.464 191.943 217.323 191.326 216.856 191.032L208.001 185.47C207.534 185.176 206.916 185.317 206.622 185.785L205.701 187.252C205.408 187.719 205.549 188.337 206.016 188.63L214.871 194.193C215.338 194.487 215.956 194.346 216.249 193.878Z" fill="#34231D"/>
<path d="M221.642 171.348L225.073 171.35L229.379 165.412L230.802 163.206C228.394 165.03 224.282 168.451 221.642 171.348Z" fill="#E3C4BD"/>
<rect x="266.719" y="131.305" width="3.36256" height="64.938" transform="rotate(48.2092 266.719 131.305)" fill="#F0D8D5"/>
<path d="M281.983 93.9765C286.433 89.9991 293.353 90.78 296.805 95.6488L302.916 104.269C305.638 108.108 305.314 113.325 302.14 116.799L292.654 127.177C287.42 132.904 279.345 135.087 271.938 132.777L266.247 131.003L264.532 123.291C262.96 116.225 265.33 108.861 270.727 104.037L281.983 93.9765Z" fill="#34231D"/>
<path d="M284.491 95.4454C288.609 91.7649 294.931 92.1193 298.611 96.2371L307.372 106.039C311.053 110.156 310.698 116.478 306.58 120.159L293.395 131.944C288.564 136.262 281.94 137.972 275.622 136.533L265.877 134.312L264.759 124.379C264.035 117.94 266.475 111.549 271.306 107.231L284.491 95.4454Z" fill="#EB896A"/>
<path d="M285.584 113.998C285.715 113.881 285.875 113.8 286.047 113.765L288.871 113.175C289.248 113.097 289.568 113.455 289.448 113.821L288.547 116.562C288.492 116.728 288.394 116.878 288.263 116.995L264.065 138.624C263.653 138.992 263.021 138.957 262.653 138.545L261.307 137.039C260.939 136.627 260.974 135.995 261.386 135.627L285.584 113.998Z" fill="#34231D"/>
<path d="M219.355 178.587L223.845 174.574C224.257 174.206 224.293 173.573 223.925 173.162L222.579 171.656C222.21 171.244 221.578 171.209 221.167 171.577L216.677 175.59L219.355 178.587Z" fill="#34231D"/>
<path d="M222.183 180.249L222.985 179.532C223.397 179.164 223.432 178.532 223.064 178.12L217.555 171.957C217.187 171.545 216.555 171.51 216.143 171.878L215.341 172.595C214.929 172.963 214.894 173.595 215.262 174.007L220.771 180.17C221.139 180.582 221.771 180.617 222.183 180.249Z" fill="#34231D"/>
</svg>
