<svg width="390" height="260" viewBox="0 0 390 260" fill="none" xmlns="http://www.w3.org/2000/svg">
<rect width="390" height="260" fill="#686CD3"/>
<g clip-path="url(#clip0_2356_11579)">
<path d="M172.211 86.6136C168.731 73.4436 175.991 56.6336 188.761 53.2636C201.531 49.8836 214.971 61.2136 218.451 74.3836C218.821 75.4736 219.231 78.4136 219.621 82.0436C220.241 87.8836 220.811 95.5036 221.101 100.054C223.751 122.224 234.941 143.514 228.731 151.134C222.521 158.764 207.981 160.354 201.591 160.354C195.031 157.874 190.591 156.094 189.021 147.404C189.021 138.084 181.071 112.244 175.221 95.1436C174.121 91.9336 173.101 89.0436 172.211 86.6136Z" fill="#222346"/>
<path d="M303.311 86.6136C306.791 73.4436 299.531 56.6336 286.761 53.2636C273.991 49.8836 260.551 61.2136 257.071 74.3836C256.701 75.4736 256.291 78.4136 255.901 82.0436C255.281 87.8836 254.711 95.5036 254.421 100.054C251.771 122.224 240.581 143.514 246.791 151.134C253.001 158.764 267.541 160.354 273.931 160.354C280.491 157.874 284.931 156.094 286.501 147.404C286.501 138.084 294.451 112.244 300.301 95.1436C301.401 91.9336 302.421 89.0436 303.311 86.6136Z" fill="#222346"/>
<path d="M172.211 79.6136C168.731 66.4436 175.991 49.6336 188.761 46.2636C201.531 42.8836 214.971 54.2136 218.451 67.3836C218.821 68.4736 219.231 71.4136 219.621 75.0436C220.241 80.8836 220.811 88.5036 221.101 93.0536C223.751 115.224 234.941 136.514 228.731 144.134C222.521 151.764 207.981 153.354 201.591 153.354C195.031 150.874 190.591 149.094 189.021 140.404C189.021 131.084 181.071 105.244 175.221 88.1436C174.121 84.9336 173.101 82.0436 172.211 79.6136Z" fill="#F7F4FF"/>
<path d="M172.872 76.15C169.392 62.98 176.652 46.17 189.422 42.8C202.192 39.42 215.632 50.75 219.112 63.92C219.482 65.01 219.892 67.95 220.282 71.58C220.902 77.42 221.472 85.04 221.762 89.59C224.412 111.76 235.602 133.05 229.392 140.67C223.182 148.3 208.642 149.89 202.252 149.89C195.692 147.41 191.252 145.63 189.682 136.94C189.682 127.62 181.732 101.78 175.882 84.68C174.782 81.47 173.762 78.58 172.872 76.15Z" fill="#F7F4FF"/>
<path d="M185.812 74.42C190.802 71.69 210.002 67.08 214.332 69.53C218.662 71.97 221.472 82.61 221.482 82.63C221.302 80.5 221.122 78.39 220.922 76.47C220.562 72.84 220.172 69.89 219.822 68.81C216.542 55.64 203.942 44.33 191.982 47.72C180.022 51.11 173.222 67.92 176.502 81.09C177.332 83.51 178.292 86.41 179.322 89.62C179.492 90.15 179.672 90.7 179.842 91.25L179.822 91.18C179.822 91.18 180.812 77.17 185.802 74.44L185.812 74.42Z" fill="#322B84"/>
<path d="M185.812 74.42C190.802 71.69 210.002 67.08 214.332 69.53C218.662 71.97 221.472 82.61 221.482 82.63C221.302 80.5 221.122 78.39 220.922 76.47C220.562 72.84 220.172 69.89 219.822 68.81C216.542 55.64 203.942 44.33 191.982 47.72C180.022 51.11 173.222 67.92 176.502 81.09C177.332 83.51 178.292 86.41 179.322 89.62C179.492 90.15 179.672 90.7 179.842 91.25L179.822 91.18C179.822 91.18 180.812 77.17 185.802 74.44L185.812 74.42Z" fill="url(#paint0_linear_2356_11579)"/>
<path d="M221.472 82.65L222.102 91.1C221.932 88.54 221.712 85.58 221.472 82.65Z" fill="#D8D8D8"/>
<path d="M182.152 98.6C181.372 96.04 180.592 93.57 179.852 91.23L182.152 98.6Z" fill="#828282"/>
<path d="M191.972 75.54C191.972 75.54 192.012 75.81 192.092 76.27C195.722 75.09 200.552 74 204.602 73.34C204.462 72.87 204.372 72.53 204.352 72.38L191.972 75.53V75.54Z" fill="#828282"/>
<path d="M195.122 133.99C197.192 148.11 201.622 148.91 202.842 149.52C205.412 150.82 220.532 148.39 224.862 143.68C229.192 138.97 228.622 124.72 225.992 120.57C224.982 118.98 222.262 116.99 219.182 114.87C219.022 115.79 218.712 116.69 218.162 117.54C215.052 122.34 205.212 124.63 199.452 119.49C198.982 119.07 198.552 118.29 198.172 117.35C195.962 121.73 194.112 127.11 195.122 133.99Z" fill="#D8D8D8"/>
<path d="M197.812 116.33C197.712 116.02 197.622 115.71 197.532 115.38C197.622 115.7 197.712 116.02 197.812 116.33Z" fill="#F5F5F5"/>
<path d="M197.762 73.95L195.582 74.34C195.582 74.34 195.602 74.44 195.642 74.61L197.782 74.06C197.762 73.99 197.752 73.95 197.752 73.95H197.762Z" fill="#828282"/>
<path d="M197.862 116.46C197.862 116.46 197.832 116.37 197.822 116.33C197.832 116.37 197.852 116.42 197.862 116.46Z" fill="#828282"/>
<path d="M198.182 117.36L198.172 117.35L198.182 117.36Z" fill="#828282"/>
<path d="M197.782 74.06L195.642 74.61C196.262 77.37 201.662 101.37 201.632 104.54C201.602 107.78 199.732 110.96 197.542 115.39C197.632 115.71 197.722 116.03 197.822 116.34C197.832 116.38 197.852 116.43 197.862 116.47C197.962 116.78 198.072 117.08 198.182 117.36C200.512 112.74 203.242 109.22 203.462 106.23C203.872 100.61 198.202 75.87 197.792 74.06H197.782Z" fill="#1A0F37"/>
<path d="M194.182 138.56C194.182 138.56 196.492 151.27 204.822 151.22C214.302 151.16 225.932 145.29 227.342 143.31C228.752 141.33 230.052 125.27 226.992 119.95C225.622 117.56 222.502 114.96 219.252 112.51C219.332 113.3 219.322 114.1 219.192 114.89C222.272 117.01 224.992 119.01 226.002 120.59C228.642 124.73 229.202 138.99 224.872 143.7C220.542 148.41 205.422 150.83 202.852 149.54C201.632 148.93 197.202 148.13 195.132 134.01C194.122 127.14 195.972 121.76 198.182 117.37C197.942 116.76 197.732 116.09 197.542 115.4C196.652 117.21 195.702 119.22 194.802 121.54C192.202 128.25 194.192 138.58 194.192 138.58L194.182 138.56Z" fill="#828282"/>
<path d="M222.322 94.46C222.262 93.47 222.192 92.34 222.102 91.11C219.762 82.96 214.882 73.56 211.962 72.81C210.892 72.53 208.032 72.78 204.612 73.33C204.472 72.86 204.382 72.52 204.362 72.38L203.122 72.7C203.382 74.65 207.032 101.55 209.552 104.81C210.992 106.68 215.212 109.47 219.222 112.5C222.472 114.95 225.592 117.56 226.962 119.94C230.022 125.27 228.722 141.33 227.312 143.3C225.902 145.27 214.282 151.15 204.792 151.21C196.462 151.26 194.152 138.55 194.152 138.55C194.152 138.55 192.162 128.22 194.762 121.51C195.662 119.19 196.612 117.18 197.502 115.37C199.692 110.94 201.562 107.76 201.592 104.52C201.622 101.35 196.232 77.36 195.602 74.59L191.932 75.52C191.932 75.52 192.092 76.5 192.342 78.1C192.222 77.32 192.122 76.69 192.052 76.25C190.402 76.79 188.992 77.34 188.032 77.88C183.142 80.61 182.132 98.64 182.132 98.64L182.112 98.58C182.992 101.45 183.882 104.42 184.742 107.42C188.732 121.23 192.262 135.43 192.272 141.83C193.752 150.52 197.912 152.29 204.062 154.77C210.042 154.77 223.672 153.15 229.482 145.52C235.292 137.89 224.792 116.61 222.282 94.44L222.322 94.46ZM193.782 87.22C193.812 87.4 193.842 87.59 193.862 87.78C193.832 87.59 193.802 87.41 193.782 87.22ZM195.112 96.13C195.142 96.32 195.172 96.51 195.192 96.7C195.162 96.51 195.132 96.32 195.112 96.13ZM195.342 97.74C195.362 97.86 195.382 97.99 195.392 98.11C195.372 97.99 195.352 97.86 195.342 97.74ZM195.562 99.28C195.572 99.36 195.582 99.45 195.602 99.54C195.592 99.46 195.582 99.37 195.562 99.28ZM196.282 104.55C196.302 104.69 196.312 104.81 196.332 104.95C196.312 104.82 196.302 104.69 196.282 104.55ZM196.412 105.59C196.432 105.72 196.442 105.85 196.462 105.97C196.442 105.84 196.432 105.72 196.412 105.59ZM196.742 108.67C196.742 108.74 196.752 108.81 196.752 108.87C196.752 108.81 196.752 108.74 196.742 108.67ZM196.772 109.25C196.772 109.25 196.772 109.17 196.772 109.13C196.772 109.17 196.772 109.22 196.772 109.25ZM192.492 78.96C192.452 78.7 192.412 78.44 192.372 78.21C192.412 78.45 192.452 78.7 192.492 78.96ZM193.142 83.15C193.102 82.9 193.062 82.66 193.032 82.41C193.072 82.65 193.102 82.89 193.142 83.15ZM192.972 82.08C192.922 81.78 192.882 81.49 192.832 81.2C192.872 81.49 192.922 81.78 192.972 82.08ZM192.782 80.88C192.752 80.67 192.722 80.47 192.682 80.27C192.712 80.47 192.742 80.67 192.782 80.88ZM192.612 79.78C192.572 79.54 192.542 79.31 192.502 79.08C192.542 79.31 192.572 79.53 192.612 79.78Z" fill="#322B84"/>
<path d="M219.182 114.88C214.222 111.46 208.332 107.72 207.172 104.82C205.392 100.37 201.432 75.88 201.002 73.25L197.812 74.06C198.232 75.87 203.902 100.61 203.482 106.23C203.262 109.22 200.532 112.74 198.202 117.36C198.572 118.3 199.002 119.07 199.482 119.5C205.232 124.65 215.082 122.35 218.192 117.55C218.732 116.71 219.062 115.82 219.212 114.91" fill="#443B5B"/>
<path d="M203.122 72.58L200.962 73C200.962 73 200.972 73.09 201.002 73.24L203.142 72.7C203.142 72.63 203.122 72.58 203.122 72.58Z" fill="#828282"/>
<path d="M219.242 112.5C215.232 109.48 211.012 106.68 209.572 104.81C207.052 101.54 203.402 74.65 203.142 72.7L201.002 73.24C201.422 75.87 205.392 100.36 207.172 104.81C208.332 107.71 214.222 111.46 219.182 114.87" fill="#1A0F37"/>
<path d="M204.592 73.35C208.022 72.79 210.892 72.54 211.972 72.82C214.892 73.57 219.772 82.97 222.112 91.12V91.1L221.482 82.65C221.482 82.65 221.482 82.63 221.482 82.62C221.482 82.6 218.662 71.97 214.332 69.52C210.002 67.07 190.802 71.68 185.812 74.41C180.822 77.14 179.832 91.15 179.832 91.15L179.852 91.22C180.602 93.56 181.372 96.03 182.152 98.59L182.172 98.65C182.172 98.65 183.172 80.62 188.072 77.89C189.042 77.35 190.442 76.8 192.092 76.26" fill="#1A0F37"/>
<path d="M194.192 79.48C193.172 79.48 192.342 80.31 192.342 81.33C192.342 82.35 193.172 83.18 194.192 83.18C195.212 83.18 196.042 82.35 196.042 81.33C196.042 80.31 195.212 79.48 194.192 79.48ZM194.192 82C193.822 82 193.522 81.7 193.522 81.33C193.522 80.96 193.822 80.66 194.192 80.66C194.562 80.66 194.862 80.96 194.862 81.33C194.862 81.7 194.562 82 194.192 82Z" fill="#8C84A0"/>
<path d="M195.492 84.8C194.472 84.8 193.642 85.63 193.642 86.65C193.642 87.67 194.472 88.5 195.492 88.5C196.512 88.5 197.342 87.67 197.342 86.65C197.342 85.63 196.512 84.8 195.492 84.8ZM195.492 87.32C195.122 87.32 194.822 87.02 194.822 86.65C194.822 86.28 195.122 85.98 195.492 85.98C195.862 85.98 196.162 86.28 196.162 86.65C196.162 87.02 195.862 87.32 195.492 87.32Z" fill="#8C84A0"/>
<path d="M196.492 89.95C195.472 89.95 194.642 90.78 194.642 91.8C194.642 92.82 195.472 93.65 196.492 93.65C197.512 93.65 198.342 92.82 198.342 91.8C198.342 90.78 197.512 89.95 196.492 89.95ZM196.492 92.47C196.122 92.47 195.822 92.17 195.822 91.8C195.822 91.43 196.122 91.13 196.492 91.13C196.862 91.13 197.162 91.43 197.162 91.8C197.162 92.17 196.862 92.47 196.492 92.47Z" fill="#8C84A0"/>
<path d="M197.532 95.11C196.512 95.11 195.682 95.94 195.682 96.96C195.682 97.98 196.512 98.81 197.532 98.81C198.552 98.81 199.382 97.98 199.382 96.96C199.382 95.94 198.552 95.11 197.532 95.11ZM197.532 97.63C197.162 97.63 196.862 97.33 196.862 96.96C196.862 96.59 197.162 96.29 197.532 96.29C197.902 96.29 198.202 96.59 198.202 96.96C198.202 97.33 197.902 97.63 197.532 97.63Z" fill="#8C84A0"/>
<path d="M209.432 93.11C208.412 93.11 207.582 93.94 207.582 94.96C207.582 95.98 208.412 96.81 209.432 96.81C210.452 96.81 211.282 95.98 211.282 94.96C211.282 93.94 210.452 93.11 209.432 93.11ZM209.432 95.63C209.062 95.63 208.762 95.33 208.762 94.96C208.762 94.59 209.062 94.29 209.432 94.29C209.802 94.29 210.102 94.59 210.102 94.96C210.102 95.33 209.802 95.63 209.432 95.63Z" fill="#8C84A0"/>
<path d="M207.372 82.28C206.352 82.28 205.522 83.11 205.522 84.13C205.522 85.15 206.352 85.98 207.372 85.98C208.392 85.98 209.222 85.15 209.222 84.13C209.222 83.11 208.392 82.28 207.372 82.28ZM207.372 84.8C207.002 84.8 206.702 84.5 206.702 84.13C206.702 83.76 207.002 83.46 207.372 83.46C207.742 83.46 208.042 83.76 208.042 84.13C208.042 84.5 207.742 84.8 207.372 84.8Z" fill="#8C84A0"/>
<path d="M208.642 87.81C207.622 87.81 206.792 88.64 206.792 89.66C206.792 90.68 207.622 91.51 208.642 91.51C209.662 91.51 210.492 90.68 210.492 89.66C210.492 88.64 209.662 87.81 208.642 87.81ZM208.642 90.33C208.272 90.33 207.972 90.03 207.972 89.66C207.972 89.29 208.272 88.99 208.642 88.99C209.012 88.99 209.312 89.29 209.312 89.66C209.312 90.03 209.012 90.33 208.642 90.33Z" fill="#8C84A0"/>
<path d="M206.192 76.75C205.172 76.75 204.342 77.58 204.342 78.6C204.342 79.62 205.172 80.45 206.192 80.45C207.212 80.45 208.042 79.62 208.042 78.6C208.042 77.58 207.212 76.75 206.192 76.75ZM206.192 79.27C205.822 79.27 205.522 78.97 205.522 78.6C205.522 78.23 205.822 77.93 206.192 77.93C206.562 77.93 206.862 78.23 206.862 78.6C206.862 78.97 206.562 79.27 206.192 79.27Z" fill="#8C84A0"/>
<path d="M194.142 82.12C194.142 82.12 201.212 79.97 205.362 79.77C205.362 79.77 206.212 79.66 206.482 79.48C206.752 79.3 206.592 77.68 205.742 77.65C204.892 77.62 202.342 77.13 197.102 78.9C196.792 79 196.482 79.14 196.192 79.29C194.732 80.05 193.842 80.47 193.852 80.84C193.872 81.26 193.612 82.02 194.142 82.12Z" fill="#F7F4FF"/>
<path d="M197.262 92.17C197.262 92.17 203.132 87.68 206.852 85.92C206.852 85.92 207.552 85.51 207.632 85.08C207.792 84.13 207.552 83.38 206.742 83.64C205.932 83.9 203.162 84.52 198.862 87.96C198.612 88.16 198.362 88.4 198.152 88.64C197.052 89.85 196.352 90.54 196.502 90.9C196.662 91.28 196.742 92.26 197.272 92.17H197.262Z" fill="#F7F4FF"/>
<path d="M195.342 87.32C195.342 87.32 203.242 88.46 207.172 90.14C207.172 90.14 208.012 90.42 208.342 90.38C208.672 90.34 209.202 89.16 208.422 88.76C207.642 88.36 205.552 86.43 199.902 85.67C199.572 85.63 199.222 85.61 198.882 85.61C197.192 85.64 195.852 85.77 195.692 86.11C195.522 86.49 194.882 86.99 195.322 87.32H195.342Z" fill="#F7F4FF"/>
<path d="M196.642 92.72C196.642 92.72 204.242 93.79 208.172 95.47C208.172 95.47 208.642 95.78 209.402 95.63C209.842 95.54 209.942 94.45 209.162 94.04C208.382 93.63 206.552 91.75 200.912 90.99C200.582 90.95 200.232 90.93 199.892 90.93C198.202 90.96 197.192 90.93 197.032 91.28C196.862 91.66 196.202 92.39 196.642 92.71V92.72Z" fill="#F7F4FF"/>
<path d="M197.942 97.48C197.942 97.48 203.842 92.69 207.662 91.09C207.662 91.09 208.422 90.69 208.612 90.43C208.802 90.17 208.092 88.7 207.282 88.97C206.472 89.24 203.922 89.65 199.622 93.09C199.372 93.29 199.122 93.53 198.912 93.77C197.812 94.98 197.102 96.12 197.242 96.47C197.402 96.85 197.412 97.58 197.942 97.49V97.48Z" fill="#F7F4FF"/>
<path d="M304.162 76.15C303.282 78.58 302.252 81.47 301.152 84.68C295.292 101.79 287.352 127.62 287.352 136.94C285.782 145.63 281.342 147.4 274.782 149.89C268.392 149.89 253.852 148.29 247.642 140.67C241.432 133.04 252.622 111.76 255.272 89.59C255.562 85.04 256.132 77.42 256.752 71.58C257.142 67.95 257.542 65 257.922 63.92C261.402 50.75 274.842 39.42 287.612 42.8C300.382 46.18 307.652 62.99 304.162 76.15Z" fill="#F7F4FF"/>
<path d="M291.232 74.42C286.242 71.69 267.042 67.08 262.712 69.53C258.382 71.97 255.572 82.61 255.562 82.63C255.742 80.5 255.922 78.39 256.122 76.47C256.482 72.84 256.872 69.89 257.222 68.81C260.502 55.64 273.102 44.33 285.062 47.72C297.022 51.11 303.822 67.92 300.542 81.09C299.712 83.51 298.752 86.41 297.722 89.62C297.552 90.15 297.372 90.7 297.202 91.25L297.222 91.18C297.222 91.18 296.232 77.17 291.242 74.44L291.232 74.42Z" fill="#322B84"/>
<path d="M291.232 74.42C286.242 71.69 267.042 67.08 262.712 69.53C258.382 71.97 255.572 82.61 255.562 82.63C255.742 80.5 255.922 78.39 256.122 76.47C256.482 72.84 256.872 69.89 257.222 68.81C260.502 55.64 273.102 44.33 285.062 47.72C297.022 51.11 303.822 67.92 300.542 81.09C299.712 83.51 298.752 86.41 297.722 89.62C297.552 90.15 297.372 90.7 297.202 91.25L297.222 91.18C297.222 91.18 296.232 77.17 291.242 74.44L291.232 74.42Z" fill="url(#paint1_linear_2356_11579)"/>
<path d="M255.562 82.65L254.932 91.1C255.102 88.54 255.322 85.58 255.562 82.65Z" fill="#D8D8D8"/>
<path d="M294.892 98.6C295.672 96.04 296.452 93.57 297.192 91.23L294.892 98.6Z" fill="#828282"/>
<path d="M285.072 75.54C285.072 75.54 285.032 75.81 284.952 76.27C281.322 75.09 276.492 74 272.442 73.34C272.582 72.87 272.672 72.53 272.692 72.38L285.072 75.53V75.54Z" fill="#828282"/>
<path d="M281.922 133.99C279.852 148.11 275.422 148.91 274.202 149.52C271.632 150.82 256.512 148.39 252.182 143.68C247.852 138.97 248.422 124.72 251.052 120.57C252.062 118.98 254.782 116.99 257.862 114.87C258.022 115.79 258.332 116.69 258.882 117.54C261.992 122.34 271.832 124.63 277.592 119.49C278.062 119.07 278.492 118.29 278.872 117.35C281.082 121.73 282.932 127.11 281.922 133.99Z" fill="#D8D8D8"/>
<path d="M279.222 116.33C279.322 116.02 279.412 115.71 279.502 115.38C279.412 115.7 279.322 116.02 279.222 116.33Z" fill="#F5F5F5"/>
<path d="M279.282 73.95L281.462 74.34C281.462 74.34 281.442 74.44 281.402 74.61L279.262 74.06C279.282 73.99 279.292 73.95 279.292 73.95H279.282Z" fill="#828282"/>
<path d="M279.182 116.46C279.182 116.46 279.212 116.37 279.222 116.33C279.212 116.37 279.192 116.42 279.182 116.46Z" fill="#828282"/>
<path d="M279.252 74.06L281.392 74.61C280.772 77.37 275.372 101.37 275.402 104.54C275.432 107.78 277.302 110.96 279.492 115.39C279.402 115.71 279.312 116.03 279.212 116.34C279.202 116.38 279.182 116.43 279.172 116.47C279.072 116.78 278.962 117.08 278.852 117.36C276.522 112.74 273.792 109.22 273.572 106.23C273.162 100.61 278.832 75.87 279.242 74.06H279.252Z" fill="#1A0F37"/>
<path d="M282.862 138.56C282.862 138.56 280.552 151.27 272.222 151.22C262.742 151.16 251.112 145.29 249.702 143.31C248.292 141.33 246.992 125.27 250.052 119.95C251.422 117.56 254.542 114.96 257.792 112.51C257.712 113.3 257.722 114.1 257.852 114.89C254.772 117.01 252.052 119.01 251.042 120.59C248.402 124.73 247.842 138.99 252.172 143.7C256.502 148.41 271.622 150.83 274.192 149.54C275.412 148.93 279.842 148.13 281.912 134.01C282.922 127.14 281.072 121.76 278.862 117.37C279.102 116.76 279.312 116.09 279.502 115.4C280.392 117.21 281.342 119.22 282.242 121.54C284.842 128.25 282.852 138.58 282.852 138.58L282.862 138.56Z" fill="#828282"/>
<path d="M247.522 145.54C253.332 153.17 266.962 154.78 272.942 154.79C279.092 152.31 283.252 150.54 284.732 141.85C284.732 135.44 288.272 121.24 292.262 107.44C293.132 104.45 294.012 101.48 294.892 98.6L294.872 98.66C294.872 98.66 293.872 80.63 288.972 77.9C288.002 77.36 286.602 76.81 284.952 76.27C284.882 76.71 284.782 77.34 284.662 78.12C284.912 76.52 285.072 75.54 285.072 75.54L281.402 74.61C280.782 77.37 275.382 101.37 275.412 104.54C275.442 107.78 277.312 110.96 279.502 115.39C280.392 117.2 281.342 119.21 282.242 121.53C284.842 128.24 282.852 138.57 282.852 138.57C282.852 138.57 280.542 151.28 272.212 151.23C262.732 151.17 251.102 145.3 249.692 143.32C248.282 141.34 246.982 125.28 250.042 119.96C251.412 117.57 254.532 114.97 257.782 112.52C261.792 109.5 266.012 106.7 267.452 104.83C269.972 101.56 273.622 74.67 273.882 72.72L272.642 72.4C272.622 72.55 272.532 72.88 272.392 73.35C268.972 72.79 266.112 72.55 265.042 72.83C262.122 73.58 257.242 82.98 254.902 91.13C254.822 92.35 254.742 93.49 254.682 94.48C252.182 116.65 241.672 137.92 247.482 145.56L247.522 145.54ZM283.172 87.78C283.202 87.59 283.232 87.41 283.252 87.22C283.222 87.4 283.192 87.59 283.172 87.78ZM281.832 96.71C281.862 96.52 281.892 96.33 281.912 96.14C281.882 96.33 281.852 96.52 281.832 96.71ZM281.622 98.13C281.642 98.01 281.662 97.88 281.672 97.76C281.652 97.88 281.632 98.01 281.622 98.13ZM281.422 99.55C281.432 99.47 281.442 99.38 281.462 99.29C281.452 99.37 281.442 99.46 281.422 99.55ZM280.682 104.95C280.702 104.82 280.712 104.69 280.732 104.55C280.712 104.69 280.702 104.81 280.682 104.95ZM280.552 105.98C280.572 105.85 280.582 105.73 280.602 105.6C280.582 105.73 280.572 105.86 280.552 105.98ZM280.252 108.88C280.252 108.82 280.252 108.75 280.262 108.68C280.262 108.75 280.252 108.82 280.252 108.88ZM280.252 109.14C280.252 109.14 280.252 109.23 280.252 109.26C280.252 109.23 280.252 109.18 280.252 109.14ZM284.652 78.21C284.612 78.45 284.572 78.7 284.532 78.96C284.572 78.7 284.612 78.44 284.652 78.21ZM283.992 82.41C283.952 82.65 283.912 82.9 283.882 83.15C283.922 82.9 283.962 82.66 283.992 82.41ZM284.182 81.2C284.142 81.49 284.092 81.78 284.042 82.08C284.092 81.78 284.132 81.49 284.182 81.2ZM284.332 80.27C284.302 80.47 284.272 80.67 284.232 80.88C284.262 80.67 284.292 80.47 284.332 80.27ZM284.522 79.08C284.492 79.3 284.452 79.54 284.412 79.78C284.452 79.54 284.482 79.31 284.522 79.08Z" fill="#322B84"/>
<path d="M257.862 114.88C262.822 111.46 268.712 107.72 269.872 104.82C271.652 100.37 275.612 75.88 276.042 73.25L279.232 74.06C278.812 75.87 273.142 100.61 273.562 106.23C273.782 109.22 276.512 112.74 278.842 117.36C278.472 118.3 278.042 119.07 277.562 119.5C271.812 124.65 261.962 122.35 258.852 117.55C258.312 116.71 257.982 115.82 257.832 114.91" fill="#443B5B"/>
<path d="M273.922 72.58L276.082 73C276.082 73 276.072 73.09 276.042 73.24L273.902 72.7C273.902 72.63 273.922 72.58 273.922 72.58Z" fill="#828282"/>
<path d="M257.802 112.5C261.812 109.48 266.032 106.68 267.472 104.81C269.992 101.54 273.642 74.65 273.902 72.7L276.042 73.24C275.622 75.87 271.652 100.36 269.872 104.81C268.712 107.71 262.822 111.46 257.862 114.87" fill="#1A0F37"/>
<path d="M272.442 73.35C269.012 72.79 266.142 72.54 265.062 72.82C262.142 73.57 257.262 82.97 254.922 91.12V91.1L255.552 82.65C255.552 82.65 255.552 82.63 255.552 82.62C255.552 82.6 258.372 71.97 262.702 69.52C267.032 67.07 286.232 71.68 291.222 74.41C296.212 77.14 297.202 91.15 297.202 91.15L297.182 91.22C296.432 93.56 295.662 96.03 294.882 98.59L294.862 98.65C294.862 98.65 293.862 80.62 288.962 77.89C287.992 77.35 286.592 76.8 284.942 76.26" fill="#1A0F37"/>
<path d="M281.002 81.33C281.002 82.35 281.832 83.18 282.852 83.18C283.872 83.18 284.702 82.35 284.702 81.33C284.702 80.31 283.872 79.48 282.852 79.48C281.832 79.48 281.002 80.31 281.002 81.33ZM282.182 81.33C282.182 80.96 282.482 80.66 282.852 80.66C283.222 80.66 283.522 80.96 283.522 81.33C283.522 81.7 283.222 82 282.852 82C282.482 82 282.182 81.7 282.182 81.33Z" fill="#8C84A0"/>
<path d="M279.702 86.65C279.702 87.67 280.532 88.5 281.552 88.5C282.572 88.5 283.402 87.67 283.402 86.65C283.402 85.63 282.572 84.8 281.552 84.8C280.532 84.8 279.702 85.63 279.702 86.65ZM280.882 86.65C280.882 86.28 281.182 85.98 281.552 85.98C281.922 85.98 282.222 86.28 282.222 86.65C282.222 87.02 281.922 87.32 281.552 87.32C281.182 87.32 280.882 87.02 280.882 86.65Z" fill="#8C84A0"/>
<path d="M278.702 91.8C278.702 92.82 279.532 93.65 280.552 93.65C281.572 93.65 282.402 92.82 282.402 91.8C282.402 90.78 281.572 89.95 280.552 89.95C279.532 89.95 278.702 90.78 278.702 91.8ZM279.882 91.8C279.882 91.43 280.182 91.13 280.552 91.13C280.922 91.13 281.222 91.43 281.222 91.8C281.222 92.17 280.922 92.47 280.552 92.47C280.182 92.47 279.882 92.17 279.882 91.8Z" fill="#8C84A0"/>
<path d="M277.662 96.96C277.662 97.98 278.492 98.81 279.512 98.81C280.532 98.81 281.362 97.98 281.362 96.96C281.362 95.94 280.532 95.11 279.512 95.11C278.492 95.11 277.662 95.94 277.662 96.96ZM278.842 96.96C278.842 96.59 279.142 96.29 279.512 96.29C279.882 96.29 280.182 96.59 280.182 96.96C280.182 97.33 279.882 97.63 279.512 97.63C279.142 97.63 278.842 97.33 278.842 96.96Z" fill="#8C84A0"/>
<path d="M265.762 94.96C265.762 95.98 266.592 96.81 267.612 96.81C268.632 96.81 269.462 95.98 269.462 94.96C269.462 93.94 268.632 93.11 267.612 93.11C266.592 93.11 265.762 93.94 265.762 94.96ZM266.942 94.96C266.942 94.59 267.242 94.29 267.612 94.29C267.982 94.29 268.282 94.59 268.282 94.96C268.282 95.33 267.982 95.63 267.612 95.63C267.242 95.63 266.942 95.33 266.942 94.96Z" fill="#8C84A0"/>
<path d="M267.822 84.13C267.822 85.15 268.652 85.98 269.672 85.98C270.692 85.98 271.522 85.15 271.522 84.13C271.522 83.11 270.692 82.28 269.672 82.28C268.652 82.28 267.822 83.11 267.822 84.13ZM269.002 84.13C269.002 83.76 269.302 83.46 269.672 83.46C270.042 83.46 270.342 83.76 270.342 84.13C270.342 84.5 270.042 84.8 269.672 84.8C269.302 84.8 269.002 84.5 269.002 84.13Z" fill="#8C84A0"/>
<path d="M266.542 89.66C266.542 90.68 267.372 91.51 268.392 91.51C269.412 91.51 270.242 90.68 270.242 89.66C270.242 88.64 269.412 87.81 268.392 87.81C267.372 87.81 266.542 88.64 266.542 89.66ZM267.722 89.66C267.722 89.29 268.022 88.99 268.392 88.99C268.762 88.99 269.062 89.29 269.062 89.66C269.062 90.03 268.762 90.33 268.392 90.33C268.022 90.33 267.722 90.03 267.722 89.66Z" fill="#8C84A0"/>
<path d="M269.002 78.6C269.002 79.62 269.832 80.45 270.852 80.45C271.872 80.45 272.702 79.62 272.702 78.6C272.702 77.58 271.872 76.75 270.852 76.75C269.832 76.75 269.002 77.58 269.002 78.6ZM270.182 78.6C270.182 78.23 270.482 77.93 270.852 77.93C271.222 77.93 271.522 78.23 271.522 78.6C271.522 78.97 271.222 79.27 270.852 79.27C270.482 79.27 270.182 78.97 270.182 78.6Z" fill="#8C84A0"/>
<path d="M282.902 82.12C282.902 82.12 275.832 79.97 271.682 79.77C271.682 79.77 270.832 79.66 270.562 79.48C270.292 79.3 270.452 77.68 271.302 77.65C272.152 77.62 274.702 77.13 279.942 78.9C280.252 79 280.562 79.14 280.852 79.29C282.312 80.05 283.202 80.47 283.192 80.84C283.172 81.26 283.432 82.02 282.902 82.12Z" fill="#F7F4FF"/>
<path d="M279.782 92.17C279.782 92.17 273.912 87.68 270.192 85.92C270.192 85.92 269.492 85.51 269.412 85.08C269.252 84.13 269.492 83.38 270.302 83.64C271.112 83.9 273.882 84.52 278.182 87.96C278.432 88.16 278.682 88.4 278.892 88.64C279.992 89.85 280.692 90.54 280.542 90.9C280.382 91.28 280.302 92.26 279.772 92.17H279.782Z" fill="#F7F4FF"/>
<path d="M281.702 87.32C281.702 87.32 273.802 88.46 269.872 90.14C269.872 90.14 269.032 90.42 268.702 90.38C268.372 90.34 267.842 89.16 268.622 88.76C269.402 88.36 271.492 86.43 277.142 85.67C277.472 85.63 277.822 85.61 278.162 85.61C279.852 85.64 281.192 85.77 281.352 86.11C281.522 86.49 282.162 86.99 281.722 87.32H281.702Z" fill="#F7F4FF"/>
<path d="M280.392 92.72C280.392 92.72 272.792 93.79 268.862 95.47C268.862 95.47 268.392 95.78 267.632 95.63C267.192 95.54 267.092 94.45 267.872 94.04C268.652 93.63 270.482 91.75 276.122 90.99C276.452 90.95 276.802 90.93 277.142 90.93C278.832 90.96 279.842 90.93 280.002 91.28C280.172 91.66 280.832 92.39 280.392 92.71V92.72Z" fill="#F7F4FF"/>
<path d="M279.092 97.48C279.092 97.48 273.192 92.69 269.372 91.09C269.372 91.09 268.612 90.69 268.422 90.43C268.232 90.17 268.942 88.7 269.752 88.97C270.562 89.24 273.112 89.65 277.412 93.09C277.662 93.29 277.912 93.53 278.122 93.77C279.222 94.98 279.932 96.12 279.792 96.47C279.632 96.85 279.622 97.58 279.092 97.49V97.48Z" fill="#F7F4FF"/>
<path d="M210.222 102.19C193.932 102.19 182.382 115.12 178.122 130.97L207.032 141.68L237.642 130.97C238.272 113.67 226.522 102.19 210.222 102.19Z" fill="#CB6C66"/>
<path d="M210.222 102.19C193.932 102.19 182.382 115.12 178.122 130.97L207.032 141.68L237.642 130.97C238.272 113.67 226.522 102.19 210.222 102.19Z" fill="url(#paint2_linear_2356_11579)"/>
<path d="M178.112 130.98H237.642L233.642 259.98H139.112L178.112 130.98Z" fill="#CB6C66"/>
<path d="M178.112 130.98H237.642L233.642 259.98H139.112L178.112 130.98Z" fill="url(#paint3_linear_2356_11579)"/>
<path d="M269.102 102.19C285.392 102.19 296.942 115.12 301.202 130.97L274.102 152.15L241.682 130.97C241.052 113.67 252.802 102.19 269.102 102.19Z" fill="#CB6C66"/>
<path d="M269.102 102.19C285.392 102.19 296.942 115.12 301.202 130.97L274.102 152.15L241.682 130.97C241.052 113.67 252.802 102.19 269.102 102.19Z" fill="url(#paint4_linear_2356_11579)"/>
<path d="M301.212 130.98H241.682L245.682 259.98H340.212L301.212 130.98Z" fill="#CB6C66"/>
<path d="M301.212 130.98H241.682L245.682 259.98H340.212L301.212 130.98Z" fill="url(#paint5_linear_2356_11579)"/>
<path d="M236.302 260L237.312 164.89C221.152 159.22 192.932 150.74 146.412 164.73L113.412 260H236.302Z" fill="#1F0E50"/>
<path d="M243.042 260L242.032 164.89C258.192 159.22 286.412 150.74 332.932 164.73L365.932 260H243.042Z" fill="#1F0E50"/>
<g clip-path="url(#clip1_2356_11579)">
<path d="M284.259 159.647L270.817 165.27C266.904 166.906 265.059 171.405 266.696 175.318L266.7 175.328C268.337 179.241 272.836 181.086 276.749 179.449L290.19 173.826C294.103 172.189 295.948 167.69 294.311 163.777L294.308 163.768C292.671 159.855 288.172 158.01 284.259 159.647Z" fill="#CB6C66"/>
<path d="M241.932 232.331L208.122 222.861C208.122 222.861 203.962 216.991 204.012 216.171C204.062 215.351 204.572 207.021 209.712 199.121C214.852 191.211 214.152 180.351 212.022 174.871C209.892 169.401 205.882 169.971 203.712 169.571C201.542 169.161 199.922 173.311 199.912 177.971C199.902 182.631 198.492 192.131 188.962 204.571C179.432 217.001 179.892 225.111 179.382 231.251C178.952 236.401 162.312 254.271 157.002 259.861H206.722C207.552 259.471 208.272 259.191 208.822 259.031C232.842 253.961 241.932 232.341 241.932 232.341V232.331Z" fill="#CB6C66"/>
<path d="M241.932 232.331L208.122 222.861C208.122 222.861 203.962 216.991 204.012 216.171C204.062 215.351 204.572 207.021 209.712 199.121C214.852 191.211 214.152 180.351 212.022 174.871C209.892 169.401 205.882 169.971 203.712 169.571C201.542 169.161 199.922 173.311 199.912 177.971C199.902 182.631 198.492 192.131 188.962 204.571C179.432 217.001 179.892 225.111 179.382 231.251C178.952 236.401 162.312 254.271 157.002 259.861H206.722C207.552 259.471 208.272 259.191 208.822 259.031C232.842 253.961 241.932 232.341 241.932 232.341V232.331Z" fill="url(#paint6_linear_2356_11579)"/>
<path d="M198.732 199.359C198.732 195.453 200.156 193.1 200.868 192.412L204.205 190.534L216.353 260.001H201.802C200.779 241.414 198.732 203.264 198.732 199.359Z" fill="url(#paint7_linear_2356_11579)"/>
<path d="M278.492 259.851H206.732L198.732 149.791H286.492L278.492 259.851Z" fill="#7970AF"/>
<path d="M274.492 259.851H210.732L204.732 156.791H280.492L274.492 259.851Z" fill="#EAE7FF"/>
<path d="M274.492 259.851H210.732L204.732 156.791H280.492L274.492 259.851Z" fill="url(#paint8_linear_2356_11579)"/>
<path d="M278.492 145.321H206.732L198.732 149.791H286.492L278.492 145.321Z" fill="#C4BFE2"/>
<path d="M251.732 160.761H233.452C232.983 160.761 232.602 161.139 232.602 161.606C232.602 162.072 232.983 162.451 233.452 162.451H251.732C252.201 162.451 252.582 162.072 252.582 161.606C252.582 161.139 252.201 160.761 251.732 160.761Z" fill="#3D3061"/>
<path d="M230.862 162.481C231.337 162.481 231.722 162.096 231.722 161.621C231.722 161.146 231.337 160.761 230.862 160.761C230.387 160.761 230.002 161.146 230.002 161.621C230.002 162.096 230.387 162.481 230.862 162.481Z" fill="#3D3061"/>
<path d="M146.942 259.981L146.402 259.861C146.362 259.971 146.552 260.031 146.942 259.981Z" fill="#A8A8A8"/>
<path d="M169.622 231.941L169.652 231.921L169.622 231.941Z" fill="#A8A8A8"/>
<path d="M200.332 209.461C200.202 208.651 198.912 200.411 202.242 191.581C205.572 182.751 202.542 172.291 199.292 167.401C196.032 162.511 192.242 163.931 190.042 164.001C187.842 164.071 187.142 168.471 188.132 173.021C189.122 177.571 189.792 187.161 183.152 201.351C176.512 215.541 178.702 223.361 179.522 229.461C179.572 229.861 179.532 230.361 179.452 230.951C179.402 231.281 179.352 231.591 179.302 231.921L201.158 212.779C199.078 213.309 200.342 209.511 200.342 209.461H200.332Z" fill="#CB6C66"/>
<path d="M200.332 209.461C200.202 208.651 198.912 200.411 202.242 191.581C205.572 182.751 202.542 172.291 199.292 167.401C196.032 162.511 192.242 163.931 190.042 164.001C187.842 164.071 187.142 168.471 188.132 173.021C189.122 177.571 189.792 187.161 183.152 201.351C176.512 215.541 178.702 223.361 179.522 229.461C179.572 229.861 179.532 230.361 179.452 230.951C179.402 231.281 179.352 231.591 179.302 231.921L201.158 212.779C199.078 213.309 200.342 209.511 200.342 209.461H200.332Z" fill="url(#paint9_linear_2356_11579)"/>
<path d="M271.281 215.617L280.289 210.416C283.173 208.751 286.866 209.741 288.531 212.625L288.707 212.93C290.372 215.814 289.383 219.507 286.499 221.172L277.185 226.549C274.301 228.215 270.608 227.225 268.943 224.341C267.18 221.287 268.222 217.372 271.284 215.604L271.281 215.617Z" fill="#6B5B99"/>
<path d="M280.05 194.424L266.884 199.931C263.052 201.534 261.197 205.829 262.743 209.522L262.746 209.531C264.291 213.225 268.651 214.92 272.484 213.317L285.649 207.809C289.482 206.206 291.336 201.912 289.791 198.218L289.787 198.209C288.242 194.515 283.883 192.821 280.05 194.424Z" fill="#6B5B99"/>
<path d="M281.425 177.834L268.26 183.341C264.427 184.944 262.551 189.186 264.069 192.816L264.073 192.824C265.591 196.454 269.929 198.096 273.762 196.493L286.927 190.986C290.76 189.383 292.636 185.141 291.118 181.511L291.114 181.502C289.596 177.873 285.258 176.23 281.425 177.834Z" fill="#6B5B99"/>
<path d="M272.811 214.557L282.009 209.247C284.953 207.547 288.723 208.558 290.423 211.502L290.603 211.814C292.303 214.758 291.293 218.529 288.349 220.229L278.84 225.719C275.895 227.419 272.125 226.408 270.425 223.464C268.625 220.346 269.689 216.349 272.815 214.544L272.811 214.557Z" fill="#CB6C66"/>
<path d="M281.765 192.92L268.323 198.542C264.41 200.179 262.565 204.678 264.202 208.591L264.206 208.601C265.843 212.514 270.342 214.359 274.255 212.722L287.696 207.099C291.609 205.462 293.454 200.963 291.817 197.05L291.813 197.041C290.177 193.128 285.678 191.283 281.765 192.92Z" fill="#CB6C66"/>
<path d="M283.169 175.982L269.727 181.604C265.814 183.241 263.969 187.74 265.606 191.653L265.61 191.662C267.247 195.575 271.746 197.421 275.659 195.784L289.1 190.161C293.013 188.524 294.858 184.025 293.222 180.112L293.218 180.103C291.581 176.19 287.082 174.345 283.169 175.982Z" fill="#CB6C66"/>
<path d="M274.302 183.43L269.35 185.502C267.908 186.105 267.49 188.389 268.417 190.604L268.419 190.609C269.346 192.824 271.265 194.131 272.707 193.528L277.659 191.456C279.101 190.853 279.518 188.569 278.592 186.354L278.59 186.349C277.663 184.134 275.743 182.827 274.302 183.43Z" fill="#E3837D"/>
<path d="M272.488 200.488L267.536 202.559C266.094 203.162 265.677 205.447 266.603 207.662L266.605 207.667C267.532 209.882 269.452 211.189 270.893 210.586L275.845 208.514C277.287 207.911 277.705 205.627 276.778 203.412L276.776 203.406C275.849 201.192 273.93 199.885 272.488 200.488Z" fill="#E3837D"/>
<path d="M276.456 215.948L272.625 218.229C271.51 218.893 271.379 220.728 272.331 222.329L272.334 222.333C273.286 223.933 274.963 224.692 276.078 224.028L279.908 221.748C281.023 221.084 281.155 219.249 280.202 217.648L280.2 217.644C279.247 216.044 277.571 215.285 276.456 215.948Z" fill="#E3837D"/>
<ellipse cx="241.932" cy="217.904" rx="8.75866" ry="1.68436" fill="#3C2C69"/>
<path fill-rule="evenodd" clip-rule="evenodd" d="M246.791 211.882C246.907 211.704 247.076 211.568 247.272 211.488C252.193 209.474 255.653 204.703 255.653 199.137C255.653 191.751 249.56 185.764 242.044 185.764C234.529 185.764 228.436 191.751 228.436 199.137C228.436 204.702 231.895 209.474 236.816 211.488C237.012 211.568 237.181 211.704 237.297 211.881L240.366 216.612C241.155 217.827 242.933 217.827 243.722 216.612L246.791 211.882Z" fill="url(#paint10_linear_2356_11579)"/>
<path d="M224.752 198.705C224.752 196.313 226.691 194.373 229.083 194.373C230.04 194.373 230.815 195.149 230.815 196.106V204.095C230.815 205.051 230.04 205.827 229.083 205.827C226.691 205.827 224.752 203.888 224.752 201.496V198.705Z" fill="#615A7E"/>
<path fill-rule="evenodd" clip-rule="evenodd" d="M241.932 180.225C232.444 180.225 224.752 187.917 224.752 197.405V199.763H226.894V199.763H256.97V199.763H259.112V197.405C259.112 187.917 251.421 180.225 241.932 180.225ZM256.97 199.763V197.566C256.97 189.261 250.237 182.529 241.932 182.529C233.627 182.529 226.894 189.261 226.894 197.566V199.763H256.97Z" fill="#615A7E"/>
<path d="M253.049 196.106C253.049 195.149 253.824 194.373 254.781 194.373C257.173 194.373 259.112 196.313 259.112 198.705V201.496C259.112 203.888 257.173 205.827 254.781 205.827C253.824 205.827 253.049 205.051 253.049 204.095V196.106Z" fill="#615A7E"/>
<path d="M235.353 202.738V198.451H237.035C238.009 198.451 238.568 199.052 238.568 199.896C238.568 200.751 238 201.341 237.011 201.341H236.241V202.738H235.353ZM236.241 200.624H236.869C237.396 200.624 237.654 200.328 237.651 199.896C237.654 199.469 237.396 199.182 236.869 199.179H236.241V200.624Z" fill="#ECE6FF"/>
<path d="M239.427 202.791C239.149 202.791 238.924 202.569 238.93 202.294C238.924 202.022 239.149 201.8 239.427 201.802C239.691 201.8 239.919 202.022 239.919 202.294C239.919 202.569 239.691 202.791 239.427 202.791Z" fill="#ECE6FF"/>
<path d="M240.641 202.738V198.451H242.323C243.297 198.451 243.856 199.052 243.856 199.896C243.856 200.751 243.288 201.341 242.299 201.341H241.529V202.738H240.641ZM241.529 200.624H242.157C242.684 200.624 242.942 200.328 242.939 199.896C242.942 199.469 242.684 199.182 242.157 199.179H241.529V200.624Z" fill="#ECE6FF"/>
<path d="M245.278 198.451V202.738H244.401V198.451H245.278Z" fill="#ECE6FF"/>
<path d="M247.415 202.803C246.429 202.8 245.825 202.164 245.828 201.145C245.825 200.153 246.438 199.481 247.38 199.481C248.224 199.481 248.89 200.014 248.89 201.11V201.358H246.693C246.693 201.844 246.98 202.143 247.433 202.146C247.732 202.143 247.945 202.013 248.031 201.82H248.866C248.742 202.415 248.209 202.8 247.415 202.803ZM246.693 200.808H248.061C248.058 200.417 247.788 200.136 247.398 200.139C246.995 200.136 246.711 200.438 246.693 200.808Z" fill="#ECE6FF"/>
</g>
</g>
<defs>
<linearGradient id="paint0_linear_2356_11579" x1="195.418" y1="47.1123" x2="201.02" y2="70.8305" gradientUnits="userSpaceOnUse">
<stop stop-color="#211C55"/>
<stop offset="1" stop-color="#322B84"/>
<stop offset="1" stop-color="#322B84" stop-opacity="0"/>
</linearGradient>
<linearGradient id="paint1_linear_2356_11579" x1="284.416" y1="47.1123" x2="279.239" y2="70.2632" gradientUnits="userSpaceOnUse">
<stop stop-color="#211C55"/>
<stop offset="1" stop-color="#322B84"/>
</linearGradient>
<linearGradient id="paint2_linear_2356_11579" x1="207.894" y1="102.19" x2="207.894" y2="118.566" gradientUnits="userSpaceOnUse">
<stop stop-color="#A93C35"/>
<stop offset="1" stop-color="#CA6C65" stop-opacity="0"/>
</linearGradient>
<linearGradient id="paint3_linear_2356_11579" x1="188.377" y1="130.98" x2="190.039" y2="167.149" gradientUnits="userSpaceOnUse">
<stop stop-color="#CB6C66" stop-opacity="0"/>
<stop offset="1" stop-color="#8D2C26"/>
</linearGradient>
<linearGradient id="paint4_linear_2356_11579" x1="271.429" y1="102.19" x2="275.328" y2="117.38" gradientUnits="userSpaceOnUse">
<stop stop-color="#A93C35"/>
<stop offset="1" stop-color="#CB6C66" stop-opacity="0"/>
</linearGradient>
<linearGradient id="paint5_linear_2356_11579" x1="284.527" y1="133.257" x2="296.558" y2="167.149" gradientUnits="userSpaceOnUse">
<stop stop-color="#CB6C66" stop-opacity="0"/>
<stop offset="1" stop-color="#8D2C26"/>
</linearGradient>
<linearGradient id="paint6_linear_2356_11579" x1="199.467" y1="239.005" x2="199.467" y2="259.861" gradientUnits="userSpaceOnUse">
<stop stop-color="#CA6C66" stop-opacity="0"/>
<stop offset="1" stop-color="#AC4D46"/>
</linearGradient>
<linearGradient id="paint7_linear_2356_11579" x1="205.818" y1="235.494" x2="199.298" y2="235.659" gradientUnits="userSpaceOnUse">
<stop stop-color="#993F39"/>
<stop offset="0.910394" stop-color="#CB6C66" stop-opacity="0"/>
</linearGradient>
<linearGradient id="paint8_linear_2356_11579" x1="242.612" y1="156.791" x2="242.612" y2="259.851" gradientUnits="userSpaceOnUse">
<stop stop-color="#EAE7FF"/>
<stop offset="1" stop-color="#897AF4"/>
</linearGradient>
<linearGradient id="paint9_linear_2356_11579" x1="186.925" y1="168.352" x2="201.387" y2="173.376" gradientUnits="userSpaceOnUse">
<stop stop-color="#9D3C36"/>
<stop offset="1" stop-color="#CB6C66" stop-opacity="0"/>
</linearGradient>
<linearGradient id="paint10_linear_2356_11579" x1="233.289" y1="188.092" x2="257.368" y2="199.47" gradientUnits="userSpaceOnUse">
<stop stop-color="#C290EE"/>
<stop offset="1" stop-color="#9782F4"/>
</linearGradient>
<clipPath id="clip0_2356_11579">
<rect width="252.51" height="217.81" fill="white" transform="translate(113.412 42.19)"/>
</clipPath>
<clipPath id="clip1_2356_11579">
<rect width="148.5" height="114.68" fill="white" transform="translate(146.392 145.321)"/>
</clipPath>
</defs>
</svg>
