<svg width="390" height="258" viewBox="0 0 390 258" fill="none" xmlns="http://www.w3.org/2000/svg">
<rect x="-6.10352e-05" width="390" height="258" fill="#686CD3"/>
<g clip-path="url(#clip0_2356_11579)">
<path d="M172.211 84.6136C168.731 71.4436 175.991 54.6336 188.761 51.2636C201.531 47.8836 214.971 59.2136 218.451 72.3836C218.821 73.4736 219.231 76.4136 219.621 80.0436C220.241 85.8836 220.811 93.5036 221.101 98.0536C223.751 120.224 234.941 141.514 228.731 149.134C222.521 156.764 207.981 158.354 201.591 158.354C195.031 155.874 190.591 154.094 189.021 145.404C189.021 136.084 181.071 110.244 175.221 93.1436C174.121 89.9336 173.101 87.0436 172.211 84.6136Z" fill="#222346"/>
<path d="M303.311 84.6136C306.791 71.4436 299.531 54.6336 286.761 51.2636C273.991 47.8836 260.551 59.2136 257.071 72.3836C256.701 73.4736 256.291 76.4136 255.901 80.0436C255.281 85.8836 254.711 93.5036 254.421 98.0536C251.771 120.224 240.581 141.514 246.791 149.134C253.001 156.764 267.541 158.354 273.931 158.354C280.491 155.874 284.931 154.094 286.501 145.404C286.501 136.084 294.451 110.244 300.301 93.1436C301.401 89.9336 302.421 87.0436 303.311 84.6136Z" fill="#222346"/>
<path d="M172.211 77.6136C168.731 64.4436 175.991 47.6336 188.761 44.2636C201.531 40.8836 214.971 52.2136 218.451 65.3836C218.821 66.4736 219.231 69.4136 219.621 73.0436C220.241 78.8836 220.811 86.5036 221.101 91.0536C223.751 113.224 234.941 134.514 228.731 142.134C222.521 149.764 207.981 151.354 201.591 151.354C195.031 148.874 190.591 147.094 189.021 138.404C189.021 129.084 181.071 103.244 175.221 86.1436C174.121 82.9336 173.101 80.0436 172.211 77.6136Z" fill="#F7F4FF"/>
<path d="M172.872 74.15C169.392 60.98 176.652 44.17 189.422 40.8C202.192 37.42 215.632 48.75 219.112 61.92C219.482 63.01 219.892 65.95 220.282 69.58C220.902 75.42 221.472 83.04 221.762 87.59C224.412 109.76 235.602 131.05 229.392 138.67C223.182 146.3 208.642 147.89 202.252 147.89C195.692 145.41 191.252 143.63 189.682 134.94C189.682 125.62 181.732 99.78 175.882 82.68C174.782 79.47 173.762 76.58 172.872 74.15Z" fill="#F7F4FF"/>
<path d="M185.812 72.42C190.802 69.69 210.002 65.08 214.332 67.53C218.661 69.97 221.472 80.61 221.482 80.63C221.302 78.5 221.122 76.39 220.922 74.47C220.562 70.84 220.172 67.89 219.822 66.81C216.542 53.64 203.942 42.33 191.982 45.72C180.022 49.11 173.222 65.92 176.502 79.09C177.332 81.51 178.292 84.41 179.322 87.62C179.492 88.15 179.672 88.7 179.842 89.25L179.822 89.18C179.822 89.18 180.812 75.17 185.802 72.44L185.812 72.42Z" fill="#322B84"/>
<path d="M185.812 72.42C190.802 69.69 210.002 65.08 214.332 67.53C218.661 69.97 221.472 80.61 221.482 80.63C221.302 78.5 221.122 76.39 220.922 74.47C220.562 70.84 220.172 67.89 219.822 66.81C216.542 53.64 203.942 42.33 191.982 45.72C180.022 49.11 173.222 65.92 176.502 79.09C177.332 81.51 178.292 84.41 179.322 87.62C179.492 88.15 179.672 88.7 179.842 89.25L179.822 89.18C179.822 89.18 180.812 75.17 185.802 72.44L185.812 72.42Z" fill="url(#paint0_linear_2356_11579)"/>
<path d="M221.471 80.65L222.102 89.1C221.932 86.54 221.711 83.58 221.471 80.65Z" fill="#D8D8D8"/>
<path d="M182.151 96.6C181.371 94.04 180.592 91.57 179.852 89.23L182.151 96.6Z" fill="#828282"/>
<path d="M191.971 73.54C191.971 73.54 192.011 73.81 192.091 74.27C195.721 73.09 200.552 72 204.602 71.34C204.462 70.87 204.372 70.53 204.352 70.38L191.971 73.53V73.54Z" fill="#828282"/>
<path d="M195.121 131.99C197.191 146.11 201.622 146.91 202.842 147.52C205.411 148.82 220.531 146.39 224.861 141.68C229.191 136.97 228.622 122.72 225.992 118.57C224.982 116.98 222.261 114.99 219.181 112.87C219.021 113.79 218.712 114.69 218.162 115.54C215.052 120.34 205.212 122.63 199.452 117.49C198.982 117.07 198.552 116.29 198.172 115.35C195.962 119.73 194.111 125.11 195.121 131.99Z" fill="#D8D8D8"/>
<path d="M197.811 114.33C197.711 114.02 197.621 113.71 197.531 113.38C197.621 113.7 197.711 114.02 197.811 114.33Z" fill="#F5F5F5"/>
<path d="M197.761 71.95L195.581 72.34C195.581 72.34 195.602 72.44 195.642 72.61L197.782 72.06C197.762 71.99 197.751 71.95 197.751 71.95H197.761Z" fill="#828282"/>
<path d="M197.861 114.46C197.861 114.46 197.832 114.37 197.822 114.33C197.832 114.37 197.851 114.42 197.861 114.46Z" fill="#828282"/>
<path d="M198.182 115.36L198.172 115.35L198.182 115.36Z" fill="#828282"/>
<path d="M197.782 72.06L195.642 72.61C196.262 75.37 201.662 99.37 201.632 102.54C201.602 105.78 199.732 108.96 197.542 113.39C197.632 113.71 197.722 114.03 197.822 114.34C197.832 114.38 197.852 114.43 197.862 114.47C197.962 114.78 198.072 115.08 198.182 115.36C200.512 110.74 203.242 107.22 203.462 104.23C203.872 98.61 198.202 73.87 197.792 72.06H197.782Z" fill="#1A0F37"/>
<path d="M194.181 136.56C194.181 136.56 196.492 149.27 204.822 149.22C214.302 149.16 225.932 143.29 227.342 141.31C228.752 139.33 230.052 123.27 226.992 117.95C225.622 115.56 222.501 112.96 219.251 110.51C219.331 111.3 219.321 112.1 219.191 112.89C222.271 115.01 224.991 117.01 226.001 118.59C228.641 122.73 229.201 136.99 224.872 141.7C220.542 146.41 205.422 148.83 202.852 147.54C201.632 146.93 197.202 146.13 195.132 132.01C194.122 125.14 195.971 119.76 198.181 115.37C197.941 114.76 197.731 114.09 197.541 113.4C196.651 115.21 195.702 117.22 194.802 119.54C192.202 126.25 194.191 136.58 194.191 136.58L194.181 136.56Z" fill="#828282"/>
<path d="M222.322 92.46C222.262 91.47 222.192 90.34 222.102 89.11C219.762 80.96 214.882 71.56 211.962 70.81C210.892 70.53 208.031 70.78 204.611 71.33C204.471 70.86 204.381 70.52 204.361 70.38L203.121 70.7C203.381 72.65 207.031 99.55 209.551 102.81C210.991 104.68 215.211 107.47 219.221 110.5C222.471 112.95 225.592 115.56 226.962 117.94C230.022 123.27 228.722 139.33 227.312 141.3C225.902 143.27 214.281 149.15 204.791 149.21C196.461 149.26 194.151 136.55 194.151 136.55C194.151 136.55 192.161 126.22 194.761 119.51C195.661 117.19 196.611 115.18 197.501 113.37C199.691 108.94 201.561 105.76 201.591 102.52C201.622 99.35 196.232 75.36 195.602 72.59L191.931 73.52C191.931 73.52 192.091 74.5 192.341 76.1C192.221 75.32 192.121 74.69 192.051 74.25C190.401 74.79 188.992 75.34 188.032 75.88C183.142 78.61 182.132 96.64 182.132 96.64L182.111 96.58C182.991 99.45 183.882 102.42 184.742 105.42C188.732 119.23 192.261 133.43 192.271 139.83C193.751 148.52 197.912 150.29 204.062 152.77C210.042 152.77 223.671 151.15 229.481 143.52C235.292 135.89 224.792 114.61 222.282 92.44L222.322 92.46ZM193.782 85.22C193.812 85.4 193.841 85.59 193.861 85.78C193.831 85.59 193.802 85.41 193.782 85.22ZM195.111 94.13C195.141 94.32 195.171 94.51 195.191 94.7C195.161 94.51 195.131 94.32 195.111 94.13ZM195.341 95.74C195.361 95.86 195.382 95.99 195.392 96.11C195.372 95.99 195.351 95.86 195.341 95.74ZM195.562 97.28C195.572 97.36 195.582 97.45 195.602 97.54C195.592 97.46 195.582 97.37 195.562 97.28ZM196.282 102.55C196.302 102.69 196.311 102.81 196.331 102.95C196.311 102.82 196.302 102.69 196.282 102.55ZM196.411 103.59C196.431 103.72 196.442 103.85 196.462 103.97C196.442 103.84 196.431 103.72 196.411 103.59ZM196.742 106.67C196.742 106.74 196.751 106.81 196.751 106.87C196.751 106.81 196.752 106.74 196.742 106.67ZM196.771 107.25C196.771 107.25 196.771 107.17 196.771 107.13C196.771 107.17 196.771 107.22 196.771 107.25ZM192.492 76.96C192.452 76.7 192.411 76.44 192.371 76.21C192.411 76.45 192.452 76.7 192.492 76.96ZM193.142 81.15C193.102 80.9 193.062 80.66 193.032 80.41C193.072 80.65 193.102 80.89 193.142 81.15ZM192.971 80.08C192.921 79.78 192.881 79.49 192.831 79.2C192.871 79.49 192.921 79.78 192.971 80.08ZM192.782 78.88C192.752 78.67 192.721 78.47 192.681 78.27C192.711 78.47 192.742 78.67 192.782 78.88ZM192.611 77.78C192.571 77.54 192.541 77.31 192.501 77.08C192.541 77.31 192.571 77.53 192.611 77.78Z" fill="#322B84"/>
<path d="M219.181 112.88C214.221 109.46 208.331 105.72 207.171 102.82C205.391 98.37 201.431 73.88 201.001 71.25L197.811 72.06C198.231 73.87 203.901 98.61 203.481 104.23C203.261 107.22 200.531 110.74 198.201 115.36C198.571 116.3 199.001 117.07 199.481 117.5C205.231 122.65 215.081 120.35 218.191 115.55C218.731 114.71 219.061 113.82 219.211 112.91" fill="#443B5B"/>
<path d="M203.121 70.58L200.962 71C200.962 71 200.971 71.09 201.001 71.24L203.142 70.7C203.142 70.63 203.121 70.58 203.121 70.58Z" fill="#828282"/>
<path d="M219.242 110.5C215.232 107.48 211.012 104.68 209.572 102.81C207.052 99.54 203.402 72.65 203.142 70.7L201.001 71.24C201.421 73.87 205.392 98.36 207.172 102.81C208.332 105.71 214.221 109.46 219.181 112.87" fill="#1A0F37"/>
<path d="M204.591 71.35C208.021 70.79 210.891 70.54 211.971 70.82C214.891 71.57 219.771 80.97 222.111 89.12V89.1L221.481 80.65C221.481 80.65 221.481 80.63 221.481 80.62C221.481 80.6 218.661 69.97 214.331 67.52C210.001 65.07 190.802 69.68 185.812 72.41C180.822 75.14 179.831 89.15 179.831 89.15L179.852 89.22C180.602 91.56 181.371 94.03 182.151 96.59L182.172 96.65C182.172 96.65 183.172 78.62 188.072 75.89C189.042 75.35 190.441 74.8 192.091 74.26" fill="#1A0F37"/>
<path d="M194.191 77.48C193.171 77.48 192.341 78.31 192.341 79.33C192.341 80.35 193.171 81.18 194.191 81.18C195.211 81.18 196.041 80.35 196.041 79.33C196.041 78.31 195.211 77.48 194.191 77.48ZM194.191 80C193.821 80 193.521 79.7 193.521 79.33C193.521 78.96 193.821 78.66 194.191 78.66C194.561 78.66 194.861 78.96 194.861 79.33C194.861 79.7 194.561 80 194.191 80Z" fill="#8C84A0"/>
<path d="M195.492 82.8C194.472 82.8 193.642 83.63 193.642 84.65C193.642 85.67 194.472 86.5 195.492 86.5C196.512 86.5 197.342 85.67 197.342 84.65C197.342 83.63 196.512 82.8 195.492 82.8ZM195.492 85.32C195.122 85.32 194.822 85.02 194.822 84.65C194.822 84.28 195.122 83.98 195.492 83.98C195.862 83.98 196.162 84.28 196.162 84.65C196.162 85.02 195.862 85.32 195.492 85.32Z" fill="#8C84A0"/>
<path d="M196.492 87.95C195.472 87.95 194.642 88.78 194.642 89.8C194.642 90.82 195.472 91.65 196.492 91.65C197.512 91.65 198.342 90.82 198.342 89.8C198.342 88.78 197.512 87.95 196.492 87.95ZM196.492 90.47C196.122 90.47 195.822 90.17 195.822 89.8C195.822 89.43 196.122 89.13 196.492 89.13C196.862 89.13 197.162 89.43 197.162 89.8C197.162 90.17 196.862 90.47 196.492 90.47Z" fill="#8C84A0"/>
<path d="M197.531 93.11C196.511 93.11 195.681 93.94 195.681 94.96C195.681 95.98 196.511 96.81 197.531 96.81C198.551 96.81 199.381 95.98 199.381 94.96C199.381 93.94 198.551 93.11 197.531 93.11ZM197.531 95.63C197.161 95.63 196.861 95.33 196.861 94.96C196.861 94.59 197.161 94.29 197.531 94.29C197.901 94.29 198.201 94.59 198.201 94.96C198.201 95.33 197.901 95.63 197.531 95.63Z" fill="#8C84A0"/>
<path d="M209.431 91.11C208.411 91.11 207.581 91.94 207.581 92.96C207.581 93.98 208.411 94.81 209.431 94.81C210.451 94.81 211.282 93.98 211.282 92.96C211.282 91.94 210.451 91.11 209.431 91.11ZM209.431 93.63C209.061 93.63 208.761 93.33 208.761 92.96C208.761 92.59 209.061 92.29 209.431 92.29C209.801 92.29 210.102 92.59 210.102 92.96C210.102 93.33 209.801 93.63 209.431 93.63Z" fill="#8C84A0"/>
<path d="M207.371 80.28C206.351 80.28 205.521 81.11 205.521 82.13C205.521 83.15 206.351 83.98 207.371 83.98C208.391 83.98 209.221 83.15 209.221 82.13C209.221 81.11 208.391 80.28 207.371 80.28ZM207.371 82.8C207.001 82.8 206.701 82.5 206.701 82.13C206.701 81.76 207.001 81.46 207.371 81.46C207.741 81.46 208.041 81.76 208.041 82.13C208.041 82.5 207.741 82.8 207.371 82.8Z" fill="#8C84A0"/>
<path d="M208.642 85.81C207.622 85.81 206.792 86.64 206.792 87.66C206.792 88.68 207.622 89.51 208.642 89.51C209.662 89.51 210.492 88.68 210.492 87.66C210.492 86.64 209.662 85.81 208.642 85.81ZM208.642 88.33C208.272 88.33 207.972 88.03 207.972 87.66C207.972 87.29 208.272 86.99 208.642 86.99C209.012 86.99 209.312 87.29 209.312 87.66C209.312 88.03 209.012 88.33 208.642 88.33Z" fill="#8C84A0"/>
<path d="M206.191 74.75C205.171 74.75 204.341 75.58 204.341 76.6C204.341 77.62 205.171 78.45 206.191 78.45C207.211 78.45 208.041 77.62 208.041 76.6C208.041 75.58 207.211 74.75 206.191 74.75ZM206.191 77.27C205.821 77.27 205.521 76.97 205.521 76.6C205.521 76.23 205.821 75.93 206.191 75.93C206.561 75.93 206.861 76.23 206.861 76.6C206.861 76.97 206.561 77.27 206.191 77.27Z" fill="#8C84A0"/>
<path d="M194.142 80.12C194.142 80.12 201.211 77.97 205.361 77.77C205.361 77.77 206.211 77.66 206.481 77.48C206.752 77.3 206.592 75.68 205.742 75.65C204.892 75.62 202.342 75.13 197.102 76.9C196.792 77 196.481 77.14 196.191 77.29C194.731 78.05 193.842 78.47 193.852 78.84C193.872 79.26 193.612 80.02 194.142 80.12Z" fill="#F7F4FF"/>
<path d="M197.261 90.17C197.261 90.17 203.132 85.68 206.852 83.92C206.852 83.92 207.552 83.51 207.632 83.08C207.792 82.13 207.552 81.38 206.742 81.64C205.932 81.9 203.161 82.52 198.861 85.96C198.611 86.16 198.361 86.4 198.151 86.64C197.051 87.85 196.351 88.54 196.501 88.9C196.661 89.28 196.742 90.26 197.272 90.17H197.261Z" fill="#F7F4FF"/>
<path d="M195.341 85.32C195.341 85.32 203.241 86.46 207.171 88.14C207.171 88.14 208.011 88.42 208.341 88.38C208.671 88.34 209.201 87.16 208.421 86.76C207.641 86.36 205.551 84.43 199.901 83.67C199.571 83.63 199.221 83.61 198.881 83.61C197.191 83.64 195.851 83.77 195.691 84.11C195.521 84.49 194.881 84.99 195.321 85.32H195.341Z" fill="#F7F4FF"/>
<path d="M196.642 90.72C196.642 90.72 204.242 91.79 208.172 93.47C208.172 93.47 208.642 93.78 209.402 93.63C209.842 93.54 209.942 92.45 209.162 92.04C208.382 91.63 206.552 89.75 200.912 88.99C200.582 88.95 200.232 88.93 199.892 88.93C198.202 88.96 197.192 88.93 197.032 89.28C196.862 89.66 196.202 90.39 196.642 90.71V90.72Z" fill="#F7F4FF"/>
<path d="M197.941 95.48C197.941 95.48 203.841 90.69 207.661 89.09C207.661 89.09 208.421 88.69 208.611 88.43C208.801 88.17 208.091 86.7 207.281 86.97C206.471 87.24 203.921 87.65 199.621 91.09C199.371 91.29 199.121 91.53 198.911 91.77C197.811 92.98 197.101 94.12 197.241 94.47C197.401 94.85 197.411 95.58 197.941 95.49V95.48Z" fill="#F7F4FF"/>
<path d="M304.161 74.15C303.281 76.58 302.251 79.47 301.152 82.68C295.292 99.79 287.351 125.62 287.351 134.94C285.781 143.63 281.341 145.4 274.781 147.89C268.391 147.89 253.851 146.29 247.641 138.67C241.431 131.04 252.621 109.76 255.271 87.59C255.561 83.04 256.131 75.42 256.751 69.58C257.141 65.95 257.541 63 257.921 61.92C261.401 48.75 274.841 37.42 287.611 40.8C300.381 44.18 307.651 60.99 304.161 74.15Z" fill="#F7F4FF"/>
<path d="M291.232 72.42C286.242 69.69 267.042 65.08 262.712 67.53C258.382 69.97 255.571 80.61 255.561 80.63C255.741 78.5 255.922 76.39 256.122 74.47C256.482 70.84 256.871 67.89 257.221 66.81C260.501 53.64 273.101 42.33 285.061 45.72C297.021 49.11 303.822 65.92 300.542 79.09C299.712 81.51 298.751 84.41 297.721 87.62C297.551 88.15 297.371 88.7 297.201 89.25L297.221 89.18C297.221 89.18 296.231 75.17 291.242 72.44L291.232 72.42Z" fill="#322B84"/>
<path d="M291.232 72.42C286.242 69.69 267.042 65.08 262.712 67.53C258.382 69.97 255.571 80.61 255.561 80.63C255.741 78.5 255.922 76.39 256.122 74.47C256.482 70.84 256.871 67.89 257.221 66.81C260.501 53.64 273.101 42.33 285.061 45.72C297.021 49.11 303.822 65.92 300.542 79.09C299.712 81.51 298.751 84.41 297.721 87.62C297.551 88.15 297.371 88.7 297.201 89.25L297.221 89.18C297.221 89.18 296.231 75.17 291.242 72.44L291.232 72.42Z" fill="url(#paint1_linear_2356_11579)"/>
<path d="M255.561 80.65L254.932 89.1C255.102 86.54 255.321 83.58 255.561 80.65Z" fill="#D8D8D8"/>
<path d="M294.891 96.6C295.671 94.04 296.451 91.57 297.191 89.23L294.891 96.6Z" fill="#828282"/>
<path d="M285.072 73.54C285.072 73.54 285.031 73.81 284.951 74.27C281.321 73.09 276.491 72 272.441 71.34C272.581 70.87 272.671 70.53 272.691 70.38L285.072 73.53V73.54Z" fill="#828282"/>
<path d="M281.921 131.99C279.851 146.11 275.421 146.91 274.201 147.52C271.631 148.82 256.512 146.39 252.182 141.68C247.852 136.97 248.422 122.72 251.052 118.57C252.062 116.98 254.782 114.99 257.862 112.87C258.022 113.79 258.332 114.69 258.882 115.54C261.992 120.34 271.831 122.63 277.591 117.49C278.061 117.07 278.492 116.29 278.872 115.35C281.082 119.73 282.931 125.11 281.921 131.99Z" fill="#D8D8D8"/>
<path d="M279.221 114.33C279.321 114.02 279.411 113.71 279.501 113.38C279.411 113.7 279.321 114.02 279.221 114.33Z" fill="#F5F5F5"/>
<path d="M279.281 71.95L281.462 72.34C281.462 72.34 281.442 72.44 281.402 72.61L279.262 72.06C279.282 71.99 279.292 71.95 279.292 71.95H279.281Z" fill="#828282"/>
<path d="M279.182 114.46C279.182 114.46 279.211 114.37 279.221 114.33C279.211 114.37 279.192 114.42 279.182 114.46Z" fill="#828282"/>
<path d="M279.251 72.06L281.391 72.61C280.771 75.37 275.372 99.37 275.402 102.54C275.432 105.78 277.301 108.96 279.491 113.39C279.401 113.71 279.312 114.03 279.212 114.34C279.201 114.38 279.181 114.43 279.171 114.47C279.071 114.78 278.961 115.08 278.851 115.36C276.521 110.74 273.792 107.22 273.572 104.23C273.162 98.61 278.831 73.87 279.241 72.06H279.251Z" fill="#1A0F37"/>
<path d="M282.861 136.56C282.861 136.56 280.551 149.27 272.222 149.22C262.742 149.16 251.111 143.29 249.701 141.31C248.291 139.33 246.992 123.27 250.052 117.95C251.422 115.56 254.542 112.96 257.792 110.51C257.712 111.3 257.722 112.1 257.852 112.89C254.772 115.01 252.052 117.01 251.042 118.59C248.402 122.73 247.841 136.99 252.171 141.7C256.501 146.41 271.622 148.83 274.192 147.54C275.412 146.93 279.842 146.13 281.912 132.01C282.922 125.14 281.071 119.76 278.861 115.37C279.101 114.76 279.311 114.09 279.501 113.4C280.391 115.21 281.342 117.22 282.242 119.54C284.842 126.25 282.852 136.58 282.852 136.58L282.861 136.56Z" fill="#828282"/>
<path d="M247.522 143.54C253.332 151.17 266.962 152.78 272.942 152.79C279.092 150.31 283.252 148.54 284.732 139.85C284.732 133.44 288.272 119.24 292.262 105.44C293.132 102.45 294.012 99.48 294.892 96.6L294.872 96.66C294.872 96.66 293.872 78.63 288.972 75.9C288.002 75.36 286.602 74.81 284.951 74.27C284.882 74.71 284.782 75.34 284.662 76.12C284.912 74.52 285.072 73.54 285.072 73.54L281.402 72.61C280.782 75.37 275.382 99.37 275.412 102.54C275.442 105.78 277.312 108.96 279.502 113.39C280.392 115.2 281.342 117.21 282.242 119.53C284.842 126.24 282.852 136.57 282.852 136.57C282.852 136.57 280.542 149.28 272.212 149.23C262.732 149.17 251.102 143.3 249.692 141.32C248.282 139.34 246.982 123.28 250.042 117.96C251.412 115.57 254.532 112.97 257.782 110.52C261.792 107.5 266.011 104.7 267.451 102.83C269.972 99.56 273.622 72.67 273.882 70.72L272.642 70.4C272.622 70.55 272.532 70.88 272.392 71.35C268.972 70.79 266.112 70.55 265.042 70.83C262.122 71.58 257.242 80.98 254.902 89.13C254.822 90.35 254.742 91.49 254.682 92.48C252.182 114.65 241.672 135.92 247.482 143.56L247.522 143.54ZM283.172 85.78C283.201 85.59 283.232 85.41 283.252 85.22C283.222 85.4 283.192 85.59 283.172 85.78ZM281.832 94.71C281.862 94.52 281.892 94.33 281.912 94.14C281.882 94.33 281.852 94.52 281.832 94.71ZM281.622 96.13C281.642 96.01 281.662 95.88 281.672 95.76C281.652 95.88 281.632 96.01 281.622 96.13ZM281.422 97.55C281.431 97.47 281.442 97.38 281.462 97.29C281.452 97.37 281.442 97.46 281.422 97.55ZM280.682 102.95C280.702 102.82 280.712 102.69 280.732 102.55C280.712 102.69 280.702 102.81 280.682 102.95ZM280.552 103.98C280.572 103.85 280.582 103.73 280.602 103.6C280.582 103.73 280.572 103.86 280.552 103.98ZM280.252 106.88C280.252 106.82 280.252 106.75 280.262 106.68C280.262 106.75 280.252 106.82 280.252 106.88ZM280.252 107.14C280.252 107.14 280.252 107.23 280.252 107.26C280.252 107.23 280.252 107.18 280.252 107.14ZM284.652 76.21C284.612 76.45 284.572 76.7 284.532 76.96C284.572 76.7 284.612 76.44 284.652 76.21ZM283.992 80.41C283.952 80.65 283.912 80.9 283.882 81.15C283.922 80.9 283.962 80.66 283.992 80.41ZM284.182 79.2C284.142 79.49 284.092 79.78 284.042 80.08C284.092 79.78 284.132 79.49 284.182 79.2ZM284.332 78.27C284.302 78.47 284.272 78.67 284.232 78.88C284.262 78.67 284.292 78.47 284.332 78.27ZM284.522 77.08C284.492 77.3 284.452 77.54 284.412 77.78C284.452 77.54 284.482 77.31 284.522 77.08Z" fill="#322B84"/>
<path d="M257.861 112.88C262.821 109.46 268.712 105.72 269.872 102.82C271.652 98.37 275.612 73.88 276.042 71.25L279.232 72.06C278.812 73.87 273.141 98.61 273.561 104.23C273.781 107.22 276.511 110.74 278.841 115.36C278.471 116.3 278.041 117.07 277.561 117.5C271.811 122.65 261.962 120.35 258.852 115.55C258.312 114.71 257.981 113.82 257.831 112.91" fill="#443B5B"/>
<path d="M273.921 70.58L276.081 71C276.081 71 276.072 71.09 276.042 71.24L273.902 70.7C273.902 70.63 273.921 70.58 273.921 70.58Z" fill="#828282"/>
<path d="M257.801 110.5C261.811 107.48 266.031 104.68 267.471 102.81C269.991 99.54 273.642 72.65 273.902 70.7L276.042 71.24C275.622 73.87 271.652 98.36 269.872 102.81C268.712 105.71 262.821 109.46 257.861 112.87" fill="#1A0F37"/>
<path d="M272.441 71.35C269.011 70.79 266.141 70.54 265.061 70.82C262.141 71.57 257.261 80.97 254.921 89.12V89.1L255.551 80.65C255.551 80.65 255.551 80.63 255.551 80.62C255.551 80.6 258.371 69.97 262.701 67.52C267.031 65.07 286.231 69.68 291.221 72.41C296.211 75.14 297.201 89.15 297.201 89.15L297.182 89.22C296.432 91.56 295.661 94.03 294.882 96.59L294.861 96.65C294.861 96.65 293.862 78.62 288.962 75.89C287.992 75.35 286.591 74.8 284.941 74.26" fill="#1A0F37"/>
<path d="M281.001 79.33C281.001 80.35 281.832 81.18 282.852 81.18C283.872 81.18 284.701 80.35 284.701 79.33C284.701 78.31 283.872 77.48 282.852 77.48C281.832 77.48 281.001 78.31 281.001 79.33ZM282.182 79.33C282.182 78.96 282.482 78.66 282.852 78.66C283.222 78.66 283.521 78.96 283.521 79.33C283.521 79.7 283.222 80 282.852 80C282.482 80 282.182 79.7 282.182 79.33Z" fill="#8C84A0"/>
<path d="M279.701 84.65C279.701 85.67 280.531 86.5 281.551 86.5C282.571 86.5 283.402 85.67 283.402 84.65C283.402 83.63 282.571 82.8 281.551 82.8C280.531 82.8 279.701 83.63 279.701 84.65ZM280.882 84.65C280.882 84.28 281.181 83.98 281.551 83.98C281.921 83.98 282.221 84.28 282.221 84.65C282.221 85.02 281.921 85.32 281.551 85.32C281.181 85.32 280.882 85.02 280.882 84.65Z" fill="#8C84A0"/>
<path d="M278.701 89.8C278.701 90.82 279.531 91.65 280.551 91.65C281.571 91.65 282.402 90.82 282.402 89.8C282.402 88.78 281.571 87.95 280.551 87.95C279.531 87.95 278.701 88.78 278.701 89.8ZM279.882 89.8C279.882 89.43 280.181 89.13 280.551 89.13C280.921 89.13 281.221 89.43 281.221 89.8C281.221 90.17 280.921 90.47 280.551 90.47C280.181 90.47 279.882 90.17 279.882 89.8Z" fill="#8C84A0"/>
<path d="M277.661 94.96C277.661 95.98 278.492 96.81 279.512 96.81C280.532 96.81 281.361 95.98 281.361 94.96C281.361 93.94 280.532 93.11 279.512 93.11C278.492 93.11 277.661 93.94 277.661 94.96ZM278.841 94.96C278.841 94.59 279.142 94.29 279.512 94.29C279.882 94.29 280.182 94.59 280.182 94.96C280.182 95.33 279.882 95.63 279.512 95.63C279.142 95.63 278.841 95.33 278.841 94.96Z" fill="#8C84A0"/>
<path d="M265.762 92.96C265.762 93.98 266.591 94.81 267.611 94.81C268.631 94.81 269.462 93.98 269.462 92.96C269.462 91.94 268.631 91.11 267.611 91.11C266.591 91.11 265.762 91.94 265.762 92.96ZM266.941 92.96C266.941 92.59 267.241 92.29 267.611 92.29C267.981 92.29 268.281 92.59 268.281 92.96C268.281 93.33 267.981 93.63 267.611 93.63C267.241 93.63 266.941 93.33 266.941 92.96Z" fill="#8C84A0"/>
<path d="M267.822 82.13C267.822 83.15 268.651 83.98 269.671 83.98C270.691 83.98 271.521 83.15 271.521 82.13C271.521 81.11 270.691 80.28 269.671 80.28C268.651 80.28 267.822 81.11 267.822 82.13ZM269.001 82.13C269.001 81.76 269.301 81.46 269.671 81.46C270.041 81.46 270.341 81.76 270.341 82.13C270.341 82.5 270.041 82.8 269.671 82.8C269.301 82.8 269.001 82.5 269.001 82.13Z" fill="#8C84A0"/>
<path d="M266.542 87.66C266.542 88.68 267.371 89.51 268.391 89.51C269.411 89.51 270.242 88.68 270.242 87.66C270.242 86.64 269.411 85.81 268.391 85.81C267.371 85.81 266.542 86.64 266.542 87.66ZM267.721 87.66C267.721 87.29 268.021 86.99 268.391 86.99C268.761 86.99 269.061 87.29 269.061 87.66C269.061 88.03 268.761 88.33 268.391 88.33C268.021 88.33 267.721 88.03 267.721 87.66Z" fill="#8C84A0"/>
<path d="M269.001 76.6C269.001 77.62 269.832 78.45 270.852 78.45C271.872 78.45 272.701 77.62 272.701 76.6C272.701 75.58 271.872 74.75 270.852 74.75C269.832 74.75 269.001 75.58 269.001 76.6ZM270.182 76.6C270.182 76.23 270.482 75.93 270.852 75.93C271.222 75.93 271.521 76.23 271.521 76.6C271.521 76.97 271.222 77.27 270.852 77.27C270.482 77.27 270.182 76.97 270.182 76.6Z" fill="#8C84A0"/>
<path d="M282.902 80.12C282.902 80.12 275.832 77.97 271.682 77.77C271.682 77.77 270.831 77.66 270.561 77.48C270.291 77.3 270.451 75.68 271.301 75.65C272.151 75.62 274.701 75.13 279.941 76.9C280.251 77 280.562 77.14 280.852 77.29C282.312 78.05 283.201 78.47 283.191 78.84C283.171 79.26 283.432 80.02 282.902 80.12Z" fill="#F7F4FF"/>
<path d="M279.781 90.17C279.781 90.17 273.911 85.68 270.191 83.92C270.191 83.92 269.491 83.51 269.411 83.08C269.251 82.13 269.491 81.38 270.301 81.64C271.111 81.9 273.882 82.52 278.182 85.96C278.432 86.16 278.681 86.4 278.891 86.64C279.991 87.85 280.692 88.54 280.542 88.9C280.382 89.28 280.301 90.26 279.771 90.17H279.781Z" fill="#F7F4FF"/>
<path d="M281.701 85.32C281.701 85.32 273.802 86.46 269.872 88.14C269.872 88.14 269.031 88.42 268.701 88.38C268.371 88.34 267.842 87.16 268.622 86.76C269.402 86.36 271.491 84.43 277.141 83.67C277.471 83.63 277.822 83.61 278.162 83.61C279.852 83.64 281.192 83.77 281.352 84.11C281.522 84.49 282.161 84.99 281.722 85.32H281.701Z" fill="#F7F4FF"/>
<path d="M280.391 90.72C280.391 90.72 272.791 91.79 268.861 93.47C268.861 93.47 268.391 93.78 267.631 93.63C267.191 93.54 267.092 92.45 267.872 92.04C268.652 91.63 270.482 89.75 276.122 88.99C276.452 88.95 276.801 88.93 277.141 88.93C278.831 88.96 279.841 88.93 280.001 89.28C280.171 89.66 280.831 90.39 280.391 90.71V90.72Z" fill="#F7F4FF"/>
<path d="M279.091 95.48C279.091 95.48 273.192 90.69 269.372 89.09C269.372 89.09 268.611 88.69 268.421 88.43C268.231 88.17 268.941 86.7 269.751 86.97C270.561 87.24 273.111 87.65 277.411 91.09C277.661 91.29 277.912 91.53 278.122 91.77C279.222 92.98 279.932 94.12 279.792 94.47C279.632 94.85 279.621 95.58 279.091 95.49V95.48Z" fill="#F7F4FF"/>
<path d="M210.221 100.19C193.931 100.19 182.381 113.12 178.121 128.97L207.031 139.68L237.641 128.97C238.271 111.67 226.521 100.19 210.221 100.19Z" fill="#CB6C66"/>
<path d="M210.221 100.19C193.931 100.19 182.381 113.12 178.121 128.97L207.031 139.68L237.641 128.97C238.271 111.67 226.521 100.19 210.221 100.19Z" fill="url(#paint2_linear_2356_11579)"/>
<path d="M178.111 128.98H237.641L233.641 257.98H139.111L178.111 128.98Z" fill="#CB6C66"/>
<path d="M178.111 128.98H237.641L233.641 257.98H139.111L178.111 128.98Z" fill="url(#paint3_linear_2356_11579)"/>
<path d="M269.102 100.19C285.392 100.19 296.941 113.12 301.201 128.97L274.102 150.15L241.682 128.97C241.052 111.67 252.802 100.19 269.102 100.19Z" fill="#CB6C66"/>
<path d="M269.102 100.19C285.392 100.19 296.941 113.12 301.201 128.97L274.102 150.15L241.682 128.97C241.052 111.67 252.802 100.19 269.102 100.19Z" fill="url(#paint4_linear_2356_11579)"/>
<path d="M301.212 128.98H241.682L245.682 257.98H340.212L301.212 128.98Z" fill="#CB6C66"/>
<path d="M301.212 128.98H241.682L245.682 257.98H340.212L301.212 128.98Z" fill="url(#paint5_linear_2356_11579)"/>
<path d="M236.301 258L237.312 162.89C221.152 157.22 192.932 148.74 146.411 162.73L113.411 258H236.301Z" fill="#1F0E50"/>
<path d="M243.042 258L242.031 162.89C258.191 157.22 286.412 148.74 332.932 162.73L365.932 258H243.042Z" fill="#1F0E50"/>
<g clip-path="url(#clip1_2356_11579)">
<path d="M284.259 157.647L270.817 163.27C266.904 164.906 265.059 169.405 266.696 173.318L266.7 173.328C268.337 177.241 272.836 179.086 276.749 177.449L290.19 171.826C294.103 170.189 295.948 165.69 294.311 161.777L294.308 161.768C292.671 157.855 288.172 156.01 284.259 157.647Z" fill="#CB6C66"/>
<path d="M241.932 230.331L208.122 220.861C208.122 220.861 203.962 214.991 204.012 214.171C204.062 213.351 204.572 205.021 209.712 197.121C214.852 189.211 214.152 178.351 212.022 172.871C209.892 167.401 205.882 167.971 203.712 167.571C201.542 167.161 199.922 171.311 199.912 175.971C199.902 180.631 198.492 190.131 188.962 202.571C179.432 215.001 179.892 223.111 179.382 229.251C178.952 234.401 162.312 252.271 157.002 257.861H206.722C207.552 257.471 208.272 257.191 208.822 257.031C232.842 251.961 241.932 230.341 241.932 230.341V230.331Z" fill="#CB6C66"/>
<path d="M241.932 230.331L208.122 220.861C208.122 220.861 203.962 214.991 204.012 214.171C204.062 213.351 204.572 205.021 209.712 197.121C214.852 189.211 214.152 178.351 212.022 172.871C209.892 167.401 205.882 167.971 203.712 167.571C201.542 167.161 199.922 171.311 199.912 175.971C199.902 180.631 198.492 190.131 188.962 202.571C179.432 215.001 179.892 223.111 179.382 229.251C178.952 234.401 162.312 252.271 157.002 257.861H206.722C207.552 257.471 208.272 257.191 208.822 257.031C232.842 251.961 241.932 230.341 241.932 230.341V230.331Z" fill="url(#paint6_linear_2356_11579)"/>
<path d="M198.732 197.359C198.732 193.453 200.156 191.1 200.868 190.412L204.205 188.534L216.353 258.001H201.802C200.779 239.414 198.732 201.264 198.732 197.359Z" fill="url(#paint7_linear_2356_11579)"/>
<path d="M278.492 257.851H206.732L198.732 147.791H286.492L278.492 257.851Z" fill="#7970AF"/>
<path d="M274.492 257.851H210.732L204.732 154.791H280.492L274.492 257.851Z" fill="#EAE7FF"/>
<path d="M274.492 257.851H210.732L204.732 154.791H280.492L274.492 257.851Z" fill="url(#paint8_linear_2356_11579)"/>
<path d="M278.492 143.321H206.732L198.732 147.791H286.492L278.492 143.321Z" fill="#C4BFE2"/>
<path d="M251.732 158.761H233.452C232.983 158.761 232.602 159.139 232.602 159.606C232.602 160.072 232.983 160.451 233.452 160.451H251.732C252.201 160.451 252.582 160.072 252.582 159.606C252.582 159.139 252.201 158.761 251.732 158.761Z" fill="#3D3061"/>
<path d="M230.862 160.481C231.337 160.481 231.722 160.096 231.722 159.621C231.722 159.146 231.337 158.761 230.862 158.761C230.387 158.761 230.002 159.146 230.002 159.621C230.002 160.096 230.387 160.481 230.862 160.481Z" fill="#3D3061"/>
<path d="M146.942 257.981L146.402 257.861C146.362 257.971 146.552 258.031 146.942 257.981Z" fill="#A8A8A8"/>
<path d="M169.622 229.941L169.652 229.921L169.622 229.941Z" fill="#A8A8A8"/>
<path d="M200.332 207.461C200.202 206.651 198.912 198.411 202.242 189.581C205.572 180.751 202.542 170.291 199.292 165.401C196.032 160.511 192.242 161.931 190.042 162.001C187.842 162.071 187.142 166.471 188.132 171.021C189.122 175.571 189.792 185.161 183.152 199.351C176.512 213.541 178.702 221.361 179.522 227.461C179.572 227.861 179.532 228.361 179.452 228.951C179.402 229.281 179.352 229.591 179.302 229.921L201.158 210.779C199.078 211.309 200.342 207.511 200.342 207.461H200.332Z" fill="#CB6C66"/>
<path d="M200.332 207.461C200.202 206.651 198.912 198.411 202.242 189.581C205.572 180.751 202.542 170.291 199.292 165.401C196.032 160.511 192.242 161.931 190.042 162.001C187.842 162.071 187.142 166.471 188.132 171.021C189.122 175.571 189.792 185.161 183.152 199.351C176.512 213.541 178.702 221.361 179.522 227.461C179.572 227.861 179.532 228.361 179.452 228.951C179.402 229.281 179.352 229.591 179.302 229.921L201.158 210.779C199.078 211.309 200.342 207.511 200.342 207.461H200.332Z" fill="url(#paint9_linear_2356_11579)"/>
<path d="M271.28 213.617L280.289 208.416C283.173 206.751 286.866 207.741 288.531 210.625L288.707 210.93C290.372 213.814 289.383 217.507 286.499 219.172L277.185 224.549C274.301 226.215 270.608 225.225 268.943 222.341C267.18 219.287 268.222 215.372 271.284 213.604L271.28 213.617Z" fill="#6B5B99"/>
<path d="M280.05 192.424L266.884 197.931C263.052 199.534 261.197 203.829 262.743 207.522L262.746 207.531C264.291 211.225 268.651 212.92 272.484 211.317L285.649 205.809C289.482 204.206 291.336 199.912 289.791 196.218L289.787 196.209C288.242 192.515 283.883 190.821 280.05 192.424Z" fill="#6B5B99"/>
<path d="M281.425 175.834L268.26 181.341C264.427 182.944 262.551 187.186 264.069 190.816L264.073 190.824C265.591 194.454 269.929 196.096 273.762 194.493L286.927 188.986C290.76 187.383 292.636 183.141 291.118 179.511L291.114 179.502C289.596 175.873 285.258 174.23 281.425 175.834Z" fill="#6B5B99"/>
<path d="M272.811 212.557L282.008 207.247C284.953 205.547 288.723 206.558 290.423 209.502L290.603 209.814C292.303 212.758 291.293 216.529 288.348 218.229L278.84 223.719C275.895 225.419 272.125 224.408 270.425 221.464C268.625 218.346 269.689 214.349 272.815 212.544L272.811 212.557Z" fill="#CB6C66"/>
<path d="M281.764 190.92L268.323 196.542C264.41 198.179 262.565 202.678 264.202 206.591L264.206 206.601C265.842 210.514 270.341 212.359 274.254 210.722L287.696 205.099C291.609 203.462 293.454 198.963 291.817 195.05L291.813 195.041C290.176 191.128 285.677 189.283 281.764 190.92Z" fill="#CB6C66"/>
<path d="M283.169 173.982L269.727 179.604C265.814 181.241 263.969 185.74 265.606 189.653L265.61 189.662C267.247 193.575 271.746 195.421 275.659 193.784L289.1 188.161C293.013 186.524 294.858 182.025 293.222 178.112L293.218 178.103C291.581 174.19 287.082 172.345 283.169 173.982Z" fill="#CB6C66"/>
<path d="M274.302 181.43L269.349 183.502C267.908 184.105 267.49 186.389 268.417 188.604L268.419 188.609C269.345 190.824 271.265 192.131 272.707 191.528L277.659 189.456C279.101 188.853 279.518 186.569 278.592 184.354L278.59 184.349C277.663 182.134 275.743 180.827 274.302 181.43Z" fill="#E3837D"/>
<path d="M272.488 198.488L267.536 200.559C266.094 201.162 265.677 203.447 266.603 205.662L266.605 205.667C267.532 207.882 269.452 209.189 270.893 208.586L275.845 206.514C277.287 205.911 277.705 203.627 276.778 201.412L276.776 201.406C275.849 199.192 273.93 197.885 272.488 198.488Z" fill="#E3837D"/>
<path d="M276.456 213.948L272.625 216.229C271.51 216.893 271.379 218.728 272.331 220.329L272.334 220.333C273.286 221.933 274.963 222.692 276.078 222.028L279.908 219.748C281.023 219.084 281.155 217.249 280.202 215.648L280.2 215.644C279.247 214.044 277.571 213.285 276.456 213.948Z" fill="#E3837D"/>
<ellipse cx="241.932" cy="215.904" rx="8.75866" ry="1.68436" fill="#3C2C69"/>
<path fill-rule="evenodd" clip-rule="evenodd" d="M246.791 209.882C246.906 209.704 247.076 209.568 247.272 209.488C252.193 207.474 255.653 202.703 255.653 197.137C255.653 189.751 249.56 183.764 242.044 183.764C234.529 183.764 228.436 189.751 228.436 197.137C228.436 202.702 231.895 207.474 236.816 209.488C237.012 209.568 237.181 209.704 237.297 209.881L240.366 214.612C241.155 215.827 242.933 215.827 243.722 214.612L246.791 209.882Z" fill="url(#paint10_linear_2356_11579)"/>
<path d="M224.752 196.705C224.752 194.313 226.691 192.373 229.083 192.373C230.04 192.373 230.815 193.149 230.815 194.106V202.095C230.815 203.051 230.04 203.827 229.083 203.827C226.691 203.827 224.752 201.888 224.752 199.496V196.705Z" fill="#615A7E"/>
<path fill-rule="evenodd" clip-rule="evenodd" d="M241.932 178.225C232.443 178.225 224.752 185.917 224.752 195.405V197.763H226.894V197.763H256.97V197.763H259.112V195.405C259.112 185.917 251.42 178.225 241.932 178.225ZM256.97 197.763V195.566C256.97 187.261 250.237 180.529 241.932 180.529C233.627 180.529 226.894 187.261 226.894 195.566V197.763H256.97Z" fill="#615A7E"/>
<path d="M253.049 194.106C253.049 193.149 253.824 192.373 254.781 192.373C257.173 192.373 259.112 194.313 259.112 196.705V199.496C259.112 201.888 257.173 203.827 254.781 203.827C253.824 203.827 253.049 203.051 253.049 202.095V194.106Z" fill="#615A7E"/>
<path d="M235.353 200.738V196.451H237.035C238.009 196.451 238.568 197.052 238.568 197.896C238.568 198.751 238 199.341 237.011 199.341H236.241V200.738H235.353ZM236.241 198.624H236.869C237.396 198.624 237.654 198.328 237.651 197.896C237.654 197.469 237.396 197.182 236.869 197.179H236.241V198.624Z" fill="#ECE6FF"/>
<path d="M239.427 200.791C239.149 200.791 238.924 200.569 238.93 200.294C238.924 200.022 239.149 199.8 239.427 199.802C239.691 199.8 239.919 200.022 239.919 200.294C239.919 200.569 239.691 200.791 239.427 200.791Z" fill="#ECE6FF"/>
<path d="M240.641 200.738V196.451H242.323C243.297 196.451 243.856 197.052 243.856 197.896C243.856 198.751 243.288 199.341 242.299 199.341H241.529V200.738H240.641ZM241.529 198.624H242.157C242.684 198.624 242.941 198.328 242.939 197.896C242.941 197.469 242.684 197.182 242.157 197.179H241.529V198.624Z" fill="#ECE6FF"/>
<path d="M245.278 196.451V200.738H244.401V196.451H245.278Z" fill="#ECE6FF"/>
<path d="M247.415 200.803C246.429 200.8 245.825 200.164 245.828 199.145C245.825 198.153 246.438 197.481 247.38 197.481C248.224 197.481 248.89 198.014 248.89 199.11V199.358H246.693C246.693 199.844 246.98 200.143 247.433 200.146C247.732 200.143 247.945 200.013 248.031 199.82H248.866C248.742 200.415 248.209 200.8 247.415 200.803ZM246.693 198.808H248.061C248.058 198.417 247.788 198.136 247.397 198.139C246.995 198.136 246.711 198.438 246.693 198.808Z" fill="#ECE6FF"/>
</g>
</g>
<defs>
<linearGradient id="paint0_linear_2356_11579" x1="195.418" y1="45.1123" x2="201.02" y2="68.8305" gradientUnits="userSpaceOnUse">
<stop stop-color="#211C55"/>
<stop offset="1" stop-color="#322B84"/>
<stop offset="1" stop-color="#322B84" stop-opacity="0"/>
</linearGradient>
<linearGradient id="paint1_linear_2356_11579" x1="284.416" y1="45.1123" x2="279.239" y2="68.2632" gradientUnits="userSpaceOnUse">
<stop stop-color="#211C55"/>
<stop offset="1" stop-color="#322B84"/>
</linearGradient>
<linearGradient id="paint2_linear_2356_11579" x1="207.894" y1="100.19" x2="207.894" y2="116.566" gradientUnits="userSpaceOnUse">
<stop stop-color="#A93C35"/>
<stop offset="1" stop-color="#CA6C65" stop-opacity="0"/>
</linearGradient>
<linearGradient id="paint3_linear_2356_11579" x1="188.376" y1="128.98" x2="190.039" y2="165.149" gradientUnits="userSpaceOnUse">
<stop stop-color="#CB6C66" stop-opacity="0"/>
<stop offset="1" stop-color="#8D2C26"/>
</linearGradient>
<linearGradient id="paint4_linear_2356_11579" x1="271.429" y1="100.19" x2="275.328" y2="115.38" gradientUnits="userSpaceOnUse">
<stop stop-color="#A93C35"/>
<stop offset="1" stop-color="#CB6C66" stop-opacity="0"/>
</linearGradient>
<linearGradient id="paint5_linear_2356_11579" x1="284.527" y1="131.257" x2="296.558" y2="165.149" gradientUnits="userSpaceOnUse">
<stop stop-color="#CB6C66" stop-opacity="0"/>
<stop offset="1" stop-color="#8D2C26"/>
</linearGradient>
<linearGradient id="paint6_linear_2356_11579" x1="199.467" y1="237.005" x2="199.467" y2="257.861" gradientUnits="userSpaceOnUse">
<stop stop-color="#CA6C66" stop-opacity="0"/>
<stop offset="1" stop-color="#AC4D46"/>
</linearGradient>
<linearGradient id="paint7_linear_2356_11579" x1="205.818" y1="233.494" x2="199.298" y2="233.659" gradientUnits="userSpaceOnUse">
<stop stop-color="#993F39"/>
<stop offset="0.910394" stop-color="#CB6C66" stop-opacity="0"/>
</linearGradient>
<linearGradient id="paint8_linear_2356_11579" x1="242.612" y1="154.791" x2="242.612" y2="257.851" gradientUnits="userSpaceOnUse">
<stop stop-color="#EAE7FF"/>
<stop offset="1" stop-color="#897AF4"/>
</linearGradient>
<linearGradient id="paint9_linear_2356_11579" x1="186.925" y1="166.352" x2="201.387" y2="171.376" gradientUnits="userSpaceOnUse">
<stop stop-color="#9D3C36"/>
<stop offset="1" stop-color="#CB6C66" stop-opacity="0"/>
</linearGradient>
<linearGradient id="paint10_linear_2356_11579" x1="233.289" y1="186.092" x2="257.368" y2="197.47" gradientUnits="userSpaceOnUse">
<stop stop-color="#C290EE"/>
<stop offset="1" stop-color="#9782F4"/>
</linearGradient>
<clipPath id="clip0_2356_11579">
<rect width="252.51" height="217.81" fill="white" transform="translate(113.411 40.19)"/>
</clipPath>
<clipPath id="clip1_2356_11579">
<rect width="148.5" height="114.68" fill="white" transform="translate(146.392 143.321)"/>
</clipPath>
</defs>
</svg>
