<svg width="391" height="258" viewBox="0 0 391 258" fill="none" xmlns="http://www.w3.org/2000/svg">
<rect x="0.396484" width="390" height="258" fill="#8479D0"/>
<mask id="mask0_291_9912" style="mask-type:alpha" maskUnits="userSpaceOnUse" x="0" y="0" width="391" height="258">
<rect x="0.396484" width="390" height="258" fill="#9B90DB"/>
</mask>
<g mask="url(#mask0_291_9912)">
<path fill-rule="evenodd" clip-rule="evenodd" d="M139.89 145.368C139.89 145.369 139.891 145.369 139.891 145.369L139.36 158.9C139.359 158.899 139.357 158.899 139.356 158.898L139.356 158.899C138.363 158.277 137.676 157.558 137.294 156.806C137.275 156.769 137.256 156.731 137.239 156.694C137.017 156.218 136.915 155.731 136.934 155.248L137.466 141.717C137.465 141.726 137.465 141.736 137.465 141.746L137.466 141.717C137.457 141.95 137.476 142.183 137.522 142.416C137.735 143.472 138.522 144.513 139.891 145.368L139.89 145.368Z" fill="url(#paint0_linear_291_9912)"/>
<path d="M416.672 216.324L416.143 229.856L334.099 273.544L334.631 260.012L416.672 216.324Z" fill="#23232F"/>
<path d="M322.399 259.573L321.868 273.104L139.359 158.908L139.887 145.377L322.399 259.573Z" fill="#343445"/>
<path d="M416.888 209.256C420.203 211.331 420.108 214.499 416.674 216.329L334.634 260.017C331.196 261.847 325.718 261.648 322.403 259.573L139.888 145.374C136.569 143.298 136.667 140.13 140.105 138.3L222.149 94.6159C225.586 92.786 231.058 92.9848 234.376 95.0601L416.885 209.253L416.888 209.256Z" fill="#23232F"/>
<path d="M410.961 208.62C414.195 210.605 414.105 213.632 410.758 215.378L334.893 256.431C331.542 258.177 326.2 257.983 322.966 255.997L145.083 145.15C141.845 143.165 141.939 140.138 145.289 138.392L222.282 97.7811C225.632 96.0351 230.968 96.2289 234.206 98.2142L410.958 208.617L410.961 208.62Z" fill="#33313D"/>
<path d="M410.961 208.62C414.195 210.605 414.105 213.632 410.758 215.378L334.893 256.431C331.542 258.177 326.2 257.983 322.966 255.997L145.083 145.15C141.845 143.165 141.939 140.138 145.289 138.392L222.282 97.7811C225.632 96.0351 230.968 96.2289 234.206 98.2142L410.958 208.617L410.961 208.62Z" fill="#33313D"/>
<g filter="url(#filter0_f_291_9912)">
<path d="M407.402 214.406C410.89 216.582 424.485 227.076 415.799 231.198L330.91 301.134C320.467 306.208 318.453 305.776 302.911 295.796L122.213 178.283C115.69 173.672 116.529 171.153 123.246 166.953L208.848 119.423C212.463 117.504 218.791 115.568 222.281 117.744L407.399 214.402L407.402 214.406Z" fill="#33313D" fill-opacity="0.6"/>
</g>
<path d="M250.108 119.678L181.346 157.3C179.999 158.037 179.95 159.954 181.257 160.758L262.947 211.032C264.235 211.825 265.86 211.824 267.146 211.029L331.787 171.083C333.053 170.301 333.052 168.46 331.786 167.68L254.128 119.782C252.904 119.027 251.369 118.987 250.108 119.678Z" fill="#4C4B51"/>
<path d="M334.9 172.78L272.432 211.973C271.212 212.739 271.177 214.504 272.365 215.318L286.157 224.758C287.456 225.646 289.155 225.691 290.499 224.872L354.208 186.032C355.463 185.267 355.491 183.454 354.261 182.65L339.213 172.82C337.906 171.966 336.222 171.951 334.9 172.78Z" fill="#4C4B51"/>
<path d="M198.031 133.042C197.998 133.042 197.965 133.075 197.932 133.075L197.012 133.535L194.745 132.188L195.632 131.728C196.388 131.333 197.209 131.399 197.899 131.826C198.589 132.221 198.688 132.681 198.031 133.042ZM192.346 132.188L199.082 136.164L200.364 135.507L198.162 134.225L199.28 133.666C199.345 133.634 199.378 133.601 199.444 133.568C200.692 132.845 200.528 131.925 199.247 131.169C197.932 130.381 196.158 130.249 194.778 130.972L192.346 132.188Z" fill="#FAFAFA"/>
<path d="M203.419 132.322C203.058 132.519 203.091 132.88 203.518 133.11C203.945 133.373 204.602 133.406 205.03 133.209C205.03 133.209 205.062 133.209 205.062 133.176C205.391 132.979 205.358 132.617 204.964 132.354C204.537 132.092 203.847 132.059 203.485 132.256C203.452 132.289 203.452 132.322 203.419 132.322Z" fill="#FAFAFA"/>
<path d="M205.621 129.13C205.588 129.163 205.556 129.163 205.523 129.196L204.635 129.656L202.368 128.309L203.255 127.848C204.011 127.454 204.833 127.553 205.523 127.947C206.147 128.309 206.278 128.769 205.621 129.13ZM199.937 128.276L206.706 132.252L207.987 131.594L205.786 130.313L206.903 129.754C206.968 129.721 207.001 129.689 207.067 129.656C208.316 128.933 208.151 128.013 206.87 127.257C205.523 126.468 203.781 126.337 202.401 127.06L199.937 128.276Z" fill="#FAFAFA"/>
<path d="M205.325 125.52L212.094 129.496L213.343 128.839L206.574 124.863L205.325 125.52Z" fill="#FAFAFA"/>
<path d="M214.296 124.992L212.324 126.011C211.798 125.683 211.7 125.19 212.225 124.894C212.258 124.894 212.258 124.861 212.291 124.861C212.85 124.565 213.671 124.631 214.296 124.992ZM211.108 124.335C209.892 125.025 210.122 126.077 211.634 126.964C213.244 127.917 215.117 128.048 216.53 127.325C216.596 127.293 216.629 127.26 216.661 127.26C217.647 126.668 217.779 125.978 217.056 125.354L215.873 125.978C216.037 126.208 215.971 126.471 215.577 126.701C215.544 126.701 215.544 126.734 215.511 126.734C214.854 127.063 213.967 126.997 213.211 126.537L216.366 124.927L215.971 124.697C214.263 123.678 212.455 123.678 211.24 124.302C211.174 124.27 211.141 124.302 211.108 124.335Z" fill="#FAFAFA"/>
</g>
<path d="M0.396484 0H224.753V26.0071L0.396484 137.654V0Z" fill="#4D4C96"/>
<path d="M390.549 0H224.754V26.0071L390.549 137.654V0Z" fill="#363568"/>
<path d="M390.549 0H224.754V26.0071L390.549 137.654V0Z" fill="url(#paint1_linear_291_9912)" fill-opacity="0.2"/>
<path fill-rule="evenodd" clip-rule="evenodd" d="M280.304 135.664C279.704 135.964 279.105 136.263 278.805 136.863L273.113 145.552C271.914 147.349 269.218 147.349 268.019 145.552L262.326 136.863C262.027 136.263 261.427 135.964 260.828 135.664C252.439 132.069 246.446 123.38 246.446 113.792C246.446 100.608 257.233 89.822 270.416 89.822C283.599 89.822 294.386 100.608 294.386 113.792C294.685 123.38 288.693 131.769 280.304 135.664Z" fill="#DBD5EC"/>
<path fill-rule="evenodd" clip-rule="evenodd" d="M268.957 115.003L275.572 108.388C275.962 107.998 276.595 107.998 276.986 108.388L278.5 109.903C278.891 110.293 278.891 110.927 278.5 111.317L271.885 117.932L271.885 117.932L269.664 120.154C269.273 120.544 268.64 120.544 268.25 120.154L262.342 114.246C261.951 113.855 261.951 113.222 262.342 112.832L263.856 111.317C264.247 110.927 264.88 110.927 265.27 111.317L268.957 115.003Z" fill="#343362"/>
<rect x="0.776367" width="390" height="258" fill="url(#paint2_linear_291_9912)"/>
<defs>
<filter id="filter0_f_291_9912" x="116.74" y="115.783" width="302.911" height="189.538" filterUnits="userSpaceOnUse" color-interpolation-filters="sRGB">
<feFlood flood-opacity="0" result="BackgroundImageFix"/>
<feBlend mode="normal" in="SourceGraphic" in2="BackgroundImageFix" result="shape"/>
<feGaussianBlur stdDeviation="0.5" result="effect1_foregroundBlur_291_9912"/>
</filter>
<linearGradient id="paint0_linear_291_9912" x1="140.212" y1="151.925" x2="136.828" y2="151.925" gradientUnits="userSpaceOnUse">
<stop stop-color="#343445"/>
<stop offset="1" stop-color="#2C2C35"/>
</linearGradient>
<linearGradient id="paint1_linear_291_9912" x1="231.052" y1="13.9533" x2="387.244" y2="72.5788" gradientUnits="userSpaceOnUse">
<stop stop-color="#1A1A1A"/>
<stop offset="1" stop-color="#363567" stop-opacity="0"/>
</linearGradient>
<linearGradient id="paint2_linear_291_9912" x1="195.776" y1="163.121" x2="195.776" y2="252.424" gradientUnits="userSpaceOnUse">
<stop stop-color="#141414" stop-opacity="0"/>
<stop offset="1" stop-color="#141414"/>
</linearGradient>
</defs>
</svg>
