<svg width="303" height="404" viewBox="0 0 303 404" fill="none" xmlns="http://www.w3.org/2000/svg">
<circle cx="151.336" cy="253" r="151" fill="#F19239"/>
<circle cx="151.336" cy="253" r="151" fill="#FAACDA"/>
<mask id="mask0_2372_12733" style="mask-type:alpha" maskUnits="userSpaceOnUse" x="0" y="102" width="303" height="302">
<circle cx="151.336" cy="253" r="151" fill="white"/>
</mask>
<g mask="url(#mask0_2372_12733)">
<path d="M86.2732 384.814V396.294C86.2732 403.444 122.363 415.784 148.203 415.774C173.833 415.774 199.963 415.354 218.043 398.784C218.043 398.784 221.433 392.024 219.923 384.294L203.733 393.884L169.683 398.774L119.523 391.994L95.1832 388.604L86.2732 384.794V384.814Z" fill="#FCFCFC"/>
<path d="M230.603 273.234C243.041 273.234 253.123 263.152 253.123 250.714C253.123 238.277 243.041 228.194 230.603 228.194C218.166 228.194 208.083 238.277 208.083 250.714C208.083 263.152 218.166 273.234 230.603 273.234Z" fill="#222222"/>
<path d="M222.553 211.334C223.333 208.814 223.563 206.054 223.083 203.254C221.513 193.984 212.993 187.704 204.063 189.214C204.003 189.224 203.943 189.244 203.873 189.254C198.823 183.084 190.163 179.744 181.083 181.284C168.133 183.474 159.243 194.754 161.223 206.474C161.343 207.194 161.503 207.904 161.703 208.604C153.993 212.354 148.883 219.654 148.633 227.644C145.023 223.264 139.583 220.324 133.473 219.554C132.363 213.014 127.993 206.934 121.263 203.664C110.573 198.484 97.9731 202.364 93.1431 212.344C90.6331 217.524 90.7231 223.314 92.8631 228.414C82.7931 232.334 76.4331 242.094 78.1431 252.184C80.1231 263.904 92.2331 271.624 105.183 269.434C111.343 268.394 116.583 265.284 120.173 261.054C124.103 262.464 128.533 262.914 133.073 262.154C144.573 260.204 152.873 251.084 153.193 240.864C158.253 247.004 166.893 250.324 175.943 248.784C181.653 247.814 186.573 245.084 190.123 241.324C194.723 249.054 204.423 253.514 214.653 251.774C227.603 249.584 232.283 238.264 234.513 226.584C236.313 217.144 230.813 211.284 222.553 211.344V211.334Z" fill="#222222"/>
<path d="M222.553 211.334C223.333 208.814 223.563 206.054 223.083 203.254C221.513 193.984 212.993 187.704 204.063 189.214C204.003 189.224 203.943 189.244 203.873 189.254C198.823 183.084 190.163 179.744 181.083 181.284C168.133 183.474 159.243 194.754 161.223 206.474C161.343 207.194 161.503 207.904 161.703 208.604C153.993 212.354 148.883 219.654 148.633 227.644C145.023 223.264 139.583 220.324 133.473 219.554C132.363 213.014 127.993 206.934 121.263 203.664C110.573 198.484 97.9731 202.364 93.1431 212.344C90.6331 217.524 90.7231 223.314 92.8631 228.414C82.7931 232.334 76.4331 242.094 78.1431 252.184C80.1231 263.904 92.2331 271.624 105.183 269.434C111.343 268.394 116.583 265.284 120.173 261.054C124.103 262.464 128.533 262.914 133.073 262.154C144.573 260.204 152.873 251.084 153.193 240.864C158.253 247.004 166.893 250.324 175.943 248.784C181.653 247.814 186.573 245.084 190.123 241.324C194.723 249.054 204.423 253.514 214.653 251.774C227.603 249.584 232.283 238.264 234.513 226.584C236.313 217.144 230.813 211.284 222.553 211.344V211.334Z" fill="url(#paint0_linear_2372_12733)"/>
<path d="M123.262 222.511C128.518 220.44 131.289 214.978 129.45 210.313C127.611 205.647 121.859 203.545 116.603 205.616C111.347 207.688 108.576 213.149 110.415 217.815C112.254 222.48 118.005 224.583 123.262 222.511Z" fill="#CB6C66"/>
<path d="M140.693 224.594V246.994C140.693 246.994 149.633 253.674 161.773 247.704V224.594H140.693Z" fill="#CB6C66"/>
<path d="M217.963 391.174C197.623 416.344 111.383 414.064 88.5032 391.174C72.5232 375.194 88.5032 300.754 88.5032 300.754C88.5032 265.764 105.793 241.064 140.793 241.064L141.673 241.614C147.953 245.554 156.043 245.054 161.783 240.354C196.773 240.354 217.973 265.754 217.973 300.744C217.973 300.744 232.183 373.584 217.973 391.164L217.963 391.174Z" fill="#6537C8"/>
<path d="M202.942 396.909C206.363 389.682 207.172 378.91 207.149 374.428L224.105 367.735C223.55 377.45 221.891 383.907 220.458 388.22L202.942 396.909Z" fill="url(#paint1_linear_2372_12733)"/>
<path d="M156.819 377.462C157.243 379.818 159.282 384.912 164.047 386.437C170.004 388.343 173.446 384.214 176.173 377.462" stroke="#4B239F"/>
<path d="M116.167 382.281C109.242 380.317 108.01 375.775 108.26 373.75C115.737 373.126 127.744 371.445 131.939 371.545C136.134 371.645 135.157 374.916 134.144 376.539L125.863 381.199C124.462 381.99 120.561 383.313 116.167 382.281Z" fill="#4B239F"/>
<path d="M183.712 380.465C190.637 378.501 191.868 373.959 191.619 371.934C184.142 371.31 172.134 369.629 167.94 369.729C163.745 369.829 164.721 373.1 165.734 374.723L174.015 379.383C175.417 380.174 179.317 381.497 183.712 380.465Z" fill="#4B239F"/>
<path d="M79.3687 241.669C81.674 236.977 88.4381 227.77 97.0515 228.486" stroke="black" stroke-linecap="round"/>
<g filter="url(#filter0_f_2372_12733)">
<path d="M113.753 377.33C97.0302 380.417 85.4305 376.796 82.112 375.849C81.5829 370.281 81.9957 369.608 82.112 367.046C85.9536 370.609 97.5966 373.894 108.888 373.632L113.753 377.33Z" fill="#4B239F"/>
</g>
<path d="M88.5032 391.174L88.8568 390.821L88.8567 390.821L88.5032 391.174ZM86.4917 314.028C86.5511 313.758 86.3805 313.492 86.1108 313.432C85.8411 313.373 85.5744 313.543 85.5151 313.813L86.4917 314.028ZM217.574 390.86C212.59 397.029 203.511 401.57 192.245 404.528C180.995 407.483 167.639 408.839 154.191 408.697C140.744 408.555 127.225 406.914 115.65 403.887C104.06 400.856 94.4833 396.45 88.8568 390.821L88.1496 391.528C93.9631 397.344 103.746 401.807 115.397 404.854C127.063 407.906 140.665 409.554 154.18 409.697C167.695 409.84 181.143 408.478 192.499 405.496C203.838 402.518 213.167 397.905 218.352 391.489L217.574 390.86ZM88.8567 390.821C84.9854 386.95 82.8477 380.268 81.8673 372.301C80.8897 364.357 81.0742 355.237 81.7592 346.595C82.444 337.956 83.6273 329.813 84.6398 323.828C85.146 320.836 85.6093 318.384 85.9459 316.682C86.1142 315.83 86.2508 315.166 86.3453 314.715C86.3925 314.49 86.4292 314.318 86.4541 314.202C86.4665 314.144 86.4759 314.1 86.4823 314.071C86.4854 314.057 86.4878 314.046 86.4894 314.039C86.4902 314.035 86.4908 314.032 86.4912 314.031C86.4914 314.03 86.4915 314.029 86.4916 314.029C86.4917 314.028 86.4917 314.028 86.0034 313.921C85.5151 313.813 85.515 313.813 85.5149 313.814C85.5148 313.814 85.5146 313.815 85.5144 313.816C85.514 313.818 85.5133 313.821 85.5125 313.825C85.5108 313.833 85.5084 313.844 85.5051 313.859C85.4986 313.889 85.489 313.933 85.4764 313.992C85.4512 314.109 85.4141 314.283 85.3665 314.51C85.2713 314.965 85.134 315.632 84.9649 316.488C84.6267 318.198 84.1617 320.659 83.6538 323.661C82.6382 329.664 81.4502 337.838 80.7624 346.516C80.0748 355.189 79.8855 364.384 80.8748 372.423C81.8613 380.44 84.031 387.409 88.1496 391.528L88.8567 390.821Z" fill="#18161B"/>
<path d="M140.783 241.064C140.783 241.064 49.3532 235.894 40.4332 307.234C31.5132 378.574 109.523 376.314 109.523 376.314L105.673 355.234C105.673 355.234 76.7932 337.924 85.5432 310.864C85.5432 310.864 94.4332 294.434 117.513 300.644" fill="#6537C8"/>
<path d="M140.783 241.064C140.783 241.064 49.3532 235.894 40.4332 307.234C31.5132 378.574 109.523 376.314 109.523 376.314L105.673 355.234C105.673 355.234 76.7932 337.924 85.5432 310.864C85.5432 310.864 94.4332 294.434 117.513 300.644" fill="url(#paint2_linear_2372_12733)"/>
<path d="M105.493 293.014C96.9932 295.524 91.7732 300.604 88.7432 304.804C86.1732 308.384 84.6032 312.594 84.1132 316.974C81.2632 342.294 105.673 355.224 105.673 355.224L109.523 376.304C109.523 376.304 31.5132 378.574 40.4332 307.234C49.0332 238.454 134.243 240.514 140.343 240.754C140.553 240.754 140.753 240.844 140.913 240.984C141.753 241.724 144.933 244.184 150.643 244.264" stroke="#18161B" stroke-miterlimit="10" stroke-linecap="round"/>
<path d="M180.87 376.012C197.593 379.099 220.194 373.261 223.513 372.314C224.103 366.689 224.302 366.666 224.186 364.105C220.345 367.667 197.026 372.576 185.734 372.314L180.87 376.012Z" fill="url(#paint3_linear_2372_12733)"/>
<path d="M217.911 231.507C217.68 231.659 217.617 231.969 217.77 232.199C217.922 232.43 218.233 232.493 218.463 232.34L217.911 231.507ZM252.623 250.714C252.623 262.876 242.764 272.734 230.603 272.734V273.734C243.317 273.734 253.623 263.428 253.623 250.714H252.623ZM230.603 228.694C242.764 228.694 252.623 238.553 252.623 250.714H253.623C253.623 238.001 243.317 227.694 230.603 227.694V228.694ZM218.463 232.34C221.943 230.036 226.116 228.694 230.603 228.694V227.694C225.913 227.694 221.55 229.097 217.911 231.507L218.463 232.34Z" fill="black"/>
<g filter="url(#filter1_f_2372_12733)">
<path d="M214.549 319.78C215.186 310.024 206.991 297.885 202.362 291.366C204.535 289.618 210.936 287.086 219.155 290.941C229.43 295.759 236.586 316.733 230.776 332.747C226.128 345.558 208.101 352.587 199.669 354.501C213.274 331.117 214.061 327.256 214.549 319.78Z" fill="#4B239F"/>
</g>
<path d="M161.773 240.364C161.773 240.364 254.058 231.469 262.033 303.834C270.953 375.174 184.743 375.384 184.743 375.384L197.43 351.65C197.43 351.65 229.573 336.299 218.425 307.806C218.425 307.806 207.736 286.296 184.666 292.516" fill="#6537C8"/>
<path d="M161.773 240.364C161.773 240.364 254.058 231.469 262.033 303.834C270.953 375.174 184.743 375.384 184.743 375.384L197.43 351.65C197.43 351.65 229.573 336.299 218.425 307.806C218.425 307.806 207.736 286.296 184.666 292.516" fill="url(#paint4_linear_2372_12733)"/>
<path d="M161.773 239.985C161.773 239.985 257.023 233.605 262.513 305.295C267.943 376.225 186.271 374.914 186.271 374.914L195.093 352.605C195.093 352.605 223.363 340.375 220.503 315.055C220.013 310.675 218.443 306.465 215.873 302.885C212.843 298.675 205.953 293.605 197.453 291.095" stroke="#18161B" stroke-miterlimit="10" stroke-linecap="round"/>
<path d="M116.443 209.314C116.443 209.314 114.763 210.584 113.873 212.624C113.253 214.024 113.003 215.794 113.923 217.744" stroke="#18161B" stroke-miterlimit="10" stroke-linecap="round"/>
<path d="M163.237 295.795C163.237 295.795 176.38 281.995 185.829 243.531" stroke="#4B239F" stroke-miterlimit="10" stroke-linecap="round"/>
<path d="M180.286 340.307C180.286 340.307 173.931 308.461 156.548 289.056" stroke="#4B239F" stroke-miterlimit="10" stroke-linecap="round"/>
<path d="M113.863 212.625C113.863 212.625 119.093 213.115 119.513 218.265" stroke="#18161B" stroke-miterlimit="10" stroke-linecap="round"/>
<path d="M119.717 223.767C119.717 223.767 134.893 265.534 163.283 296.744C191.323 327.574 179.967 383.224 168.103 384.284C160.743 384.644 156.233 376.324 156.233 376.324" stroke="#D6D6D6" stroke-miterlimit="10"/>
<path d="M160.493 293.594C160.493 293.594 189.323 261.114 190.953 207.834" stroke="#D6D6D6" stroke-miterlimit="10" stroke-linecap="round"/>
<path d="M121.963 214.844C121.963 212.784 120.293 211.114 118.233 211.114C116.173 211.114 114.503 212.784 114.503 214.844C114.503 215.784 114.863 216.634 115.433 217.294C116.103 219.344 117.393 222.614 119.143 223.994L120.363 223.614C120.363 223.614 119.093 220.574 118.963 218.504C120.673 218.164 121.963 216.654 121.963 214.844Z" fill="#F2F2F2"/>
<path d="M119.57 221.373C118.371 220.159 117.944 218.801 117.907 218.274C118.27 218.471 118.738 218.509 118.973 218.521C118.935 218.704 119.176 220.229 119.57 221.373Z" fill="#DDDDDD"/>
<path d="M160.986 227.521C183.088 223.779 198.493 205.9 195.392 187.587C192.291 169.275 171.86 157.463 149.757 161.205C127.655 164.948 112.251 182.827 115.351 201.14C118.452 219.452 138.883 231.264 160.986 227.521Z" fill="#CB6C66"/>
<path d="M186.853 183.774L187.963 190.334C188.453 193.204 186.513 195.924 183.643 196.414C180.773 196.904 178.053 194.964 177.563 192.094L176.453 185.534" stroke="black" stroke-width="2" stroke-miterlimit="10" stroke-linecap="round"/>
<path d="M136.497 215.777C148.894 213.678 159.64 197.496 157.656 185.777C155.672 174.059 142.517 171.381 130.12 173.48C117.722 175.579 107.348 183.003 109.332 194.722C111.316 206.44 124.099 217.876 136.497 215.777Z" fill="#993F39" fill-opacity="0.92"/>
<path d="M156.166 228.287C150.265 228.694 143.353 227.669 140.7 227.124L140.7 234.889C145.235 234.395 152.944 230.261 156.166 228.287Z" fill="#993F39"/>
<path d="M164.853 190.935L165.963 197.495C166.453 200.365 164.513 203.085 161.643 203.575C158.773 204.065 156.053 202.125 155.563 199.255L154.453 192.695" stroke="black" stroke-width="2" stroke-miterlimit="10" stroke-linecap="round"/>
<g filter="url(#filter2_b_2372_12733)">
<path d="M191.968 178.381C179.362 176.28 163.904 185.86 157.751 190.913L154.374 184.985C161.228 181.683 176.645 175.02 183.489 174.78C190.332 174.539 191.993 177.081 191.968 178.381Z" fill="#9D433D"/>
</g>
<path d="M127.123 219.984C127.123 219.984 134.417 228.692 155.883 228.187" stroke="#18161B" stroke-miterlimit="10" stroke-linecap="round"/>
<path d="M134.987 213.391C147.936 211.198 153.127 199.024 157.473 189.438C161.819 179.852 184.868 163.31 171.919 165.503C158.97 167.695 108.55 186.362 110.433 197.486C112.317 208.61 122.038 215.583 134.987 213.391Z" fill="#1F1F1F"/>
<path d="M134.987 213.391C147.936 211.198 153.127 199.024 157.473 189.438C161.819 179.852 184.868 163.31 171.919 165.503C158.97 167.695 108.55 186.362 110.433 197.486C112.317 208.61 122.038 215.583 134.987 213.391Z" fill="url(#paint5_linear_2372_12733)"/>
<path fill-rule="evenodd" clip-rule="evenodd" d="M128.457 144.711C146.122 134.79 175.51 138.152 185.573 161.024L185.563 161.014L129.003 199.614L111.395 201.781C103.258 180.107 106.743 162.704 123.053 148.494C123.934 147.727 124.87 147.005 125.854 146.329C125.712 146.19 125.578 146.035 125.453 145.865C124.639 144.757 124.556 143.434 125.268 142.911C125.98 142.388 127.218 142.862 128.032 143.971C128.208 144.211 128.35 144.461 128.457 144.711Z" fill="#5C32D2"/>
<path fill-rule="evenodd" clip-rule="evenodd" d="M128.457 144.711C146.122 134.79 175.51 138.152 185.573 161.024L185.563 161.014L129.003 199.614L111.395 201.781C103.258 180.107 106.743 162.704 123.053 148.494C123.934 147.727 124.87 147.005 125.854 146.329C125.712 146.19 125.578 146.035 125.453 145.865C124.639 144.757 124.556 143.434 125.268 142.911C125.98 142.388 127.218 142.862 128.032 143.971C128.208 144.211 128.35 144.461 128.457 144.711Z" fill="url(#paint6_linear_2372_12733)"/>
<path d="M143.626 170.758C158.847 157.839 177.686 158.524 185.203 160.481C182.031 161.088 175.043 162.348 172.46 162.536C169.23 162.771 159.775 165.884 146.915 172.049C136.626 176.982 130.492 192.505 128.711 199.65C127.34 195.402 128.405 183.677 143.626 170.758Z" fill="#311B70"/>
<path d="M145.553 193.224C145.553 193.224 155.473 183.624 174.773 177.494C179.383 176.394 183.633 175.504 187.033 175.854C190.433 176.204 193.083 178.784 193.653 182.114L194.023 182.404C194.023 182.404 204.783 179.374 206.043 176.924C207.303 174.474 206.883 172.214 204.963 170.564C201.353 167.454 187.803 165.924 187.803 165.924C187.803 165.924 172.383 167.004 168.493 168.284C164.603 169.564 158.763 171.984 156.953 173.964C155.143 175.944 143.893 181.664 143.803 185.404C143.713 189.144 143.373 193.874 143.373 193.874L145.553 193.214V193.224Z" fill="#20115F"/>
<path d="M145.553 193.224C145.553 193.224 155.473 183.624 174.773 177.494C179.383 176.394 183.633 175.504 187.033 175.854C190.433 176.204 193.083 178.784 193.653 182.114L194.023 182.404C194.023 182.404 204.783 179.374 206.043 176.924C207.303 174.474 206.883 172.214 204.963 170.564C201.353 167.454 187.803 165.924 187.803 165.924C187.803 165.924 172.383 167.004 168.493 168.284C164.603 169.564 158.763 171.984 156.953 173.964C155.143 175.944 143.893 181.664 143.803 185.404C143.713 189.144 143.373 193.874 143.373 193.874L145.553 193.214V193.224Z" fill="url(#paint7_linear_2372_12733)"/>
<path d="M128.963 199.644C128.963 199.644 138.263 203.09 142.993 196.794C147.433 190.884 147.373 182.194 157.993 174.874C164.933 170.084 174.793 165.914 193.323 167.504C195.311 167.746 197.113 168.114 198.883 168.804C204.853 171.144 207.093 173.374 205.623 176.004C203.943 179.024 193.953 182.354 193.953 182.354L194.573 184.124C194.573 184.124 204.573 181.114 207.603 178.694C210.633 176.274 211.913 172.564 207.813 168.634C204.693 165.654 195.213 159.024 178.903 160.834C162.603 162.644 149.783 167.004 139.153 178.064C128.523 189.124 128.963 199.644 128.963 199.644Z" fill="#9B8DF2"/>
<path d="M128.963 199.644C128.963 199.644 138.263 203.09 142.993 196.794C147.433 190.884 147.373 182.194 157.993 174.874C164.933 170.084 174.793 165.914 193.323 167.504C195.311 167.746 197.113 168.114 198.883 168.804C204.853 171.144 207.093 173.374 205.623 176.004C203.943 179.024 193.953 182.354 193.953 182.354L194.573 184.124C194.573 184.124 204.573 181.114 207.603 178.694C210.633 176.274 211.913 172.564 207.813 168.634C204.693 165.654 195.213 159.024 178.903 160.834C162.603 162.644 149.783 167.004 139.153 178.064C128.523 189.124 128.963 199.644 128.963 199.644Z" fill="url(#paint8_linear_2372_12733)"/>
<path d="M167.003 320.474L175.023 377.514L130.423 377.274L122.403 320.234L167.003 320.474Z" fill="#C2BECF"/>
<path d="M167.003 320.474L175.023 377.514L130.423 377.274L122.403 320.234L167.003 320.474Z" fill="url(#paint9_linear_2372_12733)"/>
<path d="M167.003 320.474L167.973 315.074L175.993 372.124L175.023 377.514L167.003 320.474Z" fill="#806FBB"/>
<path d="M167.003 320.474L167.973 315.074L175.993 372.124L175.023 377.514L167.003 320.474Z" fill="url(#paint10_linear_2372_12733)"/>
<path d="M122.403 320.234L123.373 314.834L167.973 315.074L167.003 320.474L122.403 320.234Z" fill="#CAC3E1"/>
<path d="M122.403 320.234L123.373 314.834L167.973 315.074L167.003 320.474L122.403 320.234Z" fill="url(#paint11_linear_2372_12733)"/>
<path d="M135.203 366.634L135.363 366.584C138.043 365.794 139.583 362.984 138.793 360.304C138.013 357.644 135.233 356.114 132.573 356.864C135.223 356.054 136.733 353.264 135.953 350.604C135.163 347.924 132.353 346.384 129.673 347.174L128.633 347.484C130.753 346.514 131.743 344.044 130.853 341.874L130.323 340.584C129.403 338.354 126.853 337.284 124.623 338.204L114.743 342.254C113.723 342.294 112.693 342.434 111.673 342.734C105.093 344.664 101.323 351.564 103.253 358.144L107.413 372.324C109.343 378.904 116.243 382.674 122.823 380.744C124.143 380.354 125.353 379.754 126.423 379.014L135.363 376.394C138.043 375.604 139.583 372.794 138.793 370.114C138.273 368.344 136.863 367.084 135.203 366.654V366.634Z" fill="#CB6C66"/>
<path d="M130.853 341.874L130.323 340.584C129.403 338.354 126.853 337.284 124.623 338.204L114.743 342.254C113.723 342.294 112.693 342.434 111.673 342.734C105.093 344.664 101.323 351.564 103.253 358.144L107.413 372.324" stroke="#18161B" stroke-linecap="round"/>
<path d="M164.293 364.464L164.133 364.414C161.453 363.624 159.913 360.814 160.703 358.134C161.483 355.474 164.263 353.944 166.923 354.694C164.273 353.884 162.763 351.094 163.543 348.434C164.333 345.754 167.143 344.214 169.823 345.004L170.863 345.314C168.743 344.344 167.753 341.874 168.643 339.704L169.173 338.414C170.093 336.184 172.643 335.114 174.873 336.034L184.753 340.084C185.773 340.124 186.803 340.264 187.823 340.564C194.403 342.494 198.173 349.394 196.243 355.974L192.083 370.154C190.153 376.734 183.253 380.504 176.673 378.574C175.353 378.184 174.143 377.584 173.073 376.844L164.133 374.224C161.453 373.434 159.913 370.624 160.703 367.944C161.223 366.174 162.633 364.914 164.293 364.484V364.464Z" fill="#CB6C66"/>
<path d="M116.951 347.013C119.559 352.519 124.998 365.499 125.881 373.373" stroke="#18161B" stroke-linecap="round"/>
<path d="M183.618 345.027C181.009 350.533 175.571 363.513 174.688 371.387" stroke="#18161B" stroke-linecap="round"/>
<path d="M168.576 340.109L169.106 338.819C170.026 336.589 172.576 335.519 174.806 336.439L184.686 340.489C185.706 340.529 186.736 340.669 187.756 340.969C194.336 342.899 198.106 349.799 196.176 356.379L192.016 370.559" stroke="#18161B" stroke-linecap="round"/>
<path d="M173.608 345.471C169.504 344.529 168.968 341.829 168.406 340.603C168.165 341.157 168.164 342.617 169.281 344.091C170.538 345.748 172.153 345.523 173.608 345.471Z" fill="#A3504B"/>
<path d="M125.941 347.801C130.045 346.859 130.581 344.159 131.143 342.933C131.384 343.487 131.385 344.947 130.268 346.421C129.011 348.078 127.396 347.853 125.941 347.801Z" fill="#A3504B"/>
<path d="M167.696 354.718C164.477 353.007 163.946 350.418 163.384 349.191C163.329 349.777 163.15 351.308 164.268 352.782C165.524 354.438 166.99 354.813 167.696 354.718Z" fill="#A3504B"/>
<path d="M164.844 364.474C161.624 362.764 161.093 360.174 160.531 358.948C160.477 359.534 160.298 361.064 161.415 362.538C162.672 364.195 164.138 364.569 164.844 364.474Z" fill="#A3504B"/>
<path d="M131.853 357.048C135.073 355.337 135.603 352.748 136.166 351.521C136.22 352.107 136.399 353.638 135.281 355.112C134.025 356.769 132.559 357.143 131.853 357.048Z" fill="#A3504B"/>
<path d="M134.689 366.595C137.908 364.885 138.439 362.295 139.001 361.069C139.056 361.655 139.235 363.186 138.117 364.659C136.86 366.316 135.395 366.69 134.689 366.595Z" fill="#A3504B"/>
<mask id="mask1_2372_12733" style="mask-type:luminance" maskUnits="userSpaceOnUse" x="140" y="334" width="13" height="10">
<path d="M152.523 334.51H140.523V343.51H152.523V334.51Z" fill="white"/>
</mask>
<g mask="url(#mask1_2372_12733)">
<path d="M146.523 334.51C143.207 334.51 140.523 336.524 140.523 339.01C140.523 341.496 143.207 343.51 146.523 343.51C149.839 343.51 152.523 341.496 152.523 339.01C152.523 336.524 149.839 334.51 146.523 334.51Z" fill="#817796"/>
</g>
<path d="M146.523 333.464C146.877 332.33 147.869 331.36 149.523 331.529C149.212 332.235 148.135 333.798 146.523 333.464Z" fill="#817796"/>
<path d="M232.232 214.674C232.043 214.473 231.727 214.463 231.526 214.652C231.324 214.841 231.314 215.157 231.503 215.358L232.232 214.674ZM234.607 228.319C235.783 225.851 236.943 219.693 232.232 214.674L231.503 215.358C235.836 219.975 234.772 225.648 233.704 227.89L234.607 228.319Z" fill="black"/>
<path d="M93.1815 228.823C90.9923 224.606 88.8037 214.213 97.5629 206.372C101.358 203.31 105.863 201.427 111.602 201.471" stroke="black" stroke-linecap="round"/>
</g>
<g filter="url(#filter3_d_2372_12733)">
<path fill-rule="evenodd" clip-rule="evenodd" d="M94.554 126.936C94.6683 126.757 94.8374 126.619 95.0349 126.54C108.133 121.312 117.388 108.511 117.388 93.5477C117.388 73.9364 101.49 58.0383 81.8785 58.0383C62.2672 58.0383 46.3691 73.9364 46.3691 93.5477C46.3691 108.511 55.6242 121.312 68.722 126.54C68.9195 126.619 69.0886 126.757 69.203 126.936L80.1922 144.168C80.9784 145.401 82.7785 145.401 83.5647 144.168L94.554 126.936Z" fill="#5746C0"/>
</g>
<circle cx="81.8785" cy="93.5482" r="30.7935" fill="#1A113C"/>
<path fill-rule="evenodd" clip-rule="evenodd" d="M81.8785 86.4028H69.3746L72.8207 109.664C72.8934 110.154 73.3143 110.517 73.8099 110.517H81.8785V86.4028ZM81.8786 86.4029H94.3824L90.9363 109.664C90.8637 110.154 90.4428 110.518 89.9471 110.518H81.8786V86.4029Z" fill="#D9D9D9"/>
<path fill-rule="evenodd" clip-rule="evenodd" d="M90.922 76.5784H81.8783V76.5785H72.8348C72.3759 76.5785 71.9759 76.8908 71.8646 77.336L71.1609 80.1511H69.2241C68.7178 80.1511 68.2913 80.5295 68.2312 81.0322L67.7223 85.2842C67.651 85.8793 68.1158 86.403 68.7152 86.403H81.8785V86.4029H95.0416C95.641 86.4029 96.1058 85.8792 96.0345 85.284L95.5256 81.0321C95.4654 80.5293 95.039 80.1509 94.5327 80.1509H92.5959L91.8921 77.3358C91.7808 76.8907 91.3809 76.5784 90.922 76.5784Z" fill="#4841A6"/>
<path fill-rule="evenodd" clip-rule="evenodd" d="M81.8784 86.4029H69.3745L72.8206 109.664C72.8933 110.154 73.3141 110.518 73.8098 110.518H81.8784V86.4029ZM81.8784 86.403H94.3823L90.9362 109.664C90.8636 110.154 90.4427 110.518 89.947 110.518H81.8784V86.403Z" fill="#ABA9C8"/>
<path fill-rule="evenodd" clip-rule="evenodd" d="M81.8784 86.4029H69.3745L72.8206 109.664C72.8933 110.154 73.3141 110.518 73.8098 110.518H81.8784V86.4029ZM81.8785 86.403H90.8098L87.3637 109.664C87.2911 110.154 86.8702 110.518 86.3745 110.518H81.8785V86.403Z" fill="#E7E6F0"/>
<path fill-rule="evenodd" clip-rule="evenodd" d="M87.3494 76.5786H81.8782V76.5787H72.8347C72.3758 76.5787 71.9758 76.891 71.8646 77.3362L71.1608 80.1513H69.224C68.7177 80.1513 68.2912 80.5297 68.2311 81.0324L67.7222 85.2844C67.6509 85.8795 68.1157 86.4032 68.7151 86.4032H81.8784V86.403H91.469C92.0684 86.403 92.5331 85.8793 92.4619 85.2842L91.953 81.0323C91.8928 80.5295 91.4664 80.1511 90.9601 80.1511H89.0233L88.3195 77.336C88.2082 76.8908 87.8082 76.5786 87.3494 76.5786Z" fill="#8F87F3"/>
<path fill-rule="evenodd" clip-rule="evenodd" d="M81.8923 79.7131C81.8923 79.4665 82.0923 79.2665 82.3389 79.2665H89.0374V80.1597H82.3389C82.0923 80.1597 81.8923 79.9597 81.8923 79.7131Z" fill="#4841A6"/>
<circle cx="80.1844" cy="96.808" r="6.25194" fill="#ABA9C8"/>
<path d="M76.4573 99.1137L76.4558 96.3168H77.2881L77.2896 99.1137C77.2896 99.3435 77.1033 99.5299 76.8735 99.5299C76.6436 99.5299 76.4573 99.3435 76.4573 99.1137Z" fill="#E7E6F0"/>
<path d="M80.4004 99.1137L80.3989 96.3168H81.2312L81.2327 99.1137C81.2327 99.3435 81.0464 99.5299 80.8166 99.5299C80.5868 99.5299 80.4004 99.3435 80.4004 99.1137Z" fill="#E7E6F0"/>
<path d="M79.3308 99.5361C79.5819 99.5361 79.7854 99.3326 79.7854 99.0815C79.7854 98.8304 79.5819 98.6269 79.3308 98.6269C79.0798 98.6269 78.8762 98.8304 78.8762 99.0815C78.8762 99.3326 79.0798 99.5361 79.3308 99.5361Z" fill="#6B57EA"/>
<path d="M78.1232 94.0798C79.043 94.0826 79.7846 94.8316 79.7823 95.7546V95.7551L79.7851 96.35C79.7819 97.2735 79.0351 98.0183 78.1149 98.015C77.1947 98.0118 76.453 97.2623 76.4558 96.3389L77.2881 96.3416C77.2868 96.8011 77.6599 97.1783 78.1177 97.1797C78.5801 97.1811 78.9514 96.8066 78.9528 96.3472L78.95 95.7532C78.9514 95.2938 78.5782 94.9165 78.1205 94.9151C77.7164 94.9139 77.3761 95.2056 77.3008 95.59H76.4606C76.5409 94.7396 77.2551 94.0772 78.1232 94.0798Z" fill="#E7E6F0"/>
<path d="M82.0664 94.0797C82.9861 94.0824 83.7278 94.8314 83.7254 95.7544V95.7549L83.7282 96.3498C83.725 97.2733 82.9782 98.0181 82.058 98.0148C81.1378 98.0116 80.3962 97.2621 80.3989 96.3387L81.2313 96.3415C81.2299 96.8009 81.603 97.1782 82.0608 97.1795C82.5232 97.1809 82.8945 96.8064 82.8959 96.347L82.8931 95.753C82.8945 95.2936 82.5214 94.9164 82.0636 94.915C81.6595 94.9137 81.3192 95.2054 81.244 95.5898H80.4037C80.484 94.7394 81.1982 94.077 82.0664 94.0797Z" fill="#E7E6F0"/>
<g filter="url(#filter4_d_2372_12733)">
<path fill-rule="evenodd" clip-rule="evenodd" d="M189.48 57.2392C189.595 57.0599 189.764 56.9221 189.961 56.8428C200.302 52.6861 207.603 42.5634 207.603 30.7354C207.603 15.2016 195.011 2.60901 179.477 2.60901C163.943 2.60901 151.35 15.2016 151.35 30.7354C151.35 42.5634 158.651 52.6862 168.993 56.8428C169.19 56.9221 169.359 57.0599 169.473 57.2392L177.79 70.281C178.577 71.5139 180.377 71.5139 181.163 70.281L189.48 57.2392Z" fill="#5746C0"/>
</g>
<circle cx="179.477" cy="30.7352" r="23.8085" fill="#1A113C"/>
<rect x="168.718" y="19.5267" width="21.5176" height="18.8279" rx="1" fill="#4841A6"/>
<rect x="169.39" y="20.1993" width="20.1728" height="17.4831" rx="1" fill="#E7E6F0"/>
<path d="M178.132 38.3546H180.822V45.4237C180.822 45.976 180.374 46.4237 179.822 46.4237H179.132C178.58 46.4237 178.132 45.976 178.132 45.4237V38.3546Z" fill="#E7E6F0"/>
<path d="M178.132 38.3546H180.822V40.4087L178.132 39.0638L178.132 38.3546Z" fill="#ABA9C8"/>
<path d="M173.425 26.251C173.425 25.8796 173.726 25.5786 174.097 25.5786H174.77V26.9234H174.097C173.726 26.9234 173.425 26.6223 173.425 26.251Z" fill="#4841A6"/>
<path d="M174.77 35.0202H177.459V35.3651C177.459 35.9173 177.012 36.3651 176.459 36.3651H175.77C175.217 36.3651 174.77 35.9173 174.77 35.3651V35.0202Z" fill="#4841A6"/>
<path d="M181.494 35.0202H184.184V35.3651C184.184 35.9173 183.736 36.3651 183.184 36.3651H182.494C181.942 36.3651 181.494 35.9173 181.494 35.3651V35.0202Z" fill="#4841A6"/>
<path d="M181.494 35.0202H184.184V35.6926L181.494 35.0202Z" fill="#353071"/>
<path d="M174.77 35.0202H177.459V35.6926L174.77 35.0202Z" fill="#353071"/>
<path d="M185.529 26.251C185.529 25.8796 185.228 25.5786 184.856 25.5786H184.184V26.9234H184.856C185.228 26.9234 185.529 26.6223 185.529 26.251Z" fill="#4841A6"/>
<rect x="174.097" y="24.2613" width="10.7588" height="10.7588" rx="1" fill="#8F87F3"/>
<rect x="174.77" y="24.9337" width="9.41396" height="5.37941" rx="1" fill="#E7E6F0"/>
<path d="M175.398 24.9337H183.186C183.738 24.9337 184.186 25.3814 184.186 25.9337V28.2915L175.943 24.9337H175.398Z" fill="#ABA9C8"/>
<circle cx="176.115" cy="32.303" r="1.34485" fill="#E7E6F0"/>
<circle cx="182.839" cy="32.303" r="1.34485" fill="#E7E6F0"/>
<path d="M179.477 27.6238L179.479 30.3135" stroke="#8F87F3"/>
<g filter="url(#filter5_d_2372_12733)">
<path fill-rule="evenodd" clip-rule="evenodd" d="M241.169 151.632C241.283 151.452 241.452 151.315 241.65 151.235C251.991 147.079 259.292 136.956 259.292 125.128C259.292 109.594 246.699 97.0015 231.165 97.0015C215.632 97.0015 203.039 109.594 203.039 125.128C203.039 136.956 210.34 147.079 220.681 151.235C220.879 151.315 221.048 151.452 221.162 151.632L229.479 164.674C230.265 165.906 232.065 165.906 232.852 164.673L241.169 151.632Z" fill="#5746C0"/>
</g>
<circle cx="231.165" cy="125.128" r="23.5622" fill="#1A113C"/>
<path d="M219.387 123.967V129.391L232.584 136.661V131.237L219.387 123.967Z" fill="#8F87F3"/>
<path d="M219.387 118.566V123.99L232.584 131.26V125.836L219.387 118.566Z" fill="#8F87F3"/>
<path d="M229.787 113.594L219.341 118.664L232.538 125.933L242.99 120.9L229.787 113.594Z" fill="#8F87F3"/>
<mask id="mask2_2372_12733" style="mask-type:luminance" maskUnits="userSpaceOnUse" x="224" y="115" width="10" height="7">
<path d="M229.231 121.4L224.648 118.427L228.952 115.733L233.535 118.706L229.231 121.4Z" fill="white"/>
</mask>
<g mask="url(#mask2_2372_12733)">
<path d="M229.797 119.399C229.712 119.453 229.566 119.449 229.474 119.389C229.381 119.329 229.377 119.237 229.463 119.183C229.549 119.129 229.694 119.133 229.787 119.193C229.88 119.253 229.885 119.345 229.797 119.399ZM227.362 119.079C227.079 118.859 227.082 118.548 227.381 118.362C227.699 118.165 228.228 118.183 228.566 118.403L228.785 118.543C229.122 118.763 229.138 119.102 228.82 119.3C228.716 119.365 228.589 119.405 228.453 119.425L228.937 119.738C229.022 119.793 229.025 119.877 228.948 119.927C228.87 119.976 228.735 119.972 228.652 119.917L227.636 119.259L227.628 119.253L227.915 119.074L227.924 119.08C228.092 119.188 228.358 119.198 228.516 119.1C228.516 119.1 228.516 119.1 228.517 119.1C228.676 119.001 228.666 118.833 228.498 118.723L228.279 118.582C228.112 118.472 227.845 118.463 227.687 118.561C227.687 118.561 227.687 118.561 227.686 118.561C227.548 118.648 227.538 118.79 227.652 118.897L227.362 119.079ZM228.72 118.228C228.437 118.009 228.439 117.698 228.739 117.512C229.057 117.315 229.586 117.333 229.924 117.552L230.143 117.694C230.48 117.914 230.496 118.252 230.179 118.449C230.075 118.514 229.948 118.555 229.814 118.574L230.298 118.888C230.383 118.943 230.386 119.027 230.307 119.076C230.228 119.126 230.096 119.122 230.011 119.067L228.986 118.401L229.273 118.222L229.283 118.228C229.45 118.338 229.716 118.346 229.875 118.249C229.875 118.249 229.875 118.249 229.876 118.249C230.035 118.149 230.025 117.981 229.858 117.872L229.638 117.731C229.471 117.622 229.204 117.612 229.046 117.711C229.046 117.711 229.046 117.711 229.045 117.711C228.907 117.797 228.898 117.94 229.012 118.047L228.723 118.228M226.802 117.079C225.614 117.824 225.676 119.092 226.942 119.913C228.207 120.735 230.197 120.797 231.385 120.053C232.574 119.308 232.512 118.04 231.246 117.218C229.981 116.397 227.991 116.335 226.802 117.079Z" fill="#E7E6F0"/>
<path d="M227.637 119.259L228.653 119.917C228.738 119.972 228.87 119.976 228.949 119.927C229.028 119.877 229.023 119.793 228.938 119.738L228.454 119.425C228.177 119.463 227.864 119.407 227.636 119.259M227.913 119.074L227.627 119.253L227.635 119.259L227.922 119.08L227.912 119.074" fill="#ABA9C8"/>
<path d="M229.272 118.224L228.985 118.403L230.01 119.068C230.095 119.123 230.227 119.127 230.306 119.077C230.385 119.028 230.381 118.943 230.297 118.889L229.813 118.576C229.534 118.614 229.221 118.557 228.993 118.41L229.28 118.231L229.269 118.225" fill="#ABA9C8"/>
<path d="M229.464 119.183C229.378 119.237 229.382 119.33 229.475 119.389C229.568 119.447 229.712 119.453 229.799 119.399C229.886 119.345 229.881 119.253 229.788 119.193C229.695 119.133 229.551 119.129 229.464 119.183Z" fill="#4841A6"/>
<path d="M227.382 118.362C227.082 118.548 227.079 118.859 227.363 119.079L227.653 118.897C227.538 118.79 227.548 118.649 227.687 118.561C227.687 118.561 227.687 118.561 227.688 118.561C227.847 118.463 228.113 118.472 228.28 118.582L228.5 118.723C228.667 118.833 228.676 119.001 228.518 119.1C228.518 119.1 228.518 119.1 228.517 119.1C228.359 119.198 228.093 119.189 227.925 119.08L227.638 119.258C227.866 119.405 228.179 119.462 228.457 119.423C228.593 119.404 228.719 119.363 228.824 119.298C229.142 119.1 229.125 118.763 228.789 118.542L228.569 118.401C228.232 118.182 227.702 118.162 227.384 118.361" fill="#ABA9C8"/>
<path d="M228.74 117.512C228.44 117.698 228.437 118.009 228.721 118.228L229.01 118.047C228.895 117.94 228.905 117.799 229.044 117.711C229.044 117.711 229.044 117.711 229.045 117.711C229.204 117.612 229.47 117.622 229.637 117.731L229.857 117.872C230.024 117.981 230.033 118.149 229.875 118.249C229.875 118.249 229.875 118.249 229.874 118.249C229.716 118.347 229.449 118.338 229.282 118.228L228.995 118.406C229.222 118.554 229.536 118.612 229.815 118.572C229.95 118.553 230.077 118.512 230.181 118.447C230.497 118.25 230.481 117.911 230.145 117.692L229.925 117.55C229.587 117.33 229.058 117.312 228.74 117.509" fill="#ABA9C8"/>
</g>
<path d="M242.872 131.237V126.708L232.639 131.517V136.214L242.872 131.237Z" fill="#ABA9C8"/>
<path d="M242.869 125.932V121.403L232.639 126.119V130.816L242.869 125.932Z" fill="#ABA9C8"/>
<path fill-rule="evenodd" clip-rule="evenodd" d="M242.984 126.258V126.706L232.863 131.548V136.077L242.984 131.179V131.627L232.583 136.659V131.235L242.984 126.258Z" fill="#4841A6"/>
<path fill-rule="evenodd" clip-rule="evenodd" d="M242.984 120.898V121.346L232.863 126.188V130.716L242.984 125.819V126.266L232.583 131.299V125.875L242.984 120.898Z" fill="#4841A6"/>
<path fill-rule="evenodd" clip-rule="evenodd" d="M219.387 123.713L225.32 127.076C225.425 127.135 225.489 127.246 225.489 127.366C225.489 127.621 225.214 127.781 224.992 127.655L219.387 124.479L219.387 123.713Z" fill="#4841A6"/>
<circle cx="117.388" cy="218.672" r="0.989502" fill="white"/>
<defs>
<filter id="filter0_f_2372_12733" x="77.8489" y="363.046" width="39.9041" height="19.5057" filterUnits="userSpaceOnUse" color-interpolation-filters="sRGB">
<feFlood flood-opacity="0" result="BackgroundImageFix"/>
<feBlend mode="normal" in="SourceGraphic" in2="BackgroundImageFix" result="shape"/>
<feGaussianBlur stdDeviation="2" result="effect1_foregroundBlur_2372_12733"/>
</filter>
<filter id="filter1_f_2372_12733" x="191.669" y="280.919" width="49.1874" height="81.5811" filterUnits="userSpaceOnUse" color-interpolation-filters="sRGB">
<feFlood flood-opacity="0" result="BackgroundImageFix"/>
<feBlend mode="normal" in="SourceGraphic" in2="BackgroundImageFix" result="shape"/>
<feGaussianBlur stdDeviation="4" result="effect1_foregroundBlur_2372_12733"/>
</filter>
<filter id="filter2_b_2372_12733" x="150.374" y="170.764" width="45.5938" height="24.149" filterUnits="userSpaceOnUse" color-interpolation-filters="sRGB">
<feFlood flood-opacity="0" result="BackgroundImageFix"/>
<feGaussianBlur in="BackgroundImageFix" stdDeviation="2"/>
<feComposite in2="SourceAlpha" operator="in" result="effect1_backgroundBlur_2372_12733"/>
<feBlend mode="normal" in="SourceGraphic" in2="effect1_backgroundBlur_2372_12733" result="shape"/>
</filter>
<filter id="filter3_d_2372_12733" x="44.3691" y="56.0383" width="83.0187" height="99.0541" filterUnits="userSpaceOnUse" color-interpolation-filters="sRGB">
<feFlood flood-opacity="0" result="BackgroundImageFix"/>
<feColorMatrix in="SourceAlpha" type="matrix" values="0 0 0 0 0 0 0 0 0 0 0 0 0 0 0 0 0 0 127 0" result="hardAlpha"/>
<feOffset dx="4" dy="4"/>
<feGaussianBlur stdDeviation="3"/>
<feComposite in2="hardAlpha" operator="out"/>
<feColorMatrix type="matrix" values="0 0 0 0 0 0 0 0 0 0 0 0 0 0 0 0 0 0 0.21 0"/>
<feBlend mode="normal" in2="BackgroundImageFix" result="effect1_dropShadow_2372_12733"/>
<feBlend mode="normal" in="SourceGraphic" in2="effect1_dropShadow_2372_12733" result="shape"/>
</filter>
<filter id="filter4_d_2372_12733" x="145.35" y="0.609009" width="68.2528" height="80.5966" filterUnits="userSpaceOnUse" color-interpolation-filters="sRGB">
<feFlood flood-opacity="0" result="BackgroundImageFix"/>
<feColorMatrix in="SourceAlpha" type="matrix" values="0 0 0 0 0 0 0 0 0 0 0 0 0 0 0 0 0 0 127 0" result="hardAlpha"/>
<feOffset dy="4"/>
<feGaussianBlur stdDeviation="3"/>
<feComposite in2="hardAlpha" operator="out"/>
<feColorMatrix type="matrix" values="0 0 0 0 0 0 0 0 0 0 0 0 0 0 0 0 0 0 0.18 0"/>
<feBlend mode="normal" in2="BackgroundImageFix" result="effect1_dropShadow_2372_12733"/>
<feBlend mode="normal" in="SourceGraphic" in2="effect1_dropShadow_2372_12733" result="shape"/>
</filter>
<filter id="filter5_d_2372_12733" x="195.039" y="97.0015" width="64.2528" height="76.5966" filterUnits="userSpaceOnUse" color-interpolation-filters="sRGB">
<feFlood flood-opacity="0" result="BackgroundImageFix"/>
<feColorMatrix in="SourceAlpha" type="matrix" values="0 0 0 0 0 0 0 0 0 0 0 0 0 0 0 0 0 0 127 0" result="hardAlpha"/>
<feOffset dx="-4" dy="4"/>
<feGaussianBlur stdDeviation="2"/>
<feComposite in2="hardAlpha" operator="out"/>
<feColorMatrix type="matrix" values="0 0 0 0 0 0 0 0 0 0 0 0 0 0 0 0 0 0 0.18 0"/>
<feBlend mode="normal" in2="BackgroundImageFix" result="effect1_dropShadow_2372_12733"/>
<feBlend mode="normal" in="SourceGraphic" in2="effect1_dropShadow_2372_12733" result="shape"/>
</filter>
<linearGradient id="paint0_linear_2372_12733" x1="164.684" y1="243.035" x2="156.361" y2="195.975" gradientUnits="userSpaceOnUse">
<stop stop-opacity="0"/>
<stop offset="1"/>
</linearGradient>
<linearGradient id="paint1_linear_2372_12733" x1="223.194" y1="379.63" x2="208.568" y2="380.736" gradientUnits="userSpaceOnUse">
<stop stop-color="#4B239F"/>
<stop offset="1" stop-color="#6537C8" stop-opacity="0"/>
</linearGradient>
<linearGradient id="paint2_linear_2372_12733" x1="93.8879" y1="238.439" x2="127.555" y2="265.985" gradientUnits="userSpaceOnUse">
<stop stop-color="#48219A"/>
<stop offset="1" stop-color="#6537C8" stop-opacity="0"/>
</linearGradient>
<linearGradient id="paint3_linear_2372_12733" x1="202.067" y1="373.641" x2="202.544" y2="376.53" gradientUnits="userSpaceOnUse">
<stop stop-color="#4B239F"/>
<stop offset="1" stop-color="#6537C8" stop-opacity="0"/>
</linearGradient>
<linearGradient id="paint4_linear_2372_12733" x1="235.577" y1="262.384" x2="204.97" y2="298.031" gradientUnits="userSpaceOnUse">
<stop stop-color="#421B93"/>
<stop offset="1" stop-color="#6638C8" stop-opacity="0"/>
</linearGradient>
<linearGradient id="paint5_linear_2372_12733" x1="133.457" y1="190.888" x2="138.455" y2="202.555" gradientUnits="userSpaceOnUse">
<stop/>
<stop offset="1" stop-opacity="0"/>
</linearGradient>
<linearGradient id="paint6_linear_2372_12733" x1="127.427" y1="144.542" x2="152.098" y2="180.1" gradientUnits="userSpaceOnUse">
<stop stop-color="#180C61"/>
<stop offset="1" stop-opacity="0"/>
</linearGradient>
<linearGradient id="paint7_linear_2372_12733" x1="183.624" y1="172.215" x2="172.501" y2="178.838" gradientUnits="userSpaceOnUse">
<stop stop-opacity="0"/>
<stop offset="1" stop-color="#150E27"/>
</linearGradient>
<linearGradient id="paint8_linear_2372_12733" x1="157.411" y1="161.705" x2="164.622" y2="179.057" gradientUnits="userSpaceOnUse">
<stop stop-color="#1D0C86"/>
<stop offset="1" stop-color="#9B8DF2" stop-opacity="0"/>
</linearGradient>
<linearGradient id="paint9_linear_2372_12733" x1="144.457" y1="320.234" x2="148.713" y2="368.422" gradientUnits="userSpaceOnUse">
<stop stop-color="#ADA3CC"/>
<stop offset="1" stop-color="#C2BECF" stop-opacity="0"/>
</linearGradient>
<linearGradient id="paint10_linear_2372_12733" x1="167.554" y1="316.971" x2="175.471" y2="376.044" gradientUnits="userSpaceOnUse">
<stop stop-color="#806FBB"/>
<stop offset="1" stop-color="#806FBB" stop-opacity="0"/>
</linearGradient>
<linearGradient id="paint11_linear_2372_12733" x1="145.188" y1="314.834" x2="145.188" y2="320.474" gradientUnits="userSpaceOnUse">
<stop stop-color="#CAC3E1" stop-opacity="0"/>
<stop offset="1" stop-color="#B1A6D6"/>
</linearGradient>
</defs>
</svg>
