<?xml version="1.0" encoding="UTF-8"?><svg id="Layer_1" xmlns="http://www.w3.org/2000/svg" xmlns:xlink="http://www.w3.org/1999/xlink" viewBox="0 0 302 413.165"><defs><style>.cls-1{mask:url(#mask);}.cls-2{fill:url(#linear-gradient);}.cls-2,.cls-3,.cls-4,.cls-5,.cls-6,.cls-7,.cls-8,.cls-9,.cls-10,.cls-11,.cls-12,.cls-13,.cls-14,.cls-15,.cls-16,.cls-17,.cls-18,.cls-19,.cls-20,.cls-21,.cls-22,.cls-23,.cls-24,.cls-25,.cls-26,.cls-27,.cls-28,.cls-29,.cls-30,.cls-31,.cls-32,.cls-33,.cls-34,.cls-35,.cls-36,.cls-37,.cls-38,.cls-39,.cls-40,.cls-41,.cls-42,.cls-43,.cls-44,.cls-45,.cls-46,.cls-47,.cls-48,.cls-49,.cls-50,.cls-51{stroke-width:0px;}.cls-3{fill:rgba(153,63,57,.92);}.cls-4{fill:url(#linear-gradient-11);}.cls-5{fill:url(#linear-gradient-12);}.cls-6{fill:url(#linear-gradient-10);}.cls-52,.cls-53,.cls-54,.cls-55,.cls-56{stroke-miterlimit:10;}.cls-52,.cls-53,.cls-54,.cls-55,.cls-56,.cls-57,.cls-58,.cls-59,.cls-60{fill:none;}.cls-52,.cls-53,.cls-54,.cls-55,.cls-59,.cls-60{stroke-linecap:round;}.cls-52,.cls-56{stroke:#d6d6d6;}.cls-53,.cls-57{stroke:#4b239f;}.cls-54,.cls-59{stroke:#18161b;}.cls-55{stroke-width:2px;}.cls-55,.cls-60{stroke:#000;}.cls-7{fill:url(#linear-gradient-7);}.cls-7,.cls-8,.cls-9,.cls-10,.cls-11,.cls-12,.cls-13,.cls-14{fill-rule:evenodd;}.cls-8{fill:#5c32d2;}.cls-9{fill:#5746c0;}.cls-10,.cls-25{fill:#4841a6;}.cls-11,.cls-40{fill:#aba9c8;}.cls-12{fill:#d9d9d9;}.cls-13,.cls-51{fill:#e7e6f0;}.cls-14,.cls-42{fill:#8f87f3;}.cls-15{fill:url(#linear-gradient-4);}.cls-16{fill:url(#linear-gradient-2);}.cls-17{fill:url(#linear-gradient-3);}.cls-18{fill:url(#linear-gradient-8);}.cls-19{fill:url(#linear-gradient-9);}.cls-20{fill:url(#linear-gradient-5);}.cls-21{fill:url(#linear-gradient-6);}.cls-58{stroke:#8f87f3;}.cls-61{mask:url(#mask-2);}.cls-62{mask:url(#mask-1);}.cls-23{fill:#f2f2f2;}.cls-24{fill:#faacda;}.cls-26{fill:#4b239f;}.cls-27{fill:#6537c8;}.cls-28{fill:#9b8df2;}.cls-29{fill:#a3504b;}.cls-30{fill:#311b70;}.cls-31{fill:#353071;}.cls-32{fill:#18161b;}.cls-33{fill:#1a113c;}.cls-34{fill:#20115f;}.cls-35{fill:#222;}.cls-36{fill:#1f1f1f;}.cls-37{fill:#ddd;}.cls-38{fill:#cb6c66;}.cls-39{fill:#cac3e1;}.cls-41{fill:#9d433d;}.cls-43{fill:#c2becf;}.cls-44{fill:#6b57ea;}.cls-45{fill:#993f39;}.cls-46{fill:#806fbb;}.cls-47{fill:#817796;}.cls-48{fill:#fff;}.cls-49{fill:#f19239;}.cls-50{fill:#fcfcfc;}</style><mask id="mask" x="0" y="99.391" width="302" height="313.774" maskUnits="userSpaceOnUse"><g id="mask0_2372_12733"><circle class="cls-48" cx="151" cy="250.391" r="151"/></g></mask><linearGradient id="linear-gradient" x1="157.446" y1="159.1353" x2="149.123" y2="206.1953" gradientTransform="translate(0 400.782) scale(1 -1)" gradientUnits="userSpaceOnUse"><stop offset="0" stop-color="#000" stop-opacity="0"/><stop offset="1" stop-color="#000"/></linearGradient><linearGradient id="linear-gradient-2" x1="223.0054" y1="21.8114" x2="208.3794" y2="20.7054" gradientTransform="translate(0 400.782) scale(1 -1)" gradientUnits="userSpaceOnUse"><stop offset="0" stop-color="#4b239f"/><stop offset="1" stop-color="#6537c8" stop-opacity="0"/></linearGradient><linearGradient id="linear-gradient-3" x1="65.2935" y1="130.4142" x2="98.9606" y2="102.8682" gradientTransform="translate(0 400.782) scale(1 -1)" gradientUnits="userSpaceOnUse"><stop offset="0" stop-color="#48219a"/><stop offset="1" stop-color="#6537c8" stop-opacity="0"/></linearGradient><linearGradient id="linear-gradient-4" x1="202.7556" y1="29.9192" x2="203.2326" y2="27.0302" gradientTransform="translate(0 400.782) scale(1 -1)" gradientUnits="userSpaceOnUse"><stop offset="0" stop-color="#4b239f"/><stop offset="1" stop-color="#6537c8" stop-opacity="0"/></linearGradient><linearGradient id="linear-gradient-5" x1="234.344" y1="141.7771" x2="203.737" y2="106.1301" gradientTransform="translate(0 400.782) scale(1 -1)" gradientUnits="userSpaceOnUse"><stop offset="0" stop-color="#421b93"/><stop offset="1" stop-color="#6638c8" stop-opacity="0"/></linearGradient><linearGradient id="linear-gradient-6" x1="144.2888" y1="217.2871" x2="149.2868" y2="205.6201" gradientTransform="translate(0 400.782) scale(1 -1)" gradientUnits="userSpaceOnUse"><stop offset="0" stop-color="#000"/><stop offset="1" stop-color="#000" stop-opacity="0"/></linearGradient><linearGradient id="linear-gradient-7" x1="124.3099" y1="256.9194" x2="148.9809" y2="221.3614" gradientTransform="translate(0 400.782) scale(1 -1)" gradientUnits="userSpaceOnUse"><stop offset="0" stop-color="#180c61"/><stop offset="1" stop-color="#000" stop-opacity="0"/></linearGradient><linearGradient id="linear-gradient-8" x1="184.1811" y1="229.6762" x2="173.0581" y2="223.0531" gradientTransform="translate(0 400.782) scale(1 -1)" gradientUnits="userSpaceOnUse"><stop offset="0" stop-color="#000" stop-opacity="0"/><stop offset="1" stop-color="#150e27"/></linearGradient><linearGradient id="linear-gradient-9" x1="158.8791" y1="242.4357" x2="166.0901" y2="225.0837" gradientTransform="translate(0 400.782) scale(1 -1)" gradientUnits="userSpaceOnUse"><stop offset="0" stop-color="#1d0c86"/><stop offset="1" stop-color="#9b8df2" stop-opacity="0"/></linearGradient><linearGradient id="linear-gradient-10" x1="145.8341" y1="83.3083" x2="150.0901" y2="35.1203" gradientTransform="translate(0 400.782) scale(1 -1)" gradientUnits="userSpaceOnUse"><stop offset="0" stop-color="#ada3cc"/><stop offset="1" stop-color="#c2becf" stop-opacity="0"/></linearGradient><linearGradient id="linear-gradient-11" x1="167.2312" y1="86.4218" x2="175.1482" y2="27.3488" gradientTransform="translate(0 400.782) scale(1 -1)" gradientUnits="userSpaceOnUse"><stop offset="0" stop-color="#806fbb"/><stop offset="1" stop-color="#806fbb" stop-opacity="0"/></linearGradient><linearGradient id="linear-gradient-12" x1="144.852" y1="88.557" x2="144.852" y2="82.917" gradientTransform="translate(0 400.782) scale(1 -1)" gradientUnits="userSpaceOnUse"><stop offset="0" stop-color="#cac3e1" stop-opacity="0"/><stop offset="1" stop-color="#b1a6d6"/></linearGradient><mask id="mask-1" x="140.187" y="331.901" width="12" height="9" maskUnits="userSpaceOnUse"><g id="mask1_2372_12733"><path class="cls-48" d="m152.187,331.901h-12v9h12v-9Z"/></g></mask><mask id="mask-2" x="224.312" y="113.124" width="8.887" height="5.667" maskUnits="userSpaceOnUse"><g id="mask2_2372_12733"><path class="cls-48" d="m228.895,118.791l-4.583-2.973,4.304-2.694,4.583,2.973-4.304,2.694Z"/></g></mask></defs><circle class="cls-49" cx="151" cy="250.391" r="151"/><circle class="cls-24" cx="151" cy="250.391" r="151"/><g class="cls-1"><path class="cls-50" d="m85.9372,382.205v11.48c0,7.15,36.0898,19.49,61.9298,19.48,25.63,0,51.76-.42,69.84-16.99,0,0,3.39-6.76,1.88-14.49l-16.19,9.59-34.05,4.89-50.16-6.78-24.3398-3.39-8.91-3.81v.02Z"/><path class="cls-35" d="m230.267,270.625c12.438,0,22.52-10.082,22.52-22.52s-10.082-22.52-22.52-22.52-22.52,10.083-22.52,22.52,10.083,22.52,22.52,22.52Z"/><path class="cls-35" d="m222.217,208.725c.78-2.52,1.01-5.28.53-8.08-1.57-9.27-10.09-15.55-19.02-14.04-.06.01-.12.03-.19.04-5.05-6.17-13.71-9.51-22.79-7.97-12.95,2.19-21.84,13.47-19.86,25.19.12.72.28,1.43.48,2.13-7.71,3.75-12.82,11.05-13.07,19.04-3.61-4.38-9.05-7.32-15.16-8.09-1.11-6.54-5.48-12.62-12.21-15.89-10.69-5.18-23.2899-1.3-28.1199,8.68-2.51,5.18-2.42,10.97-.28,16.07-10.07,3.92-16.43,13.68-14.72,23.77,1.98,11.72,14.09,19.44,27.0399,17.25,6.16-1.04,11.4-4.15,14.99-8.38,3.93,1.41,8.36,1.86,12.9,1.1,11.5-1.95,19.8-11.07,20.12-21.29,5.06,6.14,13.7,9.46,22.75,7.92,5.71-.97,10.63-3.7,14.18-7.46,4.6,7.73,14.3,12.19,24.53,10.45,12.95-2.19,17.63-13.51,19.86-25.19,1.8-9.44-3.7-15.3-11.96-15.24v-.01Z"/><path class="cls-2" d="m222.217,208.725c.78-2.52,1.01-5.28.53-8.08-1.57-9.27-10.09-15.55-19.02-14.04-.06.01-.12.03-.19.04-5.05-6.17-13.71-9.51-22.79-7.97-12.95,2.19-21.84,13.47-19.86,25.19.12.72.28,1.43.48,2.13-7.71,3.75-12.82,11.05-13.07,19.04-3.61-4.38-9.05-7.32-15.16-8.09-1.11-6.54-5.48-12.62-12.21-15.89-10.69-5.18-23.2899-1.3-28.1199,8.68-2.51,5.18-2.42,10.97-.28,16.07-10.07,3.92-16.43,13.68-14.72,23.77,1.98,11.72,14.09,19.44,27.0399,17.25,6.16-1.04,11.4-4.15,14.99-8.38,3.93,1.41,8.36,1.86,12.9,1.1,11.5-1.95,19.8-11.07,20.12-21.29,5.06,6.14,13.7,9.46,22.75,7.92,5.71-.97,10.63-3.7,14.18-7.46,4.6,7.73,14.3,12.19,24.53,10.45,12.95-2.19,17.63-13.51,19.86-25.19,1.8-9.44-3.7-15.3-11.96-15.24v-.01Z"/><path class="cls-38" d="m122.926,219.902c5.256-2.071,8.027-7.533,6.188-12.198-1.839-4.666-7.591-6.768-12.847-4.697-5.256,2.072-8.027,7.533-6.188,12.199,1.839,4.665,7.59,6.768,12.847,4.696Z"/><path class="cls-38" d="m140.357,221.985v22.4s8.94,6.68,21.08.71v-23.11h-21.08Z"/><path class="cls-27" d="m217.627,388.565c-20.34,25.17-106.58,22.89-129.4598,0-15.98-15.98,0-90.42,0-90.42,0-34.99,17.2898-59.69,52.2898-59.69l.88.55c6.28,3.94,14.37,3.44,20.11-1.26,34.99,0,56.19,25.4,56.19,60.39,0,0,14.21,72.84,0,90.42l-.01.01Z"/><path class="cls-16" d="m202.606,394.3c3.421-7.227,4.23-17.999,4.207-22.481l16.956-6.693c-.555,9.715-2.214,16.172-3.647,20.485l-17.516,8.689Z"/><path class="cls-57" d="m156.483,374.853c.424,2.356,2.463,7.45,7.228,8.975,5.957,1.906,9.399-2.223,12.126-8.975"/><path class="cls-26" d="m115.831,379.672c-6.925-1.964-8.157-6.506-7.907-8.531,7.477-.624,19.484-2.305,23.679-2.205,4.195.1,3.218,3.371,2.205,4.994l-8.281,4.66c-1.401.791-5.302,2.114-9.696,1.082Z"/><path class="cls-26" d="m183.376,377.856c6.925-1.964,8.156-6.506,7.907-8.531-7.477-.624-19.485-2.305-23.679-2.205-4.195.1-3.219,3.371-2.206,4.994l8.281,4.66c1.402.791,5.302,2.114,9.697,1.082Z"/><path class="cls-60" d="m79.0327,239.06c2.3053-4.692,9.0694-13.899,17.6828-13.183"/><path class="cls-26" d="m113.417,374.721c-16.7228,3.087-28.3225-.534-31.641-1.481-.5291-5.568-.1163-6.241,0-8.803,3.8416,3.563,15.4846,6.848,26.776,6.586l4.865,3.698Z"/><path class="cls-32" d="m88.1672,388.565l.3536-.353h0l-.3535.353Zm-2.0115-77.146c.0594-.27-.1112-.536-.3809-.596-.2697-.059-.5364.111-.5957.381l.9766.215Zm131.0823,76.832c-4.984,6.169-14.063,10.71-25.329,13.668-11.25,2.955-24.606,4.311-38.054,4.169-13.447-.142-26.966-1.783-38.541-4.81-11.59-3.031-21.1667-7.437-26.7932-13.066l-.7072.707c5.8135,5.816,15.5964,10.279,27.2474,13.326,11.666,3.052,25.268,4.7,38.783,4.843,13.515.143,26.963-1.219,38.319-4.201,11.339-2.978,20.668-7.591,25.853-14.007l-.778-.629Zm-128.7173-.039c-3.8713-3.871-6.009-10.553-6.9894-18.52-.9776-7.944-.7931-17.064-.1081-25.706.6848-8.639,1.8681-16.782,2.8806-22.767.5062-2.992.9695-5.444,1.3061-7.146.1683-.852.3049-1.516.3994-1.967.0472-.225.0839-.397.1088-.513.0124-.058.0218-.102.0282-.131.0031-.014.0055-.025.0071-.032.0008-.004.0014-.007.0018-.008.0002-.001.0003-.002.0004-.002q0-.001-.4882-.108t-.4885-.107s-.0003.001-.0005.002c-.0004.002-.0011.005-.0019.009-.0017.008-.0041.019-.0074.034-.0065.03-.0161.074-.0287.133-.0252.117-.0623.291-.1099.518-.0952.455-.2325,1.122-.4016,1.978-.3382,1.71-.8032,4.171-1.3111,7.173-1.0156,6.003-2.2036,14.177-2.8914,22.855-.6876,8.673-.8769,17.868.1124,25.907.9865,8.017,3.1562,14.986,7.2748,19.105l.7071-.707Z"/><path class="cls-27" d="m140.447,238.455s-91.4298-5.17-100.3498,66.17c-8.92,71.34,69.0898,69.08,69.0898,69.08l-3.85-21.08s-28.8798-17.31-20.1298-44.37c0,0,8.89-16.43,31.9698-10.22"/><path class="cls-17" d="m140.447,238.455s-91.4298-5.17-100.3498,66.17c-8.92,71.34,69.0898,69.08,69.0898,69.08l-3.85-21.08s-28.8798-17.31-20.1298-44.37c0,0,8.89-16.43,31.9698-10.22"/><path class="cls-54" d="m105.157,290.405c-8.4998,2.51-13.7198,7.59-16.7498,11.79-2.57,3.58-4.14,7.79-4.63,12.17-2.85,25.32,21.5598,38.25,21.5598,38.25l3.85,21.08s-78.0098,2.27-69.0898-69.07c8.6-68.78,93.8098-66.72,99.9098-66.48.21,0,.41.09.57.23.84.74,4.02,3.2,9.73,3.28"/><path class="cls-15" d="m180.534,373.403c16.723,3.087,39.324-2.751,42.643-3.698.59-5.625.789-5.648.673-8.209-3.841,3.562-27.16,8.471-38.452,8.209l-4.864,3.698Z"/><path class="cls-22" d="m217.575,228.898c-.231.152-.294.462-.141.692.152.231.463.294.693.141l-.552-.833Zm34.712,19.207c0,12.162-9.859,22.02-22.02,22.02v1c12.714,0,23.02-10.306,23.02-23.02h-1Zm-22.02-22.02c12.161,0,22.02,9.859,22.02,22.02h1c0-12.713-10.306-23.02-23.02-23.02v1Zm-12.14,3.646c3.48-2.304,7.653-3.646,12.14-3.646v-1c-4.69,0-9.053,1.403-12.692,3.813l.552.833Z"/><path class="cls-26" d="m214.213,317.171c.637-9.756-7.558-21.895-12.187-28.414,2.173-1.748,8.574-4.28,16.793-.425,10.275,4.818,17.431,25.792,11.621,41.806-4.648,12.811-22.675,19.84-31.107,21.754,13.605-23.384,14.392-27.245,14.88-34.721Z"/><path class="cls-27" d="m161.437,237.755s92.285-8.895,100.26,63.47c8.92,71.34-77.29,71.55-77.29,71.55l12.687-23.734s32.143-15.351,20.995-43.844c0,0-10.689-21.51-33.759-15.29"/><path class="cls-20" d="m161.437,237.755s92.285-8.895,100.26,63.47c8.92,71.34-77.29,71.55-77.29,71.55l12.687-23.734s32.143-15.351,20.995-43.844c0,0-10.689-21.51-33.759-15.29"/><path class="cls-54" d="m161.437,237.376s95.25-6.38,100.74,65.31c5.43,70.93-76.242,69.619-76.242,69.619l8.822-22.309s28.27-12.23,25.41-37.55c-.49-4.38-2.06-8.59-4.63-12.17-3.03-4.21-9.92-9.28-18.42-11.79"/><path class="cls-54" d="m116.107,206.705s-1.68,1.27-2.57,3.31c-.62,1.4-.87,3.17.05,5.12"/><path class="cls-53" d="m162.901,293.186s13.143-13.8,22.592-52.264"/><path class="cls-53" d="m179.95,337.698s-6.355-31.846-23.738-51.251"/><path class="cls-54" d="m113.527,210.016s5.23.49,5.65,5.64"/><path class="cls-56" d="m119.381,221.158s15.176,41.767,43.566,72.977c28.04,30.83,16.684,86.48,4.82,87.54-7.36.36-11.87-7.96-11.87-7.96"/><path class="cls-52" d="m160.157,290.985s28.83-32.48,30.46-85.76"/><path class="cls-23" d="m121.627,212.235c0-2.06-1.67-3.73-3.73-3.73s-3.73,1.67-3.73,3.73c0,.94.36,1.79.93,2.45.67,2.05,1.96,5.32,3.71,6.7l1.22-.38s-1.27-3.04-1.4-5.11c1.71-.34,3-1.85,3-3.66Z"/><path class="cls-37" d="m119.234,218.764c-1.199-1.214-1.626-2.572-1.663-3.099.363.197.831.235,1.066.247-.038.183.203,1.708.597,2.852Z"/><path class="cls-38" d="m160.65,224.912c22.102-3.742,37.507-21.621,34.406-39.934-3.101-18.312-23.532-30.124-45.635-26.382-22.102,3.743-37.506,21.622-34.406,39.935,3.101,18.312,23.532,30.124,45.635,26.381Z"/><path class="cls-55" d="m186.517,181.165l1.11,6.56c.49,2.87-1.45,5.59-4.32,6.08-2.87.49-5.59-1.45-6.08-4.32l-1.11-6.56"/><path class="cls-3" d="m136.161,213.168c12.397-2.099,23.143-18.281,21.159-30-1.984-11.718-15.139-14.396-27.536-12.297-12.398,2.099-22.772,9.523-20.788,21.242,1.984,11.718,14.767,23.154,27.165,21.055Z"/><path class="cls-45" d="m155.83,225.678c-5.901.407-12.813-.618-15.466-1.163v7.765c4.535-.494,12.244-4.628,15.466-6.602Z"/><path class="cls-55" d="m164.517,188.326l1.11,6.56c.49,2.87-1.45,5.59-4.32,6.08-2.87.49-5.59-1.45-6.08-4.32l-1.11-6.56"/><path class="cls-41" d="m191.632,175.772c-12.606-2.101-28.064,7.479-34.217,12.532l-3.377-5.928c6.854-3.302,22.271-9.965,29.115-10.205,6.843-.241,8.504,2.301,8.479,3.601Z"/><path class="cls-54" d="m126.787,217.375s7.294,8.708,28.76,8.203"/><path class="cls-36" d="m134.651,210.782c12.949-2.193,18.14-14.367,22.486-23.953,4.346-9.586,27.395-26.128,14.446-23.935-12.949,2.192-63.369,20.859-61.486,31.983,1.884,11.124,11.605,18.097,24.554,15.905Z"/><path class="cls-21" d="m134.651,210.782c12.949-2.193,18.14-14.367,22.486-23.953,4.346-9.586,27.395-26.128,14.446-23.935-12.949,2.192-63.369,20.859-61.486,31.983,1.884,11.124,11.605,18.097,24.554,15.905Z"/><path class="cls-8" d="m128.121,142.102c17.665-9.921,47.053-6.559,57.116,16.313l-.01-.01-56.56,38.6-17.608,2.167c-8.137-21.674-4.652-39.077,11.658-53.287.881-.767,1.817-1.489,2.801-2.165-.142-.139-.276-.294-.401-.464-.814-1.108-.897-2.431-.185-2.954.712-.523,1.95-.049,2.764,1.06.176.24.318.49.425.74Z"/><path class="cls-7" d="m128.121,142.102c17.665-9.921,47.053-6.559,57.116,16.313l-.01-.01-56.56,38.6-17.608,2.167c-8.137-21.674-4.652-39.077,11.658-53.287.881-.767,1.817-1.489,2.801-2.165-.142-.139-.276-.294-.401-.464-.814-1.108-.897-2.431-.185-2.954.712-.523,1.95-.049,2.764,1.06.176.24.318.49.425.74Z"/><path class="cls-30" d="m143.29,168.149c15.221-12.919,34.06-12.234,41.577-10.277-3.172.607-10.16,1.867-12.743,2.055-3.23.235-12.685,3.348-25.545,9.513-10.289,4.933-16.423,20.456-18.204,27.601-1.371-4.248-.306-15.973,14.915-28.892Z"/><path class="cls-34" d="m145.217,190.615s9.92-9.6,29.22-15.73c4.61-1.1,8.86-1.99,12.26-1.64,3.4.35,6.05,2.93,6.62,6.26l.37.29s10.76-3.03,12.02-5.48.84-4.71-1.08-6.36c-3.61-3.11-17.16-4.64-17.16-4.64,0,0-15.42,1.08-19.31,2.36s-9.73,3.7-11.54,5.68c-1.81,1.98-13.06,7.7-13.15,11.44-.09,3.74-.43,8.47-.43,8.47l2.18-.66v.01Z"/><path class="cls-18" d="m145.217,190.615s9.92-9.6,29.22-15.73c4.61-1.1,8.86-1.99,12.26-1.64,3.4.35,6.05,2.93,6.62,6.26l.37.29s10.76-3.03,12.02-5.48.84-4.71-1.08-6.36c-3.61-3.11-17.16-4.64-17.16-4.64,0,0-15.42,1.08-19.31,2.36s-9.73,3.7-11.54,5.68c-1.81,1.98-13.06,7.7-13.15,11.44-.09,3.74-.43,8.47-.43,8.47l2.18-.66v.01Z"/><path class="cls-28" d="m128.627,197.035s9.3,3.446,14.03-2.85c4.44-5.91,4.38-14.6,15-21.92,6.94-4.79,16.8-8.96,35.33-7.37,1.988.242,3.79.61,5.56,1.3,5.97,2.34,8.21,4.57,6.74,7.2-1.68,3.02-11.67,6.35-11.67,6.35l.62,1.77s10-3.01,13.03-5.43,4.31-6.13.21-10.06c-3.12-2.98-12.6-9.61-28.91-7.8-16.3,1.81-29.12,6.17-39.75,17.23s-10.19,21.58-10.19,21.58Z"/><path class="cls-19" d="m128.627,197.035s9.3,3.446,14.03-2.85c4.44-5.91,4.38-14.6,15-21.92,6.94-4.79,16.8-8.96,35.33-7.37,1.988.242,3.79.61,5.56,1.3,5.97,2.34,8.21,4.57,6.74,7.2-1.68,3.02-11.67,6.35-11.67,6.35l.62,1.77s10-3.01,13.03-5.43,4.31-6.13.21-10.06c-3.12-2.98-12.6-9.61-28.91-7.8-16.3,1.81-29.12,6.17-39.75,17.23s-10.19,21.58-10.19,21.58Z"/><path class="cls-43" d="m166.667,317.865l8.02,57.04-44.6-.24-8.02-57.04,44.6.24Z"/><path class="cls-6" d="m166.667,317.865l8.02,57.04-44.6-.24-8.02-57.04,44.6.24Z"/><path class="cls-46" d="m166.667,317.865l.97-5.4,8.02,57.05-.97,5.39-8.02-57.04Z"/><path class="cls-4" d="m166.667,317.865l.97-5.4,8.02,57.05-.97,5.39-8.02-57.04Z"/><path class="cls-39" d="m122.067,317.625l.97-5.4,44.6.24-.97,5.4-44.6-.24Z"/><path class="cls-5" d="m122.067,317.625l.97-5.4,44.6.24-.97,5.4-44.6-.24Z"/><path class="cls-38" d="m134.867,364.025l.16-.05c2.68-.79,4.22-3.6,3.43-6.28-.78-2.66-3.56-4.19-6.22-3.44,2.65-.81,4.16-3.6,3.38-6.26-.79-2.68-3.6-4.22-6.28-3.43l-1.04.31c2.12-.97,3.11-3.44,2.22-5.61l-.53-1.29c-.92-2.23-3.47-3.3-5.7-2.38l-9.88,4.05c-1.02.04-2.05.18-3.07.48-6.58,1.93-10.35,8.83-8.42,15.41l4.16,14.18c1.93,6.58,8.83,10.35,15.41,8.42,1.32-.39,2.53-.99,3.6-1.73l8.94-2.62c2.68-.79,4.22-3.6,3.43-6.28-.52-1.77-1.93-3.03-3.59-3.46v-.02Z"/><path class="cls-59" d="m130.517,339.265l-.53-1.29c-.92-2.23-3.47-3.3-5.7-2.38l-9.88,4.05c-1.02.04-2.05.18-3.07.48-6.58,1.93-10.35,8.83-8.42,15.41l4.16,14.18"/><path class="cls-38" d="m163.957,361.855l-.16-.05c-2.68-.79-4.22-3.6-3.43-6.28.78-2.66,3.56-4.19,6.22-3.44-2.65-.81-4.16-3.6-3.38-6.26.79-2.68,3.6-4.22,6.28-3.43l1.04.31c-2.12-.97-3.11-3.44-2.22-5.61l.53-1.29c.92-2.23,3.47-3.3,5.7-2.38l9.88,4.05c1.02.04,2.05.18,3.07.48,6.58,1.93,10.35,8.83,8.42,15.41l-4.16,14.18c-1.93,6.58-8.83,10.35-15.41,8.42-1.32-.39-2.53-.99-3.6-1.73l-8.94-2.62c-2.68-.79-4.22-3.6-3.43-6.28.52-1.77,1.93-3.03,3.59-3.46v-.02Z"/><path class="cls-59" d="m116.615,344.404c2.608,5.506,8.047,18.486,8.93,26.36"/><path class="cls-59" d="m183.282,342.418c-2.609,5.506-8.047,18.486-8.93,26.36"/><path class="cls-59" d="m168.24,337.5l.53-1.29c.92-2.23,3.47-3.3,5.7-2.38l9.88,4.05c1.02.04,2.05.18,3.07.48,6.58,1.93,10.35,8.83,8.42,15.41l-4.16,14.18"/><path class="cls-29" d="m173.272,342.862c-4.104-.942-4.64-3.642-5.202-4.868-.241.554-.242,2.014.875,3.488,1.257,1.657,2.872,1.432,4.327,1.38Z"/><path class="cls-29" d="m125.605,345.192c4.104-.942,4.64-3.642,5.202-4.868.241.554.242,2.014-.875,3.488-1.257,1.657-2.872,1.432-4.327,1.38Z"/><path class="cls-29" d="m167.36,352.109c-3.219-1.711-3.75-4.3-4.312-5.527-.055.586-.234,2.117.884,3.591,1.256,1.656,2.722,2.031,3.428,1.936Z"/><path class="cls-29" d="m164.508,361.865c-3.22-1.71-3.751-4.3-4.313-5.526-.054.586-.233,2.116.884,3.59,1.257,1.657,2.723,2.031,3.429,1.936Z"/><path class="cls-29" d="m131.517,354.439c3.22-1.711,3.75-4.3,4.313-5.527.054.586.233,2.117-.885,3.591-1.256,1.657-2.722,2.031-3.428,1.936Z"/><path class="cls-29" d="m134.353,363.986c3.219-1.71,3.75-4.3,4.312-5.526.055.586.234,2.117-.884,3.59-1.257,1.657-2.722,2.031-3.428,1.936Z"/><g class="cls-62"><path class="cls-47" d="m146.187,331.901c-3.316,0-6,2.014-6,4.5s2.684,4.5,6,4.5,6-2.014,6-4.5-2.684-4.5-6-4.5Z"/></g><path class="cls-47" d="m146.187,330.855c.354-1.134,1.346-2.104,3-1.935-.311.706-1.388,2.269-3,1.935Z"/><path class="cls-22" d="m231.896,212.065c-.189-.201-.505-.211-.706-.022-.202.189-.212.505-.023.706l.729-.684Zm2.375,13.645c1.176-2.468,2.336-8.626-2.375-13.645l-.729.684c4.333,4.617,3.269,10.29,2.201,12.532l.903.429Z"/><path class="cls-60" d="m92.8455,226.214c-2.1892-4.217-4.3778-14.61,4.3814-22.451,3.7951-3.062,8.3001-4.945,14.0391-4.901"/></g><path class="cls-9" d="m94.218,124.327c.1143-.179.2834-.317.4809-.396,13.0981-5.228,22.3531-18.029,22.3531-32.9923,0-19.6113-15.898-35.5094-35.5095-35.5094s-35.5094,15.8981-35.5094,35.5094c0,14.9633,9.2551,27.7643,22.3529,32.9923.1975.079.3666.217.481.396l10.9892,17.232c.7862,1.233,2.5863,1.233,3.3725,0l10.9893-17.232Z"/><circle class="cls-33" cx="81.5425" cy="90.9392" r="30.7935"/><path class="cls-12" d="m81.5425,83.7938h-12.5039l3.4461,23.2612c.0727.49.4936.853.9892.853h8.0686v-24.1142Zm0,0h12.5038l-3.4461,23.2611c-.0726.49-.4935.854-.9892.854h-8.0685v-24.1151Z"/><path class="cls-10" d="m90.586,73.9694h-9.0437s-9.0435,0-9.0435,0c-.4589,0-.8589.3123-.9702.7575l-.7037,2.8151h-1.9368c-.5063,0-.9328.3784-.9929.8811l-.5089,4.252c-.0713.5951.3935,1.1188.9929,1.1188h13.1633s13.1631,0,13.1631,0c.5994,0,1.0642-.5237.9929-1.1189l-.5089-4.2519c-.0602-.5028-.4866-.8812-.9929-.8812h-1.9368l-.7038-2.8151c-.1113-.4451-.5112-.7574-.9701-.7574Z"/><path class="cls-11" d="m81.5424,83.7939h-12.5039l3.4461,23.2611c.0727.49.4935.854.9892.854h8.0686v-24.1151Zm0,0h12.5039l-3.4461,23.261c-.0726.49-.4935.854-.9892.854h-8.0686v-24.115Z"/><path class="cls-13" d="m81.5424,83.7939h-12.5039l3.4461,23.2611c.0727.49.4935.854.9892.854h8.0686v-24.1151Zm0,0h8.9313l-3.4461,23.261c-.0726.49-.4935.854-.9892.854h-4.496v-24.115Z"/><path class="cls-14" d="m87.0134,73.9696h-5.4712s-9.0435,0-9.0435,0c-.4589,0-.8589.3123-.9701.7575l-.7038,2.8151h-1.9368c-.5063,0-.9328.3784-.9929.8811l-.5089,4.252c-.0713.5951.3935,1.1188.9929,1.1188h13.1633v-.0002h9.5906c.5994,0,1.0641-.5237.9929-1.1188l-.5089-4.2519c-.0602-.5028-.4866-.8812-.9929-.8812h-1.9368l-.7038-2.8151c-.1113-.4452-.5113-.7574-.9701-.7574Z"/><path class="cls-10" d="m81.5563,77.1041c0-.2466.2-.4466.4466-.4466h6.6985v.8932h-6.6985c-.2466,0-.4466-.2-.4466-.4466Z"/><circle class="cls-40" cx="79.8484" cy="94.199" r="6.2519"/><path class="cls-51" d="m76.1213,96.5047l-.0015-2.7969h.8323l.0015,2.7969c0,.2298-.1863.4162-.4161.4162s-.4162-.1864-.4162-.4162Z"/><path class="cls-51" d="m80.0644,96.5047l-.0015-2.7969h.8323l.0015,2.7969c0,.2298-.1863.4162-.4161.4162s-.4162-.1864-.4162-.4162Z"/><path class="cls-44" d="m78.9948,96.9271c.2511,0,.4546-.2035.4546-.4546s-.2035-.4546-.4546-.4546-.4546.2035-.4546.4546.2036.4546.4546.4546Z"/><path class="cls-51" d="m77.7872,91.4708c.9198.0028,1.6614.7518,1.6591,1.6748v.0005l.0028.5949c-.0032.9235-.75,1.6683-1.6702,1.665-.9202-.0032-1.6619-.7527-1.6591-1.6761l.8323.0027c-.0013.4595.3718.8367.8296.8381.4624.0014.8337-.3731.8351-.8325l-.0028-.594c.0014-.4594-.3718-.8367-.8295-.8381-.4041-.0012-.7444.2905-.8197.6749h-.8402c.0803-.8504.7945-1.5128,1.6626-1.5102Z"/><path class="cls-51" d="m81.7304,91.4707c.9197.0027,1.6614.7517,1.659,1.6747v.0005l.0028.5949c-.0032.9235-.75,1.6683-1.6702,1.665-.9202-.0032-1.6618-.7527-1.6591-1.6761l.8324.0028c-.0014.4594.3717.8367.8295.838.4624.0014.8337-.3731.8351-.8325l-.0028-.594c.0014-.4594-.3717-.8366-.8295-.838-.4041-.0013-.7444.2904-.8196.6748h-.8403c.0803-.8504.7945-1.5128,1.6627-1.5101Z"/><path class="cls-9" d="m189.144,54.6302c.115-.1793.284-.3171.481-.3964,10.341-4.1567,17.642-14.2794,17.642-26.1074,0-15.5338-12.592-28.1264-28.126-28.1264s-28.127,12.5926-28.127,28.1264c0,11.828,7.301,21.9508,17.643,26.1074.197.0793.366.2171.48.3964l8.317,13.0418c.787,1.2329,2.587,1.2329,3.373,0l8.317-13.0418Z"/><circle class="cls-33" cx="179.141" cy="28.1262" r="23.8085"/><rect class="cls-25" x="168.382" y="16.9177" width="21.5176" height="18.8279" rx="1" ry="1"/><rect class="cls-51" x="169.054" y="17.5903" width="20.1728" height="17.4831" rx="1" ry="1"/><path class="cls-51" d="m177.796,35.7456h2.69v7.0691c0,.5523-.448,1-1,1h-.69c-.552,0-1-.4477-1-1v-7.0691Z"/><path class="cls-40" d="m177.796,35.7456h2.69v2.0541l-2.69-1.3449v-.7092Z"/><path class="cls-25" d="m173.089,23.642c0-.3714.301-.6724.672-.6724h.673v1.3448h-.673c-.371,0-.672-.3011-.672-.6724Z"/><path class="cls-25" d="m174.434,32.4112h2.689v.3449c0,.5522-.447,1-1,1h-.689c-.553,0-1-.4478-1-1v-.3449Z"/><path class="cls-25" d="m181.158,32.4112h2.69v.3449c0,.5522-.448,1-1,1h-.69c-.552,0-1-.4478-1-1v-.3449Z"/><path class="cls-31" d="m181.158,32.4112h2.69v.6724l-2.69-.6724Z"/><path class="cls-31" d="m174.434,32.4112h2.689v.6724l-2.689-.6724Z"/><path class="cls-25" d="m185.193,23.642c0-.3714-.301-.6724-.673-.6724h-.672v1.3448h.672c.372,0,.673-.3011.673-.6724Z"/><rect class="cls-42" x="173.761" y="21.6523" width="10.7588" height="10.7588" rx="1" ry="1"/><rect class="cls-51" x="174.434" y="22.3247" width="9.414" height="5.3794" rx="1" ry="1"/><path class="cls-40" d="m175.062,22.3247h7.788c.552,0,1,.4477,1,1v2.3578l-8.243-3.3578h-.545Z"/><circle class="cls-51" cx="175.779" cy="29.694" r="1.3448"/><circle class="cls-51" cx="182.503" cy="29.694" r="1.3448"/><path class="cls-58" d="m179.141,25.0148l.002,2.6897"/><path class="cls-9" d="m240.833,149.023c.114-.18.283-.317.481-.397,10.341-4.156,17.642-14.279,17.642-26.107,0-15.534-12.593-28.1265-28.127-28.1265s-28.126,12.5925-28.126,28.1265c0,11.828,7.301,21.951,17.642,26.107.198.08.367.217.481.397l8.317,13.042c.786,1.232,2.586,1.232,3.373-.001l8.317-13.041Z"/><circle class="cls-33" cx="230.829" cy="122.519" r="23.5622"/><path class="cls-42" d="m219.051,121.358v5.424l13.197,7.27v-5.424l-13.197-7.27Z"/><path class="cls-42" d="m219.051,115.957v5.424l13.197,7.27v-5.424l-13.197-7.27Z"/><path class="cls-42" d="m229.451,110.985l-10.446,5.07,13.197,7.269,10.452-5.033-13.203-7.306Z"/><g class="cls-61"><path class="cls-51" d="m229.461,116.79c-.085.054-.231.05-.323-.01-.093-.06-.097-.152-.011-.206s.231-.05.324.01.098.152.01.206Zm-2.435-.32c-.283-.22-.28-.531.019-.717.318-.197.847-.179,1.185.041l.219.14c.337.22.353.559.035.757-.104.065-.231.105-.367.125l.484.313c.085.055.088.139.011.189-.078.049-.213.045-.296-.01l-1.016-.658-.008-.006.287-.179.009.006c.168.108.434.118.592.02h.001c.159-.099.149-.267-.019-.377l-.219-.141c-.167-.11-.434-.119-.592-.021h-.001c-.138.087-.148.229-.034.336l-.29.182Zm1.358-.851c-.283-.219-.281-.53.019-.716.318-.197.847-.179,1.185.04l.219.142c.337.22.353.558.036.755-.104.065-.231.106-.365.125l.484.314c.085.055.088.139.009.188-.079.05-.211.046-.296-.009l-1.025-.666.287-.179.01.006c.167.11.433.118.592.021h.001c.159-.1.149-.268-.018-.377l-.22-.141c-.167-.109-.434-.119-.592-.02h-.001c-.138.086-.147.229-.033.336l-.289.181m-1.921-1.149c-1.188.745-1.126,2.013.14,2.834,1.265.822,3.255.884,4.443.14,1.189-.745,1.127-2.013-.139-2.835-1.265-.821-3.255-.883-4.444-.139Z"/><path class="cls-40" d="m227.301,116.65l1.016.658c.085.055.217.059.296.01.079-.05.074-.134-.011-.189l-.484-.313c-.277.038-.59-.018-.818-.166m.277-.185l-.286.179.008.006.287-.179-.01-.006"/><path class="cls-40" d="m228.936,115.615l-.287.179,1.025.665c.085.055.217.059.296.009.079-.049.075-.134-.009-.188l-.484-.313c-.279.038-.592-.019-.82-.166l.287-.179-.011-.006"/><path class="cls-25" d="m229.128,116.574c-.086.054-.082.147.011.206.093.058.237.064.324.01.087-.054.082-.146-.011-.206-.093-.06-.237-.064-.324-.01Z"/><path class="cls-40" d="m227.046,115.753c-.3.186-.303.497-.019.717l.29-.182c-.115-.107-.105-.248.034-.336h.001c.159-.098.425-.089.592.021l.22.141c.167.11.176.278.018.377h-.001c-.158.098-.424.089-.592-.02l-.287.178c.228.147.541.204.819.165.136-.019.262-.06.367-.125.318-.198.301-.535-.035-.756l-.22-.141c-.337-.219-.867-.239-1.185-.04"/><path class="cls-40" d="m228.404,114.903c-.3.186-.303.497-.019.716l.289-.181c-.115-.107-.105-.248.034-.336h.001c.159-.099.425-.089.592.02l.22.141c.167.109.176.277.018.377h-.001c-.158.098-.425.089-.592-.021l-.287.178c.227.148.541.206.82.166.135-.019.262-.06.366-.125.316-.197.3-.536-.036-.755l-.22-.142c-.338-.22-.867-.238-1.185-.041"/></g><path class="cls-40" d="m242.536,128.628v-4.529l-10.233,4.809v4.697l10.233-4.977Z"/><path class="cls-40" d="m242.533,123.323v-4.529l-10.23,4.716v4.697l10.23-4.884Z"/><path class="cls-10" d="m242.648,123.649v.448l-10.121,4.842v4.529l10.121-4.898v.448l-10.401,5.032v-5.424l10.401-4.977Z"/><path class="cls-10" d="m242.648,118.289v.448l-10.121,4.842v4.528l10.121-4.897v.447l-10.401,5.033v-5.424l10.401-4.977Z"/><path class="cls-10" d="m219.051,121.104l5.933,3.363c.105.059.169.17.169.29,0,.255-.275.415-.497.289l-5.605-3.176v-.766Z"/><circle class="cls-48" cx="117.052" cy="216.063" r=".9895"/></svg>