<svg width="325" height="436" viewBox="0 0 325 436" fill="none" xmlns="http://www.w3.org/2000/svg">
<circle cx="161.344" cy="285" r="151" fill="#F39F51"/>
<mask id="mask0_2372_12732" style="mask-type:alpha" maskUnits="userSpaceOnUse" x="10" y="134" width="303" height="302">
<circle cx="161.344" cy="285" r="151" fill="#151515"/>
</mask>
<g mask="url(#mask0_2372_12732)">
<path d="M244.78 201.95C244.78 201.95 159.51 313.71 133.26 319.14C132.84 319.23 132.42 319.31 132.01 319.38C113 322.59 94.63 291.38 117.62 275.6C125.87 269.93 132.55 267.19 146.94 255.35L226.53 190.89L244.78 201.95Z" fill="#6D34E5"/>
<path d="M244.78 201.95C244.78 201.95 159.51 313.71 133.26 319.14C132.84 319.23 132.42 319.31 132.01 319.38C113 322.59 94.63 291.38 117.62 275.6C125.87 269.93 132.55 267.19 146.94 255.35L226.53 190.89L244.78 201.95Z" fill="url(#paint0_linear_2372_12732)"/>
<path d="M244.78 201.95L226.53 190.89L146.94 255.35C132.55 267.19 125.87 269.93 117.62 275.6" stroke="#111111"/>
<path d="M78 234.59C78 234.59 66.52 259.15 70.14 269.97L91.41 242.1L82 234.17L78 234.6V234.59Z" fill="#F0EFFF"/>
<path d="M32.22 381.93C32.22 381.93 24.03 307.39 91.23 277.14C107.53 270.05 128.15 276.61 135.84 283.11C151.78 296.58 160.69 309.09 171.42 371.49C182.15 433.89 176.22 455.63 176.22 455.63C176.22 455.63 55.71 459.65 32.22 381.94V381.93Z" fill="#6D34E6"/>
<path d="M32.22 381.93V381.94C55.71 459.65 176.22 455.63 176.22 455.63C176.22 455.63 182.15 433.89 171.42 371.49C160.69 309.09 151.78 296.58 135.84 283.11C129.223 277.517 113.032 271.879 98.2573 274.932" stroke="#111111" stroke-linecap="round"/>
<path d="M301.21 381.93C301.21 381.93 309.4 307.39 242.2 277.14C225.9 270.05 205.28 276.61 197.59 283.11C181.65 296.58 172.74 309.09 162.01 371.49C151.28 433.89 157.21 455.63 157.21 455.63C157.21 455.63 277.72 459.65 301.21 381.94V381.93Z" fill="#9475D7"/>
<path d="M301.21 381.93C301.21 381.93 309.4 307.39 242.2 277.14C225.9 270.05 205.28 276.61 197.59 283.11C181.65 296.58 172.74 309.09 162.01 371.49C151.28 433.89 157.21 455.63 157.21 455.63C157.21 455.63 277.72 459.65 301.21 381.94V381.93Z" fill="url(#paint1_linear_2372_12732)"/>
<path d="M242.2 277.14C225.9 270.05 205.28 276.61 197.59 283.11C181.65 296.58 172.74 309.09 162.01 371.49C151.28 433.89 157.21 455.63 157.21 455.63" stroke="#111111" stroke-linecap="round"/>
<path d="M82.01 234.17C82.01 234.17 68.39 254.78 70.15 269.98C71.88 276.86 86.64 265.25 96.41 264.66C106.18 264.07 114.06 266.55 117.29 263.81C120.52 261.07 151.43 233.97 142.09 188.23L82 234.16L82.01 234.17Z" fill="#423D52"/>
<path d="M82.01 234.17C82.01 234.17 68.39 254.78 70.15 269.98C71.88 276.86 86.64 265.25 96.41 264.66C106.18 264.07 114.06 266.55 117.29 263.81C120.52 261.07 151.43 233.97 142.09 188.23L82 234.16L82.01 234.17Z" fill="url(#paint2_linear_2372_12732)"/>
<path d="M102.04 255.22V277.62C102.04 277.62 110.98 284.3 123.12 278.33V255.22H102.04Z" fill="#CB6C66"/>
<path d="M150.58 220.06C156.031 220.06 160.45 215.641 160.45 210.19C160.45 204.739 156.031 200.32 150.58 200.32C145.129 200.32 140.71 204.739 140.71 210.19C140.71 215.641 145.129 220.06 150.58 220.06Z" fill="#CABDFF"/>
<path d="M142.66 232.19C152.485 232.19 160.45 224.225 160.45 214.4C160.45 204.575 152.485 196.61 142.66 196.61C132.835 196.61 124.87 204.575 124.87 214.4C124.87 224.225 132.835 232.19 142.66 232.19Z" fill="#9790AA"/>
<g filter="url(#filter0_f_2372_12732)">
<path d="M158.607 208.633C157.333 204.845 153.102 201.005 151.13 199.686L153.97 202.69C156.704 204.766 156.838 207 157.333 208.371C158.472 210.042 158.956 217.363 158.84 220.39C159.156 218.903 160.231 213.463 158.607 208.633Z" fill="#CFC6E8"/>
</g>
<path d="M157.426 219.217C157.615 213.343 153.059 206.204 151.175 204.016L150.281 205.099L153.63 210.682L155.457 219.411L154.848 228.174C155.525 227.565 157.236 225.091 157.426 219.217Z" fill="#887FA3"/>
<path d="M183.523 220.06C178.072 220.06 173.653 215.641 173.653 210.19C173.653 204.739 178.072 200.32 183.523 200.32C188.974 200.32 193.393 204.739 193.393 210.19C193.393 215.641 188.974 220.06 183.523 220.06Z" fill="#CABDFF"/>
<path d="M191.443 232.19C181.618 232.19 173.653 224.225 173.653 214.4C173.653 204.575 181.618 196.61 191.443 196.61C201.268 196.61 209.233 204.575 209.233 214.4C209.233 224.225 201.268 232.19 191.443 232.19Z" fill="#9790AA"/>
<g filter="url(#filter1_f_2372_12732)">
<path d="M175.497 208.633C176.77 204.845 181.001 201.005 182.974 199.686L180.133 202.69C177.399 204.766 177.266 207 176.77 208.371C175.631 210.042 175.148 217.363 175.264 220.39C174.947 218.903 173.873 213.463 175.497 208.633Z" fill="#CFC6E8"/>
</g>
<path d="M176.677 219.217C176.488 213.343 181.045 206.204 182.928 204.016L183.823 205.099L180.473 210.682L178.646 219.411L179.255 228.174C178.578 227.565 176.867 225.091 176.677 219.217Z" fill="#887FA3"/>
<path d="M121.841 257.857C143.944 254.114 159.348 236.235 156.248 217.922C153.147 199.61 132.716 187.798 110.613 191.54C88.5103 195.283 73.1061 213.162 76.2067 231.475C79.3074 249.787 99.7387 261.599 121.841 257.857Z" fill="#CB6C66"/>
<path d="M73.86 218.81C73.86 218.81 78.8 185.98 107.7 182.78C107.7 182.78 131.39 178.92 144.1 191.56C146.71 194.81 147.19 196.6 147.76 201.74L145.72 199.68C145.72 199.68 128.17 185.84 109.25 192.43C102.65 194.83 92.48 197.98 84.86 215.56L73.86 218.82V218.81Z" fill="#F5F5F5"/>
<path d="M94.8065 233.437C94.8065 233.437 89.1165 236.477 84.3765 238.297C82.0965 239.167 75.1765 241.577 75.1765 241.577C75.1765 241.577 63.9765 213.717 81.1965 195.457C91.0765 186.047 98.0865 182.847 110.736 181.717C124.396 181.107 136.346 182.937 145.916 196.307C150.136 201.927 152.016 210.467 152.016 210.467C152.016 210.467 149.626 211.647 147.266 212.707C145.726 213.397 140.586 214.757 140.586 214.757C140.586 214.757 138.646 206.967 135.916 205.147C135.696 205.027 135.936 206.467 135.936 206.467C135.936 206.467 136.546 211.527 136.686 216.077C136.686 216.077 128.966 220.487 120.826 223.937C113.346 227.107 100.816 230.957 100.816 230.957C100.816 230.957 98.4965 224.227 95.1065 220.837C94.7165 220.497 96.2365 225.387 94.8065 233.447V233.437Z" fill="#993F39"/>
<path d="M126.2 221.56L127.31 228.12C127.8 230.99 125.86 233.71 122.99 234.2C120.12 234.69 117.4 232.75 116.91 229.88L115.8 223.32" stroke="black" stroke-width="2" stroke-miterlimit="10" stroke-linecap="round"/>
<path d="M96.64 231.77C96.64 231.77 90.95 234.81 86.21 236.63C83.93 237.5 77.01 239.91 77.01 239.91C77.01 239.91 65.81 212.05 83.03 193.79C92.91 184.38 99.92 181.18 112.57 180.05C126.23 179.44 138.18 181.27 147.75 194.64C151.97 200.26 153.85 208.8 153.85 208.8C153.85 208.8 151.46 209.98 149.1 211.04C147.56 211.73 142.42 213.09 142.42 213.09C142.42 213.09 140.48 205.3 137.75 203.48C137.53 203.36 137.77 204.8 137.77 204.8C137.77 204.8 138.38 209.86 138.52 214.41C138.52 214.41 130.8 218.82 122.66 222.27C115.18 225.44 102.65 229.29 102.65 229.29C102.65 229.29 100.33 222.56 96.94 219.17C96.55 218.83 98.07 223.72 96.64 231.78V231.77Z" fill="#272727"/>
<path d="M96.64 231.77C96.64 231.77 90.95 234.81 86.21 236.63C83.93 237.5 77.01 239.91 77.01 239.91C77.01 239.91 65.81 212.05 83.03 193.79C92.91 184.38 99.92 181.18 112.57 180.05C126.23 179.44 138.18 181.27 147.75 194.64C151.97 200.26 153.85 208.8 153.85 208.8C153.85 208.8 151.46 209.98 149.1 211.04C147.56 211.73 142.42 213.09 142.42 213.09C142.42 213.09 140.48 205.3 137.75 203.48C137.53 203.36 137.77 204.8 137.77 204.8C137.77 204.8 138.38 209.86 138.52 214.41C138.52 214.41 130.8 218.82 122.66 222.27C115.18 225.44 102.65 229.29 102.65 229.29C102.65 229.29 100.33 222.56 96.94 219.17C96.55 218.83 98.07 223.72 96.64 231.78V231.77Z" fill="url(#paint3_linear_2372_12732)"/>
<path d="M148.21 214.4L149.32 220.96C149.81 223.83 147.87 226.55 145 227.04C142.13 227.53 139.41 225.59 138.92 222.72L137.81 216.16" stroke="black" stroke-width="2" stroke-miterlimit="10" stroke-linecap="round"/>
<path d="M256.31 246.68C256.31 246.68 256.4 258.82 258.19 262.59C258.19 262.59 250.85 267.3 245.48 267.39C245.48 267.39 245.1 264 245.48 262.5C245.48 262.5 244.47 266.22 244.61 267.39C244.61 267.39 218.85 269.77 201.34 262.21C190.48 257.97 187.65 255.22 187.65 255.22C187.65 255.22 187.04 252.46 187.65 249.72C187.65 249.72 186.06 252.61 186.33 254.45C186.33 254.45 184.55 253.69 183.31 252.26C183.31 252.26 178.83 241.74 181.3 217.67L256.31 246.68Z" fill="#272727"/>
<path d="M256.31 246.68C256.31 246.68 256.4 258.82 258.19 262.59C258.19 262.59 250.85 267.3 245.48 267.39C245.48 267.39 245.1 264 245.48 262.5C245.48 262.5 244.47 266.22 244.61 267.39C244.61 267.39 218.85 269.77 201.34 262.21C190.48 257.97 187.65 255.22 187.65 255.22C187.65 255.22 187.04 252.46 187.65 249.72C187.65 249.72 186.06 252.61 186.33 254.45C186.33 254.45 184.55 253.69 183.31 252.26C183.31 252.26 178.83 241.74 181.3 217.67L256.31 246.68Z" fill="url(#paint4_linear_2372_12732)"/>
<path d="M232.05 255.22V277.62C232.05 277.62 223.11 284.3 210.97 278.33V255.22H232.05Z" fill="#CB6C66"/>
<path d="M117.513 258.295C111.612 258.702 104.699 257.676 102.047 257.131L102.047 265.808C106.581 265.314 114.291 260.269 117.513 258.295Z" fill="#993F39"/>
<path d="M88.4698 249.992C88.4698 249.992 95.7634 258.7 117.23 258.194" stroke="#111111" stroke-miterlimit="10" stroke-linecap="round"/>
<path d="M257.298 231.759C260.399 213.446 244.994 195.567 222.892 191.825C200.789 188.082 180.358 199.894 177.257 218.207C174.157 236.519 189.561 254.399 211.663 258.141C233.766 261.883 254.197 250.072 257.298 231.759Z" fill="#CB6C66"/>
<path d="M216.607 258.383C222.508 258.79 229.42 257.765 232.073 257.22L232.073 265.897C227.538 265.403 219.829 260.358 216.607 258.383Z" fill="#993F39"/>
<path d="M245.65 250.081C245.65 250.081 238.356 258.789 216.89 258.283" stroke="#111111" stroke-miterlimit="10" stroke-linecap="round"/>
<path d="M260.23 218.81C260.23 218.81 255.29 185.98 226.39 182.78C226.39 182.78 202.7 178.92 189.99 191.56C187.38 194.81 186.9 196.6 186.33 201.74L188.37 199.68C188.37 199.68 205.92 185.84 224.84 192.43C231.44 194.83 241.61 197.98 249.23 215.56L260.23 218.82V218.81Z" fill="#F5F5F5"/>
<path d="M185.89 214.4L184.78 220.96C184.29 223.83 186.23 226.55 189.1 227.04C191.97 227.53 194.69 225.59 195.18 222.72L196.29 216.16" stroke="black" stroke-width="2" stroke-miterlimit="10" stroke-linecap="round"/>
<path d="M91.46 183.77C56.35 206.88 76.31 238.59 76.31 238.59C91.32 229.96 107 218.52 119.45 208.78L117.27 205.31C117.27 205.31 111.03 195.92 121.19 188.57C124.87 186.01 132.39 184.72 136.69 189.56L139.49 192.37C142.12 190.12 143.6 188.8 143.6 188.8C129.67 172.34 104.17 175.72 91.46 183.77Z" fill="white"/>
<path d="M127.67 197.64C124.49 200.27 120.83 203.09 117.28 205.34L119.46 208.81C123.32 205.79 126.87 202.93 129.99 200.37C133.91 197.15 137.16 194.41 139.5 192.4L136.7 189.59C136.7 189.59 132.83 193.36 127.67 197.64Z" fill="#615C6C"/>
<path d="M119.46 208.81L117.28 205.34C117.454 205.23 117.629 205.118 117.803 205.005L119.967 208.413C119.799 208.545 119.63 208.677 119.46 208.81Z" fill="#494551"/>
<path d="M139.571 192.337L136.722 189.548C136.576 189.694 136.429 189.84 136.28 189.985L139.044 192.801C139.21 192.666 139.405 192.473 139.571 192.337Z" fill="#494551"/>
<path d="M128.161 197.962L129.591 199.722C129.991 200.212 130.621 200.352 131.001 200.042L135.171 196.652C135.551 196.342 135.541 195.692 135.151 195.202L133.721 193.442C133.321 192.952 132.691 192.812 132.311 193.122L128.141 196.512C127.761 196.822 127.771 197.472 128.161 197.962ZM134.511 196.022L130.551 199.242C130.491 199.292 130.411 199.282 130.371 199.222L128.801 197.352C128.751 197.292 128.761 197.212 128.821 197.162L132.781 193.942C132.841 193.892 132.921 193.902 132.961 193.962L134.531 195.832C134.581 195.892 134.571 195.972 134.511 196.022Z" fill="#2D2B33"/>
<path d="M128.29 197.8L129.72 199.56C130.12 200.05 130.75 200.19 131.13 199.88L135.3 196.49C135.68 196.18 135.67 195.53 135.28 195.04L133.85 193.28C133.45 192.79 132.82 192.65 132.44 192.96L128.27 196.35C127.89 196.66 127.9 197.31 128.29 197.8ZM134.64 195.86L130.68 199.08C130.62 199.13 130.54 199.12 130.5 199.06L128.93 197.19C128.88 197.13 128.89 197.05 128.95 197L132.91 193.78C132.97 193.73 133.05 193.74 133.09 193.8L134.66 195.67C134.71 195.73 134.7 195.81 134.64 195.86Z" fill="#F0EBFF"/>
<path d="M90.3074 255.598C95.5638 253.526 98.3344 248.065 96.4956 243.399C94.6569 238.734 88.9052 236.631 83.6488 238.703C78.3924 240.774 75.6219 246.236 77.4606 250.901C79.2993 255.567 85.051 257.669 90.3074 255.598Z" fill="#A8A8A8"/>
<path d="M83.49 242.39C83.49 242.39 81.81 243.66 80.92 245.7C80.3 247.1 80.05 248.87 80.97 250.82" stroke="#6E6E6E" stroke-miterlimit="10" stroke-linecap="round"/>
<path d="M80.91 245.71C80.91 245.71 86.14 246.2 86.56 251.35" stroke="#6E6E6E" stroke-miterlimit="10" stroke-linecap="round"/>
<path d="M255.608 247.515C257.447 242.85 254.677 237.388 249.42 235.317C244.164 233.245 238.412 235.348 236.573 240.013C234.735 244.679 237.505 250.14 242.762 252.212C248.018 254.283 253.77 252.181 255.608 247.515Z" fill="#CB6C66"/>
<path d="M207.36 221.5C209.63 222.67 211.33 223.37 213.43 224.26C220.91 227.43 233.44 231.28 233.44 231.28C233.44 231.28 235.76 224.55 239.15 221.16C239.54 220.82 238.02 225.71 239.45 233.77C239.45 233.77 245.14 236.81 249.88 238.63C252.16 239.5 256.879 239.872 256.879 239.872C256.879 239.872 267.475 212.431 250.255 194.171C240.375 184.761 236.17 183.18 223.52 182.05C209.86 181.44 198.35 181.77 188.34 196.64C184.12 202.26 182.24 210.8 182.24 210.8C182.24 210.8 184.56 212.15 186.99 213.04C190.93 214.48 193.67 215.09 193.67 215.09C193.67 215.09 195.61 207.3 198.34 205.48C198.43 205.29 198.08 207.06 198.08 207.06C198.08 207.06 197.6 211.97 197.46 216.52C197.46 216.52 198.1 217.04 200.56 218.35C201.62 218.91 203.24 219.68 204.46 219.96C204.46 219.96 205.23 211.98 206.79 208.12C206.79 208.12 206.71 214.11 206.84 215.96C206.98 218.01 207.37 221.51 207.37 221.51L207.36 221.5Z" fill="#993F39"/>
<path d="M207.89 221.56L206.78 228.12C206.29 230.99 208.23 233.71 211.1 234.2C213.97 234.69 216.69 232.75 217.18 229.88L218.29 223.32" stroke="black" stroke-width="2" stroke-miterlimit="10" stroke-linecap="round"/>
<path d="M205.36 219.5C207.63 220.67 209.33 221.37 211.43 222.26C218.91 225.43 231.44 229.28 231.44 229.28C231.44 229.28 233.76 222.55 237.15 219.16C237.54 218.82 236.02 223.71 237.45 231.77C237.45 231.77 243.14 234.81 247.88 236.63C250.16 237.5 257.08 239.91 257.08 239.91C257.08 239.91 268.28 212.05 251.06 193.79C241.18 184.38 234.17 181.18 221.52 180.05C207.86 179.44 196.35 179.77 186.34 194.64C182.12 200.26 180.24 208.8 180.24 208.8C180.24 208.8 182.56 210.15 184.99 211.04C188.93 212.48 191.67 213.09 191.67 213.09C191.67 213.09 193.61 205.3 196.34 203.48C196.43 203.29 196.08 205.06 196.08 205.06C196.08 205.06 195.6 209.97 195.46 214.52C195.46 214.52 196.1 215.04 198.56 216.35C199.62 216.91 201.24 217.68 202.46 217.96C202.46 217.96 203.23 209.98 204.79 206.12C204.79 206.12 204.71 212.11 204.84 213.96C204.98 216.01 205.37 219.51 205.37 219.51L205.36 219.5Z" fill="#272727"/>
<path d="M205.36 219.5C207.63 220.67 209.33 221.37 211.43 222.26C218.91 225.43 231.44 229.28 231.44 229.28C231.44 229.28 233.76 222.55 237.15 219.16C237.54 218.82 236.02 223.71 237.45 231.77C237.45 231.77 243.14 234.81 247.88 236.63C250.16 237.5 257.08 239.91 257.08 239.91C257.08 239.91 268.28 212.05 251.06 193.79C241.18 184.38 234.17 181.18 221.52 180.05C207.86 179.44 196.35 179.77 186.34 194.64C182.12 200.26 180.24 208.8 180.24 208.8C180.24 208.8 182.56 210.15 184.99 211.04C188.93 212.48 191.67 213.09 191.67 213.09C191.67 213.09 193.61 205.3 196.34 203.48C196.43 203.29 196.08 205.06 196.08 205.06C196.08 205.06 195.6 209.97 195.46 214.52C195.46 214.52 196.1 215.04 198.56 216.35C199.62 216.91 201.24 217.68 202.46 217.96C202.46 217.96 203.23 209.98 204.79 206.12C204.79 206.12 204.71 212.11 204.84 213.96C204.98 216.01 205.37 219.51 205.37 219.51L205.36 219.5Z" fill="url(#paint5_linear_2372_12732)"/>
<path d="M142.4 187.47C142.28 187.34 142.15 187.22 142.03 187.09C141.72 186.78 141.41 186.47 141.1 186.18C140.97 186.06 140.85 185.94 140.72 185.82C140.29 185.43 139.86 185.05 139.41 184.69C139.39 184.68 139.38 184.67 139.36 184.65C138.93 184.3 138.49 183.97 138.04 183.65C137.9 183.55 137.75 183.45 137.61 183.34C137.27 183.11 136.94 182.88 136.59 182.66C136.44 182.57 136.3 182.47 136.15 182.38C135.68 182.09 135.2 181.81 134.72 181.54C120.57 173.76 101.79 177.23 91.46 183.77C56.35 206.88 76.31 238.59 76.31 238.59C91.32 229.96 107 218.52 119.45 208.78L117.27 205.31C117.27 205.31 111.03 195.92 121.19 188.57C124.87 186.01 132.39 184.72 136.69 189.56L139.49 192.37C142.12 190.12 143.6 188.8 143.6 188.8C143.21 188.34 142.8 187.89 142.39 187.46L142.4 187.47Z" fill="#F0EFFF"/>
<path d="M142.4 187.47C142.28 187.34 142.15 187.22 142.03 187.09C141.72 186.78 141.41 186.47 141.1 186.18C140.97 186.06 140.85 185.94 140.72 185.82C140.29 185.43 139.86 185.05 139.41 184.69C139.39 184.68 139.38 184.67 139.36 184.65C138.93 184.3 138.49 183.97 138.04 183.65C137.9 183.55 137.75 183.45 137.61 183.34C137.27 183.11 136.94 182.88 136.59 182.66C136.44 182.57 136.3 182.47 136.15 182.38C135.68 182.09 135.2 181.81 134.72 181.54C120.57 173.76 101.79 177.23 91.46 183.77C56.35 206.88 76.31 238.59 76.31 238.59C91.32 229.96 107 218.52 119.45 208.78L117.27 205.31C117.27 205.31 111.03 195.92 121.19 188.57C124.87 186.01 132.39 184.72 136.69 189.56L139.49 192.37C142.12 190.12 143.6 188.8 143.6 188.8C143.21 188.34 142.8 187.89 142.39 187.46L142.4 187.47Z" fill="url(#paint6_linear_2372_12732)"/>
<path d="M72.4652 228.381C72.4652 228.381 67.3752 204.001 79.3352 189.261C91.2952 174.521 103.276 172.621 115.095 172.621C115.095 172.621 139.605 171.571 149.205 197.031L146.755 193.641C146.755 193.641 146.285 192.791 144.685 190.961C141.265 187.031 134.685 178.371 118.765 177.491C113.765 177.211 107.615 176.931 96.0351 185.111C86.2751 193.091 82.3451 204.761 83.4052 224.311L72.4752 228.371L72.4652 228.381Z" fill="#9790AA"/>
<path d="M72.4652 228.381C72.4652 228.381 67.3752 204.001 79.3352 189.261C91.2952 174.521 103.276 172.621 115.095 172.621C115.095 172.621 139.605 171.571 149.205 197.031L146.755 193.641C146.755 193.641 146.285 192.791 144.685 190.961C141.265 187.031 134.685 178.371 118.765 177.491C113.765 177.211 107.615 176.931 96.0351 185.111C86.2751 193.091 82.3451 204.761 83.4052 224.311L72.4752 228.371L72.4652 228.381Z" fill="url(#paint7_linear_2372_12732)"/>
<path d="M72.4652 228.381L83.3952 224.321C82.3352 204.771 86.2752 193.101 96.0252 185.121C101.785 181.041 106.205 179.071 109.815 178.151C102.556 178.463 96.7361 179.786 91.4297 183.419C79.0539 190.795 73.5092 200.143 71.5652 211.371C70.8652 220.711 72.4652 228.381 72.4652 228.381Z" fill="#9790AA"/>
<path d="M83.3952 224.321L72.4652 228.381C72.4652 228.381 71.97 222.707 71.6996 220.525C75.2531 217.738 80.7932 217.657 83.0882 217.36C83.1142 218.592 83.3247 223.021 83.3952 224.321Z" fill="url(#paint8_linear_2372_12732)"/>
<path d="M89.8002 191.901C83.1261 202.859 82.8554 216.845 83.3636 223.028L81.0772 223.125C80.8867 212.452 82.6242 203.674 83.8923 200.731C86.4672 194.755 88.5932 189.233 95.7715 183.769C101.514 179.399 108.499 178.227 109.571 178.227C99.0133 181.674 92.7843 187.319 89.8002 191.901Z" fill="#78708F"/>
<path d="M84.0903 257.381C94.2406 257.381 102.778 251.709 103.16 240.434C103.16 230.609 95.8781 222.765 85.7277 222.765C75.5774 222.765 67.349 230.73 67.349 240.555C67.349 250.381 73.94 257.381 84.0903 257.381Z" fill="#887FA3"/>
<path d="M84.3452 258.311C94.1703 258.311 102.135 250.346 102.135 240.521C102.135 230.696 94.1703 222.731 84.3452 222.731C74.52 222.731 66.5552 230.696 66.5552 240.521C66.5552 250.346 74.52 258.311 84.3452 258.311Z" fill="#9790AA"/>
<path d="M92.171 224.533C91.6942 224.605 90.2014 224.964 89.6369 226.929" stroke="#78708F" stroke-width="0.4" stroke-linecap="round"/>
<path d="M99.7231 231.651C99.205 231.651 97.817 231.811 96.8628 233.827" stroke="#78708F" stroke-width="0.4" stroke-linecap="round"/>
<path d="M89.6968 257.378C89.387 257.214 88.4075 256.865 88.2635 255.152" stroke="#78708F" stroke-width="0.4" stroke-linecap="round"/>
<path d="M89.7714 232.811C89.5249 232.862 88.884 233.243 88.2924 234.353" stroke="#78708F" stroke-width="0.4" stroke-linecap="round"/>
<path d="M74.4167 252.389C74.444 252.139 74.7606 251.464 75.8085 250.768" stroke="#78708F" stroke-width="0.4" stroke-linecap="round"/>
<path d="M74.4242 230.615C74.4498 230.866 74.7615 231.543 75.8043 232.247" stroke="#78708F" stroke-width="0.4" stroke-linecap="round"/>
<path d="M93.192 225.117C92.8087 225.002 91.4957 225.227 91.0373 226.529" stroke="#78708F" stroke-width="0.4" stroke-linecap="round"/>
<path d="M100.1 232.353C99.8421 232.387 99.0362 232.353 98.5547 233.37" stroke="#78708F" stroke-width="0.4" stroke-linecap="round"/>
<path d="M90.7127 256.996C90.4801 256.881 89.7683 256.657 89.5812 255.533" stroke="#78708F" stroke-width="0.4" stroke-linecap="round"/>
<path d="M90.1714 233.611C89.958 233.643 89.4033 233.883 88.8912 234.582" stroke="#78708F" stroke-width="0.4" stroke-linecap="round"/>
<path d="M75.2517 252.71C75.2633 252.494 75.448 251.919 76.0943 251.342" stroke="#78708F" stroke-width="0.4" stroke-linecap="round"/>
<path d="M75.2615 230.301C75.2716 230.516 75.4521 231.093 76.0942 231.675" stroke="#78708F" stroke-width="0.4" stroke-linecap="round"/>
<path d="M80.717 254.43C87.7889 254.43 93.5219 248.697 93.5219 241.625C93.5219 234.553 87.7889 228.82 80.717 228.82C73.6451 228.82 67.9122 234.553 67.9122 241.625C67.9122 248.697 73.6451 254.43 80.717 254.43Z" fill="url(#paint9_radial_2372_12732)"/>
<path d="M236.848 225.836C240.345 221.913 246.723 221.61 249.353 221.847V225.883C242.416 226.338 238.652 227.973 237.102 229.348L236.922 227.609L236.891 226.746L236.848 225.836Z" fill="#1A1A1A"/>
<path d="M80.717 252.537C86.7432 252.537 91.6284 247.651 91.6284 241.625C91.6284 235.599 86.7432 230.714 80.717 230.714C74.6909 230.714 69.8057 235.599 69.8057 241.625C69.8057 247.651 74.6909 252.537 80.717 252.537Z" fill="#CABDFF"/>
<path d="M260.109 231.091C260.109 231.091 265.199 206.711 253.239 191.971C241.279 177.231 230.619 175.241 217.479 175.331C217.479 175.331 192.991 174.216 183.391 199.676L185.819 196.351C185.819 196.351 186.289 195.501 187.889 193.671C191.309 189.741 197.889 181.081 213.809 180.201C218.809 179.921 224.959 179.641 236.539 187.821C246.299 195.801 250.229 207.471 249.169 227.021L260.099 231.081L260.109 231.091Z" fill="#9790AA"/>
<path d="M260.109 231.091C260.109 231.091 265.199 206.711 253.239 191.971C241.279 177.231 230.619 175.241 217.479 175.331C217.479 175.331 192.991 174.216 183.391 199.676L185.819 196.351C185.819 196.351 186.289 195.501 187.889 193.671C191.309 189.741 197.889 181.081 213.809 180.201C218.809 179.921 224.959 179.641 236.539 187.821C246.299 195.801 250.229 207.471 249.169 227.021L260.099 231.081L260.109 231.091Z" fill="url(#paint10_linear_2372_12732)"/>
<path d="M260.109 231.091L249.179 227.031C250.239 207.481 246.299 195.811 236.549 187.831C230.789 183.751 226.369 181.781 222.759 180.861C230.018 181.173 235.838 182.496 241.144 186.128C253.52 193.505 259.065 202.852 261.009 214.081C261.709 223.421 260.109 231.091 260.109 231.091Z" fill="#9790AA"/>
<path d="M249.179 227.031L260.109 231.091C260.109 231.091 260.604 225.417 260.874 223.234C257.321 220.448 251.781 220.367 249.486 220.07C249.46 221.301 249.249 225.731 249.179 227.031Z" fill="url(#paint11_linear_2372_12732)"/>
<path d="M242.774 194.61C249.448 205.569 249.719 219.554 249.211 225.738L251.497 225.834C251.687 215.162 249.95 206.383 248.682 203.44C246.107 197.465 243.981 191.942 236.803 186.479C231.06 182.108 224.075 180.937 223.003 180.937C235.556 184.937 239.979 190.926 242.774 194.61Z" fill="#78708F"/>
<path d="M248.229 261.021C238.404 261.021 230.439 253.056 230.439 243.231C230.439 233.406 238.404 225.441 248.229 225.441C258.054 225.441 266.019 233.406 266.019 243.231C266.019 253.056 258.054 261.021 248.229 261.021Z" fill="#9790AA"/>
<path d="M240.403 227.242C240.88 227.315 242.373 227.674 242.937 229.639" stroke="#78708F" stroke-width="0.4" stroke-linecap="round"/>
<path d="M232.851 234.361C233.369 234.361 234.757 234.52 235.711 236.537" stroke="#78708F" stroke-width="0.4" stroke-linecap="round"/>
<path d="M242.877 260.087C243.187 259.923 244.167 259.575 244.311 257.862" stroke="#78708F" stroke-width="0.4" stroke-linecap="round"/>
<path d="M242.803 235.52C243.049 235.572 243.69 235.952 244.282 237.063" stroke="#78708F" stroke-width="0.4" stroke-linecap="round"/>
<path d="M258.157 255.099C258.13 254.848 257.813 254.174 256.766 253.477" stroke="#78708F" stroke-width="0.4" stroke-linecap="round"/>
<path d="M258.15 233.325C258.124 233.575 257.813 234.252 256.77 234.956" stroke="#78708F" stroke-width="0.4" stroke-linecap="round"/>
<path d="M239.382 227.826C239.765 227.711 241.078 227.936 241.537 229.239" stroke="#78708F" stroke-width="0.4" stroke-linecap="round"/>
<path d="M232.475 235.062C232.732 235.096 233.538 235.062 234.019 236.079" stroke="#78708F" stroke-width="0.4" stroke-linecap="round"/>
<path d="M241.861 259.706C242.094 259.59 242.806 259.367 242.993 258.243" stroke="#78708F" stroke-width="0.4" stroke-linecap="round"/>
<path d="M242.403 236.32C242.616 236.353 243.171 236.592 243.683 237.291" stroke="#78708F" stroke-width="0.4" stroke-linecap="round"/>
<path d="M257.322 255.419C257.311 255.204 257.126 254.629 256.48 254.051" stroke="#78708F" stroke-width="0.4" stroke-linecap="round"/>
<path d="M257.313 233.01C257.303 233.226 257.122 233.803 256.48 234.384" stroke="#78708F" stroke-width="0.4" stroke-linecap="round"/>
<path d="M251.857 257.14C244.785 257.14 239.052 251.407 239.052 244.335C239.052 237.263 244.785 231.53 251.857 231.53C258.929 231.53 264.662 237.263 264.662 244.335C264.662 251.407 258.929 257.14 251.857 257.14Z" fill="url(#paint12_radial_2372_12732)"/>
<path d="M251.857 255.246C245.831 255.246 240.946 250.361 240.946 244.335C240.946 238.309 245.831 233.423 251.857 233.423C257.883 233.423 262.768 238.309 262.768 244.335C262.768 250.361 257.883 255.246 251.857 255.246Z" fill="#CABDFF"/>
<g filter="url(#filter2_f_2372_12732)">
<path d="M203.417 370.382C210.067 352.962 214.743 327.953 217.483 318.323L230.908 322.532C239.428 327.238 249.157 339.621 249.038 355.076C248.919 370.531 235.465 388.957 225.856 404.412L188.11 442.603L171.81 428.823L203.417 370.382Z" fill="#7557B7"/>
</g>
<path d="M190.79 446.432C190.79 446.432 275.082 398.345 266.127 306.615C266.127 306.185 266.017 305.765 265.947 305.355C262.937 286.315 227.76 275.632 220.12 302.452C217.38 312.082 212.86 355.302 206.21 372.722L174.49 432.662L190.79 446.442V446.432Z" fill="#9475D7"/>
<path d="M190.79 446.432C190.79 446.432 275.082 398.345 266.127 306.615C266.127 306.185 266.017 305.765 265.947 305.355C262.937 286.315 227.76 275.632 220.12 302.452C217.38 312.082 212.86 355.302 206.21 372.722L174.49 432.662L190.79 446.442V446.432Z" fill="url(#paint13_linear_2372_12732)"/>
<path d="M220.107 301.819C218.25 308.346 215.575 330.301 211.974 349.197C210.262 358.182 208.34 366.476 206.197 372.089L174.477 432.029M190.777 445.809V445.799C190.777 445.799 268.348 401.992 266.898 315.462C266.898 315.032 266.415 310.036 266.345 309.626C265.676 305.395 263.226 297.553 258.95 293.025C251.474 286.412 239.988 282.011 230.659 287.447" stroke="#111111" stroke-linecap="round" stroke-linejoin="round"/>
<path d="M101.046 276.585C101.926 277.906 105.864 280.597 114.578 280.803" stroke="#111111" stroke-linecap="round"/>
<path d="M175.866 464.256L175.747 464.374C173.804 466.382 170.601 466.443 168.593 464.5C166.598 462.576 166.532 459.403 168.43 457.394C166.483 459.367 163.311 459.41 161.316 457.486C159.308 455.543 159.247 452.339 161.19 450.331L161.947 449.553C160.104 450.982 157.457 450.713 155.947 448.918L155.05 447.85C153.501 446.001 153.736 443.246 155.585 441.697L163.756 434.822C164.264 433.937 164.866 433.089 165.605 432.325C170.366 427.39 178.228 427.251 183.162 432.012L193.795 442.274C198.73 447.036 198.87 454.898 194.108 459.832C193.15 460.82 192.058 461.614 190.906 462.219L184.438 468.924C182.495 470.932 179.292 470.993 177.284 469.05C175.957 467.769 175.494 465.935 175.883 464.265L175.866 464.256Z" fill="#CB6C66"/>
<path d="M155.947 448.918L155.05 447.85C153.501 446.001 153.736 443.246 155.585 441.697L163.756 434.822C164.264 433.937 164.866 433.089 165.605 432.325C170.366 427.39 178.228 427.251 183.162 432.012L193.795 442.274" stroke="#18161B" stroke-linecap="round"/>
</g>
<g filter="url(#filter3_f_2372_12732)">
<path d="M95.6459 329.134C93.8959 340.334 89.1837 348.393 80.8437 356.053C72.5037 363.713 76.9102 374.995 76.9102 374.995C79.8902 403.275 107.88 406.245 107.88 406.245V421.794C107.88 421.794 49.0819 429.953 32.6823 384.986C18.6323 326.946 66.5401 301.969 83.6101 293.639C88.1301 291.429 94.2616 294.297 95.2616 299.227C95.6816 301.287 95.7759 304.908 95.6459 308.258C95.2859 317.428 96.9559 320.734 95.6459 329.134Z" fill="#391C74" fill-opacity="0.39"/>
</g>
<path d="M95.63 317.495C93.88 328.695 87.95 338.665 79.61 346.325C71.27 353.985 72.91 367.995 72.91 367.995C75.89 396.275 103.88 399.245 103.88 399.245V425.855C103.88 425.855 43.13 447.755 26.2 377.885C12.15 319.845 69.33 287.175 86.4 278.845C90.92 276.635 97.0515 279.502 98.0515 284.432C98.4715 286.492 98.5658 290.113 98.4358 293.463C98.0758 302.633 96.94 309.095 95.63 317.495Z" fill="#6D34E5"/>
<path d="M95.63 317.495C93.88 328.695 87.95 338.665 79.61 346.325C71.27 353.985 72.91 367.995 72.91 367.995C75.89 396.275 103.88 399.245 103.88 399.245V425.855C103.88 425.855 43.13 447.755 26.2 377.885C12.15 319.845 69.33 287.175 86.4 278.845C90.92 276.635 97.0515 279.502 98.0515 284.432C98.4715 286.492 98.5658 290.113 98.4358 293.463C98.0758 302.633 96.94 309.095 95.63 317.495Z" fill="url(#paint14_linear_2372_12732)"/>
<path d="M91.3137 278.902C85.3247 277.697 71.3542 284.333 49.5991 304.539" stroke="#111111" stroke-linecap="round"/>
<path d="M26.2 377.885C43.13 447.755 103.88 425.855 103.88 425.855V399.245C103.88 399.245 75.89 396.275 72.91 367.995C72.91 367.995 72.019 353.846 79.61 346.325C89.5389 336.487 93.88 328.695 95.63 317.495C96.94 309.095 98.0758 302.633 98.4358 293.463C98.5658 290.113 98.4715 286.492 98.0515 284.432" stroke="#111111" stroke-linecap="round"/>
<path d="M157.786 368.331L165.806 425.371L121.206 425.131L113.186 368.091L157.786 368.331Z" fill="#C2BECF"/>
<path d="M157.786 368.331L165.806 425.371L121.206 425.131L113.186 368.091L157.786 368.331Z" fill="url(#paint15_linear_2372_12732)"/>
<path d="M157.786 368.331L158.756 362.931L166.776 419.981L165.806 425.371L157.786 368.331Z" fill="#806FBB"/>
<path d="M157.786 368.331L158.756 362.931L166.776 419.981L165.806 425.371L157.786 368.331Z" fill="url(#paint16_linear_2372_12732)"/>
<path d="M113.186 368.091L114.156 362.691L158.756 362.931L157.786 368.331L113.186 368.091Z" fill="#CAC3E1"/>
<path d="M113.186 368.091L114.156 362.691L158.756 362.931L157.786 368.331L113.186 368.091Z" fill="url(#paint17_linear_2372_12732)"/>
<path d="M125.986 414.491L126.146 414.441C128.826 413.651 130.366 410.841 129.576 408.161C128.796 405.501 126.016 403.971 123.356 404.721C126.006 403.911 127.516 401.121 126.736 398.461C125.946 395.781 123.136 394.241 120.456 395.031L119.416 395.341C121.536 394.371 122.526 391.901 121.636 389.731L121.106 388.441C120.186 386.211 117.636 385.141 115.406 386.061L105.526 390.111C104.506 390.151 103.476 390.291 102.456 390.591C95.8763 392.521 92.1063 399.421 94.0363 406.001L98.1963 420.181C100.126 426.761 107.026 430.531 113.606 428.601C114.926 428.211 116.136 427.611 117.206 426.871L126.146 424.251C128.826 423.461 130.366 420.651 129.576 417.971C129.056 416.201 127.646 414.941 125.986 414.511V414.491Z" fill="#CB6C66"/>
<path d="M121.636 389.731L121.106 388.441C120.186 386.211 117.636 385.141 115.406 386.061L105.526 390.111C104.506 390.151 103.476 390.291 102.456 390.591C95.8763 392.521 92.1063 399.421 94.0363 406.001L98.1963 420.181" stroke="#18161B" stroke-linecap="round"/>
<path d="M107.734 394.87C110.343 400.376 115.781 413.356 116.664 421.23" stroke="#18161B" stroke-linecap="round"/>
<path d="M116.724 395.658C120.828 394.716 121.364 392.016 121.927 390.79C122.167 391.344 122.168 392.804 121.051 394.278C119.794 395.935 118.179 395.71 116.724 395.658Z" fill="#A3504B"/>
<path d="M122.636 404.905C125.856 403.194 126.386 400.605 126.949 399.378C127.003 399.964 127.182 401.495 126.065 402.969C124.808 404.625 123.342 405 122.636 404.905Z" fill="#A3504B"/>
<path d="M125.472 414.452C128.691 412.742 129.222 410.152 129.784 408.926C129.839 409.512 130.018 411.043 128.9 412.516C127.643 414.173 126.178 414.547 125.472 414.452Z" fill="#A3504B"/>
<mask id="mask1_2372_12732" style="mask-type:luminance" maskUnits="userSpaceOnUse" x="131" y="382" width="13" height="10">
<path d="M143.306 382.367H131.306V391.367H143.306V382.367Z" fill="white"/>
</mask>
<g mask="url(#mask1_2372_12732)">
<path d="M137.306 382.367C133.99 382.367 131.306 384.381 131.306 386.867C131.306 389.353 133.99 391.367 137.306 391.367C140.622 391.367 143.306 389.353 143.306 386.867C143.306 384.381 140.622 382.367 137.306 382.367Z" fill="#817796"/>
</g>
<path d="M137.306 381.321C137.661 380.187 138.652 379.217 140.306 379.386C139.995 380.092 138.918 381.655 137.306 381.321Z" fill="#817796"/>
<g filter="url(#filter4_d_2372_12732)">
<rect x="122" y="6" width="163" height="36" rx="8" fill="#F1EEFF" shape-rendering="crispEdges"/>
<path d="M141.758 19.5156V28H140.398L136.379 22.1992H136.309V28H134.785V19.5156H136.168L140.164 25.3164H140.246V19.5156H141.758ZM146.082 28.1289C144.166 28.1289 142.988 26.8516 142.988 24.8594C142.988 22.8906 144.184 21.5547 146 21.5547C147.559 21.5547 148.906 22.5332 148.906 24.7656V25.2344H144.465C144.488 26.3184 145.127 26.9629 146.094 26.957C146.75 26.9629 147.189 26.6816 147.383 26.3008H148.848C148.578 27.4023 147.559 28.1289 146.082 28.1289ZM144.471 24.2148H147.477C147.471 23.3477 146.885 22.7148 146.023 22.7148C145.127 22.7148 144.523 23.4062 144.471 24.2148ZM151.355 28L149.551 21.6367H151.074L152.199 26.1133H152.258L153.395 21.6367H154.906L156.055 26.0898H156.113L157.227 21.6367H158.75L156.945 28H155.387L154.191 23.6875H154.109L152.914 28H151.355ZM162.453 19.5156H163.965V25.4805C163.965 27.1211 162.869 28.1172 161.234 28.1172C159.746 28.1172 158.604 27.3086 158.609 25.75H160.133C160.139 26.4414 160.607 26.8574 161.293 26.8633C162.031 26.8574 162.447 26.3828 162.453 25.4805V19.5156ZM168.289 28.1289C166.373 28.1289 165.195 26.8516 165.195 24.8594C165.195 22.8906 166.391 21.5547 168.207 21.5547C169.766 21.5547 171.113 22.5332 171.113 24.7656V25.2344H166.672C166.695 26.3184 167.334 26.9629 168.301 26.957C168.957 26.9629 169.396 26.6816 169.59 26.3008H171.055C170.785 27.4023 169.766 28.1289 168.289 28.1289ZM166.678 24.2148H169.684C169.678 23.3477 169.092 22.7148 168.23 22.7148C167.334 22.7148 166.73 23.4062 166.678 24.2148ZM171.98 26.207C171.98 24.7773 173.17 24.3613 174.348 24.2852C174.793 24.25 175.701 24.209 175.982 24.1973L175.977 23.6875C175.977 23.0547 175.572 22.6914 174.828 22.6914C174.16 22.6914 173.75 22.9961 173.633 23.4531H172.191C172.297 22.3691 173.27 21.5547 174.863 21.5547C176.07 21.5547 177.465 22.0527 177.465 23.7461V28H176.035V27.1211H175.988C175.707 27.6602 175.115 28.1289 174.113 28.1289C172.9 28.1289 171.98 27.4668 171.98 26.207ZM173.422 26.1953C173.422 26.7461 173.873 27.0273 174.5 27.0273C175.408 27.0273 175.988 26.4297 175.988 25.7148L175.982 25.1934C175.713 25.2051 174.881 25.2578 174.582 25.2812C173.873 25.3398 173.422 25.6387 173.422 26.1953ZM180.371 24.2734V28H178.871V21.6367H180.301V22.7148H180.383C180.67 22.0059 181.32 21.5547 182.27 21.5547C183.588 21.5547 184.455 22.4219 184.449 23.9453V28H182.961V24.1797C182.961 23.3242 182.498 22.8145 181.719 22.8203C180.928 22.8145 180.371 23.3477 180.371 24.2734ZM189.488 23.4531C189.395 22.9727 188.996 22.6621 188.363 22.668C187.725 22.6621 187.256 22.9844 187.262 23.418C187.256 23.7461 187.52 23.9922 188.164 24.1445L189.242 24.3672C190.443 24.6309 191.029 25.1875 191.035 26.1016C191.029 27.2969 189.98 28.1289 188.316 28.1289C186.699 28.1289 185.744 27.4023 185.586 26.1836H187.109C187.197 26.7285 187.619 26.998 188.316 26.9922C189.037 26.998 189.506 26.7051 189.512 26.2305C189.506 25.8613 189.219 25.627 188.586 25.4922L187.566 25.2695C186.383 25.0293 185.768 24.4082 185.773 23.5C185.768 22.3223 186.787 21.5547 188.34 21.5547C189.857 21.5547 190.795 22.2988 190.906 23.4531H189.488Z" fill="#141414"/>
<path d="M201.668 28H198.785V19.5156H201.715C204.246 19.5156 205.775 21.1035 205.781 23.7461C205.775 26.4004 204.246 28 201.668 28ZM200.309 26.6758H201.586C203.361 26.6816 204.258 25.7031 204.258 23.7461C204.258 21.8008 203.361 20.834 201.633 20.8398H200.309V26.6758ZM207.059 28V21.6367H208.559V28H207.059ZM206.953 19.9141C206.953 19.4688 207.346 19.1055 207.82 19.1055C208.295 19.1055 208.688 19.4688 208.688 19.9141C208.688 20.3652 208.295 20.7285 207.82 20.7344C207.346 20.7285 206.953 20.3652 206.953 19.9141ZM213.164 21.6367V22.7852H211.91V26.0898C211.91 26.6992 212.215 26.8223 212.59 26.8281C212.766 26.834 213.059 26.8164 213.246 26.8047V28.0234C213.07 28.0527 212.783 28.0879 212.402 28.082C211.277 28.0879 210.41 27.5312 210.422 26.3359V22.7852H209.508V21.6367H210.422V20.1133H211.91V21.6367H213.164ZM217.488 21.6367V22.7852H216.234V26.0898C216.234 26.6992 216.539 26.8223 216.914 26.8281C217.09 26.834 217.383 26.8164 217.57 26.8047V28.0234C217.395 28.0527 217.107 28.0879 216.727 28.082C215.602 28.0879 214.734 27.5312 214.746 26.3359V22.7852H213.832V21.6367H214.746V20.1133H216.234V21.6367H217.488ZM221.344 28.1289C219.486 28.1289 218.297 26.8105 218.297 24.8477C218.297 22.8672 219.486 21.5547 221.344 21.5547C223.207 21.5547 224.396 22.8672 224.391 24.8477C224.396 26.8105 223.207 28.1289 221.344 28.1289ZM219.809 24.8359C219.809 26.002 220.318 26.9336 221.355 26.9336C222.375 26.9336 222.885 26.002 222.879 24.8359C222.885 23.6699 222.375 22.7324 221.355 22.7383C220.318 22.7324 219.809 23.6699 219.809 24.8359Z" fill="#141414"/>
<path fill-rule="evenodd" clip-rule="evenodd" d="M250.556 18.0311C248.462 17.8121 247.232 18.773 246.504 20.1437C245.776 18.773 244.545 17.8192 242.452 18.0311C240.358 18.2431 239.023 19.9459 239 21.8394C238.948 27.2374 244.935 29.5266 246.249 29.9576C246.414 30.0141 246.586 30.0141 246.751 29.9576C248.064 29.5195 254.06 27.2374 254 21.8394C253.977 19.9459 252.544 18.236 250.548 18.0311H250.556Z" fill="#141414"/>
<path d="M258.551 26.418V25.1992L262.219 19.5156H264.117V25.1641H265.23V26.418H264.117V28H262.664V26.418H258.551ZM260.109 25.1641H262.688V21.25H262.594L260.109 25.1055V25.1641ZM266.461 28V19.5156H267.961V24.1914H268.066L270.352 21.6367H272.098L269.631 24.3789L272.25 28H270.469L268.512 25.2695L267.961 25.8555V28H266.461Z" fill="#141414"/>
</g>
<g filter="url(#filter5_d_2372_12732)">
<rect x="187.919" y="124.531" width="131" height="36" rx="8" fill="#F1EEFF" shape-rendering="crispEdges"/>
<path d="M201.911 137.66V139.219H203.657V137.66H204.864V142.711H200.681V137.66H201.911ZM201.911 141.679H203.657V140.226H201.911V141.679ZM202.075 144.949V143.894H209.329V147.574H208.028V144.949H202.075ZM205.813 143.297V137.191H207.032V139.629H208.087V136.992H209.329V143.355H208.087V140.695H207.032V143.297H205.813ZM219.782 136.98V147.574H218.528V136.98H219.782ZM210.747 141.562C210.747 139.23 211.649 137.783 213.032 137.789C213.929 137.783 214.626 138.375 215.018 139.406H216.407V137.168H217.638V147.058H216.407V143.719H215.018C214.632 144.756 213.929 145.353 213.032 145.347C211.649 145.353 210.747 143.9 210.747 141.562ZM211.942 141.562C211.931 143.22 212.335 144.111 213.032 144.105C213.735 144.111 214.169 143.22 214.169 141.562C214.169 139.91 213.735 139.013 213.032 139.019C212.335 139.013 211.931 139.91 211.942 141.562ZM215.282 140.461C215.335 140.801 215.364 141.17 215.364 141.562C215.364 141.949 215.335 142.312 215.288 142.652H216.407V140.461H215.282ZM229.813 136.992V144.785H228.524V136.992H229.813ZM221.552 138.75V137.707H226.438V140.976H222.852V142.312C224.768 142.312 226.034 142.254 227.493 141.984L227.634 143.027C226.034 143.326 224.645 143.379 222.477 143.379H221.575V139.992H225.149V138.75H221.552ZM222.759 147.363V144.152H224.071V146.308H230.106V147.363H222.759Z" fill="#141414"/>
<path d="M242.067 138.855C242.056 140.244 242.935 141.574 244.599 142.113L243.919 143.144C242.747 142.746 241.909 141.949 241.446 140.929C240.977 142.054 240.104 142.933 238.868 143.367L238.142 142.336C239.882 141.767 240.755 140.349 240.755 138.844V137.636H242.067V138.855ZM239.841 147.363V144H241.177V146.308H247.048V147.363H239.841ZM245.325 144.761V136.98H246.626V140.109H248.102V141.211H246.626V144.761H245.325ZM251.911 139.359C251.911 140.478 252.591 141.586 253.927 142.043L253.341 143.027C252.368 142.67 251.7 142.002 251.319 141.187C250.95 142.078 250.276 142.81 249.274 143.203L248.665 142.242C250.007 141.715 250.669 140.56 250.681 139.359V139.277H248.935V138.258H250.681V137.097H251.911V138.258H253.634V139.277H251.911V139.359ZM250.446 145.008V143.953H257.7V147.574H256.399V145.008H250.446ZM254.208 143.426V137.168H255.438V139.711H256.458V136.992H257.7V143.472H256.458V140.765H255.438V143.426H254.208Z" fill="#141414"/>
<path fill-rule="evenodd" clip-rule="evenodd" d="M284.474 136.562C282.381 136.343 281.15 137.304 280.423 138.675C279.695 137.304 278.464 136.35 276.371 136.562C274.277 136.774 272.942 138.477 272.919 140.37C272.867 145.768 278.854 148.058 280.167 148.489C280.333 148.545 280.505 148.545 280.67 148.489C281.983 148.051 287.978 145.768 287.918 140.37C287.896 138.477 286.463 136.767 284.467 136.562H284.474Z" fill="#141414"/>
<path d="M295.798 146.648C294.14 146.636 292.487 145.652 292.493 142.523C292.493 139.623 293.811 137.929 295.892 137.929C297.526 137.929 298.651 138.955 298.845 140.332H297.333C297.181 139.681 296.665 139.248 295.892 139.254C294.661 139.248 293.976 140.338 293.97 142.125H294.052C294.485 141.392 295.3 140.959 296.231 140.965C297.755 140.959 298.933 142.113 298.927 143.719C298.933 145.406 297.673 146.66 295.798 146.648ZM294.134 143.765C294.145 144.65 294.837 145.412 295.798 145.418C296.741 145.412 297.444 144.685 297.45 143.754C297.444 142.851 296.765 142.125 295.821 142.125C294.866 142.125 294.145 142.881 294.134 143.765ZM300.227 146.531V138.047H301.727V142.722H301.833L304.118 140.168H305.864L303.397 142.91L306.017 146.531H304.235L302.278 143.801L301.727 144.386V146.531H300.227Z" fill="#141414"/>
</g>
<g filter="url(#filter6_d_2372_12732)">
<rect x="8.34399" y="63" width="149" height="42" rx="8" fill="#F1EEFF" shape-rendering="crispEdges"/>
<path d="M25.0374 79.1016V89H23.26V79.1016H25.0374ZM33.1311 79.1016H34.9221V85.5684C34.9153 87.6943 33.3157 89.1504 30.9026 89.1504C28.4758 89.1504 26.8899 87.6943 26.8831 85.5684V79.1016H28.6604V85.418C28.6672 86.6689 29.5354 87.5576 30.9026 87.5645C32.2698 87.5576 33.1311 86.6689 33.1311 85.418V79.1016Z" fill="#141414"/>
<path d="M52.5022 85.541V90.0664H44.5178V85.541H52.5022ZM43.178 84.2969V78.5H44.6819V80.168H47.5667V78.5H49.0706V84.2969H43.178ZM44.6819 83.0664H47.5667V81.3574H44.6819V83.0664ZM46.0217 88.8359H50.9983V86.7578H46.0217V88.8359ZM50.9846 84.9395V77.8574H52.5022V80.6738H54.2249V81.9453H52.5022V84.9395H50.9846ZM65.2034 77.8574V86.9902H63.6858V83.7637H61.9358V82.5059H63.6858V81.3301H61.9358V80.0996H63.6858V77.8574H65.2034ZM54.8674 84.1055C55.2981 84.1055 55.7698 84.1055 56.262 84.0986V80.0039H55.1819V78.7871H61.7581V80.0039H60.6643V83.9551C61.1292 83.9209 61.5803 83.8799 62.0178 83.832L62.0862 84.9395C59.7415 85.3154 57.0002 85.3633 55.0315 85.3633L54.8674 84.1055ZM57.0823 89.9707V86.2793H58.6135V88.7402H65.5178V89.9707H57.0823ZM57.7385 84.0781C58.217 84.0713 58.7092 84.0508 59.2014 84.0303V80.0039H57.7385V84.0781ZM71.6155 81.3711C71.6155 83.3945 72.8049 85.5273 74.801 86.3613L73.967 87.5645C72.5042 86.9287 71.4377 85.6367 70.8704 84.0645C70.303 85.7598 69.2161 87.1816 67.7737 87.8652L66.8987 86.6758C68.8469 85.7734 70.0637 83.4697 70.0706 81.3711V80.332H67.3499V79.0742H74.3225V80.332H71.6155V81.3711ZM75.7034 90.2168V77.8574H77.2346V90.2168H75.7034Z" fill="#141414"/>
<path fill-rule="evenodd" clip-rule="evenodd" d="M106.44 77.0363C104.068 76.7808 102.673 77.9018 101.848 79.501C101.023 77.9018 99.6287 76.789 97.2561 77.0363C94.8836 77.2836 93.3699 79.2702 93.3444 81.4793C93.2849 87.777 100.071 90.4477 101.559 90.9505C101.746 91.0165 101.942 91.0165 102.129 90.9505C103.617 90.4395 110.412 87.777 110.343 81.4793C110.318 79.2702 108.694 77.2754 106.432 77.0363H106.44Z" fill="#141414"/>
<path d="M115.164 89V87.7148L118.664 84.3379C119.662 83.3398 120.182 82.752 120.182 81.918C120.182 80.9951 119.45 80.4141 118.487 80.4141C117.468 80.4141 116.812 81.0498 116.819 82.0547H115.123C115.116 80.1816 116.525 78.9648 118.5 78.9648C120.524 78.9648 121.884 80.1748 121.891 81.8359C121.884 82.9502 121.351 83.8525 119.403 85.6914L117.639 87.4414V87.5098H122.041V89H115.164ZM124.694 89.1094C124.106 89.1094 123.62 88.6309 123.627 88.043C123.62 87.4688 124.106 86.9971 124.694 86.9902C125.261 86.9971 125.746 87.4688 125.746 88.043C125.746 88.6309 125.261 89.1094 124.694 89.1094ZM130.805 89.1367C128.829 89.1367 127.373 87.9541 127.319 86.3203H129.055C129.11 87.1201 129.868 87.6943 130.805 87.7012C131.912 87.6943 132.712 86.8945 132.705 85.8008C132.712 84.666 131.892 83.8662 130.75 83.8594C129.978 83.8525 129.417 84.126 129.11 84.707H127.455L128.057 79.1016H133.908V80.5918H129.52L129.219 83.2168H129.315C129.698 82.7861 130.415 82.4717 131.229 82.4648C133.068 82.4717 134.435 83.8389 134.428 85.7461C134.435 87.7217 132.945 89.1367 130.805 89.1367ZM135.946 89V79.1016H137.696V84.5566H137.819L140.485 81.5762H142.522L139.644 84.7754L142.699 89H140.621L138.338 85.8145L137.696 86.498V89H135.946Z" fill="#141414"/>
</g>
<path d="M76.7023 246.205L75.0237 242.48L76.1323 241.981L77.8109 245.706C77.9486 246.012 77.8122 246.372 77.5061 246.509C77.2 246.647 76.8401 246.511 76.7023 246.205Z" fill="#B9A9FD"/>
<path d="M81.9542 243.841L80.2756 240.117L81.3841 239.618L83.0627 243.342C83.2005 243.648 83.064 244.008 82.7579 244.146C82.4518 244.283 82.0919 244.147 81.9542 243.841Z" fill="#B9A9FD"/>
<path d="M80.7827 245.045C81.1171 244.894 81.2662 244.501 81.1157 244.167C80.9652 243.832 80.5721 243.683 80.2377 243.834C79.9033 243.984 79.7542 244.377 79.9047 244.712C80.0552 245.046 80.4483 245.195 80.7827 245.045Z" fill="#B9A9FD"/>
<path d="M75.9036 238.501C77.1302 237.954 78.567 238.507 79.1173 239.737L79.1175 239.738L79.4779 240.529C80.0271 241.761 79.479 243.2 78.2515 243.748C77.0239 244.295 75.5868 243.741 75.0369 242.51L76.1472 242.014C76.4207 242.627 77.1439 242.906 77.7544 242.633C78.3711 242.358 78.6412 241.637 78.3676 241.024L78.0079 240.234C77.7343 239.622 77.0111 239.343 76.4006 239.616C75.8617 239.856 75.5832 240.449 75.7135 241.006L74.5943 241.509C74.1916 240.329 74.7458 239.018 75.9036 238.501Z" fill="#B9A9FD"/>
<path d="M81.1553 236.137C82.3819 235.59 83.8188 236.143 84.369 237.373L84.3693 237.374L84.7296 238.165C85.2788 239.397 84.7307 240.836 83.5032 241.384C82.2756 241.931 80.8385 241.377 80.2886 240.146L81.3989 239.65C81.6724 240.263 82.3956 240.542 83.0061 240.269C83.6228 239.994 83.8929 239.273 83.6193 238.66L83.2596 237.871C82.986 237.258 82.2629 236.979 81.6523 237.252C81.1134 237.492 80.835 238.085 80.9652 238.642L79.846 239.145C79.4433 237.965 79.9975 236.654 81.1553 236.137Z" fill="#B9A9FD"/>
<path d="M246.878 245.836L248.466 242.072L249.586 242.545L247.998 246.309C247.867 246.618 247.511 246.763 247.202 246.633C246.892 246.502 246.747 246.145 246.878 245.836Z" fill="#B9A9FD"/>
<path d="M252.183 248.077L253.771 244.313L254.891 244.786L253.303 248.55C253.173 248.859 252.816 249.004 252.507 248.874C252.198 248.743 252.053 248.386 252.183 248.077Z" fill="#B9A9FD"/>
<path d="M250.504 248.037C250.842 248.18 251.232 248.022 251.374 247.684C251.517 247.346 251.359 246.957 251.021 246.814C250.683 246.671 250.294 246.83 250.151 247.167C250.008 247.505 250.167 247.895 250.504 248.037Z" fill="#B9A9FD"/>
<path d="M251.98 240.01C253.216 240.536 253.789 241.966 253.261 243.206L253.261 243.207L252.926 244.009C252.397 245.249 250.969 245.827 249.733 245.3C248.497 244.772 247.925 243.343 248.453 242.102L249.571 242.578C249.308 243.196 249.596 243.915 250.211 244.178C250.833 244.442 251.545 244.149 251.808 243.532L252.142 242.731C252.405 242.114 252.117 241.394 251.502 241.132C250.959 240.901 250.335 241.1 250.016 241.574L248.885 241.097C249.477 239.998 250.814 239.513 251.98 240.01Z" fill="#B9A9FD"/>
<path d="M257.286 242.251C258.522 242.777 259.094 244.206 258.566 245.447L258.566 245.448L258.232 246.25C257.703 247.49 256.275 248.068 255.038 247.541C253.802 247.013 253.23 245.583 253.759 244.342L254.877 244.819C254.614 245.437 254.902 246.156 255.517 246.418C256.138 246.683 256.851 246.39 257.113 245.773L257.447 244.972C257.71 244.355 257.423 243.635 256.807 243.373C256.265 243.142 255.641 243.341 255.321 243.815L254.191 243.338C254.782 242.239 256.119 241.754 257.286 242.251Z" fill="#B9A9FD"/>
<g filter="url(#filter7_f_2372_12732)">
<path d="M93.0704 235.638C90.4648 229.909 83.2522 227.28 80.9743 227.096L83.0117 226.653L84.7114 226.851C89.2943 227.883 97.3801 232.561 97.3393 239.353C97.2884 247.843 93.5133 249.264 91.0835 251.163C89.1397 252.682 85.7366 253.263 83.0117 252.951C88.3101 251.767 91.3789 248.641 92.251 247.227C93.6098 245.751 95.6759 241.367 93.0704 235.638Z" fill="#CFC6E8"/>
</g>
<g filter="url(#filter8_f_2372_12732)">
<path d="M238.647 239.136C241.253 233.406 248.465 230.778 250.743 230.594L248.706 230.151L247.006 230.349C242.423 231.381 234.337 236.059 234.378 242.851C234.429 251.341 238.204 252.762 240.634 254.661C242.578 256.18 245.981 256.761 248.706 256.449C243.407 255.264 240.338 252.139 239.466 250.725C238.108 249.249 236.041 244.865 238.647 239.136Z" fill="#CFC6E8"/>
</g>
<path d="M130.234 195.212C130.182 195.154 130.189 195.064 130.249 195.015L132.388 193.277C132.444 193.231 132.526 193.237 132.575 193.291C132.627 193.349 132.62 193.439 132.56 193.488L130.421 195.227C130.365 195.273 130.282 195.266 130.234 195.212Z" fill="white"/>
<path d="M129.811 195.522C129.763 195.464 129.771 195.378 129.83 195.33L129.943 195.238C130.001 195.191 130.087 195.199 130.134 195.257C130.182 195.315 130.174 195.402 130.115 195.45L130.002 195.541C129.944 195.589 129.858 195.58 129.811 195.522Z" fill="white"/>
<path d="M233.092 277.133C231.467 278.671 225.407 280.642 220.445 280.787" stroke="black" stroke-linecap="round"/>
<defs>
<filter id="filter0_f_2372_12732" x="149.13" y="197.686" width="12.3519" height="24.7037" filterUnits="userSpaceOnUse" color-interpolation-filters="sRGB">
<feFlood flood-opacity="0" result="BackgroundImageFix"/>
<feBlend mode="normal" in="SourceGraphic" in2="BackgroundImageFix" result="shape"/>
<feGaussianBlur stdDeviation="1" result="effect1_foregroundBlur_2372_12732"/>
</filter>
<filter id="filter1_f_2372_12732" x="172.622" y="197.686" width="12.3519" height="24.7037" filterUnits="userSpaceOnUse" color-interpolation-filters="sRGB">
<feFlood flood-opacity="0" result="BackgroundImageFix"/>
<feBlend mode="normal" in="SourceGraphic" in2="BackgroundImageFix" result="shape"/>
<feGaussianBlur stdDeviation="1" result="effect1_foregroundBlur_2372_12732"/>
</filter>
<filter id="filter2_f_2372_12732" x="167.81" y="314.323" width="85.2285" height="132.28" filterUnits="userSpaceOnUse" color-interpolation-filters="sRGB">
<feFlood flood-opacity="0" result="BackgroundImageFix"/>
<feBlend mode="normal" in="SourceGraphic" in2="BackgroundImageFix" result="shape"/>
<feGaussianBlur stdDeviation="2" result="effect1_foregroundBlur_2372_12732"/>
</filter>
<filter id="filter3_f_2372_12732" x="26.1365" y="288.883" width="85.7437" height="137.49" filterUnits="userSpaceOnUse" color-interpolation-filters="sRGB">
<feFlood flood-opacity="0" result="BackgroundImageFix"/>
<feBlend mode="normal" in="SourceGraphic" in2="BackgroundImageFix" result="shape"/>
<feGaussianBlur stdDeviation="2" result="effect1_foregroundBlur_2372_12732"/>
</filter>
<filter id="filter4_d_2372_12732" x="108" y="0" width="183" height="56" filterUnits="userSpaceOnUse" color-interpolation-filters="sRGB">
<feFlood flood-opacity="0" result="BackgroundImageFix"/>
<feColorMatrix in="SourceAlpha" type="matrix" values="0 0 0 0 0 0 0 0 0 0 0 0 0 0 0 0 0 0 127 0" result="hardAlpha"/>
<feOffset dx="-4" dy="4"/>
<feGaussianBlur stdDeviation="5"/>
<feComposite in2="hardAlpha" operator="out"/>
<feColorMatrix type="matrix" values="0 0 0 0 0 0 0 0 0 0 0 0 0 0 0 0 0 0 0.3 0"/>
<feBlend mode="normal" in2="BackgroundImageFix" result="effect1_dropShadow_2372_12732"/>
<feBlend mode="normal" in="SourceGraphic" in2="effect1_dropShadow_2372_12732" result="shape"/>
</filter>
<filter id="filter5_d_2372_12732" x="173.919" y="118.531" width="151" height="56" filterUnits="userSpaceOnUse" color-interpolation-filters="sRGB">
<feFlood flood-opacity="0" result="BackgroundImageFix"/>
<feColorMatrix in="SourceAlpha" type="matrix" values="0 0 0 0 0 0 0 0 0 0 0 0 0 0 0 0 0 0 127 0" result="hardAlpha"/>
<feOffset dx="-4" dy="4"/>
<feGaussianBlur stdDeviation="5"/>
<feComposite in2="hardAlpha" operator="out"/>
<feColorMatrix type="matrix" values="0 0 0 0 0 0 0 0 0 0 0 0 0 0 0 0 0 0 0.2 0"/>
<feBlend mode="normal" in2="BackgroundImageFix" result="effect1_dropShadow_2372_12732"/>
<feBlend mode="normal" in="SourceGraphic" in2="effect1_dropShadow_2372_12732" result="shape"/>
</filter>
<filter id="filter6_d_2372_12732" x="0.343994" y="59" width="165" height="58" filterUnits="userSpaceOnUse" color-interpolation-filters="sRGB">
<feFlood flood-opacity="0" result="BackgroundImageFix"/>
<feColorMatrix in="SourceAlpha" type="matrix" values="0 0 0 0 0 0 0 0 0 0 0 0 0 0 0 0 0 0 127 0" result="hardAlpha"/>
<feOffset dy="4"/>
<feGaussianBlur stdDeviation="4"/>
<feComposite in2="hardAlpha" operator="out"/>
<feColorMatrix type="matrix" values="0 0 0 0 0 0 0 0 0 0 0 0 0 0 0 0 0 0 0.25 0"/>
<feBlend mode="normal" in2="BackgroundImageFix" result="effect1_dropShadow_2372_12732"/>
<feBlend mode="normal" in="SourceGraphic" in2="effect1_dropShadow_2372_12732" result="shape"/>
</filter>
<filter id="filter7_f_2372_12732" x="76.9743" y="222.653" width="24.3652" height="34.3798" filterUnits="userSpaceOnUse" color-interpolation-filters="sRGB">
<feFlood flood-opacity="0" result="BackgroundImageFix"/>
<feBlend mode="normal" in="SourceGraphic" in2="BackgroundImageFix" result="shape"/>
<feGaussianBlur stdDeviation="2" result="effect1_foregroundBlur_2372_12732"/>
</filter>
<filter id="filter8_f_2372_12732" x="230.378" y="226.151" width="24.3652" height="34.3798" filterUnits="userSpaceOnUse" color-interpolation-filters="sRGB">
<feFlood flood-opacity="0" result="BackgroundImageFix"/>
<feBlend mode="normal" in="SourceGraphic" in2="BackgroundImageFix" result="shape"/>
<feGaussianBlur stdDeviation="2" result="effect1_foregroundBlur_2372_12732"/>
</filter>
<linearGradient id="paint0_linear_2372_12732" x1="172.039" y1="243.615" x2="177.35" y2="306.609" gradientUnits="userSpaceOnUse">
<stop stop-color="#6D34E5" stop-opacity="0"/>
<stop offset="1" stop-color="#381C74"/>
</linearGradient>
<linearGradient id="paint1_linear_2372_12732" x1="291.745" y1="305.443" x2="225.806" y2="334.211" gradientUnits="userSpaceOnUse">
<stop stop-color="#7749DB"/>
<stop offset="1" stop-color="#9273D4" stop-opacity="0"/>
</linearGradient>
<linearGradient id="paint2_linear_2372_12732" x1="100.067" y1="252.49" x2="99.4295" y2="264.152" gradientUnits="userSpaceOnUse">
<stop/>
<stop offset="1" stop-color="#423E52" stop-opacity="0"/>
</linearGradient>
<linearGradient id="paint3_linear_2372_12732" x1="119.926" y1="200.557" x2="128.823" y2="221.245" gradientUnits="userSpaceOnUse">
<stop/>
<stop offset="1" stop-color="#272727" stop-opacity="0"/>
</linearGradient>
<linearGradient id="paint4_linear_2372_12732" x1="226.527" y1="241.276" x2="220.784" y2="270.082" gradientUnits="userSpaceOnUse">
<stop/>
<stop offset="1" stop-opacity="0"/>
</linearGradient>
<linearGradient id="paint5_linear_2372_12732" x1="234.603" y1="184.771" x2="221.536" y2="215.882" gradientUnits="userSpaceOnUse">
<stop/>
<stop offset="1" stop-color="#272727" stop-opacity="0"/>
</linearGradient>
<linearGradient id="paint6_linear_2372_12732" x1="91.5587" y1="184.089" x2="103.114" y2="197.392" gradientUnits="userSpaceOnUse">
<stop stop-color="#6053AF" stop-opacity="0.3"/>
<stop offset="1" stop-color="#F1F0FF" stop-opacity="0"/>
</linearGradient>
<linearGradient id="paint7_linear_2372_12732" x1="136.766" y1="176.524" x2="124.546" y2="199.249" gradientUnits="userSpaceOnUse">
<stop stop-color="#6F6295"/>
<stop offset="1" stop-color="#9790AA" stop-opacity="0"/>
</linearGradient>
<linearGradient id="paint8_linear_2372_12732" x1="77.0249" y1="218.467" x2="78.343" y2="224.953" gradientUnits="userSpaceOnUse">
<stop stop-color="#887DA6" stop-opacity="0"/>
<stop offset="1" stop-color="#887DA6"/>
</linearGradient>
<radialGradient id="paint9_radial_2372_12732" cx="0" cy="0" r="1" gradientUnits="userSpaceOnUse" gradientTransform="translate(80.7171 241.946) rotate(86.2422) scale(13.2982)">
<stop offset="0.543009" stop-color="#5F5971"/>
<stop offset="1" stop-color="#9790AA" stop-opacity="0"/>
</radialGradient>
<linearGradient id="paint10_linear_2372_12732" x1="195.808" y1="179.233" x2="208.028" y2="201.958" gradientUnits="userSpaceOnUse">
<stop stop-color="#6F6295"/>
<stop offset="1" stop-color="#9790AA" stop-opacity="0"/>
</linearGradient>
<linearGradient id="paint11_linear_2372_12732" x1="255.549" y1="221.177" x2="254.231" y2="227.662" gradientUnits="userSpaceOnUse">
<stop stop-color="#887DA6" stop-opacity="0"/>
<stop offset="1" stop-color="#887DA6"/>
</linearGradient>
<radialGradient id="paint12_radial_2372_12732" cx="0" cy="0" r="1" gradientUnits="userSpaceOnUse" gradientTransform="translate(251.857 244.656) rotate(93.7578) scale(13.2982)">
<stop offset="0.543009" stop-color="#5F5971"/>
<stop offset="1" stop-color="#9790AA" stop-opacity="0"/>
</radialGradient>
<linearGradient id="paint13_linear_2372_12732" x1="226.896" y1="424.771" x2="190.191" y2="409.911" gradientUnits="userSpaceOnUse">
<stop stop-color="#7655BC"/>
<stop offset="1" stop-color="#9576D8" stop-opacity="0"/>
</linearGradient>
<linearGradient id="paint14_linear_2372_12732" x1="24" y1="327.114" x2="75.2911" y2="335.946" gradientUnits="userSpaceOnUse">
<stop stop-color="#422187"/>
<stop offset="1" stop-color="#6D34E5"/>
</linearGradient>
<linearGradient id="paint15_linear_2372_12732" x1="135.24" y1="368.091" x2="139.496" y2="416.279" gradientUnits="userSpaceOnUse">
<stop stop-color="#ADA3CC"/>
<stop offset="1" stop-color="#C2BECF" stop-opacity="0"/>
</linearGradient>
<linearGradient id="paint16_linear_2372_12732" x1="158.337" y1="364.828" x2="166.254" y2="423.901" gradientUnits="userSpaceOnUse">
<stop stop-color="#806FBB"/>
<stop offset="1" stop-color="#806FBB" stop-opacity="0"/>
</linearGradient>
<linearGradient id="paint17_linear_2372_12732" x1="135.971" y1="362.691" x2="135.971" y2="368.331" gradientUnits="userSpaceOnUse">
<stop stop-color="#CAC3E1" stop-opacity="0"/>
<stop offset="1" stop-color="#B1A6D6"/>
</linearGradient>
</defs>
</svg>
