<svg width="351" height="265" viewBox="0 0 351 265" fill="none" xmlns="http://www.w3.org/2000/svg">
<rect x="0.486328" y="0.992188" width="350" height="264" fill="#B8693D"/>
<circle cx="207.14" cy="112.164" r="8.93115" fill="#F8CCA4"/>
<circle cx="248.017" cy="86.9878" r="7.55029" fill="#F8CCA4"/>
<circle cx="216.072" cy="97.6543" r="10.666" fill="#F8CCA4"/>
<circle cx="231.977" cy="89.252" r="10.666" fill="#F8CCA4"/>
<circle cx="262.957" cy="80.1758" r="10.666" fill="#F8CCA4"/>
<circle cx="231.252" cy="113.885" r="17.6211" fill="#F8CCA4"/>
<circle cx="258.216" cy="99.9175" r="15.5737" fill="#F8CCA4"/>
<circle cx="258.216" cy="112.164" r="15.5737" fill="#F8CCA4"/>
<circle cx="282.167" cy="90.8413" r="15.5737" fill="#F8CCA4"/>
<circle cx="240.467" cy="99.918" r="10.666" fill="#F8CCA4"/>
<circle cx="279.089" cy="117.462" r="15.9639" fill="#F8CCA4"/>
<circle cx="294.502" cy="110.518" r="12.334" fill="#F8CCA4"/>
<path d="M196.838 117.882C196.659 116.601 197.724 115.489 199.011 115.614L224.489 118.084L252.486 119.154L280.461 118.18L305.954 115.623C307.243 115.494 308.313 116.607 308.134 117.89L296.486 201.189H274.486H252.486H230.486H208.486L196.838 117.882Z" fill="#FCD2D2"/>
<path d="M196.838 117.792L208.486 201.189H230.486L224.486 118.08L199.019 115.526C197.729 115.396 196.659 116.509 196.838 117.792Z" fill="#5848BD"/>
<path d="M252.486 201.189V119.152L280.486 118.08L274.486 201.189H252.486Z" fill="#5848BD"/>
<circle cx="227.044" cy="105.794" r="5.94224" fill="#EBAC72"/>
<ellipse cx="231.715" cy="100.425" rx="2.47334" ry="3.05254" transform="rotate(44.1409 231.715 100.425)" fill="#EBAC72"/>
<ellipse cx="223.143" cy="109.972" rx="2.47334" ry="3.05254" transform="rotate(44.1409 223.143 109.972)" fill="#EBAC72"/>
<ellipse cx="235.381" cy="105.229" rx="4.51416" ry="4.50977" transform="rotate(-73.9456 235.381 105.229)" fill="#EBAC72"/>
<circle cx="262.419" cy="93.741" r="4.46952" fill="#EBAC72"/>
<circle cx="256.74" cy="100.486" r="5.98819" fill="#EBAC72"/>
<circle cx="257.442" cy="90.3523" r="5.62774" fill="#EBAC72"/>
<circle cx="249.02" cy="103.888" r="3.91683" fill="#EBAC72"/>
<circle cx="251.11" cy="95.0671" r="6.83854" fill="#EBAC72"/>
</svg>
