<svg width="351" height="234" viewBox="0 0 351 234" fill="none" xmlns="http://www.w3.org/2000/svg">
<rect x="0.458984" y="0.285156" width="350" height="233" fill="#6881D8"/>
<path d="M203.971 173.474C203.869 173.56 203.753 173.634 203.644 173.701C202.515 174.383 200.982 174.315 199.935 173.481L200.886 174.238C201.947 175.084 203.522 175.138 204.655 174.412C204.703 174.378 204.751 174.345 204.805 174.305C204.838 174.272 204.879 174.245 204.92 174.218" fill="#6881D8"/>
<path d="M249.429 169.766C252.445 166.818 254.592 163.44 255.886 159.87C258.261 153.332 263.82 147.12 270.055 143.051C271.461 142.138 272.774 141.091 273.98 139.912C284.017 130.097 282.894 114.769 271.469 105.668C264.617 100.21 255.61 98.2428 247.337 99.654C254.34 99.2875 261.501 101.295 267.128 105.777C278.248 114.636 279.126 129.768 269.089 139.583C267.883 140.762 266.564 141.815 265.18 142.734C258.974 146.826 253.4 153.027 250.966 159.517C249.635 163.058 247.473 166.424 244.457 169.372C238.481 175.216 217.968 176.424 209.704 176.642C208.457 176.136 215.807 179.565 223.705 180.471C232.343 181.455 243.226 175.845 249.437 169.772L249.429 169.766Z" fill="#782B2B"/>
<path d="M249.429 169.766C252.445 166.818 254.592 163.44 255.886 159.87C258.261 153.332 263.82 147.12 270.055 143.051C271.461 142.138 272.774 141.091 273.98 139.912C284.017 130.097 282.894 114.769 271.469 105.668C264.617 100.21 255.61 98.2428 247.337 99.654C254.34 99.2875 261.501 101.295 267.128 105.777C278.248 114.636 279.126 129.768 269.089 139.583C267.883 140.762 266.564 141.815 265.18 142.734C258.974 146.826 253.4 153.027 250.966 159.517C249.635 163.058 247.473 166.424 244.457 169.372C238.481 175.216 217.968 176.424 209.704 176.642C208.457 176.136 215.807 179.565 223.705 180.471C232.343 181.455 243.226 175.845 249.437 169.772L249.429 169.766Z" fill="#6881D8"/>
<path d="M299.116 84.9975L296.146 82.6322C295.738 82.3069 295.706 81.746 296.074 81.3856C296.443 81.0253 297.078 80.9966 297.486 81.3218L300.456 83.6872C300.864 84.0124 300.897 84.5734 300.528 84.9337C300.16 85.2941 299.524 85.3228 299.116 84.9975Z" fill="#6881D8"/>
<path d="M295.674 88.3608L292.705 85.9954C292.297 85.6702 292.264 85.1093 292.633 84.7489C293.001 84.3886 293.637 84.3599 294.045 84.6851L297.014 87.0505C297.423 87.3757 297.455 87.9367 297.087 88.297C296.718 88.6573 296.083 88.6861 295.674 88.3608Z" fill="#6881D8"/>
<path d="M298.987 85.1225L296.018 82.7572C295.609 82.4319 295.577 81.871 295.945 81.5106C296.314 81.1503 296.949 81.1216 297.358 81.4468L300.327 83.8122C300.735 84.1374 300.768 84.6984 300.399 85.0587C300.031 85.4191 299.395 85.4478 298.987 85.1225Z" fill="#6881D8"/>
<path d="M295.547 88.4858L292.578 86.1204C292.17 85.7952 292.137 85.2343 292.506 84.8739C292.874 84.5136 293.51 84.4849 293.918 84.8101L296.887 87.1755C297.296 87.5007 297.328 88.0617 296.96 88.422C296.591 88.7823 295.956 88.8111 295.547 88.4858Z" fill="#6881D8"/>
<path d="M299.187 86.2409C300.007 86.8941 301.272 86.8369 302.012 86.1132C302.752 85.3895 302.687 84.2734 301.867 83.6202C301.048 82.967 299.783 83.0242 299.043 83.7478C298.303 84.4715 298.367 85.5877 299.187 86.2409Z" fill="#6881D8"/>
<path d="M295.748 89.6081C296.568 90.2612 297.833 90.2041 298.573 89.4804C299.313 88.7567 299.248 87.6406 298.428 86.9874C297.608 86.3342 296.343 86.3913 295.603 87.115C294.863 87.8387 294.928 88.9549 295.748 89.6081Z" fill="#6881D8"/>
<path d="M301.531 83.6751C302.348 84.3256 302.413 85.4474 301.676 86.1681C301.408 86.4302 301.071 86.6016 300.715 86.6865C301.201 86.6458 301.664 86.4561 302.013 86.1154C302.75 85.3947 302.685 84.2728 301.868 83.6224C301.341 83.2025 300.633 83.0783 300.005 83.2317C300.547 83.1884 301.101 83.3321 301.531 83.6751Z" fill="#6881D8"/>
<path d="M298.092 87.0384C298.909 87.6888 298.974 88.8107 298.237 89.5314C297.969 89.7935 297.632 89.9649 297.275 90.0498C297.762 90.009 298.225 89.8194 298.573 89.4787C299.31 88.758 299.245 87.6361 298.429 86.9856C297.902 86.5658 297.194 86.4416 296.565 86.5949C297.108 86.5517 297.661 86.6954 298.092 87.0384Z" fill="#6881D8"/>
<path d="M299.189 86.2437C299.619 86.5867 300.173 86.7304 300.715 86.6871C301.072 86.6023 301.409 86.4308 301.677 86.1687C302.414 85.448 302.348 84.3262 301.532 83.6757C301.101 83.3327 300.548 83.189 300.005 83.2323C299.649 83.3171 299.312 83.4886 299.044 83.7506C298.307 84.4713 298.372 85.5932 299.189 86.2437Z" fill="#6881D8"/>
<path d="M295.747 89.607C296.178 89.9499 296.731 90.0936 297.274 90.0504C297.63 89.9655 297.967 89.7941 298.235 89.532C298.972 88.8113 298.907 87.6895 298.091 87.039C297.66 86.696 297.106 86.5523 296.564 86.5956C296.208 86.6804 295.871 86.8518 295.603 87.1139C294.866 87.8346 294.931 88.9565 295.747 89.607Z" fill="#6881D8"/>
<path d="M284.981 77.5333L287.951 79.8987C288.359 80.2239 288.995 80.1952 289.363 79.8349C289.732 79.4745 289.699 78.9136 289.291 78.5883L286.322 76.223C285.913 75.8977 285.278 75.9264 284.909 76.2868C284.541 76.6471 284.573 77.2081 284.981 77.5333Z" fill="#6881D8"/>
<path d="M281.54 80.8966L284.509 83.262C284.918 83.5872 285.553 83.5585 285.922 83.1981C286.29 82.8378 286.258 82.2769 285.849 81.9516L282.88 79.5862C282.472 79.261 281.836 79.2897 281.468 79.6501C281.099 80.0104 281.132 80.5713 281.54 80.8966Z" fill="#6881D8"/>
<path d="M284.853 77.6544L287.822 80.0198C288.23 80.345 288.866 80.3163 289.234 79.956C289.603 79.5956 289.57 79.0347 289.162 78.7094L286.193 76.3441C285.784 76.0188 285.149 76.0475 284.78 76.4079C284.412 76.7682 284.444 77.3292 284.853 77.6544Z" fill="#6881D8"/>
<path d="M281.413 81.0216L284.382 83.387C284.791 83.7122 285.426 83.6835 285.795 83.3231C286.163 82.9628 286.131 82.4019 285.723 82.0766L282.753 79.7112C282.345 79.386 281.709 79.4147 281.341 79.7751C280.972 80.1354 281.005 80.6963 281.413 81.0216Z" fill="#6881D8"/>
<path d="M283.57 77.5981C282.75 76.945 282.685 75.8288 283.425 75.1051C284.165 74.3814 285.43 74.3243 286.25 74.9775C287.07 75.6306 287.134 76.7468 286.394 77.4705C285.654 78.1942 284.39 78.2513 283.57 77.5981Z" fill="#6881D8"/>
<path d="M280.128 80.9614C279.308 80.3082 279.243 79.1921 279.984 78.4684C280.724 77.7447 281.988 77.6876 282.808 78.3407C283.628 78.9939 283.693 80.1101 282.953 80.8338C282.213 81.5575 280.948 81.6146 280.128 80.9614Z" fill="#6881D8"/>
<path d="M286.224 75.2764C285.407 74.6259 284.136 74.6833 283.399 75.404C283.131 75.6661 282.972 75.9795 282.913 76.3008C282.909 75.8698 283.076 75.4436 283.424 75.1029C284.161 74.3823 285.432 74.3248 286.249 74.9753C286.776 75.3951 286.988 76.0042 286.88 76.5715C286.873 76.0906 286.655 75.6193 286.224 75.2764Z" fill="#6881D8"/>
<path d="M282.783 78.6396C281.966 77.9892 280.695 78.0466 279.958 78.7673C279.69 79.0294 279.531 79.3427 279.472 79.6641C279.468 79.2331 279.634 78.8069 279.983 78.4662C280.72 77.7455 281.991 77.6881 282.808 78.3386C283.335 78.7584 283.547 79.3675 283.438 79.9348C283.432 79.4539 283.213 78.9826 282.783 78.6396Z" fill="#6881D8"/>
<path d="M283.569 77.597C283.138 77.2541 282.92 76.7828 282.913 76.3019C282.972 75.9805 283.131 75.6671 283.399 75.4051C284.136 74.6844 285.407 74.6269 286.224 75.2774C286.655 75.6204 286.873 76.0917 286.88 76.5726C286.82 76.8939 286.662 77.2073 286.394 77.4694C285.657 78.1901 284.385 78.2475 283.569 77.597Z" fill="#6881D8"/>
<path d="M280.129 80.9603C279.699 80.6173 279.48 80.146 279.474 79.6652C279.533 79.3438 279.692 79.0304 279.96 78.7684C280.697 78.0477 281.968 77.9902 282.784 78.6407C283.215 78.9837 283.434 79.455 283.44 79.9358C283.381 80.2572 283.222 80.5706 282.954 80.8327C282.217 81.5534 280.946 81.6108 280.129 80.9603Z" fill="#6881D8"/>
<path fill-rule="evenodd" clip-rule="evenodd" d="M225.675 111.262C221.697 117.128 215.277 122.655 208.21 125.455C204.355 126.985 200.782 129.227 197.774 132.169C186.142 143.543 187.16 161.094 200.047 171.36C212.934 181.625 232.821 180.727 244.452 169.353C247.467 166.405 249.637 163.045 250.961 159.498C253.395 153.008 258.969 146.807 265.174 142.715C266.573 141.795 267.878 140.743 269.084 139.563C279.121 129.749 278.243 114.616 267.123 105.758C256.003 96.8995 238.856 97.6744 228.819 107.489C227.613 108.668 226.561 109.934 225.667 111.243L225.675 111.262Z" fill="#DEA1A1"/>
<path fill-rule="evenodd" clip-rule="evenodd" d="M225.675 111.262C221.697 117.128 215.277 122.655 208.21 125.455C204.355 126.985 200.782 129.227 197.774 132.169C186.142 143.543 187.16 161.094 200.047 171.36C212.934 181.625 232.821 180.727 244.452 169.353C247.467 166.405 249.637 163.045 250.961 159.498C253.395 153.008 258.969 146.807 265.174 142.715C266.573 141.795 267.878 140.743 269.084 139.563C279.121 129.749 278.243 114.616 267.123 105.758C256.003 96.8995 238.856 97.6744 228.819 107.489C227.613 108.668 226.561 109.934 225.667 111.243L225.675 111.262Z" fill="#6881D8"/>
<path d="M250.19 133.268C249.462 134.032 248.157 134.11 247.318 133.442L239.612 127.303C238.774 126.635 238.728 125.481 239.515 124.765L294.628 74.7197L300.96 79.7639L250.182 133.262L250.19 133.268Z" fill="#6881D8"/>
<path d="M249.365 132.616C248.638 133.38 247.333 133.458 246.494 132.789L238.788 126.651C237.949 125.983 237.904 124.829 238.69 124.112L293.803 74.0673L300.136 79.1115L249.358 132.61L249.365 132.616Z" fill="#6881D8"/>
<path d="M224.361 158.581C225.234 157.873 225.227 156.667 224.351 155.969L216.832 149.979C215.956 149.281 214.589 149.405 213.887 150.237L198.217 168.892C197.297 169.99 197.47 171.519 198.621 172.436L200.907 174.257C202.058 175.174 203.8 175.17 204.943 174.25L224.369 158.587L224.361 158.581Z" fill="#6881D8"/>
<path d="M203.985 173.487L223.411 157.824C224.277 157.122 224.277 155.91 223.401 155.212L216.832 149.979C215.956 149.281 214.589 149.405 213.887 150.237L198.217 168.892C197.297 169.99 197.47 171.519 198.621 172.436L199.957 173.5C201.108 174.417 202.849 174.413 203.993 173.493L203.985 173.487Z" fill="#6881D8"/>
<path d="M298.559 76.7305L220.254 154.669" stroke="#6881D8" stroke-linecap="round"/>
<path d="M297.088 75.5601L217.27 152.292" stroke="#6881D8" stroke-linecap="round"/>
<path d="M299.873 77.7773L222.666 156.566" stroke="#6881D8" stroke-linecap="round"/>
<path d="M295.337 74.1716L214.694 150.235" stroke="#6881D8" stroke-linecap="round"/>
<path d="M304.616 77.8319C307.782 76.145 307.899 72.1128 304.873 69.7021C301.846 67.2913 297.307 67.8126 295.736 70.7577L293.911 74.1553L300.965 79.7739L304.608 77.8253L304.616 77.8319Z" fill="#6881D8"/>
<path d="M230.427 149.632L221.445 142.476C220.947 142.08 220.901 141.401 221.356 140.956C221.805 140.517 222.575 140.476 223.079 140.878L232.062 148.033C232.559 148.429 232.606 149.108 232.15 149.554C231.701 149.993 230.932 150.034 230.427 149.632Z" fill="#6881D8"/>
<path d="M232.056 148.04L231.662 147.727C232.159 148.123 232.206 148.802 231.75 149.247C231.295 149.693 230.532 149.727 230.027 149.325L230.421 149.639C230.918 150.035 231.688 150.006 232.144 149.561C232.599 149.115 232.56 148.442 232.056 148.04Z" fill="#6881D8"/>
<path d="M221.447 142.474L230.035 149.316C230.511 149.694 231.21 149.669 231.677 149.292C232.055 148.856 232.011 148.227 231.536 147.848L222.947 141.006C222.472 140.628 221.773 140.653 221.306 141.031C220.928 141.466 220.971 142.096 221.447 142.474Z" fill="#6881D8"/>
<path d="M229.532 127.849C230.242 128.414 231.336 128.364 231.976 127.738C232.616 127.112 232.56 126.147 231.851 125.582C231.141 125.017 230.047 125.066 229.407 125.692C228.767 126.318 228.823 127.284 229.532 127.849Z" fill="#6881D8"/>
<path d="M207.103 139.474C207.812 140.039 208.906 139.989 209.546 139.363C210.186 138.737 210.13 137.772 209.421 137.207C208.712 136.642 207.618 136.691 206.978 137.317C206.337 137.943 206.393 138.909 207.103 139.474Z" fill="#6881D8"/>
<path d="M231.307 127.077C231.644 126.775 232.076 125.812 230.891 124.915C229.417 123.788 224.559 124.377 219.472 131.762C214.392 139.152 211.04 141.904 208.578 140.478C207.049 139.391 207.494 138.639 207.587 138.035" stroke="#6881D8" stroke-width="2"/>
<path d="M246.087 141.04C246.796 141.605 247.89 141.555 248.53 140.93C249.171 140.304 249.115 139.338 248.405 138.773C247.696 138.208 246.602 138.257 245.962 138.883C245.322 139.509 245.378 140.475 246.087 141.04Z" fill="#6881D8"/>
<path d="M235.282 161.919C235.992 162.484 237.086 162.434 237.726 161.808C238.366 161.182 238.31 160.217 237.601 159.652C236.891 159.087 235.797 159.136 235.157 159.762C234.517 160.388 234.573 161.354 235.282 161.919Z" fill="#6881D8"/>
<path d="M246.784 139.409C247.091 139.082 248.133 138.604 249.264 139.553C250.685 140.732 250.518 145.058 242.714 150.278C234.902 155.493 232.144 158.717 234.002 160.733C235.384 161.964 236.185 161.496 236.856 161.353" stroke="#6881D8" stroke-width="2"/>
<path d="M221.461 142.486L230.184 149.197C230.659 149.575 231.359 149.55 231.825 149.173C231.805 149.192 231.8 149.224 231.773 149.25C231.324 149.689 230.555 149.73 230.05 149.328L221.461 142.486Z" fill="#6881D8"/>
<path d="M223.313 181.616C223.223 181.702 223.12 181.776 223.022 181.844C222.018 182.529 220.648 182.453 219.709 181.606L220.561 182.375C221.514 183.235 222.92 183.296 223.929 182.567C223.971 182.533 224.014 182.5 224.062 182.459C224.092 182.426 224.128 182.399 224.164 182.372" fill="#AD6060"/>
<path d="M263.891 178.061C266.57 175.093 268.471 171.688 269.61 168.084C271.699 161.486 276.633 155.229 282.182 151.143C283.433 150.226 284.6 149.173 285.671 147.987C294.587 138.108 293.511 122.609 283.264 113.361C277.119 107.814 269.066 105.787 261.684 107.178C267.936 106.837 274.341 108.897 279.388 113.452C289.361 122.454 290.219 137.755 281.303 147.633C280.231 148.82 279.058 149.879 277.826 150.802C272.304 154.912 267.357 161.157 265.214 167.707C264.043 171.281 262.128 174.674 259.449 177.641C254.14 183.523 235.828 184.657 228.448 184.842C227.332 184.325 233.913 187.823 240.97 188.772C248.689 189.804 258.381 184.18 263.898 178.067L263.891 178.061Z" fill="#A44B25"/>
<path d="M263.891 178.061C266.57 175.093 268.471 171.688 269.61 168.084C271.699 161.486 276.633 155.229 282.182 151.143C283.433 150.226 284.6 149.173 285.671 147.987C294.587 138.108 293.511 122.609 283.264 113.361C277.119 107.814 269.066 105.787 261.684 107.178C267.936 106.837 274.341 108.897 279.388 113.452C289.361 122.454 290.219 137.755 281.303 147.633C280.231 148.82 279.058 149.879 277.826 150.802C272.304 154.912 267.357 161.157 265.214 167.707C264.043 171.281 262.128 174.674 259.449 177.641C254.14 183.523 235.828 184.657 228.448 184.842C227.332 184.325 233.913 187.823 240.97 188.772C248.689 189.804 258.381 184.18 263.898 178.067L263.891 178.061Z" fill="url(#paint0_linear_569_27131)"/>
<path d="M307.853 92.5853L305.19 90.1815C304.824 89.851 304.792 89.2838 305.12 88.9212C305.447 88.5585 306.014 88.5321 306.381 88.8627L309.044 91.2664C309.41 91.5969 309.442 92.1641 309.114 92.5268C308.787 92.8895 308.22 92.9158 307.853 92.5853Z" fill="#A34B25"/>
<path d="M304.797 95.972L302.134 93.5682C301.767 93.2377 301.736 92.6706 302.063 92.3079C302.39 91.9452 302.958 91.9189 303.324 92.2494L305.987 94.6531C306.353 94.9836 306.385 95.5508 306.058 95.9135C305.73 96.2762 305.163 96.3025 304.797 95.972Z" fill="#A34B25"/>
<path d="M307.74 92.7142L305.077 90.3104C304.711 89.9799 304.679 89.4127 305.006 89.0501C305.334 88.6874 305.901 88.661 306.267 88.9916L308.931 91.3953C309.297 91.7258 309.329 92.293 309.001 92.6557C308.674 93.0184 308.106 93.0447 307.74 92.7142Z" fill="#DEB7A1"/>
<path d="M304.684 96.097L302.02 93.6932C301.654 93.3627 301.622 92.7956 301.95 92.4329C302.277 92.0702 302.845 92.0439 303.211 92.3744L305.874 94.7781C306.24 95.1086 306.272 95.6758 305.945 96.0385C305.617 96.4012 305.05 96.4275 304.684 96.097Z" fill="#DEB7A1"/>
<path d="M307.923 93.8435C308.659 94.5073 309.788 94.4549 310.445 93.7265C311.103 92.9981 311.04 91.8696 310.304 91.2058C309.569 90.542 308.44 90.5944 307.782 91.3228C307.125 92.0512 307.188 93.1797 307.923 93.8435Z" fill="#A34B25"/>
<path d="M304.869 97.2302C305.604 97.894 306.733 97.8416 307.391 97.1132C308.048 96.3848 307.985 95.2563 307.25 94.5925C306.514 93.9287 305.385 93.9811 304.728 94.7095C304.07 95.4379 304.133 96.5665 304.869 97.2302Z" fill="#A34B25"/>
<path d="M310.006 91.2606C310.738 91.9217 310.801 93.056 310.147 93.7814C309.909 94.0452 309.609 94.217 309.291 94.3013C309.725 94.2622 310.138 94.0724 310.447 93.7295C311.102 93.0042 311.038 91.8698 310.306 91.2088C309.833 90.7821 309.2 90.6535 308.64 90.8059C309.124 90.7645 309.619 90.9121 310.006 91.2606Z" fill="#5C1F05"/>
<path d="M306.951 94.6474C307.683 95.3084 307.747 96.4427 307.092 97.1681C306.854 97.4319 306.554 97.6038 306.236 97.688C306.67 97.6489 307.083 97.4592 307.393 97.1162C308.047 96.3909 307.984 95.2565 307.251 94.5955C306.779 94.1688 306.146 94.0403 305.585 94.1926C306.07 94.1512 306.565 94.2988 306.951 94.6474Z" fill="#5C1F05"/>
<path d="M307.924 93.8452C308.31 94.1937 308.805 94.3413 309.29 94.2999C309.607 94.2157 309.907 94.0438 310.145 93.78C310.8 93.0546 310.737 91.9203 310.004 91.2593C309.618 90.9107 309.123 90.7631 308.639 90.8045C308.321 90.8888 308.021 91.0606 307.783 91.3244C307.128 92.0498 307.192 93.1841 307.924 93.8452Z" fill="#A34B25"/>
<path d="M304.867 97.228C305.254 97.5765 305.749 97.7241 306.233 97.6827C306.551 97.5985 306.851 97.4266 307.089 97.1628C307.744 96.4374 307.68 95.3031 306.948 94.6421C306.561 94.2935 306.066 94.1459 305.582 94.1873C305.264 94.2716 304.964 94.4435 304.726 94.7072C304.071 95.4326 304.135 96.5669 304.867 97.228Z" fill="#A34B25"/>
<path d="M295.194 84.9743L297.857 87.3781C298.223 87.7086 298.79 87.6823 299.118 87.3196C299.445 86.9569 299.413 86.3897 299.047 86.0592L296.384 83.6555C296.018 83.325 295.45 83.3513 295.123 83.714C294.796 84.0767 294.827 84.6438 295.194 84.9743Z" fill="#A34B25"/>
<path d="M292.137 88.3611L294.8 90.7648C295.166 91.0953 295.734 91.069 296.061 90.7063C296.388 90.3436 296.357 89.7765 295.99 89.4459L293.327 87.0422C292.961 86.7117 292.394 86.738 292.066 87.1007C291.739 87.4634 291.771 88.0305 292.137 88.3611Z" fill="#A34B25"/>
<path d="M295.078 85.0993L297.741 87.5031C298.108 87.8336 298.675 87.8073 299.002 87.4446C299.33 87.0819 299.298 86.5147 298.932 86.1842L296.269 83.7805C295.902 83.45 295.335 83.4763 295.008 83.839C294.68 84.2017 294.712 84.7688 295.078 85.0993Z" fill="#DEB7A1"/>
<path d="M292.024 88.4861L294.687 90.8898C295.053 91.2203 295.62 91.194 295.948 90.8313C296.275 90.4686 296.243 89.9015 295.877 89.5709L293.214 87.1672C292.848 86.8367 292.28 86.863 291.953 87.2257C291.626 87.5884 291.657 88.1555 292.024 88.4861Z" fill="#DEB7A1"/>
<path d="M293.934 85.0335C293.199 84.3697 293.135 83.2412 293.793 82.5128C294.45 81.7844 295.579 81.732 296.315 82.3958C297.05 83.0596 297.114 84.1881 296.456 84.9165C295.799 85.6449 294.67 85.6973 293.934 85.0335Z" fill="#A34B25"/>
<path d="M290.877 88.4202C290.142 87.7565 290.079 86.6279 290.736 85.8995C291.394 85.1711 292.523 85.1187 293.258 85.7825C293.994 86.4463 294.057 87.5749 293.399 88.3032C292.742 89.0316 291.613 89.084 290.877 88.4202Z" fill="#A34B25"/>
<path d="M296.292 82.697C295.56 82.036 294.425 82.0886 293.77 82.814C293.532 83.0778 293.392 83.3939 293.34 83.7185C293.335 83.2828 293.482 82.8527 293.791 82.5098C294.446 81.7844 295.581 81.7317 296.313 82.3928C296.786 82.8194 296.978 83.436 296.884 84.009C296.876 83.5229 296.678 83.0456 296.292 82.697Z" fill="#5C1F05"/>
<path d="M293.236 86.0837C292.503 85.4227 291.368 85.4754 290.714 86.2007C290.476 86.4645 290.335 86.7806 290.284 87.1052C290.278 86.6695 290.425 86.2394 290.734 85.8965C291.389 85.1711 292.524 85.1185 293.256 85.7795C293.729 86.2062 293.922 86.8227 293.827 87.3957C293.819 86.9096 293.622 86.4323 293.236 86.0837Z" fill="#5C1F05"/>
<path d="M293.933 85.0313C293.547 84.6827 293.349 84.2054 293.341 83.7192C293.392 83.3946 293.533 83.0785 293.771 82.8148C294.425 82.0894 295.56 82.0367 296.293 82.6978C296.679 83.0463 296.876 83.5237 296.884 84.0098C296.833 84.3344 296.693 84.6505 296.455 84.9143C295.8 85.6396 294.665 85.6923 293.933 85.0313Z" fill="#A34B25"/>
<path d="M290.878 88.418C290.492 88.0694 290.294 87.5921 290.286 87.106C290.338 86.7814 290.478 86.4652 290.716 86.2015C291.371 85.4761 292.506 85.4235 293.238 86.0845C293.624 86.433 293.821 86.9104 293.83 87.3965C293.778 87.7211 293.638 88.0372 293.4 88.301C292.745 89.0264 291.61 89.079 290.878 88.418Z" fill="#A34B25"/>
<path fill-rule="evenodd" clip-rule="evenodd" d="M242.395 118.821C238.87 124.734 233.164 130.294 226.867 133.094C223.432 134.624 220.252 136.876 217.579 139.837C207.247 151.285 208.241 169.031 219.799 179.463C231.357 189.895 249.112 189.071 259.444 177.624C262.123 174.656 264.044 171.269 265.209 167.689C267.352 161.139 272.299 154.895 277.822 150.784C279.066 149.861 280.226 148.802 281.298 147.616C290.214 137.737 289.357 122.436 279.383 113.434C269.409 104.432 254.101 105.142 245.185 115.021C244.114 116.208 243.18 117.483 242.388 118.802L242.395 118.821Z" fill="#DEB7A1"/>
<path fill-rule="evenodd" clip-rule="evenodd" d="M242.395 118.821C238.87 124.734 233.164 130.294 226.867 133.094C223.432 134.624 220.252 136.876 217.579 139.837C207.247 151.285 208.241 169.031 219.799 179.463C231.357 189.895 249.112 189.071 259.444 177.624C262.123 174.656 264.044 171.269 265.209 167.689C267.352 161.139 272.299 154.895 277.822 150.784C279.066 149.861 280.226 148.802 281.298 147.616C290.214 137.737 289.357 122.436 279.383 113.434C269.409 104.432 254.101 105.142 245.185 115.021C244.114 116.208 243.18 117.483 242.388 118.802L242.395 118.821Z" fill="url(#paint1_linear_569_27131)"/>
<path d="M264.394 141.169C263.748 141.938 262.583 142.011 261.831 141.332L254.92 135.094C254.167 134.415 254.121 133.248 254.82 132.527L303.797 82.1735L309.476 87.2994L264.388 141.163L264.394 141.169Z" fill="#5C1F05"/>
<path d="M263.656 140.508C263.01 141.278 261.845 141.351 261.093 140.672L254.182 134.434C253.429 133.755 253.383 132.588 254.082 131.867L303.058 81.5133L308.737 86.6393L263.649 140.502L263.656 140.508Z" fill="#A44B26"/>
<path d="M241.45 166.647C242.226 165.935 242.215 164.717 241.429 164.007L234.684 157.92C233.899 157.211 232.679 157.331 232.056 158.168L218.152 176.959C217.336 178.065 217.498 179.612 218.53 180.543L220.581 182.394C221.613 183.325 223.168 183.329 224.184 182.404L241.457 166.653L241.45 166.647Z" fill="#5C1F05"/>
<path d="M223.209 181.524L240.598 165.879C241.373 165.178 241.325 163.914 240.485 163.156L234.183 157.468C233.343 156.71 232.081 156.791 231.463 157.633L217.676 176.53C216.866 177.642 217.088 179.243 218.192 180.239L219.474 181.396C220.577 182.392 222.192 182.449 223.216 181.53L223.209 181.524Z" fill="#A44B26"/>
<path d="M307.316 84.2227L237.764 162.674" stroke="#5C1F05" stroke-linecap="round"/>
<path d="M305.998 83.0345L235.087 160.26" stroke="#5C1F05" stroke-linecap="round"/>
<path d="M308.496 85.2891L239.928 164.605" stroke="#5C1F05" stroke-linecap="round"/>
<path d="M304.429 81.6255L232.779 158.171" stroke="#5C1F05" stroke-linecap="round"/>
<path d="M312.732 85.3614C315.551 83.6696 315.636 79.5942 312.922 77.1443C310.207 74.6945 306.156 75.2021 304.767 78.1725L303.154 81.5993L309.48 87.3089L312.724 85.3548L312.732 85.3614Z" fill="url(#paint2_linear_569_27131)"/>
<path d="M246.824 157.625L238.768 150.354C238.322 149.951 238.277 149.265 238.682 148.816C239.081 148.374 239.768 148.336 240.22 148.745L248.277 156.016C248.723 156.419 248.767 157.105 248.363 157.554C247.964 157.996 247.277 158.034 246.824 157.625Z" fill="#AD6060"/>
<path d="M248.273 156.026L247.92 155.707C248.366 156.11 248.411 156.796 248.006 157.245C247.601 157.693 246.92 157.725 246.468 157.316L246.821 157.635C247.267 158.037 247.954 158.012 248.359 157.563C248.764 157.115 248.726 156.434 248.273 156.026Z" fill="#5C1F05"/>
<path d="M238.77 150.355L246.474 157.307C246.9 157.692 247.524 157.669 247.939 157.29C248.275 156.851 248.233 156.215 247.807 155.83L240.104 148.877C239.678 148.493 239.053 148.515 238.638 148.895C238.302 149.334 238.344 149.97 238.77 150.355Z" fill="#A44B26"/>
<path d="M245.921 135.606C246.557 136.181 247.533 136.135 248.102 135.505C248.671 134.875 248.616 133.899 247.98 133.325C247.344 132.751 246.367 132.796 245.798 133.426C245.23 134.056 245.284 135.032 245.921 135.606Z" fill="#5C1F05"/>
<path d="M225.946 147.259C226.582 147.833 227.559 147.788 228.127 147.158C228.696 146.527 228.641 145.551 228.005 144.977C227.369 144.403 226.393 144.448 225.824 145.078C225.255 145.708 225.31 146.685 225.946 147.259Z" fill="#5C1F05"/>
<path d="M247.5 134.833C247.799 134.529 248.181 133.557 247.119 132.646C245.797 131.5 241.461 132.074 236.953 139.518C232.453 146.967 229.472 149.734 227.267 148.282C225.897 147.177 226.29 146.419 226.37 145.809" stroke="#5C1F05" stroke-width="2"/>
<path d="M260.768 149.009C261.404 149.583 262.381 149.538 262.95 148.908C263.518 148.278 263.464 147.301 262.828 146.727C262.191 146.153 261.215 146.198 260.646 146.828C260.077 147.458 260.132 148.435 260.768 149.009Z" fill="#5C1F05"/>
<path d="M251.221 170.071C251.858 170.645 252.834 170.6 253.403 169.97C253.972 169.34 253.917 168.364 253.281 167.79C252.645 167.215 251.668 167.261 251.099 167.891C250.531 168.521 250.585 169.497 251.221 170.071Z" fill="#5C1F05"/>
<path d="M261.382 147.364C261.654 147.036 262.582 146.557 263.597 147.521C264.871 148.719 264.743 153.091 257.799 158.335C250.848 163.573 248.401 166.82 250.07 168.866C251.31 170.116 252.023 169.647 252.622 169.505" stroke="#5C1F05" stroke-width="2"/>
<path d="M238.783 150.37L246.605 157.191C247.031 157.576 247.656 157.553 248.071 157.174C248.053 157.194 248.048 157.226 248.024 157.252C247.626 157.694 246.939 157.732 246.486 157.323L238.783 150.37Z" fill="#5C1F05"/>
<defs>
<linearGradient id="paint0_linear_569_27131" x1="286.536" y1="116.314" x2="226.344" y2="183.004" gradientUnits="userSpaceOnUse">
<stop stop-color="#9E4725" stop-opacity="0"/>
<stop offset="1" stop-color="#511D07"/>
</linearGradient>
<linearGradient id="paint1_linear_569_27131" x1="247.117" y1="141.207" x2="232.031" y2="187.361" gradientUnits="userSpaceOnUse">
<stop stop-color="#DFB8A2" stop-opacity="0"/>
<stop offset="1" stop-color="#B36544"/>
</linearGradient>
<linearGradient id="paint2_linear_569_27131" x1="306.444" y1="80.5391" x2="308.942" y2="87.6459" gradientUnits="userSpaceOnUse">
<stop stop-color="#E0B9A3"/>
<stop offset="1" stop-color="#A44B25"/>
</linearGradient>
</defs>
</svg>
