<svg width="351" height="234" viewBox="0 0 351 234" fill="none" xmlns="http://www.w3.org/2000/svg">
<rect x="0.458984" y="0.226562" width="350" height="233" fill="#2E4491"/>
<path d="M258.267 64.1751C258.439 64.0487 258.646 63.9805 258.86 63.9805H263.002C263.216 63.9805 263.424 64.0489 263.596 64.1756L308.525 97.3033C308.78 97.4918 308.931 97.7906 308.931 98.1082V101.382C308.931 101.934 308.483 102.382 307.931 102.382H213.932C213.379 102.382 212.932 101.934 212.932 101.382V98.0441C212.932 97.7262 213.083 97.4272 213.339 97.2387L258.267 64.1751Z" fill="#E7E6F0"/>
<path d="M263.77 64.3086L308.932 97.6587V102.437H280.132V97.5941L263.77 64.3086Z" fill="#ABA9C8"/>
<rect x="217.732" y="102.387" width="86.3995" height="4.80016" rx="1" fill="#E7E6F0"/>
<path d="M217.732 102.387H304.132V104.787H217.732V102.387Z" fill="#ABA9C8"/>
<path d="M217.732 146.582C217.732 146.03 218.18 145.582 218.732 145.582H303.132C303.684 145.582 304.132 146.03 304.132 146.582V150.382H217.732V146.582Z" fill="#4841A6"/>
<path d="M241.73 145.582H303.13C303.682 145.582 304.13 146.03 304.13 146.582V150.382H280.13L241.73 145.582Z" fill="#353071"/>
<path d="M212.932 151.379C212.932 150.827 213.379 150.379 213.932 150.379H307.931C308.483 150.379 308.931 150.827 308.931 151.379V158.979C308.931 159.532 308.483 159.979 307.931 159.979H213.932C213.379 159.979 212.932 159.532 212.932 158.979V151.379Z" fill="#E7E6F0"/>
<rect x="222.531" y="107.188" width="19.1999" height="38.4013" fill="#E7E6F0"/>
<path d="M222.531 107.188H241.731V133.588L222.531 116.788V107.188Z" fill="#ABA9C8"/>
<rect x="251.332" y="107.188" width="19.1999" height="38.4013" fill="#E7E6F0"/>
<rect x="280.133" y="107.188" width="19.1999" height="38.4013" fill="#E7E6F0"/>
<path d="M251.332 107.188H270.532V133.588L251.332 116.788V107.188Z" fill="#ABA9C8"/>
<path d="M280.133 107.188H299.333V133.588L280.133 116.788V107.188Z" fill="#ABA9C8"/>
</svg>
