<svg width="351" height="234" viewBox="0 0 351 234" fill="none" xmlns="http://www.w3.org/2000/svg">
<rect x="0.458984" y="0.386719" width="350" height="233" fill="#5292A7"/>
<path d="M218.217 175.733C218.127 175.819 218.024 175.894 217.927 175.961C216.922 176.646 215.552 176.571 214.613 175.723L215.466 176.493C216.418 177.352 217.825 177.413 218.833 176.684C218.875 176.65 218.918 176.617 218.966 176.577C218.996 176.544 219.032 176.517 219.069 176.49" fill="#AD6060"/>
<path d="M258.797 172.178C261.476 169.211 263.377 165.805 264.516 162.202C266.605 155.603 271.539 149.347 277.088 145.26C278.339 144.343 279.506 143.291 280.578 142.104C289.494 132.225 288.417 116.726 278.17 107.478C272.025 101.931 263.972 99.9038 256.591 101.295C262.842 100.955 269.247 103.014 274.294 107.569C284.268 116.571 285.125 131.872 276.209 141.75C275.137 142.937 273.964 143.996 272.733 144.919C267.21 149.029 262.263 155.274 260.12 161.824C258.949 165.398 257.034 168.791 254.355 171.759C249.046 177.641 230.734 178.775 223.354 178.959C222.238 178.442 228.819 181.94 235.876 182.889C243.595 183.921 253.287 178.297 258.804 172.184L258.797 172.178Z" fill="#782B2B"/>
<path d="M258.797 172.178C261.476 169.211 263.377 165.805 264.516 162.202C266.605 155.603 271.539 149.347 277.088 145.26C278.339 144.343 279.506 143.291 280.578 142.104C289.494 132.225 288.417 116.726 278.17 107.478C272.025 101.931 263.972 99.9038 256.591 101.295C262.842 100.955 269.247 103.014 274.294 107.569C284.268 116.571 285.125 131.872 276.209 141.75C275.137 142.937 273.964 143.996 272.733 144.919C267.21 149.029 262.263 155.274 260.12 161.824C258.949 165.398 257.034 168.791 254.355 171.759C249.046 177.641 230.734 178.775 223.354 178.959C222.238 178.442 228.819 181.94 235.876 182.889C243.595 183.921 253.287 178.297 258.804 172.184L258.797 172.178Z" fill="url(#paint0_linear_569_27132)"/>
<path d="M302.76 86.6907L300.097 84.287C299.73 83.9565 299.699 83.3893 300.026 83.0266C300.353 82.6639 300.921 82.6376 301.287 82.9681L303.95 85.3719C304.316 85.7024 304.348 86.2695 304.021 86.6322C303.693 86.9949 303.126 87.0213 302.76 86.6907Z" fill="#AD6060"/>
<path d="M299.703 90.0814L297.04 87.6776C296.674 87.3471 296.642 86.7799 296.969 86.4172C297.297 86.0546 297.864 86.0282 298.23 86.3587L300.893 88.7625C301.26 89.093 301.291 89.6602 300.964 90.0229C300.637 90.3856 300.069 90.4119 299.703 90.0814Z" fill="#AD6060"/>
<path d="M302.646 86.8235L299.983 84.4198C299.617 84.0893 299.585 83.5221 299.913 83.1594C300.24 82.7967 300.807 82.7704 301.174 83.1009L303.837 85.5047C304.203 85.8352 304.235 86.4024 303.907 86.7651C303.58 87.1277 303.013 87.1541 302.646 86.8235Z" fill="#DEA1A1"/>
<path d="M299.59 90.2064L296.927 87.8026C296.56 87.4721 296.529 86.9049 296.856 86.5422C297.183 86.1796 297.751 86.1532 298.117 86.4837L300.78 88.8875C301.146 89.218 301.178 89.7852 300.851 90.1479C300.523 90.5106 299.956 90.5369 299.59 90.2064Z" fill="#DEA1A1"/>
<path d="M302.832 87.9568C303.567 88.6206 304.696 88.5682 305.354 87.8398C306.011 87.1114 305.948 85.9828 305.212 85.3191C304.477 84.6553 303.348 84.7077 302.69 85.4361C302.033 86.1644 302.096 87.293 302.832 87.9568Z" fill="#AD6060"/>
<path d="M299.775 91.3435C300.51 92.0073 301.64 91.9549 302.297 91.2265C302.954 90.4981 302.891 89.3696 302.156 88.7058C301.42 88.042 300.291 88.0944 299.634 88.8228C298.976 89.5512 299.04 90.6797 299.775 91.3435Z" fill="#AD6060"/>
<path d="M304.912 85.37C305.644 86.031 305.708 87.1654 305.053 87.8908C304.815 88.1545 304.515 88.3264 304.197 88.4107C304.631 88.3716 305.044 88.1818 305.353 87.8389C306.008 87.1135 305.945 85.9792 305.212 85.3182C304.74 84.8915 304.107 84.7629 303.546 84.9153C304.031 84.8738 304.526 85.0215 304.912 85.37Z" fill="#872626"/>
<path d="M301.855 88.7567C302.588 89.4178 302.651 90.5521 301.996 91.2775C301.758 91.5413 301.458 91.7131 301.14 91.7974C301.574 91.7583 301.987 91.5685 302.297 91.2256C302.952 90.5002 302.888 89.3659 302.156 88.7049C301.683 88.2782 301.05 88.1496 300.49 88.302C300.974 88.2606 301.469 88.4082 301.855 88.7567Z" fill="#872626"/>
<path d="M302.83 87.9545C303.216 88.3031 303.711 88.4507 304.196 88.4093C304.514 88.325 304.814 88.1532 305.052 87.8894C305.706 87.164 305.643 86.0297 304.911 85.3686C304.524 85.0201 304.029 84.8725 303.545 84.9139C303.227 84.9981 302.927 85.17 302.689 85.4338C302.034 86.1592 302.098 87.2935 302.83 87.9545Z" fill="#AD6060"/>
<path d="M299.774 91.3413C300.16 91.6898 300.655 91.8374 301.139 91.796C301.457 91.7118 301.757 91.5399 301.995 91.2761C302.65 90.5507 302.586 89.4164 301.854 88.7554C301.468 88.4068 300.973 88.2592 300.488 88.3006C300.171 88.3849 299.871 88.5567 299.632 88.8205C298.978 89.5459 299.041 90.6802 299.774 91.3413Z" fill="#AD6060"/>
<path d="M290.102 79.0915L292.765 81.4953C293.131 81.8258 293.699 81.7995 294.026 81.4368C294.353 81.0741 294.321 80.5069 293.955 80.1764L291.292 77.7727C290.926 77.4421 290.358 77.4685 290.031 77.8312C289.704 78.1939 289.736 78.761 290.102 79.0915Z" fill="#AD6060"/>
<path d="M287.043 82.4822L289.706 84.8859C290.073 85.2164 290.64 85.1901 290.967 84.8274C291.295 84.4647 291.263 83.8975 290.897 83.567L288.234 81.1633C287.867 80.8328 287.3 80.8591 286.973 81.2218C286.645 81.5845 286.677 82.1516 287.043 82.4822Z" fill="#AD6060"/>
<path d="M289.986 79.2204L292.65 81.6242C293.016 81.9547 293.583 81.9284 293.911 81.5657C294.238 81.203 294.206 80.6358 293.84 80.3053L291.177 77.9016C290.811 77.5711 290.243 77.5974 289.916 77.9601C289.589 78.3228 289.62 78.8899 289.986 79.2204Z" fill="#DEA1A1"/>
<path d="M286.932 82.6072L289.595 85.0109C289.961 85.3414 290.529 85.3151 290.856 84.9524C291.183 84.5897 291.152 84.0225 290.785 83.692L288.122 81.2883C287.756 80.9578 287.189 80.9841 286.861 81.3468C286.534 81.7095 286.566 82.2766 286.932 82.6072Z" fill="#DEA1A1"/>
<path d="M288.84 79.1546C288.105 78.4908 288.042 77.3623 288.699 76.6339C289.357 75.9055 290.486 75.8531 291.221 76.5169C291.957 77.1807 292.02 78.3092 291.362 79.0376C290.705 79.766 289.576 79.8184 288.84 79.1546Z" fill="#AD6060"/>
<path d="M285.784 82.5413C285.048 81.8776 284.985 80.749 285.643 80.0206C286.3 79.2922 287.429 79.2398 288.165 79.9036C288.9 80.5674 288.963 81.6959 288.306 82.4243C287.648 83.1527 286.519 83.2051 285.784 82.5413Z" fill="#AD6060"/>
<path d="M291.198 76.8181C290.466 76.1571 289.331 76.2097 288.676 76.9351C288.438 77.1989 288.298 77.515 288.247 77.8396C288.241 77.4039 288.388 76.9738 288.697 76.6309C289.352 75.9055 290.487 75.8528 291.219 76.5139C291.692 76.9405 291.885 77.5571 291.79 78.1301C291.782 77.644 291.585 77.1667 291.198 76.8181Z" fill="#872626"/>
<path d="M288.142 80.2048C287.409 79.5438 286.275 79.5964 285.62 80.3218C285.382 80.5856 285.241 80.9017 285.19 81.2263C285.185 80.7906 285.331 80.3605 285.641 80.0176C286.295 79.2922 287.43 79.2396 288.163 79.9006C288.635 80.3272 288.828 80.9438 288.734 81.5168C288.725 81.0307 288.528 80.5534 288.142 80.2048Z" fill="#872626"/>
<path d="M288.841 79.1484C288.455 78.7999 288.257 78.3226 288.249 77.8364C288.3 77.5118 288.441 77.1957 288.679 76.9319C289.334 76.2066 290.468 76.1539 291.201 76.8149C291.587 77.1635 291.784 77.6408 291.793 78.127C291.741 78.4516 291.601 78.7677 291.363 79.0314C290.708 79.7568 289.573 79.8095 288.841 79.1484Z" fill="#AD6060"/>
<path d="M285.784 82.5391C285.398 82.1905 285.201 81.7132 285.192 81.2271C285.244 80.9024 285.384 80.5863 285.622 80.3226C286.277 79.5972 287.412 79.5445 288.144 80.2056C288.53 80.5541 288.728 81.0315 288.736 81.5176C288.685 81.8422 288.544 82.1583 288.306 82.4221C287.652 83.1475 286.517 83.2001 285.784 82.5391Z" fill="#AD6060"/>
<path fill-rule="evenodd" clip-rule="evenodd" d="M237.299 112.934C233.775 118.847 228.068 124.407 221.771 127.207C218.336 128.738 215.156 130.989 212.483 133.95C202.151 145.398 203.145 163.144 214.703 173.576C226.261 184.008 244.016 183.185 254.349 171.737C257.027 168.77 258.949 165.382 260.113 161.803C262.256 155.252 267.204 149.008 272.726 144.898C273.97 143.974 275.131 142.916 276.202 141.729C285.118 131.85 284.261 116.55 274.287 107.548C264.314 98.5456 249.005 99.2557 240.089 109.134C239.018 110.321 238.084 111.596 237.292 112.916L237.299 112.934Z" fill="#DEA1A1"/>
<path fill-rule="evenodd" clip-rule="evenodd" d="M237.299 112.934C233.775 118.847 228.068 124.407 221.771 127.207C218.336 128.738 215.156 130.989 212.483 133.95C202.151 145.398 203.145 163.144 214.703 173.576C226.261 184.008 244.016 183.185 254.349 171.737C257.027 168.77 258.949 165.382 260.113 161.803C262.256 155.252 267.204 149.008 272.726 144.898C273.97 143.974 275.131 142.916 276.202 141.729C285.118 131.85 284.261 116.55 274.287 107.548C264.314 98.5456 249.005 99.2557 240.089 109.134C239.018 110.321 238.084 111.596 237.292 112.916L237.299 112.934Z" fill="url(#paint1_linear_569_27132)"/>
<path d="M259.299 135.286C258.653 136.055 257.487 136.128 256.735 135.449L249.824 129.211C249.072 128.532 249.025 127.366 249.724 126.644L298.701 76.2907L304.38 81.4166L259.292 135.28L259.299 135.286Z" fill="#6B2121"/>
<path d="M258.558 134.622C257.912 135.391 256.747 135.464 255.995 134.785L249.084 128.547C248.331 127.868 248.285 126.702 248.984 125.98L297.961 75.6266L303.64 80.7526L258.552 134.616L258.558 134.622Z" fill="#AD6060"/>
<path d="M236.355 160.765C237.13 160.053 237.119 158.834 236.333 158.125L229.589 152.037C228.803 151.328 227.583 151.448 226.96 152.285L213.057 171.076C212.24 172.182 212.402 173.729 213.434 174.66L215.485 176.511C216.517 177.443 218.072 177.446 219.089 176.521L236.361 160.771L236.355 160.765Z" fill="#6B2121"/>
<path d="M218.23 175.746L235.502 159.995C236.272 159.29 236.267 158.065 235.481 157.355L229.589 152.037C228.803 151.328 227.583 151.448 226.96 152.285L213.057 171.076C212.24 172.182 212.402 173.729 213.434 174.66L214.633 175.742C215.665 176.673 217.22 176.677 218.236 175.752L218.23 175.746Z" fill="#AD6060"/>
<path d="M302.221 78.3359L232.668 156.787" stroke="#782B2B" stroke-linecap="round"/>
<path d="M300.9 77.1478L229.99 154.373" stroke="#782B2B" stroke-linecap="round"/>
<path d="M303.398 79.4023L234.83 158.718" stroke="#782B2B" stroke-linecap="round"/>
<path d="M299.331 75.7427L227.681 152.289" stroke="#782B2B" stroke-linecap="round"/>
<path d="M307.636 79.4826C310.455 77.7907 310.54 73.7153 307.826 71.2654C305.112 68.8155 301.06 69.3232 299.671 72.2936L298.058 75.7204L304.384 81.4301L307.629 79.4759L307.636 79.4826Z" fill="url(#paint2_linear_569_27132)"/>
<path d="M241.729 151.746L233.672 144.475C233.226 144.072 233.182 143.386 233.586 142.937C233.985 142.496 234.672 142.457 235.125 142.866L243.181 150.137C243.627 150.54 243.672 151.227 243.267 151.675C242.868 152.117 242.181 152.155 241.729 151.746Z" fill="#AD6060"/>
<path d="M243.175 150.147L242.822 149.828C243.268 150.231 243.313 150.917 242.908 151.366C242.504 151.814 241.823 151.846 241.37 151.437L241.723 151.756C242.169 152.158 242.857 152.133 243.261 151.684C243.666 151.236 243.628 150.555 243.175 150.147Z" fill="#782B2B"/>
<path d="M233.675 144.472L241.378 151.425C241.804 151.809 242.429 151.786 242.844 151.407C243.179 150.968 243.137 150.332 242.711 149.947L235.008 142.995C234.582 142.61 233.957 142.633 233.542 143.012C233.207 143.451 233.249 144.087 233.675 144.472Z" fill="#AD6060"/>
<path d="M240.823 129.72C241.459 130.294 242.436 130.249 243.004 129.619C243.573 128.988 243.518 128.012 242.882 127.438C242.246 126.864 241.269 126.909 240.701 127.539C240.132 128.169 240.187 129.146 240.823 129.72Z" fill="#782B2B"/>
<path d="M220.85 141.376C221.486 141.95 222.463 141.905 223.032 141.275C223.6 140.645 223.546 139.668 222.91 139.094C222.274 138.52 221.297 138.565 220.728 139.196C220.159 139.826 220.214 140.802 220.85 141.376Z" fill="#782B2B"/>
<path d="M242.407 128.95C242.706 128.646 243.087 127.674 242.025 126.763C240.703 125.618 236.367 126.192 231.86 133.635C227.359 141.085 224.379 143.851 222.173 142.399C220.803 141.294 221.197 140.536 221.276 139.926" stroke="#782B2B" stroke-width="2"/>
<path d="M255.671 143.126C256.307 143.7 257.283 143.655 257.852 143.025C258.421 142.395 258.366 141.418 257.73 140.844C257.094 140.27 256.117 140.315 255.548 140.946C254.98 141.576 255.034 142.552 255.671 143.126Z" fill="#782B2B"/>
<path d="M246.124 164.185C246.76 164.759 247.737 164.713 248.305 164.083C248.874 163.453 248.819 162.477 248.183 161.903C247.547 161.329 246.57 161.374 246.002 162.004C245.433 162.634 245.488 163.61 246.124 164.185Z" fill="#782B2B"/>
<path d="M256.286 141.481C256.559 141.153 257.486 140.674 258.501 141.638C259.776 142.836 259.648 147.208 252.704 152.452C245.753 157.69 243.305 160.937 244.975 162.983C246.214 164.233 246.927 163.764 247.526 163.623" stroke="#782B2B" stroke-width="2"/>
<path d="M233.687 144.48L241.509 151.301C241.935 151.685 242.56 151.663 242.975 151.283C242.957 151.303 242.952 151.335 242.929 151.361C242.53 151.803 241.843 151.841 241.39 151.433L233.687 144.48Z" fill="#782B2B"/>
<defs>
<linearGradient id="paint0_linear_569_27132" x1="281.443" y1="110.431" x2="221.25" y2="177.121" gradientUnits="userSpaceOnUse">
<stop stop-color="#782B2B" stop-opacity="0"/>
<stop offset="1" stop-color="#500B0B"/>
</linearGradient>
<linearGradient id="paint1_linear_569_27132" x1="242.022" y1="135.32" x2="226.935" y2="181.475" gradientUnits="userSpaceOnUse">
<stop stop-color="#DEA1A1" stop-opacity="0"/>
<stop offset="1" stop-color="#AD6060"/>
</linearGradient>
<linearGradient id="paint2_linear_569_27132" x1="301.348" y1="74.6602" x2="303.846" y2="81.767" gradientUnits="userSpaceOnUse">
<stop stop-color="#DEA1A1"/>
<stop offset="1" stop-color="#AD6060"/>
</linearGradient>
</defs>
</svg>
