<svg width="351" height="234" viewBox="0 0 351 234" fill="none" xmlns="http://www.w3.org/2000/svg">
<rect x="0.458984" y="0.826172" width="350" height="233" fill="#B8693D"/>
<ellipse cx="234.097" cy="100.441" rx="6.53888" ry="6.51117" fill="#F8CCA4"/>
<ellipse cx="264.026" cy="82.0865" rx="5.52789" ry="5.50447" fill="#F8CCA4"/>
<ellipse cx="240.637" cy="89.8619" rx="7.80905" ry="7.77595" fill="#F8CCA4"/>
<ellipse cx="252.282" cy="83.7369" rx="7.80905" ry="7.77595" fill="#F8CCA4"/>
<ellipse cx="274.963" cy="77.1197" rx="7.80905" ry="7.77595" fill="#F8CCA4"/>
<ellipse cx="251.751" cy="101.694" rx="12.9012" ry="12.8465" fill="#F8CCA4"/>
<ellipse cx="271.494" cy="91.5121" rx="11.4022" ry="11.3539" fill="#F8CCA4"/>
<ellipse cx="271.494" cy="100.44" rx="11.4022" ry="11.3539" fill="#F8CCA4"/>
<ellipse cx="289.027" cy="84.8968" rx="11.4022" ry="11.3539" fill="#F8CCA4"/>
<ellipse cx="258.497" cy="91.5123" rx="7.80905" ry="7.77595" fill="#F8CCA4"/>
<ellipse cx="286.776" cy="104.302" rx="11.6878" ry="11.6383" fill="#F8CCA4"/>
<ellipse cx="298.06" cy="99.242" rx="9.03024" ry="8.99197" fill="#F8CCA4"/>
<path d="M226.652 105.29C226.472 104.009 227.537 102.897 228.824 103.021L246.801 104.757L267.299 105.537L287.78 104.826L305.765 103.03C307.055 102.902 308.125 104.015 307.945 105.299L299.513 165.343H283.406H267.299H251.192H235.085L226.652 105.29Z" fill="#FCD2D2"/>
<path d="M226.652 105.228L235.085 165.344H251.192L246.799 104.755L228.832 102.96C227.542 102.831 226.472 103.944 226.652 105.228Z" fill="#5848BD"/>
<path d="M267.299 165.344V105.536L287.799 104.755L283.406 165.344H267.299Z" fill="#5848BD"/>
<ellipse cx="248.673" cy="95.795" rx="4.35057" ry="4.33213" fill="#EBAC72"/>
<ellipse cx="1.80712" cy="2.23003" rx="1.80712" ry="2.23003" transform="matrix(0.719106 0.694901 -0.697947 0.71615 252.352 89.0293)" fill="#EBAC72"/>
<ellipse cx="1.80712" cy="2.23003" rx="1.80712" ry="2.23003" transform="matrix(0.719106 0.694901 -0.697947 0.71615 246.074 95.9902)" fill="#EBAC72"/>
<ellipse cx="3.29208" cy="3.30072" rx="3.29208" ry="3.30072" transform="matrix(0.277635 -0.960687 0.961311 0.275466 250.689 97.6387)" fill="#EBAC72"/>
<ellipse cx="274.569" cy="87.0065" rx="3.27233" ry="3.25846" fill="#EBAC72"/>
<ellipse cx="270.412" cy="91.9242" rx="4.38421" ry="4.36563" fill="#EBAC72"/>
<ellipse cx="270.927" cy="84.5364" rx="4.12031" ry="4.10285" fill="#EBAC72"/>
<ellipse cx="264.76" cy="94.4044" rx="2.86768" ry="2.85553" fill="#EBAC72"/>
<ellipse cx="266.29" cy="87.9739" rx="5.00679" ry="4.98557" fill="#EBAC72"/>
</svg>
