<svg width="351" height="265" viewBox="0 0 351 265" fill="none" xmlns="http://www.w3.org/2000/svg">
<rect x="0.486328" y="0.992188" width="350" height="264" fill="#87B499"/>
<path d="M250.801 83.6633C250.972 83.5369 251.18 83.4688 251.393 83.4688H256.204C256.418 83.4688 256.626 83.5371 256.798 83.6639L308.079 121.474C308.335 121.662 308.485 121.961 308.485 122.279V126.218C308.485 126.77 308.038 127.218 307.485 127.218H200.113C199.561 127.218 199.113 126.77 199.113 126.218V122.206C199.113 121.888 199.264 121.589 199.521 121.4L250.801 83.6633Z" fill="#FFF5F3"/>
<path d="M257.033 83.8418L308.487 121.836V127.28H275.675V121.762L257.033 83.8418Z" fill="#E8BBB1"/>
<rect x="204.582" y="127.219" width="98.435" height="5.46861" rx="1" fill="#FFF5F3"/>
<path d="M204.582 127.219H303.017V129.953H204.582V127.219Z" fill="#E8BBB1"/>
<path d="M204.582 177.436C204.582 176.883 205.03 176.436 205.582 176.436H302.017C302.569 176.436 303.017 176.883 303.017 177.436V181.904H204.582V177.436Z" fill="#D77964"/>
<path d="M231.924 176.436H302.016C302.568 176.436 303.016 176.883 303.016 177.436V181.904H275.673L231.924 176.436Z" fill="#A84A36"/>
<path d="M199.113 182.904C199.113 182.352 199.561 181.904 200.113 181.904H307.485C308.038 181.904 308.485 182.352 308.485 182.904V191.842C308.485 192.394 308.038 192.842 307.485 192.842H200.113C199.561 192.842 199.113 192.394 199.113 191.842V182.904Z" fill="#FFF5F3"/>
<rect x="210.051" y="132.686" width="21.8744" height="43.7489" fill="#FFF5F3"/>
<path d="M210.051 132.686H231.925V162.763L210.051 143.623V132.686Z" fill="#E8BBB1"/>
<rect x="242.863" y="132.686" width="21.8744" height="43.7489" fill="#FFF5F3"/>
<rect x="275.674" y="132.686" width="21.8744" height="43.7489" fill="#FFF5F3"/>
<path d="M242.863 132.686H264.738V162.763L242.863 143.623V132.686Z" fill="#E8BBB1"/>
<path d="M275.674 132.686H297.548V162.763L275.674 143.623V132.686Z" fill="#E8BBB1"/>
</svg>
