<svg width="351" height="265" viewBox="0 0 351 265" fill="none" xmlns="http://www.w3.org/2000/svg">
<rect x="0.486328" y="0.992188" width="350" height="264" fill="#6881D8"/>
<path d="M203.998 197.224C203.897 197.321 203.781 197.405 203.671 197.481C202.543 198.254 201.009 198.177 199.963 197.232L200.913 198.09C201.974 199.048 203.549 199.109 204.683 198.286C204.73 198.248 204.778 198.21 204.832 198.165C204.866 198.128 204.907 198.098 204.948 198.067" fill="#6881D8"/>
<path d="M249.457 193.02C252.472 189.679 254.62 185.852 255.913 181.807C258.288 174.399 263.847 167.36 270.083 162.75C271.488 161.715 272.801 160.529 274.007 159.193C284.044 148.073 282.921 130.706 271.496 120.394C264.645 114.21 255.638 111.98 247.365 113.579C254.367 113.164 261.528 115.439 267.155 120.517C278.276 130.554 279.154 147.7 269.117 158.821C267.911 160.157 266.591 161.35 265.207 162.391C259.001 167.028 253.428 174.054 250.993 181.407C249.662 185.419 247.5 189.233 244.485 192.573C238.508 199.195 217.996 200.564 209.731 200.81C208.484 200.237 215.834 204.123 223.732 205.149C232.37 206.264 243.253 199.908 249.464 193.027L249.457 193.02Z" fill="#782B2B"/>
<path d="M249.457 193.02C252.472 189.679 254.62 185.852 255.913 181.807C258.288 174.399 263.847 167.36 270.083 162.75C271.488 161.715 272.801 160.529 274.007 159.193C284.044 148.073 282.921 130.706 271.496 120.394C264.645 114.21 255.638 111.98 247.365 113.579C254.367 113.164 261.528 115.439 267.155 120.517C278.276 130.554 279.154 147.7 269.117 158.821C267.911 160.157 266.591 161.35 265.207 162.391C259.001 167.028 253.428 174.054 250.993 181.407C249.662 185.419 247.5 189.233 244.485 192.573C238.508 199.195 217.996 200.564 209.731 200.81C208.484 200.237 215.834 204.123 223.732 205.149C232.37 206.264 243.253 199.908 249.464 193.027L249.457 193.02Z" fill="#6881D8"/>
<path d="M299.143 96.9715L296.174 94.2914C295.765 93.9229 295.733 93.2873 296.101 92.8791C296.47 92.4708 297.106 92.4382 297.514 92.8067L300.483 95.4868C300.891 95.8553 300.924 96.4909 300.556 96.8992C300.187 97.3075 299.551 97.34 299.143 96.9715Z" fill="#6881D8"/>
<path d="M295.702 100.784L292.732 98.1039C292.324 97.7354 292.292 97.0998 292.66 96.6916C293.029 96.2833 293.664 96.2507 294.072 96.6192L297.042 99.2993C297.45 99.6678 297.483 100.303 297.114 100.712C296.746 101.12 296.11 101.153 295.702 100.784Z" fill="#6881D8"/>
<path d="M299.014 97.1141L296.045 94.434C295.637 94.0655 295.604 93.4299 295.973 93.0216C296.341 92.6133 296.977 92.5808 297.385 92.9493L300.354 95.6294C300.763 95.9979 300.795 96.6335 300.427 97.0418C300.058 97.4501 299.423 97.4826 299.014 97.1141Z" fill="#6881D8"/>
<path d="M295.575 100.925L292.605 98.2445C292.197 97.876 292.165 97.2405 292.533 96.8322C292.902 96.4239 293.537 96.3914 293.945 96.7599L296.915 99.44C297.323 99.8085 297.356 100.444 296.987 100.852C296.619 101.261 295.983 101.293 295.575 100.925Z" fill="#6881D8"/>
<path d="M299.215 98.3836C300.035 99.1237 301.299 99.059 302.039 98.239C302.78 97.419 302.715 96.1544 301.895 95.4143C301.075 94.6742 299.81 94.7389 299.07 95.5589C298.33 96.3789 298.395 97.6435 299.215 98.3836Z" fill="#6881D8"/>
<path d="M295.775 102.196C296.595 102.936 297.86 102.871 298.6 102.051C299.34 101.232 299.275 99.9669 298.455 99.2268C297.635 98.4867 296.371 98.5514 295.631 99.3714C294.891 100.191 294.955 101.456 295.775 102.196Z" fill="#6881D8"/>
<path d="M301.559 95.4744C302.375 96.2115 302.44 97.4826 301.703 98.2992C301.435 98.5961 301.098 98.7904 300.742 98.8865C301.228 98.8403 301.692 98.6254 302.04 98.2394C302.777 97.4229 302.712 96.1517 301.896 95.4147C301.369 94.939 300.66 94.7982 300.032 94.972C300.575 94.923 301.128 95.0858 301.559 95.4744Z" fill="#6881D8"/>
<path d="M298.119 99.2869C298.936 100.024 299.001 101.295 298.264 102.112C297.996 102.409 297.659 102.603 297.303 102.699C297.789 102.653 298.252 102.438 298.601 102.052C299.338 101.235 299.273 99.9642 298.456 99.2272C297.929 98.7515 297.221 98.6107 296.593 98.7845C297.135 98.7355 297.689 98.8983 298.119 99.2869Z" fill="#6881D8"/>
<path d="M299.216 98.3844C299.647 98.773 300.2 98.9358 300.743 98.8868C301.099 98.7907 301.436 98.5964 301.704 98.2995C302.441 97.4829 302.376 96.2118 301.559 95.4747C301.129 95.0861 300.575 94.9233 300.033 94.9723C299.676 95.0684 299.339 95.2627 299.071 95.5596C298.334 96.3762 298.399 97.6473 299.216 98.3844Z" fill="#6881D8"/>
<path d="M295.775 102.195C296.205 102.584 296.759 102.746 297.301 102.697C297.657 102.601 297.994 102.407 298.262 102.11C299 101.293 298.934 100.022 298.118 99.2853C297.687 98.8967 297.134 98.7338 296.591 98.7829C296.235 98.879 295.898 99.0733 295.63 99.3702C294.893 100.187 294.958 101.458 295.775 102.195Z" fill="#6881D8"/>
<path d="M285.009 88.5135L287.978 91.1936C288.386 91.5621 289.022 91.5295 289.391 91.1212C289.759 90.713 289.726 90.0774 289.318 89.7089L286.349 87.0288C285.941 86.6603 285.305 86.6928 284.936 87.1011C284.568 87.5094 284.601 88.145 285.009 88.5135Z" fill="#6881D8"/>
<path d="M281.567 92.326L284.537 95.0061C284.945 95.3746 285.581 95.342 285.949 94.9337C286.318 94.5255 286.285 93.8899 285.877 93.5214L282.907 90.8413C282.499 90.4728 281.864 90.5053 281.495 90.9136C281.127 91.3219 281.159 91.9575 281.567 92.326Z" fill="#6881D8"/>
<path d="M284.88 88.656L287.849 91.3361C288.258 91.7047 288.893 91.6721 289.262 91.2638C289.63 90.8555 289.598 90.22 289.189 89.8515L286.22 87.1714C285.812 86.8029 285.176 86.8354 284.808 87.2437C284.439 87.652 284.472 88.2875 284.88 88.656Z" fill="#6881D8"/>
<path d="M281.44 92.4666L284.41 95.1467C284.818 95.5152 285.454 95.4827 285.822 95.0744C286.191 94.6661 286.158 94.0305 285.75 93.662L282.78 90.9819C282.372 90.6134 281.737 90.6459 281.368 91.0542C281 91.4625 281.032 92.0981 281.44 92.4666Z" fill="#6881D8"/>
<path d="M283.597 88.5863C282.777 87.8463 282.712 86.5816 283.452 85.7616C284.192 84.9417 285.457 84.8769 286.277 85.617C287.097 86.3571 287.162 87.6217 286.422 88.4417C285.682 89.2617 284.417 89.3264 283.597 88.5863Z" fill="#6881D8"/>
<path d="M280.156 92.3969C279.336 91.6568 279.271 90.3921 280.011 89.5722C280.751 88.7522 282.016 88.6874 282.836 89.4275C283.656 90.1676 283.72 91.4323 282.98 92.2523C282.24 93.0722 280.976 93.137 280.156 92.3969Z" fill="#6881D8"/>
<path d="M286.251 85.9577C285.435 85.2207 284.164 85.2857 283.427 86.1023C283.159 86.3993 283 86.7543 282.94 87.1185C282.937 86.6301 283.103 86.1472 283.452 85.7612C284.189 84.9446 285.46 84.8795 286.276 85.6165C286.803 86.0923 287.016 86.7823 286.907 87.4251C286.9 86.8803 286.682 86.3463 286.251 85.9577Z" fill="#6881D8"/>
<path d="M282.81 89.7702C281.993 89.0332 280.722 89.0982 279.985 89.9148C279.717 90.2118 279.558 90.5668 279.499 90.931C279.495 90.4426 279.662 89.9597 280.01 89.5737C280.747 88.7571 282.018 88.692 282.835 89.429C283.362 89.9048 283.574 90.5948 283.466 91.2376C283.459 90.6928 283.24 90.1588 282.81 89.7702Z" fill="#6881D8"/>
<path d="M283.596 88.5851C283.166 88.1965 282.947 87.6625 282.94 87.1177C283 86.7535 283.159 86.3985 283.427 86.1015C284.164 85.285 285.435 85.2199 286.251 85.9569C286.682 86.3455 286.9 86.8795 286.907 87.4244C286.848 87.7885 286.689 88.1436 286.421 88.4405C285.684 89.2571 284.413 89.3222 283.596 88.5851Z" fill="#6881D8"/>
<path d="M280.157 92.3976C279.726 92.009 279.508 91.475 279.501 90.9302C279.56 90.566 279.719 90.211 279.987 89.914C280.724 89.0975 281.995 89.0324 282.812 89.7694C283.242 90.158 283.461 90.692 283.468 91.2369C283.408 91.601 283.249 91.9561 282.981 92.253C282.244 93.0696 280.973 93.1347 280.157 92.3976Z" fill="#6881D8"/>
<path fill-rule="evenodd" clip-rule="evenodd" d="M225.703 126.732C221.724 133.379 215.304 139.641 208.237 142.814C204.382 144.548 200.81 147.088 197.801 150.421C186.17 163.308 187.188 183.195 200.075 194.826C212.962 206.458 232.848 205.44 244.48 192.552C247.495 189.212 249.665 185.405 250.988 181.386C253.422 174.033 258.996 167.007 265.202 162.37C266.6 161.328 267.905 160.136 269.111 158.8C279.148 147.679 278.27 130.533 267.15 120.496C256.03 110.459 238.884 111.337 228.847 122.458C227.641 123.794 226.588 125.228 225.694 126.711L225.703 126.732Z" fill="#DEA1A1"/>
<path fill-rule="evenodd" clip-rule="evenodd" d="M225.703 126.732C221.724 133.379 215.304 139.641 208.237 142.814C204.382 144.548 200.81 147.088 197.801 150.421C186.17 163.308 187.188 183.195 200.075 194.826C212.962 206.458 232.848 205.44 244.48 192.552C247.495 189.212 249.665 185.405 250.988 181.386C253.422 174.033 258.996 167.007 265.202 162.37C266.6 161.328 267.905 160.136 269.111 158.8C279.148 147.679 278.27 130.533 267.15 120.496C256.03 110.459 238.884 111.337 228.847 122.458C227.641 123.794 226.588 125.228 225.694 126.711L225.703 126.732Z" fill="#6881D8"/>
<path d="M250.217 151.669C249.489 152.534 248.184 152.622 247.345 151.865L239.64 144.91C238.801 144.153 238.755 142.846 239.542 142.034L294.655 85.3304L300.987 91.0457L250.209 151.662L250.217 151.669Z" fill="#6881D8"/>
<path d="M249.393 150.93C248.665 151.796 247.36 151.884 246.521 151.127L238.816 144.172C237.977 143.415 237.931 142.107 238.718 141.295L293.831 84.5921L300.163 90.3074L249.385 150.924L249.393 150.93Z" fill="#6881D8"/>
<path d="M224.389 180.347C225.261 179.545 225.255 178.179 224.379 177.388L216.859 170.601C215.983 169.81 214.617 169.951 213.914 170.893L198.244 192.03C197.324 193.274 197.498 195.007 198.648 196.046L200.935 198.109C202.085 199.148 203.827 199.144 204.97 198.101L224.396 180.354L224.389 180.347Z" fill="#6881D8"/>
<path d="M204.012 197.237L223.439 179.49C224.304 178.695 224.305 177.321 223.429 176.531L216.859 170.601C215.983 169.81 214.617 169.951 213.914 170.893L198.244 192.03C197.324 193.274 197.498 195.007 198.648 196.046L199.985 197.252C201.135 198.29 202.877 198.286 204.02 197.243L204.012 197.237Z" fill="#6881D8"/>
<path d="M298.586 87.6055L220.282 175.913" stroke="#6881D8" stroke-linecap="round"/>
<path d="M297.115 86.2794L217.297 173.22" stroke="#6881D8" stroke-linecap="round"/>
<path d="M299.9 88.793L222.694 178.064" stroke="#6881D8" stroke-linecap="round"/>
<path d="M295.365 84.7115L214.722 170.895" stroke="#6881D8" stroke-linecap="round"/>
<path d="M304.644 88.8565C307.809 86.9451 307.926 82.3765 304.9 79.645C301.874 76.9135 297.334 77.5041 295.763 80.8411L293.939 84.6908L300.992 91.0569L304.635 88.8491L304.644 88.8565Z" fill="#6881D8"/>
<path d="M230.454 170.211L221.472 162.103C220.975 161.654 220.928 160.885 221.384 160.38C221.833 159.883 222.602 159.836 223.107 160.292L232.089 168.399C232.587 168.848 232.633 169.618 232.177 170.122C231.728 170.62 230.959 170.666 230.454 170.211Z" fill="#6881D8"/>
<path d="M232.083 168.406L231.689 168.051C232.187 168.5 232.233 169.269 231.778 169.774C231.322 170.279 230.559 170.318 230.055 169.862L230.448 170.217C230.945 170.666 231.716 170.634 232.171 170.129C232.627 169.624 232.588 168.862 232.083 168.406Z" fill="#6881D8"/>
<path d="M221.474 162.102L230.063 169.854C230.538 170.283 231.237 170.254 231.704 169.826C232.082 169.333 232.039 168.62 231.564 168.191L222.975 160.439C222.5 160.01 221.8 160.039 221.334 160.466C220.955 160.96 220.999 161.673 221.474 162.102Z" fill="#6881D8"/>
<path d="M229.56 145.53C230.269 146.171 231.363 146.115 232.003 145.405C232.643 144.696 232.587 143.602 231.878 142.962C231.169 142.322 230.075 142.378 229.435 143.087C228.794 143.796 228.85 144.89 229.56 145.53Z" fill="#6881D8"/>
<path d="M207.13 158.696C207.839 159.337 208.933 159.281 209.573 158.571C210.214 157.862 210.158 156.768 209.448 156.128C208.739 155.488 207.645 155.544 207.005 156.253C206.365 156.962 206.421 158.056 207.13 158.696Z" fill="#6881D8"/>
<path d="M231.334 144.656C231.671 144.313 232.104 143.221 230.919 142.206C229.444 140.929 224.586 141.596 219.499 149.963C214.419 158.337 211.067 161.454 208.605 159.838C207.077 158.607 207.521 157.756 207.614 157.071" stroke="#6881D8" stroke-width="2"/>
<path d="M246.114 160.474C246.824 161.114 247.918 161.058 248.558 160.349C249.198 159.639 249.142 158.545 248.433 157.905C247.723 157.265 246.629 157.321 245.989 158.03C245.349 158.74 245.405 159.834 246.114 160.474Z" fill="#6881D8"/>
<path d="M235.31 184.13C236.019 184.77 237.113 184.714 237.753 184.005C238.393 183.296 238.337 182.202 237.628 181.561C236.919 180.921 235.825 180.977 235.185 181.687C234.544 182.396 234.6 183.49 235.31 184.13Z" fill="#6881D8"/>
<path d="M246.812 158.625C247.118 158.255 248.16 157.713 249.291 158.788C250.712 160.125 250.545 165.026 242.741 170.941C234.929 176.849 232.171 180.502 234.03 182.786C235.411 184.181 236.212 183.651 236.884 183.49" stroke="#6881D8" stroke-width="2"/>
<path d="M221.489 162.115L230.211 169.718C230.687 170.147 231.386 170.118 231.853 169.691C231.833 169.713 231.827 169.749 231.801 169.779C231.352 170.276 230.582 170.322 230.077 169.867L221.489 162.115Z" fill="#6881D8"/>
<path d="M203.76 197.648C203.659 197.745 203.542 197.829 203.433 197.905C202.304 198.678 200.771 198.601 199.724 197.656L200.675 198.514C201.736 199.472 203.311 199.533 204.444 198.71C204.492 198.672 204.54 198.634 204.594 198.589C204.627 198.552 204.668 198.521 204.709 198.491" fill="#AD6060"/>
<path d="M249.219 193.444C252.234 190.103 254.381 186.276 255.675 182.231C258.05 174.823 263.609 167.784 269.844 163.174C271.25 162.139 272.563 160.953 273.769 159.617C283.806 148.497 282.683 131.13 271.258 120.818C264.406 114.634 255.399 112.404 247.126 114.003C254.129 113.588 261.29 115.862 266.917 120.941C278.037 130.978 278.915 148.124 268.878 159.244C267.672 160.581 266.353 161.774 264.969 162.815C258.763 167.452 253.189 174.477 250.755 181.831C249.424 185.843 247.262 189.657 244.247 192.997C238.27 199.619 217.757 200.988 209.493 201.234C208.246 200.661 215.596 204.547 223.494 205.573C232.132 206.688 243.015 200.332 249.226 193.45L249.219 193.444Z" fill="#A44B25"/>
<path d="M249.219 193.444C252.234 190.103 254.381 186.276 255.675 182.231C258.05 174.823 263.609 167.784 269.844 163.174C271.25 162.139 272.563 160.953 273.769 159.617C283.806 148.497 282.683 131.13 271.258 120.818C264.406 114.634 255.399 112.404 247.126 114.003C254.129 113.588 261.29 115.862 266.917 120.941C278.037 130.978 278.915 148.124 268.878 159.244C267.672 160.581 266.353 161.774 264.969 162.815C258.763 167.452 253.189 174.477 250.755 181.831C249.424 185.843 247.262 189.657 244.247 192.997C238.27 199.619 217.757 200.988 209.493 201.234C208.246 200.661 215.596 204.547 223.494 205.573C232.132 206.688 243.015 200.332 249.226 193.45L249.219 193.444Z" fill="url(#paint0_linear_505_16188)"/>
<path d="M298.905 97.3953L295.935 94.7152C295.527 94.3467 295.495 93.7112 295.863 93.3029C296.232 92.8946 296.867 92.8621 297.276 93.2306L300.245 95.9107C300.653 96.2792 300.686 96.9147 300.317 97.323C299.949 97.7313 299.313 97.7639 298.905 97.3953Z" fill="#A34B25"/>
<path d="M295.463 101.208L292.494 98.5277C292.086 98.1592 292.053 97.5237 292.422 97.1154C292.79 96.7071 293.426 96.6746 293.834 97.0431L296.803 99.7232C297.212 100.092 297.244 100.727 296.876 101.136C296.507 101.544 295.872 101.576 295.463 101.208Z" fill="#A34B25"/>
<path d="M298.776 97.5379L295.807 94.8578C295.398 94.4893 295.366 93.8538 295.734 93.4455C296.103 93.0372 296.738 93.0046 297.147 93.3731L300.116 96.0532C300.524 96.4218 300.557 97.0573 300.188 97.4656C299.82 97.8739 299.184 97.9064 298.776 97.5379Z" fill="#DEB7A1"/>
<path d="M295.336 101.348L292.367 98.6684C291.959 98.2999 291.926 97.6643 292.295 97.256C292.663 96.8477 293.299 96.8152 293.707 97.1837L296.677 99.8638C297.085 100.232 297.117 100.868 296.749 101.276C296.38 101.684 295.745 101.717 295.336 101.348Z" fill="#DEB7A1"/>
<path d="M298.976 98.8075C299.796 99.5475 301.061 99.4828 301.801 98.6628C302.541 97.8429 302.477 96.5782 301.657 95.8381C300.837 95.098 299.572 95.1628 298.832 95.9827C298.092 96.8027 298.156 98.0674 298.976 98.8075Z" fill="#A34B25"/>
<path d="M295.537 102.62C296.357 103.36 297.622 103.295 298.362 102.475C299.102 101.655 299.037 100.391 298.217 99.6506C297.397 98.9105 296.132 98.9753 295.392 99.7952C294.652 100.615 294.717 101.88 295.537 102.62Z" fill="#A34B25"/>
<path d="M301.32 95.8983C302.137 96.6353 302.202 97.9064 301.465 98.723C301.197 99.0199 300.86 99.2142 300.504 99.3103C300.99 99.2642 301.454 99.0493 301.802 98.6633C302.539 97.8467 302.474 96.5756 301.657 95.8385C301.13 95.3628 300.422 95.2221 299.794 95.3958C300.336 95.3468 300.89 95.5096 301.32 95.8983Z" fill="#5C1F05"/>
<path d="M297.881 99.7108C298.698 100.448 298.763 101.719 298.026 102.535C297.758 102.832 297.421 103.027 297.064 103.123C297.551 103.077 298.014 102.862 298.362 102.476C299.099 101.659 299.034 100.388 298.218 99.651C297.691 99.1753 296.983 99.0346 296.354 99.2083C296.897 99.1593 297.45 99.3221 297.881 99.7108Z" fill="#5C1F05"/>
<path d="M298.978 98.8082C299.408 99.1968 299.962 99.3596 300.504 99.3106C300.861 99.2145 301.198 99.0202 301.466 98.7233C302.203 97.9067 302.138 96.6356 301.321 95.8986C300.89 95.5099 300.337 95.3471 299.794 95.3961C299.438 95.4923 299.101 95.6865 298.833 95.9835C298.096 96.8 298.161 98.0712 298.978 98.8082Z" fill="#A34B25"/>
<path d="M295.536 102.619C295.967 103.007 296.52 103.17 297.063 103.121C297.419 103.025 297.756 102.831 298.024 102.534C298.761 101.717 298.696 100.446 297.88 99.7091C297.449 99.3205 296.895 99.1577 296.353 99.2067C295.997 99.3028 295.66 99.4971 295.392 99.794C294.655 100.611 294.72 101.882 295.536 102.619Z" fill="#A34B25"/>
<path d="M284.771 88.9373L287.74 91.6174C288.148 91.9859 288.784 91.9534 289.152 91.5451C289.521 91.1368 289.488 90.5012 289.08 90.1327L286.111 87.4526C285.702 87.0841 285.067 87.1166 284.698 87.5249C284.33 87.9332 284.362 88.5688 284.771 88.9373Z" fill="#A34B25"/>
<path d="M281.329 92.7498L284.298 95.4299C284.707 95.7984 285.342 95.7659 285.711 95.3576C286.079 94.9493 286.047 94.3137 285.639 93.9452L282.669 91.2651C282.261 90.8966 281.625 90.9291 281.257 91.3374C280.888 91.7457 280.921 92.3813 281.329 92.7498Z" fill="#A34B25"/>
<path d="M284.642 89.0799L287.611 91.76C288.019 92.1285 288.655 92.0959 289.023 91.6877C289.392 91.2794 289.359 90.6438 288.951 90.2753L285.982 87.5952C285.573 87.2267 284.938 87.2592 284.569 87.6675C284.201 88.0758 284.233 88.7114 284.642 89.0799Z" fill="#DEB7A1"/>
<path d="M281.202 92.8904L284.172 95.5705C284.58 95.939 285.215 95.9065 285.584 95.4982C285.952 95.0899 285.92 94.4543 285.512 94.0858L282.542 91.4057C282.134 91.0372 281.498 91.0698 281.13 91.4781C280.761 91.8863 280.794 92.5219 281.202 92.8904Z" fill="#DEB7A1"/>
<path d="M283.359 89.0102C282.539 88.2701 282.474 87.0054 283.214 86.1854C283.954 85.3655 285.219 85.3007 286.039 86.0408C286.859 86.7809 286.923 88.0456 286.183 88.8655C285.443 89.6855 284.179 89.7503 283.359 89.0102Z" fill="#A34B25"/>
<path d="M279.917 92.8207C279.097 92.0806 279.033 90.816 279.773 89.996C280.513 89.176 281.777 89.1113 282.597 89.8514C283.417 90.5914 283.482 91.8561 282.742 92.6761C282.002 93.4961 280.737 93.5608 279.917 92.8207Z" fill="#A34B25"/>
<path d="M286.013 86.3815C285.196 85.6445 283.925 85.7096 283.188 86.5261C282.92 86.8231 282.761 87.1782 282.702 87.5423C282.698 87.0539 282.865 86.571 283.213 86.185C283.95 85.3684 285.221 85.3034 286.038 86.0404C286.565 86.5161 286.777 87.2062 286.669 87.849C286.662 87.3041 286.444 86.7701 286.013 86.3815Z" fill="#5C1F05"/>
<path d="M282.572 90.194C281.755 89.457 280.484 89.5221 279.747 90.3386C279.479 90.6356 279.32 90.9907 279.261 91.3548C279.257 90.8664 279.423 90.3835 279.772 89.9975C280.509 89.1809 281.78 89.1159 282.597 89.8529C283.124 90.3286 283.336 91.0187 283.227 91.6615C283.221 91.1166 283.002 90.5826 282.572 90.194Z" fill="#5C1F05"/>
<path d="M283.358 89.009C282.927 88.6203 282.709 88.0863 282.702 87.5415C282.761 87.1774 282.92 86.8223 283.188 86.5254C283.925 85.7088 285.196 85.6437 286.013 86.3807C286.444 86.7693 286.662 87.3033 286.669 87.8482C286.609 88.2123 286.451 88.5674 286.183 88.8643C285.446 89.6809 284.175 89.746 283.358 89.009Z" fill="#A34B25"/>
<path d="M279.918 92.8215C279.488 92.4328 279.269 91.8988 279.263 91.354C279.322 90.9899 279.481 90.6348 279.749 90.3379C280.486 89.5213 281.757 89.4562 282.574 90.1932C283.004 90.5818 283.223 91.1158 283.229 91.6607C283.17 92.0248 283.011 92.3799 282.743 92.6768C282.006 93.4934 280.735 93.5585 279.918 92.8215Z" fill="#A34B25"/>
<path fill-rule="evenodd" clip-rule="evenodd" d="M225.464 127.156C221.486 133.803 215.066 140.065 207.999 143.238C204.144 144.971 200.571 147.512 197.563 150.845C185.931 163.732 186.95 183.618 199.837 195.25C212.724 206.882 232.61 205.863 244.241 192.976C247.256 189.636 249.426 185.829 250.75 181.81C253.184 174.456 258.758 167.431 264.963 162.794C266.362 161.752 267.667 160.56 268.873 159.223C278.91 148.103 278.032 130.957 266.912 120.92C255.792 110.883 238.645 111.761 228.609 122.881C227.402 124.218 226.35 125.652 225.456 127.135L225.464 127.156Z" fill="#DEB7A1"/>
<path fill-rule="evenodd" clip-rule="evenodd" d="M225.464 127.156C221.486 133.803 215.066 140.065 207.999 143.238C204.144 144.971 200.571 147.512 197.563 150.845C185.931 163.732 186.95 183.618 199.837 195.25C212.724 206.882 232.61 205.863 244.241 192.976C247.256 189.636 249.426 185.829 250.75 181.81C253.184 174.456 258.758 167.431 264.963 162.794C266.362 161.752 267.667 160.56 268.873 159.223C278.91 148.103 278.032 130.957 266.912 120.92C255.792 110.883 238.645 111.761 228.609 122.881C227.402 124.218 226.35 125.652 225.456 127.135L225.464 127.156Z" fill="url(#paint1_linear_505_16188)"/>
<path d="M249.979 152.092C249.251 152.958 247.946 153.046 247.107 152.289L239.401 145.334C238.563 144.577 238.517 143.269 239.304 142.457L294.417 85.7542L300.749 91.4695L249.971 152.086L249.979 152.092Z" fill="#5C1F05"/>
<path d="M249.154 151.354C248.427 152.22 247.122 152.308 246.283 151.551L238.577 144.596C237.738 143.839 237.693 142.531 238.48 141.719L293.592 85.0159L299.925 90.7312L249.147 151.347L249.154 151.354Z" fill="#A44B26"/>
<path d="M224.15 180.771C225.023 179.969 225.016 178.603 224.141 177.812L216.621 171.025C215.745 170.234 214.378 170.375 213.676 171.317L198.006 192.454C197.086 193.698 197.259 195.431 198.41 196.469L200.696 198.533C201.847 199.572 203.589 199.567 204.732 198.525L224.158 180.778L224.15 180.771Z" fill="#5C1F05"/>
<path d="M203.644 197.542L223.2 179.913C224.071 179.124 224.024 177.707 223.088 176.862L216.062 170.52C215.125 169.675 213.711 169.773 213.014 170.72L197.475 191.975C196.562 193.225 196.802 195.018 198.033 196.129L199.462 197.419C200.693 198.53 202.501 198.585 203.652 197.55L203.644 197.542Z" fill="#A44B26"/>
<path d="M298.348 88.0293L220.044 176.337" stroke="#5C1F05" stroke-linecap="round"/>
<path d="M296.877 86.7032L217.059 173.644" stroke="#5C1F05" stroke-linecap="round"/>
<path d="M299.662 89.2168L222.455 178.488" stroke="#5C1F05" stroke-linecap="round"/>
<path d="M295.126 85.1353L214.483 171.318" stroke="#5C1F05" stroke-linecap="round"/>
<path d="M304.405 89.2804C307.571 87.3689 307.688 82.8004 304.662 80.0688C301.635 77.3373 297.096 77.928 295.525 81.2649L293.7 85.1146L300.754 91.4807L304.397 89.2729L304.405 89.2804Z" fill="url(#paint2_linear_505_16188)"/>
<path d="M230.216 170.634L221.234 162.527C220.736 162.078 220.69 161.309 221.145 160.804C221.594 160.307 222.364 160.26 222.869 160.716L231.851 168.823C232.348 169.272 232.395 170.041 231.939 170.546C231.49 171.044 230.721 171.09 230.216 170.634Z" fill="#AD6060"/>
<path d="M231.845 168.83L231.451 168.475C231.949 168.924 231.995 169.693 231.539 170.198C231.084 170.702 230.321 170.742 229.816 170.286L230.21 170.641C230.707 171.09 231.477 171.058 231.933 170.553C232.388 170.048 232.349 169.285 231.845 168.83Z" fill="#5C1F05"/>
<path d="M221.236 162.525L229.825 170.278C230.3 170.706 230.999 170.678 231.466 170.25C231.844 169.756 231.8 169.044 231.325 168.615L222.737 160.863C222.261 160.434 221.562 160.463 221.095 160.89C220.717 161.384 220.761 162.097 221.236 162.525Z" fill="#A44B26"/>
<path d="M229.321 145.954C230.031 146.594 231.125 146.538 231.765 145.829C232.405 145.12 232.349 144.026 231.64 143.386C230.93 142.746 229.837 142.802 229.196 143.511C228.556 144.22 228.612 145.314 229.321 145.954Z" fill="#5C1F05"/>
<path d="M206.892 159.12C207.601 159.76 208.695 159.704 209.335 158.995C209.975 158.286 209.919 157.192 209.21 156.552C208.501 155.912 207.407 155.968 206.767 156.677C206.126 157.386 206.182 158.48 206.892 159.12Z" fill="#5C1F05"/>
<path d="M231.096 145.079C231.433 144.737 231.865 143.645 230.68 142.63C229.206 141.353 224.348 142.019 219.261 150.387C214.181 158.761 210.829 161.878 208.367 160.262C206.838 159.031 207.283 158.18 207.376 157.495" stroke="#5C1F05" stroke-width="2"/>
<path d="M245.876 160.898C246.585 161.538 247.679 161.482 248.32 160.772C248.96 160.063 248.904 158.969 248.194 158.329C247.485 157.689 246.391 157.745 245.751 158.454C245.111 159.163 245.167 160.257 245.876 160.898Z" fill="#5C1F05"/>
<path d="M235.071 184.554C235.781 185.194 236.875 185.138 237.515 184.429C238.155 183.719 238.099 182.625 237.39 181.985C236.68 181.345 235.587 181.401 234.946 182.11C234.306 182.82 234.362 183.914 235.071 184.554Z" fill="#5C1F05"/>
<path d="M246.573 159.049C246.88 158.679 247.922 158.137 249.053 159.212C250.474 160.548 250.307 165.449 242.503 171.365C234.691 177.273 231.933 180.926 233.791 183.21C235.173 184.605 235.974 184.075 236.645 183.913" stroke="#5C1F05" stroke-width="2"/>
<path d="M221.25 162.538L229.973 170.142C230.448 170.571 231.148 170.542 231.614 170.115C231.594 170.137 231.589 170.173 231.562 170.202C231.113 170.7 230.344 170.746 229.839 170.291L221.25 162.538Z" fill="#5C1F05"/>
<defs>
<linearGradient id="paint0_linear_505_16188" x1="274.907" y1="124.111" x2="207.146" y2="199.185" gradientUnits="userSpaceOnUse">
<stop stop-color="#9E4725" stop-opacity="0"/>
<stop offset="1" stop-color="#511D07"/>
</linearGradient>
<linearGradient id="paint1_linear_505_16188" x1="230.632" y1="152.223" x2="213.862" y2="204.158" gradientUnits="userSpaceOnUse">
<stop stop-color="#DFB8A2" stop-opacity="0"/>
<stop offset="1" stop-color="#B36544"/>
</linearGradient>
<linearGradient id="paint2_linear_505_16188" x1="297.39" y1="83.9086" x2="300.213" y2="91.8385" gradientUnits="userSpaceOnUse">
<stop stop-color="#E0B9A3"/>
<stop offset="1" stop-color="#A44B25"/>
</linearGradient>
</defs>
</svg>
