<svg width="351" height="234" viewBox="0 0 351 234" fill="none" xmlns="http://www.w3.org/2000/svg">
<rect x="0.458984" y="0.828125" width="350" height="233" fill="#87B499"/>
<path d="M263.067 63.1868C263.238 63.0604 263.446 62.9922 263.659 62.9922H267.802C268.015 62.9922 268.223 63.0606 268.395 63.1873L313.323 96.3151C313.579 96.5036 313.729 96.8024 313.729 97.12V100.394C313.729 100.946 313.282 101.394 312.729 101.394H218.732C218.18 101.394 217.732 100.946 217.732 100.394V97.056C217.732 96.738 217.884 96.439 218.14 96.2506L263.067 63.1868Z" fill="#FFF5F3"/>
<path d="M268.57 63.3164L313.732 96.6666V101.445H284.933V96.602L268.57 63.3164Z" fill="#E8BBB1"/>
<rect x="222.533" y="101.395" width="86.3973" height="4.80018" rx="1" fill="#FFF5F3"/>
<path d="M222.533 101.395H308.931V103.795H222.533V101.395Z" fill="#E8BBB1"/>
<path d="M222.533 145.594C222.533 145.041 222.981 144.594 223.533 144.594H307.931C308.483 144.594 308.931 145.041 308.931 145.594V149.394H222.533V145.594Z" fill="#D77964"/>
<path d="M246.531 144.594H307.929C308.482 144.594 308.929 145.041 308.929 145.594V149.394H284.93L246.531 144.594Z" fill="#A84A36"/>
<path d="M217.732 150.391C217.732 149.838 218.18 149.391 218.732 149.391H312.729C313.282 149.391 313.729 149.838 313.729 150.391V157.991C313.729 158.543 313.282 158.991 312.729 158.991H218.732C218.18 158.991 217.732 158.543 217.732 157.991V150.391Z" fill="#FFF5F3"/>
<rect x="227.332" y="106.191" width="19.1994" height="38.4014" fill="#FFF5F3"/>
<path d="M227.332 106.191H246.531V132.592L227.332 115.792V106.191Z" fill="#E8BBB1"/>
<rect x="256.133" y="106.191" width="19.1994" height="38.4014" fill="#FFF5F3"/>
<rect x="284.93" y="106.191" width="19.1994" height="38.4014" fill="#FFF5F3"/>
<path d="M256.133 106.191H275.332V132.592L256.133 115.792V106.191Z" fill="#E8BBB1"/>
<path d="M284.93 106.191H304.129V132.592L284.93 115.792V106.191Z" fill="#E8BBB1"/>
</svg>
