<svg width="351" height="265" viewBox="0 0 351 265" fill="none" xmlns="http://www.w3.org/2000/svg">
<rect x="0.486328" y="0.992188" width="350" height="264" fill="#5292A7"/>
<path d="M203.998 197.224C203.897 197.321 203.781 197.405 203.671 197.481C202.543 198.254 201.009 198.177 199.963 197.232L200.913 198.09C201.974 199.048 203.549 199.109 204.683 198.286C204.73 198.248 204.778 198.21 204.832 198.165C204.866 198.128 204.907 198.098 204.948 198.067" fill="#AD6060"/>
<path d="M249.457 193.02C252.472 189.679 254.62 185.852 255.913 181.807C258.288 174.399 263.847 167.36 270.083 162.75C271.488 161.715 272.801 160.529 274.007 159.193C284.044 148.073 282.921 130.706 271.496 120.394C264.645 114.21 255.638 111.98 247.365 113.579C254.367 113.164 261.528 115.439 267.155 120.517C278.276 130.554 279.154 147.7 269.117 158.821C267.911 160.157 266.591 161.35 265.207 162.391C259.001 167.028 253.428 174.054 250.993 181.407C249.662 185.419 247.5 189.233 244.485 192.573C238.508 199.195 217.996 200.564 209.731 200.81C208.484 200.237 215.834 204.123 223.732 205.149C232.37 206.264 243.253 199.908 249.464 193.027L249.457 193.02Z" fill="#782B2B"/>
<path d="M249.457 193.02C252.472 189.679 254.62 185.852 255.913 181.807C258.288 174.399 263.847 167.36 270.083 162.75C271.488 161.715 272.801 160.529 274.007 159.193C284.044 148.073 282.921 130.706 271.496 120.394C264.645 114.21 255.638 111.98 247.365 113.579C254.367 113.164 261.528 115.439 267.155 120.517C278.276 130.554 279.154 147.7 269.117 158.821C267.911 160.157 266.591 161.35 265.207 162.391C259.001 167.028 253.428 174.054 250.993 181.407C249.662 185.419 247.5 189.233 244.485 192.573C238.508 199.195 217.996 200.564 209.731 200.81C208.484 200.237 215.834 204.123 223.732 205.149C232.37 206.264 243.253 199.908 249.464 193.027L249.457 193.02Z" fill="url(#paint0_linear_505_16187)"/>
<path d="M299.143 96.9715L296.174 94.2914C295.765 93.9229 295.733 93.2873 296.101 92.8791C296.47 92.4708 297.106 92.4382 297.514 92.8067L300.483 95.4868C300.891 95.8553 300.924 96.4909 300.556 96.8992C300.187 97.3075 299.551 97.34 299.143 96.9715Z" fill="#AD6060"/>
<path d="M295.702 100.784L292.732 98.1039C292.324 97.7354 292.292 97.0998 292.66 96.6916C293.029 96.2833 293.664 96.2507 294.072 96.6192L297.042 99.2993C297.45 99.6678 297.483 100.303 297.114 100.712C296.746 101.12 296.11 101.153 295.702 100.784Z" fill="#AD6060"/>
<path d="M299.014 97.1141L296.045 94.434C295.637 94.0655 295.604 93.4299 295.973 93.0216C296.341 92.6133 296.977 92.5808 297.385 92.9493L300.354 95.6294C300.763 95.9979 300.795 96.6335 300.427 97.0418C300.058 97.4501 299.423 97.4826 299.014 97.1141Z" fill="#DEA1A1"/>
<path d="M295.575 100.925L292.605 98.2445C292.197 97.876 292.165 97.2405 292.533 96.8322C292.902 96.4239 293.537 96.3914 293.945 96.7599L296.915 99.44C297.323 99.8085 297.356 100.444 296.987 100.852C296.619 101.261 295.983 101.293 295.575 100.925Z" fill="#DEA1A1"/>
<path d="M299.215 98.3836C300.035 99.1237 301.299 99.059 302.039 98.239C302.78 97.419 302.715 96.1544 301.895 95.4143C301.075 94.6742 299.81 94.7389 299.07 95.5589C298.33 96.3789 298.395 97.6435 299.215 98.3836Z" fill="#AD6060"/>
<path d="M295.775 102.196C296.595 102.936 297.86 102.871 298.6 102.051C299.34 101.232 299.275 99.9669 298.455 99.2268C297.635 98.4867 296.371 98.5514 295.631 99.3714C294.891 100.191 294.955 101.456 295.775 102.196Z" fill="#AD6060"/>
<path d="M301.559 95.4744C302.375 96.2115 302.44 97.4826 301.703 98.2992C301.435 98.5961 301.098 98.7904 300.742 98.8865C301.228 98.8403 301.692 98.6254 302.04 98.2394C302.777 97.4229 302.712 96.1517 301.896 95.4147C301.369 94.939 300.66 94.7982 300.032 94.972C300.575 94.923 301.128 95.0858 301.559 95.4744Z" fill="#872626"/>
<path d="M298.119 99.2869C298.936 100.024 299.001 101.295 298.264 102.112C297.996 102.409 297.659 102.603 297.303 102.699C297.789 102.653 298.252 102.438 298.601 102.052C299.338 101.235 299.273 99.9642 298.456 99.2272C297.929 98.7515 297.221 98.6107 296.593 98.7845C297.135 98.7355 297.689 98.8983 298.119 99.2869Z" fill="#872626"/>
<path d="M299.216 98.3844C299.647 98.773 300.2 98.9358 300.743 98.8868C301.099 98.7907 301.436 98.5964 301.704 98.2995C302.441 97.4829 302.376 96.2118 301.559 95.4747C301.129 95.0861 300.575 94.9233 300.033 94.9723C299.676 95.0684 299.339 95.2627 299.071 95.5596C298.334 96.3762 298.399 97.6473 299.216 98.3844Z" fill="#AD6060"/>
<path d="M295.775 102.195C296.205 102.584 296.759 102.746 297.301 102.697C297.657 102.601 297.994 102.407 298.262 102.11C299 101.293 298.934 100.022 298.118 99.2853C297.687 98.8967 297.134 98.7338 296.591 98.7829C296.235 98.879 295.898 99.0733 295.63 99.3702C294.893 100.187 294.958 101.458 295.775 102.195Z" fill="#AD6060"/>
<path d="M285.009 88.5135L287.978 91.1936C288.386 91.5621 289.022 91.5295 289.391 91.1212C289.759 90.713 289.726 90.0774 289.318 89.7089L286.349 87.0288C285.941 86.6603 285.305 86.6928 284.936 87.1011C284.568 87.5094 284.601 88.145 285.009 88.5135Z" fill="#AD6060"/>
<path d="M281.567 92.326L284.537 95.0061C284.945 95.3746 285.581 95.342 285.949 94.9337C286.318 94.5255 286.285 93.8899 285.877 93.5214L282.907 90.8413C282.499 90.4728 281.864 90.5053 281.495 90.9136C281.127 91.3219 281.159 91.9575 281.567 92.326Z" fill="#AD6060"/>
<path d="M284.88 88.656L287.849 91.3361C288.258 91.7047 288.893 91.6721 289.262 91.2638C289.63 90.8555 289.598 90.22 289.189 89.8515L286.22 87.1714C285.812 86.8029 285.176 86.8354 284.808 87.2437C284.439 87.652 284.472 88.2875 284.88 88.656Z" fill="#DEA1A1"/>
<path d="M281.44 92.4666L284.41 95.1467C284.818 95.5152 285.454 95.4827 285.822 95.0744C286.191 94.6661 286.158 94.0305 285.75 93.662L282.78 90.9819C282.372 90.6134 281.737 90.6459 281.368 91.0542C281 91.4625 281.032 92.0981 281.44 92.4666Z" fill="#DEA1A1"/>
<path d="M283.597 88.5863C282.777 87.8463 282.712 86.5816 283.452 85.7616C284.192 84.9417 285.457 84.8769 286.277 85.617C287.097 86.3571 287.162 87.6217 286.422 88.4417C285.682 89.2617 284.417 89.3264 283.597 88.5863Z" fill="#AD6060"/>
<path d="M280.156 92.3969C279.336 91.6568 279.271 90.3921 280.011 89.5722C280.751 88.7522 282.016 88.6874 282.836 89.4275C283.656 90.1676 283.72 91.4323 282.98 92.2523C282.24 93.0722 280.976 93.137 280.156 92.3969Z" fill="#AD6060"/>
<path d="M286.251 85.9577C285.435 85.2207 284.164 85.2857 283.427 86.1023C283.159 86.3993 283 86.7543 282.94 87.1185C282.937 86.6301 283.103 86.1472 283.452 85.7612C284.189 84.9446 285.46 84.8795 286.276 85.6165C286.803 86.0923 287.016 86.7823 286.907 87.4251C286.9 86.8803 286.682 86.3463 286.251 85.9577Z" fill="#872626"/>
<path d="M282.81 89.7702C281.993 89.0332 280.722 89.0982 279.985 89.9148C279.717 90.2118 279.558 90.5668 279.499 90.931C279.495 90.4426 279.662 89.9597 280.01 89.5737C280.747 88.7571 282.018 88.692 282.835 89.429C283.362 89.9048 283.574 90.5948 283.466 91.2376C283.459 90.6928 283.24 90.1588 282.81 89.7702Z" fill="#872626"/>
<path d="M283.596 88.5851C283.166 88.1965 282.947 87.6625 282.94 87.1177C283 86.7535 283.159 86.3985 283.427 86.1015C284.164 85.285 285.435 85.2199 286.251 85.9569C286.682 86.3455 286.9 86.8795 286.907 87.4244C286.848 87.7885 286.689 88.1436 286.421 88.4405C285.684 89.2571 284.413 89.3222 283.596 88.5851Z" fill="#AD6060"/>
<path d="M280.157 92.3976C279.726 92.009 279.508 91.475 279.501 90.9302C279.56 90.566 279.719 90.211 279.987 89.914C280.724 89.0975 281.995 89.0324 282.812 89.7694C283.242 90.158 283.461 90.692 283.468 91.2369C283.408 91.601 283.249 91.9561 282.981 92.253C282.244 93.0696 280.973 93.1347 280.157 92.3976Z" fill="#AD6060"/>
<path fill-rule="evenodd" clip-rule="evenodd" d="M225.703 126.732C221.724 133.379 215.304 139.641 208.237 142.814C204.382 144.548 200.81 147.088 197.801 150.421C186.17 163.308 187.188 183.195 200.075 194.826C212.962 206.458 232.848 205.44 244.48 192.552C247.495 189.212 249.665 185.405 250.988 181.386C253.422 174.033 258.996 167.007 265.202 162.37C266.6 161.328 267.905 160.136 269.111 158.8C279.148 147.679 278.27 130.533 267.15 120.496C256.03 110.459 238.884 111.337 228.847 122.458C227.641 123.794 226.588 125.228 225.694 126.711L225.703 126.732Z" fill="#DEA1A1"/>
<path fill-rule="evenodd" clip-rule="evenodd" d="M225.703 126.732C221.724 133.379 215.304 139.641 208.237 142.814C204.382 144.548 200.81 147.088 197.801 150.421C186.17 163.308 187.188 183.195 200.075 194.826C212.962 206.458 232.848 205.44 244.48 192.552C247.495 189.212 249.665 185.405 250.988 181.386C253.422 174.033 258.996 167.007 265.202 162.37C266.6 161.328 267.905 160.136 269.111 158.8C279.148 147.679 278.27 130.533 267.15 120.496C256.03 110.459 238.884 111.337 228.847 122.458C227.641 123.794 226.588 125.228 225.694 126.711L225.703 126.732Z" fill="url(#paint1_linear_505_16187)"/>
<path d="M250.217 151.669C249.489 152.534 248.184 152.622 247.345 151.865L239.64 144.91C238.801 144.153 238.755 142.846 239.542 142.034L294.655 85.3304L300.987 91.0457L250.209 151.662L250.217 151.669Z" fill="#6B2121"/>
<path d="M249.393 150.93C248.665 151.796 247.36 151.884 246.521 151.127L238.816 144.172C237.977 143.415 237.931 142.107 238.718 141.295L293.831 84.5921L300.163 90.3074L249.385 150.924L249.393 150.93Z" fill="#AD6060"/>
<path d="M224.389 180.347C225.261 179.545 225.255 178.179 224.379 177.388L216.859 170.601C215.983 169.81 214.617 169.951 213.914 170.893L198.244 192.03C197.324 193.274 197.498 195.007 198.648 196.046L200.935 198.109C202.085 199.148 203.827 199.144 204.97 198.101L224.396 180.354L224.389 180.347Z" fill="#6B2121"/>
<path d="M204.012 197.237L223.439 179.49C224.304 178.695 224.305 177.321 223.429 176.531L216.859 170.601C215.983 169.81 214.617 169.951 213.914 170.893L198.244 192.03C197.324 193.274 197.498 195.007 198.648 196.046L199.985 197.252C201.135 198.29 202.877 198.286 204.02 197.243L204.012 197.237Z" fill="#AD6060"/>
<path d="M298.586 87.6055L220.282 175.913" stroke="#782B2B" stroke-linecap="round"/>
<path d="M297.115 86.2794L217.297 173.22" stroke="#782B2B" stroke-linecap="round"/>
<path d="M299.9 88.793L222.694 178.064" stroke="#782B2B" stroke-linecap="round"/>
<path d="M295.365 84.7115L214.722 170.895" stroke="#782B2B" stroke-linecap="round"/>
<path d="M304.644 88.8565C307.809 86.9451 307.926 82.3765 304.9 79.645C301.874 76.9135 297.334 77.5041 295.763 80.8411L293.939 84.6908L300.992 91.0569L304.635 88.8491L304.644 88.8565Z" fill="url(#paint2_linear_505_16187)"/>
<path d="M230.454 170.211L221.472 162.103C220.975 161.654 220.928 160.885 221.384 160.38C221.833 159.883 222.602 159.836 223.107 160.292L232.089 168.399C232.587 168.848 232.633 169.618 232.177 170.122C231.728 170.62 230.959 170.666 230.454 170.211Z" fill="#AD6060"/>
<path d="M232.083 168.406L231.689 168.051C232.187 168.5 232.233 169.269 231.778 169.774C231.322 170.279 230.559 170.318 230.055 169.862L230.448 170.217C230.945 170.666 231.716 170.634 232.171 170.129C232.627 169.624 232.588 168.862 232.083 168.406Z" fill="#782B2B"/>
<path d="M221.474 162.102L230.063 169.854C230.538 170.283 231.237 170.254 231.704 169.826C232.082 169.333 232.039 168.62 231.564 168.191L222.975 160.439C222.5 160.01 221.8 160.039 221.334 160.466C220.955 160.96 220.999 161.673 221.474 162.102Z" fill="#AD6060"/>
<path d="M229.56 145.53C230.269 146.171 231.363 146.115 232.003 145.405C232.643 144.696 232.587 143.602 231.878 142.962C231.169 142.322 230.075 142.378 229.435 143.087C228.794 143.796 228.85 144.89 229.56 145.53Z" fill="#782B2B"/>
<path d="M207.13 158.696C207.839 159.337 208.933 159.281 209.573 158.571C210.214 157.862 210.158 156.768 209.448 156.128C208.739 155.488 207.645 155.544 207.005 156.253C206.365 156.962 206.421 158.056 207.13 158.696Z" fill="#782B2B"/>
<path d="M231.334 144.656C231.671 144.313 232.104 143.221 230.919 142.206C229.444 140.929 224.586 141.596 219.499 149.963C214.419 158.337 211.067 161.454 208.605 159.838C207.077 158.607 207.521 157.756 207.614 157.071" stroke="#782B2B" stroke-width="2"/>
<path d="M246.114 160.474C246.824 161.114 247.918 161.058 248.558 160.349C249.198 159.639 249.142 158.545 248.433 157.905C247.723 157.265 246.629 157.321 245.989 158.03C245.349 158.74 245.405 159.834 246.114 160.474Z" fill="#782B2B"/>
<path d="M235.31 184.13C236.019 184.77 237.113 184.714 237.753 184.005C238.393 183.296 238.337 182.202 237.628 181.561C236.919 180.921 235.825 180.977 235.185 181.687C234.544 182.396 234.6 183.49 235.31 184.13Z" fill="#782B2B"/>
<path d="M246.812 158.625C247.118 158.255 248.16 157.713 249.291 158.788C250.712 160.125 250.545 165.026 242.741 170.941C234.929 176.849 232.171 180.502 234.03 182.786C235.411 184.181 236.212 183.651 236.884 183.49" stroke="#782B2B" stroke-width="2"/>
<path d="M221.489 162.115L230.211 169.718C230.687 170.147 231.386 170.118 231.853 169.691C231.833 169.713 231.827 169.749 231.801 169.779C231.352 170.276 230.582 170.322 230.077 169.867L221.489 162.115Z" fill="#782B2B"/>
<defs>
<linearGradient id="paint0_linear_505_16187" x1="275.145" y1="123.687" x2="207.385" y2="198.761" gradientUnits="userSpaceOnUse">
<stop stop-color="#782B2B" stop-opacity="0"/>
<stop offset="1" stop-color="#500B0B"/>
</linearGradient>
<linearGradient id="paint1_linear_505_16187" x1="230.871" y1="151.799" x2="214.1" y2="203.734" gradientUnits="userSpaceOnUse">
<stop stop-color="#DEA1A1" stop-opacity="0"/>
<stop offset="1" stop-color="#AD6060"/>
</linearGradient>
<linearGradient id="paint2_linear_505_16187" x1="297.628" y1="83.4848" x2="300.451" y2="91.4147" gradientUnits="userSpaceOnUse">
<stop stop-color="#DEA1A1"/>
<stop offset="1" stop-color="#AD6060"/>
</linearGradient>
</defs>
</svg>
