<svg width="351" height="265" viewBox="0 0 351 265" fill="none" xmlns="http://www.w3.org/2000/svg">
<rect x="0.787109" y="0.375" width="350" height="264" fill="#E09064"/>
<path d="M173.871 170.143C173.871 166.829 176.557 164.143 179.871 164.143H191.607C194.921 164.143 197.607 166.829 197.607 170.143V185.643C197.607 188.956 194.921 191.643 191.607 191.643H179.871C176.557 191.643 173.871 188.956 173.871 185.643V170.143Z" fill="#2C190E"/>
<path d="M279.719 170.143C279.719 166.829 282.405 164.143 285.719 164.143H297.455C300.769 164.143 303.455 166.829 303.455 170.143V185.643C303.455 188.956 300.769 191.643 297.455 191.643H285.719C282.405 191.643 279.719 188.956 279.719 185.643V170.143Z" fill="#2C190E"/>
<path d="M225.877 79.4286C226.065 78.4953 226.885 77.8242 227.837 77.8242H250.131C251.083 77.8242 251.903 78.4953 252.092 79.4286L254.117 89.4648H223.852L225.877 79.4286Z" fill="#532626"/>
<path d="M186.959 93.5283C187.488 90.6863 189.968 88.625 192.858 88.625H284.466C287.357 88.625 289.836 90.6863 290.365 93.5283L298.787 138.832H178.537L186.959 93.5283Z" fill="#389282"/>
<path d="M298.787 138.832L290.365 93.5283C289.836 90.6863 287.357 88.625 284.466 88.625H193.48L224.98 138.832H298.787Z" fill="#246B5E"/>
<path d="M229.512 86.6658V80.5293H231.817C233.224 80.5293 233.974 81.3854 233.978 82.5635C233.974 83.7374 233.216 84.5892 231.8 84.5892H230.614V86.6658H229.512ZM230.614 83.6823H231.648C232.478 83.678 232.851 83.2119 232.851 82.5635C232.851 81.9066 232.478 81.4532 231.648 81.4532H230.614V83.6823Z" fill="#913A3A"/>
<path d="M235.199 86.7336C234.835 86.7336 234.534 86.4369 234.538 86.0725C234.534 85.7165 234.835 85.4241 235.199 85.4198C235.551 85.4241 235.852 85.7165 235.852 86.0725C235.852 86.4369 235.551 86.7336 235.199 86.7336Z" fill="#913A3A"/>
<path d="M236.945 86.6658V80.5293H239.25C240.657 80.5293 241.407 81.3854 241.412 82.5635C241.407 83.7374 240.649 84.5892 239.233 84.5892H238.047V86.6658H236.945ZM238.047 83.6823H239.081C239.911 83.678 240.284 83.2119 240.284 82.5635C240.284 81.9066 239.911 81.4532 239.081 81.4532H238.047V83.6823Z" fill="#913A3A"/>
<path d="M243.336 80.5293V86.6658H242.251V80.5293H243.336Z" fill="#913A3A"/>
<path d="M246.412 86.759C245.027 86.759 244.175 85.8351 244.175 84.3943C244.175 82.9703 245.039 82.0041 246.353 82.0041C247.48 82.0041 248.455 82.7118 248.455 84.3264V84.6655H245.243C245.26 85.4495 245.722 85.9157 246.421 85.9114C246.896 85.9157 247.213 85.7122 247.353 85.4368H248.413C248.218 86.2335 247.48 86.759 246.412 86.759ZM245.247 83.9281H247.421C247.417 83.3009 246.993 82.8432 246.37 82.8432C245.722 82.8432 245.285 83.3433 245.247 83.9281Z" fill="#913A3A"/>
<path d="M191.267 96.8998C191.617 95.0023 193.272 93.625 195.201 93.625H282.123C284.053 93.625 285.707 95.0023 286.057 96.8998L293.787 138.832H183.537L191.267 96.8998Z" fill="#97BCB5"/>
<path d="M293.787 138.832L286.057 96.8998C285.708 95.0023 284.053 93.625 282.124 93.625H196.598L225.913 138.832H293.787Z" fill="#799993"/>
<path d="M178.537 138.832H298.787L308.787 149.039H168.537L178.537 138.832Z" fill="#42AE9A"/>
<path d="M168.537 149.039H308.787V169.246C308.787 174.769 304.31 179.246 298.787 179.246H178.537C173.014 179.246 168.537 174.769 168.537 169.246V149.039Z" fill="#389281"/>
<path d="M308.787 169.246V149.039H194.104L232.911 179.246H298.787C304.31 179.246 308.787 174.769 308.787 169.246Z" fill="#286559"/>
<rect x="215.832" y="159.891" width="46.3057" height="13.7715" fill="#532626"/>
<path d="M262.138 159.891H215.832V166.012L225.812 173.662H262.138V159.891Z" fill="#3E1616"/>
<rect x="218.051" y="162.047" width="41.8682" height="9.45898" fill="#784444"/>
<path d="M259.919 162.047H218.051V167.698L223.167 171.506H259.919V162.047Z" fill="#673737"/>
<g filter="url(#filter0_i_516_14776)">
<circle cx="185.737" cy="166.843" r="6.81934" fill="#532626"/>
</g>
<g filter="url(#filter1_i_516_14776)">
<circle cx="291.585" cy="166.843" r="6.81934" fill="#532626"/>
</g>
<path d="M229.512 169.799V163.662H231.817C233.224 163.662 233.974 164.518 233.978 165.696C233.974 166.87 233.216 167.722 231.8 167.722H230.614V169.799H229.512ZM230.614 166.815H231.648C232.478 166.811 232.851 166.345 232.851 165.696C232.851 165.039 232.478 164.586 231.648 164.586H230.614V166.815Z" fill="#4B0F0F"/>
<path d="M235.199 169.866C234.835 169.866 234.534 169.57 234.538 169.205C234.534 168.849 234.835 168.557 235.199 168.553C235.551 168.557 235.852 168.849 235.852 169.205C235.852 169.57 235.551 169.866 235.199 169.866Z" fill="#4B0F0F"/>
<path d="M236.945 169.799V163.662H239.25C240.657 163.662 241.407 164.518 241.412 165.696C241.407 166.87 240.649 167.722 239.233 167.722H238.047V169.799H236.945ZM238.047 166.815H239.081C239.911 166.811 240.284 166.345 240.284 165.696C240.284 165.039 239.911 164.586 239.081 164.586H238.047V166.815Z" fill="#4B0F0F"/>
<path d="M243.336 163.662V169.799H242.251V163.662H243.336Z" fill="#4B0F0F"/>
<path d="M246.412 169.892C245.027 169.892 244.175 168.968 244.175 167.527C244.175 166.103 245.039 165.137 246.353 165.137C247.48 165.137 248.455 165.845 248.455 167.459V167.798H245.243C245.26 168.582 245.722 169.048 246.421 169.044C246.896 169.048 247.213 168.845 247.353 168.57H248.413C248.218 169.366 247.48 169.892 246.412 169.892ZM245.247 167.061H247.421C247.417 166.434 246.993 165.976 246.37 165.976C245.722 165.976 245.285 166.476 245.247 167.061Z" fill="#4B0F0F"/>
<path d="M295.894 119.229C295.956 118.728 296.381 118.352 296.886 118.352H298.787L297.106 130.438L295.002 126.479L295.894 119.229Z" fill="#246B5E"/>
<path d="M296.895 118.352H302.305C304.165 118.352 305.673 119.86 305.673 121.72C305.673 123.58 304.165 125.088 302.305 125.088H296.895V118.352Z" fill="#246B5E"/>
<path d="M296.895 119.506C296.895 119.421 296.963 119.352 297.049 119.352H302.305C303.613 119.352 304.673 120.412 304.673 121.72C304.673 123.028 303.613 124.088 302.305 124.088H297.049C296.963 124.088 296.895 124.019 296.895 123.934V119.506Z" fill="#799993"/>
<path d="M181.43 119.229C181.369 118.728 180.943 118.352 180.438 118.352H178.537L180.218 130.438L182.322 126.479L181.43 119.229Z" fill="#389281"/>
<path d="M180.43 118.352H175.02C173.159 118.352 171.651 119.86 171.651 121.72C171.651 123.58 173.159 125.088 175.02 125.088H180.43V118.352Z" fill="#389281"/>
<path d="M180.43 119.506C180.43 119.421 180.361 119.352 180.276 119.352H175.02C173.712 119.352 172.651 120.412 172.651 121.72C172.651 123.028 173.712 124.088 175.02 124.088H180.276C180.361 124.088 180.43 124.019 180.43 123.934V119.506Z" fill="#97BCB5"/>
<defs>
<filter id="filter0_i_516_14776" x="178.918" y="160.023" width="14.1387" height="14.1387" filterUnits="userSpaceOnUse" color-interpolation-filters="sRGB">
<feFlood flood-opacity="0" result="BackgroundImageFix"/>
<feBlend mode="normal" in="SourceGraphic" in2="BackgroundImageFix" result="shape"/>
<feColorMatrix in="SourceAlpha" type="matrix" values="0 0 0 0 0 0 0 0 0 0 0 0 0 0 0 0 0 0 127 0" result="hardAlpha"/>
<feOffset dx="0.5" dy="1.5"/>
<feGaussianBlur stdDeviation="0.25"/>
<feComposite in2="hardAlpha" operator="arithmetic" k2="-1" k3="1"/>
<feColorMatrix type="matrix" values="0 0 0 0 0.745833 0 0 0 0 0.279687 0 0 0 0 0.279687 0 0 0 0.25 0"/>
<feBlend mode="normal" in2="shape" result="effect1_innerShadow_516_14776"/>
</filter>
<filter id="filter1_i_516_14776" x="284.766" y="160.023" width="14.1387" height="14.1387" filterUnits="userSpaceOnUse" color-interpolation-filters="sRGB">
<feFlood flood-opacity="0" result="BackgroundImageFix"/>
<feBlend mode="normal" in="SourceGraphic" in2="BackgroundImageFix" result="shape"/>
<feColorMatrix in="SourceAlpha" type="matrix" values="0 0 0 0 0 0 0 0 0 0 0 0 0 0 0 0 0 0 127 0" result="hardAlpha"/>
<feOffset dx="0.5" dy="1.5"/>
<feGaussianBlur stdDeviation="0.25"/>
<feComposite in2="hardAlpha" operator="arithmetic" k2="-1" k3="1"/>
<feColorMatrix type="matrix" values="0 0 0 0 0.745833 0 0 0 0 0.279687 0 0 0 0 0.279687 0 0 0 0.25 0"/>
<feBlend mode="normal" in2="shape" result="effect1_innerShadow_516_14776"/>
</filter>
</defs>
</svg>
