<svg width="351" height="265" viewBox="0 0 351 265" fill="none" xmlns="http://www.w3.org/2000/svg">
<rect x="0.787109" y="0.216797" width="350" height="264" fill="#D57070"/>
<path d="M175.348 164.672C175.348 161.358 178.034 158.672 181.348 158.672H193.084C196.398 158.672 199.084 161.358 199.084 164.672V180.172C199.084 183.486 196.398 186.172 193.084 186.172H181.348C178.034 186.172 175.348 183.486 175.348 180.172V164.672Z" fill="#200909"/>
<path d="M281.195 164.672C281.195 161.358 283.882 158.672 287.195 158.672H298.932C302.245 158.672 304.932 161.358 304.932 164.672V180.172C304.932 183.486 302.245 186.172 298.932 186.172H287.195C283.882 186.172 281.195 183.486 281.195 180.172V164.672Z" fill="#200909"/>
<path d="M227.354 73.9579C227.542 73.0246 228.362 72.3535 229.314 72.3535H251.608C252.56 72.3535 253.38 73.0246 253.568 73.9579L255.594 83.9941H225.328L227.354 73.9579Z" fill="#FFC7C7"/>
<path d="M188.436 88.0576C188.964 85.2156 191.444 83.1543 194.335 83.1543H285.942C288.833 83.1543 291.313 85.2156 291.841 88.0576L300.264 133.361H180.014L188.436 88.0576Z" fill="#347E8D"/>
<path d="M300.264 133.361L291.841 88.0576C291.313 85.2156 288.833 83.1543 285.942 83.1543H194.957L226.457 133.361H300.264Z" fill="#245F6B"/>
<path d="M230.988 81.1951V75.0586H233.294C234.701 75.0586 235.451 75.9146 235.455 77.0928C235.451 78.2667 234.692 79.1185 233.277 79.1185H232.09V81.1951H230.988ZM232.09 78.2116H233.124C233.955 78.2073 234.328 77.7412 234.328 77.0928C234.328 76.4359 233.955 75.9825 233.124 75.9825H232.09V78.2116Z" fill="#CF7E7E"/>
<path d="M236.676 81.2629C236.311 81.2629 236.01 80.9662 236.014 80.6018C236.01 80.2458 236.311 79.9534 236.676 79.9491C237.027 79.9534 237.328 80.2458 237.328 80.6018C237.328 80.9662 237.027 81.2629 236.676 81.2629Z" fill="#CF7E7E"/>
<path d="M238.422 81.1951V75.0586H240.727C242.134 75.0586 242.884 75.9146 242.888 77.0928C242.884 78.2667 242.125 79.1185 240.71 79.1185H239.523V81.1951H238.422ZM239.523 78.2116H240.557C241.388 78.2073 241.761 77.7412 241.761 77.0928C241.761 76.4359 241.388 75.9825 240.557 75.9825H239.523V78.2116Z" fill="#CF7E7E"/>
<path d="M244.812 75.0586V81.1951H243.727V75.0586H244.812Z" fill="#CF7E7E"/>
<path d="M247.889 81.2883C246.503 81.2883 245.651 80.3644 245.651 78.9235C245.651 77.4996 246.516 76.5334 247.83 76.5334C248.957 76.5334 249.932 77.2411 249.932 78.8557V79.1948H246.719C246.736 79.9788 247.198 80.4449 247.897 80.4407C248.372 80.4449 248.69 80.2415 248.83 79.9661H249.889C249.694 80.7628 248.957 81.2883 247.889 81.2883ZM246.724 78.4574H248.898C248.893 77.8302 248.47 77.3725 247.847 77.3725C247.198 77.3725 246.762 77.8726 246.724 78.4574Z" fill="#CF7E7E"/>
<path d="M192.744 91.4291C193.094 89.5316 194.748 88.1543 196.678 88.1543H283.6C285.529 88.1543 287.184 89.5316 287.534 91.4291L295.264 133.361H185.014L192.744 91.4291Z" fill="#86B7C1"/>
<path d="M295.264 133.361L287.534 91.4291C287.184 89.5316 285.53 88.1543 283.6 88.1543H198.074L227.39 133.361H295.264Z" fill="#6C99A3"/>
<path d="M180.014 133.361H300.264L310.264 143.568H170.014L180.014 133.361Z" fill="#5CB0C1"/>
<path d="M170.014 143.568H310.264V163.775C310.264 169.298 305.787 173.775 300.264 173.775H180.014C174.491 173.775 170.014 169.298 170.014 163.775V143.568Z" fill="#347E8D"/>
<path d="M310.264 163.775V143.568H195.58L234.387 173.775H300.264C305.786 173.775 310.264 169.298 310.264 163.775Z" fill="#245F6B"/>
<rect x="217.309" y="154.42" width="46.3057" height="13.7715" fill="#FFC7C7"/>
<path d="M263.614 154.42H217.309V160.541L227.288 168.191H263.614V154.42Z" fill="#9B5050"/>
<rect x="219.527" y="156.576" width="41.8682" height="9.45898" fill="#C76E6E"/>
<path d="M261.396 156.576H219.527V162.227L224.643 166.035H261.396V156.576Z" fill="#933838"/>
<g filter="url(#filter0_i_516_14777)">
<circle cx="187.214" cy="161.372" r="6.81934" fill="#FFC7C7"/>
</g>
<g filter="url(#filter1_i_516_14777)">
<circle cx="293.062" cy="161.372" r="6.81934" fill="#FFC7C7"/>
</g>
<path d="M230.988 164.328V158.191H233.294C234.701 158.191 235.451 159.047 235.455 160.226C235.451 161.399 234.692 162.251 233.277 162.251H232.09V164.328H230.988ZM232.09 161.344H233.124C233.955 161.34 234.328 160.874 234.328 160.226C234.328 159.569 233.955 159.115 233.124 159.115H232.09V161.344Z" fill="#842323"/>
<path d="M236.676 164.396C236.311 164.396 236.01 164.099 236.014 163.735C236.01 163.379 236.311 163.086 236.676 163.082C237.027 163.086 237.328 163.379 237.328 163.735C237.328 164.099 237.027 164.396 236.676 164.396Z" fill="#842323"/>
<path d="M238.422 164.328V158.191H240.727C242.134 158.191 242.884 159.047 242.888 160.226C242.884 161.399 242.125 162.251 240.71 162.251H239.523V164.328H238.422ZM239.523 161.344H240.557C241.388 161.34 241.761 160.874 241.761 160.226C241.761 159.569 241.388 159.115 240.557 159.115H239.523V161.344Z" fill="#842323"/>
<path d="M244.812 158.191V164.328H243.727V158.191H244.812Z" fill="#842323"/>
<path d="M247.889 164.421C246.503 164.421 245.651 163.497 245.651 162.056C245.651 160.632 246.516 159.666 247.83 159.666C248.957 159.666 249.932 160.374 249.932 161.989V162.328H246.719C246.736 163.112 247.198 163.578 247.897 163.574C248.372 163.578 248.69 163.374 248.83 163.099H249.889C249.694 163.896 248.957 164.421 247.889 164.421ZM246.724 161.59H248.898C248.893 160.963 248.47 160.505 247.847 160.505C247.198 160.505 246.762 161.005 246.724 161.59Z" fill="#842323"/>
<path d="M297.37 113.759C297.432 113.257 297.858 112.881 298.363 112.881H300.264L298.583 124.967L296.479 121.008L297.37 113.759Z" fill="#245F6B"/>
<path d="M298.371 112.881H303.781C305.641 112.881 307.149 114.389 307.149 116.249C307.149 118.109 305.641 119.617 303.781 119.617H298.371V112.881Z" fill="#245F6B"/>
<path d="M298.371 114.035C298.371 113.95 298.44 113.881 298.525 113.881H303.781C305.089 113.881 306.149 114.941 306.149 116.249C306.149 117.557 305.089 118.617 303.781 118.617H298.525C298.44 118.617 298.371 118.548 298.371 118.463V114.035Z" fill="#6C99A3"/>
<path d="M182.907 113.759C182.845 113.257 182.419 112.881 181.914 112.881H180.014L181.694 124.967L183.799 121.008L182.907 113.759Z" fill="#347E8D"/>
<path d="M181.906 112.881H176.496C174.636 112.881 173.128 114.389 173.128 116.249C173.128 118.109 174.636 119.617 176.496 119.617H181.906V112.881Z" fill="#347E8D"/>
<path d="M181.906 114.035C181.906 113.95 181.837 113.881 181.752 113.881H176.496C175.188 113.881 174.128 114.941 174.128 116.249C174.128 117.557 175.188 118.617 176.496 118.617H181.752C181.837 118.617 181.906 118.548 181.906 118.463V114.035Z" fill="#86B7C1"/>
<defs>
<filter id="filter0_i_516_14777" x="180.395" y="154.553" width="14.1387" height="14.1387" filterUnits="userSpaceOnUse" color-interpolation-filters="sRGB">
<feFlood flood-opacity="0" result="BackgroundImageFix"/>
<feBlend mode="normal" in="SourceGraphic" in2="BackgroundImageFix" result="shape"/>
<feColorMatrix in="SourceAlpha" type="matrix" values="0 0 0 0 0 0 0 0 0 0 0 0 0 0 0 0 0 0 127 0" result="hardAlpha"/>
<feOffset dx="0.5" dy="1.5"/>
<feGaussianBlur stdDeviation="0.25"/>
<feComposite in2="hardAlpha" operator="arithmetic" k2="-1" k3="1"/>
<feColorMatrix type="matrix" values="0 0 0 0 0.745833 0 0 0 0 0.279687 0 0 0 0 0.279687 0 0 0 0.25 0"/>
<feBlend mode="normal" in2="shape" result="effect1_innerShadow_516_14777"/>
</filter>
<filter id="filter1_i_516_14777" x="286.242" y="154.553" width="14.1387" height="14.1387" filterUnits="userSpaceOnUse" color-interpolation-filters="sRGB">
<feFlood flood-opacity="0" result="BackgroundImageFix"/>
<feBlend mode="normal" in="SourceGraphic" in2="BackgroundImageFix" result="shape"/>
<feColorMatrix in="SourceAlpha" type="matrix" values="0 0 0 0 0 0 0 0 0 0 0 0 0 0 0 0 0 0 127 0" result="hardAlpha"/>
<feOffset dx="0.5" dy="1.5"/>
<feGaussianBlur stdDeviation="0.25"/>
<feComposite in2="hardAlpha" operator="arithmetic" k2="-1" k3="1"/>
<feColorMatrix type="matrix" values="0 0 0 0 0.745833 0 0 0 0 0.279687 0 0 0 0 0.279687 0 0 0 0.25 0"/>
<feBlend mode="normal" in2="shape" result="effect1_innerShadow_516_14777"/>
</filter>
</defs>
</svg>
