<svg width="351" height="265" viewBox="0 0 351 265" fill="none" xmlns="http://www.w3.org/2000/svg">
<rect x="0.486328" y="0.195312" width="350" height="264" fill="#67C7BB"/>
<rect x="189.389" y="163.898" width="6" height="25.9512" rx="3" transform="rotate(34.148 189.389 163.898)" fill="#FFECF4"/>
<rect width="6" height="26.8537" rx="3" transform="matrix(-0.827591 0.561332 0.561332 0.827591 287.68 163.15)" fill="#FFECF4"/>
<rect x="181.559" y="175.223" width="114.424" height="6" rx="3" fill="#FFECF4"/>
<path d="M285.464 175.473H191.868C191.228 175.473 190.709 175.991 190.709 176.631C190.709 176.98 190.863 177.314 191.141 177.523C192.209 178.325 193.345 178.778 197.19 178.778C200.712 178.778 256.035 178.759 283.257 178.778C285.011 178.778 285.915 178.326 286.546 177.64C286.744 177.425 286.832 177.134 286.832 176.841C286.832 176.085 286.22 175.473 285.464 175.473Z" fill="#ECCDDA"/>
<path d="M189.708 83.1156C190.318 75.8641 196.382 70.2891 203.659 70.2891H273.915C281.192 70.2891 287.256 75.8642 287.866 83.1156L294.511 162.116C295.198 170.282 288.755 177.289 280.56 177.289H197.014C188.819 177.289 182.377 170.282 183.063 162.116L189.708 83.1156Z" fill="#CF8CA8"/>
<path d="M273.917 70.2891H217.393L293.459 149.435L287.868 83.1129C287.256 75.8626 281.193 70.2891 273.917 70.2891Z" fill="#B56788"/>
<path d="M199.165 90.8458C199.397 87.7127 202.006 85.2891 205.148 85.2891H272.426C275.568 85.2891 278.178 87.7127 278.41 90.8458L281.521 132.846C281.778 136.325 279.025 139.289 275.537 139.289H202.037C198.549 139.289 195.796 136.325 196.053 132.846L199.165 90.8458Z" fill="#F0B6CE"/>
<path d="M272.422 85.2891H231.805L279.877 134.982C280.527 135.654 281.662 135.145 281.593 134.213L278.406 90.8493C278.176 87.7147 275.565 85.2891 272.422 85.2891Z" fill="#D597B0"/>
<path d="M224.814 139.289L210.119 85.2891H218.516L233.367 139.289H224.814Z" fill="#F7CADD"/>
<path d="M239.277 139.289L224.426 85.2891H226.836L241.454 139.289H239.277Z" fill="#F7CADD"/>
<rect x="219.787" y="74.5117" width="38" height="7.91016" rx="1" fill="#B56788"/>
<path d="M257.787 81.4219V75.5117C257.787 74.9594 257.339 74.5117 256.787 74.5117H221.49L228.805 82.1152C228.993 82.3111 229.254 82.4219 229.526 82.4219H256.787C257.339 82.4219 257.787 81.9742 257.787 81.4219Z" fill="#8E385D"/>
<path d="M183.246 159.979L183.902 152.115H293.703L294.355 159.979H183.246Z" fill="#B56788"/>
<circle cx="274.271" cy="156.048" r="7.72754" fill="#CF8CA8"/>
<circle cx="203.304" cy="156.048" r="7.72754" fill="#CF8CA8"/>
<circle cx="274.271" cy="156.048" r="6.03418" fill="#8E385D"/>
<circle cx="203.304" cy="156.048" r="6.03418" fill="#8E385D"/>
<circle cx="274.271" cy="156.388" r="5.69434" fill="#F0B6CE"/>
<circle cx="203.304" cy="156.388" r="5.69434" fill="#F0B6CE"/>
<path d="M231.885 80.6201V76.248H233.6C234.593 76.248 235.164 76.861 235.164 77.7215C235.164 78.5941 234.584 79.195 233.576 79.195H232.791V80.6201H231.885ZM232.791 78.4643H233.431C233.968 78.4643 234.231 78.1623 234.228 77.7215C234.231 77.2867 233.968 76.9938 233.431 76.9908H232.791V78.4643Z" fill="#D597B0"/>
<path d="M236.039 80.6745C235.756 80.6745 235.526 80.448 235.532 80.1672C235.526 79.8894 235.756 79.663 236.039 79.666C236.308 79.663 236.541 79.8894 236.541 80.1672C236.541 80.448 236.308 80.6745 236.039 80.6745Z" fill="#D597B0"/>
<path d="M237.277 80.6201V76.248H238.992C239.986 76.248 240.556 76.861 240.556 77.7215C240.556 78.5941 239.977 79.195 238.968 79.195H238.183V80.6201H237.277ZM238.183 78.4643H238.823C239.361 78.4643 239.623 78.1623 239.62 77.7215C239.623 77.2867 239.361 76.9938 238.823 76.9908H238.183V78.4643Z" fill="#D597B0"/>
<path d="M242.006 76.248V80.6201H241.112V76.248H242.006Z" fill="#D597B0"/>
<path d="M244.186 80.6866C243.18 80.6835 242.564 80.0344 242.567 78.9957C242.564 77.9842 243.189 77.2988 244.15 77.2988C245.01 77.2988 245.689 77.8423 245.689 78.9595V79.2131H243.449C243.449 79.7083 243.742 80.0132 244.204 80.0163C244.509 80.0132 244.726 79.8804 244.814 79.6841H245.665C245.538 80.291 244.995 80.6835 244.186 80.6866ZM243.449 78.6515H244.844C244.841 78.2529 244.566 77.9661 244.168 77.9691C243.757 77.9661 243.467 78.2741 243.449 78.6515Z" fill="#D597B0"/>
</svg>
