<svg width="351" height="265" viewBox="0 0 351 265" fill="none" xmlns="http://www.w3.org/2000/svg">
<rect x="0.787109" y="0.0449219" width="350" height="264" fill="#E09064"/>
<rect x="189.389" y="164.148" width="6" height="25.9512" rx="3" transform="rotate(34.148 189.389 164.148)" fill="#E8E4FF"/>
<rect width="6" height="26.8537" rx="3" transform="matrix(-0.827591 0.561332 0.561332 0.827591 287.68 163.4)" fill="#E8E4FF"/>
<rect x="181.559" y="175.473" width="114.424" height="6" rx="3" fill="#E8E4FF"/>
<path d="M285.464 175.473H191.868C191.228 175.473 190.709 175.991 190.709 176.631C190.709 176.98 190.863 177.314 191.141 177.523C192.209 178.325 193.345 178.778 197.19 178.778C200.712 178.778 256.035 178.759 283.257 178.778C285.011 178.778 285.915 178.326 286.546 177.64C286.744 177.425 286.832 177.134 286.832 176.841C286.832 176.085 286.22 175.473 285.464 175.473Z" fill="#C2BBEA"/>
<path d="M189.708 83.3656C190.318 76.1141 196.382 70.5391 203.659 70.5391H273.915C281.192 70.5391 287.256 76.1142 287.866 83.3656L294.511 162.366C295.198 170.532 288.755 177.539 280.56 177.539H197.014C188.819 177.539 182.377 170.532 183.063 162.366L189.708 83.3656Z" fill="#6053B5"/>
<path d="M273.917 70.5391H217.393L293.459 149.685L287.868 83.3629C287.256 76.1126 281.193 70.5391 273.917 70.5391Z" fill="#493AA5"/>
<path d="M199.165 91.0958C199.397 87.9627 202.006 85.5391 205.148 85.5391H272.426C275.568 85.5391 278.178 87.9627 278.41 91.0958L281.521 133.096C281.778 136.575 279.025 139.539 275.537 139.539H202.037C198.549 139.539 195.796 136.575 196.053 133.096L199.165 91.0958Z" fill="#C7C1EB"/>
<path d="M272.422 85.5391H231.805L279.877 135.232C280.527 135.904 281.662 135.395 281.593 134.463L278.406 91.0993C278.176 87.9647 275.565 85.5391 272.422 85.5391Z" fill="#B0A8E2"/>
<path d="M224.814 139.539L210.119 85.5391H218.516L233.367 139.539H224.814Z" fill="#DCD7FF"/>
<path d="M239.277 139.539L224.426 85.5391H226.836L241.454 139.539H239.277Z" fill="#DCD7FF"/>
<rect x="219.787" y="74.7617" width="38" height="7.91016" rx="1" fill="#27145C"/>
<path d="M257.787 81.6719V75.7617C257.787 75.2094 257.339 74.7617 256.787 74.7617H221.49L228.805 82.3652C228.993 82.5611 229.254 82.6719 229.526 82.6719H256.787C257.339 82.6719 257.787 82.2242 257.787 81.6719Z" fill="#1F0E4F"/>
<path d="M183.246 160.229L183.902 152.365H293.703L294.355 160.229H183.246Z" fill="#362B79"/>
<circle cx="274.271" cy="156.298" r="7.72754" fill="#6053B5"/>
<circle cx="203.304" cy="156.298" r="7.72754" fill="#6053B5"/>
<circle cx="274.271" cy="156.298" r="6.03418" fill="#362B79"/>
<circle cx="203.304" cy="156.298" r="6.03418" fill="#362B79"/>
<circle cx="274.271" cy="156.638" r="5.69434" fill="#C7C1EB"/>
<circle cx="203.304" cy="156.638" r="5.69434" fill="#C7C1EB"/>
<path d="M231.885 80.8701V76.498H233.6C234.593 76.498 235.164 77.111 235.164 77.9715C235.164 78.8441 234.584 79.445 233.576 79.445H232.791V80.8701H231.885ZM232.791 78.7143H233.431C233.968 78.7143 234.231 78.4123 234.228 77.9715C234.231 77.5367 233.968 77.2438 233.431 77.2408H232.791V78.7143Z" fill="#6F66A9"/>
<path d="M236.039 80.9245C235.756 80.9245 235.526 80.698 235.532 80.4172C235.526 80.1394 235.756 79.913 236.039 79.916C236.308 79.913 236.541 80.1394 236.541 80.4172C236.541 80.698 236.308 80.9245 236.039 80.9245Z" fill="#6F66A9"/>
<path d="M237.277 80.8701V76.498H238.992C239.986 76.498 240.556 77.111 240.556 77.9715C240.556 78.8441 239.977 79.445 238.968 79.445H238.183V80.8701H237.277ZM238.183 78.7143H238.823C239.361 78.7143 239.623 78.4123 239.62 77.9715C239.623 77.5367 239.361 77.2438 238.823 77.2408H238.183V78.7143Z" fill="#6F66A9"/>
<path d="M242.006 76.498V80.8701H241.112V76.498H242.006Z" fill="#6F66A9"/>
<path d="M244.186 80.9366C243.18 80.9335 242.564 80.2844 242.567 79.2457C242.564 78.2342 243.189 77.5488 244.15 77.5488C245.01 77.5488 245.689 78.0923 245.689 79.2095V79.4631H243.449C243.449 79.9583 243.742 80.2632 244.204 80.2663C244.509 80.2632 244.726 80.1304 244.814 79.9341H245.665C245.538 80.541 244.995 80.9335 244.186 80.9366ZM243.449 78.9015H244.844C244.841 78.5029 244.566 78.2161 244.168 78.2191C243.757 78.2161 243.467 78.5241 243.449 78.9015Z" fill="#6F66A9"/>
</svg>
