<svg width="351" height="265" viewBox="0 0 351 265" fill="none" xmlns="http://www.w3.org/2000/svg">
<path d="M204.441 162.191C204.441 161.639 204.889 161.191 205.441 161.191H217.824C218.377 161.191 218.824 161.639 218.824 162.191V167.656C218.824 168.209 218.377 168.656 217.824 168.656H205.441C204.889 168.656 204.441 168.209 204.441 167.656V162.191Z" fill="#353071"/>
<rect x="191.812" y="103.039" width="4.7168" height="1.625" fill="#353071"/>
<path d="M186.631 103.885C186.631 103.332 187.079 102.885 187.631 102.885H192.855C193.408 102.885 193.855 103.332 193.855 103.885V112.676C193.855 113.228 193.408 113.676 192.855 113.676H187.631C187.079 113.676 186.631 113.228 186.631 112.676V103.885Z" fill="#353071"/>
<path d="M187.188 104.58C187.188 104.028 187.635 103.58 188.188 103.58H192.299C192.851 103.58 193.299 104.028 193.299 104.58V111.98C193.299 112.533 192.851 112.98 192.299 112.98H188.187C187.635 112.98 187.188 112.533 187.188 111.98V104.58Z" fill="#C3CCFB"/>
<path d="M193.299 112.037V111.798C193.299 111.618 193.25 111.441 193.158 111.287L188.829 104.011C188.67 103.744 188.382 103.58 188.07 103.58C187.583 103.58 187.188 103.975 187.188 104.463V105.072C187.188 105.255 187.238 105.435 187.333 105.592L191.55 112.527C191.721 112.809 192.026 112.98 192.356 112.98C192.877 112.98 193.299 112.558 193.299 112.037Z" fill="#F3F5FF"/>
<rect x="0.787109" y="0.992188" width="350" height="264" fill="#5292A7"/>
<path d="M204.441 165.492C204.441 162.178 207.128 159.492 210.441 159.492H222.178C225.491 159.492 228.178 162.178 228.178 165.492V180.992C228.178 184.306 225.491 186.992 222.178 186.992H210.441C207.128 186.992 204.441 184.306 204.441 180.992V165.492Z" fill="#191244"/>
<path d="M260.766 165.492C260.766 162.178 263.452 159.492 266.766 159.492H278.502C281.816 159.492 284.502 162.178 284.502 165.492V180.992C284.502 184.306 281.816 186.992 278.502 186.992H266.766C263.452 186.992 260.766 184.306 260.766 180.992V165.492Z" fill="#191244"/>
<path d="M196.527 81.5664C196.527 77.1481 200.109 73.5664 204.527 73.5664H284.415C288.833 73.5664 292.415 77.1481 292.415 81.5664V170.615C292.415 175.034 288.833 178.615 284.415 178.615H204.527C200.109 178.615 196.527 175.034 196.527 170.615V81.5664Z" fill="#8F87F3"/>
<path d="M284.415 73.5664H204.527C200.109 73.5664 196.527 77.1481 196.527 81.5664V89.262L265.683 178.615H284.415C288.833 178.615 292.415 175.034 292.415 170.615V81.5664C292.415 77.1481 288.833 73.5664 284.415 73.5664Z" fill="#353071"/>
<path d="M196.527 150.723H292.415V154.65H196.527V150.723Z" fill="#353071"/>
<path d="M292.416 154.65V150.723H244.109L247.065 154.65H292.416Z" fill="#120E47"/>
<path d="M204.441 86.4063C204.441 84.1971 206.232 82.4062 208.441 82.4062H280.501C282.71 82.4062 284.501 84.1971 284.501 86.4062V119.363C284.501 121.572 282.71 123.363 280.501 123.363H208.441C206.232 123.363 204.441 121.572 204.441 119.363V86.4063Z" fill="#C3CCFB"/>
<path d="M280.501 82.4062H208.441C206.232 82.4062 204.441 84.1971 204.441 86.4062V98.0987C204.441 98.987 204.737 99.8499 205.282 100.552L221.789 121.816C222.547 122.792 223.713 123.363 224.948 123.363H280.501C282.71 123.363 284.501 121.572 284.501 119.363V86.4062C284.501 84.1971 282.71 82.4062 280.501 82.4062Z" fill="#9AA5E0"/>
<path d="M214.441 82.4062H224.501L244.501 123.363H234.441L214.441 82.4062Z" fill="#F3F5FF"/>
<path d="M228.18 82.4062H231.239L251.239 123.363H248.18L228.18 82.4062Z" fill="#F3F5FF"/>
<path d="M228.18 161.492C228.18 160.388 229.075 159.492 230.18 159.492H258.767C259.871 159.492 260.767 160.388 260.767 161.492V168.355C260.767 169.46 259.871 170.355 258.767 170.355H230.18C229.075 170.355 228.18 169.46 228.18 168.355V161.492Z" fill="#353071"/>
<path d="M260.766 169.338V161.492C260.766 160.388 259.871 159.492 258.766 159.492H250.926L258.942 169.957C259.134 170.208 259.433 170.355 259.749 170.355C260.311 170.355 260.766 169.9 260.766 169.338Z" fill="#120E47"/>
<path d="M230.055 162.191C230.055 161.639 230.502 161.191 231.055 161.191H257.892C258.444 161.191 258.892 161.639 258.892 162.191V167.656C258.892 168.209 258.444 168.656 257.892 168.656H231.055C230.502 168.656 230.055 168.209 230.055 167.656V162.191Z" fill="#F3F5FF"/>
<path d="M258.891 168.156V162.191C258.891 161.639 258.443 161.191 257.891 161.191H252.271L257.971 168.656H258.391C258.667 168.656 258.891 168.432 258.891 168.156Z" fill="#6762AA"/>
<path d="M236.816 167.376V162.396H238.687C239.829 162.396 240.438 163.091 240.441 164.047C240.438 165 239.822 165.691 238.674 165.691H237.711V167.376H236.816ZM237.711 164.955H238.55C239.224 164.952 239.526 164.573 239.526 164.047C239.526 163.514 239.224 163.146 238.55 163.146H237.711V164.955Z" fill="#353071"/>
<path d="M241.432 167.431C241.136 167.431 240.892 167.191 240.895 166.895C240.892 166.606 241.136 166.369 241.432 166.365C241.717 166.369 241.961 166.606 241.961 166.895C241.961 167.191 241.717 167.431 241.432 167.431Z" fill="#353071"/>
<path d="M242.849 167.376V162.396H244.72C245.861 162.396 246.47 163.091 246.474 164.047C246.47 165 245.855 165.691 244.706 165.691H243.743V167.376H242.849ZM243.743 164.955H244.582C245.256 164.952 245.559 164.573 245.559 164.047C245.559 163.514 245.256 163.146 244.582 163.146H243.743V164.955Z" fill="#353071"/>
<path d="M248.035 162.396V167.376H247.155V162.396H248.035Z" fill="#353071"/>
<path d="M250.532 167.452C249.407 167.452 248.716 166.702 248.716 165.533C248.716 164.377 249.417 163.593 250.484 163.593C251.398 163.593 252.189 164.168 252.189 165.478V165.753H249.583C249.596 166.389 249.971 166.768 250.539 166.764C250.924 166.768 251.182 166.603 251.295 166.379H252.155C251.997 167.026 251.398 167.452 250.532 167.452ZM249.586 165.155H251.35C251.347 164.646 251.003 164.274 250.497 164.274C249.971 164.274 249.617 164.68 249.586 165.155Z" fill="#353071"/>
<path d="M270.119 162.191C270.119 161.639 270.567 161.191 271.119 161.191H283.502C284.054 161.191 284.502 161.639 284.502 162.191V167.656C284.502 168.209 284.054 168.656 283.502 168.656H271.119C270.567 168.656 270.119 168.209 270.119 167.656V162.191Z" fill="#120E47"/>
<g filter="url(#filter0_i_485_17108)">
<rect x="228.18" y="129.498" width="32.5879" height="1.94727" rx="0.973633" fill="#120E47"/>
</g>
<path d="M228.18 130.156V130.445C228.18 130.998 228.637 131.445 229.189 131.445L228.18 130.156Z" fill="#353071"/>
<g filter="url(#filter1_i_485_17108)">
<rect x="228.18" y="133.596" width="32.5879" height="1.94727" rx="0.973633" fill="#120E47"/>
</g>
<g filter="url(#filter2_i_485_17108)">
<path d="M229.972 133.596H229.153C228.616 133.596 228.18 134.032 228.18 134.569C228.18 135.107 228.616 135.543 229.153 135.543H232.362L231.386 134.288C231.047 133.851 230.525 133.596 229.972 133.596Z" fill="#353071"/>
</g>
<g filter="url(#filter3_i_485_17108)">
<rect x="228.18" y="137.693" width="32.5879" height="1.94727" rx="0.973633" fill="#120D47"/>
</g>
<g filter="url(#filter4_i_485_17108)">
<path d="M232.096 137.693H229.153C228.616 137.693 228.18 138.129 228.18 138.667C228.18 139.205 228.616 139.641 229.153 139.641H235.528L235.182 139.198C234.44 138.248 233.301 137.693 232.096 137.693Z" fill="#353071"/>
</g>
<defs>
<filter id="filter0_i_485_17108" x="228.18" y="129.498" width="32.5879" height="2.14727" filterUnits="userSpaceOnUse" color-interpolation-filters="sRGB">
<feFlood flood-opacity="0" result="BackgroundImageFix"/>
<feBlend mode="normal" in="SourceGraphic" in2="BackgroundImageFix" result="shape"/>
<feColorMatrix in="SourceAlpha" type="matrix" values="0 0 0 0 0 0 0 0 0 0 0 0 0 0 0 0 0 0 127 0" result="hardAlpha"/>
<feOffset dy="0.7"/>
<feGaussianBlur stdDeviation="0.1"/>
<feComposite in2="hardAlpha" operator="arithmetic" k2="-1" k3="1"/>
<feColorMatrix type="matrix" values="0 0 0 0 0.0469945 0 0 0 0 0.0351389 0 0 0 0 0.183333 0 0 0 1 0"/>
<feBlend mode="normal" in2="shape" result="effect1_innerShadow_485_17108"/>
</filter>
<filter id="filter1_i_485_17108" x="228.18" y="133.596" width="32.5879" height="2.14727" filterUnits="userSpaceOnUse" color-interpolation-filters="sRGB">
<feFlood flood-opacity="0" result="BackgroundImageFix"/>
<feBlend mode="normal" in="SourceGraphic" in2="BackgroundImageFix" result="shape"/>
<feColorMatrix in="SourceAlpha" type="matrix" values="0 0 0 0 0 0 0 0 0 0 0 0 0 0 0 0 0 0 127 0" result="hardAlpha"/>
<feOffset dy="0.7"/>
<feGaussianBlur stdDeviation="0.1"/>
<feComposite in2="hardAlpha" operator="arithmetic" k2="-1" k3="1"/>
<feColorMatrix type="matrix" values="0 0 0 0 0.0469945 0 0 0 0 0.0351389 0 0 0 0 0.183333 0 0 0 1 0"/>
<feBlend mode="normal" in2="shape" result="effect1_innerShadow_485_17108"/>
</filter>
<filter id="filter2_i_485_17108" x="228.18" y="133.596" width="4.18359" height="2.14727" filterUnits="userSpaceOnUse" color-interpolation-filters="sRGB">
<feFlood flood-opacity="0" result="BackgroundImageFix"/>
<feBlend mode="normal" in="SourceGraphic" in2="BackgroundImageFix" result="shape"/>
<feColorMatrix in="SourceAlpha" type="matrix" values="0 0 0 0 0 0 0 0 0 0 0 0 0 0 0 0 0 0 127 0" result="hardAlpha"/>
<feOffset dy="0.7"/>
<feGaussianBlur stdDeviation="0.1"/>
<feComposite in2="hardAlpha" operator="arithmetic" k2="-1" k3="1"/>
<feColorMatrix type="matrix" values="0 0 0 0 0.0704896 0 0 0 0 0.0523437 0 0 0 0 0.279167 0 0 0 1 0"/>
<feBlend mode="normal" in2="shape" result="effect1_innerShadow_485_17108"/>
</filter>
<filter id="filter3_i_485_17108" x="228.18" y="137.693" width="32.5879" height="2.14727" filterUnits="userSpaceOnUse" color-interpolation-filters="sRGB">
<feFlood flood-opacity="0" result="BackgroundImageFix"/>
<feBlend mode="normal" in="SourceGraphic" in2="BackgroundImageFix" result="shape"/>
<feColorMatrix in="SourceAlpha" type="matrix" values="0 0 0 0 0 0 0 0 0 0 0 0 0 0 0 0 0 0 127 0" result="hardAlpha"/>
<feOffset dy="0.7"/>
<feGaussianBlur stdDeviation="0.1"/>
<feComposite in2="hardAlpha" operator="arithmetic" k2="-1" k3="1"/>
<feColorMatrix type="matrix" values="0 0 0 0 0.0469945 0 0 0 0 0.0351389 0 0 0 0 0.183333 0 0 0 1 0"/>
<feBlend mode="normal" in2="shape" result="effect1_innerShadow_485_17108"/>
</filter>
<filter id="filter4_i_485_17108" x="228.18" y="137.693" width="7.34766" height="2.14727" filterUnits="userSpaceOnUse" color-interpolation-filters="sRGB">
<feFlood flood-opacity="0" result="BackgroundImageFix"/>
<feBlend mode="normal" in="SourceGraphic" in2="BackgroundImageFix" result="shape"/>
<feColorMatrix in="SourceAlpha" type="matrix" values="0 0 0 0 0 0 0 0 0 0 0 0 0 0 0 0 0 0 127 0" result="hardAlpha"/>
<feOffset dy="0.7"/>
<feGaussianBlur stdDeviation="0.1"/>
<feComposite in2="hardAlpha" operator="arithmetic" k2="-1" k3="1"/>
<feColorMatrix type="matrix" values="0 0 0 0 0.0704896 0 0 0 0 0.0523437 0 0 0 0 0.279167 0 0 0 1 0"/>
<feBlend mode="normal" in2="shape" result="effect1_innerShadow_485_17108"/>
</filter>
</defs>
</svg>
