<svg width="351" height="234" viewBox="0 0 351 234" fill="none" xmlns="http://www.w3.org/2000/svg">
<rect x="0.787109" y="0.53125" width="350" height="233" fill="#D57070"/>
<path d="M215.949 147.078C215.949 143.764 218.636 141.078 221.949 141.078H227.299C230.613 141.078 233.299 143.764 233.299 147.078V155.179C233.299 158.493 230.613 161.179 227.299 161.179H221.949C218.636 161.179 215.949 158.493 215.949 155.179V147.078Z" fill="#200909"/>
<path d="M293.318 147.078C293.318 143.764 296.005 141.078 299.318 141.078H304.668C307.982 141.078 310.668 143.764 310.668 147.078V155.179C310.668 158.493 307.982 161.179 304.668 161.179H299.318C296.005 161.179 293.318 158.493 293.318 155.179V147.078Z" fill="#200909"/>
<path d="M253.874 79.5848C254.062 78.6516 254.882 77.9805 255.834 77.9805H271.249C272.201 77.9805 273.021 78.6516 273.21 79.5848L274.603 86.4892H252.48L253.874 79.5848Z" fill="#FFC7C7"/>
<path d="M225.27 90.7783C225.799 87.9363 228.279 85.875 231.169 85.875H295.446C298.337 85.875 300.817 87.9363 301.345 90.7783L307.256 122.574H219.359L225.27 90.7783Z" fill="#347E8D"/>
<path d="M307.255 122.574L301.344 90.7783C300.816 87.9363 298.336 85.875 295.445 85.875H230.281L253.306 122.574H307.255Z" fill="#245F6B"/>
<path d="M256.619 84.4425V79.957H258.304C259.333 79.957 259.881 80.5828 259.884 81.4439C259.881 82.302 259.327 82.9246 258.292 82.9246H257.425V84.4425H256.619ZM257.425 82.2617H258.18C258.788 82.2586 259.06 81.9179 259.06 81.4439C259.06 80.9638 258.788 80.6323 258.18 80.6323H257.425V82.2617Z" fill="#CF7E7E"/>
<path d="M260.776 84.492C260.51 84.492 260.29 84.2752 260.293 84.0088C260.29 83.7486 260.51 83.5348 260.776 83.5317C261.033 83.5348 261.253 83.7486 261.253 84.0088C261.253 84.2752 261.033 84.492 260.776 84.492Z" fill="#CF7E7E"/>
<path d="M262.052 84.4425V79.957H263.738C264.766 79.957 265.314 80.5828 265.317 81.4439C265.314 82.302 264.76 82.9246 263.725 82.9246H262.858V84.4425H262.052ZM262.858 82.2617H263.614C264.221 82.2586 264.493 81.9179 264.493 81.4439C264.493 80.9638 264.221 80.6323 263.614 80.6323H262.858V82.2617Z" fill="#CF7E7E"/>
<path d="M266.724 79.957V84.4425H265.931V79.957H266.724Z" fill="#CF7E7E"/>
<path d="M268.973 84.5106C267.96 84.5106 267.337 83.8353 267.337 82.7821C267.337 81.7413 267.969 81.035 268.929 81.035C269.753 81.035 270.466 81.5523 270.466 82.7325V82.9804H268.118C268.13 83.5534 268.468 83.8942 268.979 83.8911C269.326 83.8942 269.558 83.7455 269.66 83.5441H270.435C270.292 84.1265 269.753 84.5106 268.973 84.5106ZM268.121 82.4414H269.71C269.707 81.9829 269.397 81.6484 268.942 81.6484C268.468 81.6484 268.149 82.0139 268.121 82.4414Z" fill="#CF7E7E"/>
<path d="M228.502 92.8061C228.851 90.9086 230.506 89.5312 232.435 89.5312H294.179C296.109 89.5312 297.763 90.9086 298.113 92.8061L303.601 122.575H223.014L228.502 92.8061Z" fill="#86B7C1"/>
<path d="M303.601 122.575L298.113 92.8061C297.764 90.9086 296.109 89.5312 294.18 89.5312H232.561L253.989 122.575H303.601Z" fill="#6C99A3"/>
<path d="M219.358 122.574H307.255L314.564 130.035H212.049L219.358 122.574Z" fill="#5CB0C1"/>
<path d="M212.049 130.035H314.564V142.115C314.564 147.638 310.087 152.115 304.564 152.115H222.049C216.526 152.115 212.049 147.638 212.049 142.115V130.035Z" fill="#347E8D"/>
<path d="M314.564 142.115V130.035H230.736L259.102 152.115H304.564C310.087 152.115 314.564 147.638 314.564 142.115Z" fill="#245F6B"/>
<rect x="246.619" y="137.965" width="33.847" height="10.0662" fill="#FFC7C7"/>
<path d="M280.466 137.965H246.619V142.439L253.914 148.031H280.466V137.965Z" fill="#9B5050"/>
<rect x="248.24" y="139.543" width="30.6035" height="6.91403" fill="#C76E6E"/>
<path d="M278.844 139.543H248.24V143.674L251.98 146.457H278.844V139.543Z" fill="#933838"/>
<g filter="url(#filter0_i_569_27154)">
<circle cx="224.621" cy="143.047" r="4.98458" fill="#FFC7C7"/>
</g>
<g filter="url(#filter1_i_569_27154)">
<circle cx="301.99" cy="143.047" r="4.98458" fill="#FFC7C7"/>
</g>
<path d="M256.619 145.208V140.723H258.304C259.333 140.723 259.881 141.348 259.884 142.21C259.881 143.068 259.327 143.69 258.292 143.69H257.425V145.208H256.619ZM257.425 143.027H258.18C258.788 143.024 259.06 142.683 259.06 142.21C259.06 141.729 258.788 141.398 258.18 141.398H257.425V143.027Z" fill="#842323"/>
<path d="M260.776 145.258C260.51 145.258 260.29 145.041 260.293 144.774C260.29 144.514 260.51 144.3 260.776 144.297C261.033 144.3 261.253 144.514 261.253 144.774C261.253 145.041 261.033 145.258 260.776 145.258Z" fill="#842323"/>
<path d="M262.052 145.208V140.723H263.738C264.766 140.723 265.314 141.348 265.317 142.21C265.314 143.068 264.76 143.69 263.725 143.69H262.858V145.208H262.052ZM262.858 143.027H263.614C264.221 143.024 264.493 142.683 264.493 142.21C264.493 141.729 264.221 141.398 263.614 141.398H262.858V143.027Z" fill="#842323"/>
<path d="M266.724 140.723V145.208H265.931V140.723H266.724Z" fill="#842323"/>
<path d="M268.973 145.276C267.96 145.276 267.337 144.601 267.337 143.548C267.337 142.507 267.969 141.801 268.929 141.801C269.753 141.801 270.466 142.318 270.466 143.498V143.746H268.118C268.13 144.319 268.468 144.66 268.979 144.657C269.326 144.66 269.558 144.511 269.66 144.31H270.435C270.292 144.892 269.753 145.276 268.973 145.276ZM268.121 143.207H269.71C269.707 142.749 269.397 142.414 268.942 142.414C268.468 142.414 268.149 142.78 268.121 143.207Z" fill="#842323"/>
<path d="M305.111 108.479C305.173 107.978 305.599 107.602 306.104 107.602H307.255L306.026 116.436L304.488 113.542L305.111 108.479Z" fill="#245F6B"/>
<path d="M305.871 107.602H309.826C311.185 107.602 312.288 108.704 312.288 110.064V110.064C312.288 111.423 311.185 112.525 309.826 112.525H305.871V107.602Z" fill="#245F6B"/>
<path d="M305.871 108.445C305.871 108.382 305.921 108.332 305.984 108.332H309.826C310.782 108.332 311.557 109.107 311.557 110.063V110.063C311.557 111.019 310.782 111.794 309.826 111.794H305.984C305.921 111.794 305.871 111.744 305.871 111.681V108.445Z" fill="#6C99A3"/>
<path d="M221.502 108.479C221.44 107.978 221.015 107.602 220.51 107.602H219.358L220.587 116.436L222.125 113.542L221.502 108.479Z" fill="#347E8D"/>
<path d="M220.742 107.602H216.788C215.428 107.602 214.326 108.704 214.326 110.064V110.064C214.326 111.423 215.428 112.525 216.788 112.525H220.742V107.602Z" fill="#347E8D"/>
<path d="M220.742 108.445C220.742 108.382 220.692 108.332 220.63 108.332H216.788C215.832 108.332 215.057 109.107 215.057 110.063V110.063C215.057 111.019 215.832 111.794 216.788 111.794H220.63C220.692 111.794 220.742 111.744 220.742 111.681V108.445Z" fill="#86B7C1"/>
<defs>
<filter id="filter0_i_569_27154" x="219.637" y="138.062" width="10.4688" height="10.4688" filterUnits="userSpaceOnUse" color-interpolation-filters="sRGB">
<feFlood flood-opacity="0" result="BackgroundImageFix"/>
<feBlend mode="normal" in="SourceGraphic" in2="BackgroundImageFix" result="shape"/>
<feColorMatrix in="SourceAlpha" type="matrix" values="0 0 0 0 0 0 0 0 0 0 0 0 0 0 0 0 0 0 127 0" result="hardAlpha"/>
<feOffset dx="0.5" dy="1.5"/>
<feGaussianBlur stdDeviation="0.25"/>
<feComposite in2="hardAlpha" operator="arithmetic" k2="-1" k3="1"/>
<feColorMatrix type="matrix" values="0 0 0 0 0.745833 0 0 0 0 0.279687 0 0 0 0 0.279687 0 0 0 0.25 0"/>
<feBlend mode="normal" in2="shape" result="effect1_innerShadow_569_27154"/>
</filter>
<filter id="filter1_i_569_27154" x="297.006" y="138.062" width="10.4688" height="10.4688" filterUnits="userSpaceOnUse" color-interpolation-filters="sRGB">
<feFlood flood-opacity="0" result="BackgroundImageFix"/>
<feBlend mode="normal" in="SourceGraphic" in2="BackgroundImageFix" result="shape"/>
<feColorMatrix in="SourceAlpha" type="matrix" values="0 0 0 0 0 0 0 0 0 0 0 0 0 0 0 0 0 0 127 0" result="hardAlpha"/>
<feOffset dx="0.5" dy="1.5"/>
<feGaussianBlur stdDeviation="0.25"/>
<feComposite in2="hardAlpha" operator="arithmetic" k2="-1" k3="1"/>
<feColorMatrix type="matrix" values="0 0 0 0 0.745833 0 0 0 0 0.279687 0 0 0 0 0.279687 0 0 0 0.25 0"/>
<feBlend mode="normal" in2="shape" result="effect1_innerShadow_569_27154"/>
</filter>
</defs>
</svg>
