<svg width="20" height="20" viewBox="0 0 21 16" fill="none" xmlns="http://www.w3.org/2000/svg">
<path d="M0.132812 14.1868V6.4292H2.3549V14.1868C2.3549 14.8003 1.8574 15.2978 1.24386 15.2978C0.630313 15.2978 0.132812 14.8003 0.132812 14.1868Z" fill="#E7E6F0"/>
<path d="M7.91085 15.3178C8.52446 15.3178 9.02189 14.8204 9.02189 14.2067C9.02189 13.5931 8.52446 13.0957 7.91085 13.0957C7.29724 13.0957 6.7998 13.5931 6.7998 14.2067C6.7998 14.8204 7.29724 15.3178 7.91085 15.3178Z" fill="#6B57EA"/>
<path d="M9.0114 4.86009C9.01757 2.40469 7.03744 0.412213 4.58204 0.404806C2.1254 0.397399 0.130454 2.37753 0.123047 4.83417L2.34514 4.84158C2.34884 3.61943 3.35248 2.62319 4.57463 2.62689C5.79678 2.6306 6.79302 3.63424 6.78931 4.85639L6.79672 6.43654C6.79302 7.65869 5.80172 8.65493 4.56722 8.65122C3.34507 8.64752 2.34884 7.64388 2.35254 6.42173L0.130454 6.41432C0.123047 8.87096 2.10317 10.8647 4.55982 10.8733C7.01646 10.882 9.01017 8.90059 9.01881 6.44395L9.0114 4.86133V4.86009Z" fill="#E7E6F0"/>
<path d="M11.2373 14.1868V6.4292H13.4594V14.1868C13.4594 14.8003 12.9619 15.2978 12.3483 15.2978C11.7348 15.2978 11.2373 14.8003 11.2373 14.1868Z" fill="#E7E6F0"/>
<path d="M20.1149 4.86009C20.1211 2.40469 18.141 0.412213 15.6856 0.404806C13.2289 0.397399 11.2352 2.37753 11.2266 4.83417L13.4487 4.84158C13.4524 3.61943 14.456 2.62319 15.6781 2.62689C16.9003 2.6306 17.8965 3.63424 17.8928 4.85639L17.9002 6.43654C17.8965 7.65869 16.9052 8.65493 15.6707 8.65122C14.4486 8.64752 13.4524 7.64388 13.4561 6.42173L11.234 6.41432C11.2266 8.87096 13.2067 10.8647 15.6633 10.8733C18.12 10.882 20.1137 8.90059 20.1223 6.44395L20.1149 4.86133V4.86009Z" fill="#E7E6F0"/>
</svg>
