<svg width="351" height="234" viewBox="0 0 351 234" fill="none" xmlns="http://www.w3.org/2000/svg">
<rect x="0.228516" y="0.0859375" width="350" height="233" fill="#7C92BC"/>
<path d="M253.787 210.089C290.518 201.581 313.397 164.908 304.889 128.177C296.381 91.4462 259.707 68.5672 222.977 77.0752C186.246 85.5833 163.367 122.257 171.875 158.987C180.383 195.718 217.056 218.597 253.787 210.089Z" fill="#371A1B"/>
<path d="M245.587 201.232C281.405 201.232 310.441 172.196 310.441 136.378C310.441 100.56 281.405 71.5234 245.587 71.5234C209.769 71.5234 180.732 100.56 180.732 136.378C180.732 172.196 209.769 201.232 245.587 201.232Z" fill="#D67374"/>
<path d="M245.587 194.407C277.635 194.407 303.615 168.427 303.615 136.379C303.615 104.331 277.635 78.3516 245.587 78.3516C213.539 78.3516 187.56 104.331 187.56 136.379C187.56 168.427 213.539 194.407 245.587 194.407Z" fill="#ECECEC"/>
<path d="M245.588 192.888C276.798 192.888 302.098 167.588 302.098 136.378C302.098 105.168 276.798 79.8672 245.588 79.8672C214.378 79.8672 189.077 105.168 189.077 136.378C189.077 167.588 214.378 192.888 245.588 192.888Z" fill="#4A72AE"/>
<path fill-rule="evenodd" clip-rule="evenodd" d="M246.067 201.077C220.551 201.291 198.263 186.71 187.516 165.265L220.45 120.068L220.451 147.139L272.513 149.271L246.067 201.077Z" fill="#2C1B1D" fill-opacity="0.86"/>
<path d="M245.587 163.309C260.459 163.309 272.515 151.253 272.515 136.381C272.515 121.509 260.459 109.453 245.587 109.453C230.715 109.453 218.659 121.509 218.659 136.381C218.659 151.253 230.715 163.309 245.587 163.309Z" fill="#7B9AC9"/>
<path opacity="0.51" d="M256.282 115.225L258.163 111.918L262.335 114.573L260.401 117.827H258.694L256.419 115.832L256.282 115.225Z" fill="#7CA6D8"/>
<path opacity="0.51" d="M241.901 113.247L241.795 109.455L244.988 109.113L245.019 113.285L243.562 114.165L242.333 113.695L241.901 113.247Z" fill="#7CA6D8"/>
<path opacity="0.51" d="M262.715 120.645L265.051 117.656L268.798 120.88L266.409 123.823L264.725 123.573L262.76 121.267L262.715 120.645Z" fill="#7CA6D8"/>
<path d="M244.731 162.797C258.769 162.797 270.149 151.533 270.149 137.637C270.149 123.741 258.769 112.477 244.731 112.477C230.693 112.477 219.312 123.741 219.312 137.637C219.312 151.533 230.693 162.797 244.731 162.797Z" fill="#C35E5F"/>
<path d="M252.687 130.98L243.843 137.542C243.843 137.542 243.593 140.652 246.627 141.501C250.655 138.725 251.701 137.944 255.494 134.91C253.378 133.779 252.687 130.98 252.687 130.98Z" fill="black" fill-opacity="0.32"/>
<path d="M241.847 109.718C242.871 109.574 243.91 109.49 244.972 109.467H245.026L245.215 106.426C244.093 106.441 242.985 106.517 241.9 106.653L241.802 109.718H241.847Z" fill="#D6DCE5"/>
<path d="M259.673 109.93C255.47 107.692 250.684 106.418 245.587 106.418C245.458 106.418 245.337 106.426 245.208 106.426L245.018 109.46H244.965C245.17 109.46 245.374 109.46 245.587 109.46C250.024 109.46 254.204 110.537 257.89 112.441L257.875 112.426L259.665 109.945L259.673 109.93Z" fill="#D0D3D8"/>
<path d="M263.678 112.501C262.419 111.546 261.076 110.688 259.673 109.938L257.883 112.418L257.898 112.433C259.362 113.184 260.742 114.064 262.032 115.065H262.055L263.686 112.501H263.678Z" fill="#D6DCE5"/>
<path d="M267.304 115.754C266.181 114.578 264.967 113.486 263.67 112.5L262.039 115.071H262.017C263.079 115.883 264.065 116.786 264.99 117.749V117.726L267.296 115.754H267.304Z" fill="#D0D3D8"/>
<path d="M267.305 115.754L264.991 117.726V117.749C266.099 118.894 267.1 120.131 267.98 121.45L270.293 119.456C269.391 118.143 268.397 116.907 267.305 115.754Z" fill="#D6DCE5"/>
<path d="M270.3 119.457L267.987 121.452C270.846 125.722 272.515 130.858 272.515 136.38C272.515 151.247 260.462 163.307 245.587 163.307C238.806 163.307 232.609 160.789 227.876 156.648L225.744 158.809C231.031 163.49 237.979 166.334 245.595 166.334C262.138 166.334 275.557 152.916 275.557 136.372C275.557 130.091 273.615 124.266 270.308 119.449L270.3 119.457Z" fill="#D0D3D8"/>
<path d="M224.787 153.476C220.957 148.827 218.658 142.872 218.658 136.379C218.658 122.779 228.747 111.537 241.847 109.717H241.801L241.9 106.652C227.093 108.473 215.632 121.087 215.632 136.379C215.632 143.676 218.241 150.359 222.572 155.555L224.787 153.484V153.476Z" fill="#D0D3D8"/>
<path d="M224.788 153.477L222.573 155.547C223.544 156.715 224.606 157.8 225.744 158.809L227.875 156.647C226.76 155.676 225.729 154.614 224.788 153.477Z" fill="#D6DCE5"/>
<path d="M285.953 110.629C286.455 110.257 286.254 109.135 285.504 108.121C284.754 107.107 283.74 106.586 283.238 106.957C282.736 107.328 282.937 108.451 283.687 109.465C284.436 110.479 285.451 111 285.953 110.629Z" fill="#ECECEC"/>
<path d="M283.211 106.984L252.605 131.045C252.605 131.045 252.536 133.723 255.404 134.982C264.271 128.018 272.683 121.366 286.056 110.549C283.424 109.67 283.219 106.984 283.219 106.984H283.211Z" fill="black"/>
<path d="M233.306 123.172L228.459 127.814L231.03 131.099L234.876 132.949L238.805 129.741L240.163 125.523L237.804 123.172H233.306Z" fill="#D8888D"/>
<path d="M232.775 134.668L228.763 139.31L230.894 142.602L234.072 144.453L237.327 141.237L238.449 137.027L236.5 134.668H232.775Z" fill="#D8888D"/>
<path d="M243.455 139.293L239.875 142.714L241.779 145.141L244.608 146.507L247.506 144.14L248.507 141.03L246.77 139.293H243.455Z" fill="#D8888D"/>
</svg>
