<svg width="351" height="265" viewBox="0 0 351 265" fill="none" xmlns="http://www.w3.org/2000/svg">
<rect x="0.228516" y="0.207031" width="350" height="264" fill="#7C82BC"/>
<circle cx="240.058" cy="155.926" r="69.1201" transform="rotate(-12.0382 240.058 155.926)" fill="#232444"/>
<circle cx="245.23" cy="146.663" r="63.4267" transform="rotate(-12.0382 245.23 146.663)" fill="#686CD3"/>
<circle cx="245.23" cy="146.662" r="60.4937" transform="rotate(-12.0382 245.23 146.662)" fill="#EBECFF"/>
<circle cx="245.23" cy="146.66" r="59.0272" transform="rotate(-12.0382 245.23 146.66)" fill="#D97B5D"/>
<path fill-rule="evenodd" clip-rule="evenodd" d="M186.951 171.431L208.288 136.915L222.454 152.578L280.595 168.346L261.93 208.268C257.359 209.411 252.592 210.068 247.683 210.181C220.652 210.805 197.117 194.75 186.951 171.431Z" fill="#1E1F2F" fill-opacity="0.86"/>
<circle cx="245.188" cy="149.023" r="35.1963" transform="rotate(-15.7648 245.188 149.023)" fill="#686CD3"/>
<path fill-rule="evenodd" clip-rule="evenodd" d="M256.516 182.4C275.808 176.954 287.032 156.899 281.586 137.608C276.139 118.316 256.085 107.092 236.793 112.538C219.435 117.438 208.609 134.165 210.58 151.522C211.758 170.395 227.823 184.948 246.809 184.165C250.024 184.032 253.119 183.468 256.041 182.53C256.199 182.488 256.358 182.444 256.516 182.4ZM256.041 182.53C270.602 177.859 280.862 163.918 280.201 147.897C279.407 128.661 263.169 113.71 243.933 114.504C224.697 115.298 209.747 131.536 210.541 150.772C210.551 151.023 210.564 151.273 210.58 151.522C210.799 153.455 211.178 155.396 211.724 157.33C217.125 176.464 236.896 187.661 256.041 182.53Z" fill="#333679"/>
<path fill-rule="evenodd" clip-rule="evenodd" d="M257.774 185.647C279.084 179.631 291.482 157.479 285.466 136.169C279.45 114.858 257.298 102.46 235.988 108.476C214.678 114.492 202.279 136.644 208.295 157.955C214.311 179.265 236.464 191.663 257.774 185.647ZM256.525 181.217C275.389 175.892 286.365 156.281 281.039 137.417C275.714 118.552 256.103 107.576 237.239 112.902C218.374 118.228 207.398 137.838 212.724 156.703C218.05 175.567 237.66 186.543 256.525 181.217Z" fill="#F2F2F2"/>
<rect x="281.396" y="134.23" width="16.1316" height="6.59931" rx="3.29966" transform="rotate(-15.7648 281.396 134.23)" fill="#F2F2F2"/>
</svg>
