<svg width="351" height="265" viewBox="0 0 351 265" fill="none" xmlns="http://www.w3.org/2000/svg">
<rect x="0.228516" y="0.207031" width="350" height="264" fill="#BC7C7C"/>
<circle cx="238.657" cy="159.806" r="66.0228" transform="rotate(2.56318 238.657 159.806)" fill="#2B1313"/>
<circle cx="243.628" cy="152.097" r="58.1001" transform="rotate(2.56318 243.628 152.097)" fill="#6B3030"/>
<path fill-rule="evenodd" clip-rule="evenodd" d="M263.751 206.077C285.013 198.322 300.609 178.386 301.685 154.366C303.111 122.492 278.429 95.4967 246.556 94.0699C214.682 92.643 187.687 117.325 186.26 149.199C186.225 149.981 186.206 150.761 186.202 151.537C186.138 152.292 186.088 153.052 186.054 153.816C184.692 184.233 207.951 209.981 238.003 211.326C247.202 211.738 255.971 209.815 263.751 206.077ZM241.389 209.494C249.242 209.846 256.799 208.612 263.751 206.077C281.387 197.602 293.938 179.794 294.883 158.688C296.244 128.271 272.986 102.523 242.934 101.178C213.637 99.8666 188.698 122.231 186.202 151.537C186.05 182.382 210.298 208.102 241.389 209.494Z" fill="#492121"/>
<path fill-rule="evenodd" clip-rule="evenodd" d="M241.123 215.429C276.275 217.003 306.047 189.782 307.62 154.63C309.194 119.478 281.973 89.7061 246.821 88.1325C211.669 86.5589 181.897 113.78 180.324 148.931C178.75 184.083 205.971 213.855 241.123 215.429ZM241.389 209.494C273.262 210.921 300.258 186.239 301.685 154.366C303.111 122.492 278.429 95.4967 246.556 94.0699C214.682 92.643 187.687 117.325 186.26 149.199C184.833 181.072 209.515 208.067 241.389 209.494Z" fill="#B75C5C"/>
<g filter="url(#filter0_d_504_16126)">
<path fill-rule="evenodd" clip-rule="evenodd" d="M244.421 84.1071C243.109 83.5431 241.589 84.1493 241.025 85.4609L213.657 149.111C213.093 150.422 213.699 151.943 215.01 152.507C216.32 153.07 217.839 152.466 218.404 151.158C217.841 152.47 218.447 153.99 219.758 154.554C221.07 155.118 222.591 154.512 223.155 153.2L250.523 89.5502C251.087 88.2385 250.481 86.718 249.169 86.154C247.859 85.5908 246.341 86.1945 245.775 87.5026C246.338 86.1911 245.732 84.671 244.421 84.1071ZM250.525 89.5471C251.089 88.2355 252.609 87.6293 253.921 88.1933C255.228 88.7555 255.835 90.268 255.28 91.5768C255.849 90.2755 257.363 89.6762 258.67 90.238C259.971 90.7975 260.578 92.2983 260.037 93.6027C260.611 92.3105 262.119 91.7171 263.421 92.2771C264.72 92.8356 265.327 94.3325 264.791 95.6354C265.368 94.3504 266.871 93.7616 268.17 94.32C269.482 94.884 270.088 96.4045 269.524 97.7162L242.156 161.366C241.592 162.678 240.071 163.284 238.759 162.72C237.46 162.161 236.853 160.664 237.39 159.361C236.813 160.646 235.309 161.235 234.01 160.677C232.709 160.117 232.102 158.616 232.643 157.312C232.07 158.604 230.562 159.198 229.259 158.638C227.952 158.076 227.346 156.563 227.9 155.254C227.331 156.556 225.817 157.155 224.51 156.593C223.199 156.029 222.593 154.509 223.157 153.197L250.525 89.5471ZM269.525 97.7168C270.089 96.4051 271.609 95.799 272.921 96.363C274.214 96.9189 274.821 98.4038 274.298 99.7023C274.881 98.4291 276.377 97.848 277.67 98.404C278.982 98.968 279.588 100.489 279.024 101.8L251.656 165.45C251.092 166.762 249.571 167.368 248.259 166.804C246.967 166.248 246.359 164.763 246.882 163.464C246.299 164.738 244.803 165.319 243.51 164.763C242.199 164.199 241.593 162.678 242.157 161.367L269.525 97.7168Z" fill="#1B3F53"/>
<path fill-rule="evenodd" clip-rule="evenodd" d="M242.589 84.4431C241.277 83.8791 239.757 84.4852 239.193 85.7969L211.212 150.872C210.648 152.183 211.254 153.704 212.566 154.268C213.876 154.831 215.394 154.227 215.96 152.919C215.396 154.231 216.002 155.751 217.314 156.315C218.625 156.879 220.146 156.273 220.71 154.961L248.691 89.8861C249.255 88.5745 248.649 87.0539 247.337 86.4899C246.027 85.9267 244.509 86.5305 243.943 87.8385C244.506 86.527 243.9 85.007 242.589 84.4431ZM248.693 89.8831C249.257 88.5714 250.777 87.9653 252.089 88.5293C253.396 89.0914 254.003 90.604 253.448 91.9127C254.017 90.6114 255.531 90.0121 256.838 90.5739C258.139 91.1334 258.746 92.6342 258.205 93.9386C258.779 92.6465 260.287 92.0531 261.589 92.613C262.888 93.1716 263.495 94.6684 262.959 95.9714C263.535 94.6863 265.039 94.0975 266.338 94.656C267.65 95.22 268.256 96.7405 267.692 98.0522L239.711 163.127C239.147 164.439 237.626 165.045 236.315 164.481C235.016 163.922 234.409 162.425 234.945 161.122C234.368 162.407 232.864 162.996 231.566 162.438C230.264 161.878 229.658 160.377 230.198 159.073C229.625 160.365 228.117 160.959 226.815 160.399C225.507 159.836 224.901 158.324 225.455 157.015C224.886 158.316 223.372 158.916 222.066 158.354C220.754 157.79 220.148 156.269 220.712 154.958L248.693 89.8831ZM267.693 98.0527C268.257 96.741 269.777 96.1349 271.089 96.6989C272.382 97.2548 272.989 98.7398 272.466 100.038C273.049 98.7651 274.545 98.184 275.838 98.7399C277.15 99.3039 277.756 100.824 277.192 102.136L249.211 167.211C248.647 168.523 247.126 169.129 245.815 168.565C244.522 168.009 243.914 166.524 244.437 165.225C243.855 166.499 242.359 167.08 241.066 166.524C239.754 165.96 239.148 164.439 239.712 163.127L267.693 98.0527Z" fill="#4492BE"/>
<path d="M242.299 99.5114C240.988 98.9477 239.466 99.5542 238.903 100.865C238.884 100.908 238.875 100.955 238.862 101C239.402 99.9262 240.692 99.4396 241.813 99.9216C242.934 100.404 243.52 101.776 243.018 102.944C242.515 104.113 241.265 104.599 240.13 104.19C240.172 104.208 240.209 104.241 240.252 104.259C241.563 104.823 243.084 104.217 243.648 102.906C244.212 101.595 243.61 100.075 242.299 99.5114Z" fill="#1B3F53"/>
<path d="M243.019 102.945C243.522 101.776 242.983 100.425 241.814 99.9223C240.646 99.4198 239.403 99.9269 238.863 101C238.411 102.235 238.958 103.607 240.136 104.193C241.271 104.602 242.542 104.068 243.024 102.947L243.019 102.945Z" fill="#275772"/>
<path d="M233.721 119.459C232.41 118.895 230.888 119.501 230.325 120.812C230.306 120.855 230.297 120.902 230.284 120.947C230.824 119.873 232.114 119.387 233.235 119.869C234.356 120.351 234.942 121.723 234.44 122.891C233.937 124.06 232.687 124.547 231.551 124.137C231.594 124.156 231.631 124.188 231.674 124.207C232.985 124.77 234.506 124.164 235.07 122.853C235.633 121.542 235.032 120.022 233.721 119.459Z" fill="#1B3F53"/>
<path d="M234.441 122.892C234.944 121.724 234.405 120.372 233.236 119.87C232.068 119.367 230.825 119.874 230.285 120.948C229.833 122.183 230.38 123.555 231.558 124.14C232.693 124.549 233.964 124.015 234.446 122.894L234.441 122.892Z" fill="#275772"/>
<path d="M225.144 139.414C223.833 138.85 222.311 139.457 221.747 140.768C221.729 140.81 221.72 140.857 221.706 140.902C222.247 139.829 223.537 139.342 224.658 139.824C225.779 140.306 226.365 141.678 225.863 142.847C225.36 144.015 224.11 144.502 222.974 144.092C223.017 144.111 223.054 144.143 223.096 144.162C224.407 144.725 225.929 144.119 226.493 142.808C227.056 141.497 226.455 139.977 225.144 139.414Z" fill="#1B3F53"/>
<path d="M225.864 142.847C226.366 141.679 225.828 140.327 224.659 139.825C223.491 139.322 222.248 139.829 221.708 140.903C221.256 142.138 221.803 143.51 222.98 144.095C224.116 144.504 225.387 143.97 225.869 142.849L225.864 142.847Z" fill="#275772"/>
<path d="M243.235 111.734C241.924 111.17 240.403 111.777 239.839 113.088C239.821 113.131 239.812 113.177 239.798 113.222C240.339 112.149 241.628 111.662 242.749 112.144C243.87 112.626 244.457 113.998 243.954 115.167C243.452 116.335 242.201 116.822 241.066 116.413C241.109 116.431 241.145 116.464 241.188 116.482C242.499 117.046 244.021 116.439 244.584 115.128C245.148 113.817 244.546 112.298 243.235 111.734Z" fill="#1B3F53"/>
<path d="M243.956 115.168C244.458 113.999 243.919 112.647 242.751 112.145C241.582 111.642 240.34 112.15 239.8 113.223C239.347 114.458 239.894 115.83 241.072 116.415C242.208 116.825 243.478 116.291 243.96 115.17L243.956 115.168Z" fill="#275772"/>
<path d="M234.657 131.683C233.346 131.12 231.825 131.726 231.261 133.037C231.243 133.08 231.234 133.127 231.22 133.171C231.76 132.098 233.05 131.611 234.171 132.093C235.292 132.575 235.879 133.948 235.376 135.116C234.874 136.285 233.623 136.771 232.488 136.362C232.531 136.38 232.567 136.413 232.61 136.431C233.921 136.995 235.443 136.388 236.006 135.077C236.57 133.766 235.968 132.247 234.657 131.683Z" fill="#1B3F53"/>
<path d="M235.378 135.117C235.88 133.948 235.341 132.597 234.173 132.094C233.004 131.592 231.762 132.099 231.222 133.172C230.769 134.407 231.316 135.779 232.494 136.365C233.629 136.774 234.9 136.24 235.382 135.119L235.378 135.117Z" fill="#275772"/>
<path d="M254.636 116.636C253.325 116.073 251.803 116.679 251.24 117.99C251.221 118.033 251.212 118.08 251.199 118.125C251.739 117.051 253.029 116.565 254.15 117.047C255.271 117.529 255.857 118.901 255.355 120.069C254.852 121.238 253.602 121.724 252.466 121.315C252.509 121.333 252.546 121.366 252.589 121.384C253.9 121.948 255.421 121.342 255.985 120.031C256.548 118.72 255.947 117.2 254.636 116.636Z" fill="#1B3F53"/>
<path d="M255.356 120.07C255.859 118.901 255.32 117.55 254.151 117.047C252.983 116.545 251.74 117.052 251.2 118.125C250.748 119.36 251.295 120.732 252.473 121.318C253.608 121.727 254.879 121.193 255.361 120.072L255.356 120.07Z" fill="#275772"/>
<path d="M246.058 136.588C244.747 136.024 243.225 136.63 242.661 137.941C242.643 137.984 242.634 138.031 242.621 138.076C243.161 137.002 244.451 136.516 245.572 136.998C246.693 137.48 247.279 138.852 246.777 140.02C246.274 141.189 245.024 141.676 243.888 141.266C243.931 141.285 243.968 141.317 244.01 141.336C245.321 141.899 246.843 141.293 247.407 139.982C247.97 138.671 247.369 137.151 246.058 136.588Z" fill="#1B3F53"/>
<path d="M246.778 140.021C247.28 138.853 246.742 137.501 245.573 136.998C244.405 136.496 243.162 137.003 242.622 138.076C242.17 139.312 242.717 140.684 243.895 141.269C245.03 141.678 246.301 141.144 246.783 140.023L246.778 140.021Z" fill="#275772"/>
<path d="M253.699 104.414C252.388 103.85 250.867 104.457 250.303 105.768C250.285 105.81 250.276 105.857 250.262 105.902C250.802 104.829 252.092 104.342 253.213 104.824C254.334 105.306 254.921 106.678 254.418 107.847C253.916 109.015 252.665 109.502 251.53 109.092C251.573 109.111 251.609 109.143 251.652 109.162C252.963 109.725 254.485 109.119 255.048 107.808C255.612 106.497 255.01 104.977 253.699 104.414Z" fill="#1B3F53"/>
<path d="M254.42 107.847C254.922 106.679 254.383 105.327 253.215 104.825C252.046 104.322 250.804 104.829 250.264 105.903C249.811 107.138 250.358 108.51 251.536 109.095C252.671 109.504 253.942 108.97 254.424 107.849L254.42 107.847Z" fill="#275772"/>
<path d="M245.122 124.365C243.811 123.801 242.29 124.408 241.726 125.719C241.707 125.761 241.699 125.808 241.685 125.853C242.225 124.78 243.515 124.293 244.636 124.775C245.757 125.257 246.343 126.629 245.841 127.798C245.339 128.966 244.088 129.453 242.953 129.043C242.996 129.062 243.032 129.095 243.075 129.113C244.386 129.677 245.907 129.07 246.471 127.759C247.035 126.448 246.433 124.929 245.122 124.365Z" fill="#1B3F53"/>
<path d="M245.842 127.798C246.345 126.63 245.806 125.278 244.638 124.776C243.469 124.273 242.227 124.78 241.686 125.854C241.234 127.089 241.781 128.461 242.959 129.046C244.094 129.456 245.365 128.921 245.847 127.8L245.842 127.798Z" fill="#275772"/>
<path d="M236.544 144.316C235.233 143.752 233.711 144.359 233.148 145.67C233.129 145.713 233.12 145.759 233.107 145.804C233.647 144.731 234.937 144.244 236.058 144.726C237.179 145.208 237.765 146.58 237.263 147.749C236.76 148.917 235.51 149.404 234.375 148.995C234.417 149.013 234.454 149.046 234.497 149.064C235.808 149.628 237.329 149.021 237.893 147.71C238.457 146.399 237.855 144.88 236.544 144.316Z" fill="#1B3F53"/>
<path d="M237.264 147.75C237.767 146.581 237.228 145.229 236.059 144.727C234.891 144.225 233.649 144.732 233.108 145.805C232.656 147.04 233.203 148.412 234.381 148.997C235.516 149.407 236.787 148.873 237.269 147.752L237.264 147.75Z" fill="#275772"/>
<path d="M265.099 109.316C263.788 108.752 262.266 109.359 261.702 110.67C261.684 110.713 261.675 110.759 261.662 110.804C262.202 109.731 263.492 109.244 264.613 109.726C265.734 110.208 266.32 111.58 265.818 112.749C265.315 113.917 264.065 114.404 262.929 113.995C262.972 114.013 263.009 114.046 263.051 114.064C264.362 114.628 265.884 114.021 266.448 112.71C267.011 111.399 266.41 109.88 265.099 109.316Z" fill="#1B3F53"/>
<path d="M265.819 112.75C266.321 111.581 265.783 110.229 264.614 109.727C263.446 109.225 262.203 109.732 261.663 110.805C261.211 112.04 261.758 113.412 262.936 113.997C264.071 114.407 265.342 113.873 265.824 112.752L265.819 112.75Z" fill="#275772"/>
<path d="M256.519 129.267C255.208 128.704 253.686 129.31 253.122 130.621C253.104 130.664 253.095 130.711 253.081 130.755C253.622 129.682 254.912 129.195 256.033 129.677C257.154 130.159 257.74 131.532 257.238 132.7C256.735 133.869 255.485 134.355 254.349 133.946C254.392 133.964 254.429 133.997 254.471 134.015C255.782 134.579 257.304 133.972 257.868 132.661C258.431 131.35 257.83 129.831 256.519 129.267Z" fill="#1B3F53"/>
<path d="M257.239 132.701C257.741 131.532 257.203 130.181 256.034 129.678C254.866 129.176 253.623 129.683 253.083 130.756C252.631 131.991 253.178 133.363 254.355 133.949C255.491 134.358 256.762 133.824 257.244 132.703L257.239 132.701Z" fill="#275772"/>
<path d="M247.942 149.217C246.631 148.653 245.11 149.259 244.546 150.57C244.528 150.613 244.519 150.66 244.505 150.705C245.046 149.631 246.335 149.145 247.456 149.627C248.577 150.109 249.164 151.481 248.661 152.649C248.159 153.818 246.908 154.304 245.773 153.895C245.816 153.913 245.852 153.946 245.895 153.964C247.206 154.528 248.728 153.922 249.291 152.611C249.855 151.3 249.253 149.78 247.942 149.217Z" fill="#1B3F53"/>
<path d="M248.663 152.65C249.165 151.481 248.626 150.13 247.458 149.627C246.289 149.125 245.047 149.632 244.507 150.705C244.054 151.94 244.601 153.312 245.779 153.898C246.915 154.307 248.186 153.773 248.668 152.652L248.663 152.65Z" fill="#275772"/>
</g>
<g clip-path="url(#clip0_504_16126)">
<path d="M277.421 122.32L279.158 122.482C279.291 122.495 279.373 122.625 279.325 122.751C278.987 123.7 278.154 127.262 283.465 129.94C283.567 129.989 283.611 130.118 283.551 130.213C282.737 131.51 278.118 139.578 286.569 141.414C286.685 141.44 286.776 141.543 286.77 141.665C286.707 142.685 286.684 147.23 291.101 148.576C291.193 148.603 291.236 148.708 291.187 148.786L289.752 151.073L283.007 151.486L276.805 144.304L274.243 139.976L273.279 130.906L274.043 125.827L276.168 122.702L277.428 122.308L277.421 122.32Z" fill="#123F52"/>
<path d="M265.956 117.969C266.455 117.175 267.321 116.752 268.191 116.769C268.27 115.836 267.852 114.887 267.002 114.354C266.264 113.891 265.378 113.849 264.635 114.163C264.807 114.224 264.978 114.3 265.146 114.405C266.354 115.163 266.724 116.759 265.962 117.973L265.956 117.969Z" fill="#123F52"/>
<path d="M274.714 123.466C275.213 122.671 276.078 122.248 276.949 122.265C277.028 121.332 276.609 120.384 275.759 119.85C275.021 119.387 274.135 119.345 273.393 119.659C273.565 119.72 273.736 119.796 273.903 119.901C275.111 120.659 275.481 122.256 274.72 123.469L274.714 123.466Z" fill="#123F52"/>
<path d="M288.642 149.908L259.073 197.022C260.055 197.171 261.082 196.739 261.647 195.839L290.114 150.481C289.61 150.352 289.112 150.164 288.638 149.913L288.642 149.908Z" fill="#123F52"/>
<path d="M270.335 120.718C270.834 119.923 271.699 119.5 272.57 119.517C272.649 118.584 272.231 117.635 271.381 117.102C270.642 116.639 269.756 116.597 269.014 116.911C269.186 116.972 269.357 117.048 269.525 117.153C270.732 117.911 271.102 119.508 270.341 120.721L270.335 120.718Z" fill="#123F52"/>
<path d="M258.863 145.827C259.721 146.224 260.708 146.08 261.388 145.431C260.713 146.06 259.717 146.23 258.863 145.827Z" fill="#2E91BC"/>
<path d="M259.816 133.603C260.673 134 261.651 133.858 262.328 133.215C261.65 133.834 260.667 133.997 259.816 133.603Z" fill="#2E91BC"/>
<path d="M269.371 152.421C270.228 152.818 271.212 152.68 271.892 152.031C271.22 152.654 270.219 152.82 269.371 152.421Z" fill="#2E91BC"/>
<path d="M247.314 164.215C248.177 164.616 249.164 164.472 249.847 163.817C249.172 164.446 248.171 164.613 247.314 164.215Z" fill="#2E91BC"/>
<path d="M258.791 158.597C259.643 158.991 260.621 158.849 261.303 158.209C260.631 158.832 259.643 158.991 258.791 158.597Z" fill="#2E91BC"/>
<path d="M257.827 170.815C258.681 171.218 259.674 171.077 260.357 170.423C259.682 171.051 258.685 171.213 257.827 170.815Z" fill="#2E91BC"/>
<path d="M270.329 140.2C271.187 140.598 272.165 140.456 272.841 139.812C272.164 140.432 271.181 140.594 270.329 140.2Z" fill="#2E91BC"/>
<path d="M247.24 176.991C248.097 177.389 249.075 177.247 249.751 176.603C249.074 177.223 248.091 177.385 247.24 176.991Z" fill="#2E91BC"/>
<path d="M248.279 151.999C249.13 152.393 250.108 152.251 250.79 151.611C250.119 152.234 249.13 152.393 248.279 151.999Z" fill="#2E91BC"/>
<path d="M236.726 170.394C237.583 170.791 238.561 170.649 239.238 170.006C238.56 170.625 237.578 170.788 236.726 170.394Z" fill="#2E91BC"/>
<path d="M269.299 165.192C270.157 165.589 271.144 165.445 271.827 164.79C271.152 165.419 270.157 165.589 269.299 165.192Z" fill="#2E91BC"/>
<path d="M257.747 183.586C258.61 183.988 259.597 183.843 260.277 183.194C259.602 183.823 258.601 183.99 257.747 183.586Z" fill="#2E91BC"/>
<path d="M288.22 149.676C286.022 148.297 284.932 145.835 285.194 143.419C285.216 143.223 285.078 143.058 284.883 143.045C284.624 143.023 284.367 142.986 284.111 142.934C284.848 143.771 284.994 145.017 284.369 146.012C283.611 147.22 282.015 147.59 280.801 146.828C280.762 146.804 280.73 146.768 280.691 146.743C279.617 145.983 279.288 144.545 279.925 143.394C279.949 143.355 279.963 143.309 279.987 143.269C280.422 142.576 281.138 142.168 281.9 142.085C281.894 142.081 281.883 142.074 281.878 142.071C278.819 140.151 277.896 136.119 279.816 133.06C280.328 132.243 280.914 131.496 281.653 130.978C281.768 130.894 281.741 130.713 281.604 130.682C281.006 130.556 280.459 130.384 279.883 130.023C277.372 128.447 276.37 125.386 277.283 122.701C277.322 122.577 277.375 122.455 277.423 122.329C277.268 122.302 277.11 122.281 276.956 122.278C276.077 122.263 275.22 122.684 274.722 123.479C275.48 122.271 275.119 120.672 273.905 119.911C273.743 119.809 273.572 119.733 273.395 119.668C273.128 119.571 272.851 119.529 272.572 119.526C271.692 119.512 270.836 119.933 270.337 120.727C271.095 119.519 270.734 117.921 269.521 117.159C269.359 117.057 269.188 116.981 269.011 116.917C268.744 116.82 268.466 116.778 268.188 116.774C267.308 116.76 266.451 117.181 265.953 117.975C266.711 116.767 266.35 115.169 265.137 114.407C264.975 114.306 264.804 114.23 264.626 114.165C263.514 113.763 262.234 114.176 261.578 115.222L224 175.097C223.256 176.283 223.478 177.903 224.619 178.705C225.841 179.565 227.519 179.215 228.301 177.968C227.543 179.176 227.904 180.774 229.118 181.536C230.331 182.298 231.924 181.933 232.685 180.72C231.927 181.928 232.288 183.526 233.502 184.288C234.715 185.049 236.308 184.685 237.07 183.471C236.312 184.679 236.673 186.278 237.886 187.039C239.1 187.801 240.692 187.436 241.454 186.223C240.696 187.431 241.057 189.029 242.27 189.791C243.484 190.552 245.077 190.188 245.838 188.974C245.08 190.182 245.441 191.781 246.655 192.542C247.868 193.304 249.461 192.94 250.222 191.726C249.464 192.934 249.825 194.532 251.039 195.294C252.252 196.056 253.845 195.691 254.607 194.478C253.824 195.725 254.238 197.388 255.544 198.114C256.768 198.796 258.324 198.292 259.068 197.106L259.107 197.045L288.676 149.931C288.535 149.858 288.393 149.785 288.254 149.697L288.22 149.676ZM226.613 173.853L226.679 173.746C226.181 174.54 226.104 175.545 226.482 176.359C226.103 175.583 226.118 174.641 226.613 173.853ZM227.429 177.421C227.334 177.361 227.249 177.284 227.167 177.217C227.268 177.304 227.379 177.389 227.488 177.45C227.471 177.44 227.455 177.429 227.432 177.415L227.429 177.421ZM247.37 148.592C247.394 148.552 247.407 148.506 247.432 148.467C248.295 147.091 250.242 146.809 251.47 148.032C252.146 148.705 252.389 149.747 252.079 150.651C251.513 152.299 249.624 152.898 248.243 152.031C248.204 152.007 248.172 151.971 248.132 151.947C247.058 151.187 246.729 149.749 247.366 148.597L247.37 148.592ZM236.694 170.421C236.655 170.396 236.623 170.36 236.583 170.336C235.509 169.576 235.18 168.138 235.817 166.986C235.842 166.947 235.855 166.901 235.88 166.862C236.743 165.486 238.69 165.204 239.918 166.426C240.594 167.1 240.837 168.141 240.527 169.046C239.96 170.693 238.072 171.293 236.69 170.426L236.694 170.421ZM259.781 133.635C259.741 133.611 259.709 133.575 259.67 133.55C258.596 132.791 258.267 131.352 258.904 130.201C258.928 130.162 258.942 130.116 258.966 130.077C259.83 128.701 261.776 128.418 262.999 129.638C263.675 130.311 263.918 131.353 263.608 132.257C263.041 133.905 261.153 134.504 259.771 133.637L259.781 133.635ZM247.279 164.249C247.239 164.224 247.207 164.189 247.168 164.164C246.094 163.404 245.765 161.966 246.402 160.815C246.426 160.775 246.44 160.729 246.464 160.69C247.328 159.314 249.275 159.032 250.497 160.251C251.173 160.925 251.416 161.966 251.106 162.87C250.539 164.518 248.651 165.118 247.27 164.251L247.279 164.249ZM258.822 145.856C258.783 145.832 258.751 145.796 258.712 145.771C257.637 145.011 257.308 143.573 257.945 142.422C257.97 142.383 257.983 142.337 258.008 142.297C258.871 140.922 260.818 140.639 262.04 141.859C262.717 142.532 262.959 143.573 262.649 144.478C262.083 146.126 260.194 146.725 258.813 145.858L258.822 145.856ZM257.874 155.192C257.898 155.153 257.912 155.107 257.936 155.067C258.8 153.692 260.746 153.409 261.974 154.632C262.651 155.306 262.894 156.347 262.583 157.251C262.017 158.899 260.128 159.499 258.747 158.632C258.708 158.607 258.676 158.571 258.637 158.547C257.562 157.787 257.233 156.349 257.87 155.197L257.874 155.192ZM247.198 177.021C247.159 176.996 247.127 176.961 247.088 176.936C246.013 176.176 245.684 174.738 246.321 173.587C246.346 173.547 246.359 173.501 246.384 173.462C247.247 172.086 249.194 171.804 250.422 173.027C251.098 173.7 251.341 174.742 251.031 175.646C250.464 177.294 248.576 177.893 247.195 177.026L247.198 177.021ZM270.285 140.236C270.246 140.211 270.213 140.175 270.174 140.151C269.1 139.391 268.771 137.953 269.408 136.801C269.432 136.762 269.446 136.716 269.47 136.677C270.334 135.301 272.281 135.019 273.503 136.238C274.179 136.912 274.422 137.953 274.112 138.857C273.545 140.505 271.657 141.105 270.276 140.238L270.285 140.236ZM257.783 170.849C257.744 170.825 257.712 170.789 257.672 170.764C256.598 170.004 256.269 168.566 256.906 167.415C256.931 167.376 256.944 167.33 256.969 167.29C257.832 165.915 259.779 165.632 261.001 166.851C261.677 167.525 261.92 168.566 261.61 169.471C261.044 171.118 259.155 171.718 257.774 170.851L257.783 170.849ZM269.326 152.457C269.287 152.432 269.255 152.396 269.216 152.372C268.141 151.612 267.812 150.174 268.449 149.022C268.474 148.983 268.487 148.937 268.512 148.898C269.375 147.522 271.322 147.24 272.544 148.459C273.221 149.133 273.464 150.174 273.153 151.078C272.587 152.726 270.698 153.326 269.317 152.459L269.326 152.457ZM272.473 161.229C273.149 161.903 273.392 162.944 273.082 163.848C272.515 165.496 270.627 166.095 269.246 165.229C269.206 165.204 269.174 165.168 269.135 165.144C268.061 164.384 267.732 162.946 268.369 161.794C268.393 161.755 268.407 161.709 268.431 161.67C269.295 160.294 271.241 160.011 272.469 161.234L272.473 161.229ZM257.702 183.621C257.663 183.597 257.631 183.561 257.592 183.536C256.518 182.776 256.189 181.338 256.825 180.187C256.85 180.148 256.863 180.102 256.888 180.062C257.751 178.687 259.698 178.404 260.926 179.627C261.602 180.301 261.845 181.342 261.535 182.246C260.969 183.894 259.08 184.494 257.699 183.627L257.702 183.621Z" fill="#2E91BC"/>
<path d="M280.837 146.795C281.7 147.197 282.687 147.052 283.367 146.403C282.692 147.032 281.691 147.199 280.837 146.795Z" fill="#2E91BC"/>
<path d="M262.537 129.254C261.329 128.496 259.731 128.857 258.969 130.071C258.945 130.11 258.931 130.156 258.907 130.195C259.607 129.216 260.916 128.907 261.989 129.581C263.063 130.255 263.388 131.675 262.714 132.748C262.602 132.927 262.463 133.074 262.316 133.208C261.634 133.848 260.656 133.99 259.805 133.596C259.76 133.568 259.71 133.56 259.668 133.541C259.707 133.566 259.739 133.602 259.778 133.626C260.986 134.384 262.584 134.023 263.346 132.81C264.108 131.596 263.743 130.003 262.535 129.245L262.537 129.254Z" fill="#123F52"/>
<path d="M262.333 133.218C262.474 133.08 262.613 132.934 262.725 132.755C263.402 131.676 263.029 130.233 262 129.587C260.971 128.942 259.618 129.223 258.918 130.202C258.281 131.353 258.61 132.791 259.684 133.551C259.729 133.579 259.779 133.587 259.823 133.615C260.675 134.009 261.663 133.85 262.335 133.227L262.333 133.218Z" fill="#1A5771"/>
<path d="M259.815 133.601C259.771 133.573 259.722 133.566 259.678 133.538C259.722 133.566 259.771 133.573 259.813 133.592L259.815 133.601Z" fill="#1A5771"/>
<path d="M261.995 129.584C263.029 130.233 263.393 131.678 262.719 132.751C262.607 132.93 262.474 133.08 262.327 133.215C262.474 133.08 262.613 132.934 262.725 132.755C263.402 131.676 263.074 130.261 262 129.587C260.927 128.914 259.618 129.223 258.918 130.202C259.618 129.223 260.966 128.938 262 129.587L261.995 129.584Z" fill="#1A5771"/>
<path d="M250.994 147.647C249.786 146.889 248.187 147.25 247.426 148.463C247.401 148.502 247.388 148.548 247.363 148.588C248.064 147.608 249.372 147.299 250.446 147.973C251.52 148.647 251.844 150.067 251.171 151.141C251.058 151.32 250.923 151.461 250.782 151.598C250.1 152.238 249.127 152.384 248.27 151.986C248.222 151.964 248.176 151.95 248.128 151.928C248.167 151.952 248.199 151.988 248.238 152.013C249.446 152.771 251.044 152.41 251.806 151.196C252.567 149.983 252.203 148.39 250.995 147.632L250.994 147.647Z" fill="#123F52"/>
<path d="M250.79 151.611C250.931 151.473 251.069 151.327 251.178 151.153C251.856 150.074 251.482 148.632 250.453 147.986C249.424 147.34 248.071 147.621 247.371 148.6C246.734 149.752 247.063 151.19 248.137 151.95C248.182 151.978 248.237 151.989 248.285 152.011C249.137 152.406 250.12 152.243 250.797 151.624L250.79 151.611Z" fill="#1A5771"/>
<path d="M248.277 151.997C248.23 151.975 248.184 151.962 248.131 151.936C248.175 151.964 248.224 151.972 248.272 151.994L248.277 151.997Z" fill="#1A5771"/>
<path d="M250.451 147.976C251.486 148.625 251.85 150.07 251.176 151.144C251.064 151.322 250.931 151.473 250.788 151.601C250.934 151.467 251.067 151.317 251.176 151.144C251.854 150.064 251.525 148.65 250.451 147.976C249.378 147.302 248.069 147.611 247.369 148.59C248.069 147.611 249.417 147.327 250.451 147.976Z" fill="#1A5771"/>
<path d="M239.45 166.04C238.242 165.281 236.644 165.642 235.882 166.856C235.858 166.895 235.844 166.941 235.82 166.98C236.52 166.001 237.829 165.692 238.902 166.366C239.976 167.04 240.301 168.46 239.627 169.534C239.515 169.712 239.376 169.859 239.229 169.993C238.547 170.633 237.569 170.775 236.718 170.381C236.673 170.353 236.623 170.345 236.581 170.326C236.62 170.351 236.652 170.387 236.691 170.411C237.899 171.169 239.497 170.808 240.259 169.595C241.021 168.381 240.656 166.789 239.448 166.03L239.45 166.04Z" fill="#123F52"/>
<path d="M239.243 170.009C239.384 169.872 239.523 169.725 239.635 169.546C240.313 168.467 239.939 167.024 238.91 166.378C237.882 165.733 236.528 166.014 235.828 166.993C235.191 168.144 235.52 169.582 236.594 170.342C236.639 170.37 236.689 170.378 236.733 170.406C237.585 170.8 238.574 170.641 239.245 170.018L239.243 170.009Z" fill="#1A5771"/>
<path d="M236.724 170.392C236.68 170.364 236.631 170.357 236.587 170.329C236.631 170.357 236.68 170.364 236.722 170.383L236.724 170.392Z" fill="#1A5771"/>
<path d="M238.905 166.375C239.939 167.024 240.303 168.469 239.63 169.542C239.517 169.721 239.384 169.872 239.238 170.006C239.384 169.872 239.523 169.725 239.635 169.546C240.313 168.467 239.984 167.052 238.91 166.378C237.837 165.705 236.528 166.014 235.828 166.993C236.528 166.014 237.876 165.729 238.91 166.378L238.905 166.375Z" fill="#1A5771"/>
<path d="M261.588 141.473C260.381 140.715 258.782 141.076 258.021 142.289C257.996 142.328 257.983 142.375 257.958 142.414C258.658 141.435 259.967 141.126 261.041 141.799C262.114 142.473 262.437 143.884 261.772 144.956L261.765 144.967C261.656 145.14 261.527 145.285 261.384 145.413C260.7 146.068 259.713 146.212 258.859 145.809C258.815 145.781 258.765 145.773 258.722 145.754C258.761 145.779 258.794 145.814 258.833 145.839C260.041 146.597 261.639 146.236 262.401 145.023C263.162 143.809 262.798 142.216 261.59 141.458L261.588 141.473Z" fill="#123F52"/>
<path d="M261.391 145.426C261.528 145.294 261.658 145.149 261.767 144.976L261.774 144.964C262.439 143.893 262.071 142.454 261.042 141.808C260.013 141.162 258.66 141.443 257.96 142.422C257.323 143.574 257.652 145.012 258.726 145.772C258.771 145.8 258.821 145.808 258.865 145.836C259.723 146.234 260.715 146.069 261.39 145.44L261.391 145.426Z" fill="#1A5771"/>
<path d="M261.391 145.426C261.534 145.297 261.664 145.153 261.773 144.979C261.664 145.153 261.534 145.297 261.397 145.429L261.391 145.426Z" fill="#1A5771"/>
<path d="M261.036 141.804C262.065 142.45 262.433 143.889 261.768 144.96C262.433 143.889 262.11 142.478 261.036 141.804C259.963 141.13 258.654 141.439 257.954 142.418C258.654 141.439 260.002 141.155 261.036 141.804Z" fill="#1A5771"/>
<path d="M258.862 145.826C258.818 145.798 258.769 145.79 258.724 145.762C258.769 145.79 258.818 145.798 258.86 145.817L258.862 145.826Z" fill="#1A5771"/>
<path d="M250.042 159.871C248.834 159.113 247.235 159.474 246.474 160.688C246.449 160.727 246.436 160.773 246.411 160.812C247.111 159.833 248.42 159.524 249.494 160.198C250.567 160.872 250.89 162.283 250.225 163.354C250.225 163.354 250.222 163.36 250.218 163.365C250.113 163.533 249.983 163.678 249.837 163.812C249.153 164.466 248.163 164.616 247.303 164.209C247.264 164.185 247.215 164.177 247.17 164.149C247.209 164.174 247.241 164.209 247.28 164.234C248.488 164.992 250.087 164.631 250.848 163.418C251.61 162.204 251.245 160.611 250.037 159.853L250.042 159.871Z" fill="#123F52"/>
<path d="M249.848 163.818C249.986 163.686 250.115 163.541 250.224 163.368C250.224 163.368 250.228 163.363 250.231 163.357C250.899 162.28 250.528 160.846 249.499 160.201C248.47 159.555 247.117 159.836 246.417 160.815C245.78 161.966 246.109 163.405 247.183 164.164C247.228 164.193 247.274 164.206 247.317 164.225C248.174 164.623 249.175 164.456 249.85 163.827L249.848 163.818Z" fill="#1A5771"/>
<path d="M247.313 164.215C247.269 164.187 247.22 164.18 247.181 164.155C247.225 164.183 247.274 164.191 247.313 164.215Z" fill="#1A5771"/>
<path d="M249.493 160.197C250.522 160.843 250.89 162.281 250.225 163.353C250.893 162.276 250.567 160.871 249.493 160.197C248.42 159.523 247.111 159.832 246.411 160.811C247.111 159.832 248.459 159.547 249.493 160.197Z" fill="#1A5771"/>
<path d="M249.847 163.818C249.985 163.686 250.12 163.545 250.229 163.372C250.12 163.545 249.99 163.69 249.853 163.822L249.847 163.818Z" fill="#1A5771"/>
<path d="M272.096 148.066C270.888 147.308 269.289 147.669 268.528 148.883C268.503 148.922 268.49 148.968 268.465 149.007C269.165 148.028 270.474 147.719 271.548 148.393C272.621 149.067 272.944 150.478 272.279 151.549L272.272 151.56C272.164 151.734 272.03 151.884 271.887 152.012C271.207 152.661 270.22 152.806 269.367 152.402C269.327 152.378 269.272 152.367 269.233 152.342C269.272 152.367 269.304 152.402 269.343 152.427C270.551 153.185 272.15 152.824 272.911 151.611C273.673 150.397 273.309 148.804 272.101 148.046L272.096 148.066Z" fill="#123F52"/>
<path d="M271.895 152.027C272.033 151.895 272.166 151.745 272.275 151.571L272.282 151.56C272.947 150.488 272.579 149.05 271.55 148.404C270.521 147.758 269.168 148.039 268.468 149.018C267.831 150.17 268.16 151.608 269.234 152.368C269.279 152.396 269.325 152.409 269.373 152.432C270.23 152.829 271.222 152.665 271.894 152.042L271.895 152.027Z" fill="#1A5771"/>
<path d="M271.895 152.025C272.041 151.891 272.171 151.746 272.28 151.573C272.171 151.746 272.038 151.897 271.9 152.029L271.895 152.025Z" fill="#1A5771"/>
<path d="M271.55 148.404C272.579 149.05 272.947 150.488 272.282 151.56C272.947 150.488 272.624 149.078 271.55 148.404C270.476 147.73 269.168 148.039 268.468 149.018C269.168 148.039 270.516 147.755 271.55 148.404Z" fill="#1A5771"/>
<path d="M269.37 152.42C269.325 152.392 269.276 152.384 269.232 152.356C269.276 152.384 269.325 152.392 269.364 152.416L269.37 152.42Z" fill="#1A5771"/>
<path d="M260.548 166.465C259.34 165.707 257.742 166.068 256.98 167.281C256.956 167.321 256.943 167.367 256.918 167.406C257.618 166.427 258.927 166.118 260.001 166.792C261.074 167.465 261.397 168.876 260.732 169.948C260.732 169.948 260.729 169.953 260.725 169.959C260.616 170.132 260.487 170.277 260.34 170.411C259.657 171.066 258.673 171.204 257.81 170.803C257.771 170.779 257.721 170.771 257.677 170.743C257.716 170.767 257.748 170.803 257.787 170.828C258.995 171.586 260.593 171.225 261.355 170.011C262.117 168.798 261.752 167.205 260.544 166.447L260.548 166.465Z" fill="#123F52"/>
<path d="M260.351 170.419C260.489 170.287 260.622 170.137 260.731 169.964C260.731 169.964 260.734 169.958 260.738 169.953C261.406 168.875 261.035 167.442 260.006 166.796C258.977 166.151 257.624 166.431 256.924 167.411C256.287 168.562 256.616 170 257.69 170.76C257.735 170.788 257.781 170.802 257.824 170.821C258.681 171.218 259.678 171.057 260.353 170.429L260.351 170.419Z" fill="#1A5771"/>
<path d="M260.006 166.796C261.035 167.442 261.403 168.881 260.738 169.953C261.406 168.875 261.08 167.47 260.006 166.796C258.932 166.123 257.624 166.431 256.924 167.411C257.624 166.431 258.972 166.147 260.006 166.796Z" fill="#1A5771"/>
<path d="M260.352 170.418C260.495 170.289 260.628 170.139 260.737 169.966C260.628 170.139 260.495 170.289 260.357 170.421L260.352 170.418Z" fill="#1A5771"/>
<path d="M257.826 170.813C257.787 170.788 257.732 170.777 257.694 170.753C257.732 170.777 257.782 170.785 257.826 170.813Z" fill="#1A5771"/>
<path d="M273.051 135.852C271.843 135.094 270.245 135.455 269.483 136.668C269.458 136.708 269.445 136.754 269.42 136.793C270.121 135.814 271.429 135.505 272.503 136.179C273.577 136.852 273.902 138.272 273.228 139.346C273.115 139.525 272.977 139.672 272.83 139.806C272.148 140.446 271.17 140.588 270.318 140.194C270.274 140.166 270.224 140.158 270.181 140.139C270.22 140.163 270.253 140.199 270.292 140.224C271.5 140.982 273.098 140.621 273.86 139.407C274.621 138.194 274.257 136.601 273.049 135.843L273.051 135.852Z" fill="#123F52"/>
<path d="M272.841 139.812C272.982 139.674 273.121 139.528 273.233 139.349C273.91 138.269 273.537 136.827 272.508 136.181C271.479 135.535 270.126 135.816 269.426 136.795C268.789 137.947 269.118 139.385 270.192 140.145C270.237 140.173 270.286 140.181 270.331 140.209C271.183 140.603 272.171 140.444 272.843 139.821L272.841 139.812Z" fill="#1A5771"/>
<path d="M270.328 140.199C270.284 140.171 270.234 140.163 270.19 140.135C270.234 140.163 270.284 140.171 270.326 140.19L270.328 140.199Z" fill="#1A5771"/>
<path d="M272.508 136.182C273.543 136.831 273.907 138.275 273.233 139.349C273.121 139.528 272.988 139.678 272.841 139.812C272.988 139.678 273.126 139.531 273.239 139.352C273.916 138.273 273.588 136.859 272.514 136.185C271.44 135.511 270.132 135.82 269.431 136.799C270.132 135.82 271.479 135.536 272.514 136.185L272.508 136.182Z" fill="#1A5771"/>
<path d="M261.507 154.244C260.299 153.486 258.701 153.847 257.939 155.061C257.915 155.1 257.902 155.146 257.877 155.185C258.577 154.206 259.886 153.897 260.959 154.571C262.033 155.245 262.358 156.665 261.684 157.738C261.572 157.917 261.437 158.058 261.296 158.196C260.613 158.836 259.641 158.982 258.784 158.584C258.736 158.561 258.689 158.548 258.641 158.526C258.68 158.55 258.712 158.586 258.752 158.61C259.96 159.369 261.558 159.008 262.32 157.794C263.081 156.581 262.717 154.988 261.509 154.23L261.507 154.244Z" fill="#123F52"/>
<path d="M261.297 158.205C261.438 158.067 261.577 157.92 261.686 157.747C262.363 156.668 261.99 155.225 260.961 154.58C259.932 153.934 258.579 154.215 257.879 155.194C257.242 156.345 257.571 157.783 258.645 158.543C258.69 158.571 258.745 158.583 258.793 158.605C259.645 158.999 260.628 158.837 261.305 158.217L261.297 158.205Z" fill="#1A5771"/>
<path d="M258.79 158.595C258.742 158.573 258.697 158.56 258.643 158.534C258.688 158.562 258.737 158.569 258.785 158.592L258.79 158.595Z" fill="#1A5771"/>
<path d="M260.965 154.574C262 155.223 262.364 156.667 261.69 157.741C261.578 157.92 261.444 158.07 261.301 158.199C261.448 158.065 261.581 157.915 261.69 157.741C262.367 156.662 262.039 155.248 260.965 154.574C259.891 153.9 258.583 154.209 257.883 155.188C258.583 154.209 259.931 153.924 260.965 154.574Z" fill="#1A5771"/>
<path d="M249.964 172.637C248.756 171.879 247.158 172.24 246.396 173.454C246.372 173.493 246.358 173.539 246.334 173.578C247.034 172.599 248.342 172.29 249.416 172.964C250.49 173.638 250.815 175.057 250.141 176.131C250.029 176.31 249.89 176.457 249.743 176.591C249.061 177.231 248.083 177.373 247.231 176.979C247.187 176.951 247.137 176.943 247.094 176.924C247.133 176.949 247.166 176.984 247.205 177.009C248.413 177.767 250.011 177.406 250.773 176.193C251.534 174.979 251.17 173.386 249.962 172.628L249.964 172.637Z" fill="#123F52"/>
<path d="M249.751 176.603C249.892 176.465 250.031 176.319 250.143 176.14C250.82 175.06 250.447 173.618 249.418 172.972C248.389 172.326 247.036 172.607 246.336 173.586C245.699 174.738 246.028 176.176 247.102 176.936C247.147 176.964 247.196 176.972 247.241 177C248.093 177.394 249.081 177.235 249.753 176.612L249.751 176.603Z" fill="#1A5771"/>
<path d="M247.238 176.99C247.194 176.962 247.145 176.954 247.1 176.926C247.145 176.954 247.194 176.962 247.236 176.981L247.238 176.99Z" fill="#1A5771"/>
<path d="M249.419 172.973C250.453 173.622 250.817 175.066 250.143 176.14C250.031 176.319 249.898 176.469 249.751 176.603C249.898 176.469 250.037 176.322 250.149 176.144C250.826 175.064 250.498 173.65 249.424 172.976C248.35 172.302 247.042 172.611 246.342 173.59C247.042 172.611 248.39 172.327 249.424 172.976L249.419 172.973Z" fill="#1A5771"/>
<path d="M279.996 143.266C279.971 143.305 279.958 143.351 279.933 143.391C280.634 142.411 281.942 142.102 283.016 142.776C284.09 143.45 284.418 144.864 283.744 145.938C283.744 145.938 283.744 145.938 283.741 145.944C283.632 146.117 283.502 146.262 283.359 146.39C282.676 147.045 281.688 147.189 280.829 146.782C280.79 146.758 280.74 146.75 280.696 146.722C280.735 146.746 280.767 146.782 280.806 146.807C282.014 147.565 283.612 147.204 284.374 145.99C284.999 144.995 284.853 143.75 284.115 142.913C283.355 142.771 282.607 142.496 281.914 142.061C281.152 142.144 280.44 142.547 280.001 143.246L279.996 143.266Z" fill="#123F52"/>
<path d="M283.362 146.4C283.499 146.268 283.629 146.124 283.738 145.95C283.738 145.95 283.738 145.95 283.741 145.945C284.415 144.871 284.042 143.428 283.013 142.783C281.984 142.137 280.631 142.418 279.93 143.397C279.294 144.548 279.623 145.987 280.697 146.746C280.742 146.775 280.788 146.788 280.83 146.807C281.688 147.205 282.685 147.043 283.36 146.415L283.362 146.4Z" fill="#1A5771"/>
<path d="M280.836 146.795C280.791 146.767 280.742 146.76 280.703 146.735C280.748 146.763 280.797 146.771 280.836 146.795Z" fill="#1A5771"/>
<path d="M283.016 142.777C284.045 143.423 284.418 144.865 283.744 145.939C284.418 144.865 284.09 143.451 283.016 142.777C281.942 142.103 280.634 142.412 279.933 143.391C280.634 142.412 281.981 142.128 283.016 142.777Z" fill="#1A5771"/>
<path d="M283.361 146.4C283.504 146.272 283.637 146.122 283.743 145.954C283.634 146.127 283.504 146.272 283.367 146.404L283.361 146.4Z" fill="#1A5771"/>
<path d="M272.015 160.838C270.807 160.08 269.208 160.441 268.447 161.655C268.422 161.694 268.409 161.74 268.384 161.779C269.085 160.8 270.393 160.491 271.467 161.165C272.541 161.839 272.869 163.253 272.195 164.327C272.195 164.327 272.195 164.327 272.192 164.332C272.083 164.506 271.953 164.65 271.81 164.779C271.126 165.433 270.139 165.578 269.282 165.18C269.237 165.152 269.188 165.144 269.14 165.122C269.179 165.146 269.211 165.182 269.25 165.207C270.458 165.965 272.056 165.604 272.818 164.39C273.579 163.177 273.215 161.584 272.007 160.826L272.015 160.838Z" fill="#123F52"/>
<path d="M271.824 164.797C271.961 164.665 272.091 164.52 272.2 164.347C272.2 164.347 272.2 164.347 272.203 164.341C272.877 163.267 272.504 161.825 271.475 161.179C270.446 160.533 269.093 160.814 268.392 161.793C267.755 162.945 268.084 164.383 269.159 165.143C269.203 165.171 269.253 165.179 269.301 165.201C270.159 165.599 271.154 165.429 271.829 164.8L271.824 164.797Z" fill="#1A5771"/>
<path d="M269.298 165.191C269.254 165.163 269.205 165.156 269.157 165.133C269.201 165.161 269.25 165.169 269.298 165.191Z" fill="#1A5771"/>
<path d="M271.473 161.169C272.502 161.815 272.875 163.258 272.201 164.331C272.875 163.258 272.547 161.843 271.473 161.169C270.399 160.496 269.091 160.805 268.39 161.784C269.091 160.805 270.438 160.52 271.473 161.169Z" fill="#1A5771"/>
<path d="M271.824 164.795C271.961 164.663 272.097 164.522 272.206 164.348C272.097 164.522 271.967 164.666 271.83 164.798L271.824 164.795Z" fill="#1A5771"/>
<path d="M260.472 179.232C259.264 178.474 257.665 178.835 256.904 180.049C256.879 180.088 256.866 180.134 256.841 180.173C257.541 179.194 258.85 178.885 259.924 179.559C260.997 180.233 261.326 181.647 260.652 182.721C260.652 182.721 260.652 182.721 260.648 182.726C260.54 182.9 260.41 183.044 260.267 183.173C259.583 183.827 258.596 183.972 257.737 183.565C257.698 183.54 257.648 183.533 257.603 183.504C257.643 183.529 257.675 183.565 257.714 183.589C258.922 184.347 260.52 183.987 261.282 182.773C262.043 181.56 261.679 179.967 260.471 179.209L260.472 179.232Z" fill="#123F52"/>
<path d="M260.275 183.185C260.412 183.053 260.542 182.909 260.651 182.735C260.651 182.735 260.651 182.735 260.654 182.73C261.328 181.656 260.955 180.214 259.926 179.568C258.897 178.922 257.544 179.203 256.844 180.182C256.207 181.334 256.536 182.772 257.61 183.532C257.655 183.56 257.701 183.573 257.743 183.592C258.601 183.99 259.598 183.829 260.273 183.2L260.275 183.185Z" fill="#1A5771"/>
<path d="M259.926 179.568C260.955 180.214 261.328 181.656 260.654 182.73C261.328 181.656 261 180.242 259.926 179.568C258.852 178.894 257.544 179.203 256.844 180.182C257.544 179.203 258.892 178.919 259.926 179.568Z" fill="#1A5771"/>
<path d="M257.746 183.586C257.702 183.558 257.652 183.551 257.614 183.526C257.658 183.554 257.707 183.562 257.746 183.586Z" fill="#1A5771"/>
<path d="M260.275 183.185C260.418 183.057 260.551 182.907 260.657 182.739C260.548 182.912 260.418 183.057 260.281 183.189L260.275 183.185Z" fill="#1A5771"/>
</g>
<defs>
<filter id="filter0_d_504_16126" x="211.001" y="83.8965" width="72.2334" height="89.8789" filterUnits="userSpaceOnUse" color-interpolation-filters="sRGB">
<feFlood flood-opacity="0" result="BackgroundImageFix"/>
<feColorMatrix in="SourceAlpha" type="matrix" values="0 0 0 0 0 0 0 0 0 0 0 0 0 0 0 0 0 0 127 0" result="hardAlpha"/>
<feOffset dx="4" dy="5"/>
<feComposite in2="hardAlpha" operator="out"/>
<feColorMatrix type="matrix" values="0 0 0 0 0 0 0 0 0 0 0 0 0 0 0 0 0 0 0.25 0"/>
<feBlend mode="normal" in2="BackgroundImageFix" result="effect1_dropShadow_504_16126"/>
<feBlend mode="normal" in="SourceGraphic" in2="effect1_dropShadow_504_16126" result="shape"/>
</filter>
<clipPath id="clip0_504_16126">
<rect width="42.9148" height="77.042" fill="white" transform="translate(263.501 112.156) rotate(32.1127)"/>
</clipPath>
</defs>
</svg>
