<svg width="351" height="265" viewBox="0 0 351 265" fill="none" xmlns="http://www.w3.org/2000/svg">
<rect x="0.228516" y="0.207031" width="350" height="264" fill="#87B499"/>
<circle cx="239.155" cy="160.331" r="66.4492" transform="rotate(2.56318 239.155 160.331)" fill="#271A13"/>
<circle cx="244.158" cy="152.573" r="58.4753" transform="rotate(2.56318 244.158 152.573)" fill="#6B4630"/>
<path fill-rule="evenodd" clip-rule="evenodd" d="M264.407 206.903C285.809 199.098 301.508 179.033 302.591 154.856C304.027 122.776 279.185 95.6066 247.106 94.1706C215.026 92.7345 187.857 117.576 186.421 149.655C186.386 150.439 186.366 151.219 186.362 151.996C186.297 152.76 186.247 153.529 186.212 154.303C184.842 184.916 208.25 210.83 238.497 212.184C247.754 212.598 256.578 210.664 264.407 206.903ZM241.905 210.34C249.808 210.694 257.412 209.453 264.407 206.903C282.159 198.374 294.793 180.45 295.744 159.206C297.114 128.593 273.706 102.679 243.459 101.325C213.977 100.005 188.881 122.507 186.362 151.996C186.202 183.046 210.609 208.939 241.905 210.34Z" fill="#3F2415"/>
<path fill-rule="evenodd" clip-rule="evenodd" d="M241.637 216.313C277.016 217.896 306.98 190.5 308.564 155.121C310.147 119.742 282.751 89.7776 247.372 88.1938C211.993 86.6101 182.029 114.007 180.445 149.386C178.861 184.765 206.258 214.729 241.637 216.313ZM241.904 210.34C273.983 211.776 301.153 186.935 302.589 154.856C304.025 122.776 279.184 95.6066 247.104 94.1705C215.025 92.7345 187.855 117.576 186.419 149.655C184.983 181.735 209.825 208.904 241.904 210.34Z" fill="#A5795F"/>
<g filter="url(#filter0_d_504_16128)">
<path fill-rule="evenodd" clip-rule="evenodd" d="M244.959 84.1372C243.639 83.5695 242.108 84.1796 241.541 85.4997L213.996 149.56C213.428 150.881 214.038 152.411 215.358 152.979C216.678 153.546 218.209 152.936 218.776 151.616L246.321 87.5553C246.889 86.2352 246.279 84.7048 244.959 84.1372ZM249.739 86.1958C248.419 85.6281 246.888 86.2382 246.321 87.5583L218.776 151.619C218.208 152.939 218.818 154.47 220.138 155.037C221.446 155.6 222.961 155.006 223.541 153.711C223 155.023 223.611 156.53 224.919 157.092C226.225 157.653 227.737 157.062 228.319 155.771C227.782 157.081 228.393 158.585 229.699 159.147C231.019 159.714 232.55 159.104 233.117 157.784L260.662 93.7233C261.23 92.4031 260.62 90.8728 259.3 90.3051C257.993 89.7435 256.481 90.3347 255.9 91.6259C256.436 90.3156 255.825 88.8119 254.519 88.2503C253.212 87.688 251.697 88.2814 251.117 89.5761C251.657 88.2647 251.047 86.758 249.739 86.1958ZM260.663 93.7224C261.23 92.4022 262.761 91.7922 264.081 92.3598C265.401 92.9275 266.011 94.4578 265.443 95.7779L237.898 159.839C237.331 161.159 235.8 161.769 234.48 161.201C233.16 160.634 232.55 159.103 233.118 157.783L260.663 93.7224ZM268.861 94.4167C267.541 93.849 266.011 94.4591 265.443 95.7792L237.898 159.84C237.331 161.16 237.941 162.69 239.261 163.258C240.578 163.824 242.104 163.219 242.675 161.905C242.115 163.223 242.725 164.746 244.042 165.313C245.362 165.88 246.892 165.27 247.46 163.95L275.005 99.8893C275.572 98.5691 274.962 97.0388 273.642 96.4712C272.325 95.9048 270.799 96.5107 270.228 97.8245C270.788 96.5067 270.178 94.9828 268.861 94.4167ZM278.423 98.5278C277.102 97.9602 275.572 98.5702 275.004 99.8903L247.46 163.951C246.892 165.271 247.502 166.802 248.822 167.369C250.142 167.937 251.673 167.327 252.24 166.007L279.785 101.946C280.353 100.626 279.743 99.0954 278.423 98.5278Z" fill="#804025"/>
<path fill-rule="evenodd" clip-rule="evenodd" d="M243.114 84.477C241.794 83.9094 240.263 84.5194 239.696 85.8396L211.534 151.335C210.967 152.655 211.577 154.185 212.897 154.753C214.217 155.32 215.747 154.71 216.315 153.39L244.476 87.8951C245.044 86.575 244.434 85.0446 243.114 84.477ZM247.894 86.5356C246.574 85.968 245.044 86.578 244.476 87.8981L216.315 153.393C215.747 154.713 216.357 156.244 217.677 156.811C218.985 157.374 220.499 156.78 221.079 155.485C220.539 156.797 221.15 158.304 222.458 158.866C223.764 159.427 225.276 158.836 225.857 157.545C225.321 158.855 225.932 160.359 227.238 160.921C228.558 161.488 230.088 160.878 230.656 159.558L258.817 94.0631C259.385 92.743 258.775 91.2126 257.455 90.645C256.149 90.0834 254.637 90.6746 254.055 91.9658C254.592 90.6554 253.981 89.1517 252.675 88.5902C251.367 88.0278 249.853 88.6213 249.273 89.916C249.813 88.6046 249.202 87.0978 247.894 86.5356ZM258.818 94.0622C259.386 92.7421 260.916 92.132 262.236 92.6997C263.556 93.2673 264.166 94.7977 263.599 96.1178L235.437 161.613C234.869 162.933 233.339 163.543 232.019 162.975C230.699 162.408 230.089 160.877 230.656 159.557L258.818 94.0622ZM267.016 94.7565C265.696 94.1889 264.166 94.7989 263.598 96.1191L235.437 161.614C234.869 162.934 235.479 164.465 236.799 165.032C238.116 165.598 239.643 164.993 240.213 163.679C239.653 164.997 240.264 166.52 241.58 167.087C242.901 167.654 244.431 167.044 244.999 165.724L273.16 100.229C273.728 98.909 273.118 97.3786 271.798 96.811C270.48 96.2447 268.954 96.8506 268.383 98.1644C268.943 96.8466 268.333 95.3227 267.016 94.7565ZM276.578 98.8676C275.258 98.3 273.727 98.91 273.16 100.23L244.998 165.725C244.431 167.045 245.041 168.576 246.361 169.143C247.681 169.711 249.211 169.101 249.779 167.781L277.94 102.286C278.508 100.966 277.898 99.4353 276.578 98.8676Z" fill="#BE6944"/>
<path d="M242.821 99.6452C241.502 99.0777 239.97 99.6883 239.403 101.008C239.384 101.051 239.375 101.098 239.362 101.143C239.905 100.063 241.204 99.5729 242.332 100.058C243.461 100.543 244.051 101.925 243.545 103.101C243.039 104.277 241.781 104.767 240.638 104.355C240.681 104.373 240.718 104.406 240.761 104.425C242.08 104.992 243.612 104.382 244.179 103.062C244.747 101.742 244.141 100.213 242.821 99.6452Z" fill="#804025"/>
<path d="M243.545 103.101C244.05 101.925 243.508 100.565 242.332 100.059C241.156 99.5533 239.905 100.064 239.361 101.144C238.906 102.387 239.457 103.768 240.642 104.357C241.785 104.77 243.064 104.232 243.55 103.104L243.545 103.101Z" fill="#8E482A"/>
<path d="M234.188 119.725C232.868 119.158 231.336 119.768 230.769 121.088C230.75 121.131 230.741 121.178 230.728 121.223C231.272 120.143 232.57 119.653 233.699 120.138C234.827 120.623 235.417 122.005 234.911 123.181C234.406 124.357 233.147 124.847 232.004 124.435C232.047 124.453 232.084 124.486 232.127 124.505C233.447 125.072 234.978 124.462 235.546 123.142C236.113 121.822 235.507 120.293 234.188 119.725Z" fill="#804025"/>
<path d="M234.911 123.182C235.417 122.005 234.874 120.645 233.698 120.139C232.522 119.633 231.272 120.144 230.728 121.224C230.272 122.467 230.823 123.848 232.009 124.438C233.151 124.85 234.431 124.312 234.916 123.184L234.911 123.182Z" fill="#8E482A"/>
<path d="M225.555 139.805C224.235 139.238 222.704 139.848 222.136 141.168C222.118 141.211 222.109 141.258 222.095 141.303C222.639 140.223 223.937 139.733 225.066 140.218C226.194 140.703 226.784 142.085 226.279 143.261C225.773 144.437 224.514 144.927 223.371 144.515C223.414 144.534 223.451 144.566 223.494 144.585C224.814 145.152 226.345 144.542 226.913 143.222C227.48 141.902 226.875 140.373 225.555 139.805Z" fill="#804025"/>
<path d="M226.278 143.262C226.784 142.085 226.242 140.725 225.065 140.219C223.889 139.713 222.639 140.224 222.095 141.304C221.64 142.547 222.19 143.929 223.376 144.518C224.519 144.93 225.798 144.392 226.283 143.264L226.278 143.262Z" fill="#8E482A"/>
<path d="M243.765 111.946C242.445 111.379 240.913 111.989 240.346 113.309C240.328 113.352 240.319 113.399 240.305 113.444C240.849 112.363 242.147 111.874 243.276 112.359C244.404 112.844 244.994 114.225 244.489 115.402C243.983 116.578 242.724 117.068 241.581 116.656C241.624 116.674 241.661 116.707 241.704 116.725C243.024 117.293 244.555 116.682 245.123 115.363C245.69 114.043 245.085 112.513 243.765 111.946Z" fill="#804025"/>
<path d="M244.488 115.402C244.994 114.226 244.452 112.866 243.275 112.36C242.099 111.854 240.849 112.364 240.305 113.445C239.85 114.688 240.4 116.069 241.586 116.658C242.729 117.07 244.008 116.533 244.493 115.404L244.488 115.402Z" fill="#8E482A"/>
<path d="M235.131 132.028C233.811 131.461 232.28 132.071 231.712 133.391C231.694 133.434 231.685 133.481 231.671 133.526C232.215 132.446 233.513 131.956 234.642 132.441C235.77 132.926 236.361 134.307 235.855 135.484C235.349 136.66 234.09 137.15 232.947 136.738C232.99 136.756 233.027 136.789 233.07 136.808C234.39 137.375 235.922 136.764 236.489 135.445C237.056 134.125 236.451 132.595 235.131 132.028Z" fill="#804025"/>
<path d="M235.854 135.484C236.36 134.308 235.818 132.948 234.642 132.442C233.465 131.936 232.215 132.446 231.671 133.527C231.216 134.77 231.766 136.151 232.952 136.74C234.095 137.152 235.374 136.615 235.859 135.486L235.854 135.484Z" fill="#8E482A"/>
<path d="M255.238 116.88C253.919 116.312 252.387 116.923 251.82 118.242C251.801 118.285 251.792 118.333 251.778 118.378C252.322 117.297 253.621 116.807 254.749 117.292C255.878 117.778 256.468 119.159 255.962 120.335C255.456 121.511 254.198 122.001 253.055 121.589C253.098 121.608 253.135 121.641 253.178 121.659C254.497 122.227 256.029 121.616 256.596 120.296C257.164 118.977 256.558 117.447 255.238 116.88Z" fill="#804025"/>
<path d="M255.962 120.336C256.467 119.16 255.925 117.799 254.749 117.293C253.573 116.788 252.322 117.298 251.778 118.378C251.323 119.622 251.874 121.003 253.059 121.592C254.202 122.004 255.481 121.466 255.967 120.338L255.962 120.336Z" fill="#8E482A"/>
<path d="M246.605 136.96C245.285 136.392 243.753 137.003 243.186 138.322C243.167 138.365 243.158 138.413 243.145 138.458C243.689 137.377 244.987 136.887 246.116 137.373C247.244 137.858 247.834 139.239 247.328 140.415C246.823 141.592 245.564 142.081 244.421 141.669C244.464 141.688 244.501 141.721 244.544 141.739C245.864 142.307 247.395 141.696 247.963 140.376C248.53 139.057 247.924 137.527 246.605 136.96Z" fill="#804025"/>
<path d="M247.328 140.416C247.834 139.24 247.291 137.879 246.115 137.373C244.939 136.868 243.689 137.378 243.145 138.459C242.689 139.702 243.24 141.083 244.426 141.672C245.568 142.084 246.848 141.546 247.333 140.418L247.328 140.416Z" fill="#8E482A"/>
<path d="M254.295 104.579C252.975 104.011 251.444 104.622 250.876 105.942C250.858 105.985 250.849 106.032 250.835 106.077C251.379 104.996 252.677 104.506 253.806 104.992C254.934 105.477 255.525 106.858 255.019 108.034C254.513 109.211 253.254 109.701 252.111 109.288C252.154 109.307 252.191 109.34 252.234 109.358C253.554 109.926 255.086 109.315 255.653 107.995C256.221 106.676 255.615 105.146 254.295 104.579Z" fill="#804025"/>
<path d="M255.018 108.035C255.524 106.859 254.982 105.498 253.806 104.993C252.629 104.487 251.379 104.997 250.835 106.078C250.38 107.321 250.93 108.702 252.116 109.291C253.259 109.703 254.538 109.165 255.023 108.037L255.018 108.035Z" fill="#8E482A"/>
<path d="M245.663 124.659C244.344 124.091 242.812 124.702 242.244 126.022C242.226 126.065 242.217 126.112 242.203 126.157C242.747 125.076 244.046 124.587 245.174 125.072C246.303 125.557 246.893 126.938 246.387 128.114C245.881 129.291 244.622 129.781 243.48 129.369C243.523 129.387 243.559 129.42 243.602 129.438C244.922 130.006 246.454 129.395 247.021 128.076C247.589 126.756 246.983 125.226 245.663 124.659Z" fill="#804025"/>
<path d="M246.387 128.115C246.892 126.939 246.35 125.578 245.174 125.073C243.998 124.567 242.747 125.077 242.203 126.158C241.748 127.401 242.299 128.782 243.484 129.371C244.627 129.783 245.906 129.246 246.391 128.117L246.387 128.115Z" fill="#8E482A"/>
<path d="M237.029 144.737C235.71 144.17 234.178 144.78 233.611 146.1C233.592 146.143 233.583 146.19 233.57 146.235C234.113 145.155 235.412 144.665 236.54 145.15C237.669 145.635 238.259 147.016 237.753 148.193C237.247 149.369 235.989 149.859 234.846 149.447C234.889 149.465 234.926 149.498 234.969 149.516C236.288 150.084 237.82 149.473 238.387 148.154C238.955 146.834 238.349 145.304 237.029 144.737Z" fill="#804025"/>
<path d="M237.753 148.193C238.258 147.017 237.716 145.657 236.54 145.151C235.364 144.645 234.113 145.155 233.569 146.236C233.114 147.479 233.665 148.86 234.85 149.449C235.993 149.861 237.272 149.324 237.758 148.195L237.753 148.193Z" fill="#8E482A"/>
<path d="M265.769 109.514C264.449 108.947 262.917 109.557 262.35 110.877C262.331 110.92 262.322 110.967 262.309 111.012C262.853 109.932 264.151 109.442 265.28 109.927C266.408 110.412 266.998 111.794 266.492 112.97C265.987 114.146 264.728 114.636 263.585 114.224C263.628 114.242 263.665 114.275 263.708 114.294C265.028 114.861 266.559 114.251 267.127 112.931C267.694 111.611 267.088 110.082 265.769 109.514Z" fill="#804025"/>
<path d="M266.492 112.971C266.998 111.794 266.455 110.434 265.279 109.928C264.103 109.422 262.853 109.933 262.309 111.013C261.854 112.256 262.404 113.637 263.59 114.227C264.732 114.639 266.012 114.101 266.497 112.973L266.492 112.971Z" fill="#8E482A"/>
<path d="M257.135 129.594C255.815 129.027 254.284 129.637 253.716 130.957C253.698 131 253.689 131.047 253.675 131.092C254.219 130.012 255.517 129.522 256.646 130.007C257.774 130.493 258.364 131.874 257.859 133.05C257.353 134.226 256.094 134.716 254.951 134.304C254.994 134.323 255.031 134.355 255.074 134.374C256.394 134.941 257.925 134.331 258.493 133.011C259.06 131.691 258.455 130.162 257.135 129.594Z" fill="#804025"/>
<path d="M257.858 133.051C258.364 131.875 257.822 130.514 256.645 130.008C255.469 129.503 254.219 130.013 253.675 131.093C253.22 132.337 253.77 133.718 254.956 134.307C256.099 134.719 257.378 134.181 257.863 133.053L257.858 133.051Z" fill="#8E482A"/>
<path d="M248.502 149.673C247.182 149.105 245.651 149.716 245.083 151.035C245.065 151.078 245.056 151.125 245.042 151.171C245.586 150.09 246.885 149.6 248.013 150.085C249.141 150.571 249.732 151.952 249.226 153.128C248.72 154.304 247.461 154.794 246.318 154.382C246.361 154.401 246.398 154.434 246.441 154.452C247.761 155.019 249.293 154.409 249.86 153.089C250.428 151.77 249.822 150.24 248.502 149.673Z" fill="#804025"/>
<path d="M249.225 153.129C249.731 151.953 249.189 150.592 248.013 150.086C246.837 149.581 245.586 150.091 245.042 151.171C244.587 152.415 245.137 153.796 246.323 154.385C247.466 154.797 248.745 154.259 249.23 153.131L249.225 153.129Z" fill="#8E482A"/>
</g>
<g clip-path="url(#clip0_504_16128)">
<path d="M278.17 122.599L279.918 122.763C280.051 122.776 280.134 122.906 280.086 123.033C279.746 123.988 278.908 127.573 284.253 130.269C284.356 130.318 284.4 130.447 284.34 130.543C283.52 131.849 278.871 139.969 287.377 141.816C287.494 141.843 287.585 141.947 287.579 142.069C287.516 143.096 287.492 147.67 291.938 149.025C292.031 149.052 292.074 149.157 292.025 149.236L290.58 151.538L283.792 151.954L277.549 144.725L274.972 140.37L274.001 131.241L274.769 126.129L276.908 122.984L278.177 122.588L278.17 122.599Z" fill="#804025"/>
<path d="M266.632 118.221C267.134 117.422 268.005 116.996 268.881 117.012C268.961 116.074 268.54 115.119 267.684 114.582C266.941 114.116 266.05 114.074 265.302 114.389C265.475 114.451 265.647 114.527 265.816 114.633C267.032 115.397 267.404 117.003 266.638 118.225L266.632 118.221Z" fill="#804025"/>
<path d="M275.446 123.752C275.947 122.953 276.819 122.527 277.695 122.544C277.774 121.605 277.353 120.65 276.498 120.113C275.755 119.647 274.863 119.605 274.116 119.921C274.289 119.982 274.461 120.059 274.629 120.165C275.845 120.928 276.218 122.535 275.451 123.756L275.446 123.752Z" fill="#804025"/>
<path d="M289.464 150.367L259.704 197.785C260.693 197.935 261.726 197.5 262.295 196.594L290.946 150.943C290.439 150.814 289.938 150.625 289.461 150.372L289.464 150.367Z" fill="#804025"/>
<path d="M271.038 120.987C271.54 120.188 272.411 119.762 273.288 119.778C273.367 118.839 272.946 117.885 272.091 117.348C271.348 116.881 270.456 116.839 269.708 117.155C269.882 117.217 270.053 117.293 270.222 117.399C271.438 118.162 271.811 119.769 271.044 120.99L271.038 120.987Z" fill="#804025"/>
<path d="M259.492 146.26C260.355 146.661 261.349 146.515 262.034 145.862C261.354 146.495 260.352 146.666 259.492 146.26Z" fill="#BE6944"/>
<path d="M260.451 133.956C261.314 134.356 262.299 134.213 262.98 133.565C262.298 134.189 261.309 134.353 260.451 133.956Z" fill="#BE6944"/>
<path d="M270.068 152.897C270.931 153.298 271.921 153.158 272.606 152.505C271.93 153.132 270.922 153.3 270.068 152.897Z" fill="#BE6944"/>
<path d="M247.868 164.768C248.737 165.172 249.731 165.026 250.419 164.367C249.74 165 248.732 165.168 247.868 164.768Z" fill="#BE6944"/>
<path d="M259.42 159.112C260.278 159.509 261.262 159.366 261.949 158.722C261.273 159.349 260.278 159.509 259.42 159.112Z" fill="#BE6944"/>
<path d="M258.449 171.409C259.309 171.815 260.308 171.673 260.996 171.014C260.317 171.647 259.312 171.809 258.449 171.409Z" fill="#BE6944"/>
<path d="M271.032 140.597C271.895 140.997 272.88 140.854 273.561 140.206C272.879 140.83 271.89 140.994 271.032 140.597Z" fill="#BE6944"/>
<path d="M247.793 177.626C248.656 178.026 249.641 177.883 250.322 177.235C249.64 177.859 248.651 178.023 247.793 177.626Z" fill="#BE6944"/>
<path d="M248.839 152.472C249.696 152.869 250.681 152.725 251.368 152.081C250.692 152.708 249.696 152.869 248.839 152.472Z" fill="#BE6944"/>
<path d="M237.212 170.985C238.075 171.386 239.06 171.242 239.741 170.595C239.059 171.218 238.07 171.382 237.212 170.985Z" fill="#BE6944"/>
<path d="M269.995 165.748C270.859 166.149 271.852 166.003 272.541 165.344C271.861 165.977 270.859 166.149 269.995 165.748Z" fill="#BE6944"/>
<path d="M258.368 184.262C259.237 184.666 260.231 184.521 260.915 183.867C260.236 184.5 259.228 184.668 258.368 184.262Z" fill="#BE6944"/>
<path d="M289.039 150.131C286.827 148.743 285.73 146.266 285.993 143.834C286.015 143.636 285.876 143.47 285.68 143.457C285.419 143.435 285.16 143.398 284.903 143.346C285.645 144.188 285.792 145.442 285.163 146.444C284.4 147.659 282.793 148.032 281.572 147.265C281.533 147.241 281.5 147.205 281.461 147.18C280.38 146.415 280.049 144.968 280.69 143.809C280.714 143.769 280.728 143.723 280.753 143.683C281.191 142.986 281.911 142.575 282.678 142.491C282.672 142.488 282.661 142.48 282.655 142.477C279.576 140.545 278.648 136.487 280.58 133.408C281.096 132.586 281.685 131.834 282.429 131.312C282.544 131.228 282.517 131.046 282.38 131.015C281.777 130.888 281.227 130.715 280.647 130.351C278.12 128.765 277.112 125.684 278.031 122.982C278.07 122.857 278.124 122.734 278.172 122.608C278.016 122.581 277.857 122.559 277.702 122.556C276.817 122.542 275.954 122.966 275.453 123.765C276.216 122.549 275.853 120.94 274.631 120.174C274.468 120.071 274.296 119.995 274.118 119.93C273.849 119.832 273.57 119.79 273.289 119.787C272.404 119.772 271.542 120.196 271.04 120.995C271.803 119.78 271.44 118.171 270.219 117.404C270.055 117.302 269.884 117.226 269.705 117.16C269.437 117.063 269.157 117.021 268.877 117.017C267.992 117.003 267.129 117.427 266.628 118.226C267.391 117.01 267.027 115.402 265.806 114.635C265.643 114.533 265.471 114.456 265.292 114.391C264.173 113.987 262.885 114.402 262.224 115.455L224.403 175.717C223.655 176.91 223.878 178.541 225.027 179.348C226.257 180.214 227.945 179.861 228.733 178.606C227.97 179.822 228.333 181.431 229.554 182.197C230.776 182.964 232.379 182.597 233.145 181.376C232.382 182.591 232.746 184.2 233.967 184.967C235.188 185.733 236.791 185.366 237.558 184.145C236.795 185.361 237.158 186.969 238.379 187.736C239.601 188.502 241.204 188.136 241.97 186.914C241.207 188.13 241.571 189.739 242.792 190.505C244.013 191.272 245.616 190.905 246.383 189.684C245.62 190.899 245.983 192.508 247.205 193.275C248.426 194.041 250.029 193.674 250.796 192.453C250.033 193.669 250.396 195.277 251.617 196.044C252.839 196.81 254.442 196.444 255.208 195.222C254.42 196.477 254.837 198.151 256.151 198.882C257.384 199.569 258.95 199.061 259.698 197.868L259.737 197.806L289.497 150.388C289.355 150.314 289.213 150.241 289.072 150.152L289.039 150.131ZM227.033 174.464L227.1 174.357C226.599 175.156 226.521 176.167 226.902 176.986C226.521 176.206 226.535 175.258 227.033 174.464ZM227.855 178.055C227.759 177.995 227.674 177.918 227.591 177.85C227.693 177.938 227.804 178.023 227.915 178.085C227.898 178.074 227.881 178.064 227.858 178.05L227.855 178.055ZM247.924 149.04C247.949 149.001 247.962 148.954 247.987 148.915C248.856 147.53 250.815 147.246 252.051 148.476C252.732 149.155 252.976 150.202 252.664 151.113C252.094 152.771 250.193 153.375 248.803 152.502C248.764 152.477 248.731 152.441 248.692 152.417C247.611 151.652 247.28 150.204 247.921 149.046L247.924 149.04ZM237.18 171.01C237.14 170.985 237.108 170.949 237.068 170.925C235.987 170.16 235.656 168.712 236.297 167.553C236.322 167.514 236.335 167.468 236.36 167.428C237.229 166.044 239.188 165.759 240.424 166.99C241.105 167.668 241.349 168.716 241.037 169.626C240.467 171.284 238.566 171.888 237.176 171.016L237.18 171.01ZM260.415 133.987C260.376 133.962 260.344 133.926 260.304 133.902C259.223 133.137 258.892 131.689 259.533 130.531C259.558 130.491 259.571 130.445 259.596 130.405C260.465 129.021 262.424 128.736 263.654 129.964C264.335 130.642 264.58 131.69 264.267 132.6C263.697 134.258 261.796 134.862 260.406 133.989L260.415 133.987ZM247.833 164.798C247.793 164.774 247.761 164.738 247.722 164.713C246.64 163.948 246.309 162.501 246.95 161.342C246.975 161.302 246.988 161.256 247.013 161.217C247.882 159.832 249.841 159.548 251.072 160.775C251.752 161.453 251.997 162.501 251.685 163.411C251.114 165.069 249.214 165.673 247.824 164.801L247.833 164.798ZM259.451 146.287C259.411 146.262 259.379 146.226 259.339 146.202C258.258 145.437 257.927 143.989 258.568 142.83C258.593 142.791 258.606 142.745 258.631 142.705C259.5 141.321 261.459 141.036 262.69 142.263C263.37 142.942 263.615 143.989 263.303 144.9C262.732 146.558 260.832 147.162 259.441 146.289L259.451 146.287ZM258.496 155.683C258.521 155.643 258.534 155.597 258.559 155.558C259.428 154.173 261.387 153.889 262.623 155.119C263.304 155.797 263.548 156.845 263.236 157.755C262.666 159.414 260.765 160.018 259.375 159.145C259.336 159.12 259.303 159.084 259.264 159.06C258.183 158.295 257.852 156.847 258.493 155.688L258.496 155.683ZM247.752 177.653C247.712 177.628 247.68 177.592 247.64 177.567C246.559 176.803 246.228 175.355 246.869 174.196C246.894 174.157 246.907 174.11 246.932 174.071C247.801 172.687 249.76 172.402 250.996 173.633C251.677 174.311 251.921 175.359 251.609 176.269C251.039 177.927 249.138 178.531 247.748 177.659L247.752 177.653ZM270.987 140.63C270.948 140.605 270.916 140.569 270.876 140.545C269.795 139.78 269.464 138.332 270.105 137.174C270.13 137.134 270.143 137.088 270.168 137.048C271.037 135.664 272.996 135.379 274.226 136.606C274.907 137.285 275.152 138.332 274.839 139.243C274.269 140.901 272.368 141.505 270.978 140.632L270.987 140.63ZM258.405 171.441C258.365 171.417 258.333 171.381 258.294 171.356C257.212 170.591 256.881 169.144 257.522 167.985C257.547 167.945 257.56 167.899 257.585 167.86C258.454 166.475 260.413 166.191 261.644 167.418C262.324 168.096 262.569 169.144 262.257 170.054C261.687 171.712 259.786 172.316 258.396 171.443L258.405 171.441ZM270.023 152.93C269.983 152.905 269.951 152.869 269.911 152.845C268.83 152.08 268.499 150.632 269.14 149.473C269.165 149.434 269.178 149.388 269.203 149.348C270.072 147.964 272.031 147.679 273.262 148.906C273.942 149.585 274.187 150.632 273.875 151.543C273.304 153.201 271.404 153.805 270.013 152.932L270.023 152.93ZM273.19 161.759C273.87 162.437 274.115 163.485 273.803 164.395C273.232 166.053 271.332 166.657 269.941 165.784C269.902 165.76 269.87 165.724 269.83 165.699C268.749 164.934 268.418 163.487 269.059 162.328C269.084 162.288 269.097 162.242 269.122 162.203C269.991 160.818 271.95 160.534 273.186 161.764L273.19 161.759ZM258.324 184.296C258.284 184.271 258.252 184.235 258.212 184.21C257.131 183.446 256.8 181.998 257.441 180.839C257.466 180.8 257.479 180.753 257.504 180.714C258.373 179.329 260.332 179.045 261.568 180.276C262.249 180.954 262.493 182.002 262.181 182.912C261.611 184.57 259.71 185.174 258.32 184.301L258.324 184.296Z" fill="#BE6944"/>
<path d="M281.607 147.235C282.476 147.639 283.47 147.493 284.155 146.84C283.475 147.473 282.467 147.641 281.607 147.235Z" fill="#BE6944"/>
<path d="M263.19 129.58C261.975 128.817 260.365 129.18 259.599 130.402C259.574 130.441 259.561 130.488 259.536 130.527C260.241 129.541 261.558 129.23 262.639 129.909C263.72 130.587 264.047 132.016 263.368 133.097C263.255 133.277 263.116 133.425 262.968 133.56C262.281 134.204 261.297 134.347 260.44 133.951C260.395 133.922 260.345 133.914 260.302 133.895C260.341 133.92 260.373 133.956 260.413 133.981C261.629 134.744 263.238 134.381 264.005 133.159C264.771 131.937 264.404 130.334 263.188 129.571L263.19 129.58Z" fill="#804025"/>
<path d="M262.985 133.57C263.127 133.432 263.267 133.284 263.38 133.104C264.062 132.018 263.686 130.566 262.651 129.916C261.615 129.266 260.253 129.548 259.548 130.534C258.907 131.693 259.238 133.14 260.319 133.905C260.364 133.934 260.414 133.942 260.459 133.97C261.317 134.367 262.312 134.206 262.988 133.579L262.985 133.57Z" fill="#8E482A"/>
<path d="M260.451 133.956C260.406 133.928 260.356 133.92 260.311 133.892C260.356 133.92 260.406 133.928 260.449 133.947L260.451 133.956Z" fill="#8E482A"/>
<path d="M262.645 129.912C263.686 130.566 264.053 132.02 263.375 133.1C263.261 133.28 263.127 133.432 262.98 133.567C263.127 133.432 263.267 133.284 263.38 133.104C264.062 132.018 263.731 130.594 262.651 129.916C261.57 129.237 260.253 129.548 259.548 130.534C260.253 129.548 261.609 129.262 262.651 129.916L262.645 129.912Z" fill="#8E482A"/>
<path d="M251.573 148.092C250.357 147.328 248.748 147.692 247.981 148.913C247.956 148.953 247.943 148.999 247.918 149.039C248.623 148.053 249.94 147.742 251.021 148.42C252.102 149.099 252.429 150.528 251.751 151.609C251.638 151.789 251.501 151.931 251.36 152.069C250.673 152.713 249.694 152.86 248.831 152.46C248.782 152.437 248.736 152.424 248.687 152.401C248.727 152.426 248.759 152.462 248.799 152.487C250.015 153.25 251.624 152.886 252.39 151.665C253.157 150.443 252.79 148.84 251.574 148.077L251.573 148.092Z" fill="#804025"/>
<path d="M251.367 152.08C251.509 151.942 251.649 151.794 251.758 151.619C252.44 150.533 252.064 149.081 251.029 148.431C249.993 147.781 248.631 148.064 247.926 149.05C247.285 150.209 247.616 151.656 248.697 152.421C248.742 152.449 248.798 152.461 248.846 152.483C249.704 152.88 250.693 152.716 251.375 152.093L251.367 152.08Z" fill="#8E482A"/>
<path d="M248.839 152.472C248.791 152.449 248.744 152.435 248.69 152.409C248.735 152.438 248.785 152.445 248.834 152.468L248.839 152.472Z" fill="#8E482A"/>
<path d="M251.027 148.423C252.068 149.077 252.434 150.531 251.756 151.612C251.643 151.792 251.509 151.943 251.365 152.072C251.512 151.937 251.647 151.786 251.756 151.612C252.438 150.525 252.107 149.102 251.027 148.423C249.946 147.745 248.629 148.056 247.924 149.042C248.629 148.056 249.985 147.77 251.027 148.423Z" fill="#8E482A"/>
<path d="M239.955 166.602C238.739 165.838 237.13 166.202 236.363 167.423C236.339 167.463 236.325 167.509 236.301 167.549C237.005 166.563 238.323 166.252 239.404 166.93C240.484 167.609 240.811 169.038 240.133 170.119C240.02 170.299 239.88 170.447 239.733 170.582C239.046 171.226 238.062 171.369 237.204 170.972C237.159 170.944 237.109 170.936 237.066 170.917C237.106 170.942 237.138 170.978 237.178 171.002C238.393 171.765 240.003 171.402 240.769 170.18C241.536 168.959 241.169 167.355 239.953 166.592L239.955 166.602Z" fill="#804025"/>
<path d="M239.746 170.598C239.888 170.459 240.028 170.311 240.141 170.131C240.823 169.045 240.447 167.593 239.411 166.943C238.376 166.293 237.014 166.576 236.309 167.561C235.668 168.72 235.999 170.168 237.08 170.933C237.125 170.961 237.175 170.969 237.22 170.997C238.077 171.394 239.072 171.234 239.748 170.607L239.746 170.598Z" fill="#8E482A"/>
<path d="M237.212 170.983C237.167 170.955 237.117 170.947 237.072 170.919C237.117 170.947 237.167 170.955 237.21 170.974L237.212 170.983Z" fill="#8E482A"/>
<path d="M239.406 166.939C240.447 167.593 240.814 169.047 240.135 170.128C240.022 170.308 239.888 170.459 239.741 170.594C239.888 170.459 240.028 170.311 240.141 170.131C240.823 169.045 240.492 167.621 239.411 166.943C238.331 166.265 237.014 166.576 236.309 167.561C237.014 166.576 238.37 166.289 239.411 166.943L239.406 166.939Z" fill="#8E482A"/>
<path d="M262.235 141.877C261.019 141.114 259.41 141.477 258.643 142.698C258.618 142.738 258.605 142.784 258.58 142.824C259.285 141.838 260.602 141.527 261.683 142.205C262.764 142.884 263.089 144.304 262.42 145.383L262.413 145.394C262.303 145.568 262.173 145.714 262.029 145.843C261.341 146.502 260.347 146.648 259.488 146.242C259.443 146.213 259.393 146.205 259.35 146.186C259.389 146.211 259.421 146.247 259.461 146.272C260.677 147.035 262.286 146.672 263.052 145.45C263.819 144.228 263.452 142.625 262.236 141.862L262.235 141.877Z" fill="#804025"/>
<path d="M262.037 145.856C262.175 145.723 262.306 145.577 262.415 145.403L262.422 145.391C263.091 144.313 262.722 142.865 261.686 142.214C260.65 141.564 259.288 141.847 258.583 142.833C257.942 143.992 258.273 145.439 259.354 146.204C259.4 146.232 259.45 146.24 259.495 146.269C260.357 146.669 261.356 146.503 262.035 145.87L262.037 145.856Z" fill="#8E482A"/>
<path d="M262.037 145.855C262.181 145.725 262.311 145.58 262.421 145.405C262.311 145.58 262.181 145.725 262.042 145.858L262.037 145.855Z" fill="#8E482A"/>
<path d="M261.68 142.211C262.716 142.861 263.086 144.309 262.417 145.388C263.086 144.309 262.761 142.889 261.68 142.211C260.599 141.532 259.282 141.843 258.577 142.829C259.282 141.843 260.639 141.557 261.68 142.211Z" fill="#8E482A"/>
<path d="M259.492 146.259C259.447 146.231 259.397 146.223 259.352 146.194C259.397 146.223 259.447 146.231 259.49 146.25L259.492 146.259Z" fill="#8E482A"/>
<path d="M250.614 160.394C249.398 159.631 247.789 159.994 247.022 161.216C246.997 161.255 246.984 161.302 246.959 161.341C247.664 160.356 248.981 160.045 250.062 160.723C251.143 161.401 251.468 162.821 250.799 163.9C250.799 163.9 250.795 163.906 250.792 163.911C250.686 164.08 250.555 164.226 250.408 164.361C249.719 165.02 248.722 165.171 247.857 164.761C247.818 164.736 247.768 164.729 247.723 164.7C247.762 164.725 247.795 164.761 247.834 164.786C249.05 165.549 250.659 165.186 251.426 163.964C252.192 162.742 251.825 161.139 250.61 160.376L250.614 160.394Z" fill="#804025"/>
<path d="M250.419 164.367C250.557 164.234 250.688 164.089 250.797 163.914C250.797 163.914 250.801 163.909 250.804 163.903C251.477 162.819 251.103 161.376 250.068 160.726C249.032 160.076 247.67 160.359 246.965 161.345C246.324 162.504 246.655 163.951 247.736 164.716C247.781 164.744 247.828 164.758 247.871 164.777C248.734 165.177 249.741 165.009 250.421 164.377L250.419 164.367Z" fill="#8E482A"/>
<path d="M247.869 164.767C247.824 164.739 247.774 164.731 247.735 164.706C247.78 164.735 247.83 164.742 247.869 164.767Z" fill="#8E482A"/>
<path d="M250.062 160.722C251.098 161.372 251.467 162.821 250.798 163.899C251.471 162.815 251.143 161.401 250.062 160.722C248.981 160.044 247.664 160.355 246.959 161.341C247.664 160.355 249.02 160.069 250.062 160.722Z" fill="#8E482A"/>
<path d="M250.419 164.367C250.557 164.234 250.693 164.092 250.803 163.917C250.693 164.092 250.563 164.237 250.424 164.37L250.419 164.367Z" fill="#8E482A"/>
<path d="M272.81 148.515C271.594 147.752 269.985 148.115 269.219 149.337C269.194 149.376 269.181 149.423 269.156 149.462C269.861 148.476 271.178 148.165 272.259 148.844C273.34 149.522 273.665 150.942 272.995 152.021L272.988 152.032C272.879 152.207 272.745 152.358 272.601 152.487C271.916 153.141 270.923 153.286 270.063 152.88C270.024 152.855 269.968 152.844 269.929 152.819C269.968 152.844 270 152.88 270.04 152.905C271.256 153.668 272.865 153.304 273.631 152.083C274.398 150.861 274.031 149.258 272.815 148.495L272.81 148.515Z" fill="#804025"/>
<path d="M272.609 152.498C272.747 152.365 272.881 152.214 272.99 152.039L272.998 152.028C273.667 150.95 273.297 149.501 272.261 148.851C271.225 148.201 269.863 148.484 269.158 149.47C268.517 150.629 268.848 152.076 269.93 152.841C269.975 152.869 270.021 152.883 270.07 152.905C270.933 153.306 271.931 153.14 272.607 152.513L272.609 152.498Z" fill="#8E482A"/>
<path d="M272.608 152.499C272.756 152.364 272.887 152.219 272.996 152.044C272.887 152.219 272.752 152.37 272.614 152.503L272.608 152.499Z" fill="#8E482A"/>
<path d="M272.261 148.851C273.297 149.501 273.667 150.95 272.998 152.028C273.667 150.95 273.342 149.529 272.261 148.851C271.18 148.173 269.863 148.484 269.158 149.47C269.863 148.484 271.22 148.198 272.261 148.851Z" fill="#8E482A"/>
<path d="M270.068 152.896C270.023 152.867 269.973 152.86 269.928 152.831C269.973 152.86 270.023 152.867 270.062 152.892L270.068 152.896Z" fill="#8E482A"/>
<path d="M261.189 167.031C259.973 166.268 258.364 166.631 257.597 167.853C257.573 167.892 257.559 167.939 257.534 167.978C258.239 166.992 259.557 166.681 260.637 167.36C261.718 168.038 262.043 169.458 261.374 170.537C261.374 170.537 261.37 170.543 261.367 170.548C261.257 170.723 261.127 170.868 260.979 171.003C260.291 171.662 259.301 171.802 258.432 171.398C258.393 171.373 258.343 171.365 258.298 171.337C258.337 171.362 258.37 171.398 258.409 171.423C259.625 172.186 261.234 171.822 262.001 170.601C262.768 169.379 262.401 167.776 261.185 167.013L261.189 167.031Z" fill="#804025"/>
<path d="M260.99 171.01C261.129 170.877 261.263 170.726 261.372 170.551C261.372 170.551 261.376 170.546 261.379 170.54C262.052 169.456 261.679 168.013 260.643 167.363C259.607 166.713 258.245 166.996 257.54 167.981C256.899 169.14 257.23 170.588 258.312 171.353C258.357 171.381 258.403 171.394 258.446 171.414C259.309 171.814 260.313 171.652 260.992 171.019L260.99 171.01Z" fill="#8E482A"/>
<path d="M260.643 167.363C261.679 168.013 262.049 169.461 261.379 170.54C262.052 169.456 261.724 168.041 260.643 167.363C259.562 166.685 258.245 166.996 257.54 167.981C258.245 166.996 259.602 166.709 260.643 167.363Z" fill="#8E482A"/>
<path d="M260.99 171.009C261.134 170.88 261.268 170.728 261.378 170.554C261.268 170.728 261.134 170.88 260.996 171.012L260.99 171.009Z" fill="#8E482A"/>
<path d="M258.45 171.408C258.411 171.383 258.355 171.372 258.316 171.347C258.355 171.372 258.405 171.38 258.45 171.408Z" fill="#8E482A"/>
<path d="M273.772 136.221C272.556 135.458 270.947 135.821 270.18 137.042C270.155 137.082 270.142 137.128 270.117 137.168C270.822 136.182 272.139 135.871 273.22 136.549C274.301 137.228 274.628 138.657 273.95 139.738C273.836 139.918 273.697 140.066 273.549 140.201C272.863 140.845 271.878 140.988 271.021 140.591C270.976 140.563 270.926 140.555 270.883 140.536C270.922 140.561 270.955 140.597 270.994 140.621C272.21 141.385 273.819 141.021 274.586 139.8C275.352 138.578 274.985 136.975 273.769 136.211L273.772 136.221Z" fill="#804025"/>
<path d="M273.561 140.207C273.703 140.068 273.842 139.921 273.955 139.741C274.637 138.654 274.262 137.202 273.226 136.552C272.19 135.902 270.828 136.185 270.123 137.171C269.482 138.33 269.813 139.777 270.895 140.542C270.94 140.57 270.99 140.578 271.035 140.606C271.892 141.003 272.887 140.843 273.563 140.216L273.561 140.207Z" fill="#8E482A"/>
<path d="M271.032 140.597C270.987 140.568 270.937 140.561 270.892 140.532C270.937 140.561 270.987 140.568 271.03 140.588L271.032 140.597Z" fill="#8E482A"/>
<path d="M273.226 136.553C274.267 137.206 274.634 138.66 273.956 139.741C273.843 139.921 273.708 140.072 273.561 140.207C273.708 140.072 273.848 139.925 273.961 139.744C274.643 138.658 274.312 137.235 273.232 136.556C272.151 135.878 270.834 136.189 270.129 137.175C270.834 136.189 272.19 135.903 273.232 136.556L273.226 136.553Z" fill="#8E482A"/>
<path d="M262.154 154.732C260.938 153.969 259.329 154.332 258.562 155.554C258.537 155.593 258.524 155.64 258.499 155.679C259.204 154.694 260.521 154.382 261.602 155.061C262.683 155.739 263.01 157.168 262.332 158.249C262.219 158.429 262.082 158.572 261.941 158.71C261.254 159.354 260.275 159.501 259.412 159.101C259.364 159.078 259.317 159.064 259.269 159.042C259.308 159.067 259.34 159.103 259.38 159.127C260.596 159.89 262.205 159.527 262.971 158.305C263.738 157.084 263.371 155.48 262.155 154.717L262.154 154.732Z" fill="#804025"/>
<path d="M261.943 158.719C262.085 158.58 262.225 158.433 262.334 158.258C263.016 157.172 262.64 155.72 261.605 155.07C260.569 154.42 259.207 154.703 258.502 155.688C257.861 156.847 258.192 158.295 259.273 159.06C259.318 159.088 259.374 159.099 259.423 159.122C260.28 159.519 261.269 159.355 261.951 158.732L261.943 158.719Z" fill="#8E482A"/>
<path d="M259.42 159.112C259.372 159.09 259.325 159.076 259.271 159.05C259.316 159.078 259.366 159.086 259.415 159.109L259.42 159.112Z" fill="#8E482A"/>
<path d="M261.608 155.064C262.649 155.718 263.015 157.172 262.337 158.252C262.224 158.432 262.09 158.584 261.946 158.713C262.094 158.578 262.228 158.427 262.337 158.252C263.019 157.166 262.688 155.742 261.608 155.064C260.527 154.386 259.21 154.697 258.505 155.682C259.21 154.697 260.566 154.411 261.608 155.064Z" fill="#8E482A"/>
<path d="M250.536 173.242C249.32 172.479 247.711 172.842 246.945 174.064C246.92 174.103 246.906 174.15 246.882 174.189C247.587 173.204 248.904 172.892 249.985 173.571C251.065 174.249 251.393 175.678 250.714 176.759C250.601 176.939 250.461 177.087 250.314 177.222C249.627 177.866 248.643 178.009 247.785 177.613C247.74 177.584 247.69 177.577 247.647 177.557C247.687 177.582 247.719 177.618 247.759 177.643C248.975 178.406 250.584 178.043 251.35 176.821C252.117 175.6 251.75 173.996 250.534 173.233L250.536 173.242Z" fill="#804025"/>
<path d="M250.321 177.234C250.463 177.096 250.603 176.948 250.716 176.768C251.398 175.682 251.022 174.23 249.987 173.58C248.951 172.93 247.589 173.212 246.884 174.198C246.243 175.357 246.574 176.805 247.655 177.569C247.7 177.598 247.75 177.606 247.795 177.634C248.653 178.031 249.648 177.87 250.324 177.243L250.321 177.234Z" fill="#8E482A"/>
<path d="M247.793 177.624C247.748 177.596 247.698 177.588 247.653 177.56C247.698 177.588 247.748 177.596 247.791 177.615L247.793 177.624Z" fill="#8E482A"/>
<path d="M249.987 173.58C251.028 174.234 251.395 175.688 250.716 176.768C250.603 176.948 250.469 177.1 250.322 177.235C250.469 177.1 250.609 176.952 250.722 176.772C251.404 175.685 251.073 174.262 249.992 173.584C248.912 172.905 247.595 173.216 246.89 174.202C247.595 173.216 248.951 172.93 249.992 173.584L249.987 173.58Z" fill="#8E482A"/>
<path d="M280.762 143.682C280.737 143.722 280.723 143.768 280.699 143.808C281.404 142.822 282.721 142.511 283.802 143.189C284.883 143.868 285.213 145.291 284.535 146.372C284.535 146.372 284.535 146.372 284.531 146.378C284.422 146.552 284.291 146.698 284.147 146.827C283.459 147.486 282.465 147.632 281.6 147.222C281.561 147.197 281.511 147.189 281.466 147.161C281.505 147.186 281.538 147.222 281.577 147.247C282.793 148.01 284.402 147.646 285.169 146.425C285.798 145.423 285.651 144.169 284.908 143.327C284.143 143.184 283.39 142.907 282.692 142.469C281.925 142.553 281.208 142.958 280.767 143.662L280.762 143.682Z" fill="#804025"/>
<path d="M284.149 146.836C284.288 146.703 284.418 146.558 284.528 146.383C284.528 146.383 284.528 146.383 284.531 146.378C285.209 145.297 284.834 143.845 283.798 143.195C282.762 142.545 281.4 142.828 280.695 143.813C280.054 144.972 280.386 146.42 281.467 147.185C281.512 147.213 281.558 147.226 281.601 147.246C282.464 147.646 283.468 147.484 284.148 146.851L284.149 146.836Z" fill="#8E482A"/>
<path d="M281.608 147.234C281.563 147.206 281.513 147.198 281.474 147.173C281.519 147.201 281.569 147.209 281.608 147.234Z" fill="#8E482A"/>
<path d="M283.801 143.189C284.837 143.839 285.212 145.291 284.534 146.372C285.212 145.291 284.882 143.867 283.801 143.189C282.72 142.511 281.403 142.822 280.698 143.807C281.403 142.822 282.76 142.536 283.801 143.189Z" fill="#8E482A"/>
<path d="M284.149 146.835C284.293 146.706 284.427 146.555 284.533 146.386C284.424 146.56 284.293 146.706 284.155 146.839L284.149 146.835Z" fill="#8E482A"/>
<path d="M272.73 161.369C271.514 160.606 269.905 160.969 269.138 162.191C269.113 162.23 269.1 162.277 269.075 162.316C269.78 161.33 271.097 161.019 272.178 161.698C273.259 162.376 273.589 163.8 272.911 164.881C272.911 164.881 272.911 164.881 272.908 164.886C272.798 165.061 272.667 165.206 272.523 165.336C271.835 165.995 270.842 166.14 269.979 165.74C269.934 165.711 269.884 165.703 269.835 165.681C269.875 165.706 269.907 165.742 269.946 165.766C271.162 166.529 272.771 166.166 273.538 164.945C274.305 163.723 273.938 162.12 272.722 161.356L272.73 161.369Z" fill="#804025"/>
<path d="M272.537 165.352C272.675 165.219 272.806 165.073 272.915 164.899C272.915 164.899 272.915 164.899 272.919 164.893C273.597 163.812 273.222 162.361 272.186 161.711C271.15 161.061 269.788 161.343 269.083 162.329C268.442 163.488 268.773 164.935 269.854 165.7C269.9 165.729 269.95 165.736 269.998 165.759C270.861 166.159 271.863 165.988 272.543 165.355L272.537 165.352Z" fill="#8E482A"/>
<path d="M269.996 165.749C269.951 165.721 269.901 165.713 269.852 165.69C269.897 165.719 269.947 165.727 269.996 165.749Z" fill="#8E482A"/>
<path d="M272.184 161.701C273.22 162.351 273.595 163.803 272.917 164.883C273.595 163.803 273.265 162.379 272.184 161.701C271.103 161.023 269.786 161.334 269.081 162.319C269.786 161.334 271.143 161.047 272.184 161.701Z" fill="#8E482A"/>
<path d="M272.537 165.351C272.675 165.218 272.811 165.076 272.921 164.901C272.811 165.076 272.681 165.222 272.542 165.354L272.537 165.351Z" fill="#8E482A"/>
<path d="M261.112 179.88C259.896 179.117 258.287 179.481 257.52 180.702C257.496 180.742 257.482 180.788 257.458 180.827C258.162 179.842 259.48 179.531 260.561 180.209C261.641 180.887 261.972 182.311 261.294 183.392C261.294 183.392 261.294 183.392 261.29 183.398C261.181 183.572 261.05 183.718 260.906 183.847C260.218 184.506 259.224 184.651 258.359 184.242C258.32 184.217 258.27 184.209 258.225 184.181C258.264 184.206 258.297 184.242 258.336 184.266C259.552 185.029 261.161 184.666 261.928 183.445C262.694 182.223 262.327 180.62 261.111 179.856L261.112 179.88Z" fill="#804025"/>
<path d="M260.913 183.86C261.051 183.727 261.182 183.581 261.291 183.407C261.291 183.407 261.291 183.407 261.295 183.401C261.973 182.32 261.598 180.868 260.562 180.218C259.526 179.568 258.164 179.851 257.459 180.837C256.818 181.996 257.149 183.443 258.23 184.208C258.275 184.236 258.322 184.25 258.365 184.269C259.228 184.669 260.232 184.507 260.911 183.874L260.913 183.86Z" fill="#8E482A"/>
<path d="M260.562 180.218C261.598 180.868 261.973 182.32 261.295 183.401C261.973 182.32 261.643 180.897 260.562 180.218C259.481 179.54 258.164 179.851 257.459 180.837C258.164 179.851 259.52 179.565 260.562 180.218Z" fill="#8E482A"/>
<path d="M258.369 184.261C258.324 184.233 258.274 184.225 258.235 184.2C258.28 184.229 258.33 184.237 258.369 184.261Z" fill="#8E482A"/>
<path d="M260.913 183.859C261.057 183.729 261.191 183.578 261.297 183.409C261.187 183.584 261.057 183.729 260.918 183.862L260.913 183.859Z" fill="#8E482A"/>
</g>
<defs>
<filter id="filter0_d_504_16128" x="211.322" y="83.9258" width="72.6748" height="90.4297" filterUnits="userSpaceOnUse" color-interpolation-filters="sRGB">
<feFlood flood-opacity="0" result="BackgroundImageFix"/>
<feColorMatrix in="SourceAlpha" type="matrix" values="0 0 0 0 0 0 0 0 0 0 0 0 0 0 0 0 0 0 127 0" result="hardAlpha"/>
<feOffset dx="4" dy="5"/>
<feComposite in2="hardAlpha" operator="out"/>
<feColorMatrix type="matrix" values="0 0 0 0 0 0 0 0 0 0 0 0 0 0 0 0 0 0 0.25 0"/>
<feBlend mode="normal" in2="BackgroundImageFix" result="effect1_dropShadow_504_16128"/>
<feBlend mode="normal" in="SourceGraphic" in2="effect1_dropShadow_504_16128" result="shape"/>
</filter>
<clipPath id="clip0_504_16128">
<rect width="43.192" height="77.5396" fill="white" transform="translate(264.16 112.371) rotate(32.1127)"/>
</clipPath>
</defs>
</svg>
