<svg width="351" height="234" viewBox="0 0 351 234" fill="none" xmlns="http://www.w3.org/2000/svg">
<rect x="0.228516" y="0.71875" width="350" height="233" fill="#C57E56"/>
<circle cx="240.058" cy="140.438" r="69.1201" transform="rotate(-12.0382 240.058 140.438)" fill="#232444"/>
<circle cx="245.23" cy="131.174" r="63.4267" transform="rotate(-12.0382 245.23 131.174)" fill="#686CD3"/>
<circle cx="245.23" cy="131.172" r="60.4937" transform="rotate(-12.0382 245.23 131.172)" fill="#EBECFF"/>
<circle cx="245.23" cy="131.172" r="59.0272" transform="rotate(-12.0382 245.23 131.172)" fill="#D97B5D"/>
<path fill-rule="evenodd" clip-rule="evenodd" d="M186.95 155.942L208.287 121.427L222.453 137.089L280.594 152.858L261.929 192.78C257.358 193.922 252.591 194.58 247.682 194.693C220.651 195.317 197.116 179.262 186.95 155.942Z" fill="#1E1F2F" fill-opacity="0.86"/>
<circle cx="245.188" cy="133.533" r="35.1963" transform="rotate(-15.7648 245.188 133.533)" fill="#686CD3"/>
<path fill-rule="evenodd" clip-rule="evenodd" d="M256.516 166.908C275.808 161.461 287.032 141.407 281.586 122.115C276.139 102.824 256.085 91.5994 236.793 97.0457C219.435 101.946 208.609 118.673 210.58 136.029C211.758 154.903 227.823 169.456 246.809 168.672C250.024 168.54 253.119 167.976 256.041 167.038C256.199 166.996 256.358 166.952 256.516 166.908ZM256.041 167.038C270.602 162.367 280.862 148.426 280.201 132.405C279.407 113.169 263.169 98.2183 243.933 99.0123C224.697 99.8063 209.747 116.044 210.541 135.28C210.551 135.531 210.564 135.78 210.58 136.029C210.799 137.963 211.178 139.904 211.724 141.838C217.125 160.971 236.896 172.169 256.041 167.038Z" fill="#333679"/>
<path fill-rule="evenodd" clip-rule="evenodd" d="M257.774 170.157C279.084 164.141 291.482 141.989 285.466 120.678C279.45 99.3682 257.298 86.9699 235.988 92.9859C214.678 99.002 202.279 121.154 208.295 142.464C214.311 163.775 236.464 176.173 257.774 170.157ZM256.525 165.727C275.389 160.401 286.365 140.791 281.039 121.926C275.714 103.062 256.103 92.0861 237.239 97.4117C218.374 102.737 207.398 122.348 212.724 141.212C218.05 160.077 237.66 171.053 256.525 165.727Z" fill="#F2F2F2"/>
<rect x="281.396" y="118.738" width="16.1316" height="6.59931" rx="3.29966" transform="rotate(-15.7648 281.396 118.738)" fill="#F2F2F2"/>
</svg>
