<svg width="351" height="234" viewBox="0 0 351 234" fill="none" xmlns="http://www.w3.org/2000/svg">
<rect x="0.228516" y="0.71875" width="350" height="233" fill="#87B1B4"/>
<path d="M253.787 212.722C290.518 204.214 313.397 167.54 304.889 130.81C296.381 94.079 259.707 71.2 222.977 79.7081C186.246 88.2161 163.367 124.889 171.875 161.62C180.383 198.351 217.056 221.23 253.787 212.722Z" fill="#202932"/>
<path d="M245.587 203.865C281.405 203.865 310.441 174.829 310.441 139.011C310.441 103.193 281.405 74.1562 245.587 74.1562C209.769 74.1562 180.732 103.193 180.732 139.011C180.732 174.829 209.769 203.865 245.587 203.865Z" fill="#73A6D6"/>
<path d="M245.587 197.04C277.635 197.04 303.615 171.06 303.615 139.012C303.615 106.964 277.635 80.9844 245.587 80.9844C213.539 80.9844 187.56 106.964 187.56 139.012C187.56 171.06 213.539 197.04 245.587 197.04Z" fill="#ECECEC"/>
<path d="M245.588 195.521C276.798 195.521 302.098 170.22 302.098 139.011C302.098 107.801 276.798 82.5 245.588 82.5C214.378 82.5 189.077 107.801 189.077 139.011C189.077 170.22 214.378 195.521 245.588 195.521Z" fill="#AE5C4A"/>
<path fill-rule="evenodd" clip-rule="evenodd" d="M246.067 203.71C220.551 203.923 198.263 189.343 187.516 167.898L220.45 122.701L220.451 149.772L272.513 151.904L246.067 203.71Z" fill="#2C1B1D" fill-opacity="0.86"/>
<path d="M245.587 165.942C260.459 165.942 272.515 153.886 272.515 139.014C272.515 124.142 260.459 112.086 245.587 112.086C230.715 112.086 218.659 124.142 218.659 139.014C218.659 153.886 230.715 165.942 245.587 165.942Z" fill="#7B9AC9"/>
<path opacity="0.51" d="M256.282 117.858L258.163 114.551L262.335 117.206L260.401 120.46H258.694L256.419 118.465L256.282 117.858Z" fill="#7CA6D8"/>
<path opacity="0.51" d="M241.901 115.88L241.795 112.087L244.988 111.746L245.019 115.918L243.562 116.798L242.333 116.328L241.901 115.88Z" fill="#7CA6D8"/>
<path opacity="0.51" d="M262.715 123.278L265.051 120.289L268.798 123.513L266.409 126.456L264.725 126.206L262.76 123.9L262.715 123.278Z" fill="#7CA6D8"/>
<path d="M244.731 165.43C258.769 165.43 270.149 154.166 270.149 140.27C270.149 126.374 258.769 115.109 244.731 115.109C230.693 115.109 219.312 126.374 219.312 140.27C219.312 154.166 230.693 165.43 244.731 165.43Z" fill="#5E74C3"/>
<path d="M252.687 133.613L243.843 140.175C243.843 140.175 243.593 143.285 246.627 144.134C250.655 141.358 251.701 140.577 255.494 137.542C253.378 136.412 252.687 133.613 252.687 133.613Z" fill="black" fill-opacity="0.32"/>
<path d="M241.847 112.351C242.871 112.206 243.91 112.123 244.972 112.1H245.026L245.215 109.059C244.093 109.074 242.985 109.15 241.9 109.286L241.802 112.351H241.847Z" fill="#D6DCE5"/>
<path d="M259.673 112.563C255.47 110.325 250.684 109.051 245.587 109.051C245.458 109.051 245.337 109.058 245.208 109.058L245.018 112.092H244.965C245.17 112.092 245.374 112.092 245.587 112.092C250.024 112.092 254.204 113.17 257.89 115.074L257.875 115.058L259.665 112.578L259.673 112.563Z" fill="#D0D3D8"/>
<path d="M263.678 115.134C262.419 114.178 261.076 113.321 259.673 112.57L257.883 115.051L257.898 115.066C259.362 115.817 260.742 116.697 262.032 117.698H262.055L263.686 115.134H263.678Z" fill="#D6DCE5"/>
<path d="M267.304 118.387C266.181 117.211 264.967 116.119 263.67 115.133L262.039 117.704H262.017C263.079 118.516 264.065 119.419 264.99 120.382V120.359L267.296 118.387H267.304Z" fill="#D0D3D8"/>
<path d="M267.305 118.387L264.991 120.359V120.382C266.099 121.527 267.1 122.763 267.98 124.083L270.293 122.088C269.391 120.776 268.397 119.54 267.305 118.387Z" fill="#D6DCE5"/>
<path d="M270.3 122.09L267.987 124.085C270.846 128.355 272.515 133.49 272.515 139.012C272.515 153.88 260.462 165.94 245.587 165.94C238.806 165.94 232.609 163.422 227.876 159.28L225.744 161.442C231.031 166.122 237.979 168.967 245.595 168.967C262.138 168.967 275.557 155.548 275.557 139.005C275.557 132.724 273.615 126.899 270.308 122.082L270.3 122.09Z" fill="#D0D3D8"/>
<path d="M224.787 156.109C220.957 151.459 218.658 145.505 218.658 139.012C218.658 125.412 228.747 114.17 241.847 112.35H241.801L241.9 109.285C227.093 111.106 215.632 123.72 215.632 139.012C215.632 146.309 218.241 152.992 222.572 158.188L224.787 156.117V156.109Z" fill="#D0D3D8"/>
<path d="M224.788 156.109L222.573 158.18C223.544 159.348 224.606 160.433 225.744 161.442L227.875 159.28C226.76 158.309 225.729 157.247 224.788 156.109Z" fill="#D6DCE5"/>
<path d="M285.953 113.261C286.455 112.89 286.254 111.768 285.504 110.754C284.754 109.74 283.74 109.219 283.238 109.59C282.736 109.961 282.937 111.084 283.687 112.098C284.436 113.111 285.451 113.633 285.953 113.261Z" fill="#ECECEC"/>
<path d="M283.211 109.617L252.605 133.678C252.605 133.678 252.536 136.355 255.404 137.615C264.271 130.651 272.683 123.999 286.056 113.182C283.424 112.302 283.219 109.617 283.219 109.617H283.211Z" fill="black"/>
<path d="M233.306 125.805L228.459 130.447L231.03 133.731L234.876 135.582L238.805 132.374L240.163 128.156L237.804 125.805H233.306Z" fill="#6E88E3"/>
<path d="M232.775 137.301L228.763 141.943L230.894 145.235L234.072 147.086L237.327 143.87L238.449 139.66L236.5 137.301H232.775Z" fill="#6E88E3"/>
<path d="M243.455 141.926L239.875 145.347L241.779 147.774L244.608 149.139L247.506 146.773L248.507 143.663L246.77 141.926H243.455Z" fill="#6E88E3"/>
</svg>
