<svg width="351" height="265" viewBox="0 0 351 265" fill="none" xmlns="http://www.w3.org/2000/svg">
<rect x="0.228516" y="0.835938" width="350" height="264" fill="#C57E56"/>
<circle cx="240.058" cy="156.553" r="69.1201" transform="rotate(-12.0382 240.058 156.553)" fill="#232444"/>
<circle cx="245.23" cy="147.29" r="63.4267" transform="rotate(-12.0382 245.23 147.29)" fill="#686CD3"/>
<circle cx="245.23" cy="147.289" r="60.4937" transform="rotate(-12.0382 245.23 147.289)" fill="#EBECFF"/>
<circle cx="245.23" cy="147.287" r="59.0272" transform="rotate(-12.0382 245.23 147.287)" fill="#D97B5D"/>
<path fill-rule="evenodd" clip-rule="evenodd" d="M186.95 172.056L208.287 137.54L222.453 153.203L280.594 168.971L261.929 208.893C257.358 210.036 252.591 210.693 247.682 210.806C220.651 211.43 197.116 195.375 186.95 172.056Z" fill="#1E1F2F" fill-opacity="0.86"/>
<circle cx="245.188" cy="149.65" r="35.1963" transform="rotate(-15.7648 245.188 149.65)" fill="#686CD3"/>
<path fill-rule="evenodd" clip-rule="evenodd" d="M256.516 183.027C275.808 177.58 287.032 157.526 281.586 138.234C276.139 118.943 256.085 107.719 236.793 113.165C219.435 118.065 208.609 134.792 210.58 152.148C211.758 171.022 227.823 185.575 246.809 184.792C250.024 184.659 253.119 184.095 256.041 183.157C256.199 183.115 256.358 183.071 256.516 183.027ZM256.041 183.157C270.602 178.486 280.862 164.545 280.201 148.524C279.407 129.288 263.169 114.337 243.933 115.131C224.697 115.925 209.747 132.163 210.541 151.399C210.551 151.65 210.564 151.899 210.58 152.148C210.799 154.082 211.178 156.023 211.724 157.957C217.125 177.091 236.896 188.288 256.041 183.157Z" fill="#333679"/>
<path fill-rule="evenodd" clip-rule="evenodd" d="M257.774 186.274C279.084 180.258 291.482 158.106 285.466 136.796C279.45 115.485 257.298 103.087 235.988 109.103C214.678 115.119 202.279 137.271 208.295 158.582C214.311 179.892 236.464 192.29 257.774 186.274ZM256.525 181.844C275.389 176.518 286.365 156.908 281.039 138.044C275.714 119.179 256.103 108.203 237.239 113.529C218.374 118.855 207.398 138.465 212.724 157.329C218.05 176.194 237.66 187.17 256.525 181.844Z" fill="#F2F2F2"/>
<rect x="281.396" y="134.857" width="16.1316" height="6.59931" rx="3.29966" transform="rotate(-15.7648 281.396 134.857)" fill="#F2F2F2"/>
</svg>
