<svg width="351" height="265" viewBox="0 0 351 265" fill="none" xmlns="http://www.w3.org/2000/svg">
<rect x="0.228516" y="0.207031" width="350" height="264" fill="#7C92BC"/>
<path d="M253.787 222.21C290.518 213.702 313.397 177.029 304.889 140.298C296.381 103.567 259.707 80.6883 222.977 89.1963C186.246 97.7044 163.367 134.378 171.875 171.108C180.383 207.839 217.056 230.718 253.787 222.21Z" fill="#371A1B"/>
<path d="M245.587 213.351C281.405 213.351 310.441 184.315 310.441 148.497C310.441 112.679 281.405 83.6426 245.587 83.6426C209.769 83.6426 180.732 112.679 180.732 148.497C180.732 184.315 209.769 213.351 245.587 213.351Z" fill="#D67374"/>
<path d="M245.587 206.524C277.635 206.524 303.615 180.544 303.615 148.496C303.615 116.449 277.635 90.4688 245.587 90.4688C213.539 90.4688 187.56 116.449 187.56 148.496C187.56 180.544 213.539 206.524 245.587 206.524Z" fill="#ECECEC"/>
<path d="M245.588 205.009C276.798 205.009 302.098 179.709 302.098 148.499C302.098 117.289 276.798 91.9883 245.588 91.9883C214.378 91.9883 189.077 117.289 189.077 148.499C189.077 179.709 214.378 205.009 245.588 205.009Z" fill="#4A72AE"/>
<path fill-rule="evenodd" clip-rule="evenodd" d="M246.067 213.196C220.551 213.41 198.263 198.83 187.516 177.384L220.45 132.187L220.451 159.259L272.513 161.39L246.067 213.196Z" fill="#2C1B1D" fill-opacity="0.86"/>
<path d="M245.587 175.426C260.459 175.426 272.515 163.37 272.515 148.498C272.515 133.626 260.459 121.57 245.587 121.57C230.715 121.57 218.659 133.626 218.659 148.498C218.659 163.37 230.715 175.426 245.587 175.426Z" fill="#7B9AC9"/>
<path opacity="0.51" d="M256.282 127.344L258.163 124.037L262.335 126.692L260.401 129.946H258.694L256.419 127.951L256.282 127.344Z" fill="#7CA6D8"/>
<path opacity="0.51" d="M241.901 125.364L241.795 121.572L244.988 121.23L245.019 125.402L243.562 126.282L242.333 125.812L241.901 125.364Z" fill="#7CA6D8"/>
<path opacity="0.51" d="M262.715 132.766L265.051 129.777L268.798 133.001L266.409 135.944L264.725 135.694L262.76 133.388L262.715 132.766Z" fill="#7CA6D8"/>
<path d="M244.731 174.919C258.769 174.919 270.149 163.654 270.149 149.758C270.149 135.862 258.769 124.598 244.731 124.598C230.693 124.598 219.312 135.862 219.312 149.758C219.312 163.654 230.693 174.919 244.731 174.919Z" fill="#C35E5F"/>
<path d="M252.687 143.1L243.843 149.661C243.843 149.661 243.593 152.771 246.627 153.62C250.655 150.844 251.701 150.063 255.494 147.029C253.378 145.899 252.687 143.1 252.687 143.1Z" fill="black" fill-opacity="0.32"/>
<path d="M241.847 121.835C242.871 121.691 243.91 121.607 244.972 121.585H245.026L245.215 118.543C244.093 118.558 242.985 118.634 241.9 118.771L241.802 121.835H241.847Z" fill="#D6DCE5"/>
<path d="M259.673 122.047C255.47 119.809 250.684 118.535 245.587 118.535C245.458 118.535 245.337 118.543 245.208 118.543L245.018 121.577H244.965C245.17 121.577 245.374 121.577 245.587 121.577C250.024 121.577 254.204 122.654 257.89 124.558L257.875 124.543L259.665 122.062L259.673 122.047Z" fill="#D0D3D8"/>
<path d="M263.678 124.619C262.419 123.663 261.076 122.806 259.673 122.055L257.883 124.535L257.898 124.55C259.362 125.301 260.742 126.181 262.032 127.182H262.055L263.686 124.619H263.678Z" fill="#D6DCE5"/>
<path d="M267.304 127.875C266.181 126.699 264.967 125.607 263.67 124.621L262.039 127.193H262.017C263.079 128.004 264.065 128.907 264.99 129.87V129.847L267.296 127.875H267.304Z" fill="#D0D3D8"/>
<path d="M267.305 127.873L264.991 129.845V129.868C266.099 131.013 267.1 132.25 267.98 133.57L270.293 131.575C269.391 130.262 268.397 129.026 267.305 127.873Z" fill="#D6DCE5"/>
<path d="M270.3 131.576L267.987 133.571C270.846 137.841 272.515 142.977 272.515 148.499C272.515 163.366 260.462 175.427 245.587 175.427C238.806 175.427 232.609 172.908 227.876 168.767L225.744 170.929C231.031 175.609 237.979 178.453 245.595 178.453C262.138 178.453 275.557 165.035 275.557 148.491C275.557 142.211 273.615 136.385 270.308 131.568L270.3 131.576Z" fill="#D0D3D8"/>
<path d="M224.787 165.596C220.957 160.946 218.658 154.991 218.658 148.498C218.658 134.898 228.747 123.656 241.847 121.836H241.801L241.9 118.771C227.093 120.592 215.632 133.206 215.632 148.498C215.632 155.795 218.241 162.478 222.572 167.674L224.787 165.603V165.596Z" fill="#D0D3D8"/>
<path d="M224.788 165.596L222.573 167.666C223.544 168.835 224.606 169.919 225.744 170.928L227.875 168.766C226.76 167.795 225.729 166.733 224.788 165.596Z" fill="#D6DCE5"/>
<path d="M285.953 122.748C286.455 122.377 286.254 121.254 285.504 120.24C284.754 119.226 283.74 118.705 283.238 119.076C282.736 119.447 282.937 120.57 283.687 121.584C284.436 122.598 285.451 123.119 285.953 122.748Z" fill="#ECECEC"/>
<path d="M283.211 119.105L252.605 143.166C252.605 143.166 252.536 145.844 255.404 147.103C264.271 140.14 272.683 133.487 286.056 122.671C283.424 121.791 283.219 119.105 283.219 119.105H283.211Z" fill="black"/>
<path d="M233.306 135.293L228.459 139.935L231.03 143.22L234.876 145.07L238.805 141.862L240.163 137.644L237.804 135.293H233.306Z" fill="#D8888D"/>
<path d="M232.775 146.785L228.763 151.427L230.894 154.719L234.072 156.57L237.327 153.354L238.449 149.144L236.5 146.785H232.775Z" fill="#D8888D"/>
<path d="M243.455 151.412L239.875 154.833L241.779 157.26L244.608 158.626L247.506 156.259L248.507 153.149L246.77 151.412H243.455Z" fill="#D8888D"/>
</svg>
