<svg width="351" height="265" viewBox="0 0 351 265" fill="none" xmlns="http://www.w3.org/2000/svg">
<rect x="0.228516" y="0.835938" width="350" height="264" fill="#87B1B4"/>
<path d="M253.787 222.839C290.518 214.331 313.397 177.658 304.889 140.927C296.381 104.196 259.707 81.3172 222.977 89.8252C186.246 98.3333 163.367 135.007 171.875 171.737C180.383 208.468 217.056 231.347 253.787 222.839Z" fill="#202932"/>
<path d="M245.587 213.98C281.405 213.98 310.441 184.944 310.441 149.126C310.441 113.308 281.405 84.2715 245.587 84.2715C209.769 84.2715 180.732 113.308 180.732 149.126C180.732 184.944 209.769 213.98 245.587 213.98Z" fill="#73A6D6"/>
<path d="M245.587 207.153C277.635 207.153 303.615 181.173 303.615 149.125C303.615 117.077 277.635 91.0977 245.587 91.0977C213.539 91.0977 187.56 117.077 187.56 149.125C187.56 181.173 213.539 207.153 245.587 207.153Z" fill="#ECECEC"/>
<path d="M245.588 205.638C276.798 205.638 302.098 180.338 302.098 149.128C302.098 117.918 276.798 92.6172 245.588 92.6172C214.378 92.6172 189.077 117.918 189.077 149.128C189.077 180.338 214.378 205.638 245.588 205.638Z" fill="#AE5C4A"/>
<path fill-rule="evenodd" clip-rule="evenodd" d="M246.067 213.825C220.551 214.039 198.263 199.458 187.516 178.013L220.45 132.816L220.451 159.887L272.513 162.019L246.067 213.825Z" fill="#2C1B1D" fill-opacity="0.86"/>
<path d="M245.587 176.055C260.459 176.055 272.515 163.999 272.515 149.127C272.515 134.255 260.459 122.199 245.587 122.199C230.715 122.199 218.659 134.255 218.659 149.127C218.659 163.999 230.715 176.055 245.587 176.055Z" fill="#7B9AC9"/>
<path opacity="0.51" d="M256.282 127.973L258.163 124.666L262.335 127.321L260.401 130.575H258.694L256.419 128.58L256.282 127.973Z" fill="#7CA6D8"/>
<path opacity="0.51" d="M241.901 125.993L241.795 122.201L244.988 121.859L245.019 126.031L243.562 126.911L242.333 126.441L241.901 125.993Z" fill="#7CA6D8"/>
<path opacity="0.51" d="M262.715 133.395L265.051 130.406L268.798 133.63L266.409 136.573L264.725 136.323L262.76 134.017L262.715 133.395Z" fill="#7CA6D8"/>
<path d="M244.731 175.547C258.769 175.547 270.149 164.283 270.149 150.387C270.149 136.491 258.769 125.227 244.731 125.227C230.693 125.227 219.312 136.491 219.312 150.387C219.312 164.283 230.693 175.547 244.731 175.547Z" fill="#5E74C3"/>
<path d="M252.687 143.729L243.843 150.29C243.843 150.29 243.593 153.4 246.627 154.249C250.655 151.473 251.701 150.692 255.494 147.658C253.378 146.527 252.687 143.729 252.687 143.729Z" fill="black" fill-opacity="0.32"/>
<path d="M241.847 122.464C242.871 122.32 243.91 122.236 244.972 122.214H245.026L245.215 119.172C244.093 119.187 242.985 119.263 241.9 119.399L241.802 122.464H241.847Z" fill="#D6DCE5"/>
<path d="M259.673 122.676C255.47 120.438 250.684 119.164 245.587 119.164C245.458 119.164 245.337 119.172 245.208 119.172L245.018 122.206H244.965C245.17 122.206 245.374 122.206 245.587 122.206C250.024 122.206 254.204 123.283 257.89 125.187L257.875 125.172L259.665 122.691L259.673 122.676Z" fill="#D0D3D8"/>
<path d="M263.678 125.247C262.419 124.292 261.076 123.435 259.673 122.684L257.883 125.164L257.898 125.179C259.362 125.93 260.742 126.81 262.032 127.811H262.055L263.686 125.247H263.678Z" fill="#D6DCE5"/>
<path d="M267.304 128.504C266.181 127.328 264.967 126.236 263.67 125.25L262.039 127.821H262.017C263.079 128.633 264.065 129.536 264.99 130.499V130.476L267.296 128.504H267.304Z" fill="#D0D3D8"/>
<path d="M267.305 128.502L264.991 130.474V130.497C266.099 131.642 267.1 132.879 267.98 134.199L270.293 132.204C269.391 130.891 268.397 129.655 267.305 128.502Z" fill="#D6DCE5"/>
<path d="M270.3 132.205L267.987 134.2C270.846 138.47 272.515 143.606 272.515 149.128C272.515 163.995 260.462 176.056 245.587 176.056C238.806 176.056 232.609 173.537 227.876 169.396L225.744 171.557C231.031 176.238 237.979 179.082 245.595 179.082C262.138 179.082 275.557 165.664 275.557 149.12C275.557 142.839 273.615 137.014 270.308 132.197L270.3 132.205Z" fill="#D0D3D8"/>
<path d="M224.787 166.224C220.957 161.575 218.658 155.62 218.658 149.127C218.658 135.527 228.747 124.285 241.847 122.465H241.801L241.9 119.4C227.093 121.221 215.632 133.835 215.632 149.127C215.632 156.424 218.241 163.107 222.572 168.303L224.787 166.232V166.224Z" fill="#D0D3D8"/>
<path d="M224.788 166.225L222.573 168.295C223.544 169.464 224.606 170.548 225.744 171.557L227.875 169.395C226.76 168.424 225.729 167.362 224.788 166.225Z" fill="#D6DCE5"/>
<path d="M285.953 123.377C286.455 123.006 286.254 121.883 285.504 120.869C284.754 119.855 283.74 119.334 283.238 119.705C282.736 120.076 282.937 121.199 283.687 122.213C284.436 123.227 285.451 123.748 285.953 123.377Z" fill="#ECECEC"/>
<path d="M283.211 119.734L252.605 143.795C252.605 143.795 252.536 146.473 255.404 147.732C264.271 140.768 272.683 134.116 286.056 123.299C283.424 122.42 283.219 119.734 283.219 119.734H283.211Z" fill="black"/>
<path d="M233.306 135.922L228.459 140.564L231.03 143.849L234.876 145.699L238.805 142.491L240.163 138.273L237.804 135.922H233.306Z" fill="#6E88E3"/>
<path d="M232.775 147.414L228.763 152.056L230.894 155.348L234.072 157.199L237.327 153.983L238.449 149.773L236.5 147.414H232.775Z" fill="#6E88E3"/>
<path d="M243.455 152.041L239.875 155.462L241.779 157.889L244.608 159.255L247.506 156.888L248.507 153.778L246.77 152.041H243.455Z" fill="#6E88E3"/>
</svg>
