<svg width="351" height="234" viewBox="0 0 351 234" fill="none" xmlns="http://www.w3.org/2000/svg">
<rect x="0.228516" y="0.0859375" width="350" height="233" fill="#87B499"/>
<circle cx="239.155" cy="145.21" r="66.4492" transform="rotate(2.56318 239.155 145.21)" fill="#271A13"/>
<circle cx="244.158" cy="137.454" r="58.4753" transform="rotate(2.56318 244.158 137.454)" fill="#6B4630"/>
<path fill-rule="evenodd" clip-rule="evenodd" d="M264.407 191.781C285.809 183.977 301.508 163.912 302.591 139.735C304.027 107.655 279.185 80.4855 247.106 79.0495C215.026 77.6134 187.857 102.455 186.421 134.534C186.386 135.317 186.366 136.098 186.362 136.875C186.297 137.639 186.247 138.408 186.212 139.182C184.842 169.794 208.25 195.709 238.497 197.063C247.754 197.477 256.578 195.543 264.407 191.781ZM241.905 195.219C249.808 195.573 257.412 194.332 264.407 191.781C282.159 183.252 294.793 165.329 295.744 144.085C297.114 113.472 273.706 87.5576 243.459 86.2036C213.977 84.8838 188.881 107.386 186.362 136.875C186.202 167.925 210.609 193.818 241.905 195.219Z" fill="#3F2415"/>
<path fill-rule="evenodd" clip-rule="evenodd" d="M241.637 201.193C277.016 202.777 306.98 175.381 308.564 140.002C310.147 104.623 282.751 74.6585 247.372 73.0747C211.993 71.4909 182.029 98.8874 180.445 134.266C178.861 169.645 206.258 199.61 241.637 201.193ZM241.904 195.221C273.983 196.657 301.153 171.816 302.589 139.737C304.025 107.657 279.184 80.4875 247.104 79.0514C215.025 77.6153 187.855 102.457 186.419 134.536C184.983 166.615 209.825 193.785 241.904 195.221Z" fill="#A5795F"/>
<g filter="url(#filter0_d_569_27187)">
<path fill-rule="evenodd" clip-rule="evenodd" d="M244.959 69.02C243.639 68.4523 242.108 69.0624 241.541 70.3825L213.996 134.443C213.428 135.763 214.038 137.294 215.358 137.861C216.678 138.429 218.209 137.819 218.776 136.499L246.321 72.4381C246.889 71.118 246.279 69.5876 244.959 69.02ZM249.739 71.0786C248.419 70.5109 246.888 71.121 246.321 72.4411L218.776 136.502C218.208 137.822 218.818 139.352 220.138 139.92C221.446 140.482 222.961 139.889 223.541 138.594C223 139.906 223.611 141.412 224.919 141.975C226.225 142.536 227.737 141.945 228.319 140.654C227.782 141.964 228.393 143.468 229.699 144.029C231.019 144.597 232.55 143.987 233.117 142.667L260.662 78.6061C261.23 77.2859 260.62 75.7556 259.3 75.188C257.993 74.6263 256.481 75.2175 255.9 76.5087C256.436 75.1984 255.825 73.6947 254.519 73.1331C253.212 72.5708 251.697 73.1643 251.117 74.459C251.657 73.1475 251.047 71.6408 249.739 71.0786ZM260.663 78.6052C261.23 77.285 262.761 76.675 264.081 77.2426C265.401 77.8103 266.011 79.3406 265.443 80.6608L237.898 144.722C237.331 146.042 235.8 146.652 234.48 146.084C233.16 145.516 232.55 143.986 233.118 142.666L260.663 78.6052ZM268.861 79.2995C267.541 78.7318 266.011 79.3419 265.443 80.662L237.898 144.723C237.331 146.043 237.941 147.573 239.261 148.141C240.578 148.707 242.104 148.101 242.675 146.788C242.115 148.105 242.725 149.629 244.042 150.195C245.362 150.763 246.892 150.153 247.46 148.833L275.005 84.7721C275.572 83.4519 274.962 81.9216 273.642 81.354C272.325 80.7876 270.799 81.3935 270.228 82.7074C270.788 81.3896 270.178 79.8657 268.861 79.2995ZM278.423 83.4106C277.102 82.843 275.572 83.453 275.004 84.7731L247.46 148.834C246.892 150.154 247.502 151.684 248.822 152.252C250.142 152.82 251.673 152.21 252.24 150.89L279.785 86.8287C280.353 85.5086 279.743 83.9782 278.423 83.4106Z" fill="#804025"/>
<path fill-rule="evenodd" clip-rule="evenodd" d="M243.114 69.3598C241.794 68.7922 240.263 69.4022 239.696 70.7224L211.534 136.217C210.967 137.537 211.577 139.068 212.897 139.635C214.217 140.203 215.747 139.593 216.315 138.273L244.476 72.7779C245.044 71.4578 244.434 69.9275 243.114 69.3598ZM247.894 71.4184C246.574 70.8508 245.044 71.4608 244.476 72.781L216.315 138.276C215.747 139.596 216.357 141.126 217.677 141.694C218.985 142.256 220.499 141.663 221.079 140.368C220.539 141.68 221.15 143.186 222.458 143.749C223.764 144.31 225.276 143.719 225.857 142.428C225.321 143.738 225.932 145.242 227.238 145.803C228.558 146.371 230.088 145.761 230.656 144.441L258.817 78.9459C259.385 77.6258 258.775 76.0954 257.455 75.5278C256.149 74.9662 254.637 75.5574 254.055 76.8486C254.592 75.5383 253.981 74.0345 252.675 73.473C251.367 72.9106 249.853 73.5041 249.273 74.7988C249.813 73.4874 249.202 71.9807 247.894 71.4184ZM258.818 78.945C259.386 77.6249 260.916 77.0148 262.236 77.5825C263.556 78.1501 264.166 79.6805 263.599 81.0006L235.437 146.496C234.869 147.816 233.339 148.426 232.019 147.858C230.699 147.29 230.089 145.76 230.656 144.44L258.818 78.945ZM267.016 79.6393C265.696 79.0717 264.166 79.6817 263.598 81.0019L235.437 146.497C234.869 147.817 235.479 149.347 236.799 149.915C238.116 150.481 239.643 149.875 240.213 148.562C239.653 149.879 240.264 151.403 241.58 151.969C242.901 152.537 244.431 151.927 244.999 150.607L273.16 85.1119C273.728 83.7918 273.118 82.2614 271.798 81.6938C270.48 81.1275 268.954 81.7334 268.383 83.0472C268.943 81.7294 268.333 80.2055 267.016 79.6393ZM276.578 83.7505C275.258 83.1828 273.727 83.7928 273.16 85.113L244.998 150.608C244.431 151.928 245.041 153.458 246.361 154.026C247.681 154.594 249.211 153.984 249.779 152.664L277.94 87.1686C278.508 85.8484 277.898 84.3181 276.578 83.7505Z" fill="#BE6944"/>
<path d="M242.821 84.528C241.502 83.9605 239.97 84.5711 239.403 85.8908C239.384 85.9338 239.375 85.981 239.362 86.0261C239.905 84.9455 241.204 84.4557 242.332 84.9409C243.461 85.4261 244.051 86.8073 243.545 87.9836C243.039 89.1599 241.781 89.6498 240.638 89.2377C240.681 89.2562 240.718 89.289 240.761 89.3075C242.08 89.875 243.612 89.2644 244.179 87.9447C244.747 86.625 244.141 85.0954 242.821 84.528Z" fill="#804025"/>
<path d="M243.545 87.9823C244.05 86.8062 243.508 85.4456 242.332 84.9399C241.156 84.4342 239.905 84.9445 239.361 86.025C238.906 87.2682 239.457 88.6492 240.642 89.2383C241.785 89.6504 243.064 89.1127 243.55 87.9844L243.545 87.9823Z" fill="#8E482A"/>
<path d="M234.188 104.606C232.868 104.039 231.336 104.649 230.769 105.969C230.75 106.012 230.741 106.059 230.728 106.104C231.272 105.024 232.57 104.534 233.699 105.019C234.827 105.504 235.417 106.885 234.911 108.062C234.406 109.238 233.147 109.728 232.004 109.316C232.047 109.334 232.084 109.367 232.127 109.386C233.447 109.953 234.978 109.343 235.546 108.023C236.113 106.703 235.507 105.174 234.188 104.606Z" fill="#804025"/>
<path d="M234.911 108.06C235.417 106.884 234.874 105.524 233.698 105.018C232.522 104.512 231.272 105.023 230.728 106.103C230.272 107.346 230.823 108.727 232.009 109.316C233.151 109.728 234.431 109.191 234.916 108.063L234.911 108.06Z" fill="#8E482A"/>
<path d="M225.555 124.688C224.235 124.121 222.704 124.731 222.136 126.051C222.118 126.094 222.109 126.141 222.095 126.186C222.639 125.106 223.937 124.616 225.066 125.101C226.194 125.586 226.784 126.967 226.279 128.144C225.773 129.32 224.514 129.81 223.371 129.398C223.414 129.416 223.451 129.449 223.494 129.468C224.814 130.035 226.345 129.425 226.913 128.105C227.48 126.785 226.875 125.256 225.555 124.688Z" fill="#804025"/>
<path d="M226.278 128.142C226.784 126.966 226.242 125.606 225.065 125.1C223.889 124.594 222.639 125.105 222.095 126.185C221.64 127.428 222.19 128.809 223.376 129.398C224.519 129.811 225.798 129.273 226.283 128.145L226.278 128.142Z" fill="#8E482A"/>
<path d="M243.765 96.8288C242.445 96.2613 240.913 96.8719 240.346 98.1916C240.328 98.2346 240.319 98.2817 240.305 98.3268C240.849 97.2463 242.147 96.7565 243.276 97.2417C244.404 97.7269 244.994 99.1081 244.489 100.284C243.983 101.461 242.724 101.951 241.581 101.538C241.624 101.557 241.661 101.59 241.704 101.608C243.024 102.176 244.555 101.565 245.123 100.245C245.69 98.9258 245.085 97.3962 243.765 96.8288Z" fill="#804025"/>
<path d="M244.488 100.283C244.994 99.1069 244.452 97.7464 243.275 97.2407C242.099 96.735 240.849 97.2453 240.305 98.3258C239.85 99.5689 240.4 100.95 241.586 101.539C242.729 101.951 244.008 101.413 244.493 100.285L244.488 100.283Z" fill="#8E482A"/>
<path d="M235.131 116.911C233.811 116.343 232.28 116.954 231.712 118.274C231.694 118.317 231.685 118.364 231.671 118.409C232.215 117.328 233.513 116.838 234.642 117.324C235.77 117.809 236.361 119.19 235.855 120.366C235.349 121.543 234.09 122.033 232.947 121.62C232.99 121.639 233.027 121.672 233.07 121.69C234.39 122.258 235.922 121.647 236.489 120.328C237.056 119.008 236.451 117.478 235.131 116.911Z" fill="#804025"/>
<path d="M235.854 120.365C236.36 119.189 235.818 117.828 234.642 117.323C233.465 116.817 232.215 117.327 231.671 118.408C231.216 119.651 231.766 121.032 232.952 121.621C234.095 122.033 235.374 121.496 235.859 120.367L235.854 120.365Z" fill="#8E482A"/>
<path d="M255.238 101.762C253.919 101.195 252.387 101.805 251.82 103.125C251.801 103.168 251.792 103.215 251.778 103.26C252.322 102.18 253.621 101.69 254.749 102.175C255.878 102.66 256.468 104.042 255.962 105.218C255.456 106.394 254.198 106.884 253.055 106.472C253.098 106.491 253.135 106.523 253.178 106.542C254.497 107.109 256.029 106.499 256.596 105.179C257.164 103.859 256.558 102.33 255.238 101.762Z" fill="#804025"/>
<path d="M255.962 105.217C256.467 104.041 255.925 102.68 254.749 102.174C253.573 101.669 252.322 102.179 251.778 103.259C251.323 104.503 251.874 105.884 253.059 106.473C254.202 106.885 255.481 106.347 255.967 105.219L255.962 105.217Z" fill="#8E482A"/>
<path d="M246.605 121.84C245.285 121.273 243.753 121.884 243.186 123.203C243.167 123.246 243.158 123.293 243.145 123.339C243.689 122.258 244.987 121.768 246.116 122.253C247.244 122.739 247.834 124.12 247.328 125.296C246.823 126.472 245.564 126.962 244.421 126.55C244.464 126.569 244.501 126.602 244.544 126.62C245.864 127.187 247.395 126.577 247.963 125.257C248.53 123.938 247.924 122.408 246.605 121.84Z" fill="#804025"/>
<path d="M247.328 125.295C247.834 124.119 247.291 122.758 246.115 122.252C244.939 121.747 243.689 122.257 243.145 123.337C242.689 124.581 243.24 125.962 244.426 126.551C245.568 126.963 246.848 126.425 247.333 125.297L247.328 125.295Z" fill="#8E482A"/>
<path d="M254.295 89.4616C252.975 88.8941 251.444 89.5047 250.876 90.8244C250.858 90.8674 250.849 90.9146 250.835 90.9597C251.379 89.8791 252.677 89.3893 253.806 89.8745C254.934 90.3597 255.525 91.7409 255.019 92.9172C254.513 94.0935 253.254 94.5833 252.111 94.1712C252.154 94.1898 252.191 94.2226 252.234 94.2411C253.554 94.8086 255.086 94.198 255.653 92.8783C256.221 91.5586 255.615 90.029 254.295 89.4616Z" fill="#804025"/>
<path d="M255.018 92.9159C255.524 91.7398 254.982 90.3792 253.806 89.8735C252.629 89.3678 251.379 89.8781 250.835 90.9586C250.38 92.2017 250.93 93.5828 252.116 94.1719C253.259 94.584 254.538 94.0463 255.023 92.918L255.018 92.9159Z" fill="#8E482A"/>
<path d="M245.663 109.54C244.344 108.972 242.812 109.583 242.244 110.903C242.226 110.946 242.217 110.993 242.203 111.038C242.747 109.957 244.046 109.467 245.174 109.953C246.303 110.438 246.893 111.819 246.387 112.995C245.881 114.172 244.622 114.661 243.48 114.249C243.523 114.268 243.559 114.301 243.602 114.319C244.922 114.887 246.454 114.276 247.021 112.956C247.589 111.637 246.983 110.107 245.663 109.54Z" fill="#804025"/>
<path d="M246.387 112.994C246.892 111.818 246.35 110.457 245.174 109.952C243.998 109.446 242.747 109.956 242.203 111.037C241.748 112.28 242.299 113.661 243.484 114.25C244.627 114.662 245.906 114.124 246.391 112.996L246.387 112.994Z" fill="#8E482A"/>
<path d="M237.029 129.622C235.71 129.054 234.178 129.665 233.611 130.985C233.592 131.028 233.583 131.075 233.57 131.12C234.113 130.039 235.412 129.549 236.54 130.035C237.669 130.52 238.259 131.901 237.753 133.077C237.247 134.254 235.989 134.744 234.846 134.331C234.889 134.35 234.926 134.383 234.969 134.401C236.288 134.969 237.82 134.358 238.387 133.038C238.955 131.719 238.349 130.189 237.029 129.622Z" fill="#804025"/>
<path d="M237.753 133.076C238.258 131.9 237.716 130.539 236.54 130.034C235.364 129.528 234.113 130.038 233.569 131.119C233.114 132.362 233.665 133.743 234.85 134.332C235.993 134.744 237.272 134.206 237.758 133.078L237.753 133.076Z" fill="#8E482A"/>
<path d="M265.769 94.3991C264.449 93.8316 262.917 94.4422 262.35 95.7619C262.331 95.8049 262.322 95.8521 262.309 95.8972C262.853 94.8166 264.151 94.3268 265.28 94.812C266.408 95.2972 266.998 96.6784 266.492 97.8547C265.987 99.031 264.728 99.5208 263.585 99.1087C263.628 99.1273 263.665 99.1601 263.708 99.1786C265.028 99.7461 266.559 99.1355 267.127 97.8158C267.694 96.4961 267.088 94.9665 265.769 94.3991Z" fill="#804025"/>
<path d="M266.492 97.8534C266.998 96.6773 266.455 95.3167 265.279 94.811C264.103 94.3053 262.853 94.8156 262.309 95.8961C261.854 97.1392 262.404 98.5203 263.59 99.1094C264.732 99.5215 266.012 98.9838 266.497 97.8555L266.492 97.8534Z" fill="#8E482A"/>
<path d="M257.135 114.477C255.815 113.91 254.284 114.52 253.716 115.84C253.698 115.883 253.689 115.93 253.675 115.975C254.219 114.895 255.517 114.405 256.646 114.89C257.774 115.375 258.364 116.757 257.859 117.933C257.353 119.109 256.094 119.599 254.951 119.187C254.994 119.205 255.031 119.238 255.074 119.257C256.394 119.824 257.925 119.214 258.493 117.894C259.06 116.574 258.455 115.045 257.135 114.477Z" fill="#804025"/>
<path d="M257.858 117.932C258.364 116.755 257.822 115.395 256.645 114.889C255.469 114.383 254.219 114.894 253.675 115.974C253.22 117.217 253.77 118.598 254.956 119.188C256.099 119.6 257.378 119.062 257.863 117.934L257.858 117.932Z" fill="#8E482A"/>
<path d="M248.502 134.555C247.182 133.988 245.651 134.598 245.083 135.918C245.065 135.961 245.056 136.008 245.042 136.053C245.586 134.973 246.885 134.483 248.013 134.968C249.141 135.453 249.732 136.835 249.226 138.011C248.72 139.187 247.461 139.677 246.318 139.265C246.361 139.284 246.398 139.316 246.441 139.335C247.761 139.902 249.293 139.292 249.86 137.972C250.428 136.652 249.822 135.123 248.502 134.555Z" fill="#804025"/>
<path d="M249.225 138.01C249.731 136.834 249.189 135.473 248.013 134.967C246.837 134.462 245.586 134.972 245.042 136.052C244.587 137.295 245.137 138.677 246.323 139.266C247.466 139.678 248.745 139.14 249.23 138.012L249.225 138.01Z" fill="#8E482A"/>
</g>
<g clip-path="url(#clip0_569_27187)">
<path d="M278.17 107.48L279.918 107.644C280.051 107.656 280.134 107.787 280.086 107.914C279.746 108.869 278.908 112.454 284.253 115.15C284.356 115.198 284.4 115.328 284.34 115.424C283.52 116.73 278.871 124.85 287.377 126.697C287.494 126.723 287.585 126.828 287.579 126.95C287.516 127.977 287.492 132.551 291.938 133.906C292.031 133.933 292.074 134.038 292.025 134.117L290.58 136.419L283.792 136.835L277.549 129.606L274.972 125.25L274.001 116.121L274.769 111.01L276.908 107.865L278.177 107.468L278.17 107.48Z" fill="#804025"/>
<path d="M266.632 103.102C267.134 102.303 268.005 101.877 268.881 101.893C268.961 100.954 268.54 99.9998 267.684 99.4629C266.941 98.9965 266.05 98.9547 265.302 99.2703C265.475 99.3319 265.647 99.4083 265.816 99.5143C267.032 100.277 267.404 101.884 266.638 103.106L266.632 103.102Z" fill="#804025"/>
<path d="M275.446 108.633C275.947 107.834 276.819 107.408 277.695 107.425C277.774 106.486 277.353 105.531 276.498 104.994C275.755 104.528 274.863 104.486 274.116 104.802C274.289 104.863 274.461 104.94 274.629 105.046C275.845 105.809 276.218 107.415 275.451 108.637L275.446 108.633Z" fill="#804025"/>
<path d="M289.464 135.245L259.704 182.664C260.693 182.813 261.726 182.379 262.295 181.473L290.946 135.822C290.439 135.692 289.938 135.503 289.461 135.251L289.464 135.245Z" fill="#804025"/>
<path d="M271.038 105.868C271.54 105.068 272.411 104.642 273.288 104.659C273.367 103.72 272.946 102.765 272.091 102.228C271.348 101.762 270.456 101.72 269.708 102.036C269.882 102.098 270.053 102.174 270.222 102.28C271.438 103.043 271.811 104.65 271.044 105.871L271.038 105.868Z" fill="#804025"/>
<path d="M259.492 131.137C260.355 131.538 261.349 131.392 262.034 130.739C261.354 131.372 260.352 131.543 259.492 131.137Z" fill="#BE6944"/>
<path d="M260.451 118.837C261.314 119.237 262.299 119.094 262.98 118.446C262.298 119.07 261.309 119.234 260.451 118.837Z" fill="#BE6944"/>
<path d="M270.068 137.776C270.931 138.177 271.921 138.037 272.606 137.383C271.93 138.011 270.922 138.179 270.068 137.776Z" fill="#BE6944"/>
<path d="M247.868 149.647C248.737 150.051 249.731 149.905 250.419 149.246C249.74 149.879 248.732 150.047 247.868 149.647Z" fill="#BE6944"/>
<path d="M259.42 143.989C260.278 144.386 261.262 144.243 261.949 143.599C261.273 144.226 260.278 144.386 259.42 143.989Z" fill="#BE6944"/>
<path d="M258.449 156.286C259.309 156.692 260.308 156.55 260.996 155.891C260.317 156.524 259.312 156.686 258.449 156.286Z" fill="#BE6944"/>
<path d="M271.032 125.477C271.895 125.878 272.88 125.735 273.561 125.087C272.879 125.711 271.89 125.874 271.032 125.477Z" fill="#BE6944"/>
<path d="M247.793 162.505C248.656 162.905 249.641 162.762 250.322 162.114C249.64 162.738 248.651 162.902 247.793 162.505Z" fill="#BE6944"/>
<path d="M248.839 137.349C249.696 137.745 250.681 137.602 251.368 136.958C250.692 137.585 249.696 137.745 248.839 137.349Z" fill="#BE6944"/>
<path d="M237.212 155.864C238.075 156.265 239.06 156.121 239.741 155.474C239.059 156.097 238.07 156.261 237.212 155.864Z" fill="#BE6944"/>
<path d="M269.995 150.627C270.859 151.028 271.852 150.882 272.541 150.223C271.861 150.856 270.859 151.028 269.995 150.627Z" fill="#BE6944"/>
<path d="M258.368 169.141C259.237 169.545 260.231 169.4 260.915 168.746C260.236 169.379 259.228 169.547 258.368 169.141Z" fill="#BE6944"/>
<path d="M289.039 135.01C286.827 133.622 285.73 131.145 285.993 128.713C286.015 128.515 285.876 128.349 285.68 128.336C285.419 128.314 285.16 128.277 284.903 128.225C285.645 129.067 285.792 130.321 285.163 131.323C284.4 132.538 282.793 132.911 281.572 132.144C281.533 132.119 281.5 132.083 281.461 132.059C280.38 131.294 280.049 129.846 280.69 128.688C280.714 128.648 280.728 128.602 280.753 128.562C281.191 127.864 281.911 127.454 282.678 127.37C282.672 127.366 282.661 127.359 282.655 127.356C279.576 125.424 278.648 121.365 280.58 118.287C281.096 117.465 281.685 116.713 282.429 116.191C282.544 116.107 282.517 115.925 282.38 115.894C281.777 115.767 281.227 115.594 280.647 115.23C278.12 113.644 277.112 110.563 278.031 107.861C278.07 107.736 278.124 107.613 278.172 107.487C278.016 107.459 277.857 107.438 277.702 107.435C276.817 107.421 275.954 107.844 275.453 108.644C276.216 107.428 275.853 105.819 274.631 105.053C274.468 104.95 274.296 104.874 274.118 104.809C273.849 104.711 273.57 104.669 273.289 104.666C272.404 104.651 271.542 105.075 271.04 105.874C271.803 104.659 271.44 103.05 270.219 102.283C270.055 102.181 269.884 102.104 269.705 102.039C269.437 101.942 269.157 101.9 268.877 101.896C267.992 101.882 267.129 102.306 266.628 103.105C267.391 101.889 267.027 100.28 265.806 99.514C265.643 99.4115 265.471 99.3351 265.292 99.27C264.173 98.8657 262.885 99.281 262.224 100.333L224.403 160.595C223.655 161.789 223.878 163.42 225.027 164.227C226.257 165.093 227.945 164.74 228.733 163.485C227.97 164.701 228.333 166.31 229.554 167.076C230.776 167.843 232.379 167.476 233.145 166.254C232.382 167.47 232.746 169.079 233.967 169.845C235.188 170.612 236.791 170.245 237.558 169.024C236.795 170.24 237.158 171.848 238.379 172.615C239.601 173.381 241.204 173.015 241.97 171.793C241.207 173.009 241.571 174.618 242.792 175.384C244.013 176.151 245.616 175.784 246.383 174.563C245.62 175.778 245.983 177.387 247.205 178.154C248.426 178.92 250.029 178.553 250.796 177.332C250.033 178.548 250.396 180.156 251.617 180.923C252.839 181.689 254.442 181.323 255.208 180.101C254.42 181.356 254.837 183.03 256.151 183.761C257.384 184.448 258.95 183.94 259.698 182.747L259.737 182.685L289.497 135.267C289.355 135.193 289.213 135.12 289.072 135.031L289.039 135.01ZM227.033 159.343L227.1 159.236C226.599 160.035 226.521 161.046 226.902 161.865C226.521 161.085 226.535 160.137 227.033 159.343ZM227.855 162.934C227.759 162.874 227.674 162.797 227.591 162.729C227.693 162.817 227.804 162.902 227.915 162.964C227.898 162.953 227.881 162.943 227.858 162.928L227.855 162.934ZM247.924 133.919C247.949 133.879 247.962 133.833 247.987 133.794C248.856 132.409 250.815 132.125 252.051 133.355C252.732 134.033 252.976 135.081 252.664 135.991C252.094 137.65 250.193 138.253 248.803 137.381C248.764 137.356 248.731 137.32 248.692 137.296C247.611 136.531 247.28 135.083 247.921 133.924L247.924 133.919ZM237.18 155.889C237.14 155.864 237.108 155.828 237.068 155.803C235.987 155.039 235.656 153.591 236.297 152.432C236.322 152.393 236.335 152.346 236.36 152.307C237.229 150.923 239.188 150.638 240.424 151.869C241.105 152.547 241.349 153.595 241.037 154.505C240.467 156.163 238.566 156.767 237.176 155.895L237.18 155.889ZM260.415 118.866C260.376 118.841 260.344 118.805 260.304 118.781C259.223 118.016 258.892 116.568 259.533 115.41C259.558 115.37 259.571 115.324 259.596 115.284C260.465 113.9 262.424 113.615 263.654 114.842C264.335 115.521 264.58 116.568 264.267 117.479C263.697 119.137 261.796 119.741 260.406 118.868L260.415 118.866ZM247.833 149.677C247.793 149.653 247.761 149.617 247.722 149.592C246.64 148.827 246.309 147.38 246.95 146.221C246.975 146.181 246.988 146.135 247.013 146.096C247.882 144.711 249.841 144.427 251.072 145.654C251.752 146.332 251.997 147.38 251.685 148.29C251.114 149.948 249.214 150.552 247.824 149.679L247.833 149.677ZM259.451 131.166C259.411 131.141 259.379 131.105 259.339 131.08C258.258 130.316 257.927 128.868 258.568 127.709C258.593 127.67 258.606 127.624 258.631 127.584C259.5 126.2 261.459 125.915 262.69 127.142C263.37 127.821 263.615 128.868 263.303 129.779C262.732 131.437 260.832 132.041 259.441 131.168L259.451 131.166ZM258.496 140.562C258.521 140.522 258.534 140.476 258.559 140.436C259.428 139.052 261.387 138.768 262.623 139.998C263.304 140.676 263.548 141.724 263.236 142.634C262.666 144.293 260.765 144.896 259.375 144.024C259.336 143.999 259.303 143.963 259.264 143.938C258.183 143.174 257.852 141.726 258.493 140.567L258.496 140.562ZM247.752 162.532C247.712 162.507 247.68 162.471 247.64 162.446C246.559 161.682 246.228 160.234 246.869 159.075C246.894 159.036 246.907 158.989 246.932 158.95C247.801 157.565 249.76 157.281 250.996 158.512C251.677 159.19 251.921 160.238 251.609 161.148C251.039 162.806 249.138 163.41 247.748 162.537L247.752 162.532ZM270.987 125.509C270.948 125.484 270.916 125.448 270.876 125.424C269.795 124.659 269.464 123.211 270.105 122.052C270.13 122.013 270.143 121.967 270.168 121.927C271.037 120.543 272.996 120.258 274.226 121.485C274.907 122.164 275.152 123.211 274.839 124.122C274.269 125.78 272.368 126.384 270.978 125.511L270.987 125.509ZM258.405 156.32C258.365 156.296 258.333 156.26 258.294 156.235C257.212 155.47 256.881 154.023 257.522 152.864C257.547 152.824 257.56 152.778 257.585 152.738C258.454 151.354 260.413 151.069 261.644 152.297C262.324 152.975 262.569 154.023 262.257 154.933C261.687 156.591 259.786 157.195 258.396 156.322L258.405 156.32ZM270.023 137.809C269.983 137.784 269.951 137.748 269.911 137.723C268.83 136.959 268.499 135.511 269.14 134.352C269.165 134.313 269.178 134.266 269.203 134.227C270.072 132.842 272.031 132.558 273.262 133.785C273.942 134.463 274.187 135.511 273.875 136.421C273.304 138.08 271.404 138.683 270.013 137.811L270.023 137.809ZM273.19 146.638C273.87 147.316 274.115 148.364 273.803 149.274C273.232 150.932 271.332 151.536 269.941 150.663C269.902 150.639 269.87 150.603 269.83 150.578C268.749 149.813 268.418 148.366 269.059 147.207C269.084 147.167 269.097 147.121 269.122 147.081C269.991 145.697 271.95 145.413 273.186 146.643L273.19 146.638ZM258.324 169.175C258.284 169.15 258.252 169.114 258.212 169.089C257.131 168.324 256.8 166.877 257.441 165.718C257.466 165.679 257.479 165.632 257.504 165.593C258.373 164.208 260.332 163.924 261.568 165.155C262.249 165.833 262.493 166.881 262.181 167.791C261.611 169.449 259.71 170.053 258.32 169.18L258.324 169.175Z" fill="#BE6944"/>
<path d="M281.607 132.114C282.476 132.518 283.47 132.372 284.155 131.719C283.475 132.352 282.467 132.52 281.607 132.114Z" fill="#BE6944"/>
<path d="M263.19 114.457C261.975 113.694 260.365 114.057 259.599 115.279C259.574 115.318 259.561 115.365 259.536 115.404C260.241 114.418 261.558 114.107 262.639 114.786C263.72 115.464 264.047 116.893 263.368 117.974C263.255 118.154 263.116 118.302 262.968 118.437C262.281 119.081 261.297 119.224 260.44 118.827C260.395 118.799 260.345 118.791 260.302 118.772C260.341 118.797 260.373 118.833 260.413 118.858C261.629 119.621 263.238 119.258 264.005 118.036C264.771 116.814 264.404 115.211 263.188 114.448L263.19 114.457Z" fill="#804025"/>
<path d="M262.985 118.447C263.127 118.309 263.267 118.161 263.38 117.981C264.062 116.894 263.686 115.443 262.651 114.793C261.615 114.143 260.253 114.425 259.548 115.411C258.907 116.57 259.238 118.017 260.319 118.782C260.364 118.811 260.414 118.818 260.459 118.847C261.317 119.244 262.312 119.083 262.988 118.456L262.985 118.447Z" fill="#8E482A"/>
<path d="M260.451 118.833C260.406 118.805 260.356 118.797 260.311 118.769C260.356 118.797 260.406 118.805 260.449 118.824L260.451 118.833Z" fill="#8E482A"/>
<path d="M262.645 114.789C263.686 115.443 264.053 116.897 263.375 117.977C263.261 118.157 263.127 118.309 262.98 118.444C263.127 118.309 263.267 118.161 263.38 117.981C264.062 116.894 263.731 115.471 262.651 114.793C261.57 114.114 260.253 114.425 259.548 115.411C260.253 114.425 261.609 114.139 262.651 114.793L262.645 114.789Z" fill="#8E482A"/>
<path d="M251.573 132.97C250.357 132.207 248.748 132.571 247.981 133.792C247.956 133.832 247.943 133.878 247.918 133.917C248.623 132.932 249.94 132.621 251.021 133.299C252.102 133.977 252.429 135.407 251.751 136.488C251.638 136.668 251.501 136.81 251.36 136.948C250.673 137.592 249.694 137.739 248.831 137.339C248.782 137.316 248.736 137.303 248.687 137.28C248.727 137.305 248.759 137.341 248.799 137.366C250.015 138.129 251.624 137.765 252.39 136.544C253.157 135.322 252.79 133.719 251.574 132.956L251.573 132.97Z" fill="#804025"/>
<path d="M251.367 136.961C251.509 136.823 251.649 136.675 251.758 136.5C252.44 135.414 252.064 133.962 251.029 133.312C249.993 132.662 248.631 132.945 247.926 133.93C247.285 135.089 247.616 136.537 248.697 137.302C248.742 137.33 248.798 137.342 248.846 137.364C249.704 137.761 250.693 137.597 251.375 136.974L251.367 136.961Z" fill="#8E482A"/>
<path d="M248.839 137.35C248.791 137.328 248.744 137.314 248.69 137.288C248.735 137.316 248.785 137.324 248.834 137.347L248.839 137.35Z" fill="#8E482A"/>
<path d="M251.027 133.3C252.068 133.954 252.434 135.408 251.756 136.489C251.643 136.669 251.509 136.82 251.365 136.949C251.512 136.814 251.647 136.663 251.756 136.489C252.438 135.402 252.107 133.979 251.027 133.3C249.946 132.622 248.629 132.933 247.924 133.919C248.629 132.933 249.985 132.647 251.027 133.3Z" fill="#8E482A"/>
<path d="M239.955 151.48C238.739 150.717 237.13 151.081 236.363 152.302C236.339 152.342 236.325 152.388 236.301 152.427C237.005 151.442 238.323 151.131 239.404 151.809C240.484 152.487 240.811 153.917 240.133 154.998C240.02 155.178 239.88 155.325 239.733 155.46C239.046 156.104 238.062 156.248 237.204 155.851C237.159 155.823 237.109 155.815 237.066 155.796C237.106 155.82 237.138 155.856 237.178 155.881C238.393 156.644 240.003 156.281 240.769 155.059C241.536 153.838 241.169 152.234 239.953 151.471L239.955 151.48Z" fill="#804025"/>
<path d="M239.746 155.478C239.888 155.34 240.028 155.192 240.141 155.012C240.823 153.926 240.447 152.474 239.411 151.824C238.376 151.174 237.014 151.457 236.309 152.442C235.668 153.601 235.999 155.049 237.08 155.814C237.125 155.842 237.175 155.85 237.22 155.878C238.077 156.275 239.072 156.115 239.748 155.488L239.746 155.478Z" fill="#8E482A"/>
<path d="M237.212 155.864C237.167 155.836 237.117 155.828 237.072 155.8C237.117 155.828 237.167 155.836 237.21 155.855L237.212 155.864Z" fill="#8E482A"/>
<path d="M239.406 151.82C240.447 152.474 240.814 153.928 240.135 155.009C240.022 155.189 239.888 155.34 239.741 155.475C239.888 155.34 240.028 155.192 240.141 155.012C240.823 153.926 240.492 152.502 239.411 151.824C238.331 151.146 237.014 151.457 236.309 152.442C237.014 151.457 238.37 151.17 239.411 151.824L239.406 151.82Z" fill="#8E482A"/>
<path d="M262.235 126.756C261.019 125.992 259.41 126.356 258.643 127.577C258.618 127.617 258.605 127.663 258.58 127.703C259.285 126.717 260.602 126.406 261.683 127.084C262.764 127.763 263.089 129.183 262.42 130.262L262.413 130.273C262.303 130.447 262.173 130.593 262.029 130.722C261.341 131.381 260.347 131.526 259.488 131.12C259.443 131.092 259.393 131.084 259.35 131.065C259.389 131.09 259.421 131.126 259.461 131.151C260.677 131.914 262.286 131.55 263.052 130.329C263.819 129.107 263.452 127.504 262.236 126.741L262.235 126.756Z" fill="#804025"/>
<path d="M262.037 130.735C262.175 130.602 262.306 130.456 262.415 130.282L262.422 130.27C263.091 129.192 262.722 127.743 261.686 127.093C260.65 126.443 259.288 126.726 258.583 127.712C257.942 128.871 258.273 130.318 259.354 131.083C259.4 131.111 259.45 131.119 259.495 131.148C260.357 131.548 261.356 131.382 262.035 130.749L262.037 130.735Z" fill="#8E482A"/>
<path d="M262.037 130.734C262.181 130.604 262.311 130.459 262.421 130.284C262.311 130.459 262.181 130.604 262.042 130.737L262.037 130.734Z" fill="#8E482A"/>
<path d="M261.68 127.089C262.716 127.74 263.086 129.188 262.417 130.266C263.086 129.188 262.761 127.768 261.68 127.089C260.599 126.411 259.282 126.722 258.577 127.708C259.282 126.722 260.639 126.436 261.68 127.089Z" fill="#8E482A"/>
<path d="M259.492 131.138C259.447 131.109 259.397 131.102 259.352 131.073C259.397 131.102 259.447 131.109 259.49 131.129L259.492 131.138Z" fill="#8E482A"/>
<path d="M250.614 145.271C249.398 144.508 247.789 144.871 247.022 146.093C246.997 146.132 246.984 146.179 246.959 146.218C247.664 145.233 248.981 144.922 250.062 145.6C251.143 146.278 251.468 147.698 250.799 148.777C250.799 148.777 250.795 148.783 250.792 148.788C250.686 148.957 250.555 149.103 250.408 149.238C249.719 149.897 248.722 150.048 247.857 149.638C247.818 149.613 247.768 149.606 247.723 149.577C247.762 149.602 247.795 149.638 247.834 149.663C249.05 150.426 250.659 150.063 251.426 148.841C252.192 147.619 251.825 146.016 250.61 145.253L250.614 145.271Z" fill="#804025"/>
<path d="M250.419 149.246C250.557 149.113 250.688 148.968 250.797 148.793C250.797 148.793 250.801 148.788 250.804 148.782C251.477 147.698 251.103 146.255 250.068 145.605C249.032 144.955 247.67 145.238 246.965 146.223C246.324 147.382 246.655 148.83 247.736 149.595C247.781 149.623 247.828 149.637 247.871 149.656C248.734 150.056 249.741 149.888 250.421 149.255L250.419 149.246Z" fill="#8E482A"/>
<path d="M247.869 149.644C247.824 149.616 247.774 149.608 247.735 149.583C247.78 149.612 247.83 149.619 247.869 149.644Z" fill="#8E482A"/>
<path d="M250.062 145.601C251.098 146.251 251.467 147.7 250.798 148.778C251.471 147.694 251.143 146.279 250.062 145.601C248.981 144.923 247.664 145.234 246.959 146.22C247.664 145.234 249.02 144.948 250.062 145.601Z" fill="#8E482A"/>
<path d="M250.419 149.245C250.557 149.113 250.693 148.97 250.803 148.796C250.693 148.97 250.563 149.116 250.424 149.249L250.419 149.245Z" fill="#8E482A"/>
<path d="M272.81 133.394C271.594 132.631 269.985 132.994 269.219 134.216C269.194 134.255 269.181 134.302 269.156 134.341C269.861 133.355 271.178 133.044 272.259 133.723C273.34 134.401 273.665 135.821 272.995 136.9L272.988 136.911C272.879 137.086 272.745 137.237 272.601 137.366C271.916 138.019 270.923 138.165 270.063 137.759C270.024 137.734 269.968 137.723 269.929 137.698C269.968 137.723 270 137.759 270.04 137.783C271.256 138.547 272.865 138.183 273.631 136.962C274.398 135.74 274.031 134.137 272.815 133.374L272.81 133.394Z" fill="#804025"/>
<path d="M272.609 137.377C272.747 137.244 272.881 137.093 272.99 136.918L272.998 136.907C273.667 135.828 273.297 134.38 272.261 133.73C271.225 133.08 269.863 133.363 269.158 134.348C268.517 135.507 268.848 136.955 269.93 137.72C269.975 137.748 270.021 137.762 270.07 137.784C270.933 138.185 271.931 138.019 272.607 137.392L272.609 137.377Z" fill="#8E482A"/>
<path d="M272.608 137.376C272.756 137.241 272.887 137.095 272.996 136.921C272.887 137.095 272.752 137.247 272.614 137.38L272.608 137.376Z" fill="#8E482A"/>
<path d="M272.261 133.73C273.297 134.38 273.667 135.828 272.998 136.907C273.667 135.828 273.342 134.408 272.261 133.73C271.18 133.052 269.863 133.363 269.158 134.348C269.863 133.363 271.22 133.077 272.261 133.73Z" fill="#8E482A"/>
<path d="M270.068 137.777C270.023 137.748 269.973 137.74 269.928 137.712C269.973 137.74 270.023 137.748 270.062 137.773L270.068 137.777Z" fill="#8E482A"/>
<path d="M261.189 151.912C259.973 151.149 258.364 151.512 257.597 152.734C257.573 152.773 257.559 152.819 257.534 152.859C258.239 151.873 259.557 151.562 260.637 152.241C261.718 152.919 262.043 154.339 261.374 155.418C261.374 155.418 261.37 155.423 261.367 155.429C261.257 155.604 261.127 155.749 260.979 155.884C260.291 156.543 259.301 156.683 258.432 156.279C258.393 156.254 258.343 156.246 258.298 156.218C258.337 156.243 258.37 156.279 258.409 156.303C259.625 157.067 261.234 156.703 262.001 155.482C262.768 154.26 262.401 152.657 261.185 151.894L261.189 151.912Z" fill="#804025"/>
<path d="M260.99 155.889C261.129 155.756 261.263 155.605 261.372 155.43C261.372 155.43 261.376 155.424 261.379 155.419C262.052 154.335 261.679 152.892 260.643 152.242C259.607 151.592 258.245 151.875 257.54 152.86C256.899 154.019 257.23 155.467 258.312 156.232C258.357 156.26 258.403 156.273 258.446 156.292C259.309 156.693 260.313 156.53 260.992 155.898L260.99 155.889Z" fill="#8E482A"/>
<path d="M260.643 152.242C261.679 152.892 262.049 154.34 261.379 155.419C262.052 154.335 261.724 152.92 260.643 152.242C259.562 151.564 258.245 151.875 257.54 152.86C258.245 151.875 259.602 151.588 260.643 152.242Z" fill="#8E482A"/>
<path d="M260.99 155.888C261.134 155.758 261.268 155.607 261.378 155.433C261.268 155.607 261.134 155.758 260.996 155.891L260.99 155.888Z" fill="#8E482A"/>
<path d="M258.45 156.285C258.411 156.26 258.355 156.249 258.316 156.224C258.355 156.249 258.405 156.257 258.45 156.285Z" fill="#8E482A"/>
<path d="M273.772 121.098C272.556 120.334 270.947 120.698 270.18 121.919C270.155 121.959 270.142 122.005 270.117 122.045C270.822 121.059 272.139 120.748 273.22 121.426C274.301 122.105 274.628 123.534 273.95 124.615C273.836 124.795 273.697 124.943 273.549 125.078C272.863 125.722 271.878 125.865 271.021 125.468C270.976 125.44 270.926 125.432 270.883 125.413C270.922 125.438 270.955 125.474 270.994 125.498C272.21 126.261 273.819 125.898 274.586 124.677C275.352 123.455 274.985 121.852 273.769 121.088L273.772 121.098Z" fill="#804025"/>
<path d="M273.561 125.084C273.703 124.945 273.842 124.798 273.955 124.618C274.637 123.531 274.262 122.079 273.226 121.429C272.19 120.779 270.828 121.062 270.123 122.048C269.482 123.207 269.813 124.654 270.895 125.419C270.94 125.447 270.99 125.455 271.035 125.483C271.892 125.88 272.887 125.72 273.563 125.093L273.561 125.084Z" fill="#8E482A"/>
<path d="M271.032 125.474C270.987 125.445 270.937 125.438 270.892 125.409C270.937 125.438 270.987 125.445 271.03 125.464L271.032 125.474Z" fill="#8E482A"/>
<path d="M273.226 121.43C274.267 122.083 274.634 123.537 273.956 124.618C273.843 124.798 273.708 124.949 273.561 125.084C273.708 124.949 273.848 124.802 273.961 124.621C274.643 123.535 274.312 122.112 273.232 121.433C272.151 120.755 270.834 121.066 270.129 122.052C270.834 121.066 272.19 120.78 273.232 121.433L273.226 121.43Z" fill="#8E482A"/>
<path d="M262.154 139.611C260.938 138.848 259.329 139.211 258.562 140.433C258.537 140.472 258.524 140.519 258.499 140.558C259.204 139.572 260.521 139.261 261.602 139.94C262.683 140.618 263.01 142.047 262.332 143.128C262.219 143.308 262.082 143.45 261.941 143.589C261.254 144.233 260.275 144.38 259.412 143.979C259.364 143.957 259.317 143.943 259.269 143.921C259.308 143.945 259.34 143.981 259.38 144.006C260.596 144.769 262.205 144.406 262.971 143.184C263.738 141.963 263.371 140.359 262.155 139.596L262.154 139.611Z" fill="#804025"/>
<path d="M261.943 143.598C262.085 143.459 262.225 143.312 262.334 143.137C263.016 142.051 262.64 140.599 261.605 139.949C260.569 139.299 259.207 139.582 258.502 140.567C257.861 141.726 258.192 143.174 259.273 143.939C259.318 143.967 259.374 143.978 259.423 144.001C260.28 144.398 261.269 144.234 261.951 143.61L261.943 143.598Z" fill="#8E482A"/>
<path d="M259.42 143.991C259.372 143.968 259.325 143.955 259.271 143.929C259.316 143.957 259.366 143.965 259.415 143.988L259.42 143.991Z" fill="#8E482A"/>
<path d="M261.608 139.941C262.649 140.595 263.015 142.049 262.337 143.129C262.224 143.309 262.09 143.461 261.946 143.59C262.094 143.455 262.228 143.304 262.337 143.129C263.019 142.043 262.688 140.619 261.608 139.941C260.527 139.263 259.21 139.574 258.505 140.559C259.21 139.574 260.566 139.288 261.608 139.941Z" fill="#8E482A"/>
<path d="M250.536 158.121C249.32 157.358 247.711 157.721 246.945 158.943C246.92 158.982 246.906 159.029 246.882 159.068C247.587 158.082 248.904 157.771 249.985 158.45C251.065 159.128 251.393 160.557 250.714 161.638C250.601 161.818 250.461 161.966 250.314 162.101C249.627 162.745 248.643 162.888 247.785 162.492C247.74 162.463 247.69 162.455 247.647 162.436C247.687 162.461 247.719 162.497 247.759 162.522C248.975 163.285 250.584 162.922 251.35 161.7C252.117 160.478 251.75 158.875 250.534 158.112L250.536 158.121Z" fill="#804025"/>
<path d="M250.321 162.115C250.463 161.977 250.603 161.829 250.716 161.649C251.398 160.562 251.022 159.111 249.987 158.461C248.951 157.811 247.589 158.093 246.884 159.079C246.243 160.238 246.574 161.685 247.655 162.45C247.7 162.479 247.75 162.486 247.795 162.515C248.653 162.911 249.648 162.751 250.324 162.124L250.321 162.115Z" fill="#8E482A"/>
<path d="M247.793 162.505C247.748 162.477 247.698 162.469 247.653 162.44C247.698 162.469 247.748 162.477 247.791 162.496L247.793 162.505Z" fill="#8E482A"/>
<path d="M249.987 158.461C251.028 159.115 251.395 160.568 250.716 161.649C250.603 161.829 250.469 161.98 250.322 162.115C250.469 161.98 250.609 161.833 250.722 161.653C251.404 160.566 251.073 159.143 249.992 158.464C248.912 157.786 247.595 158.097 246.89 159.083C247.595 158.097 248.951 157.811 249.992 158.464L249.987 158.461Z" fill="#8E482A"/>
<path d="M280.762 128.563C280.737 128.603 280.723 128.649 280.699 128.689C281.404 127.703 282.721 127.392 283.802 128.07C284.883 128.749 285.213 130.172 284.535 131.253C284.535 131.253 284.535 131.253 284.531 131.259C284.422 131.433 284.291 131.579 284.147 131.708C283.459 132.367 282.465 132.512 281.6 132.103C281.561 132.078 281.511 132.07 281.466 132.042C281.505 132.067 281.538 132.103 281.577 132.127C282.793 132.891 284.402 132.527 285.169 131.306C285.798 130.304 285.651 129.05 284.908 128.208C284.143 128.065 283.39 127.788 282.692 127.35C281.925 127.434 281.208 127.839 280.767 128.543L280.762 128.563Z" fill="#804025"/>
<path d="M284.149 131.715C284.288 131.582 284.418 131.437 284.528 131.262C284.528 131.262 284.528 131.262 284.531 131.256C285.209 130.176 284.834 128.724 283.798 128.074C282.762 127.424 281.4 127.707 280.695 128.692C280.054 129.851 280.386 131.299 281.467 132.064C281.512 132.092 281.558 132.105 281.601 132.124C282.464 132.525 283.468 132.363 284.148 131.73L284.149 131.715Z" fill="#8E482A"/>
<path d="M281.608 132.113C281.563 132.085 281.513 132.077 281.474 132.052C281.519 132.08 281.569 132.088 281.608 132.113Z" fill="#8E482A"/>
<path d="M283.801 128.07C284.837 128.72 285.212 130.172 284.534 131.253C285.212 130.172 284.882 128.748 283.801 128.07C282.72 127.392 281.403 127.703 280.698 128.688C281.403 127.703 282.76 127.416 283.801 128.07Z" fill="#8E482A"/>
<path d="M284.149 131.714C284.293 131.585 284.427 131.434 284.533 131.265C284.424 131.439 284.293 131.585 284.155 131.718L284.149 131.714Z" fill="#8E482A"/>
<path d="M272.73 146.246C271.514 145.483 269.905 145.846 269.138 147.068C269.113 147.107 269.1 147.154 269.075 147.193C269.78 146.207 271.097 145.896 272.178 146.575C273.259 147.253 273.589 148.677 272.911 149.758C272.911 149.758 272.911 149.758 272.908 149.763C272.798 149.938 272.667 150.083 272.523 150.213C271.835 150.872 270.842 151.017 269.979 150.617C269.934 150.588 269.884 150.58 269.835 150.558C269.875 150.583 269.907 150.619 269.946 150.643C271.162 151.406 272.771 151.043 273.538 149.821C274.305 148.6 273.938 146.996 272.722 146.233L272.73 146.246Z" fill="#804025"/>
<path d="M272.537 150.231C272.675 150.098 272.806 149.952 272.915 149.778C272.915 149.778 272.915 149.778 272.919 149.772C273.597 148.691 273.222 147.24 272.186 146.589C271.15 145.939 269.788 146.222 269.083 147.208C268.442 148.367 268.773 149.814 269.854 150.579C269.9 150.607 269.95 150.615 269.998 150.638C270.861 151.038 271.863 150.867 272.543 150.234L272.537 150.231Z" fill="#8E482A"/>
<path d="M269.996 150.628C269.951 150.6 269.901 150.592 269.852 150.569C269.897 150.598 269.947 150.606 269.996 150.628Z" fill="#8E482A"/>
<path d="M272.184 146.578C273.22 147.228 273.595 148.68 272.917 149.76C273.595 148.68 273.265 147.256 272.184 146.578C271.103 145.9 269.786 146.211 269.081 147.196C269.786 146.211 271.143 145.924 272.184 146.578Z" fill="#8E482A"/>
<path d="M272.537 150.23C272.675 150.097 272.811 149.955 272.921 149.78C272.811 149.955 272.681 150.1 272.542 150.233L272.537 150.23Z" fill="#8E482A"/>
<path d="M261.112 164.757C259.896 163.994 258.287 164.357 257.52 165.579C257.496 165.618 257.482 165.665 257.458 165.704C258.162 164.719 259.48 164.408 260.561 165.086C261.641 165.764 261.972 167.188 261.294 168.269C261.294 168.269 261.294 168.269 261.29 168.274C261.181 168.449 261.05 168.595 260.906 168.724C260.218 169.383 259.224 169.528 258.359 169.119C258.32 169.094 258.27 169.086 258.225 169.058C258.264 169.083 258.297 169.119 258.336 169.143C259.552 169.906 261.161 169.543 261.928 168.321C262.694 167.1 262.327 165.496 261.111 164.733L261.112 164.757Z" fill="#804025"/>
<path d="M260.913 168.738C261.051 168.606 261.182 168.46 261.291 168.286C261.291 168.286 261.291 168.286 261.295 168.28C261.973 167.199 261.598 165.747 260.562 165.097C259.526 164.447 258.164 164.73 257.459 165.716C256.818 166.875 257.149 168.322 258.23 169.087C258.275 169.115 258.322 169.129 258.365 169.148C259.228 169.548 260.232 169.386 260.911 168.753L260.913 168.738Z" fill="#8E482A"/>
<path d="M260.562 165.097C261.598 165.747 261.973 167.199 261.295 168.28C261.973 167.199 261.643 165.776 260.562 165.097C259.481 164.419 258.164 164.73 257.459 165.716C258.164 164.73 259.52 164.444 260.562 165.097Z" fill="#8E482A"/>
<path d="M258.369 169.14C258.324 169.112 258.274 169.104 258.235 169.079C258.28 169.108 258.33 169.116 258.369 169.14Z" fill="#8E482A"/>
<path d="M260.913 168.738C261.057 168.608 261.191 168.457 261.297 168.288C261.187 168.463 261.057 168.608 260.918 168.741L260.913 168.738Z" fill="#8E482A"/>
</g>
<defs>
<filter id="filter0_d_569_27187" x="211.322" y="68.8086" width="72.6748" height="90.4297" filterUnits="userSpaceOnUse" color-interpolation-filters="sRGB">
<feFlood flood-opacity="0" result="BackgroundImageFix"/>
<feColorMatrix in="SourceAlpha" type="matrix" values="0 0 0 0 0 0 0 0 0 0 0 0 0 0 0 0 0 0 127 0" result="hardAlpha"/>
<feOffset dx="4" dy="5"/>
<feComposite in2="hardAlpha" operator="out"/>
<feColorMatrix type="matrix" values="0 0 0 0 0 0 0 0 0 0 0 0 0 0 0 0 0 0 0.25 0"/>
<feBlend mode="normal" in2="BackgroundImageFix" result="effect1_dropShadow_569_27187"/>
<feBlend mode="normal" in="SourceGraphic" in2="effect1_dropShadow_569_27187" result="shape"/>
</filter>
<clipPath id="clip0_569_27187">
<rect width="43.192" height="77.5396" fill="white" transform="translate(264.16 97.25) rotate(32.1127)"/>
</clipPath>
</defs>
</svg>
