<svg width="351" height="234" viewBox="0 0 351 234" fill="none" xmlns="http://www.w3.org/2000/svg">
<rect x="0.228516" y="0.0878906" width="350" height="233" fill="#BC7C7C"/>
<ellipse cx="66.0082" cy="58.2867" rx="66.0082" ry="58.2867" transform="matrix(0.99922 0.0394785 -0.0506567 0.998716 175.652 73.9512)" fill="#2B1313"/>
<ellipse cx="58.0873" cy="51.2923" rx="58.0873" ry="51.2923" transform="matrix(0.99922 0.0394784 -0.0506567 0.998716 188.185 74.4473)" fill="#6B3030"/>
<path fill-rule="evenodd" clip-rule="evenodd" d="M263.751 175.607C285.013 168.763 300.609 151.168 301.685 129.968C303.111 101.838 278.429 78.0121 246.556 76.7528C214.682 75.4935 187.687 97.2772 186.26 125.408C186.225 126.099 186.206 126.787 186.202 127.472C186.138 128.138 186.088 128.809 186.054 129.483C184.692 156.328 207.951 179.053 238.003 180.24C247.202 180.604 255.971 178.907 263.751 175.607ZM241.389 178.624C249.242 178.934 256.8 177.845 263.751 175.607C281.387 168.128 293.938 152.411 294.883 133.783C296.244 106.938 272.986 84.2138 242.934 83.0264C213.637 81.8689 188.698 101.607 186.202 127.472C186.05 154.695 210.298 177.395 241.389 178.624Z" fill="#492121"/>
<path fill-rule="evenodd" clip-rule="evenodd" d="M241.123 183.862C276.275 185.25 306.047 161.226 307.62 130.202C309.194 99.1776 281.973 72.9016 246.821 71.5127C211.669 70.1239 181.897 94.1482 180.324 125.172C178.75 156.197 205.971 182.473 241.123 183.862ZM241.389 178.624C273.262 179.883 300.258 158.099 301.685 129.968C303.111 101.838 278.429 78.0122 246.556 76.7529C214.682 75.4936 187.687 97.2772 186.26 125.408C184.833 153.539 209.515 177.364 241.389 178.624Z" fill="#B75C5C"/>
<g filter="url(#filter0_d_567_20834)">
<path fill-rule="evenodd" clip-rule="evenodd" d="M244.42 67.9599C243.108 67.4621 241.543 68.0886 240.924 69.3592L213.755 125.126C213.136 126.396 213.698 127.83 215.009 128.328C216.321 128.826 217.886 128.199 218.505 126.928L245.674 71.1618C246.293 69.8912 245.732 68.4576 244.42 67.9599ZM249.168 69.7665C247.856 69.2688 246.291 69.8953 245.672 71.1659L218.503 126.933C217.884 128.203 218.446 129.637 219.757 130.134C221.069 130.632 222.634 130.006 223.253 128.735L250.422 72.9684C251.041 71.6978 250.48 70.2643 249.168 69.7665ZM250.424 72.9655C251.043 71.6949 252.608 71.0684 253.92 71.5662C255.232 72.0639 255.793 73.4975 255.174 74.7681L228.005 130.535C227.386 131.805 225.821 132.432 224.509 131.934C223.198 131.436 222.636 130.003 223.255 128.732L250.424 72.9655ZM258.669 73.371C257.357 72.8732 255.792 73.4997 255.173 74.7703L228.004 130.537C227.385 131.808 227.947 133.241 229.258 133.739C230.561 134.233 232.113 133.619 232.741 132.367C232.145 133.63 232.708 135.045 234.009 135.539C235.308 136.031 236.856 135.422 237.487 134.176C236.896 135.438 237.459 136.849 238.758 137.342C240.07 137.839 241.635 137.213 242.254 135.942L269.423 80.1756C270.042 78.905 269.481 77.4714 268.169 76.9737C266.87 76.4808 265.323 77.0902 264.692 78.3358C265.282 77.0744 264.719 75.6636 263.42 75.1706C262.118 74.6764 260.566 75.2903 259.938 76.5425C260.533 75.2795 259.97 73.8648 258.669 73.371ZM269.424 80.1761C270.043 78.9055 271.608 78.279 272.92 78.7767C274.213 79.2673 274.777 80.6669 274.2 81.9236C274.837 80.6892 276.376 80.0874 277.669 80.5781C278.981 81.0759 279.542 82.5094 278.923 83.78L251.754 139.547C251.135 140.817 249.57 141.444 248.258 140.946C246.966 140.455 246.402 139.056 246.978 137.799C246.342 139.034 244.802 139.635 243.509 139.145C242.198 138.647 241.636 137.213 242.255 135.943L269.424 80.1761Z" fill="#1B3F53"/>
<path fill-rule="evenodd" clip-rule="evenodd" d="M242.588 68.2568C241.276 67.759 239.711 68.3855 239.092 69.6561L211.31 126.68C210.691 127.951 211.253 129.385 212.565 129.882C213.87 130.378 215.427 129.759 216.052 128.501C215.444 129.768 216.006 131.193 217.313 131.689C218.624 132.186 220.189 131.56 220.808 130.289L248.59 73.2649C249.209 71.9943 248.648 70.5608 247.336 70.063C246.03 69.5676 244.474 70.186 243.849 71.4449C244.457 70.1777 243.895 68.7527 242.588 68.2568ZM248.592 73.262C249.211 71.9914 250.776 71.3649 252.088 71.8627C253.4 72.3604 253.961 73.794 253.342 75.0646L225.56 132.089C224.941 133.359 223.376 133.986 222.065 133.488C220.753 132.99 220.191 131.557 220.81 130.286L248.592 73.262ZM256.837 73.6675C255.525 73.1697 253.96 73.7962 253.341 75.0668L225.559 132.091C224.94 133.362 225.502 134.795 226.814 135.293C228.116 135.787 229.668 135.173 230.296 133.921C229.7 135.184 230.263 136.599 231.565 137.093C232.863 137.586 234.411 136.976 235.042 135.73C234.451 136.992 235.015 138.403 236.314 138.896C237.625 139.393 239.19 138.767 239.809 137.496L267.591 80.4721C268.21 79.2015 267.649 77.7679 266.337 77.2702C265.038 76.7773 263.491 77.3867 262.86 78.6323C263.45 77.3709 262.887 75.9601 261.588 75.4671C260.286 74.9729 258.734 75.5868 258.106 76.839C258.701 75.576 258.138 74.1613 256.837 73.6675ZM267.592 80.4726C268.211 79.202 269.776 78.5755 271.088 79.0732C272.381 79.5638 272.945 80.9634 272.368 82.22C273.005 80.9857 274.544 80.3839 275.837 80.8746C277.149 81.3723 277.71 82.8059 277.091 84.0765L249.309 141.101C248.69 142.371 247.125 142.998 245.814 142.5C244.521 142.01 243.957 140.61 244.533 139.353C243.897 140.588 242.358 141.189 241.065 140.699C239.753 140.201 239.191 138.767 239.81 137.497L267.592 80.4726Z" fill="#4492BE"/>
<path d="M242.298 81.5536C240.987 81.0561 239.465 81.5914 238.902 82.7485C238.883 82.7862 238.874 82.8275 238.861 82.867C239.401 81.9197 240.691 81.4902 241.812 81.9156C242.933 82.341 243.519 83.552 243.017 84.5833C242.514 85.6146 241.264 86.0441 240.129 85.6828C240.171 85.699 240.208 85.7278 240.251 85.744C241.562 86.2416 243.083 85.7063 243.647 84.5492C244.211 83.3922 243.609 82.0511 242.298 81.5536Z" fill="#1B3F53"/>
<path d="M243.018 84.5836C243.521 83.5523 242.982 82.3593 241.813 81.9159C240.645 81.4724 239.403 81.9199 238.862 82.8673C238.41 83.9574 238.957 85.1683 240.135 85.6848C241.27 86.0462 242.541 85.5747 243.023 84.5854L243.018 84.5836Z" fill="#275772"/>
<path d="M233.72 99.1591C232.409 98.6616 230.887 99.1969 230.324 100.354C230.305 100.392 230.296 100.433 230.283 100.473C230.823 99.5252 232.113 99.0957 233.234 99.5211C234.355 99.9465 234.941 101.157 234.439 102.189C233.936 103.22 232.686 103.65 231.55 103.288C231.593 103.304 231.63 103.333 231.673 103.35C232.984 103.847 234.505 103.312 235.069 102.155C235.632 100.998 235.031 99.6566 233.72 99.1591Z" fill="#1B3F53"/>
<path d="M234.44 102.189C234.943 101.158 234.404 99.9648 233.235 99.5213C232.067 99.0779 230.824 99.5254 230.284 100.473C229.832 101.563 230.379 102.774 231.557 103.29C232.692 103.652 233.963 103.18 234.445 102.191L234.44 102.189Z" fill="#275772"/>
<path d="M225.143 116.772C223.832 116.275 222.31 116.81 221.746 117.967C221.728 118.005 221.719 118.046 221.705 118.086C222.246 117.138 223.536 116.709 224.657 117.134C225.778 117.56 226.364 118.771 225.862 119.802C225.359 120.833 224.109 121.263 222.973 120.902C223.016 120.918 223.053 120.947 223.095 120.963C224.406 121.46 225.928 120.925 226.492 119.768C227.055 118.611 226.454 117.27 225.143 116.772Z" fill="#1B3F53"/>
<path d="M225.863 119.8C226.365 118.769 225.827 117.576 224.658 117.133C223.49 116.689 222.247 117.137 221.707 118.084C221.255 119.174 221.802 120.385 222.979 120.902C224.115 121.263 225.386 120.792 225.868 119.802L225.863 119.8Z" fill="#275772"/>
<path d="M243.234 92.3407C241.923 91.8432 240.402 92.3785 239.838 93.5356C239.82 93.5733 239.811 93.6146 239.797 93.6542C240.338 92.7068 241.627 92.2773 242.748 92.7027C243.869 93.1281 244.456 94.3391 243.953 95.3704C243.451 96.4017 242.2 96.8312 241.065 96.4699C241.108 96.4861 241.144 96.5149 241.187 96.5312C242.498 97.0287 244.02 96.4934 244.583 95.3363C245.147 94.1793 244.545 92.8382 243.234 92.3407Z" fill="#1B3F53"/>
<path d="M243.955 95.3707C244.457 94.3394 243.918 93.1464 242.75 92.703C241.581 92.2596 240.339 92.707 239.799 93.6544C239.346 94.7445 239.893 95.9554 241.071 96.472C242.207 96.8333 243.477 96.3618 243.96 95.3725L243.955 95.3707Z" fill="#275772"/>
<path d="M234.656 109.948C233.345 109.451 231.824 109.986 231.26 111.143C231.242 111.181 231.233 111.222 231.219 111.262C231.759 110.314 233.049 109.885 234.17 110.31C235.291 110.736 235.878 111.947 235.375 112.978C234.873 114.009 233.622 114.439 232.487 114.077C232.53 114.094 232.566 114.122 232.609 114.139C233.92 114.636 235.442 114.101 236.005 112.944C236.569 111.787 235.967 110.446 234.656 109.948Z" fill="#1B3F53"/>
<path d="M235.377 112.976C235.879 111.945 235.34 110.752 234.172 110.308C233.003 109.865 231.761 110.313 231.221 111.26C230.768 112.35 231.315 113.561 232.493 114.077C233.628 114.439 234.899 113.967 235.381 112.978L235.377 112.976Z" fill="#275772"/>
<path d="M254.635 96.6689C253.324 96.1714 251.802 96.7066 251.239 97.8637C251.22 97.9014 251.211 97.9428 251.198 97.9823C251.738 97.0349 253.028 96.6055 254.149 97.0309C255.27 97.4563 255.856 98.6673 255.354 99.6985C254.851 100.73 253.601 101.159 252.465 100.798C252.508 100.814 252.545 100.843 252.588 100.859C253.899 101.357 255.42 100.822 255.984 99.6645C256.547 98.5074 255.946 97.1664 254.635 96.6689Z" fill="#1B3F53"/>
<path d="M255.355 99.6988C255.858 98.6675 255.319 97.4745 254.15 97.0311C252.982 96.5877 251.739 97.0352 251.199 97.9825C250.747 99.0726 251.294 100.284 252.472 100.8C253.607 101.161 254.878 100.69 255.36 99.7006L255.355 99.6988Z" fill="#275772"/>
<path d="M246.057 114.278C244.746 113.781 243.224 114.316 242.66 115.473C242.642 115.511 242.633 115.552 242.62 115.592C243.16 114.644 244.45 114.215 245.571 114.64C246.692 115.066 247.278 116.277 246.776 117.308C246.273 118.339 245.023 118.769 243.887 118.407C243.93 118.424 243.967 118.452 244.009 118.469C245.32 118.966 246.842 118.431 247.406 117.274C247.969 116.117 247.368 114.776 246.057 114.278Z" fill="#1B3F53"/>
<path d="M246.777 117.306C247.279 116.275 246.741 115.082 245.572 114.639C244.404 114.195 243.161 114.643 242.621 115.59C242.169 116.68 242.716 117.891 243.894 118.408C245.029 118.769 246.3 118.297 246.782 117.308L246.777 117.306Z" fill="#275772"/>
<path d="M253.698 85.8818C252.387 85.3842 250.866 85.9195 250.302 87.0766C250.284 87.1143 250.275 87.1556 250.261 87.1952C250.801 86.2478 252.091 85.8183 253.212 86.2438C254.333 86.6692 254.92 87.8802 254.417 88.9114C253.915 89.9427 252.664 90.3722 251.529 90.0109C251.572 90.0271 251.608 90.0559 251.651 90.0722C252.962 90.5697 254.484 90.0344 255.047 88.8773C255.611 87.7203 255.009 86.3793 253.698 85.8818Z" fill="#1B3F53"/>
<path d="M254.419 88.9117C254.921 87.8804 254.382 86.6874 253.214 86.244C252.045 85.8006 250.803 86.2481 250.263 87.1954C249.81 88.2855 250.357 89.4964 251.535 90.013C252.67 90.3743 253.941 89.9028 254.423 88.9135L254.419 88.9117Z" fill="#275772"/>
<path d="M245.121 103.491C243.81 102.994 242.289 103.529 241.725 104.686C241.707 104.724 241.698 104.765 241.684 104.805C242.224 103.857 243.514 103.428 244.635 103.853C245.756 104.279 246.342 105.49 245.84 106.521C245.338 107.552 244.087 107.982 242.952 107.62C242.995 107.637 243.031 107.665 243.074 107.682C244.385 108.179 245.906 107.644 246.47 106.487C247.034 105.33 246.432 103.989 245.121 103.491Z" fill="#1B3F53"/>
<path d="M245.841 106.519C246.344 105.488 245.805 104.295 244.637 103.851C243.468 103.408 242.226 103.855 241.685 104.803C241.233 105.893 241.78 107.104 242.958 107.62C244.093 107.982 245.364 107.51 245.846 106.521L245.841 106.519Z" fill="#275772"/>
<path d="M236.543 121.097C235.232 120.599 233.71 121.134 233.147 122.291C233.128 122.329 233.12 122.37 233.106 122.41C233.646 121.463 234.936 121.033 236.057 121.459C237.178 121.884 237.764 123.095 237.262 124.126C236.759 125.158 235.509 125.587 234.374 125.226C234.416 125.242 234.453 125.271 234.496 125.287C235.807 125.785 237.328 125.249 237.892 124.092C238.456 122.935 237.854 121.594 236.543 121.097Z" fill="#1B3F53"/>
<path d="M237.263 124.125C237.766 123.093 237.227 121.9 236.058 121.457C234.89 121.013 233.648 121.461 233.107 122.408C232.655 123.498 233.202 124.709 234.38 125.226C235.515 125.587 236.786 125.116 237.268 124.126L237.263 124.125Z" fill="#275772"/>
<path d="M265.098 90.2079C263.787 89.7104 262.265 90.2457 261.701 91.4027C261.683 91.4405 261.674 91.4818 261.661 91.5213C262.201 90.574 263.491 90.1445 264.612 90.5699C265.733 90.9953 266.319 92.2063 265.817 93.2376C265.314 94.2689 264.064 94.6984 262.928 94.3371C262.971 94.3533 263.008 94.3821 263.05 94.3983C264.361 94.8958 265.883 94.3606 266.447 93.2035C267.01 92.0465 266.409 90.7054 265.098 90.2079Z" fill="#1B3F53"/>
<path d="M265.818 93.2379C266.32 92.2066 265.782 91.0136 264.613 90.5702C263.445 90.1267 262.202 90.5742 261.662 91.5216C261.21 92.6117 261.757 93.8226 262.935 94.3391C264.07 94.7004 265.341 94.229 265.823 93.2397L265.818 93.2379Z" fill="#275772"/>
<path d="M256.518 107.817C255.207 107.32 253.685 107.855 253.121 109.012C253.103 109.05 253.094 109.091 253.08 109.131C253.621 108.183 254.911 107.754 256.032 108.179C257.153 108.605 257.739 109.816 257.237 110.847C256.734 111.878 255.484 112.308 254.348 111.946C254.391 111.963 254.428 111.991 254.47 112.008C255.781 112.505 257.303 111.97 257.867 110.813C258.43 109.656 257.829 108.315 256.518 107.817Z" fill="#1B3F53"/>
<path d="M257.238 110.845C257.74 109.814 257.202 108.621 256.033 108.178C254.865 107.734 253.622 108.182 253.082 109.129C252.63 110.219 253.177 111.43 254.354 111.947C255.49 112.308 256.761 111.836 257.243 110.847L257.238 110.845Z" fill="#275772"/>
<path d="M247.941 125.425C246.63 124.927 245.109 125.462 244.545 126.62C244.527 126.657 244.518 126.699 244.504 126.738C245.045 125.791 246.334 125.361 247.455 125.787C248.576 126.212 249.163 127.423 248.66 128.454C248.158 129.486 246.907 129.915 245.772 129.554C245.815 129.57 245.851 129.599 245.894 129.615C247.205 130.113 248.727 129.577 249.29 128.42C249.854 127.263 249.252 125.922 247.941 125.425Z" fill="#1B3F53"/>
<path d="M248.662 128.453C249.164 127.421 248.625 126.228 247.457 125.785C246.288 125.342 245.046 125.789 244.506 126.736C244.053 127.826 244.6 129.037 245.778 129.554C246.914 129.915 248.185 129.444 248.667 128.455L248.662 128.453Z" fill="#275772"/>
</g>
<g clip-path="url(#clip0_567_20834)">
<path d="M277.421 101.685L279.158 101.828C279.291 101.84 279.373 101.954 279.325 102.065C278.987 102.903 278.154 106.047 283.465 108.411C283.567 108.453 283.611 108.567 283.551 108.651C282.737 109.796 278.118 116.917 286.569 118.537C286.685 118.56 286.776 118.651 286.77 118.758C286.707 119.659 286.684 123.67 291.101 124.858C291.193 124.882 291.236 124.974 291.187 125.043L289.752 127.062L283.007 127.426L276.805 121.088L274.243 117.268L273.279 109.263L274.043 104.78L276.168 102.022L277.428 101.675L277.421 101.685Z" fill="#123F52"/>
<path d="M265.956 97.8451C266.455 97.1443 267.321 96.7708 268.191 96.7852C268.27 95.962 267.852 95.125 267.002 94.6541C266.264 94.2453 265.378 94.2086 264.635 94.4853C264.807 94.5393 264.978 94.6063 265.146 94.6992C266.354 95.3683 266.724 96.7772 265.962 97.8482L265.956 97.8451Z" fill="#123F52"/>
<path d="M274.714 102.695C275.213 101.994 276.078 101.62 276.949 101.635C277.028 100.812 276.609 99.9746 275.759 99.5037C275.021 99.0949 274.135 99.0582 273.393 99.3349C273.565 99.3889 273.736 99.4559 273.903 99.5489C275.111 100.218 275.481 101.627 274.72 102.698L274.714 102.695Z" fill="#123F52"/>
<path d="M288.642 126.035L259.073 167.616C260.055 167.748 261.082 167.367 261.647 166.572L290.114 126.54C289.61 126.427 289.112 126.261 288.638 126.04L288.642 126.035Z" fill="#123F52"/>
<path d="M270.335 100.271C270.834 99.5701 271.699 99.1966 272.57 99.211C272.649 98.3878 272.231 97.5507 271.381 97.0799C270.642 96.671 269.756 96.6344 269.014 96.9111C269.186 96.9651 269.357 97.0321 269.525 97.125C270.732 97.7941 271.102 99.203 270.341 100.274L270.335 100.271Z" fill="#123F52"/>
<path d="M258.863 122.433C259.721 122.784 260.708 122.657 261.388 122.084C260.713 122.639 259.717 122.789 258.863 122.433Z" fill="#2E91BC"/>
<path d="M259.816 111.642C260.673 111.993 261.651 111.868 262.328 111.3C261.65 111.847 260.667 111.99 259.816 111.642Z" fill="#2E91BC"/>
<path d="M269.371 128.253C270.228 128.604 271.212 128.481 271.892 127.908C271.22 128.458 270.219 128.605 269.371 128.253Z" fill="#2E91BC"/>
<path d="M247.314 138.661C248.177 139.015 249.164 138.888 249.847 138.31C249.172 138.865 248.171 139.012 247.314 138.661Z" fill="#2E91BC"/>
<path d="M258.791 133.701C259.643 134.049 260.621 133.923 261.303 133.358C260.631 133.908 259.643 134.049 258.791 133.701Z" fill="#2E91BC"/>
<path d="M257.827 144.484C258.681 144.84 259.674 144.716 260.357 144.138C259.682 144.693 258.685 144.835 257.827 144.484Z" fill="#2E91BC"/>
<path d="M270.329 117.466C271.187 117.817 272.165 117.692 272.841 117.124C272.164 117.671 271.181 117.814 270.329 117.466Z" fill="#2E91BC"/>
<path d="M247.24 149.935C248.097 150.286 249.075 150.161 249.751 149.593C249.074 150.14 248.091 150.283 247.24 149.935Z" fill="#2E91BC"/>
<path d="M248.279 127.88C249.13 128.228 250.108 128.103 250.79 127.538C250.119 128.088 249.13 128.228 248.279 127.88Z" fill="#2E91BC"/>
<path d="M236.726 144.115C237.583 144.466 238.561 144.34 239.238 143.772C238.56 144.319 237.578 144.463 236.726 144.115Z" fill="#2E91BC"/>
<path d="M269.299 139.524C270.157 139.875 271.144 139.748 271.827 139.17C271.152 139.725 270.157 139.875 269.299 139.524Z" fill="#2E91BC"/>
<path d="M257.747 155.758C258.61 156.112 259.597 155.984 260.277 155.411C259.602 155.966 258.601 156.113 257.747 155.758Z" fill="#2E91BC"/>
<path d="M288.22 125.828C286.022 124.611 284.932 122.439 285.194 120.306C285.216 120.133 285.078 119.988 284.883 119.976C284.624 119.956 284.367 119.924 284.111 119.878C284.848 120.617 284.994 121.716 284.369 122.595C283.611 123.661 282.015 123.987 280.801 123.315C280.762 123.294 280.73 123.262 280.691 123.24C279.617 122.57 279.288 121.3 279.925 120.284C279.949 120.25 279.963 120.209 279.987 120.174C280.422 119.562 281.138 119.202 281.9 119.129C281.894 119.126 281.883 119.119 281.878 119.116C278.819 117.422 277.896 113.863 279.816 111.164C280.328 110.443 280.914 109.784 281.653 109.326C281.768 109.252 281.741 109.093 281.604 109.065C281.006 108.954 280.459 108.802 279.883 108.483C277.372 107.092 276.37 104.391 277.283 102.021C277.322 101.912 277.375 101.804 277.423 101.693C277.268 101.669 277.11 101.65 276.956 101.647C276.077 101.635 275.22 102.006 274.722 102.707C275.48 101.641 275.119 100.231 273.905 99.5584C273.743 99.4685 273.572 99.4015 273.395 99.3444C273.128 99.2587 272.851 99.2218 272.572 99.2189C271.692 99.2063 270.836 99.578 270.337 100.279C271.095 99.2128 270.734 97.802 269.521 97.1299C269.359 97.04 269.188 96.973 269.011 96.9159C268.744 96.8303 268.466 96.7933 268.188 96.7904C267.308 96.7778 266.451 97.1495 265.953 97.8503C266.711 96.7843 266.35 95.3736 265.137 94.7014C264.975 94.6116 264.804 94.5446 264.626 94.4874C263.514 94.1329 262.234 94.4971 261.578 95.42L224 148.264C223.256 149.311 223.478 150.741 224.619 151.449C225.841 152.208 227.519 151.899 228.301 150.798C227.543 151.865 227.904 153.275 229.118 153.947C230.331 154.62 231.924 154.298 232.685 153.227C231.927 154.293 232.288 155.704 233.502 156.376C234.715 157.048 236.308 156.726 237.07 155.655C236.312 156.722 236.673 158.132 237.886 158.804C239.1 159.477 240.692 159.155 241.454 158.084C240.696 159.15 241.057 160.561 242.27 161.233C243.484 161.905 245.077 161.583 245.838 160.512C245.08 161.578 245.441 162.989 246.655 163.661C247.868 164.334 249.461 164.012 250.222 162.941C249.464 164.007 249.825 165.418 251.039 166.09C252.252 166.762 253.845 166.44 254.607 165.369C253.824 166.47 254.238 167.938 255.544 168.578C256.768 169.181 258.324 168.736 259.068 167.689L259.107 167.635L288.676 126.053C288.535 125.989 288.393 125.924 288.254 125.847L288.22 125.828ZM226.613 147.166L226.679 147.073C226.181 147.773 226.104 148.66 226.482 149.378C226.103 148.694 226.118 147.862 226.613 147.166ZM227.429 150.315C227.334 150.263 227.249 150.195 227.167 150.136C227.268 150.212 227.379 150.287 227.488 150.341C227.471 150.332 227.455 150.323 227.432 150.31L227.429 150.315ZM247.37 124.871C247.394 124.837 247.407 124.796 247.432 124.762C248.295 123.547 250.242 123.298 251.47 124.377C252.146 124.972 252.389 125.891 252.079 126.689C251.513 128.143 249.624 128.673 248.243 127.907C248.204 127.886 248.172 127.854 248.132 127.833C247.058 127.162 246.729 125.893 247.366 124.876L247.37 124.871ZM236.694 144.137C236.655 144.116 236.623 144.084 236.583 144.062C235.509 143.392 235.18 142.122 235.817 141.106C235.842 141.072 235.855 141.031 235.88 140.996C236.743 139.782 238.69 139.533 239.918 140.612C240.594 141.207 240.837 142.126 240.527 142.924C239.96 144.378 238.072 144.907 236.69 144.142L236.694 144.137ZM259.781 111.671C259.741 111.65 259.709 111.618 259.67 111.597C258.596 110.926 258.267 109.657 258.904 108.64C258.928 108.606 258.942 108.565 258.966 108.531C259.83 107.316 261.776 107.067 262.999 108.143C263.675 108.738 263.918 109.657 263.608 110.455C263.041 111.909 261.153 112.438 259.771 111.673L259.781 111.671ZM247.279 138.69C247.239 138.669 247.207 138.637 247.168 138.615C246.094 137.945 245.765 136.675 246.402 135.659C246.426 135.625 246.44 135.584 246.464 135.549C247.328 134.335 249.275 134.086 250.497 135.162C251.173 135.757 251.416 136.675 251.106 137.474C250.539 138.928 248.651 139.457 247.27 138.692L247.279 138.69ZM258.822 122.457C258.783 122.436 258.751 122.404 258.712 122.382C257.637 121.712 257.308 120.443 257.945 119.426C257.97 119.392 257.983 119.351 258.008 119.316C258.871 118.102 260.818 117.853 262.04 118.929C262.717 119.524 262.959 120.443 262.649 121.241C262.083 122.695 260.194 123.224 258.813 122.459L258.822 122.457ZM257.874 130.697C257.898 130.662 257.912 130.621 257.936 130.587C258.8 129.373 260.746 129.123 261.974 130.203C262.651 130.797 262.894 131.716 262.583 132.514C262.017 133.969 260.128 134.498 258.747 133.733C258.708 133.711 258.676 133.679 258.637 133.658C257.562 132.987 257.233 131.718 257.87 130.702L257.874 130.697ZM247.198 149.962C247.159 149.941 247.127 149.909 247.088 149.888C246.013 149.217 245.684 147.948 246.321 146.931C246.346 146.897 246.359 146.856 246.384 146.822C247.247 145.607 249.194 145.358 250.422 146.437C251.098 147.032 251.341 147.951 251.031 148.749C250.464 150.203 248.576 150.733 247.195 149.967L247.198 149.962ZM270.285 117.497C270.246 117.475 270.213 117.443 270.174 117.422C269.1 116.751 268.771 115.482 269.408 114.466C269.432 114.431 269.446 114.39 269.47 114.356C270.334 113.142 272.281 112.892 273.503 113.968C274.179 114.563 274.422 115.482 274.112 116.28C273.545 117.734 271.657 118.264 270.276 117.499L270.285 117.497ZM257.783 144.516C257.744 144.494 257.712 144.462 257.672 144.441C256.598 143.77 256.269 142.501 256.906 141.484C256.931 141.45 256.944 141.409 256.969 141.375C257.832 140.16 259.779 139.911 261.001 140.987C261.677 141.582 261.92 142.501 261.61 143.299C261.044 144.753 259.155 145.282 257.774 144.517L257.783 144.516ZM269.326 128.283C269.287 128.261 269.255 128.229 269.216 128.208C268.141 127.537 267.812 126.268 268.449 125.252C268.474 125.217 268.487 125.176 268.512 125.142C269.375 123.928 271.322 123.678 272.544 124.754C273.221 125.349 273.464 126.268 273.153 127.066C272.587 128.52 270.698 129.05 269.317 128.284L269.326 128.283ZM272.473 136.025C273.149 136.619 273.392 137.538 273.082 138.336C272.515 139.791 270.627 140.32 269.246 139.555C269.206 139.533 269.174 139.502 269.135 139.48C268.061 138.809 267.732 137.54 268.369 136.524C268.393 136.489 268.407 136.448 268.431 136.414C269.295 135.2 271.241 134.95 272.469 136.03L272.473 136.025ZM257.702 155.788C257.663 155.766 257.631 155.735 257.592 155.713C256.518 155.042 256.189 153.773 256.825 152.757C256.85 152.722 256.863 152.681 256.888 152.647C257.751 151.433 259.698 151.183 260.926 152.263C261.602 152.857 261.845 153.776 261.535 154.574C260.969 156.028 259.08 156.558 257.699 155.793L257.702 155.788Z" fill="#2E91BC"/>
<path d="M280.837 123.285C281.7 123.639 282.687 123.512 283.367 122.939C282.692 123.494 281.691 123.641 280.837 123.285Z" fill="#2E91BC"/>
<path d="M262.537 107.805C261.329 107.136 259.731 107.455 258.969 108.526C258.945 108.56 258.931 108.601 258.907 108.635C259.607 107.771 260.916 107.499 261.989 108.093C263.063 108.688 263.388 109.941 262.714 110.889C262.602 111.047 262.463 111.176 262.316 111.295C261.634 111.859 260.656 111.985 259.805 111.637C259.76 111.612 259.71 111.605 259.668 111.589C259.707 111.61 259.739 111.642 259.778 111.663C260.986 112.332 262.584 112.014 263.346 110.943C264.108 109.872 263.743 108.466 262.535 107.797L262.537 107.805Z" fill="#123F52"/>
<path d="M262.333 111.303C262.474 111.182 262.613 111.053 262.725 110.895C263.402 109.942 263.029 108.669 262 108.099C260.971 107.529 259.618 107.777 258.918 108.641C258.281 109.657 258.61 110.927 259.684 111.597C259.729 111.622 259.779 111.629 259.823 111.654C260.675 112.002 261.663 111.861 262.335 111.312L262.333 111.303Z" fill="#1A5771"/>
<path d="M259.815 111.642C259.771 111.617 259.722 111.61 259.678 111.586C259.722 111.61 259.771 111.617 259.813 111.634L259.815 111.642Z" fill="#1A5771"/>
<path d="M261.995 108.096C263.029 108.669 263.393 109.944 262.719 110.892C262.607 111.049 262.474 111.182 262.327 111.3C262.474 111.182 262.613 111.053 262.725 110.895C263.402 109.942 263.074 108.694 262 108.099C260.927 107.504 259.618 107.777 258.918 108.641C259.618 107.777 260.966 107.526 262 108.099L261.995 108.096Z" fill="#1A5771"/>
<path d="M250.994 124.037C249.786 123.368 248.187 123.686 247.426 124.757C247.401 124.792 247.388 124.832 247.363 124.867C248.064 124.003 249.372 123.73 250.446 124.325C251.52 124.92 251.844 126.173 251.171 127.12C251.058 127.278 250.923 127.403 250.782 127.524C250.1 128.089 249.127 128.218 248.27 127.867C248.222 127.847 248.176 127.835 248.128 127.815C248.167 127.837 248.199 127.868 248.238 127.89C249.446 128.559 251.044 128.241 251.806 127.17C252.567 126.099 252.203 124.693 250.995 124.024L250.994 124.037Z" fill="#123F52"/>
<path d="M250.79 127.537C250.931 127.415 251.069 127.286 251.178 127.133C251.856 126.18 251.482 124.907 250.453 124.337C249.424 123.767 248.071 124.015 247.371 124.88C246.734 125.896 247.063 127.165 248.137 127.836C248.182 127.86 248.237 127.87 248.285 127.89C249.137 128.238 250.12 128.095 250.797 127.548L250.79 127.537Z" fill="#1A5771"/>
<path d="M248.277 127.878C248.23 127.859 248.184 127.847 248.131 127.824C248.175 127.849 248.224 127.856 248.272 127.875L248.277 127.878Z" fill="#1A5771"/>
<path d="M250.451 124.33C251.486 124.903 251.85 126.177 251.176 127.125C251.064 127.283 250.931 127.416 250.788 127.529C250.934 127.411 251.067 127.278 251.176 127.125C251.854 126.173 251.525 124.924 250.451 124.33C249.378 123.735 248.069 124.008 247.369 124.872C248.069 124.008 249.417 123.757 250.451 124.33Z" fill="#1A5771"/>
<path d="M239.45 140.27C238.242 139.601 236.644 139.919 235.882 140.99C235.858 141.025 235.844 141.066 235.82 141.1C236.52 140.236 237.829 139.963 238.902 140.558C239.976 141.153 240.301 142.406 239.627 143.354C239.515 143.512 239.376 143.641 239.229 143.759C238.547 144.324 237.569 144.45 236.718 144.102C236.673 144.077 236.623 144.07 236.581 144.053C236.62 144.075 236.652 144.107 236.691 144.128C237.899 144.797 239.497 144.479 240.259 143.408C241.021 142.337 240.656 140.931 239.448 140.262L239.45 140.27Z" fill="#123F52"/>
<path d="M239.243 143.772C239.384 143.651 239.523 143.521 239.635 143.363C240.313 142.411 239.939 141.138 238.91 140.568C237.882 139.998 236.528 140.246 235.828 141.11C235.191 142.126 235.52 143.395 236.594 144.066C236.639 144.091 236.689 144.098 236.733 144.123C237.585 144.471 238.574 144.33 239.245 143.78L239.243 143.772Z" fill="#1A5771"/>
<path d="M236.724 144.114C236.68 144.09 236.631 144.083 236.587 144.059C236.631 144.083 236.68 144.09 236.722 144.107L236.724 144.114Z" fill="#1A5771"/>
<path d="M238.905 140.565C239.939 141.138 240.303 142.413 239.63 143.36C239.517 143.518 239.384 143.651 239.238 143.769C239.384 143.651 239.523 143.521 239.635 143.363C240.313 142.411 239.984 141.163 238.91 140.568C237.837 139.973 236.528 140.246 235.828 141.11C236.528 140.246 237.876 139.995 238.91 140.568L238.905 140.565Z" fill="#1A5771"/>
<path d="M261.588 118.587C260.381 117.918 258.782 118.237 258.021 119.308C257.996 119.342 257.983 119.383 257.958 119.418C258.658 118.554 259.967 118.281 261.041 118.876C262.114 119.47 262.437 120.715 261.772 121.661L261.765 121.671C261.656 121.824 261.527 121.952 261.384 122.065C260.7 122.643 259.713 122.77 258.859 122.414C258.815 122.389 258.765 122.383 258.722 122.366C258.761 122.388 258.794 122.419 258.833 122.441C260.041 123.11 261.639 122.791 262.401 121.72C263.162 120.649 262.798 119.243 261.59 118.574L261.588 118.587Z" fill="#123F52"/>
<path d="M261.391 122.077C261.528 121.96 261.658 121.833 261.767 121.68L261.774 121.67C262.439 120.724 262.071 119.454 261.042 118.884C260.013 118.314 258.66 118.562 257.96 119.426C257.323 120.443 257.652 121.712 258.726 122.383C258.771 122.407 258.821 122.414 258.865 122.439C259.723 122.79 260.715 122.645 261.39 122.09L261.391 122.077Z" fill="#1A5771"/>
<path d="M261.391 122.079C261.534 121.965 261.664 121.838 261.773 121.685C261.664 121.838 261.534 121.965 261.397 122.082L261.391 122.079Z" fill="#1A5771"/>
<path d="M261.036 118.88C262.065 119.45 262.433 120.72 261.768 121.666C262.433 120.72 262.11 119.475 261.036 118.88C259.963 118.286 258.654 118.558 257.954 119.423C258.654 118.558 260.002 118.307 261.036 118.88Z" fill="#1A5771"/>
<path d="M258.862 122.431C258.818 122.406 258.769 122.4 258.724 122.375C258.769 122.4 258.818 122.406 258.86 122.423L258.862 122.431Z" fill="#1A5771"/>
<path d="M250.042 134.826C248.834 134.157 247.235 134.475 246.474 135.546C246.449 135.581 246.436 135.621 246.411 135.656C247.111 134.792 248.42 134.519 249.494 135.114C250.567 135.709 250.89 136.954 250.225 137.899C250.225 137.899 250.222 137.904 250.218 137.909C250.113 138.057 249.983 138.185 249.837 138.303C249.153 138.881 248.163 139.013 247.303 138.654C247.264 138.633 247.215 138.626 247.17 138.601C247.209 138.623 247.241 138.654 247.28 138.676C248.488 139.345 250.087 139.026 250.848 137.955C251.61 136.884 251.245 135.479 250.037 134.81L250.042 134.826Z" fill="#123F52"/>
<path d="M249.848 138.311C249.986 138.195 250.115 138.067 250.224 137.914C250.224 137.914 250.228 137.909 250.231 137.904C250.899 136.954 250.528 135.689 249.499 135.119C248.47 134.549 247.117 134.797 246.417 135.661C245.78 136.677 246.109 137.946 247.183 138.617C247.228 138.642 247.274 138.654 247.317 138.67C248.174 139.021 249.175 138.874 249.85 138.319L249.848 138.311Z" fill="#1A5771"/>
<path d="M247.313 138.661C247.269 138.637 247.22 138.63 247.181 138.608C247.225 138.633 247.274 138.64 247.313 138.661Z" fill="#1A5771"/>
<path d="M249.493 135.115C250.522 135.685 250.89 136.955 250.225 137.9C250.893 136.95 250.567 135.709 249.493 135.115C248.42 134.52 247.111 134.793 246.411 135.657C247.111 134.793 248.459 134.542 249.493 135.115Z" fill="#1A5771"/>
<path d="M249.847 138.309C249.985 138.193 250.12 138.068 250.229 137.915C250.12 138.068 249.99 138.196 249.853 138.312L249.847 138.309Z" fill="#1A5771"/>
<path d="M272.096 124.409C270.888 123.74 269.289 124.058 268.528 125.129C268.503 125.164 268.49 125.205 268.465 125.239C269.165 124.375 270.474 124.102 271.548 124.697C272.621 125.292 272.944 126.537 272.279 127.483L272.272 127.492C272.164 127.645 272.03 127.778 271.887 127.891C271.207 128.464 270.22 128.592 269.367 128.236C269.327 128.214 269.272 128.204 269.233 128.182C269.272 128.204 269.304 128.235 269.343 128.257C270.551 128.926 272.15 128.608 272.911 127.537C273.673 126.466 273.309 125.06 272.101 124.391L272.096 124.409Z" fill="#123F52"/>
<path d="M271.895 127.902C272.033 127.786 272.166 127.653 272.275 127.5L272.282 127.49C272.947 126.544 272.579 125.275 271.55 124.705C270.521 124.135 269.168 124.383 268.468 125.247C267.831 126.263 268.16 127.532 269.234 128.203C269.279 128.228 269.325 128.239 269.373 128.259C270.23 128.61 271.222 128.465 271.894 127.915L271.895 127.902Z" fill="#1A5771"/>
<path d="M271.895 127.904C272.041 127.786 272.171 127.658 272.28 127.505C272.171 127.658 272.038 127.791 271.9 127.907L271.895 127.904Z" fill="#1A5771"/>
<path d="M271.55 124.705C272.579 125.275 272.947 126.544 272.282 127.49C272.947 126.544 272.624 125.299 271.55 124.705C270.476 124.11 269.168 124.383 268.468 125.247C269.168 124.383 270.516 124.132 271.55 124.705Z" fill="#1A5771"/>
<path d="M269.37 128.25C269.325 128.226 269.276 128.219 269.232 128.194C269.276 128.219 269.325 128.226 269.364 128.247L269.37 128.25Z" fill="#1A5771"/>
<path d="M260.548 140.646C259.34 139.977 257.742 140.295 256.98 141.366C256.956 141.401 256.943 141.442 256.918 141.476C257.618 140.612 258.927 140.339 260.001 140.934C261.074 141.529 261.397 142.774 260.732 143.72C260.732 143.72 260.729 143.725 260.725 143.73C260.616 143.883 260.487 144.01 260.34 144.129C259.657 144.706 258.673 144.829 257.81 144.475C257.771 144.453 257.721 144.446 257.677 144.421C257.716 144.443 257.748 144.475 257.787 144.496C258.995 145.165 260.593 144.847 261.355 143.776C262.117 142.705 261.752 141.299 260.544 140.63L260.548 140.646Z" fill="#123F52"/>
<path d="M260.351 144.137C260.489 144.02 260.622 143.887 260.731 143.734C260.731 143.734 260.734 143.73 260.738 143.725C261.406 142.774 261.035 141.509 260.006 140.939C258.977 140.369 257.624 140.617 256.924 141.481C256.287 142.497 256.616 143.767 257.69 144.437C257.735 144.462 257.781 144.474 257.824 144.491C258.681 144.842 259.678 144.699 260.353 144.145L260.351 144.137Z" fill="#1A5771"/>
<path d="M260.006 140.939C261.035 141.509 261.403 142.779 260.738 143.725C261.406 142.774 261.08 141.534 260.006 140.939C258.932 140.344 257.624 140.617 256.924 141.481C257.624 140.617 258.972 140.366 260.006 140.939Z" fill="#1A5771"/>
<path d="M260.352 144.135C260.495 144.021 260.628 143.889 260.737 143.736C260.628 143.889 260.495 144.021 260.357 144.138L260.352 144.135Z" fill="#1A5771"/>
<path d="M257.826 144.485C257.787 144.464 257.732 144.454 257.694 144.433C257.732 144.454 257.782 144.461 257.826 144.485Z" fill="#1A5771"/>
<path d="M273.051 113.627C271.843 112.958 270.245 113.277 269.483 114.348C269.458 114.382 269.445 114.423 269.42 114.458C270.121 113.594 271.429 113.321 272.503 113.916C273.577 114.51 273.902 115.763 273.228 116.711C273.115 116.869 272.977 116.998 272.83 117.117C272.148 117.681 271.17 117.807 270.318 117.459C270.274 117.434 270.224 117.428 270.181 117.411C270.22 117.432 270.253 117.464 270.292 117.486C271.5 118.155 273.098 117.836 273.86 116.765C274.621 115.694 274.257 114.288 273.049 113.619L273.051 113.627Z" fill="#123F52"/>
<path d="M272.841 117.124C272.982 117.002 273.121 116.873 273.233 116.715C273.91 115.762 273.537 114.489 272.508 113.919C271.479 113.349 270.126 113.597 269.426 114.462C268.789 115.478 269.118 116.747 270.192 117.418C270.237 117.443 270.286 117.449 270.331 117.474C271.183 117.822 272.171 117.682 272.843 117.132L272.841 117.124Z" fill="#1A5771"/>
<path d="M270.328 117.466C270.284 117.442 270.234 117.435 270.19 117.41C270.234 117.435 270.284 117.442 270.326 117.458L270.328 117.466Z" fill="#1A5771"/>
<path d="M272.508 113.92C273.543 114.493 273.907 115.768 273.233 116.716C273.121 116.874 272.988 117.006 272.841 117.125C272.988 117.006 273.126 116.877 273.239 116.719C273.916 115.766 273.588 114.518 272.514 113.923C271.44 113.329 270.132 113.601 269.431 114.465C270.132 113.601 271.479 113.35 272.514 113.923L272.508 113.92Z" fill="#1A5771"/>
<path d="M261.507 129.861C260.299 129.192 258.701 129.51 257.939 130.581C257.915 130.616 257.902 130.657 257.877 130.691C258.577 129.827 259.886 129.554 260.959 130.149C262.033 130.744 262.358 131.997 261.684 132.944C261.572 133.102 261.437 133.227 261.296 133.348C260.613 133.913 259.641 134.042 258.784 133.691C258.736 133.671 258.689 133.659 258.641 133.639C258.68 133.661 258.712 133.693 258.752 133.714C259.96 134.383 261.558 134.065 262.32 132.994C263.081 131.923 262.717 130.517 261.509 129.848L261.507 129.861Z" fill="#123F52"/>
<path d="M261.297 133.357C261.438 133.236 261.577 133.106 261.686 132.953C262.363 132.001 261.99 130.728 260.961 130.158C259.932 129.588 258.579 129.836 257.879 130.7C257.242 131.716 257.571 132.985 258.645 133.656C258.69 133.681 258.745 133.691 258.793 133.711C259.645 134.059 260.628 133.915 261.305 133.368L261.297 133.357Z" fill="#1A5771"/>
<path d="M258.79 133.702C258.742 133.683 258.697 133.671 258.643 133.648C258.688 133.673 258.737 133.68 258.785 133.699L258.79 133.702Z" fill="#1A5771"/>
<path d="M260.965 130.154C262 130.727 262.364 132.002 261.69 132.949C261.578 133.107 261.444 133.24 261.301 133.353C261.448 133.235 261.581 133.102 261.69 132.949C262.367 131.997 262.039 130.749 260.965 130.154C259.891 129.559 258.583 129.832 257.883 130.696C258.583 129.832 259.931 129.581 260.965 130.154Z" fill="#1A5771"/>
<path d="M249.964 146.094C248.756 145.425 247.158 145.744 246.396 146.815C246.372 146.849 246.358 146.89 246.334 146.924C247.034 146.06 248.342 145.788 249.416 146.382C250.49 146.977 250.815 148.23 250.141 149.178C250.029 149.336 249.89 149.465 249.743 149.584C249.061 150.148 248.083 150.274 247.231 149.926C247.187 149.901 247.137 149.894 247.094 149.878C247.133 149.899 247.166 149.931 247.205 149.952C248.413 150.622 250.011 150.303 250.773 149.232C251.534 148.161 251.17 146.755 249.962 146.086L249.964 146.094Z" fill="#123F52"/>
<path d="M249.751 149.593C249.892 149.471 250.031 149.342 250.143 149.184C250.82 148.231 250.447 146.958 249.418 146.388C248.389 145.818 247.036 146.066 246.336 146.93C245.699 147.947 246.028 149.216 247.102 149.886C247.147 149.911 247.196 149.918 247.241 149.943C248.093 150.291 249.081 150.15 249.753 149.601L249.751 149.593Z" fill="#1A5771"/>
<path d="M247.238 149.935C247.194 149.91 247.145 149.903 247.1 149.879C247.145 149.903 247.194 149.91 247.236 149.927L247.238 149.935Z" fill="#1A5771"/>
<path d="M249.419 146.389C250.453 146.962 250.817 148.237 250.143 149.184C250.031 149.342 249.898 149.475 249.751 149.593C249.898 149.475 250.037 149.346 250.149 149.188C250.826 148.235 250.498 146.987 249.424 146.392C248.35 145.797 247.042 146.07 246.342 146.934C247.042 146.07 248.39 145.819 249.424 146.392L249.419 146.389Z" fill="#1A5771"/>
<path d="M279.996 120.172C279.971 120.207 279.958 120.248 279.933 120.282C280.634 119.418 281.942 119.145 283.016 119.74C284.09 120.335 284.418 121.583 283.744 122.531C283.744 122.531 283.744 122.531 283.741 122.536C283.632 122.689 283.502 122.816 283.359 122.93C282.676 123.507 281.688 123.635 280.829 123.276C280.79 123.254 280.74 123.247 280.696 123.222C280.735 123.244 280.767 123.276 280.806 123.297C282.014 123.966 283.612 123.648 284.374 122.577C284.999 121.698 284.853 120.599 284.115 119.86C283.355 119.735 282.607 119.493 281.914 119.109C281.152 119.182 280.44 119.538 280.001 120.154L279.996 120.172Z" fill="#123F52"/>
<path d="M283.362 122.936C283.499 122.82 283.629 122.692 283.738 122.539C283.738 122.539 283.738 122.539 283.741 122.534C284.415 121.587 284.042 120.314 283.013 119.744C281.984 119.174 280.631 119.422 279.93 120.286C279.294 121.302 279.623 122.571 280.697 123.242C280.742 123.267 280.788 123.279 280.83 123.295C281.688 123.646 282.685 123.504 283.36 122.949L283.362 122.936Z" fill="#1A5771"/>
<path d="M280.836 123.286C280.791 123.262 280.742 123.255 280.703 123.233C280.748 123.258 280.797 123.265 280.836 123.286Z" fill="#1A5771"/>
<path d="M283.016 119.74C284.045 120.31 284.418 121.583 283.744 122.53C284.418 121.583 284.09 120.334 283.016 119.74C281.942 119.145 280.634 119.418 279.933 120.282C280.634 119.418 281.981 119.167 283.016 119.74Z" fill="#1A5771"/>
<path d="M283.361 122.938C283.504 122.825 283.637 122.692 283.743 122.544C283.634 122.697 283.504 122.825 283.367 122.941L283.361 122.938Z" fill="#1A5771"/>
<path d="M272.015 135.68C270.807 135.011 269.208 135.33 268.447 136.401C268.422 136.435 268.409 136.476 268.384 136.51C269.085 135.646 270.393 135.374 271.467 135.968C272.541 136.563 272.869 137.811 272.195 138.759C272.195 138.759 272.195 138.759 272.192 138.764C272.083 138.917 271.953 139.044 271.81 139.158C271.126 139.735 270.139 139.863 269.282 139.512C269.237 139.487 269.188 139.48 269.14 139.46C269.179 139.482 269.211 139.514 269.25 139.535C270.458 140.204 272.056 139.886 272.818 138.815C273.579 137.744 273.215 136.338 272.007 135.669L272.015 135.68Z" fill="#123F52"/>
<path d="M271.824 139.175C271.961 139.058 272.091 138.93 272.2 138.777C272.2 138.777 272.2 138.777 272.203 138.772C272.877 137.825 272.504 136.552 271.475 135.982C270.446 135.412 269.093 135.66 268.392 136.524C267.755 137.54 268.084 138.81 269.159 139.48C269.203 139.505 269.253 139.512 269.301 139.532C270.159 139.883 271.154 139.732 271.829 139.178L271.824 139.175Z" fill="#1A5771"/>
<path d="M269.298 139.52C269.254 139.495 269.205 139.488 269.157 139.469C269.201 139.493 269.25 139.5 269.298 139.52Z" fill="#1A5771"/>
<path d="M271.473 135.974C272.502 136.544 272.875 137.817 272.201 138.765C272.875 137.817 272.547 136.569 271.473 135.974C270.399 135.379 269.091 135.652 268.39 136.516C269.091 135.652 270.438 135.401 271.473 135.974Z" fill="#1A5771"/>
<path d="M271.824 139.173C271.961 139.056 272.097 138.932 272.206 138.779C272.097 138.932 271.967 139.059 271.83 139.176L271.824 139.173Z" fill="#1A5771"/>
<path d="M260.472 151.913C259.264 151.244 257.665 151.562 256.904 152.633C256.879 152.668 256.866 152.708 256.841 152.743C257.541 151.879 258.85 151.606 259.924 152.201C260.997 152.796 261.326 154.044 260.652 154.991C260.652 154.991 260.652 154.991 260.648 154.996C260.54 155.149 260.41 155.277 260.267 155.39C259.583 155.968 258.596 156.095 257.737 155.736C257.698 155.715 257.648 155.708 257.603 155.683C257.643 155.705 257.675 155.736 257.714 155.758C258.922 156.427 260.52 156.109 261.282 155.038C262.043 153.966 261.679 152.561 260.471 151.892L260.472 151.913Z" fill="#123F52"/>
<path d="M260.275 155.401C260.412 155.285 260.542 155.157 260.651 155.004C260.651 155.004 260.651 155.004 260.654 154.999C261.328 154.051 260.955 152.778 259.926 152.208C258.897 151.639 257.544 151.886 256.844 152.751C256.207 153.767 256.536 155.036 257.61 155.707C257.655 155.732 257.701 155.743 257.743 155.76C258.601 156.111 259.598 155.969 260.273 155.414L260.275 155.401Z" fill="#1A5771"/>
<path d="M259.926 152.208C260.955 152.778 261.328 154.051 260.654 154.999C261.328 154.051 261 152.803 259.926 152.208C258.852 151.614 257.544 151.886 256.844 152.751C257.544 151.886 258.892 151.635 259.926 152.208Z" fill="#1A5771"/>
<path d="M257.746 155.755C257.702 155.73 257.652 155.724 257.614 155.702C257.658 155.727 257.707 155.733 257.746 155.755Z" fill="#1A5771"/>
<path d="M260.275 155.403C260.418 155.29 260.551 155.157 260.657 155.009C260.548 155.162 260.418 155.29 260.281 155.406L260.275 155.403Z" fill="#1A5771"/>
</g>
<defs>
<filter id="filter0_d_567_20834" x="211.059" y="67.7891" width="72.1162" height="79.8828" filterUnits="userSpaceOnUse" color-interpolation-filters="sRGB">
<feFlood flood-opacity="0" result="BackgroundImageFix"/>
<feColorMatrix in="SourceAlpha" type="matrix" values="0 0 0 0 0 0 0 0 0 0 0 0 0 0 0 0 0 0 127 0" result="hardAlpha"/>
<feOffset dx="4" dy="5"/>
<feComposite in2="hardAlpha" operator="out"/>
<feColorMatrix type="matrix" values="0 0 0 0 0 0 0 0 0 0 0 0 0 0 0 0 0 0 0.25 0"/>
<feBlend mode="normal" in2="BackgroundImageFix" result="effect1_dropShadow_567_20834"/>
<feBlend mode="normal" in="SourceGraphic" in2="effect1_dropShadow_567_20834" result="shape"/>
</filter>
<clipPath id="clip0_567_20834">
<rect width="41.7402" height="70.3126" fill="white" transform="matrix(0.870841 0.482368 -0.582463 0.819092 263.501 92.7148)"/>
</clipPath>
</defs>
</svg>
