<svg width="37" height="41" viewBox="0 0 37 41" fill="none" xmlns="http://www.w3.org/2000/svg">
<path fill-rule="evenodd" clip-rule="evenodd" d="M23.6382 34.1965C23.7727 34 23.9739 33.8588 24.2026 33.7923C31.5538 31.6536 36.8965 25.1876 36.8965 17.543C36.8965 8.15413 28.8376 0.542969 18.8965 0.542969C8.95536 0.542969 0.896484 8.15413 0.896484 17.543C0.896484 25.188 6.23972 31.6543 13.5916 33.7926C13.8203 33.8592 14.0214 34.0003 14.156 34.1969L18.0719 39.9152C18.4691 40.4952 19.3249 40.4952 19.7221 39.9152L23.6382 34.1965Z" fill="#E7E6F0"/>
<path d="M10.5847 24.0492L10.5811 16.873H12.6412L12.6448 24.0492C12.6448 24.6388 12.1836 25.1169 11.6148 25.1169C11.046 25.1169 10.5847 24.6388 10.5847 24.0492Z" fill="#6B57EA"/>
<path d="M20.3445 24.0492L20.3408 16.873H22.4009L22.4046 24.0492C22.4046 24.6388 21.9433 25.1169 21.3745 25.1169C20.8057 25.1169 20.3445 24.6388 20.3445 24.0492Z" fill="#6B57EA"/>
<path d="M17.6965 25.1329C18.3179 25.1329 18.8217 24.6107 18.8217 23.9665C18.8217 23.3223 18.3179 22.8 17.6965 22.8C17.0751 22.8 16.5713 23.3223 16.5713 23.9665C16.5713 24.6107 17.0751 25.1329 17.6965 25.1329Z" fill="#6B57EA"/>
<path d="M14.7081 11.1328C16.9845 11.14 18.8203 13.0617 18.8146 15.4299V15.4311L18.8215 16.9575C18.8135 19.3269 16.9651 21.2379 14.6875 21.2296C12.41 21.2212 10.5742 19.2983 10.5811 16.9289L12.6412 16.9361C12.6377 18.1148 13.5614 19.0828 14.6944 19.0864C15.8389 19.09 16.7579 18.1291 16.7614 16.9504L16.7545 15.4263C16.7579 14.2476 15.8343 13.2796 14.7013 13.276C13.7011 13.2729 12.8588 14.0212 12.6726 15.0075H10.5928C10.7917 12.8256 12.5594 11.1261 14.7081 11.1328Z" fill="#6B57EA"/>
<path d="M24.4679 11.1328C26.7443 11.14 28.5801 13.0617 28.5744 15.4299V15.4311L28.5812 16.9575C28.5732 19.3269 26.7249 21.2379 24.4473 21.2296C22.1697 21.2212 20.334 19.2983 20.3408 16.9289L22.4009 16.9361C22.3975 18.1148 23.3211 19.0828 24.4542 19.0864C25.5987 19.09 26.5177 18.1291 26.5211 16.9504L26.5143 15.4263C26.5177 14.2476 25.5941 13.2796 24.461 13.276C23.4609 13.2729 22.6186 14.0212 22.4324 15.0075H20.3526C20.5515 12.8256 22.3192 11.1261 24.4679 11.1328Z" fill="#6B57EA"/>
<path d="M28.8965 27.4473L30.8965 28.1139L32.8965 27.4473L32.2298 29.4473L32.8965 31.4473L30.8965 30.7806L28.8965 31.4473L29.5632 29.4473L28.8965 27.4473Z" fill="#6B57EA"/>
<path d="M3.89648 4.44727L5.89648 5.11393L7.89648 4.44727L7.22982 6.44727L7.89648 8.44727L5.89648 7.7806L3.89648 8.44727L4.56315 6.44727L3.89648 4.44727Z" fill="#6B57EA"/>
</svg>
