<svg width="37" height="41" viewBox="0 0 37 41" fill="none" xmlns="http://www.w3.org/2000/svg">
<path fill-rule="evenodd" clip-rule="evenodd" d="M23.6382 34.0996C23.7727 33.9031 23.9739 33.7619 24.2026 33.6954C31.5538 31.5567 36.8965 25.0906 36.8965 17.446C36.8965 8.0572 28.8376 0.446045 18.8965 0.446045C8.95536 0.446045 0.896484 8.0572 0.896484 17.446C0.896484 25.091 6.23972 31.5574 13.5916 33.6957C13.8203 33.7622 14.0214 33.9034 14.156 34.0999L18.0719 39.8183C18.4691 40.3983 19.3249 40.3983 19.7221 39.8183L23.6382 34.0996Z" fill="#E7E6F0"/>
<path d="M10.5847 23.9522L10.5811 16.7761H12.6412L12.6448 23.9522C12.6448 24.5419 12.1836 25.02 11.6148 25.02C11.046 25.02 10.5847 24.5419 10.5847 23.9522Z" fill="#6B57EA"/>
<path d="M20.3445 23.9522L20.3408 16.7761H22.4009L22.4046 23.9522C22.4046 24.5419 21.9433 25.02 21.3745 25.02C20.8057 25.02 20.3445 24.5419 20.3445 23.9522Z" fill="#6B57EA"/>
<path d="M17.6965 25.036C18.3179 25.036 18.8217 24.5137 18.8217 23.8695C18.8217 23.2253 18.3179 22.7031 17.6965 22.7031C17.0751 22.7031 16.5713 23.2253 16.5713 23.8695C16.5713 24.5137 17.0751 25.036 17.6965 25.036Z" fill="#6B57EA"/>
<path d="M14.7081 11.0359C16.9845 11.0431 18.8203 12.9648 18.8146 15.333V15.3342L18.8215 16.8606C18.8135 19.23 16.9651 21.141 14.6875 21.1326C12.41 21.1243 10.5742 19.2014 10.5811 16.832L12.6412 16.8392C12.6377 18.0179 13.5614 18.9859 14.6944 18.9895C15.8389 18.993 16.7579 18.0322 16.7614 16.8534L16.7545 15.3294C16.7579 14.1507 15.8343 13.1827 14.7013 13.1791C13.7011 13.1759 12.8588 13.9242 12.6726 14.9106H10.5928C10.7917 12.7286 12.5594 11.0292 14.7081 11.0359Z" fill="#6B57EA"/>
<path d="M24.4679 11.0359C26.7443 11.0431 28.5801 12.9648 28.5744 15.333V15.3342L28.5812 16.8606C28.5732 19.23 26.7249 21.141 24.4473 21.1326C22.1697 21.1243 20.334 19.2014 20.3408 16.832L22.4009 16.8392C22.3975 18.0179 23.3211 18.9859 24.4542 18.9895C25.5987 18.993 26.5177 18.0322 26.5211 16.8534L26.5143 15.3294C26.5177 14.1507 25.5941 13.1827 24.461 13.1791C23.4609 13.1759 22.6186 13.9242 22.4324 14.9106H20.3526C20.5515 12.7286 22.3192 11.0292 24.4679 11.0359Z" fill="#6B57EA"/>
<path d="M13.9057 35.0144C12.0715 35.3809 10.8965 35.9449 10.8965 36.5776C10.8965 37.6822 14.4782 38.5776 18.8965 38.5776C23.3148 38.5776 26.8965 37.6822 26.8965 36.5776C26.8965 35.9449 25.7215 35.3809 23.8873 35.0144" stroke="#6B57EA" stroke-linecap="round"/>
</svg>
