<svg width="32" height="39" viewBox="0 0 32 39" fill="none" xmlns="http://www.w3.org/2000/svg">
<path fill-rule="evenodd" clip-rule="evenodd" d="M15.897 11.959H29.897L26.0234 38.1055C25.9508 38.5959 25.5299 38.959 25.0342 38.959H15.897H6.75974C6.26406 38.959 5.84318 38.5959 5.77053 38.1055L1.89697 11.959H15.897Z" fill="#D9D9D9"/>
<path fill-rule="evenodd" clip-rule="evenodd" d="M26.1159 0.958984H15.897H15.8967H5.67775C5.21888 0.958984 4.8189 1.27128 4.70761 1.71645L3.89697 4.95898H1.62224C1.11592 4.95898 0.689501 5.33741 0.62933 5.84014L0.0308857 10.8401C-0.0403481 11.4353 0.424398 11.959 1.0238 11.959H15.8967H15.897H30.7699C31.3693 11.959 31.834 11.4353 31.7628 10.8401L31.1644 5.84014C31.1042 5.33741 30.6778 4.95898 30.1714 4.95898H27.8967L27.0861 1.71645C26.9748 1.27128 26.5748 0.958984 26.1159 0.958984Z" fill="#4841A6"/>
<path fill-rule="evenodd" clip-rule="evenodd" d="M15.897 11.959H29.897L26.0234 38.1055C25.9508 38.5959 25.5299 38.959 25.0342 38.959H15.897H6.75974C6.26406 38.959 5.84318 38.5959 5.77053 38.1055L1.89697 11.959H15.897Z" fill="#ABA9C8"/>
<path fill-rule="evenodd" clip-rule="evenodd" d="M15.897 11.959H25.897L22.0234 38.1055C21.9508 38.5959 21.5299 38.959 21.0342 38.959H15.897H6.75974C6.26406 38.959 5.84318 38.5959 5.77053 38.1055L1.89697 11.959H15.897Z" fill="#E7E6F0"/>
<path fill-rule="evenodd" clip-rule="evenodd" d="M22.1159 0.958984H15.897H15.8967H5.67775C5.21888 0.958984 4.8189 1.27128 4.70761 1.71645L3.89697 4.95898H1.62224C1.11592 4.95898 0.689501 5.33741 0.62933 5.84014L0.0308857 10.8401C-0.0403481 11.4353 0.424398 11.959 1.0238 11.959H15.8967H15.897H26.7699C27.3693 11.959 27.834 11.4353 27.7628 10.8401L27.1644 5.84014C27.1042 5.33741 26.6778 4.95898 26.1714 4.95898H23.8967L23.0861 1.71645C22.9748 1.27128 22.5748 0.958984 22.1159 0.958984Z" fill="#8F87F3"/>
<path fill-rule="evenodd" clip-rule="evenodd" d="M15.9126 3.96875H23.9126V4.96875H15.9126V3.96875Z" fill="#4841A6"/>
<circle cx="14" cy="23.6094" r="7" fill="#ABA9C8"/>
<path d="M9.82685 26.1911L9.8252 23.0596H10.7571L10.7588 26.1911C10.7588 26.4484 10.5501 26.6571 10.2928 26.6571C10.0355 26.6571 9.82685 26.4484 9.82685 26.1911Z" fill="#E7E6F0"/>
<path d="M14.2419 26.1911L14.2402 23.0596H15.1721L15.1738 26.1911C15.1738 26.4484 14.9652 26.6571 14.7078 26.6571C14.4505 26.6571 14.2419 26.4484 14.2419 26.1911Z" fill="#E7E6F0"/>
<path d="M13.0442 26.6642C13.3253 26.6642 13.5532 26.4364 13.5532 26.1552C13.5532 25.8741 13.3253 25.6462 13.0442 25.6462C12.763 25.6462 12.5352 25.8741 12.5352 26.1552C12.5352 26.4364 12.763 26.6642 13.0442 26.6642Z" fill="#6B57EA"/>
<path d="M11.6921 20.5547C12.7219 20.5578 13.5523 21.3964 13.5497 22.4299V22.4304L13.5528 23.0965C13.5492 24.1304 12.7131 24.9644 11.6828 24.9607C10.6525 24.9571 9.8221 24.118 9.8252 23.084L10.7571 23.0871C10.7556 23.6015 11.1734 24.0239 11.6859 24.0255C12.2036 24.0271 12.6194 23.6077 12.6209 23.0934L12.6178 22.4283C12.6194 21.9139 12.2016 21.4915 11.689 21.4899C11.2366 21.4886 10.8556 21.8151 10.7713 22.2455H9.83051C9.92048 21.2934 10.7201 20.5518 11.6921 20.5547Z" fill="#E7E6F0"/>
<path d="M16.1072 20.5547C17.1369 20.5578 17.9674 21.3964 17.9648 22.4299V22.4304L17.9679 23.0965C17.9643 24.1304 17.1281 24.9644 16.0978 24.9607C15.0676 24.9571 14.2371 24.118 14.2402 23.084L15.1722 23.0871C15.1706 23.6015 15.5884 24.0239 16.101 24.0255C16.6187 24.0271 17.0344 23.6077 17.036 23.0934L17.0329 22.4283C17.0344 21.9139 16.6166 21.4915 16.1041 21.4899C15.6516 21.4886 15.2706 21.8151 15.1864 22.2455H14.2455C14.3355 21.2934 15.1352 20.5518 16.1072 20.5547Z" fill="#E7E6F0"/>
</svg>
