<svg width="33" height="41" viewBox="0 0 33 41" fill="none" xmlns="http://www.w3.org/2000/svg">
<rect x="0.896484" y="0.958984" width="32" height="28" rx="1" fill="#4841A6"/>
<rect x="1.89648" y="1.95898" width="30" height="26" rx="1" fill="#E7E6F0"/>
<path d="M14.8965 28.959H18.8965V39.959C18.8965 40.5113 18.4488 40.959 17.8965 40.959H15.8965C15.3442 40.959 14.8965 40.5113 14.8965 39.959V28.959Z" fill="#E7E6F0"/>
<path d="M14.8965 28.959H18.8965V32.0137L14.8965 30.0137L14.8965 28.959Z" fill="#ABA9C8"/>
<path d="M7.89648 10.959C7.89648 10.4067 8.3442 9.95898 8.89648 9.95898H9.89648V11.959H8.89648C8.3442 11.959 7.89648 11.5113 7.89648 10.959Z" fill="#4841A6"/>
<path d="M9.89648 24H13.8965V25C13.8965 25.5523 13.4488 26 12.8965 26H10.8965C10.3442 26 9.89648 25.5523 9.89648 25V24Z" fill="#4841A6"/>
<path d="M19.8965 24H23.8965V25C23.8965 25.5523 23.4488 26 22.8965 26H20.8965C20.3442 26 19.8965 25.5523 19.8965 25V24Z" fill="#4841A6"/>
<path d="M19.8965 24H23.8965V25L19.8965 24Z" fill="#353071"/>
<path d="M9.89648 24H13.8965V25L9.89648 24Z" fill="#353071"/>
<path d="M25.8965 10.959C25.8965 10.4067 25.4488 9.95898 24.8965 9.95898H23.8965V11.959H24.8965C25.4488 11.959 25.8965 11.5113 25.8965 10.959Z" fill="#4841A6"/>
<rect x="8.89648" y="8" width="16" height="16" rx="1" fill="#8F87F3"/>
<rect x="9.89648" y="9" width="14" height="8" rx="1" fill="#E7E6F0"/>
<path d="M10.8311 9H22.8997C23.452 9 23.8997 9.44772 23.8997 10V13.9936L11.6415 9H10.8311Z" fill="#ABA9C8"/>
<circle cx="11.8965" cy="19.959" r="2" fill="#E7E6F0"/>
<circle cx="21.8965" cy="19.959" r="2" fill="#E7E6F0"/>
<path d="M16.8965 13L16.8994 17" stroke="#8F87F3"/>
</svg>
