<svg width="39" height="41" viewBox="0 0 39 41" fill="none" xmlns="http://www.w3.org/2000/svg">
<path d="M25.5703 32.9922H28.0966V39.8672C28.0966 40.2109 27.8124 40.4922 27.465 40.4922H26.2019C25.8545 40.4922 25.5703 40.2109 25.5703 39.8672V32.9922Z" fill="#ABA9C8"/>
<path d="M25.5703 32.9922H26.8335V39.8672C26.8335 40.2109 26.5493 40.4922 26.2019 40.4922C25.8545 40.4922 25.5703 40.2109 25.5703 39.8672V32.9922Z" fill="#E7E6F0"/>
<path d="M34.3804 23.0297C34.3993 22.8109 34.412 22.5922 34.412 22.3672C34.412 18.5672 31.3046 15.4922 27.4646 15.4922C27.2498 15.4922 27.0414 15.5047 26.833 15.5234C30.3762 15.8422 33.1488 18.7797 33.1488 22.3672C33.1488 22.5922 33.1362 22.8109 33.1172 23.0297C35.6246 23.3234 37.5698 25.4359 37.5698 27.9922C37.5698 30.7547 35.3088 32.9922 32.5172 32.9922H33.7804C36.572 32.9922 38.833 30.7547 38.833 27.9922C38.833 25.4297 36.8877 23.3234 34.3804 23.0297Z" fill="#353071"/>
<path d="M33.1172 23.0297C33.1362 22.8109 33.1488 22.5922 33.1488 22.3672C33.1488 18.7797 30.3762 15.8422 26.833 15.5234C26.6246 15.5047 26.4162 15.4922 26.2014 15.4922C22.3614 15.4922 19.2541 18.5672 19.2541 22.3672C19.2541 22.5922 19.2667 22.8109 19.2856 23.0297C16.7783 23.3234 14.833 25.4359 14.833 27.9922C14.833 30.7547 17.0941 32.9922 19.8856 32.9922H32.5172C35.3088 32.9922 37.5698 30.7547 37.5698 27.9922C37.5698 25.4297 35.6246 23.3234 33.1172 23.0297Z" fill="#353071"/>
<path d="M32.9116 23.0293C30.4696 23.0293 28.49 24.9883 28.49 27.4049H27.8584C27.8584 24.6431 30.1208 22.4043 32.9116 22.4043C32.9971 22.4043 33.082 22.4064 33.1664 22.4105V23.0364C33.0821 23.0317 32.9971 23.0293 32.9116 23.0293Z" fill="#353071"/>
<path d="M17.833 28.4922H21.833V39.4922C21.833 40.0422 21.383 40.4922 20.833 40.4922H18.833C18.283 40.4922 17.833 40.0422 17.833 39.4922V28.4922Z" fill="#ABA9C8"/>
<path d="M17.833 28.4922H19.833V39.4922C19.833 40.0422 19.383 40.4922 18.833 40.4922C18.283 40.4922 17.833 40.0422 17.833 39.4922V28.4922Z" fill="#E7E6F0"/>
<path d="M31.783 12.5522C31.813 12.2022 31.833 11.8522 31.833 11.4922C31.833 5.41219 26.913 0.492188 20.833 0.492188C20.493 0.492188 20.163 0.512188 19.833 0.542188C25.443 1.05219 29.833 5.75219 29.833 11.4922C29.833 11.8522 29.813 12.2022 29.783 12.5522C33.753 13.0222 36.833 16.4022 36.833 20.4922C36.833 24.9122 33.253 28.4922 28.833 28.4922H30.833C35.253 28.4922 38.833 24.9122 38.833 20.4922C38.833 16.3922 35.753 13.0222 31.783 12.5522Z" fill="#4841A6"/>
<path d="M29.783 12.5522C29.813 12.2022 29.833 11.8522 29.833 11.4922C29.833 5.75219 25.443 1.05219 19.833 0.542188C19.503 0.512188 19.173 0.492188 18.833 0.492188C12.753 0.492188 7.83301 5.41219 7.83301 11.4922C7.83301 11.8522 7.85301 12.2022 7.88301 12.5522C3.91301 13.0222 0.833008 16.4022 0.833008 20.4922C0.833008 24.9122 4.41301 28.4922 8.83301 28.4922H28.833C33.253 28.4922 36.833 24.9122 36.833 20.4922C36.833 16.3922 33.753 13.0222 29.783 12.5522Z" fill="#8F87F3"/>
<path d="M29.458 12.5527C25.7596 12.5527 22.731 15.4205 22.4746 19.0536C22.4552 19.3291 22.2332 19.5537 21.957 19.5537C21.6809 19.5537 21.4554 19.3292 21.4724 19.0536C21.7305 14.8678 25.2071 11.5527 29.458 11.5527C29.5933 11.5527 29.7277 11.5561 29.8613 11.5627V12.5642C29.7279 12.5566 29.5934 12.5527 29.458 12.5527Z" fill="#4841A6"/>
</svg>
