<svg width="41" height="39" viewBox="0 0 41 39" fill="none" xmlns="http://www.w3.org/2000/svg">
<path d="M20.915 38.0215C31.9607 38.0215 40.915 29.0672 40.915 18.0215H0.915039C0.915039 29.0672 9.86934 38.0215 20.915 38.0215Z" fill="#4841A6"/>
<path d="M0.916631 18.0215H40.9166C40.9166 22.7909 39.2472 27.1704 36.4607 30.6075C31.264 30.7302 25.6168 30.4388 20.1971 29.4788C4.10215 26.6282 0.831694 20.8088 0.916631 18.0215Z" fill="#353071"/>
<ellipse cx="20.915" cy="18.0215" rx="20" ry="10" fill="#8F87F3"/>
<path d="M32.8713 4.51027C32.8823 4.38527 32.8897 4.26027 32.8897 4.1317C32.8897 1.96027 31.0771 0.203125 28.8372 0.203125C28.7119 0.203125 28.5903 0.210268 28.4688 0.220982C30.5356 0.403125 32.1529 2.0817 32.1529 4.1317C32.1529 4.26027 32.1455 4.38527 32.1345 4.51027C33.5971 4.67813 34.7318 5.88527 34.7318 7.34598C34.7318 8.92455 33.4129 10.2031 31.7845 10.2031H32.5213C34.1497 10.2031 35.4686 8.92455 35.4686 7.34598C35.4686 5.8817 34.3339 4.67813 32.8713 4.51027Z" fill="#ABA9C8"/>
<path d="M32.1343 4.51027C32.1454 4.38527 32.1527 4.26027 32.1527 4.1317C32.1527 2.0817 30.5354 0.403125 28.4686 0.220982C28.347 0.210268 28.2255 0.203125 28.1002 0.203125C25.8602 0.203125 24.0476 1.96027 24.0476 4.1317C24.0476 4.26027 24.055 4.38527 24.0661 4.51027C22.6035 4.67813 21.4688 5.88527 21.4688 7.34598C21.4688 8.92455 22.7877 10.2031 24.4161 10.2031H31.7843C33.4127 10.2031 34.7316 8.92455 34.7316 7.34598C34.7316 5.8817 33.5969 4.67813 32.1343 4.51027Z" fill="#E7E6F0"/>
<path d="M32.0151 4.51144C30.5906 4.51144 29.4358 5.63088 29.4358 7.01179H29.0674C29.0674 5.43364 30.3871 4.1543 32.0151 4.1543C32.0649 4.1543 32.1144 4.1555 32.1636 4.15786V4.51552C32.1145 4.51281 32.0649 4.51144 32.0151 4.51144Z" fill="#ABA9C8"/>
<path d="M14.7092 9.13136C14.7203 9.00636 14.7276 8.88136 14.7276 8.75279C14.7276 6.58136 12.915 4.82422 10.6751 4.82422C10.5498 4.82422 10.4282 4.83136 10.3066 4.84208C12.3735 5.02422 13.9908 6.70279 13.9908 8.75279C13.9908 8.88136 13.9834 9.00636 13.9724 9.13136C15.435 9.29922 16.5697 10.5064 16.5697 11.9671C16.5697 13.5456 15.2508 14.8242 13.6224 14.8242H14.3592C15.9876 14.8242 17.3066 13.5456 17.3066 11.9671C17.3066 10.5028 16.1718 9.29922 14.7092 9.13136Z" fill="#ABA9C8"/>
<path d="M13.9723 9.13136C13.9834 9.00636 13.9907 8.88136 13.9907 8.75279C13.9907 6.70279 12.3734 5.02422 10.3066 4.84208C10.185 4.83136 10.0634 4.82422 9.93815 4.82422C7.69817 4.82422 5.88556 6.58136 5.88556 8.75279C5.88556 8.88136 5.89293 9.00636 5.90398 9.13136C4.44137 9.29922 3.30664 10.5064 3.30664 11.9671C3.30664 13.5456 4.62557 14.8242 6.25398 14.8242H13.6223C15.2507 14.8242 16.5697 13.5456 16.5697 11.9671C16.5697 10.5028 15.4349 9.29922 13.9723 9.13136Z" fill="#E7E6F0"/>
<path d="M13.853 9.13058C12.4285 9.13058 11.2737 10.25 11.2737 11.6309H10.9053C10.9053 10.0528 12.225 8.77344 13.853 8.77344C13.9028 8.77344 13.9523 8.77464 14.0016 8.77701V9.13466C13.9524 9.13195 13.9028 9.13058 13.853 9.13058Z" fill="#ABA9C8"/>
</svg>
