<svg width="41" height="40" viewBox="0 0 41 40" fill="none" xmlns="http://www.w3.org/2000/svg">
<path d="M1.01758 18.001V27.1556L23.2908 39.4248V30.2701L1.01758 18.001Z" fill="#8F87F3"/>
<path d="M1.01758 8.88574V18.0404L23.2908 30.3095V21.1549L1.01758 8.88574Z" fill="#8F87F3"/>
<path d="M18.5699 0.493164L0.939453 9.04984L23.2126 21.319L40.8535 12.8232L18.5699 0.493164Z" fill="#8F87F3"/>
<mask id="mask0_1365_4348" style="mask-type:luminance" maskUnits="userSpaceOnUse" x="9" y="4" width="16" height="10">
<path d="M17.6316 13.6682L9.89648 8.64961L17.1614 4.10327L24.8965 9.12188L17.6316 13.6682Z" fill="white"/>
</mask>
<g mask="url(#mask0_1365_4348)">
<path d="M18.5879 10.2915C18.4429 10.3827 18.198 10.3746 18.0412 10.2732C17.8845 10.1719 17.8786 10.0179 18.0236 9.92664C18.1686 9.83543 18.4135 9.84151 18.5702 9.94286C18.727 10.0442 18.7348 10.2003 18.5879 10.2915ZM14.4774 9.7503C13.9993 9.37938 14.0052 8.85441 14.5087 8.54024C15.0455 8.20783 15.939 8.23823 16.5091 8.60915L16.8794 8.8463C17.4476 9.21723 17.475 9.78881 16.9382 10.1233C16.7618 10.2327 16.5483 10.3016 16.319 10.334L17.1361 10.8631C17.2791 10.9563 17.285 11.0982 17.1537 11.1813C17.0224 11.2644 16.7951 11.2583 16.6541 11.1651L14.9397 10.0543L14.926 10.0442L15.41 9.74219L15.4256 9.75233C15.7097 9.93475 16.1584 9.95096 16.4248 9.78678C16.4248 9.78678 16.4248 9.78678 16.4268 9.78678C16.6952 9.61855 16.6776 9.33479 16.3955 9.15034L16.0252 8.91116C15.743 8.72671 15.2924 8.7105 15.0259 8.87671C15.0259 8.87671 15.0259 8.87671 15.024 8.87671C14.7908 9.02264 14.7752 9.26384 14.9672 9.44424L14.4774 9.7503ZM16.7697 8.31525C16.2916 7.94433 16.2955 7.41936 16.801 7.10519C17.3379 6.77278 18.2313 6.80318 18.8014 7.17411L19.1717 7.41328C19.7399 7.78421 19.7673 8.35579 19.2324 8.6882C19.0561 8.79766 18.8426 8.86657 18.6153 8.899L19.4323 9.42802C19.5753 9.52126 19.5812 9.66314 19.448 9.74625C19.3147 9.82935 19.0914 9.82327 18.9484 9.73003L17.2183 8.60713L17.7023 8.30512L17.7199 8.31525C18.002 8.4997 18.4507 8.51389 18.7191 8.34971C18.7191 8.34971 18.7191 8.34971 18.7211 8.34971C18.9895 8.18148 18.9719 7.89771 18.6897 7.71326L18.3194 7.47612C18.0373 7.29167 17.5867 7.27545 17.3202 7.44166C17.3202 7.44166 17.3202 7.44166 17.3183 7.44166C17.0851 7.5876 17.0694 7.8288 17.2614 8.00919L16.7736 8.31525M13.533 6.37551C11.5267 7.63219 11.6325 9.7726 13.7681 11.159C15.9037 12.5454 19.2618 12.6508 21.2681 11.3941C23.2744 10.1374 23.1686 7.99703 21.033 6.61063C18.8974 5.22423 15.5393 5.11883 13.533 6.37551Z" fill="#E7E6F0"/>
<path d="M14.9415 10.0543L16.6558 11.1651C16.7988 11.2583 17.0222 11.2644 17.1554 11.1813C17.2886 11.0982 17.2808 10.9563 17.1378 10.8631L16.3208 10.334C15.8525 10.3989 15.3235 10.3036 14.9395 10.0543M15.4078 9.74219L14.9238 10.0442L14.9375 10.0543L15.4215 9.75232L15.4058 9.74219" fill="#ABA9C8"/>
<path d="M17.7002 8.30713L17.2163 8.60914L18.9463 9.73204C19.0893 9.82528 19.3127 9.83136 19.4459 9.74826C19.5792 9.66515 19.5733 9.52124 19.4303 9.43003L18.6133 8.90101C18.143 8.96587 17.614 8.87061 17.23 8.6213L17.714 8.31929L17.6963 8.30916" fill="#ABA9C8"/>
<path d="M18.0254 9.92665C17.8804 10.0179 17.8863 10.1739 18.043 10.2732C18.1998 10.3726 18.4427 10.3827 18.5897 10.2915C18.7366 10.2003 18.7288 10.0442 18.572 9.94286C18.4153 9.84152 18.1723 9.83544 18.0254 9.92665Z" fill="#4841A6"/>
<path d="M14.5109 8.54033C14.0054 8.8545 13.9995 9.37947 14.4795 9.75039L14.9693 9.44433C14.7754 9.26393 14.791 9.02476 15.0261 8.87679C15.0261 8.87679 15.0261 8.87679 15.0281 8.87679C15.2965 8.71059 15.7452 8.7268 16.0273 8.91125L16.3976 9.15043C16.6797 9.33487 16.6954 9.61864 16.429 9.78687C16.429 9.78687 16.429 9.78687 16.427 9.78687C16.1605 9.95105 15.7119 9.93686 15.4278 9.75242L14.9439 10.0524C15.3279 10.3017 15.8569 10.397 16.3251 10.3321C16.5544 10.2997 16.7679 10.2308 16.9442 10.1213C17.4811 9.78687 17.4536 9.21731 16.8855 8.84436L16.5152 8.60722C15.945 8.23629 15.0516 8.20386 14.5148 8.5383" fill="#ABA9C8"/>
<path d="M16.8028 7.10527C16.2974 7.41944 16.2915 7.9444 16.7715 8.31533L17.2594 8.00926C17.0654 7.82887 17.0811 7.5897 17.3162 7.44173C17.3162 7.44173 17.3162 7.44173 17.3181 7.44173C17.5865 7.27553 18.0352 7.29174 18.3173 7.47619L18.6876 7.71334C18.9698 7.89779 18.9855 8.18155 18.719 8.34978C18.719 8.34978 18.719 8.34978 18.717 8.34978C18.4506 8.51599 17.9999 8.49978 17.7178 8.31533L17.2339 8.61531C17.6159 8.86462 18.1469 8.96191 18.6171 8.89502C18.8444 8.86259 19.0599 8.79368 19.2343 8.68422C19.7692 8.35181 19.7417 7.78023 19.1735 7.4093L18.8032 7.17013C18.2331 6.7992 17.3397 6.7688 16.8028 7.10121" fill="#ABA9C8"/>
</g>
<path d="M40.6549 30.2706V22.626L23.3838 30.7425V38.6702L40.6549 30.2706Z" fill="#ABA9C8"/>
<path d="M40.6489 21.3175V13.6729L23.3838 21.633V29.5607L40.6489 21.3175Z" fill="#ABA9C8"/>
<path fill-rule="evenodd" clip-rule="evenodd" d="M40.8443 21.8682V22.6232L23.7619 30.7963V38.439L40.8443 30.1734V30.9284L23.29 39.4225V30.2678L40.8443 21.8682Z" fill="#4841A6"/>
<path fill-rule="evenodd" clip-rule="evenodd" d="M40.8443 12.8213V13.5763L23.7619 21.7494V29.3922L40.8443 21.1265V21.8816L23.29 30.3756V21.2209L40.8443 12.8213Z" fill="#4841A6"/>
<path fill-rule="evenodd" clip-rule="evenodd" d="M1.01758 17.5713L11.3164 23.4092V24.7021L1.01758 18.8643L1.01758 17.5713Z" fill="#4841A6"/>
</svg>
