<svg width="41" height="41" viewBox="0 0 41 41" fill="none" xmlns="http://www.w3.org/2000/svg">
<circle cx="10.5703" cy="30.707" r="10" fill="#8F87F3"/>
<path d="M10.5699 20.707C8.77036 20.707 7.08184 21.1824 5.62305 22.0143C8.0886 21.3344 14.1404 20.9352 18.6233 24.7778C16.8024 22.3087 13.8732 20.707 10.5699 20.707Z" fill="#766EDF"/>
<path d="M0.570312 30.7063C0.570312 36.2292 5.04746 40.7063 10.5703 40.7063C12.4262 40.7063 14.164 40.2008 15.6535 39.3199C4.53959 38.7502 2.33826 29.2898 2.62683 24.6309C1.33685 26.3149 0.570312 28.4211 0.570312 30.7063Z" fill="#4841A6"/>
<rect x="5.99316" y="0.507812" width="18" height="18" rx="1" transform="rotate(15 5.99316 0.507812)" fill="#E7E6F0"/>
<path d="M4.80859 4.92969L1.5937 16.9278C1.45076 17.4613 1.76734 18.0096 2.30081 18.1526L16.581 21.9789C8.54354 18.2968 5.38378 9.07853 4.80859 4.92969Z" fill="#ABA9C8"/>
<path d="M21.5703 40.7461H38.1561C39.047 40.7461 39.4932 39.669 38.8632 39.039L22.2774 22.4532C21.6475 21.8232 20.5703 22.2694 20.5703 23.1603V39.7461C20.5703 40.2984 21.018 40.7461 21.5703 40.7461Z" fill="#4841A6"/>
<path d="M20.5703 23.4941V39.7452C20.5703 40.2975 21.018 40.7452 21.5703 40.7452H29.6464C22.6331 37.202 20.6735 27.7682 20.5703 23.4941Z" fill="#353071"/>
</svg>
