<svg width="60" height="60" viewBox="0 0 60 60" fill="none" xmlns="http://www.w3.org/2000/svg">
<path d="M46.1603 15.1098L45.4532 14.4027C45.0627 14.0121 44.3979 14.0438 43.9683 14.4734L14.4112 44.0304C13.9816 44.46 13.95 45.1248 14.3405 45.5154L15.0476 46.2225C15.4381 46.613 16.103 46.5813 16.5325 46.1518L46.0896 16.5947C46.5192 16.1651 46.5508 15.5003 46.1603 15.1098Z" fill="#E7E6F0"/>
<path d="M24.4902 38.1938L26.6456 31.7959L36.5562 21.8853L38.6775 24.0066L24.4902 38.1938Z" fill="#ABA9C8"/>
<path d="M16.6992 14.8723L23.7703 21.9434L22.8393 22.8743C22.4488 23.2649 21.8156 23.2649 21.4251 22.8743L15.7683 17.2175C15.3777 16.827 15.3777 16.1938 15.7683 15.8033L16.6992 14.8723Z" fill="#4841A6"/>
<path d="M37.9126 36.0854L44.9837 43.1565L44.0527 44.0875C43.6622 44.478 43.029 44.478 42.6385 44.0875L36.9816 38.4306C36.5911 38.0401 36.5911 37.4069 36.9816 37.0164L37.9126 36.0854Z" fill="#E7E6F0"/>
<path d="M23.7705 21.9434L37.9057 36.0786L36.9748 37.0095C36.5843 37.4001 35.9511 37.4001 35.5606 37.0095L22.8396 24.2885C22.449 23.898 22.449 23.2648 22.8396 22.8743L23.7705 21.9434Z" fill="#8F87F3"/>
<path d="M43.5527 16.303C43.5527 16.303 44.6275 29.4269 37.903 36.109L44.9669 43.173C52.7805 35.3595 51.3663 24.1165 43.5527 16.303Z" fill="#4841A6"/>
<path d="M43.5528 16.303C35.7392 8.48949 24.4892 7.08235 16.6827 14.8888L23.7467 21.9528C30.4218 15.2212 43.5528 16.303 43.5528 16.303Z" fill="#8F87F3"/>
<path fill-rule="evenodd" clip-rule="evenodd" d="M30.8108 29.0171L23.7468 21.9531C30.4219 15.2214 43.5387 16.2892 43.5387 16.2892L30.8108 29.0171ZM43.5467 16.3093L43.5527 16.3032L43.5457 16.2962C43.5457 16.2962 43.546 16.3006 43.5467 16.3093ZM43.5467 16.3093L30.8248 29.0312L37.8818 36.0881L37.8959 36.1022C44.5042 29.5495 43.5827 16.7752 43.5467 16.3093Z" fill="#E7E6F0"/>
</svg>
