<svg width="160" height="160" viewBox="0 0 160 160" fill="none" xmlns="http://www.w3.org/2000/svg">
<rect width="160" height="160" fill="url(#paint0_linear_3369_7641)"/>
<path fill-rule="evenodd" clip-rule="evenodd" d="M21.9363 59.5H17.4995C16.3949 59.5 15.4995 60.3954 15.4995 61.5V98.4163C15.4995 99.5209 16.3949 100.416 17.4995 100.416H21.9363C23.0409 100.416 23.9363 99.5209 23.9363 98.4164V61.5C23.9363 60.3954 23.0409 59.5 21.9363 59.5ZM27.439 84.8017V80.0321L27.439 66.3813V61.5C27.439 60.3954 28.3345 59.5 29.439 59.5H34.9759C44.2282 59.5 49.5434 65.1785 49.5433 73.1509C49.5433 81.2353 44.1438 86.8017 34.751 86.8017H29.439C28.3344 86.8017 27.439 85.9063 27.439 84.8017ZM115.421 85.1417C115.394 76.0042 121.215 69.8125 130.158 69.8125C138.173 69.8125 144.5 74.7222 144.5 84.8144V86.1055C144.5 86.6578 144.053 87.1055 143.5 87.1055H124.698C124.121 87.1055 123.66 87.5946 123.733 88.1669C124.325 92.8008 126.774 94.2286 130.813 94.2286C134.05 94.2286 135.641 93.0574 136.632 91.788C136.836 91.5273 137.141 91.3608 137.472 91.3608H143.127C143.734 91.3608 144.205 91.8998 144.058 92.4886C142.804 97.4985 138.041 100.416 130.495 100.416C121.13 100.416 115.394 94.5247 115.421 85.1417ZM135.64 82.0641C136.187 82.0641 136.64 81.623 136.578 81.0797C136.224 78.0013 133.966 75.8679 130.326 75.8679C126.761 75.8679 124.139 77.8058 123.699 81.0665C123.625 81.6138 124.081 82.0641 124.633 82.0641H135.64ZM46.4362 95.3535C46.3748 92.5358 48.7147 90.2391 51.6084 90.2698C54.3488 90.2391 56.7192 92.5358 56.7192 95.3535C56.7192 98.2015 54.3488 100.498 51.6084 100.498C48.7147 100.498 46.3748 98.2015 46.4362 95.3535ZM76.8569 84.8017V80.0321V66.3813V61.5C76.8569 60.3954 77.7524 59.5 78.8569 59.5H84.3938C93.6462 59.5 98.9613 65.1785 98.9613 73.1508C98.9613 81.2352 93.5618 86.8017 84.1689 86.8017H78.8569C77.7524 86.8017 76.8569 85.9062 76.8569 84.8017ZM73.4383 66.4511V61.5C73.4383 60.3954 72.5428 59.5 71.4383 59.5H67.0015C65.8969 59.5 65.0015 60.3954 65.0015 61.5V98.4164C65.0015 99.5209 65.8969 100.416 67.0015 100.416H71.4383C72.5428 100.416 73.4383 99.5209 73.4383 98.4163V90.8305V87.0789V80.2406V66.4511ZM111.27 61.5V66.4511V80.2406V87.0789V90.8305V98.4163C111.27 99.5209 110.375 100.416 109.27 100.416H104.833C103.729 100.416 102.833 99.5209 102.833 98.4164V61.5C102.833 60.3954 103.729 59.5 104.833 59.5H109.27C110.375 59.5 111.27 60.3954 111.27 61.5ZM43.3293 74.2833C43.8018 74.5693 43.953 75.1842 43.667 75.6566C40.9732 80.1072 35.8731 80.6873 33.6795 80.4489C33.1305 80.3892 32.7338 79.8957 32.7935 79.3466C32.8531 78.7976 33.3466 78.4009 33.8957 78.4606C35.7127 78.6581 39.8368 78.1222 41.956 74.621C42.242 74.1485 42.8569 73.9974 43.3293 74.2833ZM93.169 75.6566C93.4549 75.1842 93.3038 74.5693 92.8313 74.2833C92.3588 73.9974 91.744 74.1485 91.458 74.621C89.3388 78.1222 85.2146 78.6581 83.3976 78.4606C82.8486 78.4009 82.3551 78.7976 82.2954 79.3466C82.2357 79.8957 82.6324 80.3892 83.1815 80.4489C85.375 80.6873 90.4752 80.1072 93.169 75.6566Z" fill="white"/>
<defs>
<linearGradient id="paint0_linear_3369_7641" x1="128.498" y1="160" x2="-18.9696" y2="77.6389" gradientUnits="userSpaceOnUse">
<stop offset="0.151042" stop-color="#8285F4"/>
<stop offset="1" stop-color="#C28FEE"/>
</linearGradient>
</defs>
</svg>
