<svg width="259" height="253" viewBox="0 0 259 253" fill="none" xmlns="http://www.w3.org/2000/svg">
<rect x="0.574219" y="0.310547" width="258" height="252" fill="#A0B5FF"/>
<mask id="mask0_502_13498" style="mask-type:alpha" maskUnits="userSpaceOnUse" x="0" y="0" width="259" height="253">
<rect x="0.574219" y="0.310547" width="258" height="252" fill="#A0B5FF"/>
</mask>
<g mask="url(#mask0_502_13498)">
<path d="M182.242 242.311V222.514H190.008C194.506 222.514 197.09 225.289 197.09 229.186C197.09 233.137 194.465 235.857 189.898 235.857H186.344V242.311H182.242ZM186.344 232.549H189.242C191.676 232.549 192.865 231.182 192.852 229.186C192.865 227.217 191.676 225.891 189.242 225.877H186.344V232.549ZM201.055 242.557C199.77 242.557 198.73 241.531 198.758 240.26C198.73 239.002 199.77 237.977 201.055 237.99C202.271 237.977 203.324 239.002 203.324 240.26C203.324 241.531 202.271 242.557 201.055 242.557ZM206.66 242.311V222.514H214.426C218.924 222.514 221.508 225.289 221.508 229.186C221.508 233.137 218.883 235.857 214.316 235.857H210.762V242.311H206.66ZM210.762 232.549H213.66C216.094 232.549 217.283 231.182 217.27 229.186C217.283 227.217 216.094 225.891 213.66 225.877H210.762V232.549ZM228.07 222.514V242.311H224.023V222.514H228.07ZM237.941 242.611C233.389 242.598 230.6 239.658 230.613 234.955C230.6 230.375 233.43 227.271 237.777 227.271C241.674 227.271 244.75 229.732 244.75 234.791V235.939H234.605C234.605 238.182 235.932 239.562 238.023 239.576C239.404 239.562 240.389 238.961 240.785 238.072H244.641C244.066 240.82 241.605 242.598 237.941 242.611ZM234.605 233.396H240.922C240.908 231.592 239.664 230.293 237.859 230.307C236 230.293 234.688 231.688 234.605 233.396Z" fill="black"/>
<path d="M137.087 179.246C137.087 175.932 139.773 173.246 143.087 173.246H169.222C172.536 173.246 175.222 175.932 175.222 179.246V211.428C175.222 214.742 172.536 217.428 169.222 217.428H143.087C139.773 217.428 137.087 214.742 137.087 211.428V179.246Z" fill="#2C190E"/>
<path d="M227.579 179.246C227.579 175.932 230.265 173.246 233.579 173.246H259.714C263.028 173.246 265.714 175.932 265.714 179.246V211.428C265.714 214.742 263.028 217.428 259.714 217.428H233.579C230.265 217.428 227.579 214.742 227.579 211.428V179.246Z" fill="#2C190E"/>
<path d="M124.372 43.1953C124.372 38.777 127.954 35.1953 132.372 35.1953H270.427C274.846 35.1953 278.427 38.777 278.427 43.1953V195.969C278.427 200.387 274.846 203.969 270.427 203.969H132.372C127.954 203.969 124.372 200.387 124.372 195.969V43.1953Z" fill="#FF975C"/>
<path d="M124.372 159.156H278.427V165.467H124.372V159.156Z" fill="#B0511B"/>
<path d="M270.427 35.1953H132.372C127.954 35.1953 124.372 38.777 124.372 43.1953V60.4122L235.479 203.969H270.427C274.846 203.969 278.427 200.387 278.427 195.969V43.1953C278.427 38.777 274.846 35.1953 270.427 35.1953Z" fill="#B0511B"/>
<path d="M137.087 53.3984C137.087 51.1893 138.878 49.3984 141.087 49.3984H261.712C263.922 49.3984 265.712 51.1893 265.712 53.3984V111.201C265.712 113.41 263.922 115.201 261.712 115.201H141.087C138.878 115.201 137.087 113.41 137.087 111.201V53.3984Z" fill="#FAB087"/>
<path d="M137.087 76.7344V111.2C137.087 113.409 138.878 115.2 141.087 115.2H166.947L137.087 76.7344Z" fill="#FFCBAD"/>
<path d="M153.153 49.3984H169.315L201.448 115.201H185.286L153.153 49.3984Z" fill="#FFE7D9"/>
<path d="M175.223 49.3984H180.138L212.271 115.201H207.355L175.223 49.3984Z" fill="#FFE7D9"/>
<path d="M175.223 175.246C175.223 174.142 176.118 173.246 177.223 173.246H225.578C226.682 173.246 227.578 174.142 227.578 175.246V188.699C227.578 189.804 226.682 190.699 225.578 190.699H177.223C176.118 190.699 175.223 189.804 175.223 188.699V175.246Z" fill="#B0511B"/>
<path d="M227.577 188.699V175.246C227.577 174.142 226.682 173.246 225.577 173.246H211.798L224.961 190.699H225.577C226.682 190.699 227.577 189.804 227.577 188.699Z" fill="#58270B"/>
<path d="M178.234 176.977C178.234 176.424 178.682 175.977 179.234 175.977H223.564C224.117 175.977 224.564 176.424 224.564 176.977V186.97C224.564 187.522 224.117 187.97 223.564 187.97H179.234C178.682 187.97 178.234 187.522 178.234 186.97V176.977Z" fill="#FFE8DB"/>
<path d="M224.564 186.97V176.977C224.564 176.424 224.117 175.977 223.564 175.977H213.982L222.582 187.566C222.771 187.82 223.069 187.97 223.386 187.97H223.564C224.117 187.97 224.564 187.522 224.564 186.97Z" fill="#EAAA86"/>
<path d="M137.087 176.977C137.087 176.424 137.535 175.977 138.087 175.977H159.195C159.747 175.977 160.195 176.424 160.195 176.977V186.97C160.195 187.522 159.747 187.97 159.195 187.97H138.087C137.535 187.97 137.087 187.522 137.087 186.97V176.977Z" fill="#B0511B"/>
<path d="M242.604 176.977C242.604 176.424 243.052 175.977 243.604 175.977H264.712C265.265 175.977 265.712 176.424 265.712 176.977V186.97C265.712 187.522 265.265 187.97 264.712 187.97H243.604C243.052 187.97 242.604 187.522 242.604 186.97V176.977Z" fill="#B0511B"/>
<rect x="116.794" y="82.5469" width="7.57811" height="2.61076" fill="#B0511B"/>
<path d="M108.471 83.2988C108.471 82.7465 108.918 82.2988 109.471 82.2988H119.078C119.63 82.2988 120.078 82.7465 120.078 83.2988V98.6359C120.078 99.1882 119.63 99.6359 119.078 99.6359H109.471C108.918 99.6359 108.471 99.1882 108.471 98.6359V83.2988Z" fill="#B0511B"/>
<path d="M109.365 84.416C109.365 83.8637 109.813 83.416 110.365 83.416H118.184C118.736 83.416 119.184 83.8637 119.184 84.416V97.5189C119.184 98.0712 118.736 98.5189 118.184 98.5189H110.365C109.813 98.5189 109.365 98.0712 109.365 97.5189V84.416Z" fill="#FFCBAD"/>
<path d="M111.021 83.416H110.365C109.813 83.416 109.365 83.8637 109.365 84.416V85.9831C109.365 86.1663 109.416 86.3461 109.511 86.5026L116.524 98.0384C116.706 98.3368 117.03 98.5189 117.379 98.5189H118.184C118.736 98.5189 119.184 98.0712 119.184 97.5189V96.4523C119.184 96.2723 119.135 96.0956 119.043 95.9409L111.881 83.9046C111.7 83.6017 111.374 83.416 111.021 83.416Z" fill="#FFE8DB"/>
<g filter="url(#filter0_i_502_13498)">
<rect x="175.223" y="125.057" width="52.3564" height="3.12852" rx="1.56426" fill="#58270B"/>
</g>
<path d="M175.223 126.119V127.185C175.223 127.738 175.67 128.185 176.223 128.185H176.817L175.223 126.119Z" fill="#D25E1D"/>
<g filter="url(#filter1_i_502_13498)">
<rect x="175.223" y="131.178" width="52.3564" height="3.12852" rx="1.56426" fill="#D25E1D"/>
</g>
<g filter="url(#filter2_i_502_13498)">
<path d="M226.015 131.178H179.146L181.591 134.306H226.015C226.879 134.306 227.579 133.606 227.579 132.742C227.579 131.878 226.879 131.178 226.015 131.178Z" fill="#58270B"/>
</g>
<g filter="url(#filter3_i_502_13498)">
<rect x="175.223" y="137.301" width="52.3564" height="3.12852" rx="1.56426" fill="#D25E1D"/>
</g>
<g filter="url(#filter4_i_502_13498)">
<path d="M226.014 137.301H183.888L186.35 140.429H226.014C226.878 140.429 227.578 139.729 227.578 138.865C227.578 138.001 226.878 137.301 226.014 137.301Z" fill="#58270B"/>
</g>
<path d="M278.428 165.467V159.156H200.722L205.738 165.467H278.428Z" fill="#58270B"/>
</g>
<defs>
<filter id="filter0_i_502_13498" x="175.223" y="125.057" width="52.3564" height="3.32891" filterUnits="userSpaceOnUse" color-interpolation-filters="sRGB">
<feFlood flood-opacity="0" result="BackgroundImageFix"/>
<feBlend mode="normal" in="SourceGraphic" in2="BackgroundImageFix" result="shape"/>
<feColorMatrix in="SourceAlpha" type="matrix" values="0 0 0 0 0 0 0 0 0 0 0 0 0 0 0 0 0 0 127 0" result="hardAlpha"/>
<feOffset dy="0.7"/>
<feGaussianBlur stdDeviation="0.1"/>
<feComposite in2="hardAlpha" operator="arithmetic" k2="-1" k3="1"/>
<feColorMatrix type="matrix" values="0 0 0 0 0.208333 0 0 0 0 0.0813368 0 0 0 0 0.0269097 0 0 0 1 0"/>
<feBlend mode="normal" in2="shape" result="effect1_innerShadow_502_13498"/>
</filter>
<filter id="filter1_i_502_13498" x="175.223" y="131.178" width="52.3564" height="3.32891" filterUnits="userSpaceOnUse" color-interpolation-filters="sRGB">
<feFlood flood-opacity="0" result="BackgroundImageFix"/>
<feBlend mode="normal" in="SourceGraphic" in2="BackgroundImageFix" result="shape"/>
<feColorMatrix in="SourceAlpha" type="matrix" values="0 0 0 0 0 0 0 0 0 0 0 0 0 0 0 0 0 0 127 0" result="hardAlpha"/>
<feOffset dy="0.7"/>
<feGaussianBlur stdDeviation="0.1"/>
<feComposite in2="hardAlpha" operator="arithmetic" k2="-1" k3="1"/>
<feColorMatrix type="matrix" values="0 0 0 0 0 0 0 0 0 0 0 0 0 0 0 0 0 0 0.25 0"/>
<feBlend mode="normal" in2="shape" result="effect1_innerShadow_502_13498"/>
</filter>
<filter id="filter2_i_502_13498" x="179.146" y="131.178" width="48.4326" height="3.32891" filterUnits="userSpaceOnUse" color-interpolation-filters="sRGB">
<feFlood flood-opacity="0" result="BackgroundImageFix"/>
<feBlend mode="normal" in="SourceGraphic" in2="BackgroundImageFix" result="shape"/>
<feColorMatrix in="SourceAlpha" type="matrix" values="0 0 0 0 0 0 0 0 0 0 0 0 0 0 0 0 0 0 127 0" result="hardAlpha"/>
<feOffset dy="0.7"/>
<feGaussianBlur stdDeviation="0.1"/>
<feComposite in2="hardAlpha" operator="arithmetic" k2="-1" k3="1"/>
<feColorMatrix type="matrix" values="0 0 0 0 0.208333 0 0 0 0 0.0813368 0 0 0 0 0.0269097 0 0 0 1 0"/>
<feBlend mode="normal" in2="shape" result="effect1_innerShadow_502_13498"/>
</filter>
<filter id="filter3_i_502_13498" x="175.223" y="137.301" width="52.3564" height="3.32891" filterUnits="userSpaceOnUse" color-interpolation-filters="sRGB">
<feFlood flood-opacity="0" result="BackgroundImageFix"/>
<feBlend mode="normal" in="SourceGraphic" in2="BackgroundImageFix" result="shape"/>
<feColorMatrix in="SourceAlpha" type="matrix" values="0 0 0 0 0 0 0 0 0 0 0 0 0 0 0 0 0 0 127 0" result="hardAlpha"/>
<feOffset dy="0.7"/>
<feGaussianBlur stdDeviation="0.1"/>
<feComposite in2="hardAlpha" operator="arithmetic" k2="-1" k3="1"/>
<feColorMatrix type="matrix" values="0 0 0 0 0 0 0 0 0 0 0 0 0 0 0 0 0 0 0.25 0"/>
<feBlend mode="normal" in2="shape" result="effect1_innerShadow_502_13498"/>
</filter>
<filter id="filter4_i_502_13498" x="183.888" y="137.301" width="43.6904" height="3.32891" filterUnits="userSpaceOnUse" color-interpolation-filters="sRGB">
<feFlood flood-opacity="0" result="BackgroundImageFix"/>
<feBlend mode="normal" in="SourceGraphic" in2="BackgroundImageFix" result="shape"/>
<feColorMatrix in="SourceAlpha" type="matrix" values="0 0 0 0 0 0 0 0 0 0 0 0 0 0 0 0 0 0 127 0" result="hardAlpha"/>
<feOffset dy="0.7"/>
<feGaussianBlur stdDeviation="0.1"/>
<feComposite in2="hardAlpha" operator="arithmetic" k2="-1" k3="1"/>
<feColorMatrix type="matrix" values="0 0 0 0 0.208333 0 0 0 0 0.0813368 0 0 0 0 0.0269097 0 0 0 1 0"/>
<feBlend mode="normal" in2="shape" result="effect1_innerShadow_502_13498"/>
</filter>
</defs>
</svg>
