<svg width="351" height="234" viewBox="0 0 351 234" fill="none" xmlns="http://www.w3.org/2000/svg">
<rect x="0.995117" y="0.3125" width="350" height="233" fill="#7165B6"/>
<path d="M142.818 140.111L231.002 172.65L301.693 140.86L207.208 104.055L142.818 140.111Z" fill="#30190D"/>
<path d="M155.736 133.29L247.207 165.46L303.02 140.654L211.549 108.484L155.736 133.29Z" fill="#B0B0B0"/>
<path d="M166.452 117.135L247.073 146.192L291.723 126.28L211.102 97.2227L166.452 117.135Z" fill="#373943"/>
<path d="M211.16 102.022L291.782 131.08L291.781 122.811L211.16 93.7539L211.16 102.022Z" fill="#4A4D5B"/>
<path d="M211.154 102.004L166.559 121.897L166.559 113.647L211.153 93.7539L211.154 102.004Z" fill="#202129"/>
<path d="M211.154 102.004L209.152 102.9L204.832 96.5652L211.153 93.7539L211.154 102.004Z" fill="black"/>
<path d="M211.153 102.004L287.093 129.439V121.011L211.152 93.7539L211.153 102.004Z" fill="black"/>
<path d="M211.152 102.008L282.951 127.895L280.142 128.903L209.155 102.905L211.152 102.008Z" fill="#21232C"/>
<path fill-rule="evenodd" clip-rule="evenodd" d="M247.207 146.858L155.736 114.688L211.549 89.8828L303.02 122.053L247.207 146.858ZM247.133 142.728L166.512 113.67L211.162 93.758L291.783 122.816L247.133 142.728Z" fill="#FFDCC2"/>
<path fill-rule="evenodd" clip-rule="evenodd" d="M247.207 146.858L155.736 114.688L211.549 89.8828L303.02 122.053L247.207 146.858ZM247.133 142.728L166.512 113.67L211.162 93.758L291.783 122.816L247.133 142.728Z" fill="url(#paint0_linear_569_27183)"/>
<path d="M155.736 114.688L247.207 146.852V165.462L155.736 133.292V114.688Z" fill="#58280E"/>
<path d="M303.02 122.051L247.207 146.855V165.461L303.02 140.655V122.051Z" fill="#F7935C"/>
<path d="M196.378 108.978L261.09 133.248L265.386 131.001L199.539 107.426L196.378 108.978Z" fill="#21232C"/>
<path d="M198.139 105.82L262.937 129.685L262.937 131.97L198.139 108.105L198.139 105.82Z" fill="#68A0C8"/>
<path d="M198.139 105.82L262.937 129.685L265.53 128.334L200.731 104.469L198.139 105.82Z" fill="#87CDFF"/>
<path d="M241.92 121.711L262.936 129.402L265.529 128.05L244.512 120.359L241.92 121.711Z" fill="#3D98DA"/>
<path d="M249.132 124.051L258.619 127.603L260.071 126.849L250.584 123.297L249.132 124.051Z" fill="#1C4664"/>
<path d="M262.417 128.994L262.185 128.465L263.638 127.711L263.934 128.15L262.417 128.994Z" fill="#64A8D9"/>
<path d="M249.419 123.723L262.187 128.463L262.418 128.994L258.516 127.552L258.302 127.28L249.13 123.853L249.419 123.723Z" fill="#488BBC"/>
<path d="M249.418 123.723L262.186 128.462L263.639 127.709L250.87 122.969L249.418 123.723Z" fill="#87CDFF"/>
<path d="M249.414 123.723L249.142 123.847L250.595 123.093L250.867 122.969L249.414 123.723Z" fill="#32688E"/>
<path d="M262.937 132.307L262.936 129.398L265.528 128.047L265.529 130.956L262.937 132.307Z" fill="#346E99"/>
<path d="M241.92 121.707L262.945 129.419V132.33L241.92 124.574V121.707Z" fill="#2072AD"/>
<path d="M284.466 130.279L284.466 125.998L292.836 122.34L301.696 122.691L284.466 130.279Z" fill="#512D1A"/>
<path d="M298.396 142.714L284.448 130.255L303.079 122.043L303.02 140.655L298.396 142.714Z" fill="#3E1B09"/>
<path d="M204.175 89.3099L284.796 118.367L327.705 116.847L247.084 87.7891L204.175 89.3099Z" fill="#FFDDCB"/>
<path d="M204.175 89.3099L284.796 118.367L327.705 116.847L247.084 87.7891L204.175 89.3099Z" fill="url(#paint1_linear_569_27183)"/>
<path d="M284.795 125.099V118.365L327.704 116.844L327.706 122.759L284.795 125.099Z" fill="#F7935C"/>
<path d="M284.807 125.117V118.382L204.176 89.3086L204.177 95.2241L284.807 125.117Z" fill="#58280E"/>
<defs>
<linearGradient id="paint0_linear_569_27183" x1="269.761" y1="106.905" x2="259.631" y2="133.679" gradientUnits="userSpaceOnUse">
<stop stop-color="#E37033"/>
<stop offset="1" stop-color="#FF7A34" stop-opacity="0"/>
<stop offset="1" stop-color="#512D1A" stop-opacity="0"/>
</linearGradient>
<linearGradient id="paint1_linear_569_27183" x1="273.09" y1="91.7084" x2="264.841" y2="112.403" gradientUnits="userSpaceOnUse">
<stop stop-color="#E4824D"/>
<stop offset="1" stop-color="#FFDCC2"/>
</linearGradient>
</defs>
</svg>
