<svg width="351" height="265" viewBox="0 0 351 265" fill="none" xmlns="http://www.w3.org/2000/svg">
<rect x="0.995117" y="0.429688" width="350" height="264" fill="#7165B6"/>
<path d="M103.078 169.661L202.724 206.429L282.602 170.507L175.837 128.918L103.078 169.661Z" fill="#30190D"/>
<path d="M117.675 161.957L221.034 198.308L284.101 170.279L180.742 133.928L117.675 161.957Z" fill="#B0B0B0"/>
<path d="M129.783 143.699L220.883 176.533L271.336 154.033L180.237 121.199L129.783 143.699Z" fill="#373943"/>
<path d="M180.303 126.628L271.403 159.462L271.402 150.119L180.303 117.285L180.303 126.628Z" fill="#4A4D5B"/>
<path d="M180.294 126.608L129.904 149.086L129.903 139.764L180.294 117.285L180.294 126.608Z" fill="#202129"/>
<path d="M180.294 126.608L178.033 127.619L173.151 120.462L180.294 117.285L180.294 126.608Z" fill="black"/>
<path d="M180.294 126.608L266.105 157.609V148.085L180.294 117.285L180.294 126.608Z" fill="black"/>
<path d="M180.293 126.607L261.424 155.859L258.251 156.999L178.037 127.621L180.293 126.607Z" fill="#21232C"/>
<path fill-rule="evenodd" clip-rule="evenodd" d="M221.034 177.285L117.675 140.934L180.742 112.904L284.101 149.255L221.034 177.285ZM220.95 172.617L129.851 139.783L180.304 117.283L271.404 150.117L220.95 172.617Z" fill="#FFDCC2"/>
<path fill-rule="evenodd" clip-rule="evenodd" d="M221.034 177.285L117.675 140.934L180.742 112.904L284.101 149.255L221.034 177.285ZM220.95 172.617L129.851 139.783L180.304 117.283L271.404 150.117L220.95 172.617Z" fill="url(#paint0_linear_504_16135)"/>
<path d="M117.675 140.934L221.034 177.278V198.307L117.675 161.956V140.934Z" fill="#58280E"/>
<path d="M284.101 149.256L221.034 177.284V198.308L284.101 170.278V149.256Z" fill="#F7935C"/>
<path d="M163.599 134.483L236.721 161.907L241.576 159.368L167.17 132.729L163.599 134.483Z" fill="#21232C"/>
<path d="M165.589 130.914L238.81 157.881L238.809 160.462L165.589 133.495L165.589 130.914Z" fill="#68A0C8"/>
<path d="M165.589 130.914L238.809 157.88L241.739 156.353L168.518 129.387L165.589 130.914Z" fill="#87CDFF"/>
<path d="M215.06 148.871L238.808 157.561L241.737 156.034L217.989 147.344L215.06 148.871Z" fill="#3D98DA"/>
<path d="M223.209 151.512L233.929 155.526L235.57 154.674L224.85 150.66L223.209 151.512Z" fill="#1C4664"/>
<path d="M238.222 157.1L237.959 156.502L239.601 155.65L239.936 156.147L238.222 157.1Z" fill="#64A8D9"/>
<path d="M223.534 151.148L237.962 156.504L238.222 157.104L233.814 155.475L233.571 155.168L223.207 151.296L223.534 151.148Z" fill="#488BBC"/>
<path d="M223.532 151.149L237.96 156.505L239.601 155.653L225.173 150.297L223.532 151.149Z" fill="#87CDFF"/>
<path d="M223.528 151.149L223.221 151.29L224.863 150.437L225.17 150.297L223.528 151.149Z" fill="#32688E"/>
<path d="M238.809 160.847L238.808 157.56L241.737 156.033L241.738 159.32L238.809 160.847Z" fill="#346E99"/>
<path d="M215.06 148.869L238.818 157.584V160.873L215.06 152.109V148.869Z" fill="#2072AD"/>
<path d="M263.136 158.557L263.136 153.72L272.594 149.586L282.605 149.982L263.136 158.557Z" fill="#512D1A"/>
<path d="M278.877 172.606L263.116 158.528L284.169 149.248L284.102 170.279L278.877 172.606Z" fill="#3E1B09"/>
<path d="M172.409 112.26L263.509 145.094L311.995 143.375L220.896 110.541L172.409 112.26Z" fill="#FFDDCB"/>
<path d="M172.409 112.26L263.509 145.094L311.995 143.375L220.896 110.541L172.409 112.26Z" fill="url(#paint1_linear_504_16135)"/>
<path d="M263.508 152.703V145.094L311.994 143.375L311.996 150.059L263.508 152.703Z" fill="#F7935C"/>
<path d="M263.521 152.72V145.11L172.41 112.258L172.412 118.942L263.521 152.72Z" fill="#58280E"/>
<defs>
<linearGradient id="paint0_linear_504_16135" x1="246.52" y1="132.139" x2="235.073" y2="162.392" gradientUnits="userSpaceOnUse">
<stop stop-color="#E37033"/>
<stop offset="1" stop-color="#FF7A34" stop-opacity="0"/>
<stop offset="1" stop-color="#512D1A" stop-opacity="0"/>
</linearGradient>
<linearGradient id="paint1_linear_504_16135" x1="250.281" y1="114.97" x2="240.96" y2="138.355" gradientUnits="userSpaceOnUse">
<stop stop-color="#E4824D"/>
<stop offset="1" stop-color="#FFDCC2"/>
</linearGradient>
</defs>
</svg>
