<svg width="351" height="265" viewBox="0 0 351 265" fill="none" xmlns="http://www.w3.org/2000/svg">
<rect x="0.995117" y="0.648438" width="350" height="264" fill="#2E4491"/>
<path d="M130.292 157.292L197.322 125.219L282.371 172.068L215.341 204.141L130.292 157.292Z" fill="#331712"/>
<path d="M194.648 82.3848V82.7596C194.648 82.7596 197.258 84.7488 198.317 85.8948L198.764 85.83V85.5056L194.648 82.3848Z" fill="#58271E"/>
<path d="M186.812 88.2494V88.8404C186.812 88.8404 196.694 89.1143 201.617 93.6406V92.7397C201.617 92.7397 197.256 88.4656 186.812 88.2422V88.2494Z" fill="#58271E"/>
<path d="M194.647 82.3841C205.992 82.0453 212.234 87.5879 212.234 87.5879L201.595 92.7485C196.42 88.4095 186.806 88.251 186.806 88.251C186.806 88.251 191.404 85.7572 198.475 85.6058C198.475 85.6058 197.631 84.7842 196.673 83.9841C196.175 83.5733 194.647 82.3841 194.647 82.3841Z" fill="#B54735"/>
<path d="M222.548 109L309.038 156.209V159.092L222.548 111.523V109Z" fill="black"/>
<path d="M309.038 127.38V124.497L223.989 77.6484L221.106 79.0899L309.038 127.38Z" fill="#283B68"/>
<path d="M156.96 144.318L223.99 112.244L309.039 159.093L242.009 191.167L156.96 144.318Z" fill="#4966A8"/>
<path d="M156.96 141.437L223.99 109.363L309.039 156.212L242.009 188.646L156.96 141.437Z" fill="#233457"/>
<path d="M156.96 112.605L223.99 80.5312L309.039 127.38L242.009 159.454L156.96 112.605Z" fill="#3B548D"/>
<path d="M156.96 109.722L223.99 77.6484L309.039 124.497L242.009 156.571L156.96 109.722Z" fill="#FFBAAD"/>
<path d="M156.96 109.722L223.99 77.6484L309.039 124.497L242.009 156.571L156.96 109.722Z" fill="url(#paint0_linear_504_16133)"/>
<path d="M156.96 109.723V144.679L242.009 191.528V156.572L156.96 109.723Z" fill="#9A4E41"/>
<path d="M156.96 109.723V144.679L242.009 191.528V156.572L156.96 109.723Z" fill="url(#paint1_linear_504_16133)"/>
<path d="M308.318 156.571V127.381L242.369 158.373V188.645L308.318 156.571Z" fill="#E1E8FA"/>
<path d="M308.318 156.571V127.381L242.369 158.373V188.645L308.318 156.571Z" fill="url(#paint2_linear_504_16133)"/>
<path fill-rule="evenodd" clip-rule="evenodd" d="M309.039 124.498V127.381L243.811 158.59V187.773L309.039 156.211V159.094L242.009 191.528V156.572L309.039 124.498Z" fill="#7B3428"/>
<mask id="mask0_504_16133" style="mask-type:luminance" maskUnits="userSpaceOnUse" x="185" y="89" width="59" height="34">
<path d="M203.247 122.628L185.466 112.991L225.943 89.6172L243.724 99.2536L203.247 122.628Z" fill="white"/>
</mask>
<g mask="url(#mask0_504_16133)">
<path d="M198.563 114.491C198.498 114.527 198.441 114.563 198.369 114.599L196.386 115.616L191.399 112.682L193.374 111.666C195.046 110.815 196.848 110.981 198.311 111.853C199.752 112.689 200.005 113.662 198.563 114.498M186.087 112.646L200.898 121.36L203.695 119.918L198.866 117.079L201.288 115.832C201.41 115.767 201.533 115.702 201.648 115.637C204.38 114.059 204.041 112.033 201.201 110.368C198.282 108.653 194.448 108.336 191.384 109.922L186.094 112.646" fill="#4972CE"/>
<path d="M210.391 112.891C209.605 113.345 209.691 114.124 210.614 114.643C211.544 115.212 213.021 115.298 213.901 114.844C213.922 114.83 213.944 114.823 213.965 114.808C214.722 114.376 214.65 113.583 213.728 113.035C212.783 112.48 211.299 112.401 210.477 112.834C210.441 112.848 210.412 112.87 210.383 112.884" fill="#4972CE"/>
<path d="M215.212 105.908C215.147 105.944 215.083 105.98 215.011 106.016L213.036 107.032L208.041 104.091L210.016 103.075C211.688 102.225 213.49 102.391 214.953 103.263C216.394 104.099 216.654 105.072 215.212 105.901M202.729 104.048L217.54 112.769L220.337 111.328L215.508 108.488L217.93 107.241C218.052 107.176 218.167 107.111 218.276 107.054C221.014 105.475 220.676 103.45 217.836 101.778C214.917 100.062 211.082 99.7454 208.012 101.324L202.722 104.048" fill="#4972CE"/>
<path d="M214.563 97.957L229.382 106.678L232.135 105.258L217.324 96.5371L214.563 97.957Z" fill="#4972CE"/>
<path d="M234.225 96.8104L229.922 99.0303C228.748 98.2807 228.56 97.2573 229.692 96.6014C229.735 96.5725 229.785 96.5509 229.836 96.5221C231.054 95.8806 232.87 96.0176 234.233 96.8032M227.22 95.3689C224.567 96.8969 225.05 99.1672 228.373 101.113C231.883 103.189 235.984 103.506 239.098 101.913C239.206 101.856 239.314 101.798 239.415 101.74C241.606 100.472 241.858 98.915 240.265 97.56L237.642 98.915C238.016 99.4195 237.829 100.003 237 100.486C236.964 100.508 236.928 100.529 236.885 100.551C235.451 101.279 233.512 101.135 231.832 100.147L238.744 96.587L237.88 96.0824C234.096 93.8553 230.153 93.8481 227.501 95.2175C227.4 95.268 227.306 95.3184 227.212 95.3761" fill="#4972CE"/>
</g>
<defs>
<linearGradient id="paint0_linear_504_16133" x1="189.215" y1="100.98" x2="262.375" y2="114.03" gradientUnits="userSpaceOnUse">
<stop stop-color="#FF9C8A"/>
<stop offset="1" stop-color="#F5BDB3" stop-opacity="0"/>
</linearGradient>
<linearGradient id="paint1_linear_504_16133" x1="157.183" y1="110.076" x2="192.379" y2="150.413" gradientUnits="userSpaceOnUse">
<stop stop-color="#7B2B1E"/>
<stop offset="0.979729" stop-color="#9A4E41" stop-opacity="0"/>
</linearGradient>
<linearGradient id="paint2_linear_504_16133" x1="252.884" y1="149.227" x2="278.193" y2="172.559" gradientUnits="userSpaceOnUse">
<stop stop-opacity="0.47"/>
<stop offset="1" stop-color="white" stop-opacity="0"/>
</linearGradient>
</defs>
</svg>
