<svg width="351" height="265" viewBox="0 0 351 265" fill="none" xmlns="http://www.w3.org/2000/svg">
<rect x="0.995117" y="0.630859" width="350" height="264" fill="#2E4491"/>
<path d="M103.078 169.862L202.724 206.63L282.602 170.708L175.837 129.119L103.078 169.862Z" fill="#300901"/>
<path d="M117.675 162.159L221.034 198.51L284.101 170.48L180.742 134.129L117.675 162.159Z" fill="#B0B0B0"/>
<path d="M129.783 143.9L220.883 176.735L271.336 154.235L180.237 121.4L129.783 143.9Z" fill="#373943"/>
<path d="M180.303 126.829L271.403 159.663L271.402 150.321L180.303 117.486L180.303 126.829Z" fill="#4A4D5B"/>
<path d="M180.294 126.809L129.904 149.288L129.903 139.965L180.294 117.486L180.294 126.809Z" fill="#202129"/>
<path d="M180.294 126.809L178.033 127.821L173.151 120.663L180.294 117.486L180.294 126.809Z" fill="black"/>
<path d="M180.294 126.809L266.105 157.81V148.286L180.294 117.486L180.294 126.809Z" fill="black"/>
<path d="M180.293 126.809L261.424 156.061L258.251 157.2L178.037 127.822L180.293 126.809Z" fill="#21232C"/>
<path fill-rule="evenodd" clip-rule="evenodd" d="M221.034 177.486L117.675 141.135L180.742 113.105L284.101 149.456L221.034 177.486ZM220.95 172.818L129.851 139.984L180.304 117.484L271.404 150.318L220.95 172.818Z" fill="#FFD6CD"/>
<path fill-rule="evenodd" clip-rule="evenodd" d="M221.034 177.486L117.675 141.135L180.742 113.105L284.101 149.456L221.034 177.486ZM220.95 172.818L129.851 139.984L180.304 117.484L271.404 150.318L220.95 172.818Z" fill="url(#paint0_linear_515_13945)"/>
<path d="M117.675 141.135L221.034 177.479V198.508L117.675 162.157V141.135Z" fill="#6A2213"/>
<path d="M284.101 149.457L221.034 177.485V198.509L284.101 170.479V149.457Z" fill="#F7785C"/>
<path d="M163.599 134.684L236.721 162.108L241.576 159.569L167.17 132.93L163.599 134.684Z" fill="#21232C"/>
<path d="M165.589 131.115L238.81 158.082L238.809 160.663L165.589 133.697L165.589 131.115Z" fill="#6A68C8"/>
<path d="M165.589 131.115L238.809 158.082L241.739 156.555L168.518 129.588L165.589 131.115Z" fill="#B8B7F8"/>
<path d="M215.06 149.072L238.808 157.762L241.737 156.235L217.989 147.545L215.06 149.072Z" fill="#6E6BE2"/>
<path d="M223.209 151.713L233.929 155.727L235.57 154.876L224.85 150.861L223.209 151.713Z" fill="#1C4664"/>
<path d="M238.222 157.301L237.959 156.704L239.601 155.852L239.936 156.348L238.222 157.301Z" fill="#4745A9"/>
<path d="M223.534 151.35L237.962 156.706L238.222 157.306L233.814 155.676L233.571 155.369L223.207 151.497L223.534 151.35Z" fill="#6A68C8"/>
<path d="M223.532 151.35L237.96 156.706L239.601 155.854L225.173 150.498L223.532 151.35Z" fill="#B8B7F8"/>
<path d="M223.528 151.35L223.221 151.491L224.863 150.639L225.17 150.498L223.528 151.35Z" fill="#32688E"/>
<path d="M238.809 161.048L238.808 157.761L241.737 156.234L241.738 159.521L238.809 161.048Z" fill="#333180"/>
<path d="M215.06 149.07L238.818 157.785V161.074L215.06 152.31V149.07Z" fill="#4745A9"/>
<path d="M263.136 158.758L263.136 153.921L272.594 149.787L282.605 150.184L263.136 158.758Z" fill="#AE442E"/>
<path d="M278.877 172.807L263.116 158.729L284.169 149.449L284.102 170.48L278.877 172.807Z" fill="#300901"/>
<path d="M172.409 112.461L263.509 145.295L311.995 143.576L220.896 110.742L172.409 112.461Z" fill="#FFDBD3"/>
<path d="M172.409 112.461L263.509 145.295L311.995 143.576L220.896 110.742L172.409 112.461Z" fill="url(#paint1_linear_515_13945)"/>
<path d="M263.508 152.904V145.295L311.994 143.576L311.996 150.261L263.508 152.904Z" fill="#F7785C"/>
<path d="M263.521 152.921V145.312L172.41 112.459L172.412 119.143L263.521 152.921Z" fill="#6A2213"/>
<defs>
<linearGradient id="paint0_linear_515_13945" x1="246.52" y1="132.341" x2="235.073" y2="162.593" gradientUnits="userSpaceOnUse">
<stop stop-color="#E37033"/>
<stop offset="1" stop-color="#FF7A34" stop-opacity="0"/>
<stop offset="1" stop-color="#512D1A" stop-opacity="0"/>
</linearGradient>
<linearGradient id="paint1_linear_515_13945" x1="250.281" y1="115.171" x2="240.96" y2="138.556" gradientUnits="userSpaceOnUse">
<stop stop-color="#AE442E"/>
<stop offset="1" stop-color="#F7785C" stop-opacity="0"/>
</linearGradient>
</defs>
</svg>
