<svg width="351" height="265" viewBox="0 0 351 265" fill="none" xmlns="http://www.w3.org/2000/svg">
<rect x="0.995117" y="0.835938" width="350" height="264" fill="#C57E56"/>
<path d="M235.417 196.213L309.817 162.109L309.816 165.66L235.416 199.763L235.417 196.213Z" fill="#3C6388"/>
<path d="M235.413 196.184L132.564 150.951L132.563 154.502L235.412 199.734L235.413 196.184Z" fill="#2B4A67"/>
<path d="M217.202 207.786L114.354 162.553L132.558 154.496L235.407 199.729L217.202 207.786Z" fill="#1C3043"/>
<path d="M132.488 150.951L206.889 116.848L258.389 139.47L183.989 173.573L132.488 150.951Z" fill="#4D85B9"/>
<path d="M132.488 150.951L206.889 116.848L258.389 139.47L183.989 173.573L132.488 150.951Z" fill="url(#paint0_linear_515_13921)"/>
<path d="M183.916 173.572L258.316 139.469L309.817 162.091L235.417 196.195L183.916 173.572Z" fill="#4D85B9"/>
<path d="M183.916 173.572L258.316 139.469L309.817 162.091L235.417 196.195L183.916 173.572Z" fill="url(#paint1_linear_515_13921)"/>
<path d="M187.194 160.053L138.821 138.484L138.818 150.418L187.191 171.986L187.194 160.053Z" fill="#A5ABB0"/>
<path d="M187.194 160.053L138.821 138.484L138.818 150.418L187.191 171.986L187.194 160.053Z" fill="url(#paint2_linear_515_13921)"/>
<path d="M235.568 181.632L187.195 159.941V172.069L235.568 193.637V181.632Z" fill="#A5ABB0"/>
<path d="M235.568 181.632L187.195 159.941V172.069L235.568 193.637V181.632Z" fill="url(#paint3_linear_515_13921)"/>
<path d="M235.572 181.718L303.627 149.832L303.623 161.766L235.568 193.652L235.572 181.718Z" fill="#C9DDF0"/>
<path d="M235.611 181.605L138.821 138.503L206.896 106.723L303.646 149.83L235.611 181.605Z" fill="#F2F9FF"/>
<mask id="mask0_515_13921" style="mask-type:luminance" maskUnits="userSpaceOnUse" x="159" y="111" width="59" height="35">
<path d="M177.122 145.207L159.193 135.49L200.007 111.922L217.936 121.638L177.122 145.207Z" fill="white"/>
</mask>
<g mask="url(#mask0_515_13921)">
<path d="M172.398 137.002C172.333 137.039 172.275 137.075 172.202 137.112L170.203 138.136L165.174 135.178L167.166 134.154C168.852 133.296 170.669 133.463 172.144 134.343C173.597 135.186 173.852 136.167 172.398 137.01M159.818 135.142L174.753 143.928L177.573 142.475L172.703 139.611L175.145 138.354C175.269 138.289 175.392 138.223 175.509 138.158C178.263 136.566 177.921 134.524 175.058 132.846C172.115 131.116 168.249 130.796 165.16 132.395L159.826 135.142" fill="#D1DFEB"/>
<path d="M184.324 135.388C183.532 135.846 183.619 136.631 184.549 137.154C185.486 137.728 186.976 137.815 187.863 137.358C187.885 137.343 187.907 137.336 187.928 137.321C188.691 136.885 188.619 136.086 187.689 135.533C186.736 134.974 185.239 134.894 184.411 135.33C184.375 135.344 184.346 135.366 184.316 135.381" fill="#D1DFEB"/>
<path d="M189.185 128.347C189.12 128.383 189.054 128.42 188.982 128.456L186.99 129.481L181.954 126.516L183.945 125.491C185.631 124.633 187.448 124.8 188.924 125.68C190.377 126.523 190.639 127.504 189.185 128.34M176.598 126.472L191.533 135.266L194.352 133.812L189.483 130.949L191.925 129.691C192.049 129.626 192.165 129.561 192.274 129.502C195.035 127.911 194.694 125.869 191.831 124.183C188.887 122.453 185.021 122.133 181.925 123.725L176.591 126.472" fill="#D1DFEB"/>
<path d="M188.531 120.33L203.473 129.124L206.249 127.692L191.315 118.898L188.531 120.33Z" fill="#D1DFEB"/>
<path d="M208.357 119.175L204.019 121.414C202.834 120.658 202.645 119.626 203.786 118.964C203.83 118.935 203.881 118.914 203.931 118.884C205.16 118.238 206.991 118.376 208.365 119.168M201.293 117.722C198.619 119.262 199.106 121.552 202.456 123.514C205.995 125.607 210.13 125.927 213.27 124.32C213.379 124.262 213.488 124.204 213.59 124.146C215.799 122.867 216.053 121.297 214.447 119.931L211.802 121.297C212.18 121.806 211.991 122.395 211.155 122.882C211.119 122.903 211.083 122.925 211.039 122.947C209.593 123.681 207.638 123.536 205.944 122.54L212.914 118.95L212.042 118.441C208.226 116.196 204.251 116.188 201.577 117.569C201.475 117.62 201.381 117.671 201.286 117.729" fill="#D1DFEB"/>
</g>
<path d="M235.693 181.796L187.195 159.973L255.249 128.189L303.747 150.012L235.693 181.796Z" fill="#EAF5FF"/>
<path d="M235.693 181.796L187.195 159.973L255.249 128.189L303.747 150.012L235.693 181.796Z" fill="url(#paint4_linear_515_13921)"/>
<path d="M227.09 150.628L187.195 159.968L255.249 128.184L295.144 118.844L227.09 150.628Z" fill="#E4EEF7"/>
<path d="M227.09 150.628L187.195 159.968L255.249 128.184L295.144 118.844L227.09 150.628Z" fill="url(#paint5_linear_515_13921)"/>
<defs>
<linearGradient id="paint0_linear_515_13921" x1="180.089" y1="131.194" x2="195.439" y2="173.573" gradientUnits="userSpaceOnUse">
<stop stop-color="#4D85B9" stop-opacity="0"/>
<stop offset="1" stop-color="#2264A1"/>
</linearGradient>
<linearGradient id="paint1_linear_515_13921" x1="204.301" y1="160.112" x2="232.17" y2="181.898" gradientUnits="userSpaceOnUse">
<stop stop-color="#2264A2"/>
<stop offset="1" stop-color="#4D85B9" stop-opacity="0"/>
</linearGradient>
<linearGradient id="paint2_linear_515_13921" x1="187.195" y1="167.45" x2="138.818" y2="146.562" gradientUnits="userSpaceOnUse">
<stop stop-color="#82878B"/>
<stop offset="1" stop-color="#A5ABB0" stop-opacity="0"/>
</linearGradient>
<linearGradient id="paint3_linear_515_13921" x1="187.195" y1="166.666" x2="235.568" y2="189.034" gradientUnits="userSpaceOnUse">
<stop stop-color="#858C92"/>
<stop offset="1" stop-color="#A5ABB0" stop-opacity="0"/>
</linearGradient>
<linearGradient id="paint4_linear_515_13921" x1="229.302" y1="144.174" x2="239.19" y2="183.605" gradientUnits="userSpaceOnUse">
<stop stop-color="#A8B1B8"/>
<stop offset="1" stop-color="#EAF5FF" stop-opacity="0"/>
</linearGradient>
<linearGradient id="paint5_linear_515_13921" x1="226.602" y1="135.15" x2="239.448" y2="159.973" gradientUnits="userSpaceOnUse">
<stop stop-color="#C0C7CD"/>
<stop offset="1" stop-color="#E4EEF6" stop-opacity="0"/>
</linearGradient>
</defs>
</svg>
