<svg width="351" height="265" viewBox="0 0 351 265" fill="none" xmlns="http://www.w3.org/2000/svg">
<rect x="0.995117" y="0.871094" width="350" height="264" fill="#DC7D94"/>
<path d="M141.996 160.576L205.371 130.252L285.781 174.546L222.407 204.87L141.996 160.576Z" fill="#222D49"/>
<path d="M202.843 89.7559V90.1102C202.843 90.1102 205.31 91.991 206.311 93.0745L206.734 93.0132V92.7065L202.843 89.7559Z" fill="#1A2843"/>
<path d="M195.435 95.2998V95.8586C195.435 95.8586 204.777 96.1175 209.431 100.397V99.5452C209.431 99.5452 205.309 95.5042 195.435 95.293V95.2998Z" fill="#121D31"/>
<path d="M202.842 89.7543C213.568 89.4341 219.469 94.6744 219.469 94.6744L209.411 99.5535C204.518 95.4512 195.428 95.3013 195.428 95.3013C195.428 95.3013 199.775 92.9435 206.46 92.8004C206.46 92.8004 205.663 92.0236 204.757 91.2671C204.287 90.8787 202.842 89.7543 202.842 89.7543Z" fill="#283D6C"/>
<path d="M229.222 114.92L310.995 159.555V162.28L229.222 117.305V114.92Z" fill="black"/>
<path d="M310.995 132.297V129.571L230.584 85.2773L227.858 86.6402L310.995 132.297Z" fill="#283B68"/>
<path d="M167.21 148.311L230.584 117.986L310.995 162.28L247.621 192.605L167.21 148.311Z" fill="#4966A8"/>
<path d="M167.21 145.586L230.584 115.262L310.995 159.556L247.621 190.221L167.21 145.586Z" fill="#233457"/>
<path d="M167.21 118.326L230.584 88.002L310.995 132.296L247.621 162.62L167.21 118.326Z" fill="#3B548D"/>
<path d="M167.21 115.602L230.584 85.2773L310.995 129.571L247.621 159.896L167.21 115.602Z" fill="#5C7CC5"/>
<path d="M167.21 115.602L230.584 85.2773L310.995 129.571L247.621 159.896L167.21 115.602Z" fill="url(#paint0_linear_516_14699)"/>
<path d="M167.21 115.602V148.652L247.621 192.946V159.896L167.21 115.602Z" fill="#243969"/>
<path d="M167.21 115.602V148.652L247.621 192.946V159.896L167.21 115.602Z" fill="url(#paint1_linear_516_14699)"/>
<path d="M310.313 159.895V132.297L247.961 161.599V190.22L310.313 159.895Z" fill="#E1E8FA"/>
<path d="M310.313 159.895V132.297L247.961 161.599V190.22L310.313 159.895Z" fill="url(#paint2_linear_516_14699)"/>
<path fill-rule="evenodd" clip-rule="evenodd" d="M310.995 129.572V132.298L249.324 161.805V189.396L310.995 159.556V162.282L247.62 192.947V159.897L310.995 129.572Z" fill="#2C4071"/>
<mask id="mask0_516_14699" style="mask-type:luminance" maskUnits="userSpaceOnUse" x="194" y="96" width="56" height="32">
<path d="M210.973 127.802L194.162 118.691L232.432 96.5918L249.243 105.703L210.973 127.802Z" fill="white"/>
</mask>
<g mask="url(#mask0_516_14699)">
<path d="M206.544 120.11C206.483 120.144 206.428 120.178 206.36 120.212L204.486 121.173L199.77 118.399L201.637 117.438C203.218 116.634 204.922 116.791 206.305 117.615C207.668 118.406 207.907 119.326 206.544 120.116M194.748 118.365L208.752 126.604L211.396 125.241L206.83 122.556L209.12 121.377C209.236 121.316 209.351 121.254 209.46 121.193C212.043 119.701 211.723 117.786 209.038 116.212C206.278 114.59 202.653 114.29 199.757 115.789L194.755 118.365" fill="#FC7B72"/>
<path d="M217.726 118.596C216.983 119.025 217.065 119.761 217.937 120.251C218.816 120.79 220.213 120.872 221.044 120.442C221.065 120.429 221.085 120.422 221.106 120.408C221.821 119.999 221.753 119.25 220.881 118.732C219.988 118.207 218.584 118.132 217.807 118.541C217.773 118.555 217.746 118.575 217.719 118.589" fill="#FC7B72"/>
<path d="M222.285 111.994C222.224 112.029 222.162 112.063 222.094 112.097L220.227 113.058L215.505 110.277L217.372 109.316C218.953 108.512 220.656 108.669 222.04 109.494C223.403 110.284 223.648 111.204 222.285 111.988M210.482 110.236L224.486 118.482L227.13 117.119L222.564 114.434L224.854 113.255C224.97 113.194 225.079 113.133 225.181 113.078C227.771 111.586 227.45 109.671 224.766 108.09C222.006 106.468 218.38 106.168 215.477 107.66L210.476 110.236" fill="#FC7B72"/>
<path d="M221.672 104.477L235.682 112.723L238.286 111.38L224.282 103.135L221.672 104.477Z" fill="#FC7B72"/>
<path d="M240.262 103.393L236.194 105.492C235.083 104.783 234.906 103.816 235.976 103.196C236.017 103.168 236.064 103.148 236.112 103.121C237.264 102.514 238.981 102.644 240.269 103.386M233.638 102.03C231.131 103.475 231.587 105.621 234.729 107.461C238.047 109.424 241.925 109.724 244.869 108.218C244.971 108.163 245.073 108.109 245.168 108.054C247.24 106.855 247.478 105.383 245.972 104.102L243.492 105.383C243.846 105.86 243.669 106.412 242.886 106.869C242.851 106.889 242.817 106.909 242.776 106.93C241.42 107.618 239.587 107.482 238 106.548L244.535 103.182L243.717 102.705C240.139 100.599 236.412 100.592 233.904 101.887C233.809 101.935 233.72 101.983 233.631 102.037" fill="#FC7B72"/>
</g>
<defs>
<linearGradient id="paint0_linear_516_14699" x1="197.706" y1="107.337" x2="266.876" y2="119.675" gradientUnits="userSpaceOnUse">
<stop stop-color="#4061AA"/>
<stop offset="1" stop-color="#5C7CC5" stop-opacity="0"/>
</linearGradient>
<linearGradient id="paint1_linear_516_14699" x1="167.421" y1="115.936" x2="200.697" y2="154.073" gradientUnits="userSpaceOnUse">
<stop stop-color="#1E3265"/>
<stop offset="0.979729" stop-color="#222D49" stop-opacity="0"/>
</linearGradient>
<linearGradient id="paint2_linear_516_14699" x1="257.902" y1="152.951" x2="281.831" y2="175.011" gradientUnits="userSpaceOnUse">
<stop stop-opacity="0.47"/>
<stop offset="1" stop-color="white" stop-opacity="0"/>
</linearGradient>
</defs>
</svg>
