<svg width="351" height="265" viewBox="0 0 351 265" fill="none" xmlns="http://www.w3.org/2000/svg">
<rect x="0.995117" y="0.207031" width="350" height="264" fill="#D38D8D"/>
<path d="M235.417 195.584L309.817 161.48L309.816 165.031L235.416 199.134L235.417 195.584Z" fill="#3C6388"/>
<path d="M235.413 195.555L132.564 150.322L132.563 153.873L235.412 199.105L235.413 195.555Z" fill="#2B4A67"/>
<path d="M217.202 207.157L114.354 161.924L132.558 153.867L235.407 199.1L217.202 207.157Z" fill="#1C3043"/>
<path d="M132.488 150.322L206.889 116.219L258.389 138.841L183.989 172.945L132.488 150.322Z" fill="#4D85B9"/>
<path d="M132.488 150.322L206.889 116.219L258.389 138.841L183.989 172.945L132.488 150.322Z" fill="url(#paint0_linear_504_16136)"/>
<path d="M183.916 172.943L258.316 138.84L309.817 161.462L235.417 195.566L183.916 172.943Z" fill="#4D85B9"/>
<path d="M183.916 172.943L258.316 138.84L309.817 161.462L235.417 195.566L183.916 172.943Z" fill="url(#paint1_linear_504_16136)"/>
<path d="M187.194 159.424L138.821 137.855L138.818 149.789L187.191 171.357L187.194 159.424Z" fill="#A5ABB0"/>
<path d="M187.194 159.424L138.821 137.855L138.818 149.789L187.191 171.357L187.194 159.424Z" fill="url(#paint2_linear_504_16136)"/>
<path d="M235.568 181.003L187.195 159.312V171.44L235.568 193.008V181.003Z" fill="#A5ABB0"/>
<path d="M235.568 181.003L187.195 159.312V171.44L235.568 193.008V181.003Z" fill="url(#paint3_linear_504_16136)"/>
<path d="M235.572 181.09L303.627 149.203L303.623 161.137L235.568 193.023L235.572 181.09Z" fill="#C9DDF0"/>
<path d="M235.611 180.976L138.821 137.874L206.896 106.094L303.646 149.201L235.611 180.976Z" fill="#F2F9FF"/>
<mask id="mask0_504_16136" style="mask-type:luminance" maskUnits="userSpaceOnUse" x="159" y="111" width="59" height="34">
<path d="M177.122 144.578L159.193 134.861L200.007 111.293L217.936 121.009L177.122 144.578Z" fill="white"/>
</mask>
<g mask="url(#mask0_504_16136)">
<path d="M172.398 136.374C172.333 136.41 172.275 136.446 172.202 136.483L170.203 137.507L165.174 134.549L167.166 133.525C168.852 132.667 170.669 132.834 172.144 133.714C173.597 134.557 173.852 135.538 172.398 136.381M159.818 134.513L174.753 143.299L177.573 141.846L172.703 138.983L175.145 137.725C175.269 137.66 175.392 137.595 175.509 137.529C178.263 135.938 177.921 133.895 175.058 132.217C172.115 130.487 168.249 130.167 165.16 131.766L159.826 134.513" fill="#D1DFEB"/>
<path d="M184.324 134.759C183.532 135.217 183.619 136.002 184.549 136.525C185.486 137.099 186.976 137.186 187.863 136.729C187.885 136.714 187.907 136.707 187.928 136.692C188.691 136.256 188.619 135.457 187.689 134.905C186.736 134.345 185.239 134.265 184.411 134.701C184.375 134.716 184.346 134.737 184.316 134.752" fill="#D1DFEB"/>
<path d="M189.185 127.718C189.12 127.754 189.054 127.791 188.982 127.827L186.99 128.852L181.954 125.887L183.945 124.862C185.631 124.004 187.448 124.172 188.924 125.051C190.377 125.894 190.639 126.875 189.185 127.711M176.598 125.843L191.533 134.637L194.352 133.183L189.483 130.32L191.925 129.063C192.049 128.997 192.165 128.932 192.274 128.874C195.035 127.282 194.694 125.24 191.831 123.554C188.887 121.824 185.021 121.504 181.925 123.096L176.591 125.843" fill="#D1DFEB"/>
<path d="M188.531 119.701L203.473 128.495L206.249 127.063L191.315 118.27L188.531 119.701Z" fill="#D1DFEB"/>
<path d="M208.357 118.546L204.019 120.785C202.834 120.029 202.645 118.997 203.786 118.335C203.83 118.306 203.881 118.285 203.931 118.256C205.16 117.609 206.991 117.747 208.365 118.539M201.293 117.093C198.619 118.633 199.106 120.923 202.456 122.885C205.995 124.978 210.13 125.298 213.27 123.692C213.379 123.633 213.488 123.575 213.59 123.517C215.799 122.238 216.053 120.668 214.447 119.302L211.802 120.668C212.18 121.177 211.991 121.766 211.155 122.253C211.119 122.274 211.083 122.296 211.039 122.318C209.593 123.052 207.638 122.907 205.944 121.911L212.914 118.321L212.042 117.812C208.226 115.567 204.251 115.559 201.577 116.94C201.475 116.991 201.381 117.042 201.286 117.1" fill="#D1DFEB"/>
</g>
<path d="M235.693 181.167L187.195 159.345L255.249 127.561L303.747 149.383L235.693 181.167Z" fill="#EAF5FF"/>
<path d="M235.693 181.167L187.195 159.345L255.249 127.561L303.747 149.383L235.693 181.167Z" fill="url(#paint4_linear_504_16136)"/>
<path d="M227.09 149.999L187.195 159.339L255.249 127.555L295.144 118.215L227.09 149.999Z" fill="#E4EEF7"/>
<path d="M227.09 149.999L187.195 159.339L255.249 127.555L295.144 118.215L227.09 149.999Z" fill="url(#paint5_linear_504_16136)"/>
<defs>
<linearGradient id="paint0_linear_504_16136" x1="180.089" y1="130.565" x2="195.439" y2="172.945" gradientUnits="userSpaceOnUse">
<stop stop-color="#4D85B9" stop-opacity="0"/>
<stop offset="1" stop-color="#2264A1"/>
</linearGradient>
<linearGradient id="paint1_linear_504_16136" x1="204.301" y1="159.483" x2="232.17" y2="181.269" gradientUnits="userSpaceOnUse">
<stop stop-color="#2264A2"/>
<stop offset="1" stop-color="#4D85B9" stop-opacity="0"/>
</linearGradient>
<linearGradient id="paint2_linear_504_16136" x1="187.195" y1="166.821" x2="138.818" y2="145.933" gradientUnits="userSpaceOnUse">
<stop stop-color="#82878B"/>
<stop offset="1" stop-color="#A5ABB0" stop-opacity="0"/>
</linearGradient>
<linearGradient id="paint3_linear_504_16136" x1="187.195" y1="166.038" x2="235.568" y2="188.405" gradientUnits="userSpaceOnUse">
<stop stop-color="#858C92"/>
<stop offset="1" stop-color="#A5ABB0" stop-opacity="0"/>
</linearGradient>
<linearGradient id="paint4_linear_504_16136" x1="229.302" y1="143.545" x2="239.19" y2="182.976" gradientUnits="userSpaceOnUse">
<stop stop-color="#A8B1B8"/>
<stop offset="1" stop-color="#EAF5FF" stop-opacity="0"/>
</linearGradient>
<linearGradient id="paint5_linear_504_16136" x1="226.602" y1="134.521" x2="239.448" y2="159.344" gradientUnits="userSpaceOnUse">
<stop stop-color="#C0C7CD"/>
<stop offset="1" stop-color="#E4EEF6" stop-opacity="0"/>
</linearGradient>
</defs>
</svg>
