<svg width="351" height="265" viewBox="0 0 351 265" fill="none" xmlns="http://www.w3.org/2000/svg">
<rect x="0.886719" y="0.648438" width="350" height="264" fill="#464497"/>
<path d="M208.961 187.163C217.75 191.683 226.935 192.378 232.769 192.378C237.63 192.103 239.407 189.775 239.244 188.765C238.947 186.933 239.591 185.791 237.062 183.044C234.533 180.297 219.797 170.912 212.649 167.822C205.501 164.731 197.686 163.401 194.724 166.334C192.668 168.368 193.069 171.879 194.724 175.024C196.007 177.466 201.462 183.307 208.961 187.163Z" fill="#0F0D22"/>
<path d="M263.014 148.939C274.028 155.753 283.056 155.156 286.93 155.156C293.507 154.953 295.68 152.018 295.528 151.136C295.253 149.534 295.85 148.535 293.507 146.133C291.163 143.731 277.51 135.525 270.887 132.822L270.857 132.81C264.237 130.109 255.353 126.485 252.612 129.045C250.707 130.824 251.563 136.314 253.096 139.063C254.629 141.813 256.456 144.882 263.014 148.939Z" fill="#0F0D22"/>
<path d="M178.87 143.827C177.493 141.963 175.887 138.113 175.887 134.581C176.073 129.717 177.354 132.856 178.325 132.856C179.296 132.856 181.525 136.903 182.173 140.321C182.82 143.738 198.211 160.315 185.669 151.031C182.406 148.616 180.226 145.664 178.889 143.852L178.87 143.827Z" fill="#0F0D22"/>
<path d="M176.383 135.003C176.849 144.962 190.409 154.766 197.13 158.423L196.861 147.141C194.636 145.604 189.521 142.579 183.217 136.964C178.174 132.471 176.56 124.461 176.383 121.018V135.003Z" fill="#1F1753"/>
<path d="M197.151 158.442L196.873 147.417L198.979 145.889L199.094 156.637L197.151 158.442Z" fill="black"/>
<path d="M197.485 156.643L197.299 149.009L198.651 147.902L198.755 155.493L197.485 156.643Z" fill="#A3A3A3"/>
<path d="M197.485 156.64L197.299 149.006L203.666 152.565L202.769 159.597L197.485 156.64Z" fill="#3B3563"/>
<path d="M291.299 145.268C292.113 146.51 292.274 149.466 291.297 151.745" stroke="#29292C" stroke-width="0.2" stroke-linecap="round"/>
<path d="M293.045 146.385C293.406 147.151 293.912 149.214 293.045 151.341" stroke="#29292C" stroke-width="0.2" stroke-linecap="round"/>
<path d="M303.377 139.395C304.541 139.599 306.679 140.735 305.919 143.639" stroke="#29292C" stroke-width="0.2" stroke-linecap="round"/>
<path d="M304.947 141.277C305.244 141.564 305.748 142.57 305.392 144.303" stroke="#29292C" stroke-width="0.2" stroke-linecap="round"/>
<path d="M305.777 128.521C306.262 128.283 307.362 127.838 307.884 127.957" stroke="#29292C" stroke-width="0.2" stroke-linecap="round"/>
<path d="M306.225 127.128C306.462 126.999 307.043 126.742 307.47 126.742" stroke="#29292C" stroke-width="0.2" stroke-linecap="round"/>
<path d="M302.168 133.053C302.754 132.852 304.078 132.571 304.681 133.053" stroke="#29292C" stroke-width="0.2" stroke-linecap="round"/>
<path d="M302.312 132.246C302.52 132.059 303.279 131.676 304.65 131.639" stroke="#29292C" stroke-width="0.2" stroke-linecap="round"/>
<path d="M275.751 112.671C275.76 111.819 275.591 109.854 274.842 108.809" stroke="#29292C" stroke-width="0.2" stroke-linecap="round"/>
<path d="M276.259 112.531C276.439 111.575 276.589 109.282 275.748 107.76" stroke="#29292C" stroke-width="0.2" stroke-linecap="round"/>
<path d="M292.299 116.912C292.463 116.178 293.061 114.595 294.139 114.129" stroke="#29292C" stroke-width="0.2" stroke-linecap="round"/>
<path d="M292.863 117.466C293.077 116.751 293.872 115.124 295.348 114.342" stroke="#29292C" stroke-width="0.2" stroke-linecap="round"/>
<path d="M243.345 189.157C243.063 189.358 242.209 189.576 241.047 188.834" stroke="#29292C" stroke-width="0.2" stroke-linecap="round"/>
<path d="M244.122 188.493C243.851 188.639 243.161 188.789 242.564 188.221" stroke="#29292C" stroke-width="0.2" stroke-linecap="round"/>
<path d="M250.048 177.148C249.642 177.25 248.436 177.392 246.865 177.148" stroke="#29292C" stroke-width="0.2" stroke-linecap="round"/>
<path d="M250.149 176.336C249.721 176.449 248.6 176.606 247.543 176.336" stroke="#29292C" stroke-width="0.2" stroke-linecap="round"/>
<path d="M243.234 183.344C243.489 183.785 244.258 184.712 245.298 184.891" stroke="#29292C" stroke-width="0.2" stroke-linecap="round"/>
<path d="M243.482 182.828C243.632 183.187 244.169 183.936 245.12 184.062" stroke="#29292C" stroke-width="0.2" stroke-linecap="round"/>
<path d="M224.16 141.848C219.453 141.35 215.554 144.132 214.193 145.585C218.023 157.928 223.138 183.627 223.692 187.448C224.384 192.223 239.066 193.232 243.288 189.356C246.731 186.557 249.952 181.148 250.461 174.032C250.876 168.221 247.415 157.836 241.878 151.607C236.341 145.378 230.043 142.47 224.16 141.848Z" fill="#141414"/>
<path d="M215.68 144.552C213.641 145.058 213.499 146.355 212.836 147.205C219.253 161.54 231.044 190.065 233.145 190.725C235.772 191.551 241.76 187.988 243.795 181.487C245.623 176.458 244.735 169.554 243.181 165.315C240.178 157.123 234.076 150.192 228.075 146.721C221.959 143.183 216.585 144.327 215.68 144.552Z" fill="#BBB7D1"/>
<path d="M214.226 145.233L205.309 150.708C205.226 158.52 206.448 175.591 211.998 181.375C218.936 188.606 224.945 190.219 230.173 191.049C235.401 191.88 238.708 188.226 239.695 187.042L239.723 187.008C241.124 185.328 244.695 181.047 243.552 171.031C240.847 158.553 232.925 151.299 227.417 147.762C222.537 144.629 216.66 144.597 214.226 145.233Z" fill="#3F3A5A"/>
<path d="M203.744 152.605L197.299 149.009L198.651 147.902L205.014 151.455L203.744 152.605Z" fill="#CFC8FF"/>
<path d="M258.839 122.594L258.836 108.017L260.662 106.146L260.665 120.87L258.839 122.594Z" fill="#A9A9A9"/>
<path d="M196.21 119.766C187.576 124.244 183.27 131.92 184.266 136.033C181.018 132.778 179.826 131.151 179.512 129.632C178.516 126.095 176.611 120.18 181.388 115.339C187.361 109.289 194.56 105.638 205.354 103.089C214.431 100.946 226.752 100.129 238.457 101.717C247.972 103.007 256.454 105.952 258.838 107.707V122.452C255.474 121.36 252.224 119.738 236.507 116.359C220.79 112.981 206.407 114.478 196.21 119.766Z" fill="black"/>
<path d="M210.03 149.14C201.161 149.643 200.837 159.687 201.424 164.754C202.429 170.324 205.187 174.429 208.355 178.245C218.429 189.854 227.701 187.967 229.797 186.872C232.016 185.713 237.394 180.791 235.912 172.507C234.772 166.142 229.314 159.372 226.949 156.97C224.544 154.527 218.259 148.673 210.03 149.14Z" fill="#1F1753"/>
<path d="M210.31 154.306C201.13 154.45 201.415 162.977 202.705 167.222C205.856 176.449 214.011 182.828 217.24 184.23C220.91 185.823 228.715 185.445 230.56 180.135C232.405 174.825 230.088 169.728 229.651 168.767C229.428 168.276 221.785 154.127 210.31 154.306Z" fill="#988DDB"/>
<path d="M265.601 113.408L259.156 109.812L260.509 108.705L266.871 112.258L265.601 113.408Z" fill="#D2D2D2"/>
<path d="M259.342 120.01L259.156 109.811L265.523 113.37L264.626 122.966L259.342 120.01Z" fill="#989898"/>
<path d="M198.995 145.886L196.871 147.414C185.002 141.328 179.544 134.117 177.637 128.998C174.086 119.467 179.119 114.712 182.079 111.958C185.488 108.515 195.312 101.827 209.053 100.044C216.312 99.1025 222.095 98.5448 230.582 99.04C247.348 100.292 257.611 104.291 260.654 106.146L258.815 108.031C256.867 106.918 249.828 104.625 246.407 103.852C241.339 102.799 228.747 100.881 218.923 101.63C206.642 102.565 201.307 104.028 198.968 104.964C196.628 105.899 190.28 107.849 185.095 112.293C180.448 116.276 179.216 118.618 178.855 120.987C177.72 132.776 192.226 142.6 198.995 145.886Z" fill="#CFC8FF"/>
<path d="M253.522 130.843C253.412 129.69 254.436 126.11 254.962 124.465L256.54 127.414L263.811 138.595C268.75 141.567 278.682 147.553 278.902 147.718C279.121 147.882 291.706 147.146 297.971 146.758C300.875 144.654 306.435 141.133 305.448 143.877C304.213 147.306 299 155.4 283.841 154.783C268.681 154.166 260.505 145.74 257.279 141.387C254.255 137.307 253.659 132.284 253.522 130.843Z" fill="#3F3A5A"/>
<ellipse cx="281.563" cy="129.524" rx="28.4142" ry="21.2907" transform="rotate(22.8984 281.563 129.524)" fill="#141414"/>
<path d="M263.41 142.828C263.528 142.048 263.991 140.306 264.897 139.57" stroke="#29292C" stroke-width="0.2" stroke-linecap="round"/>
<ellipse cx="282.093" cy="125.979" rx="13.3341" ry="8.10345" transform="rotate(22.8984 282.093 125.979)" fill="#534B7E"/>
<ellipse cx="283.419" cy="127.817" rx="11.3973" ry="6.92638" transform="rotate(22.8984 283.419 127.817)" fill="#141414"/>
<path fill-rule="evenodd" clip-rule="evenodd" d="M278.708 137.433C288.846 141.715 299.174 140.192 301.777 134.03C304.379 127.869 298.27 119.403 288.132 115.121C277.993 110.838 267.665 112.362 265.063 118.523C262.46 124.684 268.569 133.15 278.708 137.433ZM280.725 132.658C286.523 135.107 292.431 134.236 293.919 130.712C295.408 127.188 291.914 122.346 286.115 119.897C280.317 117.448 274.409 118.319 272.921 121.843C271.432 125.367 274.926 130.209 280.725 132.658Z" fill="#988DDB"/>
<path d="M254.328 127.24C254.627 126.078 255.684 123.551 257.514 122.746" stroke="#29292C" stroke-width="0.2" stroke-linecap="round"/>
<path d="M254.879 129.941C255.02 128.903 255.594 126.683 256.755 126.117" stroke="#29292C" stroke-width="0.2" stroke-linecap="round"/>
<path d="M262.527 142.121C262.775 140.846 263.788 137.908 265.855 136.35" stroke="#29292C" stroke-width="0.2" stroke-linecap="round"/>
<path d="M261.693 141.327C261.759 140.115 262.377 137.466 264.322 136.562" stroke="#29292C" stroke-width="0.2" stroke-linecap="round"/>
<path d="M278.684 137.496C278.705 138.324 278.534 140.264 277.678 141.397" stroke="#29292C" stroke-width="0.2" stroke-linecap="round"/>
<path d="M279.479 137.84C279.573 138.176 279.705 139.036 279.479 139.79" stroke="#29292C" stroke-width="0.2" stroke-linecap="round"/>
<path d="M237.002 147.197C236.646 147.248 235.878 147.507 235.658 148.143" stroke="#29292C" stroke-width="0.2" stroke-linecap="round"/>
<path d="M236.421 146.727C235.87 146.916 234.654 147.493 234.201 148.286" stroke="#29292C" stroke-width="0.2" stroke-linecap="round"/>
<path d="M246.449 159.025C246.03 159.154 244.95 159.556 243.982 160.137" stroke="#29292C" stroke-width="0.2" stroke-linecap="round"/>
<path d="M246.923 159.648C246.6 159.757 245.818 160.077 245.27 160.496" stroke="#29292C" stroke-width="0.2" stroke-linecap="round"/>
<path d="M221.45 144.237C221.406 143.824 221.55 142.887 222.48 142.443" stroke="#29292C" stroke-width="0.2" stroke-linecap="round"/>
<path d="M221.979 144.397C222.005 144.089 222.191 143.409 222.718 143.156" stroke="#29292C" stroke-width="0.2" stroke-linecap="round"/>
<path d="M229.924 147.748C230.047 147.379 230.446 146.613 231.059 146.508" stroke="#29292C" stroke-width="0.2" stroke-linecap="round"/>
<path d="M238.764 156.669C239.063 156.274 239.856 155.451 240.637 155.324" stroke="#29292C" stroke-width="0.2" stroke-linecap="round"/>
<path d="M238.975 156.986C239.256 156.704 239.935 156.109 240.4 155.982" stroke="#29292C" stroke-width="0.2" stroke-linecap="round"/>
<path d="M206.081 166.626L209.537 161.744L211.452 163.1C212.561 163.885 212.714 165.021 212.034 165.982C211.344 166.956 210.221 167.169 209.095 166.371L208.219 165.751L207.092 167.342L206.081 166.626ZM208.796 164.935L209.511 165.441C210.111 165.866 210.643 165.736 210.988 165.242C211.336 164.759 211.274 164.224 210.676 163.796L209.961 163.29L208.796 164.935Z" fill="#AAA0E7"/>
<path d="M210.677 169.971C210.36 169.747 210.283 169.313 210.511 169.004C210.724 168.689 211.159 168.617 211.474 168.845C211.776 169.054 211.857 169.491 211.637 169.801C211.415 170.115 210.977 170.184 210.677 169.971Z" fill="#AAA0E7"/>
<path d="M212.102 170.889L215.558 166.007L217.473 167.363C218.582 168.149 218.735 169.284 218.055 170.245C217.365 171.219 216.243 171.432 215.117 170.635L214.24 170.014L213.113 171.605L212.102 170.889ZM214.818 169.198L215.532 169.704C216.132 170.129 216.665 170 217.01 169.505C217.357 169.022 217.295 168.487 216.697 168.059L215.983 167.553L214.818 169.198Z" fill="#AAA0E7"/>
<path d="M220.838 169.746L217.381 174.627L216.384 173.921L219.84 169.039L220.838 169.746Z" fill="#AAA0E7"/>
<path d="M219.763 176.425C218.643 175.627 218.468 174.415 219.293 173.258C220.089 172.126 221.329 171.855 222.401 172.614C223.362 173.294 223.691 174.438 222.807 175.685L222.607 175.968L220.105 174.197C219.714 174.75 219.8 175.322 220.313 175.691C220.656 175.929 221.004 175.952 221.257 175.802L222.208 176.475C221.586 177.053 220.669 177.061 219.763 176.425ZM220.549 173.57L222.107 174.673C222.419 174.226 222.339 173.688 221.891 173.376C221.435 173.048 220.868 173.163 220.549 173.57Z" fill="#AAA0E7"/>
</svg>
