<svg width="351" height="265" viewBox="0 0 351 265" fill="none" xmlns="http://www.w3.org/2000/svg">
<rect x="0.886719" y="0.601562" width="350" height="264" fill="#44976F"/>
<path d="M209.064 187.159C217.398 191.445 226.108 192.103 231.639 192.103C236.249 191.842 237.934 189.635 237.779 188.678C237.497 186.94 238.109 185.857 235.71 183.252C233.312 180.648 219.339 171.748 212.561 168.818C205.783 165.888 198.373 164.627 195.563 167.407C193.614 169.337 193.995 172.666 195.563 175.648C196.78 177.963 201.953 183.502 209.064 187.159Z" fill="#0F0D22"/>
<path d="M260.317 150.913C270.762 157.374 279.322 156.808 282.995 156.808C289.232 156.616 291.292 153.833 291.149 152.996C290.888 151.477 291.454 150.53 289.232 148.252C287.01 145.974 274.063 138.193 267.782 135.631L267.754 135.619C261.477 133.058 253.053 129.621 250.454 132.048C248.647 133.736 249.459 138.941 250.913 141.548C252.367 144.156 254.099 147.066 260.317 150.913Z" fill="#0F0D22"/>
<path d="M180.53 146.067C179.225 144.299 177.701 140.649 177.701 137.299C177.878 132.687 179.092 135.664 180.013 135.664C180.934 135.664 183.048 139.501 183.662 142.742C184.276 145.983 198.87 161.701 186.977 152.898C183.883 150.608 181.816 147.809 180.548 146.091L180.53 146.067Z" fill="#0F0D22"/>
<path d="M206.332 167.686L209.609 163.057L211.425 164.342C212.477 165.087 212.622 166.164 211.977 167.075C211.322 167.999 210.258 168.2 209.19 167.444L208.359 166.856L207.291 168.365L206.332 167.686ZM208.907 166.082L209.585 166.562C210.154 166.965 210.658 166.842 210.986 166.373C211.315 165.915 211.256 165.408 210.689 165.002L210.012 164.522L208.907 166.082Z" fill="#AAA0E7"/>
<path d="M210.69 170.858C210.389 170.645 210.316 170.233 210.533 169.94C210.735 169.642 211.148 169.574 211.446 169.79C211.733 169.988 211.809 170.402 211.601 170.696C211.39 170.994 210.974 171.059 210.69 170.858Z" fill="#AAA0E7"/>
<path d="M212.041 171.728L215.319 167.099L217.135 168.385C218.187 169.13 218.331 170.206 217.686 171.117C217.032 172.041 215.968 172.243 214.9 171.487L214.069 170.898L213 172.407L212.041 171.728ZM214.617 170.125L215.294 170.605C215.863 171.008 216.368 170.885 216.695 170.416C217.024 169.958 216.966 169.451 216.399 169.045L215.721 168.565L214.617 170.125Z" fill="#AAA0E7"/>
<path d="M220.325 170.644L217.048 175.273L216.101 174.603L219.379 169.974L220.325 170.644Z" fill="#AAA0E7"/>
<path d="M219.306 176.978C218.244 176.221 218.078 175.071 218.86 173.974C219.615 172.901 220.791 172.644 221.807 173.363C222.718 174.009 223.03 175.093 222.193 176.276L222.003 176.545L219.631 174.865C219.259 175.389 219.341 175.932 219.828 176.281C220.153 176.507 220.483 176.529 220.722 176.387L221.624 177.025C221.035 177.573 220.165 177.581 219.306 176.978ZM220.052 174.271L221.529 175.316C221.824 174.892 221.748 174.382 221.324 174.087C220.891 173.776 220.354 173.885 220.052 174.271Z" fill="#AAA0E7"/>
<path d="M211.309 187.771C219.355 191.746 227.764 192.357 233.104 192.357C237.554 192.115 239.181 190.067 239.031 189.179C238.76 187.568 239.35 186.563 237.034 184.147C234.719 181.731 221.229 173.476 214.685 170.758C208.141 168.04 200.988 166.87 198.276 169.449C196.393 171.239 196.761 174.327 198.275 177.093C199.45 179.241 204.444 184.378 211.309 187.771Z" fill="#17161E"/>
<path d="M264.077 148.294C274.96 155.149 283.879 154.547 287.707 154.547C294.205 154.344 296.352 151.392 296.202 150.504C295.93 148.892 296.52 147.887 294.205 145.471C291.889 143.055 278.399 134.8 271.856 132.082L271.826 132.07C265.285 129.353 256.508 125.707 253.8 128.282C251.918 130.072 252.764 135.594 254.279 138.36C255.793 141.126 257.598 144.213 264.077 148.294Z" fill="#17161E"/>
<path d="M177.894 143.083C176.72 141.448 175.35 138.071 175.35 134.972C175.508 130.704 176.601 133.458 177.429 133.458C178.258 133.458 180.159 137.009 180.712 140.007C181.264 143.006 194.392 157.549 183.694 149.404C180.91 147.285 179.051 144.695 177.91 143.106L177.894 143.083Z" fill="#17161E"/>
<path d="M175.18 134.082C175.653 144.198 189.426 154.156 196.254 157.871L195.98 146.411C193.72 144.85 188.525 141.778 182.121 136.074C176.999 131.511 175.359 123.375 175.18 119.877V134.082Z" fill="#8D3D02"/>
<path d="M196.273 157.888L195.99 146.689L198.129 145.137L198.246 156.054L196.273 157.888Z" fill="black"/>
<path d="M196.617 156.06L196.428 148.306L197.802 147.182L197.907 154.892L196.617 156.06Z" fill="#A3A3A3"/>
<path d="M196.617 156.055L196.428 148.301L202.895 151.916L201.984 159.059L196.617 156.055Z" fill="#B66021"/>
<path d="M291.904 144.506C292.731 145.768 292.895 148.771 291.902 151.085" stroke="#29292C" stroke-width="0.2" stroke-linecap="round"/>
<path d="M293.68 145.639C294.047 146.417 294.56 148.513 293.68 150.673" stroke="#29292C" stroke-width="0.2" stroke-linecap="round"/>
<path d="M304.17 138.541C305.352 138.749 307.524 139.902 306.752 142.853" stroke="#29292C" stroke-width="0.2" stroke-linecap="round"/>
<path d="M305.766 140.453C306.067 140.744 306.579 141.766 306.218 143.526" stroke="#29292C" stroke-width="0.2" stroke-linecap="round"/>
<path d="M306.611 127.497C307.104 127.256 308.221 126.803 308.751 126.925" stroke="#29292C" stroke-width="0.2" stroke-linecap="round"/>
<path d="M307.062 126.083C307.303 125.952 307.894 125.691 308.328 125.691" stroke="#29292C" stroke-width="0.2" stroke-linecap="round"/>
<path d="M302.941 132.099C303.537 131.895 304.881 131.609 305.494 132.099" stroke="#29292C" stroke-width="0.2" stroke-linecap="round"/>
<path d="M303.088 131.279C303.299 131.089 304.07 130.7 305.463 130.662" stroke="#29292C" stroke-width="0.2" stroke-linecap="round"/>
<path d="M276.109 111.398C276.118 110.532 275.947 108.536 275.186 107.475" stroke="#29292C" stroke-width="0.2" stroke-linecap="round"/>
<path d="M276.629 111.255C276.811 110.284 276.963 107.955 276.109 106.408" stroke="#29292C" stroke-width="0.2" stroke-linecap="round"/>
<path d="M292.918 115.702C293.085 114.957 293.692 113.348 294.787 112.875" stroke="#29292C" stroke-width="0.2" stroke-linecap="round"/>
<path d="M293.494 116.266C293.711 115.539 294.519 113.887 296.018 113.092" stroke="#29292C" stroke-width="0.2" stroke-linecap="round"/>
<path d="M243.194 189.088C242.908 189.292 242.039 189.513 240.859 188.76" stroke="#29292C" stroke-width="0.2" stroke-linecap="round"/>
<path d="M243.986 188.411C243.711 188.56 243.01 188.712 242.404 188.135" stroke="#29292C" stroke-width="0.2" stroke-linecap="round"/>
<path d="M250.005 176.887C249.592 176.99 248.367 177.134 246.771 176.887" stroke="#29292C" stroke-width="0.2" stroke-linecap="round"/>
<path d="M250.107 176.062C249.671 176.177 248.532 176.337 247.459 176.062" stroke="#29292C" stroke-width="0.2" stroke-linecap="round"/>
<path d="M243.084 183.18C243.342 183.628 244.123 184.569 245.18 184.752" stroke="#29292C" stroke-width="0.2" stroke-linecap="round"/>
<path d="M243.332 182.656C243.484 183.021 244.029 183.781 244.995 183.909" stroke="#29292C" stroke-width="0.2" stroke-linecap="round"/>
<path d="M223.709 141.032C218.929 140.527 214.968 143.352 213.586 144.828C217.476 157.366 222.671 183.469 223.234 187.349C223.937 192.2 238.85 193.224 243.139 189.288C246.635 186.445 249.907 180.95 250.424 173.723C250.846 167.82 247.33 157.272 241.706 150.945C236.082 144.618 229.685 141.665 223.709 141.032Z" fill="#141414"/>
<path d="M215.096 143.778C213.024 144.293 212.88 145.609 212.207 146.473C218.725 161.034 230.701 190.007 232.836 190.678C235.504 191.517 241.586 187.898 243.653 181.294C245.51 176.186 244.608 169.173 243.029 164.868C239.979 156.547 233.781 149.507 227.685 145.981C221.473 142.388 216.015 143.55 215.096 143.778Z" fill="#8D3D02"/>
<path d="M213.619 144.47L204.561 150.031C204.476 157.966 205.718 175.306 211.355 181.181C218.402 188.526 224.506 190.164 229.816 191.007C235.126 191.851 238.485 188.14 239.487 186.937L239.516 186.903C240.94 185.196 244.566 180.847 243.406 170.675C240.658 158 232.612 150.632 227.017 147.04C222.06 143.857 216.09 143.824 213.619 144.47Z" fill="#DF8654"/>
<path d="M202.974 151.959L196.428 148.306L197.802 147.182L204.264 150.79L202.974 151.959Z" fill="#DFCDBF"/>
<path d="M258.934 121.475L258.932 106.669L260.786 104.77L260.789 119.725L258.934 121.475Z" fill="black"/>
<path d="M195.318 118.6C186.548 123.148 182.175 130.946 183.186 135.123C179.887 131.817 178.676 130.164 178.357 128.621C177.346 125.029 175.41 119.021 180.263 114.104C186.33 107.958 193.642 104.25 204.606 101.661C213.826 99.4841 226.341 98.6544 238.23 100.267C247.894 101.578 256.51 104.569 258.931 106.352V121.328C255.514 120.219 252.213 118.572 236.249 115.14C220.285 111.708 205.676 113.229 195.318 118.6Z" fill="black"/>
<path d="M209.358 148.439C200.349 148.95 200.021 159.153 200.616 164.299C201.638 169.957 204.439 174.126 207.657 178.002C217.889 189.794 227.307 187.877 229.436 186.765C231.689 185.588 237.152 180.589 235.646 172.174C234.489 165.708 228.945 158.832 226.543 156.393C224.101 153.911 217.716 147.965 209.358 148.439Z" fill="#DF8654"/>
<path d="M209.642 153.687C200.317 153.833 200.607 162.494 201.917 166.806C205.117 176.178 213.4 182.658 216.68 184.081C220.408 185.7 228.336 185.316 230.21 179.922C232.084 174.529 229.73 169.351 229.287 168.376C229.06 167.876 221.297 153.505 209.642 153.687Z" fill="#8D3D02"/>
<path d="M265.8 112.146L259.254 108.493L260.628 107.369L267.09 110.978L265.8 112.146Z" fill="#DFCDBF"/>
<path d="M259.443 118.852L259.254 108.492L265.721 112.108L264.81 121.855L259.443 118.852Z" fill="#B66021"/>
<path d="M198.147 145.133L195.99 146.686C183.934 140.504 178.39 133.179 176.453 127.98C172.846 118.299 177.959 113.469 180.965 110.672C184.428 107.175 194.406 100.381 208.363 98.5707C215.737 97.6142 221.61 97.0477 230.231 97.5507C247.261 98.8227 257.685 102.884 260.776 104.768L258.908 106.683C256.93 105.553 249.78 103.223 246.305 102.438C241.157 101.369 228.367 99.4207 218.388 100.181C205.915 101.131 200.495 102.617 198.119 103.567C195.743 104.518 189.295 106.498 184.029 111.012C179.308 115.058 178.057 117.437 177.69 119.843C176.537 131.818 191.272 141.796 198.147 145.133Z" fill="#DFCDC0"/>
<path d="M253.532 129.855C253.42 128.684 254.461 125.048 254.995 123.377L256.598 126.373L263.983 137.729C268.999 140.748 279.088 146.829 279.311 146.996C279.534 147.163 292.317 146.415 298.68 146.02C301.629 143.884 307.278 140.307 306.274 143.094C305.02 146.578 299.725 154.799 284.327 154.172C268.93 153.545 260.625 144.987 257.348 140.565C254.277 136.421 253.672 131.319 253.532 129.855Z" fill="#DF8654"/>
<ellipse cx="282.012" cy="128.514" rx="28.8611" ry="21.6256" transform="rotate(22.8984 282.012 128.514)" fill="#141414"/>
<path d="M263.578 142.029C263.698 141.238 264.168 139.468 265.089 138.721" stroke="#29292C" stroke-width="0.2" stroke-linecap="round"/>
<ellipse cx="282.555" cy="124.915" rx="13.5439" ry="8.23092" transform="rotate(22.8984 282.555 124.915)" fill="#592A10"/>
<ellipse cx="283.898" cy="126.78" rx="11.5765" ry="7.03533" transform="rotate(22.8984 283.898 126.78)" fill="#141414"/>
<path fill-rule="evenodd" clip-rule="evenodd" d="M279.113 136.55C289.411 140.9 299.902 139.353 302.545 133.095C305.189 126.836 298.984 118.237 288.686 113.887C278.388 109.538 267.897 111.085 265.254 117.343C262.61 123.601 268.815 132.201 279.113 136.55ZM281.163 131.699C287.053 134.187 293.053 133.302 294.565 129.723C296.076 126.144 292.527 121.225 286.638 118.738C280.748 116.25 274.748 117.135 273.236 120.714C271.724 124.293 275.273 129.212 281.163 131.699Z" fill="#8D3D02"/>
<path d="M254.35 126.194C254.654 125.013 255.727 122.447 257.585 121.629" stroke="#29292C" stroke-width="0.2" stroke-linecap="round"/>
<path d="M254.91 128.937C255.054 127.882 255.636 125.628 256.816 125.053" stroke="#29292C" stroke-width="0.2" stroke-linecap="round"/>
<path d="M262.68 141.309C262.932 140.015 263.96 137.03 266.06 135.447" stroke="#29292C" stroke-width="0.2" stroke-linecap="round"/>
<path d="M261.83 140.506C261.897 139.275 262.524 136.584 264.5 135.666" stroke="#29292C" stroke-width="0.2" stroke-linecap="round"/>
<path d="M279.089 136.609C279.11 137.451 278.936 139.421 278.066 140.572" stroke="#29292C" stroke-width="0.2" stroke-linecap="round"/>
<path d="M279.896 136.959C279.992 137.3 280.127 138.174 279.896 138.94" stroke="#29292C" stroke-width="0.2" stroke-linecap="round"/>
<path d="M236.751 146.469C236.39 146.52 235.61 146.783 235.387 147.429" stroke="#29292C" stroke-width="0.2" stroke-linecap="round"/>
<path d="M236.163 145.99C235.603 146.183 234.368 146.769 233.908 147.574" stroke="#29292C" stroke-width="0.2" stroke-linecap="round"/>
<path d="M246.35 158.48C245.924 158.611 244.826 159.019 243.844 159.609" stroke="#29292C" stroke-width="0.2" stroke-linecap="round"/>
<path d="M246.828 159.113C246.5 159.223 245.706 159.549 245.148 159.975" stroke="#29292C" stroke-width="0.2" stroke-linecap="round"/>
<path d="M220.954 143.46C220.91 143.041 221.056 142.089 222 141.639" stroke="#29292C" stroke-width="0.2" stroke-linecap="round"/>
<path d="M221.492 143.619C221.519 143.306 221.708 142.616 222.244 142.359" stroke="#29292C" stroke-width="0.2" stroke-linecap="round"/>
<path d="M229.562 147.024C229.688 146.648 230.093 145.87 230.715 145.764" stroke="#29292C" stroke-width="0.2" stroke-linecap="round"/>
<path d="M238.541 156.085C238.845 155.683 239.651 154.848 240.444 154.719" stroke="#29292C" stroke-width="0.2" stroke-linecap="round"/>
<path d="M238.754 156.41C239.04 156.123 239.73 155.519 240.202 155.391" stroke="#29292C" stroke-width="0.2" stroke-linecap="round"/>
<g opacity="0.5">
<path d="M207.746 164.679L211.693 161.033L213.063 162.516C213.899 163.421 213.794 164.412 213.039 165.115C212.281 165.81 211.283 165.828 210.442 164.918L209.736 164.154L208.401 165.388L207.746 164.679ZM210.32 163.615L210.934 164.281C211.431 164.812 211.952 164.775 212.369 164.39C212.792 164 212.862 163.49 212.368 162.956L211.754 162.291L210.32 163.615Z" fill="black"/>
<path d="M211.082 168.378C210.865 168.144 210.877 167.774 211.114 167.56C211.341 167.346 211.707 167.366 211.927 167.598C212.133 167.826 212.124 168.194 211.895 168.405C211.66 168.622 211.291 168.604 211.082 168.378Z" fill="black"/>
<path d="M212.163 169.461L216.11 165.815L217.48 167.298C218.316 168.203 218.211 169.194 217.456 169.897C216.698 170.592 215.699 170.61 214.858 169.699L214.153 168.936L212.817 170.17L212.163 169.461ZM214.737 168.397L215.351 169.062C215.847 169.594 216.369 169.557 216.786 169.172C217.208 168.781 217.278 168.272 216.785 167.738L216.171 167.073L214.737 168.397Z" fill="black"/>
<path d="M219.907 169.926L215.96 173.572L215.315 172.874L219.263 169.228L219.907 169.926Z" fill="black"/>
<path d="M217.728 175.607C216.905 174.715 216.993 173.618 217.92 172.762C218.836 171.916 219.971 171.898 220.752 172.743C221.421 173.468 221.545 174.516 220.507 175.475L220.289 175.677L218.38 173.61C217.886 174.087 217.86 174.661 218.278 175.108C218.558 175.416 218.877 175.5 219.138 175.426L219.767 176.108C219.139 176.456 218.363 176.293 217.728 175.607ZM218.857 173.175L220.149 174.573C220.549 174.198 220.592 173.653 220.222 173.253C219.837 172.835 219.256 172.852 218.857 173.175Z" fill="black"/>
</g>
</svg>
