<svg width="351" height="265" viewBox="0 0 351 265" fill="none" xmlns="http://www.w3.org/2000/svg">
<rect x="0.886719" y="0.425781" width="350" height="264" fill="#974444"/>
<path d="M209.337 186.993C217.609 191.247 226.255 191.901 231.745 191.901C236.321 191.642 237.993 189.451 237.839 188.501C237.56 186.777 238.167 185.701 235.786 183.116C233.405 180.53 219.536 171.697 212.808 168.788C206.08 165.88 198.725 164.628 195.936 167.388C194.001 169.303 194.379 172.608 195.936 175.568C197.144 177.866 202.279 183.363 209.337 186.993Z" fill="#0F0D22"/>
<path d="M260.211 151.017C270.578 157.431 279.075 156.868 282.721 156.868C288.912 156.678 290.957 153.915 290.814 153.085C290.555 151.577 291.117 150.637 288.912 148.376C286.706 146.115 273.855 138.391 267.621 135.848L267.593 135.836C261.362 133.294 253 129.883 250.421 132.292C248.628 133.967 249.434 139.134 250.876 141.722C252.319 144.31 254.039 147.199 260.211 151.017Z" fill="#0F0D22"/>
<path d="M181.015 146.205C179.719 144.451 178.207 140.828 178.207 137.503C178.382 132.925 179.588 135.88 180.502 135.88C181.416 135.88 183.514 139.689 184.124 142.905C184.733 146.122 199.219 161.724 187.414 152.986C184.343 150.713 182.291 147.934 181.033 146.229L181.015 146.205Z" fill="#0F0D22"/>
<path d="M206.628 167.665L209.881 163.07L211.683 164.346C212.727 165.086 212.871 166.154 212.231 167.059C211.581 167.976 210.525 168.176 209.465 167.426L208.64 166.841L207.58 168.339L206.628 167.665ZM209.184 166.073L209.856 166.55C210.421 166.95 210.922 166.828 211.247 166.362C211.574 165.908 211.515 165.404 210.953 165.001L210.28 164.525L209.184 166.073Z" fill="#AAA0E7"/>
<path d="M210.953 170.814C210.655 170.603 210.582 170.194 210.798 169.903C210.998 169.607 211.408 169.54 211.704 169.754C211.989 169.951 212.064 170.362 211.858 170.654C211.649 170.949 211.236 171.014 210.953 170.814Z" fill="#AAA0E7"/>
<path d="M212.295 171.678L215.548 167.083L217.351 168.359C218.395 169.098 218.538 170.167 217.898 171.071C217.249 171.989 216.192 172.189 215.132 171.438L214.307 170.854L213.247 172.352L212.295 171.678ZM214.851 170.086L215.524 170.562C216.089 170.962 216.589 170.841 216.914 170.375C217.241 169.92 217.183 169.417 216.62 169.014L215.947 168.538L214.851 170.086Z" fill="#AAA0E7"/>
<path d="M220.517 170.601L217.264 175.196L216.325 174.531L219.578 169.936L220.517 170.601Z" fill="#AAA0E7"/>
<path d="M219.506 176.888C218.451 176.137 218.287 174.996 219.063 173.907C219.813 172.842 220.979 172.586 221.988 173.301C222.893 173.941 223.202 175.018 222.371 176.192L222.182 176.458L219.828 174.791C219.459 175.312 219.54 175.85 220.024 176.197C220.346 176.421 220.674 176.443 220.912 176.302L221.806 176.936C221.222 177.479 220.358 177.487 219.506 176.888ZM220.246 174.201L221.712 175.239C222.005 174.818 221.93 174.312 221.509 174.019C221.079 173.71 220.546 173.818 220.246 174.201Z" fill="#AAA0E7"/>
<path d="M211.568 187.601C219.554 191.547 227.901 192.153 233.202 192.153C237.619 191.913 239.234 189.881 239.085 188.999C238.816 187.4 239.401 186.402 237.103 184.004C234.805 181.606 221.415 173.412 214.919 170.714C208.424 168.016 201.323 166.855 198.631 169.415C196.763 171.192 197.128 174.257 198.631 177.003C199.797 179.134 204.754 184.234 211.568 187.601Z" fill="#17161E"/>
<path d="M263.944 148.419C274.746 155.222 283.6 154.626 287.399 154.626C293.849 154.424 295.98 151.493 295.831 150.612C295.561 149.013 296.147 148.015 293.849 145.617C291.551 143.219 278.16 135.025 271.665 132.327L271.636 132.315C265.144 129.618 256.431 125.999 253.743 128.555C251.875 130.332 252.715 135.813 254.218 138.558C255.722 141.304 257.513 144.368 263.944 148.419Z" fill="#17161E"/>
<path d="M178.399 143.244C177.233 141.62 175.873 138.268 175.873 135.192C176.031 130.956 177.115 133.69 177.938 133.69C178.76 133.69 180.647 137.215 181.196 140.191C181.744 143.167 194.775 157.602 184.155 149.518C181.393 147.414 179.547 144.844 178.415 143.266L178.399 143.244Z" fill="#17161E"/>
<path d="M175.705 134.311C176.175 144.351 189.846 154.236 196.623 157.923L196.352 146.548C194.108 145 188.951 141.949 182.595 136.288C177.511 131.759 175.883 123.683 175.705 120.211V134.311Z" fill="#315317"/>
<path d="M196.642 157.938L196.361 146.822L198.485 145.281L198.6 156.118L196.642 157.938Z" fill="black"/>
<path d="M196.984 156.123L196.797 148.426L198.161 147.311L198.265 154.964L196.984 156.123Z" fill="#A3A3A3"/>
<path d="M196.984 156.121L196.797 148.424L203.216 152.013L202.312 159.102L196.984 156.121Z" fill="#698B4F"/>
<path d="M291.564 144.656C292.385 145.909 292.548 148.889 291.562 151.187" stroke="#29292C" stroke-width="0.2" stroke-linecap="round"/>
<path d="M293.328 145.783C293.692 146.555 294.202 148.636 293.328 150.78" stroke="#29292C" stroke-width="0.2" stroke-linecap="round"/>
<path d="M303.742 138.736C304.916 138.943 307.071 140.087 306.305 143.016" stroke="#29292C" stroke-width="0.2" stroke-linecap="round"/>
<path d="M305.326 140.633C305.625 140.922 306.134 141.936 305.775 143.683" stroke="#29292C" stroke-width="0.2" stroke-linecap="round"/>
<path d="M306.162 127.774C306.651 127.534 307.76 127.085 308.286 127.206" stroke="#29292C" stroke-width="0.2" stroke-linecap="round"/>
<path d="M306.611 126.371C306.85 126.241 307.436 125.982 307.867 125.982" stroke="#29292C" stroke-width="0.2" stroke-linecap="round"/>
<path d="M302.521 132.343C303.113 132.14 304.447 131.856 305.055 132.343" stroke="#29292C" stroke-width="0.2" stroke-linecap="round"/>
<path d="M302.666 131.528C302.876 131.34 303.64 130.954 305.023 130.916" stroke="#29292C" stroke-width="0.2" stroke-linecap="round"/>
<path d="M275.887 111.795C275.897 110.936 275.726 108.954 274.971 107.9" stroke="#29292C" stroke-width="0.2" stroke-linecap="round"/>
<path d="M276.402 111.651C276.583 110.687 276.734 108.375 275.887 106.84" stroke="#29292C" stroke-width="0.2" stroke-linecap="round"/>
<path d="M292.572 116.067C292.738 115.328 293.341 113.732 294.427 113.262" stroke="#29292C" stroke-width="0.2" stroke-linecap="round"/>
<path d="M293.145 116.625C293.36 115.904 294.162 114.264 295.649 113.475" stroke="#29292C" stroke-width="0.2" stroke-linecap="round"/>
<path d="M243.216 188.907C242.931 189.111 242.07 189.33 240.898 188.582" stroke="#29292C" stroke-width="0.2" stroke-linecap="round"/>
<path d="M244.002 188.237C243.729 188.385 243.033 188.536 242.432 187.963" stroke="#29292C" stroke-width="0.2" stroke-linecap="round"/>
<path d="M249.979 176.799C249.569 176.901 248.353 177.044 246.77 176.799" stroke="#29292C" stroke-width="0.2" stroke-linecap="round"/>
<path d="M250.079 175.98C249.647 176.094 248.517 176.253 247.451 175.98" stroke="#29292C" stroke-width="0.2" stroke-linecap="round"/>
<path d="M243.105 183.045C243.362 183.49 244.137 184.424 245.186 184.605" stroke="#29292C" stroke-width="0.2" stroke-linecap="round"/>
<path d="M243.352 182.525C243.502 182.887 244.044 183.642 245.002 183.769" stroke="#29292C" stroke-width="0.2" stroke-linecap="round"/>
<path d="M223.876 141.21C219.131 140.708 215.2 143.512 213.828 144.978C217.689 157.422 222.846 183.332 223.405 187.184C224.102 191.999 238.905 193.015 243.162 189.108C246.633 186.286 249.88 180.832 250.393 173.658C250.812 167.799 247.323 157.329 241.74 151.049C236.158 144.769 229.808 141.837 223.876 141.21Z" fill="#141414"/>
<path d="M215.324 143.934C213.268 144.444 213.125 145.751 212.457 146.609C218.927 161.062 230.814 189.82 232.933 190.486C235.582 191.319 241.619 187.727 243.67 181.172C245.513 176.101 244.618 169.141 243.051 164.867C240.023 156.608 233.871 149.621 227.821 146.121C221.655 142.554 216.237 143.707 215.324 143.934Z" fill="#315317"/>
<path d="M213.86 144.622L204.869 150.142C204.786 158.018 206.018 175.229 211.614 181.061C218.608 188.352 224.667 189.977 229.938 190.815C235.209 191.652 238.542 187.968 239.537 186.775L239.566 186.741C240.979 185.046 244.579 180.73 243.427 170.632C240.699 158.052 232.713 150.739 227.159 147.172C222.239 144.013 216.314 143.981 213.86 144.622Z" fill="#1E221A"/>
<path d="M203.295 152.052L196.797 148.426L198.161 147.311L204.575 150.893L203.295 152.052Z" fill="#CDDFBF"/>
<path d="M258.839 121.797L258.836 107.101L260.677 105.215L260.68 120.06L258.839 121.797Z" fill="black"/>
<path d="M195.695 118.943C186.99 123.457 182.649 131.197 183.653 135.343C180.378 132.061 179.176 130.42 178.86 128.889C177.856 125.324 175.935 119.36 180.752 114.48C186.773 108.379 194.032 104.698 204.914 102.129C214.066 99.9681 226.488 99.1445 238.289 100.745C247.882 102.046 256.434 105.015 258.837 106.785V121.65C255.446 120.549 252.168 118.914 236.323 115.508C220.477 112.102 205.976 113.611 195.695 118.943Z" fill="black"/>
<path d="M209.631 148.562C200.689 149.069 200.363 159.196 200.955 164.305C201.968 169.92 204.749 174.059 207.943 177.906C218.1 189.61 227.448 187.708 229.561 186.604C231.798 185.435 237.22 180.473 235.726 172.121C234.577 165.703 229.073 158.878 226.69 156.457C224.265 153.994 217.928 148.091 209.631 148.562Z" fill="#1E221A"/>
<path d="M209.911 153.769C200.656 153.914 200.943 162.511 202.244 166.791C205.42 176.094 213.642 182.525 216.898 183.938C220.598 185.545 228.467 185.163 230.327 179.81C232.187 174.456 229.851 169.317 229.411 168.349C229.186 167.853 221.48 153.588 209.911 153.769Z" fill="#315317"/>
<path d="M265.654 112.535L259.156 108.909L260.52 107.793L266.935 111.375L265.654 112.535Z" fill="#CDDFBF"/>
<path d="M259.344 119.193L259.156 108.91L265.575 112.499L264.671 122.174L259.344 119.193Z" fill="#698B4F"/>
<path d="M198.501 145.279L196.359 146.82C184.393 140.684 178.89 133.414 176.968 128.253C173.387 118.644 178.462 113.85 181.446 111.074C184.883 107.603 194.788 100.859 208.641 99.0618C215.96 98.1124 221.79 97.55 230.347 98.0494C247.251 99.3119 257.598 103.343 260.666 105.214L258.812 107.114C256.848 105.992 249.751 103.68 246.302 102.901C241.192 101.839 228.497 99.9055 218.592 100.66C206.211 101.603 200.831 103.078 198.473 104.022C196.115 104.965 189.714 106.93 184.487 111.411C179.801 115.427 178.56 117.788 178.195 120.176C177.051 132.063 191.676 141.967 198.501 145.279Z" fill="#CDDFC0"/>
<path d="M253.477 130.114C253.366 128.952 254.399 125.343 254.929 123.684L256.52 126.657L263.851 137.93C268.83 140.926 278.844 146.961 279.065 147.127C279.287 147.293 291.975 146.551 298.291 146.159C301.219 144.038 306.825 140.488 305.829 143.255C304.584 146.713 299.328 154.873 284.045 154.251C268.761 153.628 260.517 145.134 257.265 140.745C254.217 136.631 253.616 131.567 253.477 130.114Z" fill="#315317"/>
<ellipse cx="281.745" cy="128.784" rx="28.6474" ry="21.4654" transform="rotate(22.8984 281.745 128.784)" fill="#141414"/>
<path d="M263.449 142.198C263.568 141.412 264.035 139.656 264.949 138.914" stroke="#29292C" stroke-width="0.2" stroke-linecap="round"/>
<ellipse cx="282.285" cy="125.21" rx="13.4436" ry="8.16997" transform="rotate(22.8984 282.285 125.21)" fill="#27321B"/>
<ellipse cx="283.62" cy="127.062" rx="11.4908" ry="6.98324" transform="rotate(22.8984 283.62 127.062)" fill="#141414"/>
<path fill-rule="evenodd" clip-rule="evenodd" d="M278.871 136.763C289.093 141.08 299.506 139.544 302.13 133.332C304.754 127.121 298.594 118.585 288.373 114.267C278.151 109.95 267.738 111.486 265.114 117.698C262.491 123.91 268.65 132.445 278.871 136.763ZM280.903 131.946C286.749 134.415 292.705 133.536 294.205 129.984C295.706 126.431 292.183 121.549 286.337 119.08C280.491 116.61 274.536 117.489 273.035 121.042C271.534 124.594 275.057 129.476 280.903 131.946Z" fill="#315317"/>
<path d="M254.289 126.478C254.591 125.306 255.656 122.759 257.501 121.947" stroke="#29292C" stroke-width="0.2" stroke-linecap="round"/>
<path d="M254.844 129.203C254.986 128.156 255.565 125.918 256.736 125.348" stroke="#29292C" stroke-width="0.2" stroke-linecap="round"/>
<path d="M262.559 141.485C262.809 140.2 263.83 137.237 265.914 135.666" stroke="#29292C" stroke-width="0.2" stroke-linecap="round"/>
<path d="M261.713 140.685C261.779 139.463 262.402 136.792 264.363 135.881" stroke="#29292C" stroke-width="0.2" stroke-linecap="round"/>
<path d="M278.845 136.822C278.866 137.657 278.693 139.613 277.83 140.755" stroke="#29292C" stroke-width="0.2" stroke-linecap="round"/>
<path d="M279.645 137.166C279.74 137.504 279.873 138.372 279.645 139.133" stroke="#29292C" stroke-width="0.2" stroke-linecap="round"/>
<path d="M236.823 146.604C236.464 146.654 235.691 146.916 235.469 147.557" stroke="#29292C" stroke-width="0.2" stroke-linecap="round"/>
<path d="M236.236 146.129C235.681 146.32 234.455 146.902 233.998 147.701" stroke="#29292C" stroke-width="0.2" stroke-linecap="round"/>
<path d="M246.35 158.529C245.928 158.659 244.839 159.064 243.863 159.65" stroke="#29292C" stroke-width="0.2" stroke-linecap="round"/>
<path d="M246.823 159.154C246.498 159.263 245.71 159.587 245.156 160.009" stroke="#29292C" stroke-width="0.2" stroke-linecap="round"/>
<path d="M221.142 143.619C221.097 143.202 221.243 142.258 222.18 141.811" stroke="#29292C" stroke-width="0.2" stroke-linecap="round"/>
<path d="M221.678 143.776C221.705 143.465 221.892 142.78 222.424 142.525" stroke="#29292C" stroke-width="0.2" stroke-linecap="round"/>
<path d="M229.684 147.155C229.808 146.782 230.211 146.01 230.828 145.904" stroke="#29292C" stroke-width="0.2" stroke-linecap="round"/>
<path d="M238.598 156.151C238.899 155.752 239.699 154.923 240.487 154.795" stroke="#29292C" stroke-width="0.2" stroke-linecap="round"/>
<path d="M238.809 156.472C239.092 156.188 239.777 155.589 240.246 155.461" stroke="#29292C" stroke-width="0.2" stroke-linecap="round"/>
<g opacity="0.5">
<path d="M208.031 164.682L211.949 161.062L213.309 162.535C214.139 163.433 214.035 164.417 213.285 165.114C212.533 165.804 211.541 165.822 210.707 164.918L210.007 164.161L208.681 165.385L208.031 164.682ZM210.586 163.626L211.196 164.286C211.688 164.814 212.206 164.777 212.62 164.395C213.039 164.007 213.109 163.502 212.619 162.971L212.009 162.311L210.586 163.626Z" fill="black"/>
<path d="M211.342 168.353C211.127 168.12 211.139 167.753 211.374 167.541C211.599 167.328 211.963 167.348 212.181 167.578C212.386 167.805 212.376 168.17 212.149 168.38C211.916 168.595 211.549 168.578 211.342 168.353Z" fill="black"/>
<path d="M212.415 169.428L216.333 165.809L217.693 167.281C218.523 168.179 218.419 169.163 217.669 169.86C216.917 170.55 215.926 170.568 215.091 169.664L214.391 168.907L213.065 170.131L212.415 169.428ZM214.97 168.372L215.58 169.032C216.072 169.56 216.59 169.523 217.004 169.141C217.423 168.753 217.493 168.248 217.003 167.717L216.393 167.057L214.97 168.372Z" fill="black"/>
<path d="M220.102 169.889L216.184 173.508L215.544 172.816L219.463 169.196L220.102 169.889Z" fill="black"/>
<path d="M217.939 175.528C217.122 174.643 217.21 173.554 218.13 172.704C219.039 171.865 220.166 171.847 220.94 172.686C221.605 173.405 221.728 174.445 220.697 175.397L220.481 175.597L218.586 173.546C218.096 174.02 218.07 174.589 218.486 175.033C218.763 175.339 219.08 175.422 219.338 175.349L219.963 176.025C219.34 176.371 218.569 176.21 217.939 175.528ZM219.06 173.114L220.342 174.502C220.74 174.13 220.782 173.589 220.415 173.191C220.032 172.777 219.455 172.794 219.06 173.114Z" fill="black"/>
</g>
</svg>
