<svg width="351" height="265" viewBox="0 0 351 265" fill="none" xmlns="http://www.w3.org/2000/svg">
<rect x="0.886719" y="0.513672" width="350" height="264" fill="#448D97"/>
<path d="M209.037 187.017C217.841 191.545 227.043 192.241 232.887 192.241C237.757 191.965 239.537 189.633 239.373 188.622C239.076 186.787 239.721 185.642 237.188 182.89C234.654 180.139 219.892 170.737 212.731 167.641C205.571 164.546 197.743 163.213 194.775 166.151C192.715 168.189 193.117 171.706 194.775 174.857C196.06 177.303 201.525 183.154 209.037 187.017Z" fill="#10201C"/>
<path d="M263.184 148.728C274.218 155.554 283.262 154.955 287.142 154.955C293.731 154.752 295.908 151.812 295.756 150.928C295.48 149.323 296.079 148.322 293.731 145.916C291.383 143.51 277.706 135.289 271.071 132.583L271.041 132.57C264.409 129.865 255.51 126.234 252.764 128.798C250.856 130.581 251.714 136.08 253.249 138.834C254.785 141.589 256.615 144.664 263.184 148.728Z" fill="#10201C"/>
<path d="M178.893 143.608C177.514 141.74 175.904 137.884 175.904 134.346C176.091 129.473 177.374 132.618 178.347 132.618C179.32 132.618 181.553 136.672 182.202 140.095C182.85 143.519 198.268 160.125 185.704 150.824C182.435 148.405 180.251 145.448 178.912 143.633L178.893 143.608Z" fill="#10201C"/>
<path d="M176.4 134.769C176.867 144.746 190.451 154.567 197.184 158.231L196.915 146.929C194.686 145.39 189.562 142.359 183.247 136.734C178.194 132.234 176.577 124.209 176.4 120.76V134.769Z" fill="#B45B5B"/>
<path d="M197.205 158.249L196.926 147.205L199.036 145.674L199.151 156.441L197.205 158.249Z" fill="black"/>
<path d="M197.54 156.446L197.354 148.798L198.709 147.689L198.812 155.294L197.54 156.446Z" fill="#A3A3A3"/>
<path d="M197.54 156.443L197.354 148.795L203.732 152.361L202.833 159.405L197.54 156.443Z" fill="#D07D7D"/>
<path d="M291.517 145.051C292.333 146.296 292.494 149.257 291.516 151.54" stroke="#29292C" stroke-width="0.2" stroke-linecap="round"/>
<path d="M293.266 146.17C293.627 146.937 294.134 149.004 293.266 151.135" stroke="#29292C" stroke-width="0.2" stroke-linecap="round"/>
<path d="M303.617 139.166C304.783 139.371 306.925 140.508 306.164 143.418" stroke="#29292C" stroke-width="0.2" stroke-linecap="round"/>
<path d="M305.189 141.053C305.487 141.34 305.992 142.348 305.635 144.083" stroke="#29292C" stroke-width="0.2" stroke-linecap="round"/>
<path d="M306.023 128.276C306.509 128.038 307.611 127.592 308.134 127.711" stroke="#29292C" stroke-width="0.2" stroke-linecap="round"/>
<path d="M306.469 126.878C306.706 126.749 307.288 126.492 307.717 126.492" stroke="#29292C" stroke-width="0.2" stroke-linecap="round"/>
<path d="M302.406 132.814C302.993 132.612 304.319 132.33 304.924 132.814" stroke="#29292C" stroke-width="0.2" stroke-linecap="round"/>
<path d="M302.551 132.007C302.759 131.82 303.519 131.436 304.893 131.398" stroke="#29292C" stroke-width="0.2" stroke-linecap="round"/>
<path d="M275.942 112.397C275.951 111.543 275.782 109.574 275.031 108.527" stroke="#29292C" stroke-width="0.2" stroke-linecap="round"/>
<path d="M276.452 112.257C276.632 111.299 276.782 109.002 275.939 107.477" stroke="#29292C" stroke-width="0.2" stroke-linecap="round"/>
<path d="M292.52 116.643C292.684 115.908 293.283 114.322 294.363 113.855" stroke="#29292C" stroke-width="0.2" stroke-linecap="round"/>
<path d="M293.086 117.2C293.3 116.484 294.097 114.854 295.575 114.07" stroke="#29292C" stroke-width="0.2" stroke-linecap="round"/>
<path d="M243.48 189.017C243.198 189.219 242.341 189.437 241.178 188.693" stroke="#29292C" stroke-width="0.2" stroke-linecap="round"/>
<path d="M244.257 188.351C243.986 188.497 243.294 188.647 242.697 188.078" stroke="#29292C" stroke-width="0.2" stroke-linecap="round"/>
<path d="M250.197 176.988C249.789 177.09 248.581 177.232 247.008 176.988" stroke="#29292C" stroke-width="0.2" stroke-linecap="round"/>
<path d="M250.297 176.174C249.867 176.287 248.744 176.445 247.686 176.174" stroke="#29292C" stroke-width="0.2" stroke-linecap="round"/>
<path d="M243.369 183.193C243.624 183.635 244.394 184.564 245.437 184.744" stroke="#29292C" stroke-width="0.2" stroke-linecap="round"/>
<path d="M243.617 182.678C243.767 183.037 244.305 183.787 245.257 183.913" stroke="#29292C" stroke-width="0.2" stroke-linecap="round"/>
<path d="M224.261 141.625C219.547 141.127 215.641 143.913 214.277 145.369C218.114 157.734 223.238 183.478 223.793 187.305C224.486 192.089 239.194 193.099 243.424 189.217C246.872 186.413 250.099 180.994 250.608 173.866C251.024 168.045 247.558 157.642 242.011 151.401C236.464 145.161 230.155 142.249 224.261 141.625Z" fill="#141414"/>
<path d="M215.767 144.334C213.724 144.841 213.582 146.14 212.918 146.992C219.347 161.352 231.158 189.927 233.263 190.588C235.895 191.415 241.893 187.846 243.931 181.333C245.762 176.295 244.873 169.379 243.316 165.133C240.308 156.927 234.195 149.984 228.183 146.507C222.057 142.963 216.674 144.109 215.767 144.334Z" fill="#D68585"/>
<path d="M214.31 145.015L205.377 150.499C205.294 158.325 206.518 175.426 212.078 181.221C219.028 188.464 225.048 190.079 230.285 190.911C235.522 191.744 238.835 188.083 239.823 186.897L239.851 186.864C241.256 185.18 244.832 180.891 243.688 170.858C240.978 158.358 233.042 151.092 227.524 147.549C222.635 144.409 216.748 144.377 214.31 145.015Z" fill="#B45B5B"/>
<path d="M203.81 152.401L197.354 148.798L198.709 147.689L205.082 151.249L203.81 152.401Z" fill="#FFC8C8"/>
<path d="M259.001 122.335L258.998 107.733L260.827 105.859L260.83 120.609L259.001 122.335Z" fill="black"/>
<path d="M196.261 119.502C187.612 123.988 183.299 131.678 184.296 135.798C181.042 132.537 179.848 130.907 179.534 129.385C178.536 125.843 176.627 119.917 181.413 115.068C187.396 109.007 194.608 105.349 205.421 102.796C214.514 100.649 226.857 99.831 238.582 101.421C248.114 102.714 256.611 105.664 258.999 107.422V122.193C255.629 121.099 252.373 119.474 236.629 116.09C220.885 112.705 206.476 114.205 196.261 119.502Z" fill="black"/>
<path d="M210.108 148.931C201.223 149.435 200.899 159.497 201.487 164.573C202.494 170.152 205.257 174.264 208.43 178.087C218.522 189.716 227.81 187.826 229.91 186.729C232.132 185.568 237.52 180.638 236.035 172.34C234.894 165.963 229.425 159.181 227.057 156.775C224.648 154.328 218.351 148.463 210.108 148.931Z" fill="#B45B5B"/>
<path d="M210.387 154.105C201.191 154.249 201.477 162.791 202.769 167.044C205.925 176.287 214.094 182.677 217.329 184.081C221.005 185.677 228.824 185.298 230.672 179.979C232.521 174.66 230.2 169.554 229.762 168.591C229.538 168.099 221.882 153.925 210.387 154.105Z" fill="#D68585"/>
<path d="M265.777 113.137L259.32 109.534L260.675 108.426L267.049 111.985L265.777 113.137Z" fill="#FFC8C8"/>
<path d="M259.507 119.748L259.32 109.531L265.698 113.097L264.8 122.71L259.507 119.748Z" fill="#D07D7D"/>
<path d="M199.052 145.669L196.924 147.2C185.035 141.104 179.567 133.88 177.657 128.752C174.099 119.205 179.141 114.441 182.106 111.683C185.522 108.234 195.363 101.533 209.128 99.7475C216.4 98.8041 222.193 98.2454 230.694 98.7415C247.49 99.996 257.771 104.001 260.82 105.86L258.977 107.748C257.026 106.633 249.975 104.336 246.548 103.562C241.471 102.507 228.856 100.586 219.015 101.336C206.713 102.273 201.368 103.738 199.025 104.675C196.682 105.613 190.322 107.566 185.128 112.018C180.473 116.008 179.239 118.354 178.877 120.727C177.74 132.537 192.271 142.378 199.052 145.669Z" fill="#FFC8C8"/>
<path d="M253.676 130.602C253.566 129.447 254.592 125.861 255.119 124.213L256.7 127.167L263.984 138.368C268.931 141.345 278.881 147.342 279.101 147.507C279.321 147.672 291.927 146.934 298.203 146.545C301.112 144.437 306.683 140.91 305.693 143.659C304.456 147.094 299.234 155.203 284.048 154.584C268.862 153.966 260.671 145.526 257.44 141.165C254.411 137.078 253.814 132.046 253.676 130.602Z" fill="#B45B5B"/>
<ellipse cx="281.766" cy="129.279" rx="28.4641" ry="21.3281" transform="rotate(22.8984 281.766 129.279)" fill="#141414"/>
<path d="M263.58 142.607C263.698 141.826 264.162 140.081 265.07 139.344" stroke="#29292C" stroke-width="0.2" stroke-linecap="round"/>
<ellipse cx="282.297" cy="125.728" rx="13.3575" ry="8.11767" transform="rotate(22.8984 282.297 125.728)" fill="#AB5050"/>
<ellipse cx="283.624" cy="127.569" rx="11.4173" ry="6.93854" transform="rotate(22.8984 283.624 127.569)" fill="#141414"/>
<path fill-rule="evenodd" clip-rule="evenodd" d="M278.906 137.201C289.062 141.49 299.409 139.964 302.016 133.792C304.623 127.62 298.503 119.139 288.347 114.849C278.191 110.56 267.844 112.086 265.237 118.258C262.63 124.43 268.75 132.911 278.906 137.201ZM280.927 132.419C286.735 134.872 292.653 133.999 294.144 130.469C295.635 126.939 292.135 122.088 286.326 119.635C280.517 117.182 274.6 118.054 273.109 121.584C271.618 125.114 275.118 129.965 280.927 132.419Z" fill="#D68585"/>
<path d="M254.48 126.99C254.78 125.826 255.838 123.295 257.672 122.488" stroke="#29292C" stroke-width="0.2" stroke-linecap="round"/>
<path d="M255.033 129.698C255.175 128.657 255.749 126.434 256.913 125.867" stroke="#29292C" stroke-width="0.2" stroke-linecap="round"/>
<path d="M262.695 141.899C262.944 140.622 263.958 137.678 266.029 136.117" stroke="#29292C" stroke-width="0.2" stroke-linecap="round"/>
<path d="M261.861 141.103C261.927 139.889 262.546 137.235 264.494 136.33" stroke="#29292C" stroke-width="0.2" stroke-linecap="round"/>
<path d="M278.883 137.266C278.905 138.095 278.732 140.038 277.875 141.174" stroke="#29292C" stroke-width="0.2" stroke-linecap="round"/>
<path d="M279.678 137.611C279.772 137.948 279.905 138.809 279.678 139.565" stroke="#29292C" stroke-width="0.2" stroke-linecap="round"/>
<path d="M237.125 146.984C236.768 147.035 236 147.295 235.779 147.932" stroke="#29292C" stroke-width="0.2" stroke-linecap="round"/>
<path d="M236.542 146.512C235.99 146.702 234.772 147.28 234.318 148.074" stroke="#29292C" stroke-width="0.2" stroke-linecap="round"/>
<path d="M246.59 158.832C246.17 158.961 245.088 159.363 244.119 159.945" stroke="#29292C" stroke-width="0.2" stroke-linecap="round"/>
<path d="M247.064 159.455C246.741 159.563 245.958 159.885 245.408 160.304" stroke="#29292C" stroke-width="0.2" stroke-linecap="round"/>
<path d="M221.548 144.019C221.504 143.606 221.648 142.667 222.579 142.223" stroke="#29292C" stroke-width="0.2" stroke-linecap="round"/>
<path d="M222.076 144.178C222.103 143.87 222.289 143.189 222.817 142.936" stroke="#29292C" stroke-width="0.2" stroke-linecap="round"/>
<path d="M230.035 147.534C230.159 147.163 230.559 146.396 231.172 146.291" stroke="#29292C" stroke-width="0.2" stroke-linecap="round"/>
<path d="M238.891 156.472C239.19 156.076 239.985 155.252 240.768 155.125" stroke="#29292C" stroke-width="0.2" stroke-linecap="round"/>
<path d="M239.102 156.788C239.384 156.506 240.064 155.91 240.529 155.783" stroke="#29292C" stroke-width="0.2" stroke-linecap="round"/>
<path d="M206.153 166.447L209.615 161.557L211.534 162.915C212.645 163.702 212.798 164.839 212.116 165.802C211.425 166.778 210.301 166.991 209.173 166.192L208.295 165.57L207.166 167.164L206.153 166.447ZM208.873 164.753L209.589 165.26C210.19 165.686 210.723 165.556 211.069 165.06C211.417 164.576 211.355 164.041 210.756 163.612L210.04 163.105L208.873 164.753Z" fill="#EDAFAF"/>
<path d="M210.757 169.798C210.439 169.573 210.362 169.138 210.591 168.829C210.804 168.513 211.24 168.442 211.555 168.67C211.858 168.88 211.939 169.317 211.719 169.628C211.497 169.942 211.057 170.011 210.757 169.798Z" fill="#EDAFAF"/>
<path d="M212.185 170.718L215.647 165.827L217.565 167.186C218.676 167.972 218.829 169.11 218.148 170.072C217.457 171.048 216.332 171.261 215.204 170.463L214.326 169.841L213.198 171.435L212.185 170.718ZM214.905 169.024L215.621 169.531C216.222 169.956 216.755 169.827 217.101 169.331C217.449 168.847 217.387 168.312 216.788 167.883L216.072 167.376L214.905 169.024Z" fill="#EDAFAF"/>
<path d="M220.936 169.572L217.473 174.462L216.474 173.755L219.936 168.864L220.936 169.572Z" fill="#EDAFAF"/>
<path d="M219.859 176.263C218.737 175.464 218.562 174.25 219.388 173.09C220.186 171.956 221.428 171.685 222.502 172.445C223.464 173.127 223.794 174.273 222.909 175.522L222.708 175.806L220.202 174.032C219.81 174.586 219.896 175.159 220.41 175.528C220.754 175.766 221.102 175.79 221.356 175.639L222.308 176.314C221.685 176.892 220.767 176.901 219.859 176.263ZM220.647 173.403L222.207 174.508C222.519 174.06 222.439 173.522 221.991 173.209C221.534 172.881 220.966 172.996 220.647 173.403Z" fill="#EDAFAF"/>
</svg>
