<svg width="351" height="265" viewBox="0 0 351 265" fill="none" xmlns="http://www.w3.org/2000/svg">
<rect x="0.886719" y="0.183594" width="350" height="264" fill="#4B4497"/>
<path d="M209.037 186.687C217.841 191.215 227.043 191.911 232.887 191.911C237.757 191.635 239.537 189.303 239.373 188.292C239.076 186.457 239.721 185.312 237.188 182.56C234.654 179.808 219.892 170.407 212.731 167.311C205.571 164.216 197.743 162.883 194.775 165.821C192.715 167.859 193.117 171.376 194.775 174.527C196.06 176.973 201.525 182.824 209.037 186.687Z" fill="#10201C"/>
<path d="M263.184 148.398C274.218 155.224 283.262 154.625 287.142 154.625C293.731 154.422 295.908 151.482 295.756 150.598C295.48 148.993 296.079 147.992 293.731 145.586C291.383 143.18 277.706 134.959 271.071 132.252L271.041 132.24C264.409 129.535 255.51 125.903 252.764 128.468C250.856 130.251 251.714 135.75 253.249 138.504C254.785 141.259 256.615 144.334 263.184 148.398Z" fill="#10201C"/>
<path d="M178.893 143.277C177.514 141.41 175.904 137.554 175.904 134.015C176.091 129.143 177.374 132.288 178.347 132.288C179.32 132.288 181.553 136.342 182.202 139.765C182.85 143.189 198.268 159.795 185.704 150.494C182.435 148.075 180.251 145.118 178.912 143.303L178.893 143.277Z" fill="#10201C"/>
<path d="M176.4 134.439C176.867 144.416 190.451 154.237 197.184 157.901L196.915 146.599C194.686 145.06 189.562 142.029 183.247 136.404C178.194 131.903 176.577 123.879 176.4 120.43V134.439Z" fill="#B45B5B"/>
<path d="M197.205 157.919L196.926 146.875L199.036 145.344L199.151 156.111L197.205 157.919Z" fill="black"/>
<path d="M197.54 156.116L197.354 148.468L198.709 147.359L198.812 154.964L197.54 156.116Z" fill="#A3A3A3"/>
<path d="M197.54 156.113L197.354 148.465L203.732 152.031L202.833 159.075L197.54 156.113Z" fill="#D07D7D"/>
<path d="M291.517 144.721C292.333 145.966 292.494 148.927 291.516 151.21" stroke="#29292C" stroke-width="0.2" stroke-linecap="round"/>
<path d="M293.266 145.84C293.627 146.607 294.134 148.674 293.266 150.805" stroke="#29292C" stroke-width="0.2" stroke-linecap="round"/>
<path d="M303.617 138.836C304.783 139.041 306.925 140.178 306.164 143.088" stroke="#29292C" stroke-width="0.2" stroke-linecap="round"/>
<path d="M305.189 140.723C305.487 141.01 305.992 142.018 305.635 143.753" stroke="#29292C" stroke-width="0.2" stroke-linecap="round"/>
<path d="M306.023 127.946C306.509 127.708 307.611 127.262 308.134 127.381" stroke="#29292C" stroke-width="0.2" stroke-linecap="round"/>
<path d="M306.469 126.548C306.706 126.419 307.288 126.162 307.717 126.162" stroke="#29292C" stroke-width="0.2" stroke-linecap="round"/>
<path d="M302.406 132.484C302.993 132.282 304.319 132 304.924 132.484" stroke="#29292C" stroke-width="0.2" stroke-linecap="round"/>
<path d="M302.551 131.677C302.759 131.489 303.519 131.106 304.893 131.068" stroke="#29292C" stroke-width="0.2" stroke-linecap="round"/>
<path d="M275.942 112.067C275.951 111.213 275.782 109.244 275.031 108.197" stroke="#29292C" stroke-width="0.2" stroke-linecap="round"/>
<path d="M276.452 111.927C276.632 110.969 276.782 108.672 275.939 107.146" stroke="#29292C" stroke-width="0.2" stroke-linecap="round"/>
<path d="M292.52 116.313C292.684 115.578 293.283 113.992 294.363 113.525" stroke="#29292C" stroke-width="0.2" stroke-linecap="round"/>
<path d="M293.086 116.87C293.3 116.154 294.097 114.524 295.575 113.74" stroke="#29292C" stroke-width="0.2" stroke-linecap="round"/>
<path d="M243.48 188.687C243.198 188.888 242.341 189.106 241.178 188.363" stroke="#29292C" stroke-width="0.2" stroke-linecap="round"/>
<path d="M244.257 188.021C243.986 188.167 243.294 188.317 242.697 187.748" stroke="#29292C" stroke-width="0.2" stroke-linecap="round"/>
<path d="M250.197 176.658C249.789 176.76 248.581 176.902 247.008 176.658" stroke="#29292C" stroke-width="0.2" stroke-linecap="round"/>
<path d="M250.297 175.844C249.867 175.957 248.744 176.115 247.686 175.844" stroke="#29292C" stroke-width="0.2" stroke-linecap="round"/>
<path d="M243.369 182.863C243.624 183.305 244.394 184.234 245.437 184.414" stroke="#29292C" stroke-width="0.2" stroke-linecap="round"/>
<path d="M243.617 182.348C243.767 182.707 244.305 183.457 245.257 183.583" stroke="#29292C" stroke-width="0.2" stroke-linecap="round"/>
<path d="M224.261 141.295C219.547 140.797 215.641 143.583 214.277 145.039C218.114 157.404 223.238 183.148 223.793 186.975C224.486 191.759 239.194 192.769 243.424 188.886C246.872 186.083 250.099 180.664 250.608 173.536C251.024 167.715 247.558 157.312 242.011 151.071C236.464 144.831 230.155 141.919 224.261 141.295Z" fill="#141414"/>
<path d="M215.767 144.004C213.724 144.511 213.582 145.809 212.918 146.662C219.347 161.022 231.158 189.597 233.263 190.258C235.895 191.085 241.893 187.516 243.931 181.003C245.762 175.965 244.873 169.049 243.316 164.803C240.308 156.597 234.195 149.654 228.183 146.177C222.057 142.632 216.674 143.779 215.767 144.004Z" fill="#D68585"/>
<path d="M214.31 144.685L205.377 150.169C205.294 157.995 206.518 175.096 212.078 180.891C219.028 188.134 225.048 189.749 230.285 190.581C235.522 191.413 238.835 187.753 239.823 186.567L239.851 186.534C241.256 184.85 244.832 180.561 243.688 170.528C240.978 158.028 233.042 150.762 227.524 147.218C222.635 144.079 216.748 144.047 214.31 144.685Z" fill="#B45B5B"/>
<path d="M203.81 152.071L197.354 148.468L198.709 147.359L205.082 150.919L203.81 152.071Z" fill="#FFC8C8"/>
<path d="M259.001 122.005L258.998 107.403L260.827 105.529L260.83 120.279L259.001 122.005Z" fill="black"/>
<path d="M196.261 119.172C187.612 123.658 183.299 131.348 184.296 135.468C181.042 132.207 179.848 130.577 179.534 129.055C178.536 125.513 176.627 119.587 181.413 114.738C187.396 108.676 194.608 105.019 205.421 102.466C214.514 100.319 226.857 99.5009 238.582 101.091C248.114 102.384 256.611 105.334 258.999 107.092V121.863C255.629 120.769 252.373 119.144 236.629 115.76C220.885 112.375 206.476 113.875 196.261 119.172Z" fill="black"/>
<path d="M210.108 148.601C201.223 149.105 200.899 159.167 201.487 164.243C202.494 169.822 205.257 173.934 208.43 177.757C218.522 189.386 227.81 187.496 229.91 186.399C232.132 185.238 237.52 180.308 236.035 172.009C234.894 165.633 229.425 158.851 227.057 156.445C224.648 153.998 218.351 148.133 210.108 148.601Z" fill="#B45B5B"/>
<path d="M210.387 153.775C201.191 153.919 201.477 162.461 202.769 166.714C205.925 175.957 214.094 182.347 217.329 183.751C221.005 185.347 228.824 184.968 230.672 179.649C232.521 174.33 230.2 169.223 229.762 168.261C229.538 167.769 221.882 153.595 210.387 153.775Z" fill="#D68585"/>
<path d="M265.777 112.807L259.32 109.204L260.675 108.096L267.049 111.655L265.777 112.807Z" fill="#FFC8C8"/>
<path d="M259.507 119.418L259.32 109.201L265.698 112.767L264.8 122.38L259.507 119.418Z" fill="#D07D7D"/>
<path d="M199.052 145.339L196.924 146.87C185.035 140.774 179.567 133.55 177.657 128.422C174.099 118.875 179.141 114.111 182.106 111.353C185.522 107.904 195.363 101.203 209.128 99.4174C216.4 98.4741 222.193 97.9153 230.694 98.4114C247.49 99.6659 257.771 103.671 260.82 105.53L258.977 107.418C257.026 106.303 249.975 104.006 246.548 103.232C241.471 102.177 228.856 100.256 219.015 101.006C206.713 101.943 201.368 103.408 199.025 104.345C196.682 105.283 190.322 107.235 185.128 111.688C180.473 115.678 179.239 118.024 178.877 120.397C177.74 132.207 192.271 142.048 199.052 145.339Z" fill="#FFC8C8"/>
<path d="M253.676 130.272C253.566 129.117 254.592 125.531 255.119 123.883L256.7 126.837L263.984 138.038C268.931 141.015 278.881 147.012 279.101 147.177C279.321 147.342 291.927 146.604 298.203 146.215C301.112 144.107 306.683 140.58 305.693 143.329C304.456 146.764 299.234 154.873 284.048 154.254C268.862 153.636 260.671 145.196 257.44 140.835C254.411 136.748 253.814 131.716 253.676 130.272Z" fill="#B45B5B"/>
<ellipse cx="281.766" cy="128.949" rx="28.4641" ry="21.3281" transform="rotate(22.8984 281.766 128.949)" fill="#141414"/>
<path d="M263.58 142.277C263.698 141.496 264.162 139.751 265.07 139.014" stroke="#29292C" stroke-width="0.2" stroke-linecap="round"/>
<ellipse cx="282.297" cy="125.398" rx="13.3575" ry="8.11767" transform="rotate(22.8984 282.297 125.398)" fill="#AB5050"/>
<ellipse cx="283.624" cy="127.238" rx="11.4173" ry="6.93854" transform="rotate(22.8984 283.624 127.238)" fill="#141414"/>
<path fill-rule="evenodd" clip-rule="evenodd" d="M278.906 136.871C289.062 141.16 299.409 139.634 302.016 133.462C304.623 127.29 298.503 118.809 288.347 114.519C278.191 110.23 267.844 111.756 265.237 117.928C262.63 124.1 268.75 132.581 278.906 136.871ZM280.927 132.088C286.735 134.542 292.653 133.669 294.144 130.139C295.635 126.609 292.135 121.758 286.326 119.305C280.517 116.851 274.6 117.724 273.109 121.254C271.618 124.784 275.118 129.635 280.927 132.088Z" fill="#D68585"/>
<path d="M254.48 126.66C254.78 125.496 255.838 122.965 257.672 122.158" stroke="#29292C" stroke-width="0.2" stroke-linecap="round"/>
<path d="M255.033 129.368C255.175 128.327 255.749 126.104 256.913 125.537" stroke="#29292C" stroke-width="0.2" stroke-linecap="round"/>
<path d="M262.695 141.569C262.944 140.292 263.958 137.348 266.029 135.787" stroke="#29292C" stroke-width="0.2" stroke-linecap="round"/>
<path d="M261.861 140.773C261.927 139.559 262.546 136.905 264.494 136" stroke="#29292C" stroke-width="0.2" stroke-linecap="round"/>
<path d="M278.883 136.936C278.905 137.765 278.732 139.708 277.875 140.843" stroke="#29292C" stroke-width="0.2" stroke-linecap="round"/>
<path d="M279.678 137.281C279.772 137.618 279.905 138.479 279.678 139.235" stroke="#29292C" stroke-width="0.2" stroke-linecap="round"/>
<path d="M237.125 146.654C236.768 146.705 236 146.965 235.779 147.602" stroke="#29292C" stroke-width="0.2" stroke-linecap="round"/>
<path d="M236.542 146.182C235.99 146.372 234.772 146.95 234.318 147.744" stroke="#29292C" stroke-width="0.2" stroke-linecap="round"/>
<path d="M246.59 158.502C246.17 158.631 245.088 159.033 244.119 159.615" stroke="#29292C" stroke-width="0.2" stroke-linecap="round"/>
<path d="M247.064 159.125C246.741 159.233 245.958 159.555 245.408 159.974" stroke="#29292C" stroke-width="0.2" stroke-linecap="round"/>
<path d="M221.548 143.689C221.504 143.276 221.648 142.337 222.579 141.893" stroke="#29292C" stroke-width="0.2" stroke-linecap="round"/>
<path d="M222.076 143.848C222.103 143.539 222.289 142.859 222.817 142.605" stroke="#29292C" stroke-width="0.2" stroke-linecap="round"/>
<path d="M230.035 147.204C230.159 146.833 230.559 146.066 231.172 145.961" stroke="#29292C" stroke-width="0.2" stroke-linecap="round"/>
<path d="M238.891 156.142C239.19 155.746 239.985 154.922 240.768 154.795" stroke="#29292C" stroke-width="0.2" stroke-linecap="round"/>
<path d="M239.102 156.458C239.384 156.176 240.064 155.58 240.529 155.453" stroke="#29292C" stroke-width="0.2" stroke-linecap="round"/>
<path d="M206.153 166.117L209.615 161.227L211.534 162.585C212.645 163.372 212.798 164.509 212.116 165.472C211.425 166.448 210.301 166.661 209.173 165.862L208.295 165.24L207.166 166.834L206.153 166.117ZM208.873 164.423L209.589 164.93C210.19 165.355 210.723 165.226 211.069 164.73C211.417 164.246 211.355 163.711 210.756 163.282L210.04 162.775L208.873 164.423Z" fill="#EDAFAF"/>
<path d="M210.757 169.468C210.439 169.243 210.362 168.808 210.591 168.499C210.804 168.183 211.24 168.112 211.555 168.34C211.858 168.549 211.939 168.987 211.719 169.298C211.497 169.612 211.057 169.681 210.757 169.468Z" fill="#EDAFAF"/>
<path d="M212.185 170.388L215.647 165.497L217.565 166.856C218.676 167.642 218.829 168.78 218.148 169.742C217.457 170.718 216.332 170.931 215.204 170.133L214.326 169.511L213.198 171.105L212.185 170.388ZM214.905 168.694L215.621 169.201C216.222 169.626 216.755 169.497 217.101 169.001C217.449 168.517 217.387 167.981 216.788 167.552L216.072 167.046L214.905 168.694Z" fill="#EDAFAF"/>
<path d="M220.936 169.242L217.473 174.132L216.474 173.425L219.936 168.534L220.936 169.242Z" fill="#EDAFAF"/>
<path d="M219.859 175.933C218.737 175.133 218.562 173.92 219.388 172.76C220.186 171.626 221.428 171.355 222.502 172.115C223.464 172.797 223.794 173.943 222.909 175.192L222.708 175.476L220.202 173.702C219.81 174.255 219.896 174.828 220.41 175.198C220.754 175.436 221.102 175.459 221.356 175.309L222.308 175.984C221.685 176.562 220.767 176.571 219.859 175.933ZM220.647 173.073L222.207 174.178C222.519 173.73 222.439 173.191 221.991 172.879C221.534 172.551 220.966 172.666 220.647 173.073Z" fill="#EDAFAF"/>
</svg>
