<svg width="351" height="265" viewBox="0 0 351 265" fill="none" xmlns="http://www.w3.org/2000/svg">
<rect x="0.886719" y="0.802734" width="350" height="264" fill="#446597"/>
<path d="M209.064 187.36C217.398 191.646 226.108 192.304 231.639 192.305C236.249 192.044 237.934 189.836 237.779 188.879C237.497 187.142 238.109 186.058 235.71 183.453C233.312 180.849 219.339 171.95 212.561 169.019C205.783 166.089 198.373 164.828 195.563 167.608C193.614 169.538 193.995 172.867 195.563 175.849C196.78 178.164 201.953 183.703 209.064 187.36Z" fill="#0F0D22"/>
<path d="M260.317 151.114C270.762 157.576 279.322 157.009 282.995 157.009C289.232 156.817 291.292 154.034 291.149 153.197C290.888 151.678 291.454 150.731 289.232 148.453C287.01 146.175 274.063 138.394 267.782 135.832L267.754 135.82C261.477 133.259 253.053 129.822 250.454 132.25C248.647 133.937 249.459 139.142 250.913 141.75C252.367 144.357 254.099 147.267 260.317 151.114Z" fill="#0F0D22"/>
<path d="M180.53 146.268C179.225 144.5 177.701 140.85 177.701 137.501C177.878 132.888 179.092 135.865 180.013 135.865C180.934 135.865 183.048 139.703 183.662 142.943C184.276 146.184 198.87 161.903 186.977 153.099C183.883 150.809 181.816 148.01 180.548 146.292L180.53 146.268Z" fill="#0F0D22"/>
<path d="M206.332 167.887L209.609 163.258L211.425 164.543C212.477 165.288 212.622 166.365 211.977 167.276C211.322 168.2 210.258 168.402 209.19 167.646L208.359 167.057L207.291 168.566L206.332 167.887ZM208.907 166.283L209.585 166.763C210.154 167.166 210.658 167.043 210.986 166.574C211.315 166.116 211.256 165.609 210.689 165.203L210.012 164.723L208.907 166.283Z" fill="#AAA0E7"/>
<path d="M210.69 171.059C210.389 170.846 210.316 170.434 210.533 170.142C210.735 169.843 211.148 169.775 211.446 169.991C211.733 170.189 211.809 170.604 211.601 170.898C211.39 171.195 210.974 171.26 210.69 171.059Z" fill="#AAA0E7"/>
<path d="M212.041 171.929L215.319 167.3L217.135 168.586C218.187 169.331 218.331 170.408 217.686 171.319C217.032 172.243 215.968 172.444 214.9 171.688L214.069 171.1L213 172.609L212.041 171.929ZM214.617 170.326L215.294 170.806C215.863 171.209 216.368 171.086 216.695 170.617C217.024 170.159 216.966 169.652 216.399 169.246L215.721 168.766L214.617 170.326Z" fill="#AAA0E7"/>
<path d="M220.325 170.845L217.048 175.474L216.101 174.804L219.379 170.175L220.325 170.845Z" fill="#AAA0E7"/>
<path d="M219.306 177.179C218.244 176.422 218.078 175.273 218.86 174.175C219.615 173.102 220.791 172.845 221.807 173.565C222.718 174.21 223.03 175.294 222.193 176.477L222.003 176.746L219.631 175.066C219.259 175.591 219.341 176.133 219.828 176.483C220.153 176.708 220.483 176.73 220.722 176.588L221.624 177.226C221.035 177.774 220.165 177.782 219.306 177.179ZM220.052 174.472L221.529 175.517C221.824 175.093 221.748 174.584 221.324 174.288C220.891 173.977 220.354 174.086 220.052 174.472Z" fill="#AAA0E7"/>
<path d="M211.309 187.972C219.355 191.947 227.764 192.558 233.104 192.558C237.554 192.316 239.181 190.269 239.031 189.381C238.76 187.769 239.35 186.764 237.034 184.348C234.719 181.932 221.229 173.677 214.685 170.959C208.141 168.241 200.988 167.071 198.276 169.65C196.393 171.44 196.761 174.528 198.275 177.294C199.45 179.442 204.444 184.58 211.309 187.972Z" fill="#17161E"/>
<path d="M264.077 148.495C274.96 155.35 283.879 154.748 287.707 154.748C294.205 154.545 296.352 151.593 296.202 150.705C295.93 149.094 296.52 148.089 294.205 145.672C291.889 143.256 278.399 135.002 271.856 132.283L271.826 132.271C265.285 129.554 256.508 125.908 253.8 128.483C251.918 130.273 252.764 135.795 254.279 138.561C255.793 141.327 257.598 144.415 264.077 148.495Z" fill="#17161E"/>
<path d="M177.894 143.284C176.72 141.649 175.35 138.272 175.35 135.173C175.508 130.905 176.601 133.66 177.429 133.66C178.258 133.66 180.159 137.21 180.712 140.209C181.264 143.207 194.392 157.75 183.694 149.605C180.91 147.486 179.051 144.896 177.91 143.307L177.894 143.284Z" fill="#17161E"/>
<path d="M175.18 134.283C175.653 144.399 189.426 154.357 196.254 158.072L195.98 146.612C193.72 145.052 188.525 141.979 182.121 136.275C176.999 131.712 175.359 123.576 175.18 120.078V134.283Z" fill="#8D3D02"/>
<path d="M196.273 158.089L195.99 146.891L198.129 145.338L198.246 156.255L196.273 158.089Z" fill="black"/>
<path d="M196.617 156.261L196.428 148.507L197.802 147.383L197.907 155.093L196.617 156.261Z" fill="#A3A3A3"/>
<path d="M196.617 156.257L196.428 148.502L202.895 152.118L201.984 159.26L196.617 156.257Z" fill="#B66021"/>
<path d="M291.904 144.707C292.731 145.969 292.895 148.972 291.902 151.287" stroke="#29292C" stroke-width="0.2" stroke-linecap="round"/>
<path d="M293.68 145.84C294.047 146.618 294.56 148.714 293.68 150.874" stroke="#29292C" stroke-width="0.2" stroke-linecap="round"/>
<path d="M304.17 138.742C305.352 138.95 307.524 140.103 306.752 143.054" stroke="#29292C" stroke-width="0.2" stroke-linecap="round"/>
<path d="M305.766 140.654C306.067 140.945 306.579 141.968 306.218 143.727" stroke="#29292C" stroke-width="0.2" stroke-linecap="round"/>
<path d="M306.611 127.698C307.104 127.457 308.221 127.005 308.751 127.126" stroke="#29292C" stroke-width="0.2" stroke-linecap="round"/>
<path d="M307.062 126.284C307.303 126.153 307.894 125.892 308.328 125.893" stroke="#29292C" stroke-width="0.2" stroke-linecap="round"/>
<path d="M302.941 132.3C303.537 132.096 304.881 131.81 305.494 132.3" stroke="#29292C" stroke-width="0.2" stroke-linecap="round"/>
<path d="M303.088 131.48C303.299 131.29 304.07 130.901 305.463 130.863" stroke="#29292C" stroke-width="0.2" stroke-linecap="round"/>
<path d="M276.109 111.599C276.118 110.734 275.947 108.737 275.186 107.676" stroke="#29292C" stroke-width="0.2" stroke-linecap="round"/>
<path d="M276.629 111.456C276.811 110.485 276.963 108.156 276.109 106.609" stroke="#29292C" stroke-width="0.2" stroke-linecap="round"/>
<path d="M292.918 115.903C293.085 115.158 293.692 113.55 294.787 113.076" stroke="#29292C" stroke-width="0.2" stroke-linecap="round"/>
<path d="M293.494 116.467C293.711 115.74 294.519 114.088 296.018 113.293" stroke="#29292C" stroke-width="0.2" stroke-linecap="round"/>
<path d="M243.194 189.289C242.908 189.493 242.039 189.714 240.859 188.961" stroke="#29292C" stroke-width="0.2" stroke-linecap="round"/>
<path d="M243.986 188.612C243.711 188.761 243.01 188.913 242.404 188.336" stroke="#29292C" stroke-width="0.2" stroke-linecap="round"/>
<path d="M250.005 177.088C249.592 177.191 248.367 177.335 246.771 177.088" stroke="#29292C" stroke-width="0.2" stroke-linecap="round"/>
<path d="M250.107 176.264C249.671 176.378 248.532 176.538 247.459 176.264" stroke="#29292C" stroke-width="0.2" stroke-linecap="round"/>
<path d="M243.084 183.381C243.342 183.829 244.123 184.771 245.18 184.953" stroke="#29292C" stroke-width="0.2" stroke-linecap="round"/>
<path d="M243.332 182.857C243.484 183.222 244.029 183.982 244.995 184.11" stroke="#29292C" stroke-width="0.2" stroke-linecap="round"/>
<path d="M223.709 141.234C218.929 140.728 214.968 143.553 213.586 145.029C217.476 157.567 222.671 183.67 223.234 187.551C223.937 192.401 238.85 193.426 243.139 189.489C246.635 186.646 249.907 181.151 250.424 173.924C250.846 168.021 247.33 157.473 241.706 151.146C236.082 144.819 229.685 141.866 223.709 141.234Z" fill="#141414"/>
<path d="M215.096 143.98C213.024 144.494 212.88 145.81 212.207 146.674C218.725 161.235 230.701 190.208 232.836 190.879C235.504 191.718 241.586 188.099 243.653 181.495C245.51 176.387 244.608 169.374 243.029 165.069C239.979 156.749 233.781 149.709 227.685 146.182C221.473 142.589 216.015 143.751 215.096 143.98Z" fill="#8D3D02"/>
<path d="M213.619 144.672L204.561 150.232C204.476 158.168 205.718 175.507 211.355 181.383C218.402 188.727 224.506 190.365 229.816 191.209C235.126 192.052 238.485 188.341 239.487 187.139L239.516 187.104C240.94 185.397 244.566 181.049 243.406 170.876C240.658 158.201 232.612 150.834 227.017 147.241C222.06 144.058 216.09 144.025 213.619 144.672Z" fill="#DF8654"/>
<path d="M202.974 152.16L196.428 148.507L197.802 147.383L204.264 150.992L202.974 152.16Z" fill="#DFCDBF"/>
<path d="M258.934 121.677L258.932 106.871L260.786 104.971L260.789 119.926L258.934 121.677Z" fill="black"/>
<path d="M195.318 118.801C186.548 123.349 182.175 131.147 183.186 135.324C179.887 132.018 178.676 130.365 178.357 128.822C177.346 125.23 175.41 119.222 180.263 114.305C186.33 108.159 193.642 104.451 204.606 101.862C213.826 99.6853 226.341 98.8556 238.23 100.468C247.894 101.779 256.51 104.77 258.931 106.553V121.529C255.514 120.42 252.213 118.773 236.249 115.341C220.285 111.909 205.676 113.43 195.318 118.801Z" fill="black"/>
<path d="M209.358 148.64C200.349 149.151 200.021 159.354 200.616 164.5C201.638 170.158 204.439 174.327 207.657 178.203C217.889 189.995 227.307 188.078 229.436 186.966C231.689 185.789 237.152 180.79 235.646 172.375C234.489 165.91 228.945 159.033 226.543 156.594C224.101 154.113 217.716 148.166 209.358 148.64Z" fill="#DF8654"/>
<path d="M209.642 153.888C200.317 154.034 200.607 162.695 201.917 167.007C205.117 176.38 213.4 182.859 216.68 184.283C220.408 185.901 228.336 185.517 230.21 180.123C232.084 174.73 229.73 169.552 229.287 168.577C229.06 168.078 221.297 153.706 209.642 153.888Z" fill="#8D3D02"/>
<path d="M265.8 112.347L259.254 108.694L260.628 107.57L267.09 111.179L265.8 112.347Z" fill="#DFCDBF"/>
<path d="M259.443 119.053L259.254 108.693L265.721 112.309L264.81 122.056L259.443 119.053Z" fill="#B66021"/>
<path d="M198.147 145.334L195.99 146.887C183.934 140.705 178.39 133.38 176.453 128.181C172.846 118.501 177.959 113.67 180.965 110.874C184.428 107.376 194.406 100.582 208.363 98.7719C215.737 97.8154 221.61 97.2488 230.231 97.7519C247.261 99.0239 257.685 103.085 260.776 104.97L258.908 106.884C256.93 105.754 249.78 103.425 246.305 102.639C241.157 101.57 228.367 99.6219 218.388 100.382C205.915 101.333 200.495 102.818 198.119 103.769C195.743 104.719 189.295 106.699 184.029 111.213C179.308 115.259 178.057 117.638 177.69 120.044C176.537 132.019 191.272 141.997 198.147 145.334Z" fill="#DFCDC0"/>
<path d="M253.532 130.057C253.42 128.885 254.461 125.25 254.995 123.578L256.598 126.574L263.983 137.93C268.999 140.95 279.088 147.03 279.311 147.197C279.534 147.364 292.317 146.616 298.68 146.221C301.629 144.085 307.278 140.508 306.274 143.295C305.02 146.779 299.725 155 284.327 154.373C268.93 153.746 260.625 145.188 257.348 140.766C254.277 136.623 253.672 131.521 253.532 130.057Z" fill="#DF8654"/>
<ellipse cx="282.012" cy="128.716" rx="28.8611" ry="21.6256" transform="rotate(22.8984 282.012 128.716)" fill="#141414"/>
<path d="M263.578 142.23C263.698 141.439 264.168 139.669 265.089 138.922" stroke="#29292C" stroke-width="0.2" stroke-linecap="round"/>
<ellipse cx="282.555" cy="125.116" rx="13.5439" ry="8.23092" transform="rotate(22.8984 282.555 125.116)" fill="#592A10"/>
<ellipse cx="283.898" cy="126.981" rx="11.5765" ry="7.03533" transform="rotate(22.8984 283.898 126.981)" fill="#141414"/>
<path fill-rule="evenodd" clip-rule="evenodd" d="M279.113 136.751C289.411 141.101 299.902 139.554 302.545 133.296C305.189 127.037 298.984 118.438 288.686 114.088C278.388 109.739 267.897 111.286 265.254 117.544C262.61 123.803 268.815 132.402 279.113 136.751ZM281.163 131.901C287.053 134.388 293.053 133.503 294.565 129.924C296.076 126.345 292.527 121.426 286.638 118.939C280.748 116.451 274.748 117.336 273.236 120.915C271.724 124.495 275.273 129.413 281.163 131.901Z" fill="#8D3D02"/>
<path d="M254.35 126.395C254.654 125.214 255.727 122.648 257.585 121.83" stroke="#29292C" stroke-width="0.2" stroke-linecap="round"/>
<path d="M254.91 129.138C255.054 128.083 255.636 125.829 256.816 125.254" stroke="#29292C" stroke-width="0.2" stroke-linecap="round"/>
<path d="M262.68 141.511C262.932 140.216 263.96 137.231 266.06 135.648" stroke="#29292C" stroke-width="0.2" stroke-linecap="round"/>
<path d="M261.83 140.707C261.897 139.476 262.524 136.785 264.5 135.867" stroke="#29292C" stroke-width="0.2" stroke-linecap="round"/>
<path d="M279.089 136.811C279.11 137.652 278.936 139.622 278.066 140.773" stroke="#29292C" stroke-width="0.2" stroke-linecap="round"/>
<path d="M279.896 137.16C279.992 137.501 280.127 138.375 279.896 139.141" stroke="#29292C" stroke-width="0.2" stroke-linecap="round"/>
<path d="M236.751 146.67C236.39 146.721 235.61 146.985 235.387 147.63" stroke="#29292C" stroke-width="0.2" stroke-linecap="round"/>
<path d="M236.163 146.191C235.603 146.384 234.368 146.97 233.908 147.776" stroke="#29292C" stroke-width="0.2" stroke-linecap="round"/>
<path d="M246.35 158.682C245.924 158.812 244.826 159.22 243.844 159.81" stroke="#29292C" stroke-width="0.2" stroke-linecap="round"/>
<path d="M246.828 159.314C246.5 159.424 245.706 159.75 245.148 160.176" stroke="#29292C" stroke-width="0.2" stroke-linecap="round"/>
<path d="M220.954 143.662C220.91 143.242 221.056 142.29 222 141.84" stroke="#29292C" stroke-width="0.2" stroke-linecap="round"/>
<path d="M221.492 143.821C221.519 143.508 221.708 142.818 222.244 142.561" stroke="#29292C" stroke-width="0.2" stroke-linecap="round"/>
<path d="M229.562 147.225C229.688 146.849 230.093 146.071 230.715 145.965" stroke="#29292C" stroke-width="0.2" stroke-linecap="round"/>
<path d="M238.541 156.286C238.845 155.884 239.651 155.049 240.444 154.92" stroke="#29292C" stroke-width="0.2" stroke-linecap="round"/>
<path d="M238.754 156.611C239.04 156.325 239.73 155.72 240.202 155.592" stroke="#29292C" stroke-width="0.2" stroke-linecap="round"/>
<g opacity="0.5">
<path d="M207.746 164.881L211.693 161.234L213.063 162.717C213.899 163.622 213.794 164.614 213.039 165.316C212.281 166.011 211.283 166.029 210.442 165.119L209.736 164.356L208.401 165.589L207.746 164.881ZM210.32 163.817L210.934 164.482C211.431 165.014 211.952 164.977 212.369 164.591C212.792 164.201 212.862 163.692 212.368 163.157L211.754 162.492L210.32 163.817Z" fill="black"/>
<path d="M211.082 168.579C210.865 168.345 210.877 167.975 211.114 167.761C211.341 167.547 211.707 167.567 211.927 167.799C212.133 168.027 212.124 168.395 211.895 168.606C211.66 168.823 211.291 168.806 211.082 168.579Z" fill="black"/>
<path d="M212.163 169.662L216.11 166.016L217.48 167.499C218.316 168.404 218.211 169.395 217.456 170.098C216.698 170.793 215.699 170.811 214.858 169.9L214.153 169.137L212.817 170.371L212.163 169.662ZM214.737 168.598L215.351 169.263C215.847 169.795 216.369 169.758 216.786 169.373C217.208 168.983 217.278 168.473 216.785 167.939L216.171 167.274L214.737 168.598Z" fill="black"/>
<path d="M219.907 170.127L215.96 173.773L215.315 173.075L219.263 169.429L219.907 170.127Z" fill="black"/>
<path d="M217.728 175.808C216.905 174.916 216.993 173.819 217.92 172.963C218.836 172.117 219.971 172.099 220.752 172.944C221.421 173.669 221.545 174.717 220.507 175.676L220.289 175.878L218.38 173.811C217.886 174.288 217.86 174.862 218.278 175.31C218.558 175.617 218.877 175.701 219.138 175.627L219.767 176.309C219.139 176.657 218.363 176.495 217.728 175.808ZM218.857 173.376L220.149 174.774C220.549 174.399 220.592 173.854 220.222 173.454C219.837 173.037 219.256 173.053 218.857 173.376Z" fill="black"/>
</g>
</svg>
