<svg width="259" height="253" viewBox="0 0 259 253" fill="none" xmlns="http://www.w3.org/2000/svg">
<rect x="0.261719" y="0.453125" width="258" height="252" fill="#464497"/>
<mask id="mask0_531_8370" style="mask-type:alpha" maskUnits="userSpaceOnUse" x="0" y="0" width="259" height="253">
<rect x="0.261719" y="0.453125" width="258" height="252" fill="#D6895E"/>
</mask>
<g mask="url(#mask0_531_8370)">
<path d="M139.433 205.361C153.497 212.594 168.197 213.706 177.532 213.706C185.312 213.265 188.156 209.54 187.894 207.924C187.419 204.993 188.45 203.164 184.403 198.768C180.355 194.372 156.773 179.354 145.334 174.409C133.895 169.463 121.39 167.335 116.649 172.028C113.359 175.284 114.001 180.902 116.649 185.935C118.702 189.842 127.432 199.189 139.433 205.361Z" fill="#0F0D22"/>
<path d="M225.93 144.193C243.557 155.097 258.003 154.141 264.203 154.141C274.728 153.817 278.205 149.12 277.963 147.708C277.522 145.144 278.478 143.545 274.728 139.702C270.978 135.858 249.128 122.725 238.529 118.401L238.481 118.382C227.887 114.059 213.67 108.259 209.284 112.356C206.236 115.203 207.606 123.988 210.06 128.389C212.513 132.789 215.436 137.7 225.93 144.193Z" fill="#0F0D22"/>
<path d="M91.2777 136.013C89.075 133.029 86.5039 126.869 86.5039 121.217C86.8016 113.433 88.8515 118.456 90.4058 118.456C91.9602 118.456 95.5274 124.933 96.5636 130.402C97.5998 135.871 122.229 162.398 102.158 147.541C96.9363 143.676 93.4483 138.952 91.3079 136.053L91.2777 136.013Z" fill="#0F0D22"/>
<path d="M87.2969 121.892C88.0425 137.829 109.742 153.518 120.499 159.371L120.068 141.316C116.508 138.857 108.322 134.016 98.2336 125.03C90.1629 117.841 87.5797 105.022 87.2969 99.5117V121.892Z" fill="#1F1753"/>
<path d="M120.531 159.401L120.086 141.759L123.456 139.312L123.64 156.513L120.531 159.401Z" fill="black"/>
<path d="M121.067 156.521L120.77 144.304L122.934 142.533L123.1 154.681L121.067 156.521Z" fill="#A3A3A3"/>
<path d="M121.067 156.516L120.77 144.299L130.958 149.995L129.523 161.248L121.067 156.516Z" fill="#3B3563"/>
<path d="M246.312 86.154C246.327 84.7904 246.057 81.6449 244.857 79.9727" stroke="#29292C" stroke-width="0.2" stroke-linecap="round"/>
<path d="M247.129 85.929C247.416 84.3989 247.656 80.7295 246.311 78.293" stroke="#29292C" stroke-width="0.2" stroke-linecap="round"/>
<path d="M194.456 208.554C194.004 208.876 192.636 209.224 190.777 208.037" stroke="#29292C" stroke-width="0.2" stroke-linecap="round"/>
<path d="M195.699 207.49C195.266 207.724 194.161 207.964 193.207 207.055" stroke="#29292C" stroke-width="0.2" stroke-linecap="round"/>
<path d="M205.184 189.336C204.533 189.498 202.604 189.726 200.09 189.336" stroke="#29292C" stroke-width="0.2" stroke-linecap="round"/>
<path d="M205.347 188.035C204.661 188.215 202.867 188.468 201.176 188.035" stroke="#29292C" stroke-width="0.2" stroke-linecap="round"/>
<path d="M194.279 199.25C194.686 199.956 195.917 201.439 197.582 201.726" stroke="#29292C" stroke-width="0.2" stroke-linecap="round"/>
<path d="M194.676 198.424C194.915 198.998 195.774 200.196 197.296 200.398" stroke="#29292C" stroke-width="0.2" stroke-linecap="round"/>
<path d="M163.754 132.844C156.222 132.047 149.983 136.499 147.805 138.825C153.933 158.577 162.119 199.703 163.005 205.816C164.113 213.459 187.609 215.073 194.365 208.87C199.874 204.391 205.029 195.735 205.843 184.348C206.507 175.048 200.969 158.43 192.108 148.461C183.247 138.493 173.168 133.84 163.754 132.844Z" fill="#141414"/>
<path d="M150.184 137.173C146.92 137.984 146.693 140.058 145.633 141.419C155.902 164.359 174.771 210.007 178.134 211.064C182.338 212.385 191.92 206.683 195.175 196.279C198.101 188.231 196.68 177.183 194.193 170.399C189.387 157.291 179.623 146.199 170.019 140.644C160.232 134.982 151.632 136.814 150.184 137.173Z" fill="#BBB7D1"/>
<path d="M147.855 138.261L133.584 147.022C133.452 159.524 135.407 186.842 144.289 196.099C155.392 207.671 165.009 210.251 173.375 211.58C181.741 212.909 187.032 207.062 188.612 205.168L188.657 205.114C190.9 202.424 196.614 195.573 194.785 179.546C190.456 159.577 177.779 147.969 168.964 142.309C161.154 137.294 151.75 137.243 147.855 138.261Z" fill="#3F3A5A"/>
<path d="M131.083 150.059L120.77 144.304L122.934 142.533L133.116 148.219L131.083 150.059Z" fill="#CFC8FF"/>
<path d="M219.248 102.033L219.244 78.7062L222.166 75.7129L222.171 99.2752L219.248 102.033Z" fill="#A9A9A9"/>
<path d="M119.025 97.5073C105.208 104.673 98.3177 116.958 99.9111 123.539C94.7131 118.33 92.8055 115.726 92.3029 113.295C90.7099 107.636 87.6601 98.1699 95.306 90.4234C104.863 80.7404 116.385 74.8983 133.658 70.8198C148.184 67.3899 167.901 66.0827 186.632 68.6233C201.858 70.6886 215.432 75.4015 219.247 78.2097V101.805C213.864 100.058 208.662 97.4623 183.511 92.0556C158.36 86.6489 135.343 89.0445 119.025 97.5073Z" fill="black"/>
<path d="M141.142 144.515C126.949 145.32 126.432 161.394 127.37 169.503C128.979 178.416 133.392 184.985 138.462 191.091C154.583 209.669 169.421 206.649 172.775 204.897C176.326 203.043 184.932 195.167 182.56 181.91C180.737 171.723 172.001 160.889 168.218 157.046C164.37 153.137 154.311 143.768 141.142 144.515Z" fill="#1F1753"/>
<path d="M141.591 152.782C126.901 153.012 127.357 166.657 129.421 173.451C134.463 188.217 147.513 198.425 152.681 200.668C158.553 203.217 171.044 202.612 173.996 194.115C176.949 185.618 173.241 177.46 172.542 175.923C172.185 175.137 159.955 152.494 141.591 152.782Z" fill="#988DDB"/>
<path d="M230.071 87.3348L219.758 81.5794L221.922 79.8086L232.104 85.4943L230.071 87.3348Z" fill="#D2D2D2"/>
<path d="M220.055 97.8977L219.758 81.5762L229.947 87.2726L228.511 102.629L220.055 97.8977Z" fill="#989898"/>
<path d="M123.482 139.306L120.083 141.752C101.09 132.013 92.3547 120.473 89.3039 112.282C83.6204 97.0298 91.6754 89.42 96.4117 85.0134C101.867 79.5037 117.589 68.7998 139.578 65.9472C151.195 64.4403 160.449 63.5477 174.03 64.3403C200.861 66.3442 217.284 72.7429 222.155 75.7118L219.212 78.7284C216.094 76.9471 204.83 73.2776 199.355 72.0406C191.245 70.3561 171.094 67.2864 155.372 68.4842C135.72 69.9815 127.182 72.3223 123.439 73.8196C119.695 75.3169 109.536 78.4365 101.239 85.5486C93.8018 91.9232 91.8311 95.6708 91.2529 99.4613C89.4358 118.328 112.65 134.048 123.482 139.306Z" fill="#CFC8FF"/>
<path d="M210.742 115.234C210.566 113.389 212.205 107.661 213.047 105.027L215.572 109.747L227.208 127.639C235.111 132.396 251.006 141.975 251.357 142.239C251.708 142.502 271.847 141.324 281.873 140.702C286.52 137.336 295.418 131.701 293.838 136.092C291.862 141.58 283.519 154.533 259.26 153.545C235.001 152.557 221.916 139.074 216.754 132.107C211.915 125.579 210.962 117.541 210.742 115.234Z" fill="#3F3A5A"/>
<ellipse cx="255.615" cy="113.124" rx="45.4707" ry="34.0711" transform="rotate(22.8984 255.615 113.124)" fill="#141414"/>
<path d="M226.564 134.414C226.754 133.167 227.494 130.379 228.945 129.201" stroke="#29292C" stroke-width="0.2" stroke-linecap="round"/>
<ellipse cx="256.465" cy="107.45" rx="21.3383" ry="12.9678" transform="rotate(22.8984 256.465 107.45)" fill="#534B7E"/>
<ellipse cx="258.586" cy="110.391" rx="18.2388" ry="11.0842" transform="rotate(22.8984 258.586 110.391)" fill="#141414"/>
<path fill-rule="evenodd" clip-rule="evenodd" d="M251.047 125.778C267.272 132.63 283.8 130.193 287.965 120.333C292.129 110.473 282.353 96.9249 266.129 90.0721C249.905 83.2193 233.376 85.6569 229.212 95.5167C225.047 105.377 234.823 118.925 251.047 125.778ZM254.276 118.137C263.555 122.056 273.008 120.662 275.39 115.023C277.772 109.383 272.181 101.635 262.901 97.7153C253.622 93.7959 244.169 95.1901 241.787 100.829C239.405 106.469 244.996 114.217 254.276 118.137Z" fill="#988DDB"/>
<path d="M212.029 109.467C212.508 107.607 214.199 103.564 217.127 102.275" stroke="#29292C" stroke-width="0.2" stroke-linecap="round"/>
<path d="M212.912 113.792C213.139 112.129 214.056 108.578 215.915 107.672" stroke="#29292C" stroke-width="0.2" stroke-linecap="round"/>
<path d="M225.152 133.283C225.549 131.243 227.17 126.54 230.478 124.047" stroke="#29292C" stroke-width="0.2" stroke-linecap="round"/>
<path d="M223.818 132.012C223.924 130.072 224.912 125.832 228.024 124.387" stroke="#29292C" stroke-width="0.2" stroke-linecap="round"/>
<path d="M251.009 125.881C251.043 127.206 250.768 130.31 249.398 132.124" stroke="#29292C" stroke-width="0.2" stroke-linecap="round"/>
<path d="M252.279 126.432C252.43 126.969 252.642 128.345 252.279 129.553" stroke="#29292C" stroke-width="0.2" stroke-linecap="round"/>
<path d="M184.304 141.406C183.734 141.487 182.507 141.902 182.154 142.919" stroke="#29292C" stroke-width="0.2" stroke-linecap="round"/>
<path d="M183.375 140.652C182.493 140.956 180.547 141.88 179.822 143.148" stroke="#29292C" stroke-width="0.2" stroke-linecap="round"/>
<path d="M199.424 160.334C198.754 160.539 197.025 161.183 195.477 162.112" stroke="#29292C" stroke-width="0.2" stroke-linecap="round"/>
<path d="M200.181 161.33C199.665 161.503 198.413 162.017 197.535 162.687" stroke="#29292C" stroke-width="0.2" stroke-linecap="round"/>
<path d="M159.419 136.669C159.349 136.008 159.58 134.509 161.067 133.799" stroke="#29292C" stroke-width="0.2" stroke-linecap="round"/>
<path d="M160.262 136.923C160.305 136.43 160.601 135.342 161.446 134.938" stroke="#29292C" stroke-width="0.2" stroke-linecap="round"/>
<path d="M172.977 142.286C173.174 141.694 173.813 140.469 174.793 140.301" stroke="#29292C" stroke-width="0.2" stroke-linecap="round"/>
<path d="M187.123 156.563C187.602 155.93 188.871 154.613 190.122 154.41" stroke="#29292C" stroke-width="0.2" stroke-linecap="round"/>
<path d="M187.461 157.07C187.912 156.619 188.999 155.667 189.742 155.465" stroke="#29292C" stroke-width="0.2" stroke-linecap="round"/>
<path d="M134.824 172.498L140.355 164.686L143.42 166.855C145.195 168.112 145.439 169.929 144.35 171.467C143.246 173.026 141.45 173.366 139.648 172.09L138.246 171.097L136.443 173.644L134.824 172.498ZM139.17 169.792L140.314 170.601C141.274 171.281 142.126 171.074 142.678 170.283C143.233 169.51 143.135 168.654 142.178 167.969L141.034 167.159L139.17 169.792Z" fill="#AAA0E7"/>
<path d="M142.179 177.851C141.672 177.492 141.548 176.797 141.914 176.303C142.255 175.799 142.952 175.685 143.455 176.049C143.939 176.384 144.068 177.082 143.716 177.579C143.361 178.081 142.659 178.191 142.179 177.851Z" fill="#AAA0E7"/>
<path d="M144.46 179.32L149.991 171.508L153.056 173.678C154.831 174.935 155.075 176.752 153.986 178.289C152.882 179.849 151.086 180.189 149.284 178.913L147.881 177.92L146.078 180.466L144.46 179.32ZM148.806 176.614L149.95 177.424C150.91 178.104 151.761 177.897 152.314 177.105C152.869 176.332 152.77 175.476 151.814 174.791L150.67 173.981L148.806 176.614Z" fill="#AAA0E7"/>
<path d="M158.44 177.49L152.909 185.302L151.312 184.172L156.843 176.359L158.44 177.49Z" fill="#AAA0E7"/>
<path d="M156.72 188.179C154.927 186.902 154.648 184.962 155.967 183.11C157.242 181.299 159.226 180.865 160.941 182.08C162.479 183.168 163.005 184.999 161.592 186.995L161.271 187.448L157.268 184.614C156.641 185.499 156.779 186.414 157.6 187.004C158.149 187.385 158.706 187.422 159.11 187.182L160.632 188.26C159.637 189.184 158.17 189.197 156.72 188.179ZM157.978 183.611L160.471 185.375C160.97 184.659 160.841 183.799 160.125 183.3C159.396 182.776 158.488 182.959 157.978 183.611Z" fill="#AAA0E7"/>
</g>
</svg>
