<svg width="259" height="253" viewBox="0 0 259 253" fill="none" xmlns="http://www.w3.org/2000/svg">
<rect x="0.261719" y="0.310547" width="258" height="252" fill="#44976F"/>
<mask id="mask0_531_8573" style="mask-type:alpha" maskUnits="userSpaceOnUse" x="0" y="0" width="259" height="253">
<rect x="0.261719" y="0.310547" width="258" height="252" fill="#D69F5E"/>
</mask>
<g mask="url(#mask0_531_8573)">
<path d="M139.433 205.218C153.497 212.451 168.197 213.563 177.532 213.563C185.312 213.123 188.156 209.397 187.894 207.782C187.419 204.85 188.45 203.022 184.403 198.626C180.355 194.23 156.773 179.211 145.334 174.266C133.895 169.321 121.39 167.192 116.649 171.885C113.359 175.141 114.001 180.76 116.649 185.792C118.702 189.7 127.432 199.047 139.433 205.218Z" fill="#0F0D22"/>
<path d="M225.93 144.05C243.557 154.955 258.003 153.998 264.203 153.998C274.728 153.674 278.205 148.978 277.963 147.565C277.522 145.002 278.478 143.403 274.728 139.559C270.978 135.715 249.128 122.583 238.529 118.259L238.481 118.239C227.887 113.917 213.67 108.116 209.284 112.213C206.236 115.061 207.606 123.845 210.06 128.246C212.513 132.646 215.436 137.558 225.93 144.05Z" fill="#0F0D22"/>
<path d="M91.2777 135.87C89.075 132.887 86.5039 126.727 86.5039 121.074C86.8016 113.29 88.8515 118.314 90.4058 118.314C91.9602 118.314 95.5274 124.79 96.5636 130.259C97.5998 135.729 122.229 162.256 102.158 147.399C96.9363 143.534 93.4483 138.81 91.3079 135.911L91.2777 135.87Z" fill="#0F0D22"/>
<path d="M134.824 172.355L140.355 164.543L143.42 166.713C145.195 167.969 145.439 169.787 144.35 171.324C143.246 172.883 141.45 173.224 139.648 171.948L138.246 170.955L136.443 173.501L134.824 172.355ZM139.17 169.649L140.314 170.459C141.274 171.139 142.126 170.932 142.678 170.14C143.233 169.367 143.135 168.511 142.178 167.826L141.034 167.016L139.17 169.649Z" fill="#AAA0E7"/>
<path d="M142.179 177.709C141.672 177.349 141.548 176.654 141.914 176.16C142.255 175.656 142.952 175.542 143.455 175.907C143.939 176.241 144.068 176.94 143.716 177.436C143.361 177.938 142.659 178.048 142.179 177.709Z" fill="#AAA0E7"/>
<path d="M144.46 179.178L149.991 171.365L153.056 173.535C154.831 174.792 155.075 176.609 153.986 178.147C152.882 179.706 151.086 180.046 149.284 178.77L147.881 177.777L146.078 180.324L144.46 179.178ZM148.806 176.471L149.95 177.281C150.91 177.961 151.761 177.754 152.314 176.963C152.869 176.189 152.77 175.334 151.814 174.648L150.67 173.839L148.806 176.471Z" fill="#AAA0E7"/>
<path d="M158.44 177.348L152.909 185.16L151.312 184.029L156.843 176.217L158.44 177.348Z" fill="#AAA0E7"/>
<path d="M156.72 188.036C154.927 186.759 154.648 184.82 155.967 182.968C157.242 181.156 159.226 180.722 160.941 181.937C162.479 183.026 163.005 184.857 161.592 186.853L161.271 187.306L157.268 184.471C156.641 185.356 156.779 186.272 157.6 186.862C158.149 187.242 158.706 187.28 159.11 187.04L160.632 188.117C159.637 189.041 158.17 189.055 156.72 188.036ZM157.978 183.468L160.471 185.233C160.97 184.517 160.841 183.657 160.125 183.158C159.396 182.633 158.488 182.817 157.978 183.468Z" fill="#AAA0E7"/>
<path d="M143.224 206.25C156.802 212.959 170.994 213.99 180.006 213.991C187.517 213.582 190.262 210.126 190.009 208.628C189.551 205.908 190.547 204.212 186.639 200.135C182.731 196.057 159.965 182.126 148.921 177.539C137.878 172.952 125.805 170.978 121.228 175.33C118.052 178.351 118.672 183.563 121.228 188.231C123.21 191.855 131.638 200.525 143.224 206.25Z" fill="#17161E"/>
<path d="M232.276 139.63C250.643 151.197 265.695 150.183 272.154 150.183C283.121 149.839 286.744 144.857 286.492 143.359C286.033 140.639 287.029 138.943 283.121 134.865C279.213 130.788 256.447 116.857 245.404 112.27L245.354 112.249C234.316 107.664 219.502 101.511 214.932 105.857C211.756 108.877 213.184 118.196 215.74 122.864C218.296 127.533 221.342 132.743 232.276 139.63Z" fill="#17161E"/>
<path d="M86.8315 130.834C84.85 128.074 82.5371 122.375 82.5371 117.145C82.8049 109.943 84.649 114.591 86.0472 114.591C87.4454 114.591 90.6544 120.583 91.5865 125.643C92.5187 130.704 114.674 155.247 96.619 141.501C91.9218 137.925 88.7841 133.554 86.8587 130.872L86.8315 130.834Z" fill="#17161E"/>
<path d="M82.25 115.643C83.0487 132.714 106.293 149.52 117.815 155.79L117.354 136.45C113.54 133.816 104.772 128.63 93.9652 119.004C85.32 111.304 82.5529 97.5728 82.25 91.6699V115.643Z" fill="#8D3D02"/>
<path d="M117.848 155.818L117.371 136.919L120.981 134.299L121.178 152.724L117.848 155.818Z" fill="black"/>
<path d="M118.426 152.734L118.107 139.647L120.426 137.75L120.603 150.762L118.426 152.734Z" fill="#A3A3A3"/>
<path d="M118.426 152.728L118.107 139.641L129.021 145.743L127.484 157.796L118.426 152.728Z" fill="#B66021"/>
<path d="M252.584 77.3616C252.6 75.9008 252.31 72.5315 251.025 70.7402" stroke="#29292C" stroke-width="0.2" stroke-linecap="round"/>
<path d="M253.458 77.119C253.767 75.4799 254.023 71.5494 252.582 68.9395" stroke="#29292C" stroke-width="0.2" stroke-linecap="round"/>
<path d="M197.034 208.473C196.55 208.819 195.085 209.192 193.094 207.92" stroke="#29292C" stroke-width="0.2" stroke-linecap="round"/>
<path d="M198.37 207.332C197.906 207.582 196.723 207.839 195.701 206.865" stroke="#29292C" stroke-width="0.2" stroke-linecap="round"/>
<path d="M208.529 187.883C207.832 188.057 205.765 188.3 203.072 187.883" stroke="#29292C" stroke-width="0.2" stroke-linecap="round"/>
<path d="M208.699 186.492C207.964 186.685 206.042 186.956 204.23 186.492" stroke="#29292C" stroke-width="0.2" stroke-linecap="round"/>
<path d="M196.848 198.504C197.284 199.26 198.602 200.849 200.386 201.157" stroke="#29292C" stroke-width="0.2" stroke-linecap="round"/>
<path d="M197.266 197.619C197.522 198.234 198.442 199.518 200.072 199.734" stroke="#29292C" stroke-width="0.2" stroke-linecap="round"/>
<path d="M164.151 127.374C156.083 126.521 149.4 131.289 147.066 133.78C153.631 154.939 162.4 198.991 163.349 205.541C164.535 213.727 189.704 215.456 196.941 208.812C202.842 204.014 208.363 194.741 209.235 182.544C209.947 172.583 204.015 154.781 194.523 144.103C185.032 133.425 174.235 128.441 164.151 127.374Z" fill="#141414"/>
<path d="M149.614 132.007C146.117 132.875 145.874 135.096 144.738 136.554C155.739 161.128 175.95 210.024 179.553 211.156C184.056 212.572 194.32 206.464 197.807 195.319C200.941 186.699 199.419 174.864 196.755 167.598C191.607 153.556 181.147 141.675 170.86 135.724C160.377 129.66 151.165 131.621 149.614 132.007Z" fill="#8D3D02"/>
<path d="M147.122 133.175L131.835 142.56C131.693 155.952 133.788 185.214 143.302 195.13C155.195 207.525 165.496 210.289 174.457 211.713C183.419 213.137 189.087 206.873 190.779 204.844L190.827 204.786C193.23 201.905 199.35 194.566 197.391 177.398C192.755 156.008 179.175 143.574 169.732 137.511C161.367 132.139 151.293 132.084 147.122 133.175Z" fill="#DF8654"/>
<path d="M129.155 145.812L118.107 139.647L120.426 137.75L131.332 143.84L129.155 145.812Z" fill="#DFCDBF"/>
<path d="M223.596 94.3674L223.592 69.3802L226.722 66.1738L226.727 91.4132L223.596 94.3674Z" fill="black"/>
<path d="M116.236 89.5171C101.436 97.1926 94.0554 110.352 95.7622 117.402C90.1943 111.822 88.151 109.032 87.6126 106.428C85.9062 100.367 82.6393 90.2269 90.8294 81.929C101.067 71.5567 113.408 65.2989 131.911 60.9301C147.471 57.2561 168.591 55.8558 188.655 58.5772C204.966 60.7896 219.506 65.8378 223.592 68.846V94.1209C217.826 92.249 212.254 89.4689 185.313 83.6773C158.372 77.8858 133.716 80.452 116.236 89.5171Z" fill="black"/>
<path d="M139.93 139.873C124.727 140.736 124.173 157.954 125.178 166.64C126.902 176.188 131.629 183.224 137.06 189.765C154.328 209.665 170.223 206.43 173.815 204.554C177.618 202.567 186.838 194.13 184.296 179.93C182.344 169.018 172.986 157.413 168.934 153.297C164.811 149.109 154.036 139.073 139.93 139.873Z" fill="#DF8654"/>
<path d="M140.41 148.731C124.674 148.978 125.162 163.594 127.374 170.871C132.774 186.688 146.753 197.623 152.289 200.026C158.579 202.757 171.959 202.109 175.122 193.006C178.284 183.904 174.313 175.166 173.564 173.52C173.181 172.677 160.08 148.423 140.41 148.731Z" fill="#8D3D02"/>
<path d="M235.184 78.6224L224.137 72.4574L226.455 70.5605L237.362 76.651L235.184 78.6224Z" fill="#DFCDBF"/>
<path d="M224.456 89.9403L224.137 72.457L235.051 78.5589L233.513 95.0087L224.456 89.9403Z" fill="#B66021"/>
<path d="M121.009 134.294L117.368 136.914C97.0234 126.482 87.6661 114.12 84.3981 105.346C78.31 89.0084 86.9384 80.857 92.0118 76.1368C97.8558 70.2349 114.696 58.7691 138.251 55.7135C150.694 54.0993 160.607 53.1432 175.155 53.9921C203.895 56.1387 221.488 62.9929 226.705 66.173L223.552 69.4044C220.213 67.4963 208.147 63.5656 202.283 62.2406C193.595 60.4361 172.01 57.148 155.169 58.4311C134.118 60.0349 124.972 62.5424 120.962 64.1462C116.953 65.7501 106.071 69.0917 97.1825 76.7101C89.2161 83.5384 87.1051 87.5527 86.4858 91.613C84.5393 111.822 109.406 128.662 121.009 134.294Z" fill="#DFCDC0"/>
<path d="M214.481 108.511C214.292 106.535 216.048 100.399 216.95 97.5781L219.655 102.634L232.119 121.8C240.585 126.895 257.611 137.156 257.987 137.438C258.363 137.72 279.936 136.458 290.675 135.792C295.652 132.186 305.184 126.15 303.491 130.853C301.375 136.733 292.439 150.607 266.453 149.549C240.467 148.491 226.451 134.048 220.921 126.586C215.738 119.592 214.717 110.982 214.481 108.511Z" fill="#DF8654"/>
<ellipse cx="262.545" cy="106.248" rx="48.7072" ry="36.4962" transform="rotate(22.8984 262.545 106.248)" fill="#141414"/>
<path d="M231.436 129.054C231.638 127.719 232.432 124.732 233.985 123.471" stroke="#29292C" stroke-width="0.2" stroke-linecap="round"/>
<ellipse cx="263.46" cy="100.172" rx="22.8571" ry="13.8908" transform="rotate(22.8984 263.46 100.172)" fill="#592A10"/>
<ellipse cx="265.727" cy="103.321" rx="19.537" ry="11.8731" transform="rotate(22.8984 265.727 103.321)" fill="#141414"/>
<path fill-rule="evenodd" clip-rule="evenodd" d="M257.654 119.809C275.033 127.149 292.738 124.538 297.199 113.977C301.66 103.415 291.188 88.9025 273.809 81.5619C256.43 74.2213 238.725 76.8324 234.264 87.394C229.803 97.9557 240.275 112.468 257.654 119.809ZM261.113 111.624C271.053 115.822 281.179 114.329 283.73 108.288C286.282 102.247 280.292 93.9471 270.352 89.7487C260.413 85.5503 250.287 87.0438 247.735 93.0843C245.184 99.1249 251.173 107.425 261.113 111.624Z" fill="#8D3D02"/>
<path d="M215.861 102.331C216.374 100.338 218.185 96.0075 221.322 94.627" stroke="#29292C" stroke-width="0.2" stroke-linecap="round"/>
<path d="M216.805 106.962C217.047 105.181 218.03 101.376 220.021 100.406" stroke="#29292C" stroke-width="0.2" stroke-linecap="round"/>
<path d="M229.92 127.842C230.345 125.657 232.081 120.62 235.625 117.949" stroke="#29292C" stroke-width="0.2" stroke-linecap="round"/>
<path d="M228.484 126.484C228.597 124.407 229.656 119.865 232.99 118.316" stroke="#29292C" stroke-width="0.2" stroke-linecap="round"/>
<path d="M257.612 119.91C257.648 121.33 257.354 124.655 255.887 126.597" stroke="#29292C" stroke-width="0.2" stroke-linecap="round"/>
<path d="M186.162 136.547C185.552 136.633 184.237 137.078 183.859 138.168" stroke="#29292C" stroke-width="0.2" stroke-linecap="round"/>
<path d="M185.167 135.74C184.222 136.065 182.138 137.055 181.361 138.414" stroke="#29292C" stroke-width="0.2" stroke-linecap="round"/>
<path d="M202.36 156.818C201.641 157.038 199.789 157.727 198.131 158.723" stroke="#29292C" stroke-width="0.2" stroke-linecap="round"/>
<path d="M203.166 157.887C202.613 158.072 201.273 158.622 200.332 159.34" stroke="#29292C" stroke-width="0.2" stroke-linecap="round"/>
<path d="M159.502 131.471C159.427 130.763 159.674 129.157 161.267 128.396" stroke="#29292C" stroke-width="0.2" stroke-linecap="round"/>
<path d="M160.41 131.74C160.456 131.212 160.774 130.047 161.678 129.613" stroke="#29292C" stroke-width="0.2" stroke-linecap="round"/>
<path d="M174.029 137.484C174.24 136.85 174.925 135.537 175.975 135.357" stroke="#29292C" stroke-width="0.2" stroke-linecap="round"/>
<path d="M189.182 152.777C189.694 152.098 191.054 150.688 192.394 150.471" stroke="#29292C" stroke-width="0.2" stroke-linecap="round"/>
<path d="M189.541 153.323C190.024 152.84 191.188 151.82 191.984 151.604" stroke="#29292C" stroke-width="0.2" stroke-linecap="round"/>
<g opacity="0.5">
<path d="M137.211 167.282L143.873 161.129L146.185 163.632C147.596 165.159 147.419 166.832 146.144 168.018C144.865 169.19 143.18 169.221 141.76 167.684L140.571 166.396L138.316 168.479L137.211 167.282ZM141.555 165.487L142.592 166.609C143.429 167.507 144.31 167.444 145.013 166.794C145.727 166.135 145.845 165.276 145.012 164.374L143.975 163.252L141.555 165.487Z" fill="black"/>
<path d="M142.841 173.525C142.475 173.129 142.496 172.505 142.895 172.144C143.278 171.782 143.897 171.816 144.267 172.207C144.615 172.593 144.599 173.213 144.213 173.57C143.817 173.936 143.193 173.906 142.841 173.525Z" fill="black"/>
<path d="M144.665 175.352L151.327 169.198L153.639 171.701C155.05 173.229 154.872 174.901 153.598 176.087C152.319 177.26 150.634 177.291 149.214 175.754L148.024 174.466L145.77 176.548L144.665 175.352ZM149.009 173.556L150.046 174.679C150.883 175.576 151.763 175.514 152.467 174.864C153.18 174.205 153.299 173.345 152.466 172.444L151.429 171.321L149.009 173.556Z" fill="black"/>
<path d="M157.735 176.136L151.074 182.29L149.986 181.112L156.648 174.959L157.735 176.136Z" fill="black"/>
<path d="M154.058 185.723C152.668 184.219 152.817 182.368 154.381 180.923C155.927 179.495 157.843 179.465 159.16 180.891C160.291 182.115 160.5 183.883 158.747 185.502L158.379 185.842L155.157 182.354C154.323 183.159 154.281 184.128 154.986 184.883C155.458 185.402 155.997 185.543 156.436 185.419L157.499 186.569C156.438 187.156 155.129 186.883 154.058 185.723ZM155.962 181.619L158.142 183.98C158.819 183.346 158.891 182.427 158.266 181.751C157.616 181.047 156.635 181.074 155.962 181.619Z" fill="black"/>
</g>
</g>
</svg>
