<svg width="259" height="253" viewBox="0 0 259 253" fill="none" xmlns="http://www.w3.org/2000/svg">
<rect x="0.261719" y="0.0527344" width="258" height="252" fill="#448D97"/>
<mask id="mask0_531_8436" style="mask-type:alpha" maskUnits="userSpaceOnUse" x="0" y="0" width="259" height="253">
<rect x="0.261719" y="0.0527344" width="258" height="252" fill="#D6895E"/>
</mask>
<g mask="url(#mask0_531_8436)">
<path d="M139.433 204.961C153.497 212.194 168.197 213.305 177.532 213.305C185.312 212.865 188.156 209.139 187.894 207.524C187.419 204.592 188.45 202.764 184.403 198.368C180.355 193.972 156.773 178.954 145.334 174.008C133.895 169.063 121.39 166.935 116.649 171.627C113.359 174.884 114.001 180.502 116.649 185.534C118.702 189.442 127.432 198.789 139.433 204.961Z" fill="#10201C"/>
<path d="M225.93 143.792C243.557 154.697 258.003 153.74 264.203 153.74C274.728 153.417 278.205 148.72 277.963 147.307C277.522 144.744 278.478 143.145 274.728 139.301C270.978 135.457 249.128 122.325 238.529 118.001L238.481 117.981C227.887 113.659 213.67 107.858 209.284 111.955C206.236 114.803 207.606 123.588 210.06 127.988C212.513 132.389 215.436 137.3 225.93 143.792Z" fill="#10201C"/>
<path d="M91.2777 135.612C89.075 132.629 86.5039 126.469 86.5039 120.816C86.8016 113.032 88.8515 118.056 90.4058 118.056C91.9602 118.056 95.5274 124.532 96.5636 130.002C97.5998 135.471 122.229 161.998 102.158 147.141C96.9363 143.276 93.4483 138.552 91.3079 135.653L91.2777 135.612Z" fill="#10201C"/>
<path d="M87.2969 121.491C88.0425 137.428 109.742 153.118 120.499 158.97L120.068 140.916C116.508 138.457 108.322 133.616 98.2336 124.629C90.1629 117.44 87.5797 104.622 87.2969 99.1113V121.491Z" fill="#B45B5B"/>
<path d="M120.531 159.001L120.086 141.358L123.456 138.912L123.64 156.113L120.531 159.001Z" fill="black"/>
<path d="M121.067 156.121L120.77 143.904L122.934 142.133L123.1 154.281L121.067 156.121Z" fill="#A3A3A3"/>
<path d="M121.067 156.116L120.77 143.898L130.958 149.595L129.523 160.848L121.067 156.116Z" fill="#D07D7D"/>
<path d="M246.312 85.7536C246.327 84.39 246.057 81.2445 244.857 79.5723" stroke="#29292C" stroke-width="0.2" stroke-linecap="round"/>
<path d="M247.129 85.5286C247.416 83.9985 247.656 80.3291 246.311 77.8926" stroke="#29292C" stroke-width="0.2" stroke-linecap="round"/>
<path d="M194.456 208.153C194.004 208.476 192.636 208.824 190.777 207.637" stroke="#29292C" stroke-width="0.2" stroke-linecap="round"/>
<path d="M195.699 207.09C195.266 207.324 194.161 207.564 193.207 206.654" stroke="#29292C" stroke-width="0.2" stroke-linecap="round"/>
<path d="M205.184 188.936C204.533 189.098 202.604 189.325 200.09 188.936" stroke="#29292C" stroke-width="0.2" stroke-linecap="round"/>
<path d="M205.347 187.635C204.661 187.815 202.867 188.068 201.176 187.635" stroke="#29292C" stroke-width="0.2" stroke-linecap="round"/>
<path d="M194.279 198.85C194.686 199.555 195.917 201.039 197.582 201.326" stroke="#29292C" stroke-width="0.2" stroke-linecap="round"/>
<path d="M194.676 198.023C194.915 198.597 195.774 199.796 197.296 199.997" stroke="#29292C" stroke-width="0.2" stroke-linecap="round"/>
<path d="M163.754 132.444C156.222 131.647 149.983 136.099 147.805 138.424C153.933 158.177 162.119 199.302 163.005 205.416C164.113 213.059 187.609 214.672 194.365 208.47C199.874 203.991 205.029 195.334 205.843 183.947C206.507 174.648 200.969 158.029 192.108 148.061C183.247 138.093 173.168 133.44 163.754 132.444Z" fill="#141414"/>
<path d="M150.184 136.773C146.92 137.583 146.693 139.657 145.633 141.018C155.902 163.959 174.771 209.606 178.134 210.663C182.338 211.985 191.92 206.283 195.175 195.878C198.101 187.831 196.68 176.782 194.193 169.999C189.387 156.89 179.623 145.799 170.019 140.244C160.232 134.582 151.632 136.413 150.184 136.773Z" fill="#D68585"/>
<path d="M147.855 137.861L133.584 146.622C133.452 159.124 135.407 186.442 144.289 195.699C155.392 207.27 165.009 209.851 173.375 211.18C181.741 212.509 187.032 206.662 188.612 204.767L188.657 204.713C190.9 202.024 196.614 195.173 194.785 179.145C190.456 159.177 177.779 147.569 168.964 141.908C161.154 136.894 151.75 136.842 147.855 137.861Z" fill="#B45B5B"/>
<path d="M131.083 149.659L120.77 143.904L122.934 142.133L133.116 147.819L131.083 149.659Z" fill="#FFC8C8"/>
<path d="M219.248 101.633L219.244 78.3058L222.166 75.3125L222.171 98.8748L219.248 101.633Z" fill="black"/>
<path d="M119.025 97.1069C105.208 104.272 98.3177 116.557 99.9111 123.139C94.7131 117.929 92.8055 115.325 92.3029 112.894C90.7099 107.235 87.6601 97.7695 95.306 90.0231C104.863 80.34 116.385 74.4979 133.658 70.4194C148.184 66.9895 167.901 65.6823 186.632 68.2229C201.858 70.2882 215.432 75.0011 219.247 77.8093V101.405C213.864 99.6572 208.662 97.0619 183.511 91.6552C158.36 86.2485 135.343 88.6441 119.025 97.1069Z" fill="black"/>
<path d="M141.142 144.114C126.949 144.92 126.432 160.994 127.37 169.102C128.979 178.016 133.392 184.585 138.462 190.691C154.583 209.269 169.421 206.249 172.775 204.497C176.326 202.642 184.932 194.766 182.56 181.509C180.737 171.323 172.001 160.489 168.218 156.646C164.37 152.736 154.311 143.367 141.142 144.114Z" fill="#B45B5B"/>
<path d="M141.591 152.382C126.901 152.612 127.357 166.257 129.421 173.05C134.463 187.816 147.513 198.024 152.681 200.268C158.553 202.817 171.044 202.212 173.996 193.715C176.949 185.217 173.241 177.06 172.542 175.523C172.185 174.736 159.955 152.094 141.591 152.382Z" fill="#D68585"/>
<path d="M230.071 86.9344L219.758 81.179L221.922 79.4082L232.104 85.0939L230.071 86.9344Z" fill="#FFC8C8"/>
<path d="M220.055 97.4973L219.758 81.1758L229.947 86.8722L228.511 102.229L220.055 97.4973Z" fill="#D07D7D"/>
<path d="M123.482 138.906L120.083 141.352C101.09 131.613 92.3547 120.072 89.3039 111.881C83.6204 96.6294 91.6754 89.0196 96.4117 84.613C101.867 79.1033 117.589 68.3994 139.578 65.5469C151.195 64.0399 160.449 63.1473 174.03 63.9399C200.861 65.9438 217.284 72.3426 222.155 75.3114L219.212 78.328C216.094 76.5467 204.83 72.8772 199.355 71.6403C191.245 69.9557 171.094 66.886 155.372 68.0838C135.72 69.5811 127.182 71.922 123.439 73.4192C119.695 74.9165 109.536 78.0361 101.239 85.1482C93.8018 91.5228 91.8311 95.2704 91.2529 99.0609C89.4358 117.927 112.65 133.648 123.482 138.906Z" fill="#FFC8C8"/>
<path d="M210.742 114.834C210.566 112.989 212.205 107.26 213.047 104.627L215.572 109.347L227.208 127.239C235.111 131.996 251.006 141.575 251.357 141.838C251.708 142.102 271.847 140.924 281.873 140.302C286.52 136.935 295.418 131.3 293.838 135.691C291.862 141.18 283.519 154.132 259.26 153.145C235.001 152.157 221.916 138.674 216.754 131.707C211.915 125.178 210.962 117.14 210.742 114.834Z" fill="#B45B5B"/>
<ellipse cx="255.615" cy="112.723" rx="45.4707" ry="34.0711" transform="rotate(22.8984 255.615 112.723)" fill="#141414"/>
<path d="M226.564 134.013C226.754 132.766 227.494 129.978 228.945 128.801" stroke="#29292C" stroke-width="0.2" stroke-linecap="round"/>
<ellipse cx="256.465" cy="107.049" rx="21.3383" ry="12.9678" transform="rotate(22.8984 256.465 107.049)" fill="#AB5050"/>
<ellipse cx="258.586" cy="109.991" rx="18.2388" ry="11.0842" transform="rotate(22.8984 258.586 109.991)" fill="#141414"/>
<path fill-rule="evenodd" clip-rule="evenodd" d="M251.047 125.377C267.272 132.23 283.8 129.792 287.965 119.933C292.129 110.073 282.353 96.5245 266.129 89.6717C249.905 82.8189 233.376 85.2565 229.212 95.1163C225.047 104.976 234.823 118.524 251.047 125.377ZM254.276 117.736C263.555 121.656 273.008 120.262 275.39 114.622C277.772 108.983 272.181 101.234 262.901 97.3149C253.622 93.3955 244.169 94.7897 241.787 100.429C239.405 106.068 244.996 113.817 254.276 117.736Z" fill="#D68585"/>
<path d="M212.029 109.067C212.508 107.207 214.199 103.164 217.127 101.875" stroke="#29292C" stroke-width="0.2" stroke-linecap="round"/>
<path d="M212.912 113.391C213.139 111.729 214.056 108.177 215.915 107.271" stroke="#29292C" stroke-width="0.2" stroke-linecap="round"/>
<path d="M225.152 132.882C225.549 130.842 227.17 126.14 230.478 123.646" stroke="#29292C" stroke-width="0.2" stroke-linecap="round"/>
<path d="M223.818 131.611C223.924 129.672 224.912 125.432 228.024 123.986" stroke="#29292C" stroke-width="0.2" stroke-linecap="round"/>
<path d="M251.009 125.48C251.043 126.806 250.768 129.91 249.398 131.723" stroke="#29292C" stroke-width="0.2" stroke-linecap="round"/>
<path d="M252.279 126.031C252.43 126.568 252.642 127.945 252.279 129.153" stroke="#29292C" stroke-width="0.2" stroke-linecap="round"/>
<path d="M184.304 141.006C183.734 141.086 182.507 141.502 182.154 142.519" stroke="#29292C" stroke-width="0.2" stroke-linecap="round"/>
<path d="M183.375 140.252C182.493 140.555 180.547 141.479 179.822 142.748" stroke="#29292C" stroke-width="0.2" stroke-linecap="round"/>
<path d="M199.424 159.934C198.754 160.139 197.025 160.782 195.477 161.712" stroke="#29292C" stroke-width="0.2" stroke-linecap="round"/>
<path d="M200.181 160.93C199.665 161.103 198.413 161.616 197.535 162.287" stroke="#29292C" stroke-width="0.2" stroke-linecap="round"/>
<path d="M159.419 136.269C159.349 135.608 159.58 134.108 161.067 133.398" stroke="#29292C" stroke-width="0.2" stroke-linecap="round"/>
<path d="M160.262 136.522C160.305 136.029 160.601 134.942 161.446 134.537" stroke="#29292C" stroke-width="0.2" stroke-linecap="round"/>
<path d="M172.977 141.885C173.174 141.294 173.813 140.068 174.793 139.9" stroke="#29292C" stroke-width="0.2" stroke-linecap="round"/>
<path d="M187.123 156.162C187.602 155.529 188.871 154.213 190.122 154.01" stroke="#29292C" stroke-width="0.2" stroke-linecap="round"/>
<path d="M187.461 156.67C187.912 156.219 188.999 155.267 189.742 155.064" stroke="#29292C" stroke-width="0.2" stroke-linecap="round"/>
<path d="M134.824 172.097L140.355 164.285L143.42 166.455C145.195 167.712 145.439 169.529 144.35 171.066C143.246 172.626 141.45 172.966 139.648 171.69L138.246 170.697L136.443 173.243L134.824 172.097ZM139.17 169.391L140.314 170.201C141.274 170.881 142.126 170.674 142.678 169.882C143.233 169.109 143.135 168.254 142.178 167.568L141.034 166.758L139.17 169.391Z" fill="#EDAFAF"/>
<path d="M142.179 177.451C141.672 177.092 141.548 176.397 141.914 175.903C142.255 175.399 142.952 175.284 143.455 175.649C143.939 175.983 144.068 176.682 143.716 177.178C143.361 177.68 142.659 177.791 142.179 177.451Z" fill="#EDAFAF"/>
<path d="M144.46 178.92L149.991 171.108L153.056 173.277C154.831 174.534 155.075 176.351 153.986 177.889C152.882 179.448 151.086 179.788 149.284 178.512L147.881 177.519L146.078 180.066L144.46 178.92ZM148.806 176.214L149.95 177.023C150.91 177.703 151.761 177.496 152.314 176.705C152.869 175.932 152.77 175.076 151.814 174.391L150.67 173.581L148.806 176.214Z" fill="#EDAFAF"/>
<path d="M158.44 177.09L152.909 184.902L151.312 183.771L156.843 175.959L158.44 177.09Z" fill="#EDAFAF"/>
<path d="M156.72 187.779C154.927 186.501 154.648 184.562 155.967 182.71C157.242 180.899 159.226 180.465 160.941 181.679C162.479 182.768 163.005 184.599 161.592 186.595L161.271 187.048L157.268 184.214C156.641 185.098 156.779 186.014 157.6 186.604C158.149 186.984 158.706 187.022 159.11 186.782L160.632 187.859C159.637 188.783 158.17 188.797 156.72 187.779ZM157.978 183.21L160.471 184.975C160.97 184.259 160.841 183.399 160.125 182.9C159.396 182.375 158.488 182.559 157.978 183.21Z" fill="#EDAFAF"/>
</g>
</svg>
