<svg width="259" height="253" viewBox="0 0 259 253" fill="none" xmlns="http://www.w3.org/2000/svg">
<rect x="0.261719" y="0.710938" width="258" height="252" fill="#974444"/>
<mask id="mask0_531_8502" style="mask-type:alpha" maskUnits="userSpaceOnUse" x="0" y="0" width="259" height="253">
<rect x="0.261719" y="0.710938" width="258" height="252" fill="#D69F5E"/>
</mask>
<g mask="url(#mask0_531_8502)">
<path d="M139.433 205.619C153.497 212.852 168.197 213.963 177.532 213.964C185.312 213.523 188.156 209.798 187.894 208.182C187.419 205.251 188.45 203.422 184.403 199.026C180.355 194.63 156.773 179.612 145.334 174.666C133.895 169.721 121.39 167.593 116.649 172.285C113.359 175.542 114.001 181.16 116.649 186.193C118.702 190.1 127.432 199.447 139.433 205.619Z" fill="#0F0D22"/>
<path d="M225.93 144.45C243.557 155.355 258.003 154.398 264.203 154.398C274.728 154.075 278.205 149.378 277.963 147.966C277.522 145.402 278.478 143.803 274.728 139.959C270.978 136.116 249.128 122.983 238.529 118.659L238.481 118.639C227.887 114.317 213.67 108.517 209.284 112.614C206.236 115.461 207.606 124.246 210.06 128.646C212.513 133.047 215.436 137.958 225.93 144.45Z" fill="#0F0D22"/>
<path d="M91.2777 136.27C89.075 133.287 86.5039 127.127 86.5039 121.474C86.8016 113.69 88.8515 118.714 90.4058 118.714C91.9602 118.714 95.5274 125.191 96.5636 130.66C97.5998 136.129 122.229 162.656 102.158 147.799C96.9363 143.934 93.4483 139.21 91.3079 136.311L91.2777 136.27Z" fill="#0F0D22"/>
<path d="M134.824 172.756L140.355 164.943L143.42 167.113C145.195 168.37 145.439 170.187 144.35 171.725C143.246 173.284 141.45 173.624 139.648 172.348L138.246 171.355L136.443 173.902L134.824 172.756ZM139.17 170.049L140.314 170.859C141.274 171.539 142.126 171.332 142.678 170.54C143.233 169.767 143.135 168.912 142.178 168.226L141.034 167.417L139.17 170.049Z" fill="#AAA0E7"/>
<path d="M142.179 178.109C141.672 177.75 141.548 177.055 141.914 176.561C142.255 176.057 142.952 175.942 143.455 176.307C143.939 176.642 144.068 177.34 143.716 177.837C143.361 178.338 142.659 178.449 142.179 178.109Z" fill="#AAA0E7"/>
<path d="M144.46 179.578L149.991 171.766L153.056 173.936C154.831 175.192 155.075 177.01 153.986 178.547C152.882 180.106 151.086 180.447 149.284 179.171L147.881 178.177L146.078 180.724L144.46 179.578ZM148.806 176.872L149.95 177.682C150.91 178.362 151.761 178.154 152.314 177.363C152.869 176.59 152.77 175.734 151.814 175.049L150.67 174.239L148.806 176.872Z" fill="#AAA0E7"/>
<path d="M158.44 177.748L152.909 185.56L151.312 184.429L156.843 176.617L158.44 177.748Z" fill="#AAA0E7"/>
<path d="M156.72 188.437C154.927 187.159 154.648 185.22 155.967 183.368C157.242 181.557 159.226 181.123 160.941 182.338C162.479 183.426 163.005 185.257 161.592 187.253L161.271 187.706L157.268 184.872C156.641 185.757 156.779 186.672 157.6 187.262C158.149 187.642 158.706 187.68 159.11 187.44L160.632 188.517C159.637 189.441 158.17 189.455 156.72 188.437ZM157.978 183.868L160.471 185.633C160.97 184.917 160.841 184.057 160.125 183.558C159.396 183.033 158.488 183.217 157.978 183.868Z" fill="#AAA0E7"/>
<path d="M143.224 206.65C156.802 213.36 170.994 214.391 180.006 214.391C187.517 213.983 190.262 210.527 190.009 209.028C189.551 206.309 190.547 204.613 186.639 200.535C182.731 196.458 159.965 182.527 148.921 177.939C137.878 173.352 125.805 171.378 121.228 175.731C118.052 178.751 118.672 183.963 121.228 188.631C123.21 192.255 131.638 200.926 143.224 206.65Z" fill="#17161E"/>
<path d="M232.276 140.03C250.643 151.598 265.695 150.583 272.154 150.583C283.121 150.24 286.744 145.257 286.492 143.759C286.033 141.04 287.029 139.343 283.121 135.266C279.213 131.188 256.447 117.257 245.404 112.67L245.354 112.649C234.316 108.064 219.502 101.911 214.932 106.257C211.756 109.278 213.184 118.597 215.74 123.265C218.296 127.933 221.342 133.143 232.276 140.03Z" fill="#17161E"/>
<path d="M86.8315 131.235C84.85 128.474 82.5371 122.775 82.5371 117.545C82.8049 110.343 84.649 114.991 86.0472 114.991C87.4454 114.991 90.6544 120.983 91.5865 126.044C92.5187 131.104 114.674 155.647 96.619 141.901C91.9218 138.325 88.7841 133.955 86.8587 131.272L86.8315 131.235Z" fill="#17161E"/>
<path d="M82.25 116.043C83.0487 133.115 106.293 149.921 117.815 156.19L117.354 136.85C113.54 134.217 104.772 129.031 93.9652 119.405C85.32 111.704 82.5529 97.9731 82.25 92.0703V116.043Z" fill="#315317"/>
<path d="M117.848 156.218L117.371 137.32L120.981 134.699L121.178 153.124L117.848 156.218Z" fill="black"/>
<path d="M118.426 153.134L118.107 140.047L120.426 138.15L120.603 151.163L118.426 153.134Z" fill="#A3A3A3"/>
<path d="M118.426 153.128L118.107 140.041L129.021 146.143L127.484 158.196L118.426 153.128Z" fill="#698B4F"/>
<path d="M252.584 77.762C252.6 76.3012 252.31 72.9319 251.025 71.1406" stroke="#29292C" stroke-width="0.2" stroke-linecap="round"/>
<path d="M253.458 77.5193C253.767 75.8803 254.023 71.9498 252.582 69.3398" stroke="#29292C" stroke-width="0.2" stroke-linecap="round"/>
<path d="M197.034 208.874C196.55 209.219 195.085 209.592 193.094 208.32" stroke="#29292C" stroke-width="0.2" stroke-linecap="round"/>
<path d="M198.37 207.732C197.906 207.983 196.723 208.24 195.701 207.266" stroke="#29292C" stroke-width="0.2" stroke-linecap="round"/>
<path d="M208.529 188.283C207.832 188.457 205.765 188.701 203.072 188.283" stroke="#29292C" stroke-width="0.2" stroke-linecap="round"/>
<path d="M208.699 186.893C207.964 187.086 206.042 187.356 204.23 186.893" stroke="#29292C" stroke-width="0.2" stroke-linecap="round"/>
<path d="M196.848 198.904C197.284 199.66 198.602 201.25 200.386 201.557" stroke="#29292C" stroke-width="0.2" stroke-linecap="round"/>
<path d="M197.266 198.02C197.522 198.634 198.442 199.918 200.072 200.134" stroke="#29292C" stroke-width="0.2" stroke-linecap="round"/>
<path d="M164.151 127.775C156.083 126.921 149.4 131.69 147.066 134.181C153.631 155.339 162.4 199.392 163.349 205.941C164.535 214.127 189.704 215.856 196.941 209.212C202.842 204.414 208.363 195.142 209.235 182.944C209.947 172.983 204.015 155.181 194.523 144.503C185.032 133.825 174.235 128.842 164.151 127.775Z" fill="#141414"/>
<path d="M149.614 132.407C146.117 133.275 145.874 135.497 144.738 136.955C155.739 161.528 175.95 210.425 179.553 211.557C184.056 212.972 194.32 206.865 197.807 195.72C200.941 187.099 199.419 175.264 196.755 167.998C191.607 153.957 181.147 142.076 170.86 136.125C160.377 130.06 151.165 132.022 149.614 132.407Z" fill="#315317"/>
<path d="M147.122 133.576L131.835 142.96C131.693 156.352 133.788 185.614 143.302 195.53C155.195 207.926 165.496 210.69 174.457 212.113C183.419 213.537 189.087 207.274 190.779 205.244L190.827 205.187C193.23 202.305 199.35 194.967 197.391 177.799C192.755 156.409 179.175 143.975 169.732 137.911C161.367 132.54 151.293 132.485 147.122 133.576Z" fill="#1E221A"/>
<path d="M129.155 146.212L118.107 140.047L120.426 138.15L131.332 144.241L129.155 146.212Z" fill="#CDDFBF"/>
<path d="M223.596 94.7677L223.592 69.7806L226.722 66.5742L226.727 91.8136L223.596 94.7677Z" fill="black"/>
<path d="M116.236 89.9175C101.436 97.593 94.0554 110.752 95.7622 117.803C90.1943 112.222 88.151 109.433 87.6126 106.829C85.9062 100.767 82.6393 90.6273 90.8294 82.3294C101.067 71.9571 113.408 65.6993 131.911 61.3305C147.471 57.6564 168.591 56.2562 188.655 58.9776C204.966 61.19 219.506 66.2382 223.592 69.2463V94.5213C217.826 92.6493 212.254 89.8693 185.313 84.0777C158.372 78.2862 133.716 80.8524 116.236 89.9175Z" fill="black"/>
<path d="M139.93 140.274C124.727 141.136 124.173 158.355 125.178 167.04C126.902 176.588 131.629 183.624 137.06 190.165C154.328 210.066 170.223 206.83 173.815 204.954C177.618 202.967 186.838 194.531 184.296 180.33C182.344 169.419 172.986 157.814 168.934 153.697C164.811 149.509 154.036 139.473 139.93 140.274Z" fill="#1E221A"/>
<path d="M140.41 149.132C124.674 149.378 125.162 163.994 127.374 171.272C132.774 187.089 146.753 198.023 152.289 200.426C158.579 203.157 171.959 202.509 175.122 193.407C178.284 184.304 174.313 175.567 173.564 173.92C173.181 173.078 160.08 148.824 140.41 149.132Z" fill="#315317"/>
<path d="M235.184 79.0228L224.137 72.8578L226.455 70.9609L237.362 77.0514L235.184 79.0228Z" fill="#CDDFBF"/>
<path d="M224.456 90.3407L224.137 72.8574L235.051 78.9593L233.513 95.4091L224.456 90.3407Z" fill="#698B4F"/>
<path d="M121.009 134.695L117.368 137.314C97.0234 126.882 87.6661 114.52 84.3981 105.747C78.31 89.4088 86.9384 81.2574 92.0118 76.5372C97.8558 70.6353 114.696 59.1694 138.251 56.1139C150.694 54.4997 160.607 53.5435 175.155 54.3925C203.895 56.5391 221.488 63.3933 226.705 66.5734L223.552 69.8048C220.213 67.8967 208.147 63.966 202.283 62.641C193.595 60.8365 172.01 57.5484 155.169 58.8315C134.118 60.4353 124.972 62.9428 120.962 64.5466C116.953 66.1505 106.071 69.4921 97.1825 77.1105C89.2161 83.9388 87.1051 87.953 86.4858 92.0134C84.5393 112.223 109.406 129.062 121.009 134.695Z" fill="#CDDFC0"/>
<path d="M214.481 108.912C214.292 106.935 216.048 100.799 216.95 97.9785L219.655 103.034L232.119 122.2C240.585 127.295 257.611 137.556 257.987 137.838C258.363 138.121 279.936 136.859 290.675 136.192C295.652 132.586 305.184 126.551 303.491 131.254C301.375 137.133 292.439 151.008 266.453 149.949C240.467 148.891 226.451 134.449 220.921 126.986C215.738 119.993 214.717 111.382 214.481 108.912Z" fill="#315317"/>
<ellipse cx="262.545" cy="106.648" rx="48.7072" ry="36.4962" transform="rotate(22.8984 262.545 106.648)" fill="#141414"/>
<path d="M231.436 129.455C231.638 128.119 232.432 125.132 233.985 123.871" stroke="#29292C" stroke-width="0.2" stroke-linecap="round"/>
<ellipse cx="263.46" cy="100.573" rx="22.8571" ry="13.8908" transform="rotate(22.8984 263.46 100.573)" fill="#27321B"/>
<ellipse cx="265.727" cy="103.721" rx="19.537" ry="11.8731" transform="rotate(22.8984 265.727 103.721)" fill="#141414"/>
<path fill-rule="evenodd" clip-rule="evenodd" d="M257.654 120.209C275.033 127.55 292.738 124.939 297.199 114.377C301.66 103.815 291.188 89.3029 273.809 81.9623C256.43 74.6217 238.725 77.2328 234.264 87.7944C229.803 98.3561 240.275 112.869 257.654 120.209ZM261.113 112.024C271.053 116.222 281.179 114.729 283.73 108.688C286.282 102.648 280.292 94.3475 270.352 90.1491C260.413 85.9507 250.287 87.4441 247.735 93.4847C245.184 99.5253 251.173 107.826 261.113 112.024Z" fill="#315317"/>
<path d="M215.861 102.731C216.374 100.739 218.185 96.4079 221.322 95.0273" stroke="#29292C" stroke-width="0.2" stroke-linecap="round"/>
<path d="M216.805 107.362C217.047 105.581 218.03 101.777 220.021 100.807" stroke="#29292C" stroke-width="0.2" stroke-linecap="round"/>
<path d="M229.92 128.243C230.345 126.058 232.081 121.02 235.625 118.35" stroke="#29292C" stroke-width="0.2" stroke-linecap="round"/>
<path d="M228.484 126.884C228.597 124.807 229.656 120.265 232.99 118.717" stroke="#29292C" stroke-width="0.2" stroke-linecap="round"/>
<path d="M257.612 120.311C257.648 121.73 257.354 125.055 255.887 126.998" stroke="#29292C" stroke-width="0.2" stroke-linecap="round"/>
<path d="M186.162 136.947C185.552 137.033 184.237 137.478 183.859 138.568" stroke="#29292C" stroke-width="0.2" stroke-linecap="round"/>
<path d="M185.167 136.141C184.222 136.466 182.138 137.455 181.361 138.814" stroke="#29292C" stroke-width="0.2" stroke-linecap="round"/>
<path d="M202.36 157.219C201.641 157.439 199.789 158.128 198.131 159.124" stroke="#29292C" stroke-width="0.2" stroke-linecap="round"/>
<path d="M203.166 158.287C202.613 158.472 201.273 159.022 200.332 159.741" stroke="#29292C" stroke-width="0.2" stroke-linecap="round"/>
<path d="M159.502 131.871C159.427 131.163 159.674 129.557 161.267 128.797" stroke="#29292C" stroke-width="0.2" stroke-linecap="round"/>
<path d="M160.41 132.14C160.456 131.612 160.774 130.447 161.678 130.014" stroke="#29292C" stroke-width="0.2" stroke-linecap="round"/>
<path d="M174.029 137.884C174.24 137.25 174.925 135.938 175.975 135.758" stroke="#29292C" stroke-width="0.2" stroke-linecap="round"/>
<path d="M189.182 153.177C189.694 152.499 191.054 151.088 192.394 150.871" stroke="#29292C" stroke-width="0.2" stroke-linecap="round"/>
<path d="M189.541 153.724C190.024 153.241 191.188 152.221 191.984 152.004" stroke="#29292C" stroke-width="0.2" stroke-linecap="round"/>
<g opacity="0.5">
<path d="M137.211 167.683L143.873 161.529L146.185 164.032C147.596 165.559 147.419 167.232 146.144 168.418C144.865 169.591 143.18 169.621 141.76 168.085L140.571 166.797L138.316 168.879L137.211 167.683ZM141.555 165.887L142.592 167.01C143.429 167.907 144.31 167.845 145.013 167.194C145.727 166.536 145.845 165.676 145.012 164.774L143.975 163.652L141.555 165.887Z" fill="black"/>
<path d="M142.841 173.925C142.475 173.529 142.496 172.905 142.895 172.544C143.278 172.183 143.897 172.216 144.267 172.608C144.615 172.994 144.599 173.613 144.213 173.97C143.817 174.336 143.193 174.307 142.841 173.925Z" fill="black"/>
<path d="M144.665 175.752L151.327 169.599L153.639 172.102C155.05 173.629 154.872 175.302 153.598 176.488C152.319 177.66 150.634 177.691 149.214 176.154L148.024 174.866L145.77 176.949L144.665 175.752ZM149.009 173.957L150.046 175.079C150.883 175.977 151.763 175.914 152.467 175.264C153.18 174.605 153.299 173.746 152.466 172.844L151.429 171.721L149.009 173.957Z" fill="black"/>
<path d="M157.735 176.537L151.074 182.69L149.986 181.512L156.648 175.359L157.735 176.537Z" fill="black"/>
<path d="M154.058 186.124C152.668 184.619 152.817 182.768 154.381 181.323C155.927 179.895 157.843 179.865 159.16 181.291C160.291 182.515 160.5 184.283 158.747 185.902L158.379 186.242L155.157 182.755C154.323 183.559 154.281 184.528 154.986 185.283C155.458 185.803 155.997 185.944 156.436 185.819L157.499 186.969C156.438 187.557 155.129 187.283 154.058 186.124ZM155.962 182.02L158.142 184.38C158.819 183.746 158.891 182.827 158.266 182.151C157.616 181.447 156.635 181.475 155.962 182.02Z" fill="black"/>
</g>
</g>
</svg>
