<svg width="33" height="40" viewBox="0 0 33 40" fill="none" xmlns="http://www.w3.org/2000/svg">
<path fill-rule="evenodd" clip-rule="evenodd" d="M22.4833 31.7078C22.5983 31.5065 22.7804 31.3524 22.9953 31.2652C28.8521 28.8885 32.9824 23.1433 32.9824 16.4335C32.9824 7.59692 25.819 0.433472 16.9824 0.433472C8.14587 0.433472 0.982422 7.59692 0.982422 16.4335C0.982422 23.2295 5.21948 29.0359 11.1961 31.3551C11.4173 31.441 11.6053 31.5974 11.723 31.8035L15.3393 38.132C16.1071 39.4756 18.0445 39.4756 18.8123 38.132L22.4833 31.7078Z" fill="#5746C0"/>
<circle cx="16.9824" cy="16.4335" r="13.5" fill="#291F50"/>
<path fill-rule="evenodd" clip-rule="evenodd" d="M16.982 12.5966H10.6455L12.3309 24.1275C12.4027 24.6187 12.8239 24.9829 13.3204 24.9829H16.982V12.5966ZM16.9821 12.5967H23.3186L21.6332 24.1276C21.5614 24.6188 21.1401 24.983 20.6437 24.983H16.9821V12.5967Z" fill="#D9D9D9"/>
<path fill-rule="evenodd" clip-rule="evenodd" d="M21.1776 7.55042H16.9823V7.55055H12.7873C12.3272 7.55055 11.9266 7.86441 11.8164 8.31107L11.5514 9.3855H11.0087C10.5018 9.3855 10.0751 9.7648 10.0156 10.2682L9.87259 11.4795C9.80238 12.0741 10.2669 12.5968 10.8657 12.5968H16.9824V9.38555H16.9825V12.5967H23.0992C23.698 12.5967 24.1626 12.074 24.0923 11.4794L23.9493 10.2681C23.8899 9.76471 23.4631 9.38541 22.9562 9.38541H22.4136L22.1485 8.31094C22.0384 7.86428 21.6377 7.55042 21.1776 7.55042Z" fill="#4841A6"/>
<path fill-rule="evenodd" clip-rule="evenodd" d="M16.9824 12.5967H10.6459L12.3313 24.1276C12.4031 24.6188 12.8244 24.983 13.3208 24.983H16.9823V24.983H20.644C21.1404 24.983 21.5616 24.6188 21.6334 24.1276L23.3188 12.5967H16.9824V12.5967Z" fill="#ABA9C8"/>
<path fill-rule="evenodd" clip-rule="evenodd" d="M16.9824 12.5967H10.6459L12.3313 24.1276C12.4031 24.6188 12.8244 24.983 13.3208 24.983H16.9824V12.5967ZM16.9825 12.5967H21.5085L19.8231 24.1276C19.7513 24.6188 19.3301 24.983 18.8337 24.983H16.9825V12.5967Z" fill="#E7E6F0"/>
<path fill-rule="evenodd" clip-rule="evenodd" d="M19.3671 7.55057H16.9821V7.55066H12.7871C12.3271 7.55066 11.9264 7.86453 11.8162 8.31119L11.5512 9.38557H11.0085C10.5016 9.38557 10.0749 9.76488 10.0154 10.2683L9.87241 11.4796C9.8022 12.0742 10.2667 12.5968 10.8655 12.5968H16.9822V9.38566H16.9824V12.5968H21.2887C21.8875 12.5968 22.352 12.0741 22.2818 11.4795L22.1388 10.2682C22.0793 9.76482 21.6526 9.38552 21.1457 9.38552H20.603L20.338 8.31109C20.2278 7.86443 19.8271 7.55057 19.3671 7.55057Z" fill="#8F87F3"/>
<path fill-rule="evenodd" clip-rule="evenodd" d="M16.9897 9.16056C16.9897 9.03388 17.0924 8.93118 17.2191 8.93118H20.6106V9.38993H17.2191C17.0924 9.38993 16.9897 9.28724 16.9897 9.16056V9.16056Z" fill="#4841A6"/>
<ellipse cx="16.1233" cy="17.9412" rx="3.16826" ry="3.21125" fill="#ABA9C8"/>
<path d="M14.2346 19.1255L14.2339 17.6889H14.6557L14.6564 19.1255C14.6564 19.2435 14.562 19.3393 14.4455 19.3393C14.3291 19.3393 14.2346 19.2435 14.2346 19.1255Z" fill="#E7E6F0"/>
<path d="M16.2329 19.1255L16.2322 17.6889H16.654L16.6547 19.1255C16.6547 19.2435 16.5603 19.3393 16.4438 19.3393C16.3274 19.3393 16.2329 19.2435 16.2329 19.1255Z" fill="#E7E6F0"/>
<path d="M15.6911 19.3424C15.8183 19.3424 15.9215 19.2379 15.9215 19.1089C15.9215 18.98 15.8183 18.8754 15.6911 18.8754C15.5638 18.8754 15.4607 18.98 15.4607 19.1089C15.4607 19.2379 15.5638 19.3424 15.6911 19.3424Z" fill="#6B57EA"/>
<path d="M15.0789 16.5399C15.545 16.5413 15.9208 16.926 15.9196 17.4001V17.4003L15.9211 17.7059C15.9194 18.1802 15.541 18.5628 15.0747 18.5611C14.6083 18.5595 14.2325 18.1745 14.2339 17.7002L14.6557 17.7016C14.655 17.9376 14.8441 18.1314 15.0761 18.1321C15.3104 18.1328 15.4986 17.9404 15.4993 17.7045L15.4979 17.3994C15.4986 17.1634 15.3095 16.9696 15.0775 16.9689C14.8727 16.9683 14.7002 17.1181 14.6621 17.3155H14.2363C14.277 16.8787 14.6389 16.5385 15.0789 16.5399Z" fill="#E7E6F0"/>
<path d="M17.0772 16.5397C17.5432 16.5412 17.9191 16.9259 17.9179 17.4V17.4002L17.9193 17.7058C17.9177 18.1801 17.5393 18.5627 17.073 18.561C16.6066 18.5593 16.2308 18.1744 16.2322 17.7001L16.654 17.7015C16.6533 17.9375 16.8424 18.1313 17.0744 18.132C17.3087 18.1327 17.4968 17.9403 17.4976 17.7044L17.4961 17.3993C17.4968 17.1633 17.3077 16.9695 17.0758 16.9688C16.871 16.9682 16.6985 17.118 16.6604 17.3154H16.2346C16.2753 16.8786 16.6372 16.5384 17.0772 16.5397Z" fill="#E7E6F0"/>
</svg>
