<svg width="33" height="40" viewBox="0 0 33 40" fill="none" xmlns="http://www.w3.org/2000/svg">
<path fill-rule="evenodd" clip-rule="evenodd" d="M21.6012 32.1864C21.7162 31.985 21.8983 31.831 22.1132 31.7438C27.9701 29.367 32.1003 23.6219 32.1003 16.912C32.1003 8.07546 24.9369 0.912018 16.1003 0.912018C7.26379 0.912018 0.100342 8.07546 0.100342 16.912C0.100342 23.708 4.3374 29.5144 10.314 31.8337C10.5352 31.9195 10.7232 32.0759 10.8409 32.282L14.4572 38.6106C15.225 39.9542 17.1624 39.9542 17.9302 38.6106L21.6012 32.1864Z" fill="#5746C0"/>
<circle cx="16.1003" cy="16.912" r="13.5" fill="#291F50"/>
<rect x="9.33618" y="9.69199" width="8.56663" height="3.80739" rx="0.6" fill="#E7E6F0"/>
<rect x="11.4778" y="9.69199" width="4.28331" height="15.2296" fill="#E7E6F0"/>
<path d="M11.4778 13.5013H15.7611V17.3343L11.4778 14.4773V13.5013Z" fill="#ABA9C8"/>
<rect x="9.33618" y="21.1142" width="8.56663" height="3.80739" rx="0.6" fill="#E7E6F0"/>
<rect x="15.4907" y="14.5461" width="6.23506" height="2.77114" rx="0.4" transform="rotate(-18 15.4907 14.5461)" fill="#4841A6"/>
<rect x="16.9731" y="14.0649" width="3.11753" height="11.0845" transform="rotate(-18 16.9731 14.0649)" fill="#4841A6"/>
<rect x="18.0598" y="22.4522" width="6.23506" height="2.77114" rx="0.4" transform="rotate(-18 18.0598 22.4522)" fill="#4841A6"/>
<path d="M17.8267 16.6914L20.7916 15.728L21.6569 18.3913L18.0494 17.377L17.8267 16.6914Z" fill="#353071"/>
</svg>
