<svg width="33" height="40" viewBox="0 0 33 40" fill="none" xmlns="http://www.w3.org/2000/svg">
<path fill-rule="evenodd" clip-rule="evenodd" d="M22.1317 32.0569C22.2467 31.8556 22.4289 31.7015 22.6437 31.6143C28.5006 29.2376 32.6309 23.4924 32.6309 16.7826C32.6309 7.94601 25.4674 0.782562 16.6309 0.782562C7.7943 0.782562 0.630859 7.94601 0.630859 16.7826C0.630859 23.5786 4.86792 29.385 10.8445 31.7042C11.0658 31.7901 11.2537 31.9465 11.3714 32.1526L14.9878 38.4811C15.7555 39.8247 17.6929 39.8247 18.4607 38.4811L22.1317 32.0569Z" fill="#5746C0"/>
<circle cx="16.6309" cy="16.7826" r="13.5" fill="#291F50"/>
<path d="M21.9716 13.2205C21.985 13.064 21.9939 12.9076 21.9939 12.7467C21.9939 10.0294 19.7951 7.83057 17.0778 7.83057C16.9258 7.83057 16.7783 7.8395 16.6309 7.85291C19.1381 8.08084 21.1001 10.1814 21.1001 12.7467C21.1001 12.9076 21.0911 13.064 21.0777 13.2205C22.852 13.4305 24.2285 14.9411 24.2285 16.769C24.2285 18.7444 22.6286 20.3444 20.6532 20.3444H21.547C23.5224 20.3444 25.1224 18.7444 25.1224 16.769C25.1224 14.9366 23.7459 13.4305 21.9716 13.2205Z" fill="#4841A6"/>
<path d="M19.1951 22.3826H20.3241V25.4552C20.3241 25.6089 20.1971 25.7345 20.0419 25.7345H19.4773C19.3221 25.7345 19.1951 25.6089 19.1951 25.4552V22.3826Z" fill="#ABA9C8"/>
<path d="M19.1951 22.3826H19.7596V25.4552C19.7596 25.6089 19.6326 25.7345 19.4773 25.7345C19.3221 25.7345 19.1951 25.6089 19.1951 25.4552V22.3826Z" fill="#E7E6F0"/>
<path d="M23.1324 17.9302C23.1408 17.8324 23.1465 17.7346 23.1465 17.6341C23.1465 15.9358 21.7577 14.5615 20.0415 14.5615C19.9456 14.5615 19.8524 14.5671 19.7593 14.5755C21.3428 14.7179 22.5819 16.0308 22.5819 17.6341C22.5819 17.7346 22.5763 17.8324 22.5678 17.9302C23.6884 18.0615 24.5578 19.0056 24.5578 20.148C24.5578 21.3826 23.5473 22.3826 22.2997 22.3826H22.8642C24.1118 22.3826 25.1223 21.3826 25.1223 20.148C25.1223 19.0028 24.253 18.0615 23.1324 17.9302Z" fill="#353071"/>
<path d="M22.5681 17.9302C22.5766 17.8324 22.5822 17.7346 22.5822 17.6341C22.5822 16.0308 21.3431 14.7179 19.7596 14.5755C19.6664 14.5671 19.5733 14.5615 19.4773 14.5615C17.7611 14.5615 16.3724 15.9358 16.3724 17.6341C16.3724 17.7346 16.378 17.8324 16.3865 17.9302C15.2659 18.0615 14.3965 19.0056 14.3965 20.148C14.3965 21.3826 15.407 22.3826 16.6546 22.3826H22.3C23.5476 22.3826 24.5581 21.3826 24.5581 20.148C24.5581 19.0028 23.6887 18.0615 22.5681 17.9302Z" fill="#353071"/>
<path d="M22.4759 17.93C21.3845 17.93 20.4998 18.8055 20.4998 19.8856H20.2175C20.2175 18.6513 21.2287 17.6507 22.4759 17.6507C22.5141 17.6507 22.5521 17.6516 22.5898 17.6535V17.9332C22.5521 17.9311 22.5142 17.93 22.4759 17.93Z" fill="#353071"/>
<path d="M15.7371 20.3444H17.5248V25.2606C17.5248 25.5064 17.3236 25.7075 17.0778 25.7075H16.184C15.9382 25.7075 15.7371 25.5064 15.7371 25.2606V20.3444Z" fill="#ABA9C8"/>
<path d="M15.7371 20.3444H16.6309V25.2606C16.6309 25.5064 16.4298 25.7075 16.184 25.7075C15.9382 25.7075 15.7371 25.5064 15.7371 25.2606V20.3444Z" fill="#E7E6F0"/>
<path d="M21.0778 13.2205C21.0912 13.064 21.1002 12.9076 21.1002 12.7467C21.1002 10.1814 19.1382 8.08084 16.6309 7.85291C16.4834 7.8395 16.336 7.83057 16.184 7.83057C13.4667 7.83057 11.2679 10.0294 11.2679 12.7467C11.2679 12.9076 11.2768 13.064 11.2902 13.2205C9.51593 13.4305 8.1394 14.9411 8.1394 16.769C8.1394 18.7444 9.73939 20.3444 11.7148 20.3444H20.6532C22.6286 20.3444 24.2286 18.7444 24.2286 16.769C24.2286 14.9366 22.8521 13.4305 21.0778 13.2205Z" fill="#8F87F3"/>
<path d="M20.9325 13.2207C19.2045 13.2207 17.8036 14.6216 17.8036 16.3496H17.3567C17.3567 14.3748 18.9576 12.7738 20.9325 12.7738C20.993 12.7738 21.0531 12.7753 21.1128 12.7783V13.2258C21.0531 13.2224 20.993 13.2207 20.9325 13.2207Z" fill="#4841A6"/>
</svg>
