<svg width="33" height="40" viewBox="0 0 33 40" fill="none" xmlns="http://www.w3.org/2000/svg">
<path fill-rule="evenodd" clip-rule="evenodd" d="M21.6551 32.1864C21.7702 31.985 21.9523 31.831 22.1672 31.7438C28.024 29.367 32.1543 23.6219 32.1543 16.912C32.1543 8.07546 24.9909 0.912018 16.1543 0.912018C7.31774 0.912018 0.154297 8.07546 0.154297 16.912C0.154297 23.708 4.39135 29.5144 10.3679 31.8337C10.5892 31.9195 10.7771 32.0759 10.8949 32.282L14.5112 38.6106C15.279 39.9542 17.2164 39.9542 17.9842 38.6106L21.6551 32.1864Z" fill="#5746C0"/>
<circle cx="16.1543" cy="16.912" r="13.5" fill="#291F50"/>
<path d="M16.154 25.0827C20.9269 25.0827 24.796 21.2135 24.796 16.4406H7.51196C7.51196 21.2135 11.3811 25.0827 16.154 25.0827Z" fill="#4841A6"/>
<path d="M7.51265 16.4406H24.7967C24.7967 18.5015 24.0753 20.3939 22.8713 21.8791C20.6258 21.9321 18.1857 21.8062 15.8438 21.3914C8.88912 20.1596 7.47595 17.6451 7.51265 16.4406Z" fill="#353071"/>
<ellipse cx="16.154" cy="16.4407" rx="8.64203" ry="4.32102" fill="#8F87F3"/>
<path d="M21.3203 10.6025C21.3251 10.5484 21.3283 10.4944 21.3283 10.4389C21.3283 9.5006 20.545 8.74133 19.5772 8.74133C19.523 8.74133 19.4705 8.74442 19.418 8.74905C20.311 8.82775 21.0099 9.55307 21.0099 10.4389C21.0099 10.4944 21.0067 10.5484 21.0019 10.6025C21.6339 10.675 22.1242 11.1966 22.1242 11.8278C22.1242 12.5099 21.5543 13.0623 20.8507 13.0623H21.1691C21.8727 13.0623 22.4426 12.5099 22.4426 11.8278C22.4426 11.1951 21.9523 10.675 21.3203 10.6025Z" fill="#ABA9C8"/>
<path d="M21.0019 10.6025C21.0067 10.5484 21.0099 10.4944 21.0099 10.4389C21.0099 9.55307 20.311 8.82775 19.418 8.74905C19.3654 8.74442 19.3129 8.74133 19.2588 8.74133C18.2909 8.74133 17.5077 9.5006 17.5077 10.4389C17.5077 10.4944 17.5108 10.5484 17.5156 10.6025C16.8836 10.675 16.3933 11.1966 16.3933 11.8278C16.3933 12.5099 16.9632 13.0623 17.6668 13.0623H20.8507C21.5543 13.0623 22.1242 12.5099 22.1242 11.8278C22.1242 11.1951 21.6339 10.675 21.0019 10.6025Z" fill="#E7E6F0"/>
<path d="M20.9502 10.6029C20.3347 10.6029 19.8357 11.0866 19.8357 11.6833H19.6765C19.6765 11.0014 20.2468 10.4486 20.9502 10.4486C20.9717 10.4486 20.9931 10.4491 21.0144 10.4501V10.6047C20.9932 10.6035 20.9718 10.6029 20.9502 10.6029Z" fill="#ABA9C8"/>
<path d="M13.4724 12.5992C13.4772 12.5452 13.4804 12.4912 13.4804 12.4356C13.4804 11.4974 12.6972 10.7381 11.7293 10.7381C11.6751 10.7381 11.6226 10.7412 11.5701 10.7458C12.4631 10.8245 13.162 11.5498 13.162 12.4356C13.162 12.4912 13.1588 12.5452 13.154 12.5992C13.786 12.6718 14.2764 13.1934 14.2764 13.8245C14.2764 14.5066 13.7064 15.0591 13.0028 15.0591H13.3212C14.0248 15.0591 14.5947 14.5066 14.5947 13.8245C14.5947 13.1918 14.1044 12.6718 13.4724 12.5992Z" fill="#ABA9C8"/>
<path d="M13.1541 12.5992C13.1588 12.5452 13.162 12.4912 13.162 12.4356C13.162 11.5498 12.4632 10.8245 11.5701 10.7458C11.5176 10.7412 11.465 10.7381 11.4109 10.7381C10.443 10.7381 9.65977 11.4974 9.65977 12.4356C9.65977 12.4912 9.66295 12.5452 9.66773 12.5992C9.03573 12.6718 8.54541 13.1934 8.54541 13.8245C8.54541 14.5066 9.11532 15.0591 9.81896 15.0591H13.0028C13.7065 15.0591 14.2764 14.5066 14.2764 13.8245C14.2764 13.1918 13.7861 12.6718 13.1541 12.5992Z" fill="#E7E6F0"/>
<path d="M13.1026 12.5993C12.487 12.5993 11.9881 13.083 11.9881 13.6797H11.8289C11.8289 12.9978 12.3991 12.445 13.1026 12.445C13.1241 12.445 13.1455 12.4455 13.1668 12.4465V12.6011C13.1455 12.5999 13.1241 12.5993 13.1026 12.5993Z" fill="#ABA9C8"/>
</svg>
