<svg width="33" height="39" viewBox="0 0 33 39" fill="none" xmlns="http://www.w3.org/2000/svg">
<path fill-rule="evenodd" clip-rule="evenodd" d="M21.5289 31.5453C21.644 31.344 21.8261 31.1899 22.0409 31.1027C27.8978 28.7259 32.0281 22.9808 32.0281 16.2709C32.0281 7.43438 24.8646 0.270935 16.0281 0.270935C7.19152 0.270935 0.0280762 7.43438 0.0280762 16.2709C0.0280762 23.0669 4.26513 28.8733 10.2417 31.1926C10.463 31.2784 10.6509 31.4349 10.7687 31.6409L14.385 37.9695C15.1528 39.3131 17.0902 39.3131 17.8579 37.9695L21.5289 31.5453Z" fill="#5746C0"/>
<circle cx="16.0281" cy="16.2709" r="13.5" fill="#291F50"/>
<path d="M7.22339 15.6438V19.7168L17.0886 25.1754V21.1025L7.22339 15.6438Z" fill="#8F87F3"/>
<path d="M7.22339 11.5882V15.6612L17.0886 21.1199V17.0469L7.22339 11.5882Z" fill="#8F87F3"/>
<path d="M14.9975 7.85434L7.18872 11.6613L17.0539 17.1199L24.8673 13.3401L14.9975 7.85434Z" fill="#8F87F3"/>
<mask id="mask0_2723_12524" style="mask-type:luminance" maskUnits="userSpaceOnUse" x="11" y="9" width="7" height="5">
<path d="M14.5815 13.7161L11.1555 11.4832L14.3733 9.46051L17.7993 11.6933L14.5815 13.7161Z" fill="white"/>
</mask>
<g mask="url(#mask0_2723_12524)">
<path d="M15.0051 12.2137C14.9409 12.2542 14.8324 12.2506 14.763 12.2055C14.6935 12.1605 14.6909 12.0919 14.7551 12.0513C14.8194 12.0108 14.9278 12.0135 14.9973 12.0585C15.0667 12.1036 15.0702 12.1731 15.0051 12.2137ZM13.1845 11.9729C12.9727 11.8079 12.9753 11.5743 13.1983 11.4345C13.4361 11.2866 13.8318 11.3001 14.0843 11.4652L14.2484 11.5707C14.5 11.7357 14.5122 11.99 14.2744 12.1388C14.1963 12.1875 14.1017 12.2182 14.0002 12.2326L14.362 12.468C14.4254 12.5094 14.428 12.5726 14.3698 12.6095C14.3117 12.6465 14.211 12.6438 14.1486 12.6023L13.3893 12.1081L13.3832 12.1036L13.5975 11.9693L13.6045 11.9738C13.7303 12.0549 13.929 12.0622 14.047 11.9891C14.047 11.9891 14.047 11.9891 14.0479 11.9891C14.1668 11.9143 14.159 11.788 14.034 11.706L13.87 11.5995C13.745 11.5175 13.5455 11.5103 13.4274 11.5842C13.4274 11.5842 13.4274 11.5842 13.4266 11.5842C13.3233 11.6491 13.3164 11.7565 13.4014 11.8367L13.1845 11.9729ZM14.1998 11.3344C13.988 11.1694 13.9898 10.9358 14.2136 10.796C14.4514 10.6482 14.8471 10.6617 15.0997 10.8267L15.2637 10.9331C15.5153 11.0981 15.5275 11.3524 15.2906 11.5003C15.2125 11.549 15.1179 11.5797 15.0172 11.5941L15.3791 11.8295C15.4424 11.871 15.445 11.9341 15.386 11.9711C15.327 12.008 15.2281 12.0053 15.1647 11.9639L14.3985 11.4643L14.6128 11.3299L14.6206 11.3344C14.7456 11.4165 14.9443 11.4228 15.0632 11.3497C15.0632 11.3497 15.0632 11.3497 15.0641 11.3497C15.183 11.2749 15.1752 11.1486 15.0502 11.0666L14.8862 10.9611C14.7612 10.879 14.5616 10.8718 14.4436 10.9457C14.4436 10.9457 14.4436 10.9457 14.4427 10.9457C14.3395 11.0107 14.3325 11.118 14.4176 11.1982L14.2015 11.3344M12.7662 10.4714C11.8776 11.0305 11.9244 11.9828 12.8703 12.5996C13.8162 13.2164 15.3036 13.2633 16.1922 12.7042C17.0808 12.1451 17.0339 11.1928 16.0881 10.576C15.1422 9.95919 13.6548 9.91229 12.7662 10.4714Z" fill="#E7E6F0"/>
<path d="M13.3901 12.1081L14.1494 12.6023C14.2128 12.6438 14.3117 12.6465 14.3707 12.6095C14.4297 12.5726 14.4263 12.5094 14.3629 12.468L14.0011 12.2326C13.7937 12.2614 13.5594 12.2191 13.3893 12.1081M13.5967 11.9693L13.3823 12.1036L13.3884 12.1081L13.6027 11.9738L13.5958 11.9693" fill="#ABA9C8"/>
<path d="M14.612 11.3308L14.3977 11.4652L15.164 11.9648C15.2273 12.0063 15.3262 12.009 15.3852 11.972C15.4443 11.935 15.4416 11.871 15.3783 11.8304L15.0164 11.595C14.8082 11.6239 14.5739 11.5815 14.4038 11.4706L14.6181 11.3362L14.6103 11.3317" fill="#ABA9C8"/>
<path d="M14.756 12.0513C14.6918 12.0919 14.6944 12.1614 14.7638 12.2055C14.8332 12.2497 14.9408 12.2542 15.0059 12.2137C15.071 12.1731 15.0675 12.1036 14.9981 12.0585C14.9287 12.0135 14.8211 12.0108 14.756 12.0513Z" fill="#4841A6"/>
<path d="M13.1993 11.4345C12.9754 11.5743 12.9728 11.8079 13.1854 11.9729L13.4023 11.8367C13.3164 11.7565 13.3233 11.65 13.4275 11.5842C13.4275 11.5842 13.4275 11.5842 13.4283 11.5842C13.5472 11.5103 13.746 11.5175 13.8709 11.5995L14.0349 11.706C14.1599 11.788 14.1668 11.9143 14.0488 11.9891C14.0488 11.9891 14.0488 11.9891 14.0479 11.9891C13.9299 12.0622 13.7312 12.0559 13.6054 11.9738L13.391 12.1073C13.5611 12.2182 13.7954 12.2606 14.0028 12.2317C14.1044 12.2173 14.1989 12.1866 14.277 12.1379C14.5148 11.9891 14.5027 11.7357 14.251 11.5698L14.087 11.4643C13.8345 11.2993 13.4388 11.2848 13.201 11.4336" fill="#ABA9C8"/>
<path d="M14.2146 10.7961C13.9907 10.9358 13.9881 11.1694 14.2007 11.3344L14.4168 11.1983C14.3309 11.118 14.3379 11.0116 14.442 10.9458C14.442 10.9458 14.442 10.9458 14.4429 10.9458C14.5617 10.8718 14.7605 10.879 14.8854 10.9611L15.0494 11.0666C15.1744 11.1487 15.1813 11.2749 15.0633 11.3498C15.0633 11.3498 15.0633 11.3498 15.0625 11.3498C14.9444 11.4237 14.7448 11.4165 14.6199 11.3344L14.4055 11.4679C14.5748 11.5788 14.8099 11.6221 15.0182 11.5923C15.1189 11.5779 15.2143 11.5472 15.2916 11.4985C15.5285 11.3507 15.5163 11.0963 15.2647 10.9313L15.1006 10.8249C14.8481 10.6599 14.4524 10.6464 14.2146 10.7942" fill="#ABA9C8"/>
</g>
<path d="M24.7793 21.1026V17.7014L17.1296 21.3126V24.8397L24.7793 21.1026Z" fill="#ABA9C8"/>
<path d="M24.7767 17.1191V13.7179L17.1296 17.2595V20.7866L24.7767 17.1191Z" fill="#ABA9C8"/>
<path fill-rule="evenodd" clip-rule="evenodd" d="M24.8632 17.3641V17.7001L17.2971 21.3364V24.7367L24.8632 21.0592V21.3951L17.0881 25.1742V21.1012L24.8632 17.3641Z" fill="#4841A6"/>
<path fill-rule="evenodd" clip-rule="evenodd" d="M24.8632 13.3391V13.6751L17.2971 17.3114V20.7117L24.8632 17.0342V17.3701L17.0881 21.1492V17.0762L24.8632 13.3391Z" fill="#4841A6"/>
<path fill-rule="evenodd" clip-rule="evenodd" d="M7.22339 15.4525L11.6586 17.9779C11.7367 18.0224 11.7849 18.1053 11.7849 18.1952V18.1952C11.7849 18.3869 11.5779 18.5072 11.4113 18.4124L7.22339 16.0278L7.22339 15.4525Z" fill="#4841A6"/>
</svg>
