<svg width="33" height="40" viewBox="0 0 33 40" fill="none" xmlns="http://www.w3.org/2000/svg">
<path fill-rule="evenodd" clip-rule="evenodd" d="M22.3639 32.1864C22.4789 31.985 22.661 31.831 22.8759 31.7438C28.7327 29.367 32.863 23.6219 32.863 16.912C32.863 8.07546 25.6996 0.912018 16.863 0.912018C8.02648 0.912018 0.863037 8.07546 0.863037 16.912C0.863037 23.708 5.10009 29.5144 11.0767 31.8337C11.2979 31.9195 11.4859 32.0759 11.6036 32.282L15.2199 38.6106C15.9877 39.9542 17.9251 39.9542 18.6929 38.6106L22.3639 32.1864Z" fill="#5746C0"/>
<circle cx="16.863" cy="16.912" r="13.5" fill="#291F50"/>
<path d="M7.84859 21.3441C7.68862 21.0775 7.88067 20.7383 8.19158 20.7383H25.5347C25.8457 20.7383 26.0377 21.0775 25.8777 21.3441L23.7191 24.9418C23.5384 25.243 23.2129 25.4273 22.8616 25.4273H10.8647C10.5135 25.4273 10.1879 25.243 10.0072 24.9418L7.84859 21.3441Z" fill="#4841A6"/>
<path d="M13.1121 20.7383H25.5348C25.8457 20.7383 26.0378 21.0775 25.8778 21.3441L24.3575 23.8777L16.5946 21.7758L13.1121 20.7383Z" fill="#353071"/>
<path d="M16.3943 7.20236C16.3943 6.94339 16.6042 6.73346 16.8632 6.73346V6.73346C17.1222 6.73346 17.3321 6.94339 17.3321 7.20236V20.8005H16.3943V7.20236Z" fill="#4841A6"/>
<path d="M16.8633 7.14011L24.0211 16.0874C24.1911 16.2999 24.104 16.6163 23.8492 16.7118L16.8633 19.3316V7.14011Z" fill="#353071"/>
<path d="M16.8633 7.60901L22.6917 16.1275C22.8315 16.3318 22.754 16.6128 22.5292 16.7165L16.8633 19.3316V7.60901Z" fill="#8F87F3"/>
<path d="M16.3943 9.01572L12.3614 17.0816C12.2594 17.2855 12.3483 17.5334 12.5567 17.626L16.3943 19.3316V9.01572Z" fill="#E7E6F0"/>
<path d="M16.3943 9.01572L16.372 9.49472L15.9239 19.125L16.3943 19.3316V9.01572Z" fill="#ABA9C8"/>
</svg>
